<svg xmlns="http://www.w3.org/2000/svg" width="18" height="19" viewBox="0 0 18 19">
  <g id="file" transform="translate(-340.75 -383)">
    <g id="Group_65" data-name="Group 65" transform="translate(340.75 383)">
      <g id="common-file-text" transform="translate(0 0)">
        <g id="Shape_259" data-name="Shape 259">
          <path id="Path_13183" data-name="Path 13183" d="M356.95,402h-14.4a1.847,1.847,0,0,1-1.8-1.886V384.886a1.847,1.847,0,0,1,1.8-1.886h12.036a1.749,1.749,0,0,1,1.257.536l2.363,2.417a1.939,1.939,0,0,1,.544,1.35v12.811A1.847,1.847,0,0,1,356.95,402Zm-14.4-17.743a.616.616,0,0,0-.6.629v15.228a.616.616,0,0,0,.6.629h14.4a.616.616,0,0,0,.6-.629V387.3a.64.64,0,0,0-.182-.449l-2.363-2.418a.586.586,0,0,0-.419-.178Z" transform="translate(-340.75 -383)" fill="#7d77fb"/>
        </g>
        <g id="Shape_260" data-name="Shape 260" transform="translate(3.338 5.167)">
          <path id="Path_13184" data-name="Path 13184" d="M356.053,390.766H345.928a.633.633,0,0,1,0-1.266h10.125a.633.633,0,0,1,0,1.266Z" transform="translate(-345.295 -389.5)" fill="#7d77fb"/>
        </g>
        <g id="Shape_261" data-name="Shape 261" transform="translate(3.338 8.937)">
          <path id="Path_13185" data-name="Path 13185" d="M356.053,395.266H345.928a.633.633,0,1,1,0-1.266h10.125a.633.633,0,1,1,0,1.266Z" transform="translate(-345.295 -394)" fill="#7d77fb"/>
        </g>
        <g id="Shape_262" data-name="Shape 262" transform="translate(3.537 12.707)">
          <path id="Path_13186" data-name="Path 13186" d="M350.99,399.766h-5.062a.633.633,0,0,1,0-1.266h5.062a.633.633,0,1,1,0,1.266Z" transform="translate(-345.295 -398.5)" fill="#7d77fb"/>
        </g>
      </g>
    </g>
  </g>
</svg>
