<svg xmlns="http://www.w3.org/2000/svg" width="485.73" height="371.961"
    viewBox="0 0 485.73 371.961">
    <g id="Bond-02" transform="translate(-7.138 -64.028)">
        <g id="Group_4610" data-name="Group 4610">
            <g id="Group_4609" data-name="Group 4609">
                <rect id="Rectangle_58" data-name="Rectangle 58" width="58.43" height="58.43"
                    transform="matrix(-0.844, -0.537, 0.537, -0.844, 56.441, 341.886)"
                    fill="#322d78" />
                <rect id="Rectangle_59" data-name="Rectangle 59" width="58.43" height="58.43"
                    transform="matrix(-0.844, -0.537, 0.537, -0.844, 105.744, 373.245)"
                    fill="#322d78" />
                <rect id="Rectangle_60" data-name="Rectangle 60" width="58.43" height="58.43"
                    transform="matrix(-0.844, -0.537, 0.537, -0.844, 155.046, 404.603)"
                    fill="#322d78" />
                <rect id="Rectangle_61" data-name="Rectangle 61" width="58.43" height="58.43"
                    transform="matrix(-0.844, -0.537, 0.537, -0.844, 186.405, 355.301)"
                    fill="#f15f6d" />
                <rect id="Rectangle_62" data-name="Rectangle 62" width="58.43" height="58.43"
                    transform="matrix(-0.844, -0.537, 0.537, -0.844, 217.758, 306.007)"
                    fill="#f15f6d" />
                <rect id="Rectangle_63" data-name="Rectangle 63" width="58.43" height="58.43"
                    transform="matrix(-0.844, -0.537, 0.537, -0.844, 168.461, 274.64)"
                    fill="#f15f6d" />
                <rect id="Rectangle_64" data-name="Rectangle 64" width="58.43" height="58.43"
                    transform="matrix(-0.844, -0.537, 0.537, -0.844, 87.8, 292.584)"
                    fill="#322d78" />
                <rect id="Rectangle_65" data-name="Rectangle 65" width="58.43" height="58.43"
                    transform="matrix(-0.844, -0.537, 0.537, -0.844, 119.159, 243.281)"
                    fill="#322d78" />
                <rect id="Rectangle_66" data-name="Rectangle 66" width="58.43" height="58.43"
                    transform="matrix(-0.844, -0.537, 0.537, -0.844, 150.52, 193.993)"
                    fill="#f15f6d" />
                <rect id="Rectangle_67" data-name="Rectangle 67" width="58.43" height="58.43"
                    transform="matrix(-0.844, -0.537, 0.537, -0.844, 181.879, 144.691)"
                    fill="#f15f6d" />
            </g>
        </g>
        <g id="Group_4612" data-name="Group 4612">
            <g id="Group_4611" data-name="Group 4611">
                <rect id="Rectangle_68" data-name="Rectangle 68" width="58.43" height="58.43"
                    transform="matrix(0.844, 0.537, -0.537, 0.844, 443.565, 158.108)"
                    fill="#322d78" />
                <rect id="Rectangle_69" data-name="Rectangle 69" width="58.43" height="58.43"
                    transform="matrix(0.844, 0.537, -0.537, 0.844, 394.264, 126.748)"
                    fill="#322d78" />
                <rect id="Rectangle_70" data-name="Rectangle 70" width="58.43" height="58.43"
                    transform="matrix(0.844, 0.537, -0.537, 0.844, 344.963, 95.388)"
                    fill="#322d78" />
                <rect id="Rectangle_71" data-name="Rectangle 71" width="58.43" height="58.43"
                    transform="matrix(0.844, 0.537, -0.537, 0.844, 313.603, 144.689)"
                    fill="#22c1e0" />
                <rect id="Rectangle_72" data-name="Rectangle 72" width="58.43" height="58.43"
                    transform="matrix(0.844, 0.537, -0.537, 0.844, 282.238, 193.999)"
                    fill="#22c1e0" />
                <rect id="Rectangle_73" data-name="Rectangle 73" width="58.43" height="58.43"
                    transform="matrix(0.844, 0.537, -0.537, 0.844, 331.544, 225.35)"
                    fill="#22c1e0" />
                <rect id="Rectangle_74" data-name="Rectangle 74" width="58.43" height="58.43"
                    transform="matrix(0.844, 0.537, -0.537, 0.844, 412.205, 207.409)"
                    fill="#322d78" />
                <rect id="Rectangle_75" data-name="Rectangle 75" width="58.43" height="58.43"
                    transform="matrix(0.844, 0.537, -0.537, 0.844, 380.845, 256.71)"
                    fill="#322d78" />
                <rect id="Rectangle_76" data-name="Rectangle 76" width="58.43" height="58.43"
                    transform="matrix(0.844, 0.537, -0.537, 0.844, 349.489, 306.025)"
                    fill="#22c1e0" />
                <rect id="Rectangle_77" data-name="Rectangle 77" width="58.43" height="58.43"
                    transform="matrix(0.844, 0.537, -0.537, 0.844, 318.129, 355.326)"
                    fill="#22c1e0" />
            </g>
        </g>
    </g>
</svg>
