<svg xmlns="http://www.w3.org/2000/svg" width="24" height="24" viewBox="0 0 24 24">
  <g id="apple" transform="translate(-298 -298)">
    <rect id="back" width="24" height="24" transform="translate(298 298)" fill="none"/>
    <path id="Path_6312" data-name="Path 6312" d="M34.485,69.7c-.246.225-.494.447-.737.675a5.391,5.391,0,0,0-.723,7.379A4.4,4.4,0,0,0,34.9,79.3c.092.037.185.07.3.113-.1.277-.193.55-.3.815a14.188,14.188,0,0,1-2.61,4.214,6.283,6.283,0,0,1-.695.637,2.955,2.955,0,0,1-2.809.622c-.523-.152-1.041-.323-1.562-.483a6.079,6.079,0,0,0-1.646-.311,5.4,5.4,0,0,0-2,.43,13.215,13.215,0,0,1-1.494.487,2.7,2.7,0,0,1-2.187-.5,6.483,6.483,0,0,1-1.657-1.694A17.273,17.273,0,0,1,15.676,78.3a12.3,12.3,0,0,1-.343-5.21,7.412,7.412,0,0,1,1.916-4.11,4.819,4.819,0,0,1,4.178-1.53,13.277,13.277,0,0,1,2.381.543c.327.095.66.166.99.249a2.616,2.616,0,0,0,1.394-.068c.643-.188,1.279-.4,1.921-.591a6.074,6.074,0,0,1,2.91-.173,5.511,5.511,0,0,1,3.126,1.883c.106.12.209.241.313.362A.253.253,0,0,1,34.485,69.7Z" transform="translate(284.804 236.115)" fill="#fff"/>
    <path id="Path_6313" data-name="Path 6313" d="M113.992,14.659a6.991,6.991,0,0,1,.034.8,5.728,5.728,0,0,1-1.628,3.648,4.337,4.337,0,0,1-1.526,1.1,5.337,5.337,0,0,1-1.6.285c-.008,0-.017-.009-.026-.013C109.326,17.331,110.917,15.293,113.992,14.659Z" transform="translate(200.496 283.341)" fill="#fff"/>
  </g>
</svg>
