<svg xmlns="http://www.w3.org/2000/svg" width="60" height="32" viewBox="0 0 60 32">
  <g id="apple" transform="translate(-299 -297)">
    <rect id="back" width="60" height="32" transform="translate(299 297)" fill="#fff"/>
    <g id="ApP" transform="translate(287.804 286.341)">
      <g id="Group_3303" data-name="Group 3303" transform="translate(15.196 14.659)">
        <path id="Path_6312" data-name="Path 6312" d="M30.772,69.248c-.2.182-.4.362-.6.548a4.389,4.389,0,0,0-.584,5.987,3.556,3.556,0,0,0,1.512,1.252c.074.03.149.057.241.092-.083.225-.156.446-.245.661a11.521,11.521,0,0,1-2.108,3.419,5.083,5.083,0,0,1-.561.517,2.378,2.378,0,0,1-2.269.5c-.423-.123-.841-.262-1.261-.392a4.888,4.888,0,0,0-1.329-.252,4.345,4.345,0,0,0-1.612.349,10.634,10.634,0,0,1-1.207.4,2.175,2.175,0,0,1-1.766-.408,5.248,5.248,0,0,1-1.338-1.374,14.044,14.044,0,0,1-2.068-4.321A10.028,10.028,0,0,1,15.306,72a6.027,6.027,0,0,1,1.547-3.334,3.881,3.881,0,0,1,3.374-1.241,10.678,10.678,0,0,1,1.923.441c.264.077.533.134.8.2a2.1,2.1,0,0,0,1.125-.055c.519-.152,1.033-.325,1.551-.479a4.883,4.883,0,0,1,2.349-.141A4.446,4.446,0,0,1,30.5,68.917c.085.1.169.2.253.294A.206.206,0,0,1,30.772,69.248Z" transform="translate(-15.196 -62.907)" fill="#070202"/>
        <path id="Path_6313" data-name="Path 6313" d="M113.1,14.659a5.673,5.673,0,0,1,.028.649,4.647,4.647,0,0,1-1.321,2.96,3.519,3.519,0,0,1-1.238.9,4.33,4.33,0,0,1-1.3.231c-.007,0-.014-.007-.021-.011A4.491,4.491,0,0,1,113.1,14.659Z" transform="translate(-101.393 -14.659)" fill="#070202"/>
      </g>
      <g id="Group_3304" data-name="Group 3304" transform="translate(36.164 17.383)">
        <path id="Path_6314" data-name="Path 6314" d="M267.412,47.581a24.508,24.508,0,0,1,4.059-.316,6.729,6.729,0,0,1,4.593,1.361,4.4,4.4,0,0,1,1.434,3.427,4.822,4.822,0,0,1-1.264,3.5,6.787,6.787,0,0,1-5.007,1.8,7.275,7.275,0,0,1-1.7-.146v6.562h-2.114Zm2.114,7.9a7.089,7.089,0,0,0,1.75.17c2.552,0,4.107-1.239,4.107-3.5,0-2.163-1.531-3.208-3.864-3.208a8.871,8.871,0,0,0-1.993.17Z" transform="translate(-267.412 -47.265)" fill="#070202"/>
        <path id="Path_6315" data-name="Path 6315" d="M397.87,113.212l-.17-1.531h-.073a4.338,4.338,0,0,1-3.6,1.807,3.4,3.4,0,0,1-3.6-3.489c0-2.937,2.528-4.543,7.072-4.518v-.251a2.474,2.474,0,0,0-2.673-2.811,5.725,5.725,0,0,0-3.062.9l-.486-1.456a7.127,7.127,0,0,1,3.864-1.079c3.6,0,4.472,2.535,4.472,4.97V110.3a17.651,17.651,0,0,0,.194,2.911Zm-.316-6.2c-2.333-.05-4.982.377-4.982,2.736a1.923,1.923,0,0,0,2.017,2.108,2.936,2.936,0,0,0,2.843-2.033,2.372,2.372,0,0,0,.122-.7Z" transform="translate(-380.154 -96.316)" fill="#070202"/>
        <path id="Path_6316" data-name="Path 6316" d="M508.8,103.987l2.576,6.951c.267.778.559,1.7.754,2.406h.049c.219-.7.462-1.6.753-2.455l2.333-6.9h2.26l-3.208,8.385c-1.531,4.034-2.576,6.1-4.034,7.364a5.8,5.8,0,0,1-2.625,1.385l-.535-1.8a5.655,5.655,0,0,0,1.871-1.045,6.485,6.485,0,0,0,1.8-2.382,1.536,1.536,0,0,0,.17-.51,1.865,1.865,0,0,0-.146-.559l-4.35-10.84Z" transform="translate(-486.492 -98.846)" fill="#070202"/>
      </g>
    </g>
  </g>
</svg>
