<svg xmlns="http://www.w3.org/2000/svg" width="16" height="16" viewBox="0 0 16 16">
  <g id="arrow" transform="translate(-6 -5.561)">
    <g id="Group_57" data-name="Group 57" transform="translate(6 5.561)">
      <g id="Regular_57" data-name="Regular 57">
        <g id="Shape_234" data-name="Shape 234" transform="translate(0 7.111)">
          <path id="Path_6327" data-name="Path 6327" d="M21.111,12.673H6.889a.889.889,0,0,1,0-1.779H21.111a.889.889,0,1,1,0,1.779Z" transform="translate(-6 -10.894)" fill="#7f7ff8"/>
        </g>
        <g id="Shape_235" data-name="Shape 235">
          <path id="Path_6328" data-name="Path 6328" d="M13.527,21.561a.887.887,0,0,1-.651-.283L6.239,14.168a.889.889,0,0,1,0-1.213l6.637-7.111a.889.889,0,0,1,1.3,1.212L8.105,13.561l6.071,6.5a.889.889,0,0,1-.044,1.256A.877.877,0,0,1,13.527,21.561Z" transform="translate(-6 -5.561)" fill="#7f7ff8"/>
        </g>
      </g>
    </g>
  </g>
</svg>
