<svg xmlns="http://www.w3.org/2000/svg" width="20.435" height="16.134" viewBox="0 0 20.435 16.134">
  <path id="Arrow_Left" data-name="Arrow Left" d="M14.884,14.084a1.028,1.028,0,0,0-.035-.259c-.005-.024-.013-.046-.02-.067a1.168,1.168,0,0,0-.082-.185c-.01-.017-.018-.035-.029-.052a1.089,1.089,0,0,0-.141-.18c0-.005-.009-.006-.014-.011a1.1,1.1,0,0,0-.252-.181,1.044,1.044,0,0,0-1.093.086l-8.666,7.02a1.051,1.051,0,0,0,0,1.7l8.666,7.022a1.032,1.032,0,0,0,.662.19h0a.978.978,0,0,0,.207-.028.816.816,0,0,0,.224-.078,1.047,1.047,0,0,0,.574-.935l0-3.57,7.219-1a2.452,2.452,0,0,0,0-4.9l-7.217-1v-3.57Z" transform="translate(24.553 29.167) rotate(180)" fill="#3a3855"/>
</svg>
