<svg xmlns="http://www.w3.org/2000/svg" width="16" height="16" viewBox="0 0 16 16">
  <g id="arrow-back-round-24px" transform="translate(0)">
    <path id="Path_6815" data-name="Path 6815" d="M0,0H16V16H0Z" transform="translate(0)" fill="none"/>
    <path id="Path_6816" data-name="Path 6816" d="M19.391,11.358H7.921l5.011-5.145a1.083,1.083,0,0,0,0-1.5,1,1,0,0,0-1.448,0L4.718,11.664a1.07,1.07,0,0,0,0,1.487L11.484,20.1a1,1,0,0,0,1.448,0,1.07,1.07,0,0,0,0-1.487L7.921,13.467H19.391a1.055,1.055,0,0,0,0-2.109Z" transform="translate(-4.418 -4.407)" fill="#7d7bfa"/>
  </g>
</svg>
