<svg xmlns="http://www.w3.org/2000/svg" xmlns:xlink="http://www.w3.org/1999/xlink" width="183.601" height="179.201" viewBox="0 0 183.601 179.201">
  <defs>
    <clipPath id="clip-path">
      <path id="Path_5909"  d="M383.033,386.455c2.9,1.054,33.307-4.745,34.585-6.845,1.188-1.95-.785-30.614-4.378-32.407s-33.008,2.679-35.487,6.434S380.128,385.4,383.033,386.455Z" transform="translate(-377.07 -346.795)" fill="none"/>
    </clipPath>
    <clipPath id="clip-path-2">
      <path id="Path_5964"  d="M476.874,700.172s-.389,9.978-.963,11.052-9.284,25.071-9.3,25.608,27.627.805,28.728,0-4.7-24.265-4.122-25.608,1.035-10.315,1.035-10.315C493.03,693.6,476.827,692.388,476.874,700.172Z" transform="translate(-466.609 -694.857)" fill="none"/>
    </clipPath>
  </defs>
  <g id="art" transform="translate(56.169 17.058)">
    <g id="Group_3234"  transform="translate(-8.904 -2.639)">
      <path id="Path_5906"  d="M368.9,292.414c-2.131.491-27.8,26.425-27.365,29.362s49.94,29.168,51.623,27.493,13.589-11.9,12.664-12.554-5.91,1.071-5.8-.045,4.54-23.3,4.76-25.538S374.5,291.125,368.9,292.414Z" transform="translate(-327.378 -291.819)" fill="#fb9387"/>
      <ellipse id="Ellipse_455"  cx="4.63" cy="4.476" rx="4.63" ry="4.476" transform="matrix(0.713, -0.701, 0.701, 0.713, 59.038, 40.208)" fill="#fff"/>
      <path id="Path_5907"  d="M383.033,386.455c2.9,1.054,33.307-4.745,34.585-6.845,1.188-1.95-.785-30.614-4.378-32.407s-33.008,2.679-35.487,6.434S380.128,385.4,383.033,386.455Z" transform="translate(-353.272 -331.49)" fill="#fff"/>
      <g id="Group_3233"  transform="translate(23.799 15.305)">
        <g id="Group_3232"  clip-path="url(#clip-path)">
          <path id="Path_5908"  d="M434.346,448.4a9.088,9.088,0,0,1-7.439,11.089,9.3,9.3,0,0,1-11.018-7.324c-1.232-5.156.88-10.318,6.556-11.347A10.153,10.153,0,0,1,434.346,448.4Z" transform="translate(-405.107 -415.169)" fill="#7f7ff8"/>
        </g>
      </g>
      <path id="Path_5910"  d="M407.86,421.991a10.173,10.173,0,0,1,1.009-1.037c.355-.322.72-.631,1.1-.923s.766-.573,1.169-.834a10.311,10.311,0,0,1,1.257-.721.275.275,0,0,1,.331.421,10.307,10.307,0,0,1-1,1.05c-.349.33-.716.636-1.087.938s-.76.58-1.158.848a10.206,10.206,0,0,1-1.246.735.31.31,0,0,1-.374-.476Z" transform="translate(-375.654 -383.698)" fill="#3b3b56"/>
      <path id="Path_5911"  d="M437.213,455.508c-.051-.014-.152-.046-.236-.064s-.18-.04-.271-.056c-.184-.034-.372-.053-.561-.07a8.8,8.8,0,0,0-1.151-.013,18.2,18.2,0,0,0-2.336.277q-.292.06-.586.108l-.586.126a11.186,11.186,0,0,0-1.151.3,6.286,6.286,0,0,0-1.063.423,1.891,1.891,0,0,0-.413.289.642.642,0,0,0-.113.149.257.257,0,0,0-.023.058l0,.022s.006.023-.014-.007a.268.268,0,1,1-.452.288.57.57,0,0,1-.068-.151.68.68,0,0,1-.025-.13.774.774,0,0,1,.018-.245,1.059,1.059,0,0,1,.18-.386,2.248,2.248,0,0,1,.521-.5,5.806,5.806,0,0,1,1.157-.623c.393-.17.8-.3,1.2-.427l.6-.182c.2-.053.41-.1.616-.149a10.422,10.422,0,0,1,2.544-.256,6.514,6.514,0,0,1,1.3.173,4.621,4.621,0,0,1,.636.2,2.761,2.761,0,0,1,.626.349.3.3,0,0,1-.256.524Z" transform="translate(-390.492 -409.804)" fill="#3b3b56"/>
      <path id="Path_5912"  d="M449.926,414a11.582,11.582,0,0,1,1.547.034c.512.04,1.021.1,1.527.177s1.01.171,1.51.289a11.8,11.8,0,0,1,1.489.431.274.274,0,0,1-.078.53,11.761,11.761,0,0,1-1.55-.017c-.513-.031-1.021-.092-1.529-.159s-1.011-.163-1.512-.271a11.619,11.619,0,0,1-1.492-.414.309.309,0,0,1,.089-.6Z" transform="translate(-406.142 -380.447)" fill="#3b3b56"/>
      <path id="Path_5913"  d="M521.632,384.405c.175.83.316,1.665.458,2.5s.259,1.675.376,2.514q.332,2.519.543,5.052l-.689-.473a6.36,6.36,0,0,1,2.05-.241,4.629,4.629,0,0,1,2.034.572,4.111,4.111,0,0,1,1.526,1.5,5.554,5.554,0,0,1,.673,1.951,6.283,6.283,0,0,1,.014,2.035,4.423,4.423,0,0,1-.8,1.909,4.471,4.471,0,0,1-1.566,1.312,5.665,5.665,0,0,1-1.9.579.268.268,0,0,1-.1-.527,5.692,5.692,0,0,0,1.65-.662,3.927,3.927,0,0,0,1.226-1.178,3.708,3.708,0,0,0,.564-1.572,5.562,5.562,0,0,0-.08-1.72,4.532,4.532,0,0,0-.585-1.584,3.12,3.12,0,0,0-1.151-1.1,3.723,3.723,0,0,0-1.571-.427,5.326,5.326,0,0,0-1.684.188l-.01,0a.534.534,0,0,1-.66-.368.563.563,0,0,1-.019-.107q-.184-2.517-.413-5.031l-.234-2.514-.258-2.513a.3.3,0,0,1,.6-.093Z" transform="translate(-458.164 -358.718)" fill="#3b3b56"/>
      <path id="Path_5914"  d="M418,420.767c.006.658,0,1.317-.032,1.983a9.208,9.208,0,0,1-.105,1.014,2.221,2.221,0,0,1-.158.564.868.868,0,0,1-.106.173,1.2,1.2,0,0,1-.123.13,1.955,1.955,0,0,1-.238.185,6.106,6.106,0,0,1-.93.485c-.31.135-.621.255-.933.37-.624.228-1.252.433-1.882.627-2.524.757-5.073,1.374-7.629,1.96s-5.128,1.094-7.7,1.577-5.163.918-7.762,1.29c-1.3.177-2.606.338-3.921.457-.658.058-1.319.107-1.99.126-.336.008-.675.01-1.026-.01a4.514,4.514,0,0,1-.552-.064,2.072,2.072,0,0,1-.322-.086,1.392,1.392,0,0,1-.345-.2,3.266,3.266,0,0,1-.738-.9,9.5,9.5,0,0,1-.478-.921c-.281-.617-.518-1.241-.737-1.869-.438-1.254-.794-2.525-1.116-3.8a88.528,88.528,0,0,1-2.463-15.548.268.268,0,0,1,.534-.046v0q.408,3.887,1.135,7.733c.472,2.562,1.028,5.11,1.711,7.617.344,1.252.717,2.5,1.145,3.71.216.606.449,1.2.714,1.775a8.453,8.453,0,0,0,.431.817,2.379,2.379,0,0,0,.488.614c.04.071.358.115.653.13s.618.012.935,0c.636-.023,1.28-.074,1.924-.135,1.289-.125,2.58-.294,3.869-.479,5.162-.72,10.3-1.686,15.407-2.753,2.552-.539,5.1-1.114,7.6-1.814.625-.174,1.247-.357,1.857-.56a9.282,9.282,0,0,0,1.721-.723.624.624,0,0,0,.223-.192,1.633,1.633,0,0,0,.11-.376,8.88,8.88,0,0,0,.123-.933c.059-.639.087-1.288.105-1.938a.3.3,0,0,1,.605,0Z" transform="translate(-353.011 -376.102)" fill="#3b3b56"/>
      <path id="Path_5915"  d="M432.183,379.609c-1.277,2.1-31.68,7.9-34.584,6.846a1.3,1.3,0,0,1-.538-.467c9.708-1.206,27.768-4.985,28.745-6.594,1.189-1.951-.785-30.614-4.378-32.408q-.08-.039-.176-.075c3.224-.211,5.671-.151,6.553.29C431.4,348.995,433.372,377.658,432.183,379.609Z" transform="translate(-367.837 -331.489)" fill="#f4f4f4" style="mix-blend-mode: multiply;isolation: isolate"/>
      <path id="Path_5916"  d="M413.13,351.333c-4.756,1.411-7.958-1.573-11.221-1.256s-4.967,5.561-9.266,6.341-7.658-3.272-7.658-3.272c-.26,1.966-3.783,4.25-6.469,4.737s-3.739-2.886-6.425-2.4-3.136,3.036-5.016,3.377c0,0-2.026-6.213,1.567-9.88s35.521-9.73,39.071-6.261A26.314,26.314,0,0,1,413.13,351.333Z" transform="translate(-345.575 -327.767)" fill="#fb9387"/>
      <path id="Path_5917"  d="M416.083,340.6c-.19.583-27.858,5.6-28.206,5.114s-1.172-4.174-.674-4.539,27.281-5.769,28.206-5.114S416.272,340.02,416.083,340.6Z" transform="translate(-360.541 -323.631)" fill="#3b3b56"/>
      <path id="Path_5918"  d="M367.745,379.839a3.909,3.909,0,0,0,1.934-1.51,9.018,9.018,0,0,1,1-.994,4.649,4.649,0,0,1,1.975-.962,2.575,2.575,0,0,1,.378-.056,1.877,1.877,0,0,1,.386-.023,3.361,3.361,0,0,1,1.483.379,27.371,27.371,0,0,1,2.274,1.54,3.035,3.035,0,0,0,1.08.458c.046.009.091.024.137.029l.139.007a1.533,1.533,0,0,0,.278.006l.281-.031a2.448,2.448,0,0,0,.3-.061,10.222,10.222,0,0,0,2.4-.914,10.622,10.622,0,0,0,2.124-1.444,5.781,5.781,0,0,0,.826-.915,2.464,2.464,0,0,0,.444-.994.53.53,0,0,1,.917-.283l.014.015a8.756,8.756,0,0,0,6.439,3.171l.449-.051a3.011,3.011,0,0,0,.445-.066,5.6,5.6,0,0,0,.863-.256,7.045,7.045,0,0,0,1.591-.907A24.271,24.271,0,0,0,398.7,373.3a13.4,13.4,0,0,1,1.508-1.379,4.9,4.9,0,0,1,1.942-.953,5.422,5.422,0,0,1,1.088-.086,7.957,7.957,0,0,1,1.044.115,14.538,14.538,0,0,1,1.965.514,24.377,24.377,0,0,0,3.746,1.034,9.275,9.275,0,0,0,3.788-.2.268.268,0,0,1,.152.514,9.509,9.509,0,0,1-4.033.375,22.77,22.77,0,0,1-3.895-.936,13.68,13.68,0,0,0-1.864-.445,7.166,7.166,0,0,0-.919-.082l-.451.023a1.261,1.261,0,0,0-.216.024,1.6,1.6,0,0,0-.208.04,3.99,3.99,0,0,0-1.553.818,14.316,14.316,0,0,0-1.379,1.311,25,25,0,0,1-2.892,2.8,8.081,8.081,0,0,1-1.824,1.056,6.652,6.652,0,0,1-1.026.314,3.843,3.843,0,0,1-.529.085l-.532.062a7.386,7.386,0,0,1-2.116-.216,8.807,8.807,0,0,1-1.009-.314c-.318-.145-.646-.272-.947-.447a10.651,10.651,0,0,1-1.727-1.143c-.27-.214-.529-.44-.779-.676a9.561,9.561,0,0,1-.73-.758l.931-.268a3.46,3.46,0,0,1-.635,1.461,6.81,6.81,0,0,1-.988,1.086,11.637,11.637,0,0,1-2.349,1.58,10.382,10.382,0,0,1-2.66.968,3.16,3.16,0,0,1-.362.066l-.393.035a2.422,2.422,0,0,1-.4-.016l-.2-.017c-.065-.009-.129-.028-.193-.042a3.978,3.978,0,0,1-1.387-.612c-.813-.528-1.444-1.174-2.168-1.542a2.671,2.671,0,0,0-2.277-.115,5.061,5.061,0,0,0-2.021,1.47,10.92,10.92,0,0,1-1,.978,2.879,2.879,0,0,1-1.357.643h0a.3.3,0,0,1-.1-.6Z" transform="translate(-346.298 -349.043)" fill="#3b3b56"/>
      <path id="Path_5919"  d="M403.128,312.285c.066-.449.129-.925.168-1.393l.06-.7.026-.352.01-.164c0,.057,0,.044,0,.032a1.93,1.93,0,0,0-.332-.433c-.15-.159-.318-.315-.49-.467-.346-.305-.716-.6-1.091-.883-1.51-1.139-3.112-2.186-4.726-3.205-3.233-2.036-6.548-3.954-9.913-5.772s-6.786-3.539-10.286-5.049a46.707,46.707,0,0,0-5.325-1.975,10.065,10.065,0,0,0-2.671-.46,2.7,2.7,0,0,0-.3.022c-.049.005-.094.014-.138.023l-.027.005h0c-.009,0-.017.006-.034.015a3.761,3.761,0,0,0-.518.331c-.368.268-.735.569-1.1.872-1.446,1.226-2.845,2.536-4.231,3.852s-2.753,2.66-4.109,4.012c-2.706,2.71-5.391,5.444-8,8.245-1.307,1.4-2.6,2.812-3.862,4.249s-2.5,2.893-3.653,4.406c-.285.379-.563.763-.824,1.153a8.31,8.31,0,0,0-.684,1.19,2.156,2.156,0,0,0-.1.288.5.5,0,0,0-.024.19.773.773,0,0,0,.109.2,2.808,2.808,0,0,0,.2.255,9.077,9.077,0,0,0,.995.961A27.461,27.461,0,0,0,347,324.836h0a.268.268,0,0,1-.246.476,27,27,0,0,1-4.927-3.08,9.67,9.67,0,0,1-1.089-1.019,3.44,3.44,0,0,1-.248-.31,1.334,1.334,0,0,1-.218-.433,1.1,1.1,0,0,1,.019-.521,2.811,2.811,0,0,1,.131-.392,8.942,8.942,0,0,1,.723-1.316c.265-.412.544-.81.828-1.2,1.143-1.565,2.376-3.044,3.63-4.5s2.537-2.891,3.833-4.31q3.9-4.249,7.954-8.344,2.033-2.043,4.11-4.045c1.391-1.33,2.787-2.65,4.263-3.911.372-.315.746-.625,1.152-.923a4.585,4.585,0,0,1,.7-.438c.036-.018.085-.037.132-.054l.089-.027c.031-.008.04-.009.061-.014.073-.015.145-.029.216-.037a3.7,3.7,0,0,1,.416-.033,7.609,7.609,0,0,1,1.54.147c.493.091.973.21,1.446.341a44.479,44.479,0,0,1,5.463,2.013c3.542,1.54,6.975,3.287,10.358,5.119s6.709,3.769,9.956,5.842c1.619,1.045,3.223,2.113,4.766,3.3.384.3.765.606,1.135.938.185.167.368.339.546.531a2.594,2.594,0,0,1,.511.724.876.876,0,0,1,.066.382c-.009.084-.017.128-.026.193l-.055.363c-.037.242-.08.482-.135.721a12.041,12.041,0,0,1-.386,1.429.3.3,0,0,1-.586-.145Z" transform="translate(-326.446 -290.399)" fill="#3b3b56"/>
      <path id="Path_5920"  d="M485.176,883.149c-.206,2.267-25.973,2.267-57.757,2.267s-52.855,0-52.648-2.267,21.276-2.267,53.061-2.267S485.382,880.883,485.176,883.149Z" transform="translate(-358.329 -720.635)" fill="#eaeae9" opacity="0.6" style="mix-blend-mode: multiply;isolation: isolate"/>
      <path id="Path_5921"  d="M376.1,511.942c-2.619.806.814,35.965,1.246,39.221s3.618,45.321,4.666,46.407,32.81.814,34.195,0-4.28-41.793-3.673-43.693,7.843-39.823,6.411-42.031S395.619,505.935,376.1,511.942Z" transform="translate(-351.851 -449.439)" fill="#fff"/>
      <path id="Path_5922"  d="M380.228,864.23l-9.008,6.649h9.5Z" transform="translate(-349.009 -708.501)" fill="#3b3b56"/>
      <path id="Path_5923"  d="M423.794,513.411c-1,1.1-2.021,2.168-3.031,3.252s-2.038,2.151-3.065,3.219a.486.486,0,0,1-.655.041l-.008-.007-4.111-3.342.709-.031-1.017,1.014-1.021,1.009c-.687.667-1.37,1.338-2.066,2l-.015.014a.506.506,0,0,1-.715-.021.518.518,0,0,1-.1-.16q-.512-1.284-.992-2.58-.243-.647-.469-1.3c-.153-.435-.309-.869-.45-1.309a.269.269,0,0,1,.494-.207c.214.409.415.824.618,1.239s.405.829.6,1.247q.587,1.252,1.144,2.516l-.831-.167c.667-.687,1.349-1.359,2.025-2.037l1.024-1.007,1.029-1,.005,0a.528.528,0,0,1,.7-.026l4.062,3.4-.663.035q1.575-1.568,3.166-3.12c1.067-1.029,2.122-2.069,3.2-3.086a.3.3,0,0,1,.432.424Z" transform="translate(-374.913 -452.52)" fill="#3b3b56"/>
      <path id="Path_5924"  d="M411.921,595.414c-6.9.1-13.8.16-20.7.086-1.726-.021-3.452-.053-5.181-.112-.864-.03-1.729-.068-2.6-.128-.434-.03-.868-.065-1.306-.114-.219-.025-.439-.053-.664-.09-.113-.02-.226-.04-.345-.068a1.866,1.866,0,0,1-.4-.137c-.024-.013-.044-.023-.069-.039a.953.953,0,0,1-.087-.064.625.625,0,0,1-.154-.211,1.5,1.5,0,0,1-.077-.217c-.034-.122-.059-.233-.083-.345-.046-.221-.084-.437-.12-.654-.072-.432-.134-.861-.194-1.29-.119-.858-.227-1.716-.33-2.573-.206-1.715-.4-3.43-.581-5.145q-2.164-20.586-3.761-41.218c-.559-6.876-1.094-13.755-1.474-20.651-.094-1.724-.174-3.45-.227-5.179s-.09-3.459-.026-5.209c.018-.439.043-.878.093-1.328a6.616,6.616,0,0,1,.112-.7,2.48,2.48,0,0,1,.12-.4,1.154,1.154,0,0,1,.146-.26.838.838,0,0,1,.1-.112,1.161,1.161,0,0,1,.089-.083,3.358,3.358,0,0,1,.655-.414c.212-.107.421-.2.631-.281.419-.167.837-.311,1.256-.445,1.675-.526,3.362-.926,5.053-1.3,3.385-.741,6.787-1.353,10.213-1.858.857-.125,1.715-.241,2.578-.341s1.735-.192,2.623-.21c1.757-.034,3.489.065,5.22.2s3.453.339,5.17.594,3.427.574,5.122,1a24.636,24.636,0,0,1,2.521.773,12.366,12.366,0,0,1,1.234.535,5.593,5.593,0,0,1,1.18.773,2.476,2.476,0,0,1,.509.6c.036.06.067.129.1.193a1.348,1.348,0,0,1,.07.221,2.769,2.769,0,0,1,.059.376,11.862,11.862,0,0,1,.029,1.346c-.032.875-.118,1.738-.2,2.6a.268.268,0,0,1-.535-.022c-.012-.86-.038-1.722-.082-2.571a11.152,11.152,0,0,0-.105-1.236,1.926,1.926,0,0,0-.057-.259.533.533,0,0,0-.033-.085c-.018-.031-.029-.062-.049-.094a1.554,1.554,0,0,0-.328-.376,7.152,7.152,0,0,0-2.124-1.116,23.732,23.732,0,0,0-2.426-.727c-1.651-.409-3.338-.706-5.031-.957s-3.4-.438-5.106-.575-3.422-.225-5.113-.188c-.836.018-1.679.11-2.53.208s-1.7.217-2.548.343c-3.4.508-6.784,1.125-10.134,1.866-1.672.376-3.344.778-4.958,1.289-.4.129-.8.267-1.181.421-.189.077-.377.158-.55.246a2.409,2.409,0,0,0-.438.271.248.248,0,0,0-.029.028c-.008.007-.024.023-.009.008s0,0-.009.022a1.562,1.562,0,0,0-.065.223,5.628,5.628,0,0,0-.091.58c-.045.406-.068.829-.085,1.251-.058,1.7-.016,3.417.037,5.133s.139,3.437.228,5.156c.369,6.877.894,13.752,1.443,20.624l.816,10.311.892,10.3c.609,6.868,1.226,13.736,1.925,20.592.176,1.714.357,3.427.554,5.137.1.854.2,1.709.315,2.559.057.425.117.849.184,1.268.034.209.07.417.11.618.021.1.043.2.066.284l.017.057a.3.3,0,0,0,.011.031.243.243,0,0,0-.063-.079.077.077,0,0,0-.022-.017s0,0,0,0a1.161,1.161,0,0,0,.208.066c.09.022.19.041.289.058.2.034.408.062.617.086.418.048.843.085,1.269.116.852.062,1.71.106,2.568.145,1.717.075,3.439.122,5.16.159,6.888.137,13.785.141,20.679.1a.3.3,0,0,1,.007.605Z" transform="translate(-350.675 -446.265)" fill="#3b3b56"/>
      <path id="Path_5925"  d="M311.415,466.217q-1.131,2.657-2.4,5.256a48.962,48.962,0,0,1-2.818,5.08c-.267.409-.546.813-.848,1.207a8.173,8.173,0,0,1-1.024,1.135,2.653,2.653,0,0,1-.733.481,1.228,1.228,0,0,1-.575.094,1.073,1.073,0,0,1-.164-.029,1.316,1.316,0,0,1-.13-.041,1.6,1.6,0,0,1-.235-.109,2.5,2.5,0,0,1-.672-.587,5.316,5.316,0,0,1-.456-.651,15.469,15.469,0,0,1-1.21-2.719c-.326-.92-.611-1.846-.881-2.775-.538-1.857-1.014-3.723-1.482-5.589l-1.382-5.595c-.914-3.726-1.855-7.444-3.029-11.078l.227.278a7.346,7.346,0,0,1-2.111-1.849,9.333,9.333,0,0,1-1.346-2.419,11.694,11.694,0,0,1-.662-2.655,11.069,11.069,0,0,1-.026-2.738v0a.416.416,0,0,1,.755-.187c1.44,2.083,2.853,4.185,4.281,6.277l-.578.172.214-4.833a.268.268,0,0,1,.535.018l-.114,4.836a.317.317,0,0,1-.573.179l-.005-.007c-1.48-2.055-2.975-4.1-4.443-6.163l.756-.19a10.24,10.24,0,0,0,.071,2.52A10.789,10.789,0,0,0,291,445.97a8.374,8.374,0,0,0,1.245,2.15,6.616,6.616,0,0,0,1.846,1.587.5.5,0,0,1,.226.275v0c1.213,3.672,2.183,7.4,3.124,11.131s1.776,7.481,2.815,11.156c.262.917.539,1.829.851,2.721a15.976,15.976,0,0,0,1.1,2.553,2.621,2.621,0,0,0,.756.9.628.628,0,0,0,.09.044.37.37,0,0,0,.041.014l.013,0a.283.283,0,0,0,.128-.026,1.771,1.771,0,0,0,.466-.306,7.3,7.3,0,0,0,.916-.988c.288-.364.562-.746.826-1.137a83.906,83.906,0,0,0,5.421-10.086.3.3,0,0,1,.552.248Z" transform="translate(-289.377 -399.797)" fill="#3b3b56"/>
      <path id="Path_5926"  d="M378.139,847.4c.175.843.325,1.686.471,2.532s.282,1.693.4,2.545.223,1.706.3,2.568a17.682,17.682,0,0,1,.088,2.642,3.412,3.412,0,0,1-.123.751,1.4,1.4,0,0,1-.1.24.849.849,0,0,1-.266.307.757.757,0,0,1-.129.072.786.786,0,0,1-.121.038l-.108.022c-.074.015-.126.019-.19.028-.469.055-.895.062-1.331.076-.866.02-1.725.018-2.583.011-1.717-.028-3.428-.069-5.142-.145h-.011a.51.51,0,0,1-.272-.925q2.17-1.541,4.361-3.054,1.093-.76,2.2-1.5c.734-.5,1.468-1,2.209-1.487a.268.268,0,0,1,.314.434c-.7.552-1.4,1.092-2.1,1.634s-1.406,1.083-2.115,1.617q-2.122,1.607-4.264,3.188l-.282-.925c1.705.031,3.415.073,5.119.082.852.01,1.7.015,2.548,0,.418-.009.849-.023,1.23-.059.042-.006.1-.01.127-.017l.05-.008c.024,0-.026.006-.044.016a.329.329,0,0,0-.059.032c-.065.049-.064.068-.063.062a.35.35,0,0,0,.023-.056,2.484,2.484,0,0,0,.087-.512,19.324,19.324,0,0,0-.032-2.484c-.053-.844-.131-1.69-.211-2.538l-.269-2.543-.3-2.542v0a.3.3,0,0,1,.6-.1Z" transform="translate(-347.251 -696.062)" fill="#3b3b56"/>
      <path id="Path_5927"  d="M433.774,597.2c-1.385.814-33.146,1.086-34.194,0a4.031,4.031,0,0,1-.344-1.308c9.567.312,27.07.008,28.089-.592,1.385-.814-4.28-41.793-3.673-43.693s7.567-38.623,6.136-40.832c-.4-.615-1.07-2.09-4.322-2.606,6.953.417,10.414,2.332,11.047,3.306,1.431,2.208-5.8,40.132-6.411,42.031S435.159,596.39,433.774,597.2Z" transform="translate(-369.422 -449.073)" fill="#f4f4f4" style="mix-blend-mode: multiply;isolation: isolate"/>
      <path id="Path_5928"  d="M419.067,422.258a5.218,5.218,0,0,1,.375.94,8.728,8.728,0,0,1,.23.967,8.819,8.819,0,0,1,.121.988,5.29,5.29,0,0,1-.022,1.015.282.282,0,0,1-.318.242.286.286,0,0,1-.209-.143,5.312,5.312,0,0,1-.391-.937,8.822,8.822,0,0,1-.248-.964,8.733,8.733,0,0,1-.139-.985,5.223,5.223,0,0,1,.006-1.012.317.317,0,0,1,.595-.112Z" transform="translate(-383.418 -386.351)" fill="#3b3b56"/>
      <path id="Path_5929"  d="M463.674,420.064a4.626,4.626,0,0,1-.356-.881,7.676,7.676,0,0,1-.211-.908,7.757,7.757,0,0,1-.1-.927,4.712,4.712,0,0,1,.042-.953.284.284,0,0,1,.527-.1,4.684,4.684,0,0,1,.372.878,7.744,7.744,0,0,1,.229.9,7.651,7.651,0,0,1,.12.924,4.616,4.616,0,0,1-.025.95.32.32,0,0,1-.363.269A.323.323,0,0,1,463.674,420.064Z" transform="translate(-415.881 -382.028)" fill="#3b3b56"/>
    </g>
    <g id="Group_3235"  transform="translate(59.524 11.483)">
      <path id="Path_5930"  d="M577.914,344.838s-18.736.459-28.608,11.008c-3.358,3.588-7.785,48.2-7.785,48.2l14.655.455C556.635,355.937,575.311,356,577.914,344.838Z" transform="translate(-541.521 -344.186)" fill="#5b5b99"/>
      <path id="Path_5931"  d="M612.637,344.57c13.232,1.91,25.36,16.25,24.836,19.205-.4,2.245-8.448,32.783-9.816,32.881-17.114,1.233-40.812-5.071-41.469-6.851a3.431,3.431,0,0,1,.576-3.54s-2.241-26.557-1.983-29.551S599.4,342.661,612.637,344.57Z" transform="translate(-573.026 -343.831)" fill="#5b5b99"/>
      <path id="Path_5932"  d="M644.036,428.455c-2.8,1.111-31.625-3.324-32.785-5.282-1.077-1.818,1.629-29.245,5.109-31.084s31.424,1.366,33.682,4.861S646.839,427.344,644.036,428.455Z" transform="translate(-592.153 -378.223)" fill="#fff"/>
      <path id="Path_5933"  d="M605.948,496.043" transform="translate(-588.464 -454.356)" fill="none" stroke="#3b3b56" stroke-linecap="round" stroke-linejoin="round" stroke-width="4"/>
      <path id="Path_5934"  d="M544.424,394.139q1.2-8.881,2.482-17.751.648-4.434,1.34-8.863c.467-2.952.947-5.9,1.505-8.844.141-.735.286-1.47.447-2.2s.326-1.465.568-2.208A3.482,3.482,0,0,1,551,353.7a4.116,4.116,0,0,1,.329-.52,7.688,7.688,0,0,1,.78-.884,15.825,15.825,0,0,1,1.763-1.469,32.878,32.878,0,0,1,3.859-2.378c1.33-.709,2.7-1.349,4.083-1.932a55.691,55.691,0,0,1,8.578-2.793,46.4,46.4,0,0,1,8.946-1.259q1.133-.042,2.268-.017a21.873,21.873,0,0,1,2.281.179,24.4,24.4,0,0,1,4.447,1.018,32.868,32.868,0,0,1,8.116,4.042,41.941,41.941,0,0,1,6.911,5.846,34.835,34.835,0,0,1,2.921,3.482,20.825,20.825,0,0,1,1.253,1.924,11.447,11.447,0,0,1,.531,1.043,5.539,5.539,0,0,1,.388,1.172,5.082,5.082,0,0,1,.042,1.245c-.024.39-.066.771-.115,1.149-.1.756-.226,1.5-.366,2.24-.28,1.48-.606,2.945-.953,4.4-.709,2.913-1.512,5.8-2.361,8.669s-1.783,5.716-2.8,8.537c-.255.7-.515,1.408-.785,2.107s-.56,1.393-.86,2.083-.614,1.375-.965,2.048c-.177.336-.362.67-.576,1a4.715,4.715,0,0,1-.356.48,1.275,1.275,0,0,1-.575.424.268.268,0,0,1-.17-.509l.015,0,.014,0a.915.915,0,0,0,.289-.265,4.189,4.189,0,0,0,.293-.432c.184-.306.35-.633.507-.965.314-.664.6-1.349.865-2.04s.522-1.389.768-2.091.494-1.4.731-2.108c.947-2.822,1.792-5.681,2.627-8.541s1.589-5.744,2.283-8.638c.352-1.445.684-2.895.967-4.348.141-.726.27-1.454.369-2.179.049-.362.09-.724.115-1.078a4.15,4.15,0,0,0-.02-.988,4.586,4.586,0,0,0-.318-.948,10.457,10.457,0,0,0-.484-.952,19.763,19.763,0,0,0-1.189-1.829,33.836,33.836,0,0,0-2.83-3.381,41.373,41.373,0,0,0-6.726-5.726,31.9,31.9,0,0,0-7.859-3.951,23.418,23.418,0,0,0-4.271-.994,20.86,20.86,0,0,0-2.182-.18q-1.1-.03-2.211.007a45.5,45.5,0,0,0-8.776,1.2,55.215,55.215,0,0,0-8.456,2.71c-1.37.563-2.718,1.181-4.029,1.867a32.075,32.075,0,0,0-3.782,2.289,15.1,15.1,0,0,0-1.687,1.382,6.94,6.94,0,0,0-.708.788,3.383,3.383,0,0,0-.273.423,2.657,2.657,0,0,0-.192.461c-.224.677-.391,1.407-.554,2.127s-.308,1.454-.451,2.184c-.565,2.925-1.055,5.87-1.531,8.816s-.927,5.9-1.369,8.851q-1.324,8.859-2.542,17.735a.3.3,0,0,1-.6-.082Z" transform="translate(-543.634 -342.436)" fill="#3b3b56"/>
      <path id="Path_5935"  d="M616.919,404.112c.965-5.989,2.287-11.252,3.745-12.023,3.045-1.61,24.82.644,31.729,3.573C645.3,404.418,632.341,405.806,616.919,404.112Z" transform="translate(-596.457 -378.223)" fill="#7f7ff8"/>
      <path id="Path_5936"  d="M605.543,393.348a2.338,2.338,0,0,0-1.809.9,8.277,8.277,0,0,0-1.236,1.9,26.846,26.846,0,0,0-1.63,4.39c-.432,1.513-.806,3.049-1.128,4.6s-.619,3.1-.876,4.668c-.528,3.126-.945,6.274-1.318,9.427s-.684,6.318-.964,9.487a.268.268,0,0,1-.535-.03q.114-4.783.551-9.555t1.2-9.507a71.405,71.405,0,0,1,2.127-9.373,25.423,25.423,0,0,1,1.826-4.5,9.024,9.024,0,0,1,1.458-2.022,3.822,3.822,0,0,1,1.061-.766,2.5,2.5,0,0,1,1.338-.22.3.3,0,0,1-.055.6Z" transform="translate(-581.25 -379.08)" fill="#3b3b56"/>
      <path id="Path_5937"  d="M644.281,428.3a.874.874,0,0,1-.246.158c-2.8,1.11-31.624-3.324-32.787-5.284-1.077-1.818,1.631-29.244,5.11-31.084.922-.486,3.567-.619,7-.488a4.293,4.293,0,0,0-1.3.349c-3.479,1.84-6.187,29.266-5.11,31.084C617.843,424.536,635.083,427.507,644.281,428.3Z" transform="translate(-592.151 -378.221)" fill="#f4f4f4" style="mix-blend-mode: multiply;isolation: isolate"/>
      <path id="Path_5938"  d="M615.079,390.905a3.975,3.975,0,0,1,1-.323c.33-.064.659-.111.986-.147.656-.072,1.308-.1,1.96-.123,1.3-.037,2.6-.01,3.9.04,2.593.105,5.177.318,7.754.6s5.144.648,7.7,1.1a55.358,55.358,0,0,1,7.606,1.808,15.144,15.144,0,0,1,1.858.755,6.205,6.205,0,0,1,.906.553c.074.061.147.119.22.183s.144.138.212.22a2.078,2.078,0,0,1,.326.54,6.668,6.668,0,0,1,.4,2.062c.046.668.049,1.328.033,1.985a65.932,65.932,0,0,1-.78,7.772q-.586,3.851-1.424,7.653c-.561,2.534-1.186,5.056-1.989,7.543-.2.621-.421,1.239-.663,1.854a14.29,14.29,0,0,1-.846,1.828,4.208,4.208,0,0,1-.661.9,1.888,1.888,0,0,1-.269.218c-.06.035-.122.068-.185.1a1.353,1.353,0,0,1-.167.059,3.353,3.353,0,0,1-.57.11,15.3,15.3,0,0,1-2.013.042c-2.62-.1-5.192-.4-7.765-.712s-5.133-.7-7.689-1.118-5.1-.883-7.641-1.424c-1.269-.271-2.534-.562-3.794-.9-.63-.169-1.259-.351-1.886-.564-.314-.11-.627-.225-.943-.368a4.089,4.089,0,0,1-.482-.257l-.125-.084c-.043-.033-.089-.074-.133-.112a.906.906,0,0,1-.14-.159.717.717,0,0,1-.1-.18,1.533,1.533,0,0,1-.1-.312c-.027-.1-.031-.18-.047-.271-.028-.178-.038-.343-.053-.513-.021-.335-.032-.665-.035-.994-.006-.657.009-1.308.036-1.958.052-1.3.141-2.594.25-3.885q.34-3.873.89-7.719c.366-2.564.791-5.12,1.333-7.656a.268.268,0,0,1,.525.108c-.5,2.527-.877,5.078-1.2,7.635s-.575,5.125-.757,7.694c-.09,1.284-.171,2.569-.208,3.852-.02.641-.028,1.282-.016,1.917.005.318.019.632.042.942.015.151.026.309.05.45a2.065,2.065,0,0,0,.037.206.78.78,0,0,0,.044.151c.006.012.009.039.015.033s0,0,.021.02l.053.044.077.05a3.266,3.266,0,0,0,.375.193c.274.121.569.227.865.328.6.2,1.213.368,1.832.528,1.239.318,2.5.594,3.756.851,5.049,1,10.149,1.816,15.262,2.448,2.555.3,5.124.589,7.67.677a14.469,14.469,0,0,0,1.858-.042,2.408,2.408,0,0,0,.38-.072.442.442,0,0,0,.061-.021.073.073,0,0,1,.029-.016.891.891,0,0,0,.1-.089,3.284,3.284,0,0,0,.472-.664,13.351,13.351,0,0,0,.773-1.69c.229-.589.438-1.19.635-1.8.789-2.43,1.417-4.928,1.979-7.436s1.037-5.041,1.43-7.581a65,65,0,0,0,.788-7.641c.017-.634.015-1.268-.026-1.889a5.944,5.944,0,0,0-.313-1.731,1.058,1.058,0,0,0-.166-.289c-.034-.043-.083-.086-.123-.13l-.151-.128a5.242,5.242,0,0,0-.743-.46,14.227,14.227,0,0,0-1.724-.716,54.487,54.487,0,0,0-7.449-1.835c-2.529-.469-5.078-.847-7.634-1.159s-5.121-.568-7.69-.713c-1.284-.069-2.57-.116-3.85-.1-.64.009-1.279.03-1.909.09-.315.029-.627.069-.932.123a3.466,3.466,0,0,0-.84.249l-.013.007a.3.3,0,0,1-.27-.542Z" transform="translate(-591.014 -377.307)" fill="#3b3b56"/>
      <path id="Path_5939"  d="M683.575,493.033a1.531,1.531,0,0,1,.316-.471,1.945,1.945,0,0,1,.412-.329,2.83,2.83,0,0,1,.955-.355,4.351,4.351,0,0,1,1.9.127,4.706,4.706,0,0,1,1.738.8,1.9,1.9,0,0,1,.748,1.863.265.265,0,0,1-.524-.053v-.054a1.219,1.219,0,0,0-.057-.318,1.186,1.186,0,0,0-.147-.307,1.6,1.6,0,0,0-.5-.475,2.831,2.831,0,0,0-.683-.3,3.766,3.766,0,0,0-.378-.1c-.126-.034-.27-.033-.4-.059a7.917,7.917,0,0,0-1.546-.076,3.719,3.719,0,0,0-.7.132,1.294,1.294,0,0,0-.163.059,1.152,1.152,0,0,0-.159.068c-.052.025-.1.052-.15.081a1.086,1.086,0,0,1-.127.074l-.232.055a.257.257,0,0,1-.31-.19A.254.254,0,0,1,683.575,493.033Z" transform="translate(-645.008 -451.283)" fill="#3b3b56"/>
      <path id="Path_5940"  d="M717.165,467.973a3.473,3.473,0,0,1-1.428-.083,2.834,2.834,0,0,1-2.069-2.108,3.408,3.408,0,0,1-.043-1.429.275.275,0,0,1,.532-.036l0,.011a10.485,10.485,0,0,0,.411,1.148,2.905,2.905,0,0,0,.6.883,3,3,0,0,0,.889.6,11.607,11.607,0,0,0,1.144.413l.008,0a.31.31,0,0,1-.05.6Z" transform="translate(-666.878 -431.102)" fill="#3b3b56"/>
      <path id="Path_5941"  d="M665.285,460.629a14.108,14.108,0,0,0,1.666-.009,5.486,5.486,0,0,0,1.525-.368,4.034,4.034,0,0,0,1.281-.823,3.567,3.567,0,0,0,.845-1.295l.008-.021a.271.271,0,0,1,.523.094,2.99,2.99,0,0,1-.658,1.85,3.97,3.97,0,0,1-1.58,1.2,4.755,4.755,0,0,1-1.913.356,5.341,5.341,0,0,1-1.838-.391.306.306,0,0,1,.123-.59Z" transform="translate(-631.456 -426.594)" fill="#3b3b56"/>
      <path id="Path_5942"  d="M709.494,512.708a10.481,10.481,0,0,0,3.84,3.144,14.614,14.614,0,0,0,4.809,1.373,11.4,11.4,0,0,0,2.477.02,2.537,2.537,0,0,0,1.017-.279,3.736,3.736,0,0,0,.774-.807,15.843,15.843,0,0,0,1.3-2.137c.393-.752.756-1.525,1.1-2.306.691-1.565,1.315-3.165,1.9-4.779s1.145-3.24,1.655-4.881.986-3.292,1.389-4.955c.2-.831.382-1.667.522-2.5.072-.416.133-.832.166-1.24a5.478,5.478,0,0,0,.02-.593,1.371,1.371,0,0,0-.064-.426l-.021-.044s0,.006.025.034a.288.288,0,0,0,.125.074c.12.022.13-.009.112,0a1.016,1.016,0,0,0-.233.19,4.749,4.749,0,0,0-.513.656,11.437,11.437,0,0,0-.85,1.544,12.946,12.946,0,0,0-.631,1.658,8.478,8.478,0,0,0-.356,1.712l0,.025a.361.361,0,0,1-.687.121,2.618,2.618,0,0,1-.13-.346c-.034-.107-.062-.213-.09-.32-.051-.212-.1-.423-.13-.634q-.105-.633-.149-1.264c-.033-.421-.047-.84-.052-1.259s.005-.837.018-1.255a.268.268,0,0,1,.536,0v0c.006.41.018.82.04,1.228s.054.815.1,1.219.1.8.184,1.2c.039.2.087.389.14.578.028.093.056.186.088.275a2.125,2.125,0,0,0,.094.233l-.689.145a10.972,10.972,0,0,1,.946-3.664,12.287,12.287,0,0,1,.877-1.685,5.592,5.592,0,0,1,.6-.8,1.833,1.833,0,0,1,.476-.385.754.754,0,0,1,.553-.074.655.655,0,0,1,.315.2.821.821,0,0,1,.144.228l-.021-.045a1.5,1.5,0,0,1,.15.452,3.189,3.189,0,0,1,.042.381,6.351,6.351,0,0,1-.007.7c-.027.454-.083.894-.148,1.331-.136.872-.318,1.726-.514,2.576-.4,1.7-.862,3.371-1.366,5.032a83.727,83.727,0,0,1-3.6,9.778c-.358.8-.734,1.584-1.145,2.361a16.821,16.821,0,0,1-1.407,2.274,4.432,4.432,0,0,1-1.04,1.026,1.716,1.716,0,0,1-.384.19,3.005,3.005,0,0,1-.372.11,5.673,5.673,0,0,1-.7.109,12.291,12.291,0,0,1-2.692-.072,14.749,14.749,0,0,1-5.066-1.58A10.844,10.844,0,0,1,709,513.055a.3.3,0,0,1,.494-.35Z" transform="translate(-663.51 -451.04)" fill="#3b3b56"/>
      <path id="Path_5943"  d="M676.669,866.979s-6.352,7.145-6.1,7.688,7.328,0,7.328,0Z" transform="translate(-635.543 -724.626)" fill="#3b3b56"/>
      <path id="Path_5944"  d="M715.6,474.327a3.212,3.212,0,0,1,.067.787,5.18,5.18,0,0,1-.078.763,5.28,5.28,0,0,1-.187.745,3.3,3.3,0,0,1-.332.722.292.292,0,0,1-.529-.087,3.3,3.3,0,0,1-.083-.79,5.253,5.253,0,0,1,.061-.766,5.2,5.2,0,0,1,.17-.748,3.228,3.228,0,0,1,.315-.724.327.327,0,0,1,.6.1Z" transform="translate(-667.527 -438.349)" fill="#3b3b56"/>
      <path id="Path_5945"  d="M672.992,469.147a3.594,3.594,0,0,1,.031.836,5.859,5.859,0,0,1-.114.807,5.947,5.947,0,0,1-.222.786,3.69,3.69,0,0,1-.365.757.289.289,0,0,1-.526-.1,3.694,3.694,0,0,1-.047-.839,5.918,5.918,0,0,1,.1-.811,5.824,5.824,0,0,1,.2-.789,3.6,3.6,0,0,1,.349-.76.324.324,0,0,1,.594.118Z" transform="translate(-636.404 -434.563)" fill="#3b3b56"/>
      <path id="Path_5946"  d="M598.314,548.78s1.484,11.673,1.166,13.029-7.79,65.265-7.266,65.808,37.813-.086,38.871-.95c1.438-1.174-8.389-62.471-9.086-68.084.6-5.748.807-10.107.5-10.617-.643-1.052-1.473-5.406-9.253-5.7C606.682,542.02,597.609,544.7,598.314,548.78Z" transform="translate(-578.438 -488.024)" fill="#5b5b99"/>
      <path id="Path_5947"  d="M674.673,859.45c.289.755.522,1.519.76,2.287s.437,1.546.611,2.333.334,1.579.44,2.386a15.587,15.587,0,0,1,.159,2.466.534.534,0,0,1-.535.523H676.1l-3.664-.011-3.664-.038h-.013a.488.488,0,0,1-.345-.828q1.362-1.4,2.735-2.793l1.384-1.381q.691-.691,1.393-1.372a.268.268,0,0,1,.391.367q-.633.745-1.281,1.477l-1.291,1.469q-1.3,1.461-2.615,2.906l-.359-.828,3.664-.038,3.664-.011-.541.523a17.026,17.026,0,0,0-.125-2.3c-.083-.773-.217-1.548-.35-2.323s-.3-1.548-.463-2.321-.347-1.546-.527-2.312v0a.3.3,0,0,1,.579-.178Z" transform="translate(-633.878 -718.998)" fill="#3b3b56"/>
      <path id="Path_5948"  d="M591.25,874.031s-.265,5.91-.256,5.639,6.513,0,6.513,0Z" transform="translate(-577.568 -729.764)" fill="#3b3b56"/>
      <path id="Path_5949"  d="M607.343,498.388" transform="translate(-589.48 -456.065)" fill="none" stroke="#3b3b56" stroke-linecap="round" stroke-linejoin="round" stroke-width="4"/>
      <path id="Path_5950"  d="M595.164,688.947c-.422,4.643-.9,9.261-1.372,13.889-.46,4.627-.97,9.248-1.444,13.873l-1.435,13.871-.669,6.937c-.1,1.156-.208,2.312-.294,3.467-.044.578-.084,1.155-.114,1.731s-.052,1.151-.042,1.7l-.4-.383,6.513.059-.229.605-5.481-4.944a.268.268,0,0,1,.354-.4l5.585,4.826a.345.345,0,0,1-.221.606H595.9l-6.513.059h0a.4.4,0,0,1-.4-.384c-.024-.611-.012-1.2.009-1.783s.049-1.169.083-1.751c.065-1.165.147-2.327.231-3.488.166-2.322.377-4.64.592-6.956.434-4.632.878-9.263,1.391-13.885s1-9.248,1.562-13.865c.54-4.617,1.118-9.24,1.711-13.841v-.01a.3.3,0,0,1,.6.066Z" transform="translate(-576.094 -594.669)" fill="#3b3b56"/>
      <path id="Path_5951"  d="M704.359,563.431" transform="translate(-660.167 -503.456)" fill="#fdc54f"/>
      <path id="Path_5952"  d="M704.359,563.431" transform="translate(-660.167 -503.456)" fill="#fdc54f"/>
      <path id="Path_5953"  d="M631.085,627.322c-.982.95-38.346,1.493-38.871.95s6.949-64.451,7.266-65.808-1.166-13.029-1.166-13.029c-.553-3.2,4.929-5.547,10.485-6.285-2.7,1.14-4.52,2.746-4.188,4.657,0,0,1.416,22.254,1.1,23.61s-7.722,54.684-7.2,55.227c.4.415,20.969.2,32.633-.355C631.215,626.841,631.2,627.208,631.085,627.322Z" transform="translate(-578.438 -488.679)" fill="#f4f4f4" style="mix-blend-mode: multiply;isolation: isolate"/>
      <path id="Path_5954"  d="M602.785,625.845c8.6.065,17.211.086,25.806-.074,2.147-.047,4.3-.1,6.426-.244.528-.04,1.064-.085,1.56-.167a2.623,2.623,0,0,0,.33-.074.4.4,0,0,0,.044-.016s0-.014-.066.055a.4.4,0,0,0-.1.275c.008.1.011.07.007.06l0-.026-.016-.1-.128-.824-.46-3.2-1.8-12.784-3.527-25.578-3.5-25.582a.545.545,0,0,1,0-.137v0c.226-1.769.423-3.552.569-5.329.072-.889.131-1.778.156-2.66.011-.44.014-.88-.006-1.306a6.053,6.053,0,0,0-.057-.614,1.8,1.8,0,0,0-.055-.252.344.344,0,0,0-.015-.043.388.388,0,0,0-.022-.049l-.069-.141a8.188,8.188,0,0,0-3.538-3.514,14.776,14.776,0,0,0-4.941-1.542,22.028,22.028,0,0,0-5.25-.09,20.269,20.269,0,0,0-5.11,1.157,12.078,12.078,0,0,0-2.31,1.149,5.72,5.72,0,0,0-1.764,1.706,7.683,7.683,0,0,0-.527,1.142c-.156.406-.3.823-.43,1.243-.265.842-.495,1.7-.708,2.566-.425,1.73-.779,3.482-1.09,5.242s-.574,3.529-.774,5.3c-.1.886-.183,1.774-.236,2.659a17.206,17.206,0,0,0,0,2.618,3.077,3.077,0,0,0,.109.574,1.576,1.576,0,0,0,.257.461,4.212,4.212,0,0,0,.9.817,16.182,16.182,0,0,0,2.286,1.279c3.221,1.506,6.62,2.771,9.78,4.56a21.726,21.726,0,0,1,4.43,3.189,10.164,10.164,0,0,1,2.893,4.664v0a.3.3,0,0,1-.485.309l-5.127-4.233a.268.268,0,0,1,.339-.415l5.171,4.18-.484.313a9.529,9.529,0,0,0-2.766-4.344,21.054,21.054,0,0,0-4.322-3.04c-1.557-.857-3.182-1.6-4.826-2.3s-3.312-1.373-4.955-2.143a16.965,16.965,0,0,1-2.415-1.336,5,5,0,0,1-1.088-.984,2.4,2.4,0,0,1-.394-.71,3.837,3.837,0,0,1-.151-.744,17.945,17.945,0,0,1-.021-2.763c.049-.907.128-1.808.224-2.707.193-1.8.449-3.582.75-5.361s.65-3.549,1.071-5.31c.211-.88.44-1.757.708-2.629.135-.436.279-.87.443-1.3a8.5,8.5,0,0,1,.6-1.3,6.6,6.6,0,0,1,2.057-2.028,13.073,13.073,0,0,1,2.5-1.253,21.277,21.277,0,0,1,5.364-1.229,23.048,23.048,0,0,1,5.495.083,15.793,15.793,0,0,1,5.29,1.644,10.329,10.329,0,0,1,2.29,1.657,8.459,8.459,0,0,1,1.692,2.3l.08.161c.011.022.029.063.046.105s.029.078.041.115a2.9,2.9,0,0,1,.092.4,7.044,7.044,0,0,1,.071.726c.024.47.021.929.01,1.386-.023.913-.082,1.816-.153,2.717-.145,1.8-.337,3.59-.562,5.383v-.142l6.965,51.167,1.735,12.791.443,3.195.115.772.014.1.017.134a.523.523,0,0,1-.139.365.689.689,0,0,1-.234.164,1.288,1.288,0,0,1-.145.054,3.423,3.423,0,0,1-.456.1c-.566.09-1.1.13-1.649.168-2.167.137-4.319.174-6.475.209-4.308.06-8.614.03-12.918-.005s-8.608-.1-12.912-.184a.3.3,0,0,1,.009-.605Z" transform="translate(-584.325 -486.935)" fill="#3b3b56"/>
    </g>
    <g id="Group_3239"  transform="translate(31.776 62.769)">
      <g id="Group_3238"  transform="translate(0 36.856)">
        <path id="Path_5955"  d="M559.265,876.338h-6.712l5.843-6.411Z" transform="translate(-521.811 -814.916)" fill="#3b3b56"/>
        <path id="Path_5956"  d="M484.589,869.927l.826,6.309H477.9Z" transform="translate(-467.416 -814.916)" fill="#3b3b56"/>
        <path id="Path_5957"  d="M476.874,700.172s-.389,9.978-.963,11.052-9.284,25.071-9.3,25.608,28.164.805,29.265,0-5.241-24.265-4.659-25.608,1.035-10.315,1.035-10.315C493.03,693.6,476.827,692.388,476.874,700.172Z" transform="translate(-459.191 -687.357)" fill="#37e1ca"/>
        <path id="Path_5958"  d="M483.884,859.573c.15.744.239,1.465.341,2.2s.187,1.458.272,2.187q.249,2.189.445,4.381a.526.526,0,0,1-.476.571l-.044,0h-.008l-1.846.009-1.846,0c-1.231-.007-2.461-.009-3.692-.03h-.013a.51.51,0,0,1-.278-.931c.56-.381,1.121-.781,1.677-1.178s1.1-.81,1.645-1.226,1.073-.843,1.585-1.288a9.2,9.2,0,0,0,1.379-1.43l.008-.012a.268.268,0,0,1,.45.289,8.346,8.346,0,0,1-1.345,1.672c-.491.5-1.006.976-1.535,1.43-1.058.911-2.148,1.764-3.283,2.581l-.291-.931c1.231-.021,2.461-.022,3.692-.03l1.846,0,1.846.009-.528.573-.306-4.385-.137-2.193c-.046-.728-.092-1.467-.154-2.174v-.013a.3.3,0,0,1,.6-.087Z" transform="translate(-466.409 -807.194)" fill="#3b3b56"/>
        <g id="Group_3237"  transform="translate(7.418 7.5)">
          <g id="Group_3236"  clip-path="url(#clip-path-2)">
            <path id="Path_5959"  d="M487.006,835.048H453.982L452,825.6H485.02Z" transform="translate(-455.962 -790.12)" fill="#fff"/>
            <path id="Path_5960"  d="M486.766,748.82q-1.145,4.008-2.385,7.986c-.82,2.654-1.668,5.3-2.522,7.941-1.725,5.28-3.486,10.548-5.4,15.768a.268.268,0,0,1-.51-.165c1.513-5.349,3.175-10.649,4.873-15.938.858-2.642,1.721-5.281,2.613-7.912s1.8-5.255,2.75-7.867a.3.3,0,0,1,.576.186Z" transform="translate(-473.411 -733.894)" fill="#37e1ca" opacity="0.5"/>
            <path id="Path_5961"  d="M510.931,748.781q-.6,4.19-1.3,8.363c-.458,2.783-.945,5.561-1.438,8.338-1,5.55-2.045,11.094-3.24,16.61a.268.268,0,0,1-.528-.094c.785-5.589,1.723-11.151,2.7-16.707.5-2.776,1-5.551,1.532-8.321s1.083-5.536,1.674-8.3a.3.3,0,0,1,.6.106Z" transform="translate(-494.164 -733.895)" fill="#37e1ca" opacity="0.5"/>
            <path id="Path_5962"  d="M546.4,748.681q.787,4.041,1.475,8.1c.466,2.7.9,5.411,1.333,8.12.843,5.421,1.649,10.847,2.3,16.3a.268.268,0,0,1-.529.083c-1.063-5.386-1.972-10.8-2.842-16.213-.427-2.71-.848-5.42-1.238-8.135s-.763-5.433-1.1-8.158a.3.3,0,0,1,.6-.095Z" transform="translate(-524.309 -733.895)" fill="#37e1ca" opacity="0.5"/>
            <path id="Path_5963"  d="M535.214,754.381q.184,3.87.268,7.742c.063,2.581.1,5.163.124,7.744.037,5.163.035,10.326-.122,15.491a.268.268,0,0,1-.536.005c-.259-5.161-.362-10.323-.427-15.486-.024-2.581-.041-5.163-.028-7.745s.044-5.164.116-7.746a.3.3,0,0,1,.605-.006Z" transform="translate(-516.067 -738.017)" fill="#37e1ca" opacity="0.5"/>
          </g>
        </g>
        <path id="Path_5965"  d="M553.714,728.245c-.167,1.87-.341,3.745-.45,5.612-.026.466-.047.933-.052,1.391a6.248,6.248,0,0,0,.02.645.611.611,0,0,0,.022.111l.047.171.092.343q.365,1.371.693,2.749c.873,3.675,1.606,7.375,2.252,11.089q.488,2.785.923,5.579.217,1.4.414,2.8c.065.469.129.936.184,1.413.012.123.028.236.037.367,0,.062.011.122.012.217l0,.167c.007.188.03.436.053.661.193,1.857.412,3.741.566,5.623a45.442,45.442,0,0,1,.178,5.7v.007a.437.437,0,0,1-.44.419c-2.237-.021-4.475-.035-6.712-.073h-.01a.367.367,0,0,1-.261-.618l5.957-6.343a.268.268,0,0,1,.395.362l-5.809,6.479-.272-.618c2.237-.038,4.475-.051,6.712-.073l-.441.426c.022-1.847-.14-3.714-.3-5.577s-.41-3.72-.627-5.6c-.025-.242-.052-.463-.066-.745l0-.11v-.052l0-.024c0-.023,0-.08-.01-.135l-.033-.335c-.051-.458-.112-.924-.174-1.387q-.188-1.392-.4-2.786-.419-2.785-.9-5.563c-.314-1.852-.655-3.7-1-5.544s-.714-3.686-1.12-5.517q-.3-1.374-.644-2.735l-.086-.34-.043-.17a1.666,1.666,0,0,1-.043-.235,5.815,5.815,0,0,1-.009-.765c.02-.483.057-.956.1-1.428.171-1.886.392-3.755.647-5.624a.3.3,0,0,1,.6.067Z" transform="translate(-520.815 -711.442)" fill="#3b3b56"/>
        <path id="Path_5966"  d="M492.354,737.2c-4.72.264-9.44.483-14.166.63-2.363.075-4.728.116-7.1.1-1.186-.008-2.371-.027-3.567-.1a13.575,13.575,0,0,1-1.828-.211,2.36,2.36,0,0,1-.531-.171.915.915,0,0,1-.184-.117.683.683,0,0,1-.115-.119.642.642,0,0,1-.1-.192,1.092,1.092,0,0,1-.033-.389,6.263,6.263,0,0,1,.166-.952c.287-1.179.648-2.3,1.01-3.436s.747-2.249,1.135-3.367c.777-2.235,1.592-4.455,2.415-6.671s1.664-4.426,2.522-6.629c.43-1.1.863-2.2,1.31-3.3l.342-.824c.119-.278.229-.543.377-.843a1.469,1.469,0,0,1,.087-.152c.018-.027,0-.006.007-.011v0a.032.032,0,0,1,0-.01.779.779,0,0,0,.038-.12,3.046,3.046,0,0,0,.062-.37c.031-.269.048-.556.061-.844.074-2.329.073-4.734.361-7.11.069-.595.152-1.189.252-1.781q.075-.444.163-.887a5.336,5.336,0,0,1,.257-.94,4.892,4.892,0,0,1,1.071-1.653,6.812,6.812,0,0,1,1.518-1.165,10.481,10.481,0,0,1,3.512-1.195,12.687,12.687,0,0,1,3.68-.061,9.488,9.488,0,0,1,3.537,1.153,6.3,6.3,0,0,1,1.494,1.2,5.179,5.179,0,0,1,1.01,1.664,29.718,29.718,0,0,1,.933,3.491c.231,1.173.427,2.35.574,3.529.307,2.358.493,4.718.695,7.07s.394,4.708.67,7.032c.017.143.031.3.052.431s.056.274.089.41c.067.278.145.555.232.83a16.865,16.865,0,0,0,.606,1.626,12.267,12.267,0,0,0,.782,1.534,4.979,4.979,0,0,0,.485.673,1.855,1.855,0,0,0,.272.26.525.525,0,0,0,.234.115l-.338.369-.634-4.033.033.093-1.127-2.021a.268.268,0,0,1,.467-.264l1.153,2.006a.278.278,0,0,1,.032.088v.005l.7,4.022v0a.314.314,0,0,1-.255.364.343.343,0,0,1-.083,0,1.113,1.113,0,0,1-.568-.234,2.526,2.526,0,0,1-.372-.345,5.654,5.654,0,0,1-.558-.756,12.9,12.9,0,0,1-.842-1.611,17.641,17.641,0,0,1-.646-1.686c-.093-.287-.178-.578-.252-.873-.037-.151-.07-.291-.1-.455s-.042-.3-.063-.448c-.325-2.362-.574-4.707-.8-7.061s-.441-4.7-.771-7.023c-.158-1.163-.365-2.314-.6-3.456a28.99,28.99,0,0,0-.931-3.34,4.605,4.605,0,0,0-2.084-2.345,8.485,8.485,0,0,0-3.161-1.009,11.675,11.675,0,0,0-3.379.07,9.46,9.46,0,0,0-3.157,1.083,4.67,4.67,0,0,0-2.12,2.289,4.233,4.233,0,0,0-.2.767q-.083.426-.154.856c-.095.572-.173,1.149-.237,1.727-.128,1.157-.207,2.322-.256,3.493s-.059,2.343-.11,3.544c-.014.3-.032.6-.07.922a4.039,4.039,0,0,1-.088.5,1.762,1.762,0,0,1-.1.3l-.045.09-.053.086c.01-.017-.011.019-.021.041-.114.228-.233.509-.347.773l-.338.811q-.67,1.631-1.312,3.281-1.291,3.294-2.532,6.609T468,729.22c-.4,1.11-.784,2.222-1.156,3.338s-.737,2.238-1.017,3.352a5.662,5.662,0,0,0-.149.789c-.007.045.006.115-.008.051a.361.361,0,0,0-.049-.094.31.31,0,0,0-.037-.04c-.017-.013-.009-.005,0,0a1.571,1.571,0,0,0,.31.1,12.9,12.9,0,0,0,1.687.205c1.161.08,2.338.109,3.514.127,2.353.033,4.712,0,7.07-.031,4.718-.076,9.438-.223,14.154-.415a.3.3,0,0,1,.031.6Z" transform="translate(-457.822 -686.889)" fill="#3b3b56"/>
        <path id="Path_5967"  d="M455.887,680.17a16.189,16.189,0,0,1-2.67,4.044,9.67,9.67,0,0,1-4.113,2.72,6.815,6.815,0,0,1-1.249.272c-.108.011-.216.022-.325.028a1.5,1.5,0,0,1-1.143-.342,5.967,5.967,0,0,1-.958-.876c-.28-.309-.538-.628-.786-.953a27.651,27.651,0,0,1-2.529-4.132,29.033,29.033,0,0,1-1.826-4.475,21.65,21.65,0,0,1-.969-4.764,12.586,12.586,0,0,1,.033-2.463,10.759,10.759,0,0,1,.215-1.235,1.691,1.691,0,0,1,.14-.383.8.8,0,0,1,.217-.263.611.611,0,0,1,.255-.115.594.594,0,0,1,.284.014.752.752,0,0,1,.3.179,1.323,1.323,0,0,1,.151.168,2.526,2.526,0,0,1,.194.3,8.562,8.562,0,0,1,.5,1.152c.139.382.264.764.383,1.148.239.767.441,1.536.632,2.316l-.689-.06c.636-1.32,1.268-2.643,1.917-3.957a.268.268,0,0,1,.487.222c-.569,1.351-1.155,2.694-1.737,4.04a.364.364,0,0,1-.684-.042l-.005-.018c-.216-.752-.457-1.506-.7-2.248-.126-.371-.257-.738-.4-1.1a7.824,7.824,0,0,0-.47-1.017,1.654,1.654,0,0,0-.13-.194.449.449,0,0,0-.049-.052c-.011-.014-.009,0,.053.024a.314.314,0,0,0,.259-.048c.048-.042.037-.036.036-.03a.947.947,0,0,0-.054.177,9.931,9.931,0,0,0-.159,1.112,13.749,13.749,0,0,0,.019,2.286,20.671,20.671,0,0,0,.974,4.526,33.46,33.46,0,0,0,1.781,4.316,26.587,26.587,0,0,0,2.4,3.989c.23.307.469.607.72.887a5.634,5.634,0,0,0,.781.739,1.134,1.134,0,0,0,.325.179,1.8,1.8,0,0,0,.188,0c.089,0,.178-.009.268-.016a5.839,5.839,0,0,0,1.076-.208,9.015,9.015,0,0,0,3.795-2.378,16.5,16.5,0,0,0,2.724-3.749.3.3,0,0,1,.539.275Z" transform="translate(-439.275 -667.22)" fill="#3b3b56"/>
        <path id="Path_5968"  d="M495.873,736.835c-1.1.806-29.283.537-29.265,0a.625.625,0,0,1,.1-.207c7.86.274,24.315.282,25.152-.33,1.1-.806-5.242-24.265-4.659-25.608s1-10.014,1-10.014c.324-3.035-2.279-5.019-5.435-5.743,4.529-.509,9.941,1.683,9.482,5.979,0,0-.452,8.973-1.035,10.315S496.974,736.029,495.873,736.835Z" transform="translate(-459.19 -687.359)" fill="#f4f4f4" style="mix-blend-mode: multiply;isolation: isolate"/>
      </g>
      <path id="Path_5969"  d="M447.633,546.918c-1.647,1.237-2.109,16.987-1.946,19.761s41.88,15.184,47.012,13.6c5.865-1.807,9.674-11.62,8.041-10.746a5.01,5.01,0,0,1-6.728-1.733c-1.025-1.784-.695-16.848-4.168-20.765C488.019,544.98,453.561,542.467,447.633,546.918Z" transform="translate(-443.925 -540.907)" fill="#7f7ff8"/>
      <path id="Path_5970"  d="M471.334,596.824c2.485,1.165,29.78-1.5,31.076-3.267,1.2-1.641,1.7-27.289-1.332-29.163s-29.39-.2-31.876,2.946S468.849,595.659,471.334,596.824Z" transform="translate(-460.273 -554.87)" fill="#fff"/>
      <ellipse id="Ellipse_456"  cx="4.122" cy="3.984" rx="4.122" ry="3.984" transform="translate(38.028 31.74) rotate(-44.516)" fill="#fff"/>
      <path id="Path_5971"  d="M496.166,646.186c.331-.135.639-.261.938-.405s.587-.306.875-.48.571-.364.864-.558.582-.4.908-.592l0,0a.279.279,0,0,1,.381.1.282.282,0,0,1,.009.266,4.031,4.031,0,0,1-.68.952,4.781,4.781,0,0,1-.916.759,4.012,4.012,0,0,1-1.113.488,2.9,2.9,0,0,1-1.218.077.313.313,0,0,1-.067-.6Z" transform="translate(-480.576 -613.526)" fill="#3b3b56"/>
      <path id="Path_5972"  d="M519.866,660.221c-.058-.07-.139-.183-.219-.264a2.482,2.482,0,0,0-.255-.239,2.376,2.376,0,0,0-.585-.339,3.732,3.732,0,0,0-1.416-.223c-.128,0-.258,0-.389.014a2.023,2.023,0,0,0-.379.042,1.924,1.924,0,0,0-.642.229.964.964,0,0,0-.4.453,1.37,1.37,0,0,0-.086.664l0,.041a.267.267,0,0,1-.514.124,1.792,1.792,0,0,1-.084-1.029,1.662,1.662,0,0,1,.579-.92,2.508,2.508,0,0,1,.915-.462,5.922,5.922,0,0,1,.926-.191,3.32,3.32,0,0,1,1.931.324,2.419,2.419,0,0,1,.791.667,2.129,2.129,0,0,1,.261.443,1.826,1.826,0,0,1,.141.511.3.3,0,0,1-.525.229Z" transform="translate(-494.351 -623.715)" fill="#3b3b56"/>
      <path id="Path_5973"  d="M547.228,644.363a3.472,3.472,0,0,1,.227.79,5.625,5.625,0,0,1,.08.8,5.724,5.724,0,0,1-.03.8,3.558,3.558,0,0,1-.176.807.29.29,0,0,1-.535.023,3.576,3.576,0,0,1-.244-.789,5.722,5.722,0,0,1-.1-.8,5.634,5.634,0,0,1,.012-.8,3.484,3.484,0,0,1,.16-.806.325.325,0,0,1,.6-.026Z" transform="translate(-517.359 -613.569)" fill="#3b3b56"/>
      <path id="Path_5974"  d="M506.019,647.9a3.48,3.48,0,0,1,.227.79,5.625,5.625,0,0,1,.08.8,5.732,5.732,0,0,1-.03.8,3.56,3.56,0,0,1-.176.807.29.29,0,0,1-.536.023,3.581,3.581,0,0,1-.244-.789,5.741,5.741,0,0,1-.1-.8,5.633,5.633,0,0,1,.012-.8,3.465,3.465,0,0,1,.16-.806.325.325,0,0,1,.6-.026Z" transform="translate(-487.333 -616.149)" fill="#3b3b56"/>
      <path id="Path_5975"  d="M545.185,643.423a2.979,2.979,0,0,1-2.214-.034,3.251,3.251,0,0,1-.953-.607,3.6,3.6,0,0,1-.675-.826.282.282,0,0,1,.1-.386.286.286,0,0,1,.255-.017c.325.14.606.309.88.452a6.978,6.978,0,0,0,.8.376,5.682,5.682,0,0,0,.826.251c.289.068.592.114.918.188l.018,0a.314.314,0,0,1,.047.6Z" transform="translate(-513.615 -611.646)" fill="#3b3b56"/>
      <path id="Path_5976"  d="M500.734,567.111c-25.025,2.5-22.9-10.117-22.9-10.117s-1.3,11.044-15.369,11c0,0-.228-9.947,2.22-11.258s32.108-4.884,34.658-1.774S500.734,567.111,500.734,567.111Z" transform="translate(-456.167 -547.666)" fill="#7f7ff8"/>
      <path id="Path_5977"  d="M595.789,589.211c.157.981.259,1.968.36,2.954s.164,1.976.213,2.965.086,1.979.106,2.969.02,1.98.014,2.97l-.645-.536a5.52,5.52,0,0,1,1.853-.046,4.226,4.226,0,0,1,1.78.685,3.7,3.7,0,0,1,1.239,1.476,4.907,4.907,0,0,1,.44,1.8,5.762,5.762,0,0,1-.151,1.817,3.918,3.918,0,0,1-2.365,2.7,5.018,5.018,0,0,1-1.737.371.268.268,0,0,1-.049-.534,5.009,5.009,0,0,0,1.5-.46,3.38,3.38,0,0,0,1.162-.947,3.9,3.9,0,0,0,.67-2.861,4.151,4.151,0,0,0-.392-1.438,2.745,2.745,0,0,0-.92-1.048,3.158,3.158,0,0,0-1.335-.493,4.849,4.849,0,0,0-1.492.042h-.007a.539.539,0,0,1-.628-.431.546.546,0,0,1-.009-.107c.014-.982.01-1.965.013-2.948s-.013-1.965-.026-2.947-.038-1.964-.071-2.946-.079-1.962-.129-2.943a.3.3,0,0,1,.6-.064Z" transform="translate(-552.874 -573.339)" fill="#3b3b56"/>
      <path id="Path_5978"  d="M501.9,589.745c-.039.477-.085.954-.147,1.432a8.264,8.264,0,0,1-.292,1.464,1.725,1.725,0,0,1-.087.207c-.018.037-.047.08-.072.119a.863.863,0,0,1-.1.114,1.621,1.621,0,0,1-.376.253,5.478,5.478,0,0,1-.707.289c-.468.157-.934.281-1.4.4-1.871.446-3.752.757-5.637,1.048-3.772.556-7.557.977-11.352,1.311-1.9.166-3.8.3-5.707.385-.954.041-1.909.072-2.871.074-.481,0-.962,0-1.449-.026a9.946,9.946,0,0,1-1.5-.157,2.278,2.278,0,0,1-.444-.135,1.327,1.327,0,0,1-.459-.35,3.231,3.231,0,0,1-.455-.723,9.975,9.975,0,0,1-.526-1.412c-.281-.939-.487-1.881-.672-2.824-.363-1.887-.625-3.782-.838-5.68a101.276,101.276,0,0,1-.606-11.442c.01-.958.04-1.916.1-2.877a23.364,23.364,0,0,1,.349-2.893,7.423,7.423,0,0,1,.427-1.468,2.485,2.485,0,0,1,.473-.747,3.09,3.09,0,0,1,.677-.507,8.344,8.344,0,0,1,1.387-.608c.465-.163.932-.3,1.4-.422a50.235,50.235,0,0,1,5.654-1.06c1.893-.259,3.79-.459,5.69-.612s3.8-.255,5.709-.317,3.811-.08,5.719-.016a.268.268,0,0,1-.008.536h0c-3.786,0-7.577.217-11.347.588-1.885.183-3.767.4-5.636.684a49.327,49.327,0,0,0-5.532,1.11c-.449.124-.893.26-1.323.417a7.405,7.405,0,0,0-1.214.548,2.195,2.195,0,0,0-.459.346,1.537,1.537,0,0,0-.275.456,6.5,6.5,0,0,0-.357,1.267,22.4,22.4,0,0,0-.319,2.765c-.058.935-.083,1.877-.088,2.82a100.192,100.192,0,0,0,.655,11.314c.209,1.878.459,3.752.809,5.6.177.922.376,1.839.637,2.722a9.008,9.008,0,0,0,.461,1.259,2.269,2.269,0,0,0,.295.484.319.319,0,0,0,.1.086,1.4,1.4,0,0,0,.238.07,9.08,9.08,0,0,0,1.33.139c.463.022.931.029,1.4.03.939,0,1.884-.026,2.828-.064,1.889-.08,3.781-.2,5.671-.338,3.78-.287,7.557-.665,11.312-1.17,1.876-.253,3.754-.525,5.589-.926.457-.1.912-.214,1.348-.351a4.808,4.808,0,0,0,.617-.236,1.028,1.028,0,0,0,.219-.134.413.413,0,0,0,.093-.171,7.816,7.816,0,0,0,.295-1.321c.072-.462.129-.93.18-1.4a.3.3,0,0,1,.6.057Z" transform="translate(-458.892 -554.077)" fill="#3b3b56"/>
      <path id="Path_5979"  d="M509.932,593.551c-1.3,1.768-28.591,4.434-31.077,3.269a1.163,1.163,0,0,1-.437-.452c8.9-.412,23.641-2.178,24.586-3.465,1.2-1.639,1.7-27.287-1.332-29.163a1.93,1.93,0,0,0-.28-.139c3.572,0,6.343.25,7.209.787C511.634,566.265,511.134,591.913,509.932,593.551Z" transform="translate(-467.795 -554.866)" fill="#f4f4f4" style="mix-blend-mode: multiply;isolation: isolate"/>
      <path id="Path_5980"  d="M587.076,538.511c.879,3.416-1.424,7.114-5.144,8.26s-7.448-.694-8.327-4.11,1.169-8.154,4.888-9.3S586.2,535.095,587.076,538.511Z" transform="translate(-537.003 -532.646)" fill="#fb9387"/>
      <path id="Path_5981"  d="M579.078,540.045a3.28,3.28,0,0,1-.589.8,2.053,2.053,0,0,1-.914.527,1.775,1.775,0,0,1-1.09-.082,2.052,2.052,0,0,1-.851-.65,2.5,2.5,0,0,1-.472-1.994,3.146,3.146,0,0,1,.344-.963,5.545,5.545,0,0,1,.545-.8,6.5,6.5,0,0,1,1.4-1.3,5.215,5.215,0,0,1,1.783-.789,4.492,4.492,0,0,1,1-.1,4.341,4.341,0,0,1,1,.151,4.694,4.694,0,0,1,1.736.956,7.351,7.351,0,0,1,1.27,1.437,9.38,9.38,0,0,1,.494.8l.22.436.18.458a4.878,4.878,0,0,1,.265,1.972,4.7,4.7,0,0,1-.578,1.909,6.681,6.681,0,0,1-2.8,2.628,8.4,8.4,0,0,1-3.672.953,7.421,7.421,0,0,1-3.716-.876A6.3,6.3,0,0,1,572,542.729,7.7,7.7,0,0,1,571.28,539a8.29,8.29,0,0,1,1.023-3.628,6.959,6.959,0,0,1,2.634-2.711,9.086,9.086,0,0,1,3.522-1.216,7.238,7.238,0,0,1,.948-.037c.158.01.316.029.474.043l.236.025.233.048a6.242,6.242,0,0,1,1.779.628,7.6,7.6,0,0,1,1.528,1.067,10.68,10.68,0,0,1,1.248,1.355.268.268,0,0,1-.412.342l-.005-.006a8.394,8.394,0,0,0-2.663-2.154,5.534,5.534,0,0,0-1.6-.507l-.206-.036-.209-.014c-.14-.008-.279-.02-.418-.025a6.5,6.5,0,0,0-.837.062,8.33,8.33,0,0,0-3.173,1.179,6.043,6.043,0,0,0-2.242,2.41,7.673,7.673,0,0,0-.855,3.22,6.694,6.694,0,0,0,.647,3.228,5.258,5.258,0,0,0,2.217,2.318,6.348,6.348,0,0,0,3.183.719,7.336,7.336,0,0,0,3.206-.814,5.637,5.637,0,0,0,2.369-2.185,3.67,3.67,0,0,0,.26-3.043l-.145-.376-.182-.364c-.133-.243-.281-.492-.437-.724a6.378,6.378,0,0,0-1.069-1.261,3.734,3.734,0,0,0-1.361-.788,3.412,3.412,0,0,0-.763-.13,3.555,3.555,0,0,0-.78.064,5.033,5.033,0,0,0-2.722,1.729,4.774,4.774,0,0,0-.485.662,2.344,2.344,0,0,0-.279.706,1.74,1.74,0,0,0,.278,1.4,1.2,1.2,0,0,0,1.2.518,1.88,1.88,0,0,0,1.128-.954l0,0a.3.3,0,0,1,.526.3Z" transform="translate(-535.448 -531.412)" fill="#3b3b56"/>
      <path id="Path_5982"  d="M589.114,539.638c.88,3.416-1.424,7.114-5.144,8.26a6.548,6.548,0,0,1-7.771-2.732,7.222,7.222,0,0,0,4.184-.059c3.72-1.146,6.024-4.844,5.144-8.26a6.668,6.668,0,0,0-1.036-2.2A7.6,7.6,0,0,1,589.114,539.638Z" transform="translate(-539.041 -533.772)" fill="#f4f4f4" style="mix-blend-mode: multiply;isolation: isolate"/>
    </g>
    <g id="Group_3242"  transform="translate(-56.169 -17.058)">
      <path id="Path_5996"  d="M247.425,344.587s-9.592,0-14.387-6.594c22.48-10.086,12.241-43.016-15.886-41.258-38.366,2.4-31.172,53.352,4.8,44.96C221.947,341.7,230.939,350.282,247.425,344.587Z" transform="translate(-191.436 -295.86)" fill="#b6b6fc"/>
      <path id="Path_5997"  d="M219.885,341.113a19.277,19.277,0,0,0,5.932,3.488,26.307,26.307,0,0,0,6.67,1.558,30.318,30.318,0,0,0,3.429.087l.857-.027a6.813,6.813,0,0,0,.855-.056l1.7-.206c.282-.04.57-.056.848-.118l.837-.173,1.675-.348c1.1-.287,2.186-.633,3.28-.949a.77.77,0,0,0-.188-1.51l-.066,0a21.945,21.945,0,0,1-3.886-.51,21.694,21.694,0,0,1-3.746-1.187,16.038,16.038,0,0,1-3.362-1.926,13.935,13.935,0,0,1-2.692-2.7l-.347,1.3,1.425-.712c.236-.121.477-.233.71-.362l.679-.42c.448-.288.917-.544,1.347-.86l1.276-.969a21.543,21.543,0,0,0,4.291-4.764,20.17,20.17,0,0,0,3.029-12.307,23.181,23.181,0,0,0-4.446-11.842,23.88,23.88,0,0,0-4.371-4.627,25.068,25.068,0,0,0-5.379-3.382c-.24-.112-.474-.24-.719-.341l-.74-.289c-.5-.184-.981-.4-1.488-.557a28.328,28.328,0,0,0-3.064-.818,31.092,31.092,0,0,0-6.278-.676,37.978,37.978,0,0,0-12.351,2.076,13.324,13.324,0,0,0-1.467.577c-.481.213-.971.406-1.444.637a27.827,27.827,0,0,0-2.743,1.567,25.3,25.3,0,0,0-2.544,1.878c-.4.344-.772.719-1.159,1.077a12.349,12.349,0,0,0-1.09,1.145,22.579,22.579,0,0,0-5.421,11.206.453.453,0,0,0,.889.174v-.007a23.2,23.2,0,0,1,2-5.661c.243-.437.449-.9.722-1.315l.814-1.26a22.8,22.8,0,0,1,1.9-2.314,11.5,11.5,0,0,1,1.056-1.059c.375-.33.734-.677,1.119-.994l1.2-.9a14.737,14.737,0,0,1,1.25-.822,26.443,26.443,0,0,1,2.62-1.449c.452-.213.922-.389,1.381-.585a12.349,12.349,0,0,1,1.4-.529,36.5,36.5,0,0,1,11.852-1.818,31.7,31.7,0,0,1,5.939.7,26.625,26.625,0,0,1,2.878.783c.475.146.927.356,1.392.531l.693.274c.229.095.446.216.67.323a23.315,23.315,0,0,1,5,3.18,22.1,22.1,0,0,1,4.038,4.319,21.758,21.758,0,0,1,4.074,10.935,18.359,18.359,0,0,1-2.709,11.21,19.783,19.783,0,0,1-3.9,4.362l-1.173.9c-.395.294-.831.531-1.245.8l-.628.393c-.216.12-.441.225-.661.339l-1.327.67-.08.041a.826.826,0,0,0-.365,1.11.865.865,0,0,0,.1.152l.692.843c.117.139.229.283.35.418l.39.38c.263.249.513.514.789.747l.853.667a17.715,17.715,0,0,0,3.742,2.084,23.848,23.848,0,0,0,8.273,1.723l-.254-1.512c-1.047.314-2.087.662-3.141.952l-1.6.353-.8.177c-.266.063-.539.079-.808.122l-1.621.218c-.54.079-1.086.071-1.629.111a29.118,29.118,0,0,1-3.263-.012,25.053,25.053,0,0,1-6.363-1.344l-.766-.278-.746-.328c-.5-.206-.98-.467-1.465-.713a16.094,16.094,0,0,1-2.668-1.784l-.036-.031a.511.511,0,0,0-.671.771Z" transform="translate(-189.728 -294.908)" fill="#3b3b56"/>
    </g>
    <path id="Path_5985"  d="M-32.023-2.853a.58.58,0,0,1,.4.147.452.452,0,0,1,.165.348v.33a.452.452,0,0,1-.165.348.58.58,0,0,1-.4.147h-2.958a1.869,1.869,0,0,0-1.137.259,1.1,1.1,0,0,0-.324.907,1.118,1.118,0,0,0,.324.919,1.869,1.869,0,0,0,1.137.259h1.214a.551.551,0,0,1,.389.141.461.461,0,0,1,.153.354V1.7a.418.418,0,0,1-.165.336.594.594,0,0,1-.389.136h-1.2a3.4,3.4,0,0,1-2.239-.66,2.306,2.306,0,0,1-.79-1.874,2.441,2.441,0,0,1,.4-1.426,2.242,2.242,0,0,1,1.178-.837,3.072,3.072,0,0,1-.66-2.039q0-.259.012-.4a3.093,3.093,0,0,1,.813-1.921,2.347,2.347,0,0,1,.89-.6A3.127,3.127,0,0,1-34.215-7.8a3.534,3.534,0,0,1,1.114.177,2.607,2.607,0,0,1,.913.507,2.42,2.42,0,0,1,.524.654,1.4,1.4,0,0,1,.194.654.522.522,0,0,1-.136.377.555.555,0,0,1-.418.141h-.33a.621.621,0,0,1-.613-.412,1.2,1.2,0,0,0-.465-.572,1.536,1.536,0,0,0-.784-.171,1.174,1.174,0,0,0-.931.407,1.7,1.7,0,0,0-.389,1.055,2.63,2.63,0,0,0-.012.295,2.373,2.373,0,0,0,.336,1.332,1.117,1.117,0,0,0,1,.507Zm2.7,1.332a.58.58,0,0,1-.4-.147.452.452,0,0,1-.165-.348V-9.193a.452.452,0,0,1,.165-.348.58.58,0,0,1,.4-.147h.46a.58.58,0,0,1,.4.147.452.452,0,0,1,.165.348l-.012,7.177a.453.453,0,0,1-.159.354.573.573,0,0,1-.395.141Zm2.887-.012a.58.58,0,0,1-.4-.147A.452.452,0,0,1-27-2.028v-.33a.452.452,0,0,1,.165-.348.58.58,0,0,1,.4-.147h2.7a1.711,1.711,0,0,0,.672-.094.364.364,0,0,0,.2-.365,1.855,1.855,0,0,0-.106-.542l-.082-.306-.141-.448a9.857,9.857,0,0,0-.336-.955,1.67,1.67,0,0,0-.377-.56.829.829,0,0,0-.6-.218h-1.049a.58.58,0,0,1-.4-.147.452.452,0,0,1-.165-.348V-7.19a.464.464,0,0,1,.165-.359.58.58,0,0,1,.4-.147h1.143a2.286,2.286,0,0,1,1.491.466,2.989,2.989,0,0,1,.872,1.178A11.446,11.446,0,0,1-21.5-4.314l.094.365a2.5,2.5,0,0,1,.106.7,1.5,1.5,0,0,1-.6,1.261,2.7,2.7,0,0,1-1.673.46Zm12.963-1.355a.4.4,0,0,1,.265.094.284.284,0,0,1,.112.224v.731a.273.273,0,0,1-.106.218.409.409,0,0,1-.271.088h-.907a3.356,3.356,0,0,1-.206,1.1A2.591,2.591,0,0,1-15.112.4a2.689,2.689,0,0,1-1,.619,3.845,3.845,0,0,1-1.32.218h-1.756a.579.579,0,0,1-.389-.141.424.424,0,0,1-.165-.33V.329a.436.436,0,0,1,.159-.348A.571.571,0,0,1-19.2-.154h1.768a1.551,1.551,0,0,0,1.072-.33,1.61,1.61,0,0,0,.448-1.049h-1.355a2.768,2.768,0,0,1-2.039-.636,2.9,2.9,0,0,1-.849-1.9q-.024-.33-.024-.542,0-.177.024-.53a2.954,2.954,0,0,1,.418-1.4,2.53,2.53,0,0,1,1.008-.931,3.129,3.129,0,0,1,1.461-.33,3.112,3.112,0,0,1,1.532.365,2.536,2.536,0,0,1,1.019,1.025,3.078,3.078,0,0,1,.359,1.5l-.012,2.027Zm-5.162-1.721a2.231,2.231,0,0,0,.306,1.285,1.206,1.206,0,0,0,1.061.436H-15.9l.012-1.827a2.068,2.068,0,0,0-.348-1.273,1.212,1.212,0,0,0-1.031-.46Q-18.636-6.447-18.636-4.609Zm5.162,3.076a.409.409,0,0,1-.271-.088.273.273,0,0,1-.106-.218v-.707a.273.273,0,0,1,.106-.218.409.409,0,0,1,.271-.088h.754a.647.647,0,0,0,.519-.171,1,1,0,0,0,.141-.619l-.012-5.551a.452.452,0,0,1,.165-.348.58.58,0,0,1,.4-.147h.471a.58.58,0,0,1,.4.147.452.452,0,0,1,.165.348v5.527a2.154,2.154,0,0,1-.548,1.573,2.07,2.07,0,0,1-1.55.56Zm5.48.012a.58.58,0,0,1-.4-.147.452.452,0,0,1-.165-.348V-9.193a.452.452,0,0,1,.165-.348.58.58,0,0,1,.4-.147h.46a.58.58,0,0,1,.4.147.452.452,0,0,1,.165.348L-6.98-2.016a.453.453,0,0,1-.159.354.573.573,0,0,1-.395.141Z" transform="translate(-7.33 12.601)" fill="#3b3b56"/>
  </g>
</svg>
