<svg id="send_icon" xmlns="http://www.w3.org/2000/svg" width="44" height="44" viewBox="0 0 44 44">
  <circle id="button" cx="22" cy="22" r="22" fill="#7d77fb"/>
  <path id="send" d="M21.68,17.65l-7-14a3,3,0,0,0-5.36,0l-7,14a3,3,0,0,0,3.9,4.08l5.37-2.4h0a1.06,1.06,0,0,1,.82,0l5.37,2.4a3,3,0,0,0,3.9-4.08Zm-2,2a1,1,0,0,1-1.13.22l-5.37-2.39a3,3,0,0,0-2.44,0L5.41,19.9a1,1,0,0,1-1.3-1.35l7-14a1,1,0,0,1,1.78,0l7,14a1,1,0,0,1-.17,1.13Z" transform="translate(9.002 33.994) rotate(-90)" fill="#fff"/>
</svg>
