<svg xmlns="http://www.w3.org/2000/svg" width="20" height="16" viewBox="0 0 20 16">
  <g id="Group_4831" data-name="Group 4831" transform="translate(-339 -60)">
    <path id="Arrow" d="M10.536,1.042A1.032,1.032,0,0,0,10.5.785c0-.023-.013-.045-.02-.067A1.166,1.166,0,0,0,10.4.535c-.01-.017-.018-.035-.028-.051a1.078,1.078,0,0,0-.138-.179c0-.005-.009-.006-.014-.011a1.073,1.073,0,0,0-.247-.18A1.011,1.011,0,0,0,8.906.2L.424,7.16a1.051,1.051,0,0,0,0,1.686l8.481,6.964A1,1,0,0,0,9.553,16h0a.946.946,0,0,0,.2-.027.792.792,0,0,0,.219-.077,1.04,1.04,0,0,0,.562-.927l0-3.54,7.066-.991a2.432,2.432,0,0,0,0-4.863l-7.064-.991V1.042Z" transform="translate(359 76) rotate(180)" fill="#3a3855"/>
  </g>
</svg>
