<svg xmlns="http://www.w3.org/2000/svg" width="38" height="38" viewBox="0 0 38 38">
  <g id="bad" transform="translate(-0.05 -0.044)">
    <ellipse id="Ellipse_495" data-name="Ellipse 495" cx="19" cy="19" rx="19" ry="19" transform="translate(0.05 0.044)" fill="#ffca28"/>
    <g id="Group_3321" data-name="Group 3321" transform="translate(7.07 15.732)">
      <path id="Path_6545" data-name="Path 6545" d="M292.714,214.051A4.783,4.783,0,0,1,288,209.21a1.179,1.179,0,1,1,2.357,0,2.358,2.358,0,1,0,4.714,0,1.179,1.179,0,1,1,2.357,0A4.783,4.783,0,0,1,292.714,214.051Z" transform="translate(-273.859 -208)" fill="#6d4c41"/>
      <path id="Path_6546" data-name="Path 6546" d="M100.714,214.051A4.783,4.783,0,0,1,96,209.21a1.179,1.179,0,1,1,2.357,0,2.358,2.358,0,1,0,4.714,0,1.179,1.179,0,1,1,2.357,0A4.783,4.783,0,0,1,100.714,214.051Z" transform="translate(-96 -208)" fill="#6d4c41"/>
      <path id="Path_6547" data-name="Path 6547" d="M154.346,357.611a1.168,1.168,0,0,1-.834-.353,9.467,9.467,0,0,0-13.332,0,1.157,1.157,0,0,1-1.666,0,1.234,1.234,0,0,1,0-1.711,11.563,11.563,0,0,1,16.665,0,1.234,1.234,0,0,1,0,1.711A1.153,1.153,0,0,1,154.346,357.611Z" transform="translate(-135.062 -341.108)" fill="#6d4c41"/>
    </g>
    <path id="Path_6548" data-name="Path 6548" d="M53.741,1.172a1.209,1.209,0,0,0-2.055,0C51.071,2.3,48,8.027,48,10.237a4.715,4.715,0,1,0,9.427,0C57.427,8.027,54.356,2.3,53.741,1.172Z" transform="translate(-44.465 -0.556)" fill="#03a9f4"/>
  </g>
</svg>
