<svg xmlns="http://www.w3.org/2000/svg" width="22.91" height="21.001" viewBox="0 0 22.91 21.001">
  <path id="Calendar" d="M9.425,6.429H22.057a5.813,5.813,0,0,1,3.089.535A3.643,3.643,0,0,1,26.661,8.48a5.813,5.813,0,0,1,.535,3.089V22.29a5.813,5.813,0,0,1-.535,3.089,3.643,3.643,0,0,1-1.516,1.516,5.813,5.813,0,0,1-3.089.535H9.425a5.813,5.813,0,0,1-3.089-.535,3.643,3.643,0,0,1-1.516-1.516,5.813,5.813,0,0,1-.535-3.089V11.569A5.813,5.813,0,0,1,4.821,8.48,3.643,3.643,0,0,1,6.337,6.965a5.813,5.813,0,0,1,3.089-.535ZM8.4,11.2a2.491,2.491,0,0,0-1.324.229,1.561,1.561,0,0,0-.65.65A2.491,2.491,0,0,0,6.195,13.4v8.689a3.875,3.875,0,0,0,.357,2.059,2.429,2.429,0,0,0,1.01,1.01,3.875,3.875,0,0,0,2.059.357H21.86a3.875,3.875,0,0,0,2.059-.357,2.429,2.429,0,0,0,1.01-1.01,3.875,3.875,0,0,0,.357-2.059V13.4a2.491,2.491,0,0,0-.229-1.324,1.561,1.561,0,0,0-.65-.65,2.491,2.491,0,0,0-1.324-.229Zm2.57,6.682a1.909,1.909,0,1,1,1.909-1.909A1.909,1.909,0,0,1,10.968,17.884Zm4.773-.955a.955.955,0,1,1,.955-.955A.955.955,0,0,1,15.741,16.929Zm4.773,0a.955.955,0,1,1,.955-.955A.955.955,0,0,1,20.513,16.929ZM15.741,21.7a.955.955,0,1,1,.955-.955A.955.955,0,0,1,15.741,21.7Zm-4.773,0a.955.955,0,1,1,.955-.955A.955.955,0,0,1,10.968,21.7Zm9.546,0a.955.955,0,1,1,.955-.955A.955.955,0,0,1,20.513,21.7Z" transform="translate(-4.286 -6.429)" fill="#7d74fc" fill-rule="evenodd"/>
</svg>
