<svg id="Group_2529" data-name="Group 2529" xmlns="http://www.w3.org/2000/svg" width="33" height="33" viewBox="0 0 33 33">
  <circle id="circle" cx="16.5" cy="16.5" r="16.5" fill="#f7f7f7"/>
  <path id="calendar" d="M5.546,3h8.716a4.011,4.011,0,0,1,2.131.369,2.514,2.514,0,0,1,1.046,1.046,4.011,4.011,0,0,1,.369,2.131v7.4a4.011,4.011,0,0,1-.369,2.131,2.514,2.514,0,0,1-1.046,1.046,4.011,4.011,0,0,1-2.131.369H5.546a4.011,4.011,0,0,1-2.131-.369,2.514,2.514,0,0,1-1.046-1.046A4.011,4.011,0,0,1,2,13.945v-7.4a4.011,4.011,0,0,1,.369-2.131A2.514,2.514,0,0,1,3.415,3.37,4.011,4.011,0,0,1,5.546,3ZM4.837,6.293a1.719,1.719,0,0,0-.913.158,1.077,1.077,0,0,0-.448.448,1.719,1.719,0,0,0-.158.913v6a2.674,2.674,0,0,0,.246,1.421,1.676,1.676,0,0,0,.7.7,2.674,2.674,0,0,0,1.421.246h8.445a2.674,2.674,0,0,0,1.421-.246,1.676,1.676,0,0,0,.7-.7,2.674,2.674,0,0,0,.246-1.421v-6a1.719,1.719,0,0,0-.158-.913,1.077,1.077,0,0,0-.448-.448,1.719,1.719,0,0,0-.913-.158ZM6.611,10.9A1.317,1.317,0,1,1,7.928,9.587,1.317,1.317,0,0,1,6.611,10.9ZM9.9,10.245a.659.659,0,1,1,.659-.659A.659.659,0,0,1,9.9,10.245Zm3.293,0a.659.659,0,1,1,.659-.659A.659.659,0,0,1,13.2,10.245ZM9.9,13.539a.659.659,0,1,1,.659-.659A.659.659,0,0,1,9.9,13.539Zm-3.293,0a.659.659,0,1,1,.659-.659A.659.659,0,0,1,6.611,13.539Zm6.587,0a.659.659,0,1,1,.659-.659A.659.659,0,0,1,13.2,13.539Z" transform="translate(6.248 6.254)" fill="#3a3855" fill-rule="evenodd"/>
</svg>
