<svg xmlns="http://www.w3.org/2000/svg" width="18" height="15" viewBox="0 0 18 15">
  <g id="camera" transform="translate(-195 -220.25)">
    <g id="Group_7" data-name="Group 7" transform="translate(195 220.25)">
      <g id="camera-1">
        <g id="Oval_8" data-name="Oval 8" transform="translate(6.188 3.75)">
          <path id="Path_13179" data-name="Path 13179" d="M207.75,233.75a4.5,4.5,0,1,1,4.5-4.5A4.5,4.5,0,0,1,207.75,233.75Zm0-7.875a3.375,3.375,0,1,0,3.375,3.375A3.379,3.379,0,0,0,207.75,225.875Z" transform="translate(-203.25 -224.75)" fill="#7d77fb"/>
        </g>
        <g id="Shape_17" data-name="Shape 17">
          <path id="Path_13180" data-name="Path 13180" d="M211.313,235.25H196.688A1.711,1.711,0,0,1,195,233.519v-9.231a1.711,1.711,0,0,1,1.688-1.731H201.4l.658-1.351a1.676,1.676,0,0,1,1.51-.957H207.8a1.676,1.676,0,0,1,1.51.957l.658,1.351h1.34A1.711,1.711,0,0,1,213,224.288v9.231A1.711,1.711,0,0,1,211.313,235.25Zm-14.625-11.538a.57.57,0,0,0-.562.577v9.231a.57.57,0,0,0,.563.577h14.625a.57.57,0,0,0,.563-.577v-9.231a.57.57,0,0,0-.562-.577h-1.687a.562.562,0,0,1-.5-.319l-.814-1.669a.558.558,0,0,0-.5-.319H203.57a.558.558,0,0,0-.5.319l-.814,1.669a.562.562,0,0,1-.5.319Z" transform="translate(-195 -220.25)" fill="#7d77fb"/>
        </g>
        <g id="Shape_18" data-name="Shape 18" transform="translate(2.25 4.5)">
          <path id="Path_13181" data-name="Path 13181" d="M198.844,227.937a.844.844,0,1,1,.844-.844A.845.845,0,0,1,198.844,227.937Zm0-1.125a.281.281,0,1,0,.281.281A.281.281,0,0,0,198.844,226.812Z" transform="translate(-198 -226.25)" fill="#7d77fb"/>
        </g>
        <g id="Shape_19" data-name="Shape 19" transform="translate(3.375 1.125)">
          <path id="Path_13182" data-name="Path 13182" d="M200.062,224a.563.563,0,0,1-.562-.562v-1.125a.563.563,0,0,1,1.125,0v1.125A.563.563,0,0,1,200.062,224Z" transform="translate(-199.5 -221.75)" fill="#7d77fb"/>
        </g>
      </g>
    </g>
  </g>
</svg>
