<svg xmlns="http://www.w3.org/2000/svg" id="canlder" width="23" height="23" viewBox="0 0 23 23">
    <defs>
        <style>
            .cls-1{fill:#278fb4}
        </style>
    </defs>
    <path id="Path_5565" d="M9.556 10.278a1.278 1.278 0 1 0-1.278 1.278 1.278 1.278 0 0 0 1.278-1.278z" class="cls-1" transform="translate(8.333 -1.5)"/>
    <path id="Path_5566" d="M9.556 14.278a1.278 1.278 0 1 0-1.278 1.278 1.278 1.278 0 0 0 1.278-1.278z" class="cls-1" transform="translate(8.333 -.5)"/>
    <path id="Path_5572" d="M9.556 14.278a1.278 1.278 0 1 0-1.278 1.278 1.278 1.278 0 0 0 1.278-1.278z" class="cls-1" transform="translate(8.333 3.5)"/>
    <path id="Path_5570" d="M9.556 14.278a1.278 1.278 0 1 0-1.278 1.278 1.278 1.278 0 0 0 1.278-1.278z" class="cls-1" transform="translate(3.333 -.5)"/>
    <path id="Path_5571" d="M9.556 14.278a1.278 1.278 0 1 0-1.278 1.278 1.278 1.278 0 0 0 1.278-1.278z" class="cls-1" transform="translate(-1.5 -.5)"/>
    <path id="Path_5567" d="M12.278 9A1.278 1.278 0 1 1 11 10.278 1.278 1.278 0 0 1 12.278 9z" class="cls-1" transform="translate(-.778 -1.5)"/>
    <path id="Path_5568" d="M17.556 10.278a1.278 1.278 0 1 0-1.278 1.278 1.278 1.278 0 0 0 1.278-1.278z" class="cls-1" transform="translate(-9.5 -1.5)"/>
    <path id="Path_5569" fill="#49cbf9" fill-rule="evenodd" d="M10.667 4.278a1.278 1.278 0 1 0-2.556 0v1.278H5.556A2.555 2.555 0 0 0 3 8.111v15.333A2.555 2.555 0 0 0 5.556 26h17.888A2.555 2.555 0 0 0 26 23.444V8.111a2.556 2.556 0 0 0-2.556-2.556h-2.555V4.278a1.278 1.278 0 1 0-2.556 0v1.278h-7.666zm13.777 4.111a1.278 1.278 0 0 0-1.278-1.278H5.833a1.278 1.278 0 0 0-1.277 1.278v14.777a1.278 1.278 0 0 0 1.278 1.278h17.332a1.278 1.278 0 0 0 1.278-1.278z" transform="translate(-3 -3)"/>
</svg>
