<svg id="canlder" xmlns="http://www.w3.org/2000/svg" width="23" height="23" viewBox="0 0 23 23">
  <path id="Path_5565" data-name="Path 5565" d="M9.556,10.278a1.278,1.278,0,1,0-1.278,1.278A1.278,1.278,0,0,0,9.556,10.278Z" transform="translate(8.333 -1.5)" fill="#fdc54f"/>
  <path id="Path_5566" data-name="Path 5566" d="M9.556,14.278a1.278,1.278,0,1,0-1.278,1.278A1.278,1.278,0,0,0,9.556,14.278Z" transform="translate(8.333 -0.5)" fill="#fdc54f"/>
  <path id="Path_5572" data-name="Path 5572" d="M9.556,14.278a1.278,1.278,0,1,0-1.278,1.278A1.278,1.278,0,0,0,9.556,14.278Z" transform="translate(8.333 3.5)" fill="#fdc54f"/>
  <path id="Path_5570" data-name="Path 5570" d="M9.556,14.278a1.278,1.278,0,1,0-1.278,1.278A1.278,1.278,0,0,0,9.556,14.278Z" transform="translate(3.333 -0.5)" fill="#fdc54f"/>
  <path id="Path_5571" data-name="Path 5571" d="M9.556,14.278a1.278,1.278,0,1,0-1.278,1.278A1.278,1.278,0,0,0,9.556,14.278Z" transform="translate(-1.5 -0.5)" fill="#fdc54f"/>
  <path id="Path_5567" data-name="Path 5567" d="M12.278,9A1.278,1.278,0,1,1,11,10.278,1.278,1.278,0,0,1,12.278,9Z" transform="translate(-0.778 -1.5)" fill="#fdc54f"/>
  <path id="Path_5568" data-name="Path 5568" d="M17.556,10.278a1.278,1.278,0,1,0-1.278,1.278A1.278,1.278,0,0,0,17.556,10.278Z" transform="translate(-9.5 -1.5)" fill="#fdc54f"/>
  <path id="Path_5569" data-name="Path 5569" d="M10.667,4.278a1.278,1.278,0,1,0-2.556,0V5.556H5.556A2.555,2.555,0,0,0,3,8.111V23.444A2.555,2.555,0,0,0,5.556,26H23.444A2.555,2.555,0,0,0,26,23.444V8.111a2.556,2.556,0,0,0-2.556-2.556H20.889V4.278a1.278,1.278,0,1,0-2.556,0V5.556H10.667ZM24.444,8.389a1.278,1.278,0,0,0-1.278-1.278H5.833A1.278,1.278,0,0,0,4.556,8.389V23.166a1.278,1.278,0,0,0,1.278,1.278H23.166a1.278,1.278,0,0,0,1.278-1.278Z" transform="translate(-3 -3)" fill="#fff" fill-rule="evenodd"/>
</svg>
