<svg id="activity" xmlns="http://www.w3.org/2000/svg" width="24" height="24" viewBox="0 0 24 24">
  <path id="Path_13327" data-name="Path 13327" d="M0,0H24V24H0Z" fill="none"/>
  <path id="Path_13328" data-name="Path 13328" d="M15.7,17.215v7.622a1.274,1.274,0,0,0,1.27,1.27h7.618a1.274,1.274,0,0,0,1.27-1.27V17.215a1.274,1.274,0,0,0-1.27-1.27H16.966A1.274,1.274,0,0,0,15.7,17.215ZM4.27,26.107h7.618a1.274,1.274,0,0,0,1.27-1.27V17.215a1.274,1.274,0,0,0-1.27-1.27H4.27A1.274,1.274,0,0,0,3,17.215v7.622A1.274,1.274,0,0,0,4.27,26.107ZM3,4.512v7.622A1.274,1.274,0,0,0,4.27,13.4h7.618a1.274,1.274,0,0,0,1.27-1.27V4.512a1.274,1.274,0,0,0-1.27-1.27H4.27A1.274,1.274,0,0,0,3,4.512ZM19.442,2.479l-5.4,5.386a1.266,1.266,0,0,0,0,1.791l5.4,5.4a1.264,1.264,0,0,0,1.79,0l5.4-5.4a1.266,1.266,0,0,0,0-1.791L21.245,2.479a1.279,1.279,0,0,0-1.8,0Z" transform="translate(-3 -2.107)" fill="#7d7bfa"/>
</svg>
