<svg xmlns="http://www.w3.org/2000/svg" width="18.025" height="18.001" viewBox="0 0 18.025 18.001">
  <path id="comment-message" d="M11,2a9,9,0,0,0-9,9,8.9,8.9,0,0,0,2.034,5.7l-1.8,1.8A.878.878,0,0,0,2.9,20H11A9,9,0,0,0,11,2Zm0,16.2H5.066l.837-.837a.9.9,0,0,0,0-1.269A7.2,7.2,0,1,1,11,18.2Zm4.5-8.1h-9a.9.9,0,0,0,0,1.8h9a.9.9,0,1,0,0-1.8Zm-1.8,3.6H8.3a.9.9,0,1,0,0,1.8h5.4a.9.9,0,0,0,0-1.8ZM8.3,8.3h5.4a.9.9,0,0,0,0-1.8H8.3a.9.9,0,1,0,0,1.8Z" transform="translate(-1.972 -2)" fill="#7f78f8"/>
</svg>
