<svg xmlns="http://www.w3.org/2000/svg" width="18" height="20" viewBox="0 0 18 20">
  <g id="delete" transform="translate(-3 -2)">
    <path id="Path_6327" data-name="Path 6327" d="M19.643,9.488c0,.068-.533,6.809-.837,9.646a2.918,2.918,0,0,1-3,2.827C14.516,21.99,13.25,22,12,22c-1.323,0-2.616-.01-3.872-.039A2.917,2.917,0,0,1,5.2,19.134c-.313-2.847-.836-9.578-.846-9.646a.794.794,0,0,1,.191-.558A.71.71,0,0,1,5.069,8.7H18.939a.73.73,0,0,1,.523.234A.748.748,0,0,1,19.643,9.488Z" fill="#fefefe" opacity="0.4"/>
    <path id="Path_6328" data-name="Path 6328" d="M21,5.977a.722.722,0,0,0-.713-.733H17.371A1.281,1.281,0,0,1,16.13,4.227L15.967,3.5a1.985,1.985,0,0,0-1.9-1.5H9.936A1.988,1.988,0,0,0,8.023,3.546l-.153.682A1.283,1.283,0,0,1,6.63,5.244H3.714A.722.722,0,0,0,3,5.977v.38a.729.729,0,0,0,.714.733H20.287A.729.729,0,0,0,21,6.357Z" fill="#fefefe"/>
  </g>
</svg>
