<svg xmlns="http://www.w3.org/2000/svg" width="20" height="20" viewBox="0 0 20 20">
  <g id="close" transform="translate(0 0.425)">
    <circle id="circle" cx="10" cy="10" r="10" transform="translate(0 -0.425)" fill="#dfe6ea"/>
    <path id="close-2" data-name="close" d="M10.724,9.7l2.741,2.741a.786.786,0,0,1,.211.329.569.569,0,0,1,0,.335.786.786,0,0,1-.211.329l-.029.029a.786.786,0,0,1-.329.211.569.569,0,0,1-.335,0,.786.786,0,0,1-.329-.211L9.7,10.725,6.96,13.466a.786.786,0,0,1-.329.211.569.569,0,0,1-.335,0,.786.786,0,0,1-.329-.211l-.029-.029a.786.786,0,0,1-.211-.329.569.569,0,0,1,0-.335.786.786,0,0,1,.211-.329L8.679,9.7,5.938,6.96a.786.786,0,0,1-.211-.329.569.569,0,0,1,0-.335.786.786,0,0,1,.211-.329l.029-.029A.786.786,0,0,1,6.3,5.727a.569.569,0,0,1,.335,0,.786.786,0,0,1,.329.211L9.7,8.679l2.741-2.741a.786.786,0,0,1,.329-.211.569.569,0,0,1,.335,0,.786.786,0,0,1,.329.211l.029.029a.786.786,0,0,1,.211.329.569.569,0,0,1,0,.335.786.786,0,0,1-.211.329Z" transform="translate(0.298 -0.127)" fill="#4c4c72" fill-rule="evenodd"/>
  </g>
</svg>
