<svg xmlns="http://www.w3.org/2000/svg" width="20" height="20" viewBox="0 0 20 20">
  <g id="close" transform="translate(-304 -31.879)">
    <circle id="circle" cx="10" cy="10" r="10" transform="translate(304 31.879)" fill="#ffffff" opacity="0.944"/>
    <path id="close-2" data-name="close" d="M10.915,9.854,13.761,12.7a.816.816,0,0,1,.219.342.591.591,0,0,1,0,.348.816.816,0,0,1-.219.342l-.03.03a.816.816,0,0,1-.342.219.591.591,0,0,1-.348,0,.816.816,0,0,1-.342-.219L9.854,10.915,7.008,13.761a.816.816,0,0,1-.342.219.591.591,0,0,1-.348,0,.816.816,0,0,1-.342-.219l-.03-.03a.816.816,0,0,1-.219-.342.591.591,0,0,1,0-.348.816.816,0,0,1,.219-.342L8.792,9.854,5.947,7.008a.816.816,0,0,1-.219-.342.591.591,0,0,1,0-.348.816.816,0,0,1,.219-.342l.03-.03a.816.816,0,0,1,.342-.219.591.591,0,0,1,.348,0,.816.816,0,0,1,.342.219L9.854,8.792,12.7,5.947a.816.816,0,0,1,.342-.219.591.591,0,0,1,.348,0,.816.816,0,0,1,.342.219l.03.03a.816.816,0,0,1,.219.342.591.591,0,0,1,0,.348.816.816,0,0,1-.219.342Z" transform="translate(304.345 32.224)" fill="#3a3855" fill-rule="evenodd"/>
  </g>
</svg>
