<svg id="Group_2528" data-name="Group 2528" xmlns="http://www.w3.org/2000/svg" width="33" height="33" viewBox="0 0 33 33">
  <circle id="circle" cx="16.5" cy="16.5" r="16.5" fill="#fff"/>
  <path id="recent" d="M10.5,19A8.5,8.5,0,1,1,19,10.5,8.5,8.5,0,0,1,10.5,19ZM10.448,4.125a.732.732,0,0,0-.366.076.515.515,0,0,0-.214.214.732.732,0,0,0-.076.366V9.428a.411.411,0,0,1-.038.218.257.257,0,0,1-.107.107.411.411,0,0,1-.218.038H6.552a.732.732,0,0,0-.366.076.515.515,0,0,0-.214.214.732.732,0,0,0-.076.366v.1a.732.732,0,0,0,.076.366.515.515,0,0,0,.214.214.732.732,0,0,0,.366.076h3.476a1.335,1.335,0,0,0,.709-.123.837.837,0,0,0,.348-.348,1.335,1.335,0,0,0,.123-.709V4.781a.732.732,0,0,0-.076-.366.515.515,0,0,0-.214-.214.732.732,0,0,0-.366-.076Z" transform="translate(5.606 6)" fill="#a4a4bc" fill-rule="evenodd"/>
</svg>
