<svg xmlns="http://www.w3.org/2000/svg" width="17" height="17" viewBox="0 0 17 17">
  <g id="clock" transform="translate(0 0.41)">
    <path id="Union_2" data-name="Union 2" d="M2.547,14.561a.744.744,0,0,1-.058-.05c-.018-.019-.035-.039-.051-.058a8.485,8.485,0,0,1,0-11.9c.016-.021.033-.04.051-.058a.744.744,0,0,1,.058-.05,8.484,8.484,0,0,1,11.905,0c.02.016.04.033.058.051a.618.618,0,0,1,.05.058,8.482,8.482,0,0,1,0,11.9.521.521,0,0,1-.109.109,8.483,8.483,0,0,1-11.905,0Zm6.611.2v.888a7.147,7.147,0,0,0,3.932-1.632l-.626-.626a.658.658,0,0,1,.931-.931l.626.626a7.154,7.154,0,0,0,1.632-3.932h-.889a.658.658,0,0,1,0-1.317h.889A7.151,7.151,0,0,0,14.021,3.91l-.626.626a.658.658,0,0,1-.931-.931l.626-.626A7.155,7.155,0,0,0,9.158,1.346v.889a.658.658,0,0,1-1.317,0V1.346A7.152,7.152,0,0,0,3.91,2.979l.626.626a.658.658,0,0,1-.931.931L2.979,3.91A7.152,7.152,0,0,0,1.346,7.842h.889a.658.658,0,0,1,0,1.317H1.346A7.155,7.155,0,0,0,2.979,13.09l.626-.626a.658.658,0,0,1,.931.931l-.626.626a7.145,7.145,0,0,0,3.932,1.632v-.888a.658.658,0,1,1,1.317,0ZM5.485,11.515a.658.658,0,0,1,0-.931l2.55-2.549A.659.659,0,0,1,8.5,7.842h3.605a.658.658,0,0,1,0,1.317H8.773L6.416,11.515a.658.658,0,0,1-.931,0Z" transform="translate(0 -0.41)" fill="#836219"/>
  </g>
</svg>
