<svg id="close" xmlns="http://www.w3.org/2000/svg" width="16" height="16" viewBox="0 0 16 16">
  <path id="Path_13220" data-name="Path 13220" d="M0,0H16V16H0Z" fill="none"/>
  <path id="Path_13221" data-name="Path 13221" d="M21.053,5.775a1.208,1.208,0,0,0-1.711,0L13.408,11.7,7.473,5.762A1.21,1.21,0,0,0,5.762,7.473L11.7,13.408,5.762,19.342a1.21,1.21,0,0,0,1.711,1.711l5.934-5.934,5.934,5.934a1.21,1.21,0,0,0,1.711-1.711l-5.934-5.934,5.934-5.934A1.216,1.216,0,0,0,21.053,5.775Z" transform="translate(-5.408 -5.408)" fill="#3a3855"/>
</svg>
