<svg xmlns="http://www.w3.org/2000/svg" width="16.596" height="16.596" viewBox="0 0 16.596 16.596">
  <path id="close" d="M16.121,14l5.687,5.687a1.631,1.631,0,0,1,.437.683,1.181,1.181,0,0,1,0,.695,1.631,1.631,0,0,1-.437.683l-.061.061a1.631,1.631,0,0,1-.683.437,1.181,1.181,0,0,1-.695,0,1.631,1.631,0,0,1-.683-.437L14,16.121,8.313,21.809a1.631,1.631,0,0,1-.683.437,1.181,1.181,0,0,1-.695,0,1.631,1.631,0,0,1-.683-.437l-.061-.061a1.631,1.631,0,0,1-.437-.683,1.181,1.181,0,0,1,0-.695,1.631,1.631,0,0,1,.437-.683L11.879,14,6.191,8.313a1.631,1.631,0,0,1-.437-.683,1.181,1.181,0,0,1,0-.695,1.631,1.631,0,0,1,.437-.683l.061-.061a1.631,1.631,0,0,1,.683-.437,1.181,1.181,0,0,1,.695,0,1.631,1.631,0,0,1,.683.437L14,11.879l5.687-5.687a1.631,1.631,0,0,1,.683-.437,1.181,1.181,0,0,1,.695,0,1.631,1.631,0,0,1,.683.437l.061.061a1.631,1.631,0,0,1,.437.683,1.181,1.181,0,0,1,0,.695,1.631,1.631,0,0,1-.437.683Z" transform="translate(-5.702 -5.702)" fill="#beccd4" fill-rule="evenodd"/>
</svg>
