<svg xmlns="http://www.w3.org/2000/svg" width="24" height="24" viewBox="0 0 24 24">
  <g id="close_with_border" transform="translate(-83 -257)">
    <rect id="bg" width="24" height="24" rx="12" transform="translate(83 257)" fill="#fff"/>
    <path id="close" d="M10.725,9.7l2.741,2.741a.786.786,0,0,1,.211.329.569.569,0,0,1,0,.335.786.786,0,0,1-.211.329l-.029.029a.786.786,0,0,1-.329.211.569.569,0,0,1-.335,0,.786.786,0,0,1-.329-.211L9.7,10.725,6.96,13.466a.786.786,0,0,1-.329.211.569.569,0,0,1-.335,0,.786.786,0,0,1-.329-.211l-.029-.029a.786.786,0,0,1-.211-.329.569.569,0,0,1,0-.335.786.786,0,0,1,.211-.329L8.679,9.7,5.938,6.96a.786.786,0,0,1-.211-.329.569.569,0,0,1,0-.335.786.786,0,0,1,.211-.329l.029-.029A.786.786,0,0,1,6.3,5.727a.569.569,0,0,1,.335,0,.786.786,0,0,1,.329.211L9.7,8.679l2.741-2.741a.786.786,0,0,1,.329-.211.569.569,0,0,1,.335,0,.786.786,0,0,1,.329.211l.029.029a.786.786,0,0,1,.211.329.569.569,0,0,1,0,.335.786.786,0,0,1-.211.329Z" transform="translate(85.298 259.298)" fill="#3a3855" fill-rule="evenodd"/>
  </g>
</svg>
