<svg xmlns="http://www.w3.org/2000/svg" width="289" height="194.14" viewBox="0 0 289 194.14">
  <g id="Group_4704" data-name="Group 4704" transform="translate(-2499.821 -4773.313)">
    <path id="Path_8345" data-name="Path 8345" d="M2648.053,4934.621h110.4c6.656,0,12.976-5.895,14.116-13.166l18.983-144.238H2657.048l-18.983,144.238C2636.925,4928.726,2641.4,4934.621,2648.053,4934.621Z" transform="translate(-55.816 -0.736)" fill="#eaeae9"/>
    <path id="Path_8346" data-name="Path 8346" d="M2823.776,4955.262h-110.4c-6.655,0-12.974-5.895-14.114-13.167l-21.426-114.483h134.506l21.426,114.483C2834.906,4949.368,2830.431,4955.262,2823.776,4955.262Z" transform="translate(-72.131 -21.345)" fill="#fff"/>
    <path id="Path_8347" data-name="Path 8347" d="M2744.656,4888.652H2735.9a3.158,3.158,0,0,1-3.12-2.668l-1.6-10.232a3.158,3.158,0,0,1,3.12-3.647h8.755a3.158,3.158,0,0,1,3.12,2.668l1.6,10.232A3.158,3.158,0,0,1,2744.656,4888.652Z" transform="translate(-93.955 -39.528)" fill="#37e1ca"/>
    <path id="Path_8348" data-name="Path 8348" d="M2775.782,4888.652h-8.755a3.157,3.157,0,0,1-3.12-2.668l-1.6-10.232a3.158,3.158,0,0,1,3.12-3.647h8.755a3.158,3.158,0,0,1,3.12,2.668l1.6,10.232A3.158,3.158,0,0,1,2775.782,4888.652Z" transform="translate(-106.681 -39.528)" fill="#37e1ca"/>
    <path id="Path_8349" data-name="Path 8349" d="M2806.746,4888.652h-8.755a3.158,3.158,0,0,1-3.12-2.668l-1.6-10.232a3.158,3.158,0,0,1,3.12-3.647h8.755a3.159,3.159,0,0,1,3.12,2.668l1.6,10.232A3.158,3.158,0,0,1,2806.746,4888.652Z" transform="translate(-119.339 -39.528)" fill="#37e1ca"/>
    <path id="Path_8350" data-name="Path 8350" d="M2837.126,4888.652h-8.755a3.158,3.158,0,0,1-3.12-2.668l-1.6-10.232a3.158,3.158,0,0,1,3.12-3.647h8.755a3.159,3.159,0,0,1,3.12,2.668l1.6,10.232A3.158,3.158,0,0,1,2837.126,4888.652Z" transform="translate(-131.76 -39.528)" fill="#37e1ca"/>
    <path id="Path_8351" data-name="Path 8351" d="M2867.8,4888.652h-8.755a3.159,3.159,0,0,1-3.12-2.668l-1.6-10.232a3.158,3.158,0,0,1,3.12-3.647h8.755a3.158,3.158,0,0,1,3.12,2.668l1.6,10.232A3.158,3.158,0,0,1,2867.8,4888.652Z" transform="translate(-144.3 -39.528)" fill="#37e1ca"/>
    <path id="Path_8352" data-name="Path 8352" d="M2749.969,4922.535h-8.755a3.159,3.159,0,0,1-3.12-2.669l-1.6-10.232a3.158,3.158,0,0,1,3.12-3.648h8.755a3.159,3.159,0,0,1,3.12,2.669l1.6,10.232A3.158,3.158,0,0,1,2749.969,4922.535Z" transform="translate(-96.128 -53.38)" fill="#37e1ca"/>
    <path id="Path_8353" data-name="Path 8353" d="M2781.095,4922.535h-8.755a3.158,3.158,0,0,1-3.12-2.669l-1.6-10.232a3.159,3.159,0,0,1,3.12-3.648h8.755a3.158,3.158,0,0,1,3.12,2.669l1.6,10.232A3.159,3.159,0,0,1,2781.095,4922.535Z" transform="translate(-108.853 -53.38)" fill="#37e1ca"/>
    <path id="Path_8354" data-name="Path 8354" d="M2812.059,4922.535H2803.3a3.158,3.158,0,0,1-3.12-2.669l-1.6-10.232a3.159,3.159,0,0,1,3.12-3.648h8.755a3.159,3.159,0,0,1,3.12,2.669l1.6,10.232A3.158,3.158,0,0,1,2812.059,4922.535Z" transform="translate(-121.512 -53.38)" fill="#37e1ca"/>
    <path id="Path_8355" data-name="Path 8355" d="M2842.44,4922.535h-8.755a3.159,3.159,0,0,1-3.12-2.669l-1.6-10.232a3.158,3.158,0,0,1,3.119-3.648h8.755a3.158,3.158,0,0,1,3.12,2.669l1.6,10.232A3.159,3.159,0,0,1,2842.44,4922.535Z" transform="translate(-133.932 -53.38)" fill="#37e1ca"/>
    <path id="Path_8356" data-name="Path 8356" d="M2873.112,4922.535h-8.755a3.159,3.159,0,0,1-3.12-2.669l-1.6-10.232a3.159,3.159,0,0,1,3.12-3.648h8.755a3.158,3.158,0,0,1,3.12,2.669l1.6,10.232A3.159,3.159,0,0,1,2873.112,4922.535Z" transform="translate(-146.472 -53.38)" fill="#37e1ca"/>
    <path id="Path_8357" data-name="Path 8357" d="M2755.282,4956.418h-8.755a3.159,3.159,0,0,1-3.12-2.669l-1.6-10.232a3.158,3.158,0,0,1,3.12-3.647h8.755a3.159,3.159,0,0,1,3.12,2.669l1.6,10.232A3.159,3.159,0,0,1,2755.282,4956.418Z" transform="translate(-98.3 -67.232)" fill="#37e1ca"/>
    <path id="Path_8358" data-name="Path 8358" d="M2786.408,4956.418h-8.755a3.157,3.157,0,0,1-3.12-2.669l-1.6-10.232a3.158,3.158,0,0,1,3.12-3.647h8.755a3.158,3.158,0,0,1,3.12,2.669l1.6,10.232A3.158,3.158,0,0,1,2786.408,4956.418Z" transform="translate(-111.025 -67.232)" fill="#37e1ca"/>
    <path id="Path_8359" data-name="Path 8359" d="M2817.373,4956.418h-8.755a3.158,3.158,0,0,1-3.12-2.669l-1.6-10.232a3.158,3.158,0,0,1,3.12-3.647h8.755a3.159,3.159,0,0,1,3.12,2.669l1.6,10.232A3.158,3.158,0,0,1,2817.373,4956.418Z" transform="translate(-123.684 -67.232)" fill="#37e1ca"/>
    <path id="Path_8360" data-name="Path 8360" d="M2847.753,4956.418H2839a3.159,3.159,0,0,1-3.12-2.669l-1.6-10.232a3.158,3.158,0,0,1,3.119-3.647h8.756a3.158,3.158,0,0,1,3.12,2.669l1.6,10.232A3.159,3.159,0,0,1,2847.753,4956.418Z" transform="translate(-136.104 -67.232)" fill="#37e1ca"/>
    <path id="Path_8361" data-name="Path 8361" d="M2878.425,4956.418h-8.755a3.159,3.159,0,0,1-3.12-2.669l-1.6-10.232a3.158,3.158,0,0,1,3.12-3.647h8.755a3.158,3.158,0,0,1,3.12,2.669l1.6,10.232A3.158,3.158,0,0,1,2878.425,4956.418Z" transform="translate(-148.644 -67.232)" fill="#37e1ca"/>
    <path id="Path_8362" data-name="Path 8362" d="M2760.595,4990.3h-8.755a3.159,3.159,0,0,1-3.12-2.669l-1.6-10.232a3.158,3.158,0,0,1,3.12-3.647h8.755a3.159,3.159,0,0,1,3.12,2.669l1.6,10.232A3.158,3.158,0,0,1,2760.595,4990.3Z" transform="translate(-100.472 -81.084)" fill="#37e1ca"/>
    <path id="Path_8363" data-name="Path 8363" d="M2791.721,4990.3h-8.755a3.158,3.158,0,0,1-3.12-2.669l-1.6-10.232a3.158,3.158,0,0,1,3.12-3.647h8.755a3.158,3.158,0,0,1,3.12,2.669l1.6,10.232A3.158,3.158,0,0,1,2791.721,4990.3Z" transform="translate(-113.197 -81.084)" fill="#37e1ca"/>
    <path id="Path_8364" data-name="Path 8364" d="M2822.686,4990.3h-8.755a3.159,3.159,0,0,1-3.12-2.669l-1.6-10.232a3.159,3.159,0,0,1,3.12-3.647h8.755a3.159,3.159,0,0,1,3.12,2.669l1.6,10.232A3.157,3.157,0,0,1,2822.686,4990.3Z" transform="translate(-125.856 -81.084)" fill="#37e1ca"/>
    <path id="Path_8365" data-name="Path 8365" d="M2853.066,4990.3h-8.755a3.159,3.159,0,0,1-3.12-2.669l-1.6-10.232a3.158,3.158,0,0,1,3.12-3.647h8.755a3.158,3.158,0,0,1,3.12,2.669l1.6,10.232A3.158,3.158,0,0,1,2853.066,4990.3Z" transform="translate(-138.277 -81.084)" fill="#37e1ca"/>
    <path id="Path_8366" data-name="Path 8366" d="M2883.738,4990.3h-8.755a3.158,3.158,0,0,1-3.12-2.669l-1.6-10.232a3.158,3.158,0,0,1,3.12-3.647h8.755a3.158,3.158,0,0,1,3.12,2.669l1.6,10.232A3.158,3.158,0,0,1,2883.738,4990.3Z" transform="translate(-150.816 -81.084)" fill="#37e1ca"/>
    <path id="Path_8367" data-name="Path 8367" d="M2809.12,4807.005H2674.614l-4.652-29.783h22.513c.828,5.248,5.39,9.51,10.2,9.51s8.039-4.262,7.217-9.51h18.624c.822,5.248,5.391,9.51,10.2,9.51s8.039-4.262,7.217-9.51h18.625c.821,5.248,5.39,9.51,10.2,9.51s8.038-4.262,7.217-9.51h22.507Z" transform="translate(-68.929 -0.739)" fill="#37e1ca"/>
    <path id="Path_8368" data-name="Path 8368" d="M2967.757,5034.045l-1.33-3.67a.255.255,0,0,0-.483.01l-1.177,3.723a4.009,4.009,0,0,1-2.456,2.56l-3.67,1.33a.256.256,0,0,0,.01.484l3.721,1.175a4.01,4.01,0,0,1,2.561,2.458l1.33,3.669a.256.256,0,0,0,.484-.01l1.176-3.723a4.008,4.008,0,0,1,2.456-2.56l3.67-1.33a.256.256,0,0,0-.01-.484l-3.722-1.176a4.009,4.009,0,0,1-2.56-2.457" transform="translate(-186.897 -104.16)" fill="#7f7ff8" stroke="#7f7ff8" stroke-linecap="round" stroke-linejoin="round" stroke-width="3"/>
    <path id="Path_8369" data-name="Path 8369" d="M2945.548,5074.579a1.8,1.8,0,1,1-1.8-1.8,1.8,1.8,0,0,1,1.8,1.8" transform="translate(-180.142 -121.571)" fill="#7f7ff8" stroke="#7f7ff8" stroke-linecap="round" stroke-linejoin="round" stroke-width="3"/>
    <path id="Path_8370" data-name="Path 8370" d="M2510.606,4783.83l-1.33-3.67a.255.255,0,0,0-.483.011l-1.177,3.722a4.008,4.008,0,0,1-2.456,2.561l-3.67,1.33a.255.255,0,0,0,.01.483l3.722,1.176a4.008,4.008,0,0,1,2.56,2.457l1.33,3.67a.256.256,0,0,0,.484-.01l1.177-3.723a4.008,4.008,0,0,1,2.456-2.561l3.67-1.33a.256.256,0,0,0-.01-.484l-3.722-1.176a4.009,4.009,0,0,1-2.561-2.457" transform="translate(0 -1.871)" fill="#7f7ff8" stroke="#7f7ff8" stroke-linecap="round" stroke-linejoin="round" stroke-width="3"/>
    <path id="Path_8371" data-name="Path 8371" d="M2652.462,4859.985l10.546-82.769,26.075,144.238c1.14,7.271,7.46,13.166,14.116,13.166h110.4c6.656,0,11.127-5.895,9.987-13.166l-26.075-144.238-17.582.021" transform="translate(-61.755 -0.736)" fill="none" stroke="#3b3b56" stroke-linecap="round" stroke-linejoin="round" stroke-width="4"/>
    <path id="Path_8372" data-name="Path 8372" d="M2786.051,4777.223c.821,5.248-2.406,9.51-7.217,9.51s-9.375-4.262-10.2-9.51h-18.625c.822,5.248-2.405,9.51-7.217,9.51s-9.373-4.262-10.2-9.51h-18.624c.822,5.248-2.406,9.51-7.217,9.51s-9.368-4.262-10.2-9.51h-16.6" transform="translate(-73.023 -0.739)" fill="none" stroke="#3b3b56" stroke-linecap="round" stroke-linejoin="round" stroke-width="4"/>
    <g id="Group_4704-2" data-name="Group 4704" transform="translate(2511.882 4859.942)">
      <circle id="Ellipse_516" data-name="Ellipse 516" cx="52.755" cy="52.755" r="52.755" fill="#adadfb"/>
      <path id="Path_8373" data-name="Path 8373" d="M2655.259,4946.793l-46.813,24.328v-52.755A52.733,52.733,0,0,1,2655.259,4946.793Z" transform="translate(-2555.69 -4918.366)" fill="#7f7ff8"/>
      <path id="Path_8374" data-name="Path 8374" d="M2544.13,4926.285a52.786,52.786,0,1,1-12.712,11.059" transform="translate(-2519.189 -4918.366)" fill="none" stroke="#3b3b56" stroke-linecap="round" stroke-linejoin="round" stroke-width="4"/>
      <path id="Path_8375" data-name="Path 8375" d="M2608.443,4980.05v14.7l35.8-18.6" transform="translate(-2555.689 -4941.998)" fill="none" stroke="#3b3b56" stroke-linecap="round" stroke-linejoin="round" stroke-width="4"/>
      <line id="Line_60" data-name="Line 60" y2="8.648" transform="translate(52.755 88.213)" fill="none" stroke="#3b3b56" stroke-linecap="round" stroke-linejoin="round" stroke-width="4"/>
      <line id="Line_61" data-name="Line 61" x2="9.081" transform="translate(88.551 52.755)" fill="none" stroke="#3b3b56" stroke-linecap="round" stroke-linejoin="round" stroke-width="4"/>
      <line id="Line_62" data-name="Line 62" x2="9.081" transform="translate(7.69 52.755)" fill="none" stroke="#3b3b56" stroke-linecap="round" stroke-linejoin="round" stroke-width="4"/>
      <line id="Line_63" data-name="Line 63" y1="10.162" transform="translate(52.755 5.622)" fill="none" stroke="#3b3b56" stroke-linecap="round" stroke-linejoin="round" stroke-width="4"/>
    </g>
    <g id="Group_4705" data-name="Group 4705" transform="translate(2509.195 4775.417)">
      <path id="Path_8376" data-name="Path 8376" d="M2520.475,4867.84a16.939,16.939,0,0,0,6.1-12.4c-10.705-2.171-18.375-24.223-4.216-35.59,13.755-11.042,36.767-5.34,42.341,6.737,5.621,12.179,2.836,33.883-30.334,30.956C2532.238,4865.76,2526.521,4867.84,2520.475,4867.84Z" transform="translate(-2514.642 -4791.171)" fill="#7f7ff8" stroke="#3b3b56" stroke-linecap="round" stroke-linejoin="round" stroke-width="4"/>
      <path id="Path_8377" data-name="Path 8377" d="M2596.23,4841.394s-6.486-6.178-7.539-14.726c13.222-2.683,22.7-29.916,5.207-43.957-16.988-13.638-45.409-6.6-52.293,8.32-6.943,15.042-3.5,41.848,37.464,38.233C2581.7,4839.416,2588.763,4841.394,2596.23,4841.394Z" transform="translate(-2524.509 -4775.417)" fill="#fdc54f" stroke="#3b3b56" stroke-linecap="round" stroke-linejoin="round" stroke-width="4"/>
      <circle id="Ellipse_517" data-name="Ellipse 517" cx="3.366" cy="3.366" r="3.366" transform="translate(56.139 26.255)" fill="#3b3b56"/>
      <circle id="Ellipse_518" data-name="Ellipse 518" cx="3.366" cy="3.366" r="3.366" transform="translate(43.081 26.255)" fill="#3b3b56"/>
      <circle id="Ellipse_519" data-name="Ellipse 519" cx="3.366" cy="3.366" r="3.366" transform="translate(30.294 26.255)" fill="#3b3b56"/>
    </g>
  </g>
</svg>
