<svg xmlns="http://www.w3.org/2000/svg" width="16.196" height="18.51" viewBox="0 0 16.196 18.51">
  <path id="conditions" d="M16.2,13.015V.868A.866.866,0,0,0,15.329,0H3.471A3.472,3.472,0,0,0,0,3.471V15.039A3.472,3.472,0,0,0,3.471,18.51H15.329a.866.866,0,0,0,.868-.868v-.578a.874.874,0,0,0-.322-.676,8.062,8.062,0,0,1,0-2.7.862.862,0,0,0,.322-.672ZM4.628,4.844a.218.218,0,0,1,.217-.217h7.664a.218.218,0,0,1,.217.217v.723a.218.218,0,0,1-.217.217H4.844a.218.218,0,0,1-.217-.217Zm0,2.314a.218.218,0,0,1,.217-.217h7.664a.218.218,0,0,1,.217.217v.723a.218.218,0,0,1-.217.217H4.844a.218.218,0,0,1-.217-.217ZM13.789,16.2H3.471a1.157,1.157,0,1,1,0-2.314H13.789A13.015,13.015,0,0,0,13.789,16.2Z" fill="#7f72f8"/>
</svg>
