<svg xmlns="http://www.w3.org/2000/svg" width="18" height="18" viewBox="0 0 18 18">
  <g id="correct" transform="translate(-0.244 -0.16)">
    <circle id="circle" cx="9" cy="9" r="9" transform="translate(0.244 0.16)" fill="#fff"/>
    <path id="_Icon-Color" data-name="🔹Icon-Color" d="M20.908,11.173l.079.079a.87.87,0,0,1,0,1.231l-4.873,4.882a.87.87,0,0,1-1.231,0l-2.7-2.7a.87.87,0,0,1,0-1.231l.079-.079a.87.87,0,0,1,1.231,0L15.5,15.365l4.175-4.183A.862.862,0,0,1,20.908,11.173Z" transform="translate(-7.358 -5.181)" fill="#37e1ca" fill-rule="evenodd"/>
  </g>
</svg>
