<svg xmlns="http://www.w3.org/2000/svg" width="20" height="20" viewBox="0 0 20 20">
  <g id="icon" transform="translate(-337.501 -260)">
    <rect id="Rectangle_3227" data-name="Rectangle 3227" width="20" height="20" transform="translate(337.501 260)" fill="none"/>
    <path id="coderwall" d="M17.795,15.59a2.2,2.2,0,1,1-2.2,2.2A2.206,2.206,0,0,1,17.795,15.59ZM10,7.795a2.2,2.2,0,1,1-2.2,2.2A2.206,2.206,0,0,1,10,7.795Zm7.795,0a2.2,2.2,0,1,1-2.2,2.2A2.206,2.206,0,0,1,17.795,7.795ZM10,0a2.2,2.2,0,1,1-2.2,2.2A2.206,2.206,0,0,1,10,0ZM2.2,0A2.2,2.2,0,1,1,0,2.2,2.206,2.206,0,0,1,2.2,0Zm15.59,0a2.2,2.2,0,1,1-2.2,2.2A2.206,2.206,0,0,1,17.795,0Z" transform="translate(337.501 260)" fill="#7e7bfa"/>
    <path id="coderwall-2" data-name="coderwall" d="M2.2,15.59a2.2,2.2,0,1,0,2.205,2.2A2.206,2.206,0,0,0,2.2,15.59ZM10,7.795A2.2,2.2,0,1,0,12.2,10,2.206,2.206,0,0,0,10,7.795Zm-7.795,0A2.2,2.2,0,1,0,4.41,10,2.206,2.206,0,0,0,2.2,7.795ZM10,0a2.2,2.2,0,1,0,2.2,2.2A2.206,2.206,0,0,0,10,0Zm7.795,0A2.2,2.2,0,1,0,20,2.2,2.206,2.206,0,0,0,17.795,0ZM2.2,0A2.2,2.2,0,1,0,4.41,2.2,2.206,2.206,0,0,0,2.2,0Z" transform="translate(337.501 260)" fill="#7e7bfa"/>
    <path id="coderwall-3" data-name="coderwall" d="M2.2,16.369a2.2,2.2,0,1,0,2.205,2.2A2.206,2.206,0,0,0,2.2,16.369Z" transform="translate(337.501 259.22)" fill="#7e7bfa"/>
    <path id="coderwall-4" data-name="coderwall" d="M2.2,16.369a2.2,2.2,0,1,0,2.205,2.2A2.206,2.206,0,0,0,2.2,16.369Z" transform="translate(345.12 259.22)" fill="#7e7bfa"/>
  </g>
</svg>
