<svg xmlns="http://www.w3.org/2000/svg" xmlns:xlink="http://www.w3.org/1999/xlink" width="40" height="40" viewBox="0 0 40 40">
  <defs>
    <clipPath id="clip-path">
      <circle id="circle" cx="20" cy="20" r="20" fill="#7d7bfa"/>
    </clipPath>
  </defs>
  <g id="Mask_Group_2" data-name="Mask Group 2" clip-path="url(#clip-path)">
    <g id="Group_4502" data-name="Group 4502" transform="translate(2.606 6.36)">
      <g id="Path_7973" data-name="Path 7973" transform="translate(-512.781 -125.503)" fill="#fff">
        <path d="M 549.1895141601562 225.8520050048828 C 544.314697265625 225.0593414306641 539.6136474609375 223.5256652832031 535.206787109375 221.2892456054688 C 530.7506103515625 219.0278167724609 526.68408203125 216.0952606201172 523.1174926757812 212.5712127685547 L 522.5415649414062 202.5452728271484 L 521.2221069335938 179.5747680664062 C 521.1915283203125 179.0468292236328 520.5065307617188 179.0194854736328 519.0057373046875 178.9595794677734 C 517.4522094726562 178.8975524902344 515.1044311523438 178.8038482666016 514.3213500976562 178.0229644775391 C 513.8880004882812 177.5906372070312 513.0911254882812 175.1152954101562 513.1321411132812 173.7237396240234 C 513.1447143554688 173.2973175048828 513.23876953125 173.2023315429688 513.23974609375 173.2014923095703 C 516.0963134765625 171.1719055175781 518.9847412109375 165.8497924804688 521.3056030273438 161.5734100341797 C 522.066650390625 160.1711883544922 522.7854614257812 158.8467254638672 523.3851928710938 157.8671112060547 C 524.0632934570312 156.7598114013672 524.8318481445312 155.5047302246094 526.010009765625 154.8373413085938 C 526.1161499023438 154.7773742675781 526.2267456054688 154.7211303710938 526.3438720703125 154.6616058349609 C 526.73779296875 154.4613189697266 527.1452026367188 154.2542114257812 527.44091796875 153.8728332519531 C 527.8805541992188 153.3067626953125 527.383544921875 151.8294830322266 527.2202758789062 151.3440246582031 C 527.183349609375 151.2343902587891 526.3086547851562 148.6567535400391 525.588134765625 148.4640197753906 C 525.477783203125 148.4341278076172 525.1433715820312 148.3825531005859 524.3494262695312 148.2633056640625 C 523.6790771484375 148.16259765625 522.6659545898438 148.0104217529297 522.5011596679688 147.9588470458984 C 521.6744995117188 147.699462890625 521.4527587890625 146.5982208251953 521.1719360351562 145.2039947509766 C 521.0466918945312 144.5821838378906 520.917236328125 143.9391937255859 520.7169799804688 143.2849578857422 C 520.67431640625 143.1454162597656 520.6229248046875 142.9808654785156 520.5665893554688 142.8006591796875 C 520.345703125 142.0934600830078 519.8331298828125 140.4526977539062 519.84423828125 140.1122741699219 C 519.9238891601562 139.9476776123047 520.37646484375 139.4428863525391 520.7421875 139.0350189208984 C 521.3275756835938 138.3821411132812 521.9910278320312 137.6421813964844 522.3274536132812 137.0645446777344 C 522.9706420898438 135.9604644775391 523.4683227539062 134.0404815673828 523.8489990234375 131.1949310302734 L 523.8925170898438 130.8696594238281 L 523.5706787109375 130.8053131103516 C 523.243896484375 130.7399597167969 522.7841796875 130.4450988769531 522.493896484375 129.9336853027344 C 522.2633056640625 129.5273742675781 522.0595703125 128.842529296875 522.3984375 127.8874359130859 C 522.8773803710938 126.53759765625 524.259765625 125.8531723022461 526.5072021484375 125.8531723022461 C 529.7470703125 125.8531723022461 533.9945678710938 127.2833557128906 536.6473999023438 128.5080871582031 C 538.412841796875 129.3230438232422 540.1115112304688 130.7655639648438 540.8770751953125 131.7693176269531 C 541.4635620117188 132.5392608642578 541.8202514648438 133.4979095458984 541.9371337890625 134.6183929443359 C 542.0396118164062 135.6007385253906 541.9510498046875 136.7062072753906 541.6809692382812 137.8152770996094 C 540.8726196289062 141.1405487060547 538.84130859375 144.0575256347656 536.8768310546875 146.8784790039062 C 536.4244995117188 147.5279846191406 535.9568481445312 148.1996002197266 535.5116577148438 148.8653564453125 C 535.3309326171875 149.1358795166016 535.0834350585938 149.5062255859375 535.0748901367188 149.9541778564453 C 535.0633544921875 150.5572357177734 535.4768676757812 151.0164794921875 535.8091430664062 151.3854675292969 C 539.3862915039062 155.3594207763672 541.4476928710938 161.0778198242188 541.9359741210938 168.3817749023438 C 542.0098876953125 169.4934997558594 542.1216430664062 171.1737365722656 543.310546875 172.0110015869141 C 543.9080810546875 172.4329528808594 544.6246948242188 172.5369262695312 545.3678588867188 172.6138000488281 C 547.236572265625 172.8101348876953 549.5628662109375 173.0545654296875 550.6939697265625 174.6201019287109 C 550.9803466796875 175.0159149169922 551.1423950195312 175.4421234130859 551.1627807617188 175.8528289794922 C 551.2304077148438 177.1873474121094 549.7991333007812 178.2471160888672 548.3764038085938 178.5009307861328 C 547.7155151367188 178.6192779541016 547.0242919921875 178.6291809082031 546.4282836914062 178.6291809082031 C 546.3135375976562 178.6291809082031 546.1987915039062 178.6287384033203 546.0840454101562 178.6283111572266 C 545.9684448242188 178.6278686523438 545.852783203125 178.6274261474609 545.7371826171875 178.6274261474609 C 545.1165771484375 178.6274261474609 544.3949584960938 178.6379547119141 543.6837158203125 178.7636566162109 C 541.9871215820312 179.0633392333984 540.2265014648438 180.3423919677734 540.3053588867188 182.1224670410156 C 540.3689575195312 183.5888519287109 541.6864013671875 184.6319732666016 542.883544921875 184.9804840087891 C 543.4286499023438 185.1391143798828 544.01708984375 185.2129974365234 544.7353515625 185.2129821777344 C 545.2653198242188 185.2129669189453 545.800048828125 185.1722869873047 546.3171997070312 185.1329498291016 C 546.4320678710938 185.1242065429688 546.5467529296875 185.115478515625 546.6611938476562 185.1072082519531 C 547.643310546875 185.0358734130859 548.6415405273438 184.9996948242188 549.6282348632812 184.9996948242188 C 551.7999267578125 184.9996948242188 553.986083984375 185.1737213134766 556.1259765625 185.5169525146484 C 558.00341796875 185.8187255859375 560.1659545898438 186.771484375 560.0814819335938 188.4633941650391 C 560.01318359375 189.8481292724609 558.4086303710938 190.7215576171875 556.9298095703125 191.0772857666016 C 555.7255859375 191.3673553466797 554.49365234375 191.5144195556641 553.268310546875 191.5144195556641 C 552.721435546875 191.5144195556641 552.1714477539062 191.4846649169922 551.633544921875 191.4259948730469 C 550.9888305664062 191.3551940917969 550.3349609375 191.2506408691406 549.6427001953125 191.1399383544922 C 548.4255981445312 190.9453277587891 547.1669921875 190.7440795898438 545.9730834960938 190.7440795898438 C 544.2177734375 190.7440795898438 542.9237670898438 191.1760559082031 541.90087890625 192.1035308837891 C 540.5060424804688 193.3696136474609 540.0323486328125 195.5444030761719 540.7744750976562 197.2747802734375 C 541.4711303710938 198.8998565673828 543.2044067382812 200.0347442626953 544.989501953125 200.0346069335938 C 545.0921020507812 200.0345916748047 545.1954956054688 200.0308074951172 545.296875 200.0233459472656 C 545.6837158203125 199.9945526123047 546.0626831054688 199.9169769287109 546.4291381835938 199.8419494628906 C 546.87353515625 199.7509613037109 547.2932739257812 199.6650085449219 547.7067260742188 199.6650085449219 C 547.8447265625 199.6650085449219 547.9722900390625 199.6744995117188 548.0966796875 199.6940307617188 C 548.7158203125 199.7914428710938 549.2701416015625 200.1795806884766 549.6574096679688 200.7869415283203 C 550.1591186523438 201.5736999511719 550.3153686523438 202.6041259765625 550.0651245117188 203.4761047363281 C 549.7892456054688 204.4392395019531 548.968994140625 205.8492431640625 546.6278076171875 207.0977630615234 C 546.5510864257812 207.1385955810547 546.4734497070312 207.1792907714844 546.3954467773438 207.2201690673828 C 545.6771240234375 207.5966796875 544.8628540039062 208.0234069824219 544.4242553710938 208.8001251220703 C 543.9182739257812 209.6956329345703 544.0630493164062 210.7611694335938 544.2384643554688 211.6896209716797 C 545.1243896484375 216.3886871337891 547.3226928710938 221.9674377441406 549.1895141601562 225.8520050048828 Z" stroke="none"/>
        <path d="M 548.5851440429688 225.3943786621094 C 546.775634765625 221.5291137695312 544.7412719726562 216.2456665039062 543.8945922851562 211.7545928955078 C 543.7076416015625 210.7653198242188 543.5554809570312 209.6262817382812 544.1195068359375 208.6280059814453 C 544.60888671875 207.7613525390625 545.4717407226562 207.3091430664062 546.2329711914062 206.9101715087891 C 546.310302734375 206.8696594238281 546.3872680664062 206.8293304443359 546.4630737304688 206.7889251708984 C 548.696044921875 205.5980987548828 549.471435546875 204.2777862548828 549.7286987304688 203.3795776367188 C 549.9520874023438 202.6011505126953 549.8117065429688 201.6798248291016 549.3623046875 200.9751281738281 C 549.1270751953125 200.6061553955078 548.70703125 200.1443786621094 548.0424194335938 200.039794921875 C 547.9361572265625 200.0231170654297 547.8263549804688 200.0150146484375 547.7067260742188 200.0150146484375 C 547.3287353515625 200.0150146484375 546.9258422851562 200.0974884033203 546.4993286132812 200.1848297119141 C 546.1221313476562 200.2620697021484 545.7319946289062 200.3419342041016 545.3225708007812 200.3724060058594 C 545.2125854492188 200.3805084228516 545.1004638671875 200.3846130371094 544.989501953125 200.3846130371094 C 543.0685424804688 200.384765625 541.2030029296875 199.1626434326172 540.4528198242188 197.4127502441406 C 539.6536865234375 195.5494384765625 540.1636962890625 193.2076568603516 541.665771484375 191.84423828125 C 542.741943359375 190.8684234619141 544.1509399414062 190.3940734863281 545.9730834960938 190.3940734863281 C 547.19482421875 190.3940734863281 548.4673461914062 190.5975646972656 549.697998046875 190.7943420410156 C 550.3858642578125 190.9043273925781 551.0355834960938 191.0082244873047 551.6715087890625 191.0780639648438 C 552.19677734375 191.1353607177734 552.7340087890625 191.1644134521484 553.268310546875 191.1644134521484 C 554.4661254882812 191.1644134521484 555.67041015625 191.0206298828125 556.8479614257812 190.7369995117188 C 558.20361328125 190.410888671875 559.673095703125 189.6379089355469 559.73193359375 188.4459533691406 C 559.7637329101562 187.8086700439453 559.423583984375 187.2671203613281 558.692138671875 186.7903442382812 C 558.0366821289062 186.3631439208984 557.0810546875 186.0249633789062 556.070556640625 185.8625183105469 C 553.9489135742188 185.5222320556641 551.7814331054688 185.3496856689453 549.6282348632812 185.3496856689453 C 548.64990234375 185.3496856689453 547.66015625 185.3855590820312 546.6864013671875 185.456298828125 C 546.5723266601562 185.4645385742188 546.4580078125 185.4732360839844 546.343505859375 185.4819488525391 C 545.8199462890625 185.5217895507812 545.2785034179688 185.5629730224609 544.7354125976562 185.56298828125 C 543.9830322265625 185.5630035400391 543.363525390625 185.4846954345703 542.7857055664062 185.3165283203125 C 542.0690307617188 185.1078948974609 541.3978881835938 184.7097015380859 540.8959350585938 184.1953277587891 C 540.3132934570312 183.5982666015625 539.9881591796875 182.8866271972656 539.9556884765625 182.1379547119141 C 539.8680419921875 180.1586456298828 541.7796630859375 178.7445678710938 543.622802734375 178.4189910888672 C 544.3619384765625 178.2883605957031 545.1017456054688 178.2774200439453 545.7371826171875 178.2774200439453 C 545.967529296875 178.2774200439453 546.1978149414062 178.2791900634766 546.4282836914062 178.2791900634766 C 547.00927734375 178.2791900634766 547.6820678710938 178.2696990966797 548.31494140625 178.1563720703125 C 548.9868774414062 178.0364990234375 549.6441040039062 177.7253723144531 550.1181030273438 177.3027801513672 C 550.4531860351562 177.0040283203125 550.8457641601562 176.5131072998047 550.8131713867188 175.8701629638672 C 550.7916870117188 175.4369964599609 550.5823364257812 175.0629577636719 550.4102783203125 174.8250732421875 C 549.3707275390625 173.3863067626953 547.2244262695312 173.1607818603516 545.3318481445312 172.9619293212891 C 544.5722045898438 172.8833618164062 543.7747192382812 172.7672576904297 543.1090698242188 172.2971801757812 C 541.783447265625 171.3636932373047 541.6651000976562 169.5830993652344 541.5867919921875 168.4051208496094 C 541.1038208007812 161.1813354492188 539.0723876953125 155.5338592529297 535.5490112304688 151.6196746826172 C 535.1952514648438 151.226806640625 534.7107543945312 150.6887359619141 534.7249145507812 149.9474639892578 C 534.7354736328125 149.3970184326172 535.0274047851562 148.9601135253906 535.220703125 148.6708068847656 C 535.667724609375 148.0022888183594 536.1364135742188 147.3292999267578 536.589599609375 146.678466796875 C 538.5357055664062 143.8839263916016 540.5479736328125 140.9942474365234 541.3409423828125 137.7324829101562 C 541.6016235351562 136.6619262695312 541.6873779296875 135.59765625 541.5890502929688 134.6547088623047 C 541.4789428710938 133.5990142822266 541.1456909179688 132.6995239257812 540.5988159179688 131.9815673828125 C 539.8594360351562 131.0121612548828 538.21435546875 129.6169128417969 536.500732421875 128.8258666992188 C 533.8800659179688 127.6159973144531 529.6903076171875 126.2031707763672 526.5072021484375 126.2031707763672 C 525.4791259765625 126.2031707763672 524.6373291015625 126.3527450561523 524.0052490234375 126.6477432250977 C 523.3636474609375 126.947135925293 522.9459838867188 127.3909301757812 522.7283325195312 128.0044860839844 C 522.43359375 128.8350067138672 522.6036987304688 129.4180603027344 522.7982788085938 129.7609252929688 C 523.0327758789062 130.1740264892578 523.3986206054688 130.4139709472656 523.6393432617188 130.4621124267578 L 524.2828979492188 130.5908050537109 L 524.1958618164062 131.2413330078125 C 523.8089599609375 134.133544921875 523.2967529296875 136.0959625244141 522.6299438476562 137.2406921386719 C 522.2755126953125 137.8492279052734 521.599365234375 138.6033325195312 521.0028076171875 139.2686614990234 C 520.7205200195312 139.5834655761719 520.3475952148438 139.9994049072266 520.2030029296875 140.2005920410156 C 520.26806640625 140.6711273193359 520.7057495117188 142.0722045898438 520.9006958007812 142.6962890625 C 520.9572143554688 142.8772277832031 521.0088500976562 143.0424346923828 521.0516967773438 143.1825256347656 C 521.2569580078125 143.8532257080078 521.3941040039062 144.5341491699219 521.5150756835938 145.1349029541016 C 521.8008422851562 146.5538787841797 522.0064697265625 147.4339904785156 522.6030883789062 147.6240081787109 C 522.7864990234375 147.6746063232422 523.796875 147.8263702392578 524.4014282226562 147.9171905517578 C 525.243896484375 148.0437316894531 525.55029296875 148.0911560058594 525.6785888671875 148.1258850097656 C 525.99267578125 148.2099304199219 526.2987670898438 148.4532012939453 526.771484375 149.3673400878906 C 527.0498657226562 149.9056243896484 527.3342895507812 150.5854187011719 527.552001953125 151.232421875 C 528.1903076171875 153.1298217773438 527.9755859375 153.7550354003906 527.7174682617188 154.0873260498047 C 527.3737182617188 154.5306701660156 526.9108276367188 154.7659759521484 526.5025024414062 154.9736022949219 C 526.388916015625 155.0313262939453 526.2816772460938 155.0858612060547 526.1825561523438 155.1418762207031 C 525.0830688476562 155.7646789550781 524.339599609375 156.978759765625 523.6836547851562 158.0498504638672 C 523.0886840820312 159.0216979980469 522.3720092773438 160.3422698974609 521.6132202148438 161.7403564453125 C 519.2947998046875 166.0122528076172 516.4140014648438 171.3200836181641 513.5148315429688 173.4347839355469 C 513.4548950195312 173.6511993408203 513.4429931640625 174.3816986083984 513.7506713867188 175.6298065185547 C 514.0574951171875 176.8740539550781 514.4347534179688 177.6410827636719 514.5684814453125 177.7751159667969 C 515.2548828125 178.4595794677734 517.6116333007812 178.5536499023438 519.0197143554688 178.6098480224609 C 519.5706787109375 178.6318511962891 520.0464477539062 178.6508331298828 520.4091796875 178.6937408447266 C 520.6427001953125 178.7213897705078 520.8170776367188 178.7575836181641 520.9579467773438 178.8076934814453 C 521.4835205078125 178.9946441650391 521.5621337890625 179.3921661376953 521.571533203125 179.5547027587891 L 523.4591674804688 212.4165496826172 C 526.9768676757812 215.8729095458984 530.9813842773438 218.75244140625 535.3651733398438 220.9771423339844 C 539.5405883789062 223.0960998535156 543.9815673828125 224.5794677734375 548.5851440429688 225.3943786621094 M 549.7974853515625 226.3007507324219 C 539.3256225585938 224.7464294433594 529.9456787109375 219.8485107421875 522.7757568359375 212.725341796875 C 522.1414184570312 201.6822204589844 521.507080078125 190.6378784179688 520.8726806640625 179.5948486328125 C 520.841064453125 179.0489654541016 515.5081787109375 179.7007446289062 514.07421875 178.2707824707031 C 513.369140625 177.5674133300781 512.2828979492188 173.4519653320312 513.0357055664062 172.9171905517578 C 516.7822265625 170.2551879882812 520.7147216796875 161.5587158203125 523.086669921875 157.6843566894531 C 523.8233642578125 156.4813537597656 524.610595703125 155.2278137207031 525.8375244140625 154.5328063964844 C 526.3025512695312 154.2699737548828 526.8370361328125 154.0804290771484 527.164306640625 153.6583709716797 C 527.7001953125 152.9683837890625 526.0409545898438 148.9474487304688 525.4976806640625 148.8021240234375 C 525.2550048828125 148.7364196777344 522.7277221679688 148.396484375 522.3966064453125 148.2928771972656 C 520.9509887695312 147.8392486572266 521.0521240234375 145.5760040283203 520.38232421875 143.3873901367188 C 520.09814453125 142.4585876464844 519.4271240234375 140.4190673828125 519.5004272460938 140.0374298095703 C 519.574951171875 139.6558074951172 521.4185791015625 137.9296569824219 522.0250244140625 136.8883972167969 C 522.8553466796875 135.4630126953125 523.2833251953125 132.78369140625 523.5020751953125 131.1485137939453 C 522.6236572265625 130.9728698730469 521.3803100585938 129.7100830078125 522.068603515625 127.7704010009766 C 523.57421875 123.5267639160156 532.4244384765625 126.1729965209961 536.7941284179688 128.1903228759766 C 538.5572509765625 129.0042266845703 540.3062744140625 130.4437866210938 541.1553955078125 131.5570526123047 C 542.4923095703125 133.312255859375 542.5429077148438 135.7549285888672 542.0210571289062 137.8980865478516 C 541.0088500976562 142.0617980957031 538.1845703125 145.4976806640625 535.8026123046875 149.0599060058594 C 535.619384765625 149.3341369628906 535.43115234375 149.6298065185547 535.4248046875 149.9608764648438 C 535.4159545898438 150.4234008789062 535.7597045898438 150.8075408935547 536.0692138671875 151.1512603759766 C 540.2266845703125 155.7698974609375 541.8706665039062 162.1576843261719 542.2852172851562 168.3584289550781 C 542.3673095703125 169.5930480957031 542.5 171.0121154785156 543.5120849609375 171.7248382568359 C 544.0542602539062 172.1077117919922 544.7442016601562 172.1974182128906 545.4038696289062 172.2656555175781 C 547.4483642578125 172.48046875 549.7734375 172.7483673095703 550.9776611328125 174.4151306152344 C 551.2784423828125 174.8308715820312 551.4869384765625 175.3236999511719 551.5123291015625 175.8354797363281 C 551.591796875 177.4036712646484 549.98193359375 178.5700378417969 548.4378662109375 178.8454895019531 C 547.54931640625 179.0046081542969 546.641845703125 178.9774627685547 545.7371826171875 178.9774322509766 C 545.0684204101562 178.9774322509766 544.4010620117188 178.9922943115234 543.74462890625 179.1083068847656 C 542.1992797851562 179.3812866210938 540.5855712890625 180.5387878417969 540.655029296875 182.1069793701172 C 540.7081298828125 183.3314514160156 541.804931640625 184.3019409179688 542.9813842773438 184.6444244384766 C 544.1577758789062 184.9868316650391 545.4125366210938 184.8465423583984 546.6359252929688 184.7581176757812 C 549.819091796875 184.5269165039062 553.0298461914062 184.6658935546875 556.181396484375 185.1713562011719 C 558.1312255859375 185.4847717285156 560.529541015625 186.5082550048828 560.4310302734375 188.4808502197266 C 560.3514404296875 190.0945129394531 558.5823974609375 191.0397491455078 557.0116577148438 191.4175872802734 C 555.2437744140625 191.8434295654297 553.4025268554688 191.9710540771484 551.5955810546875 191.77392578125 C 548.3391723632812 191.4163055419922 544.5623779296875 190.1626739501953 542.135986328125 192.3628082275391 C 540.849609375 193.5304260253906 540.4111328125 195.5396118164062 541.0961303710938 197.1368408203125 C 541.7809448242188 198.734130859375 543.5386962890625 199.8019714355469 545.2711791992188 199.6742858886719 C 546.2390747070312 199.6022644042969 547.1929321289062 199.1978302001953 548.1509399414062 199.3482666015625 C 549.9338989257812 199.6287841796875 550.8994140625 201.837646484375 550.4015502929688 203.5726318359375 C 549.9049072265625 205.306396484375 548.384765625 206.5574340820312 546.79248046875 207.4065856933594 C 546.0191650390625 207.8185424804688 545.1600341796875 208.208984375 544.72900390625 208.9722290039062 C 544.2841796875 209.759521484375 544.414306640625 210.7350158691406 544.5823974609375 211.6246337890625 C 545.4290771484375 216.1156463623047 547.616455078125 221.8867797851562 549.7974853515625 226.3007507324219 Z" stroke="none" fill="#3a3855"/>
      </g>
    </g>
  </g>
</svg>
