<svg xmlns="http://www.w3.org/2000/svg" width="40" height="40" viewBox="0 0 40 40">
  <g id="warning" transform="translate(-236 -168)">
    <path id="Path_13178" data-name="Path 13178" d="M-10.417-1.119l15.8,27.538h-31.6l15.8-27.538M-29.847,24.3a4.232,4.232,0,0,0,3.63,6.35h31.6a4.233,4.233,0,0,0,3.63-6.35L-6.787-3.236a4.176,4.176,0,0,0-7.26,0ZM-12.515,9.486v4.233a2.114,2.114,0,0,0,2.1,2.117,2.114,2.114,0,0,0,2.1-2.117V9.486a2.114,2.114,0,0,0-2.1-2.117A2.114,2.114,0,0,0-12.515,9.486Zm0,10.583h4.2V24.3h-4.2Z" transform="translate(266.417 175.347)" fill="#fdc54f"/>
  </g>
</svg>
