<svg xmlns="http://www.w3.org/2000/svg" width="20.727" height="18.999" viewBox="0 0 20.727 18.999">
  <g id="cal" transform="translate(0 0)">
    <path id="Calendar" d="M8.936,6.429H20.363a5.259,5.259,0,0,1,2.794.484,3.3,3.3,0,0,1,1.371,1.371,5.259,5.259,0,0,1,.484,2.794v9.7a5.259,5.259,0,0,1-.484,2.794,3.3,3.3,0,0,1-1.371,1.371,5.259,5.259,0,0,1-2.794.484H8.936a5.259,5.259,0,0,1-2.794-.484A3.3,3.3,0,0,1,4.77,23.573a5.259,5.259,0,0,1-.484-2.794v-9.7A5.259,5.259,0,0,1,4.77,8.285,3.3,3.3,0,0,1,6.141,6.914a5.259,5.259,0,0,1,2.794-.484Zm-.93,4.318a2.254,2.254,0,0,0-1.2.208,1.412,1.412,0,0,0-.588.588,2.254,2.254,0,0,0-.208,1.2V20.6a3.506,3.506,0,0,0,.323,1.863,2.2,2.2,0,0,0,.914.914,3.506,3.506,0,0,0,1.863.323H20.185a3.506,3.506,0,0,0,1.863-.323,2.2,2.2,0,0,0,.914-.914,3.506,3.506,0,0,0,.323-1.863V12.74a2.254,2.254,0,0,0-.208-1.2,1.412,1.412,0,0,0-.588-.588,2.254,2.254,0,0,0-1.2-.208Zm2.325,6.045a1.727,1.727,0,1,1,1.727-1.727A1.727,1.727,0,0,1,10.331,16.792Zm4.318-.864a.864.864,0,1,1,.864-.864A.864.864,0,0,1,14.649,15.929Zm4.318,0a.864.864,0,1,1,.864-.864A.864.864,0,0,1,18.967,15.929Zm-4.318,4.318a.864.864,0,1,1,.864-.864A.864.864,0,0,1,14.649,20.247Zm-4.318,0a.864.864,0,1,1,.864-.864A.864.864,0,0,1,10.331,20.247Zm8.636,0a.864.864,0,1,1,.864-.864A.864.864,0,0,1,18.967,20.247Z" transform="translate(-4.286 -6.429)" fill="#7f7ff8" fill-rule="evenodd"/>
  </g>
</svg>
