<svg xmlns="http://www.w3.org/2000/svg" width="20.615" height="20.615" viewBox="0 0 20.615 20.615">
  <g id="OK_Success_Check" data-name="OK Success Check" transform="translate(-1.693 -2.749)" fill="#fff">
    <path d="M 12.00094604492188 22.36470031738281 C 9.514466285705566 22.36470031738281 7.176886081695557 21.39628028869629 5.418816089630127 19.63784027099609 C 1.790225982666016 16.00963973999023 1.790475964546204 10.10477066040039 5.419486045837402 6.475030422210693 C 7.17763614654541 4.717240333557129 9.51469612121582 3.749260187149048 12.00028610229492 3.749260187149048 C 14.48578643798828 3.749260187149048 16.82277679443359 4.717240333557129 18.58077621459961 6.474880218505859 C 20.33877563476563 8.233230590820313 21.30707550048828 10.57079029083252 21.30746650695801 13.05710983276367 C 21.3078556060791 15.54378986358643 20.33997535705566 17.88116073608398 18.58211517333984 19.6386604309082 C 16.82422637939453 21.39655113220215 14.48696613311768 22.36470031738281 12.00094604492188 22.36470031738281 Z" stroke="none"/>
    <path d="M 12.00028800964355 4.749258041381836 C 9.874358177185059 4.749143600463867 7.748899459838867 5.560157775878906 6.126665115356445 7.182050704956055 C 2.881925582885742 10.42746162414551 2.881256103515625 15.68641090393066 6.125995635986328 18.93081092834473 C 7.748031616210938 20.55318069458008 9.874772071838379 21.36469650268555 12.00094318389893 21.36469650268555 C 14.12711429595947 21.36469650268555 16.25271606445313 20.55384635925293 17.87508583068848 18.93148040771484 C 21.11915588378906 15.68808078765869 21.11781692504883 10.42679119110107 17.87374496459961 7.182050704956055 C 16.25157928466797 5.560218811035156 14.12569808959961 4.749372482299805 12.00028800964355 4.749258041381836 M 10.69382572174072 17.0041618347168 L 10.6921558380127 17.0041618347168 L 10.67477607727051 17.0041618347168 C 10.43381595611572 17.0041618347168 10.2075662612915 16.89922142028809 10.05383586883545 16.71574020385742 L 8.03593635559082 14.32990169525146 C 7.895915985107422 14.16480159759521 7.829065322875977 13.9539213180542 7.846786499023438 13.73736095428467 C 7.865165710449219 13.52080154418945 7.966426849365234 13.32429122924805 8.131855964660645 13.18393135070801 C 8.27238655090332 13.06483840942383 8.458828926086426 13.00730228424072 8.646541595458984 13.00729465484619 C 8.886039733886719 13.00728511810303 9.127630233764648 13.10092353820801 9.278825759887695 13.27984142303467 L 10.64335632324219 14.89269161224365 L 14.73829555511475 9.529800415039063 C 14.89004421234131 9.331455230712891 15.14711380004883 9.224578857421875 15.40083503723145 9.224578857421875 C 15.57290172576904 9.224578857421875 15.74339389801025 9.273693084716797 15.87858581542969 9.376741409301758 C 16.05135536193848 9.508750915527344 16.16231536865234 9.699911117553711 16.19105529785156 9.915472030639648 C 16.21979522705078 10.13102149963379 16.16331481933594 10.34491157531738 16.03130531311035 10.51736164093018 L 11.32144641876221 16.68466186523438 C 11.17039585113525 16.88217163085938 10.94146633148193 16.99914169311523 10.69382572174072 17.0041618347168 M 11.99981594085693 2.749261856079102 L 11.99981594085693 4.749261856079102 L 11.9999361038208 2.749261856079102 C 14.75302600860596 2.749401092529297 17.34108543395996 3.821371078491211 19.28781509399414 5.767690658569336 C 21.2347354888916 7.715021133422852 22.30703544616699 10.30362129211426 22.30746650695801 13.05695152282715 C 22.30790519714355 15.81084156036377 21.23597526550293 18.39942169189453 19.28915596008301 20.34584045410156 C 17.34244537353516 22.29253196716309 14.75406646728516 23.36470031738281 12.00094604492188 23.36470031738281 C 9.247316360473633 23.36470031738281 6.658586502075195 22.2922420501709 4.711635589599609 20.34488105773926 C 2.764755249023438 18.39820098876953 1.692556381225586 15.80978107452393 1.692775726318359 13.05665111541748 C 1.692995071411133 10.30384159088135 2.765346527099609 7.715341567993164 4.712305068969727 5.767980575561523 C 6.659475326538086 3.821231842041016 9.247455596923828 2.749261856079102 11.99981594085693 2.749261856079102 Z" stroke="none" fill="#7e6ef8"/>
  </g>
</svg>
