<svg xmlns="http://www.w3.org/2000/svg" width="20.744" height="20.744" viewBox="0 0 20.744 20.744">
  <g id="ios-arrow-dropdown-circle" transform="translate(-48 -48)">
    <path id="Path_4541" data-name="Path 4541" d="M48,58.372A10.372,10.372,0,1,0,58.372,48,10.37,10.37,0,0,0,48,58.372Zm14.416-2.164a.966.966,0,0,1,1.361,0,.951.951,0,0,1,.279.678.967.967,0,0,1-.284.683l-4.7,4.687a.961.961,0,0,1-1.326-.03l-4.772-4.757a.963.963,0,1,1,1.361-1.361l4.044,4.084Z" transform="translate(0 0)" fill="#7d71fd"/>
  </g>
</svg>
