<svg id="email-round-24px" xmlns="http://www.w3.org/2000/svg" width="20" height="20" viewBox="0 0 20 20">
  <path id="Path_13224" data-name="Path 13224" d="M0,0H20V20H0Z" fill="none"/>
  <path id="Path_13225" data-name="Path 13225" d="M20,4H4A2,2,0,0,0,2.01,6L2,18a2.006,2.006,0,0,0,2,2H20a2.006,2.006,0,0,0,2-2V6A2.006,2.006,0,0,0,20,4Zm-.4,4.25-7.07,4.42a1.011,1.011,0,0,1-1.06,0L4.4,8.25a.849.849,0,1,1,.9-1.44L12,11l6.7-4.19a.849.849,0,1,1,.9,1.44Z" transform="translate(-2 -2)" fill="#7e7bfa"/>
</svg>
