<svg xmlns="http://www.w3.org/2000/svg" xmlns:xlink="http://www.w3.org/1999/xlink" width="145.748" height="150.136" viewBox="0 0 145.748 150.136">
  <defs>
    <clipPath id="clip-path">
      <path id="Path_6112" data-name="Path 6112" d="M391.385,224.781H288.868a2.172,2.172,0,0,0-2.1,1.873l-17.248,126.8a1.627,1.627,0,0,0,1.648,1.873H373.687a2.172,2.172,0,0,0,2.1-1.873l17.247-126.8A1.626,1.626,0,0,0,391.385,224.781Z" transform="translate(-252.508 -200.781)" fill="none"/>
    </clipPath>
  </defs>
  <g id="art" transform="translate(-269.508 -220.159)">
    <g id="Group_3252" data-name="Group 3252" transform="translate(298.082 220.159)">
      <g id="Group_3251" data-name="Group 3251" transform="translate(0)">
        <path id="Path_6072" data-name="Path 6072" d="M463.215,410.561H400.391a7.993,7.993,0,0,1-8.1-9.2l15.7-130.55a10.674,10.674,0,0,1,10.31-9.2h62.824a7.993,7.993,0,0,1,8.1,9.2l-15.7,130.55A10.674,10.674,0,0,1,463.215,410.561Z" transform="translate(-391.821 -260.966)" fill="#eaeae9"/>
        <path id="Path_6073" data-name="Path 6073" d="M472.532,410.561H400.391a7.993,7.993,0,0,1-8.1-9.2l15.7-130.55a10.674,10.674,0,0,1,10.31-9.2h72.141a7.993,7.993,0,0,1,8.1,9.2l-15.7,130.55A10.674,10.674,0,0,1,472.532,410.561Z" transform="translate(-391.821 -260.966)" fill="#efefef"/>
        <path id="Path_6074" data-name="Path 6074" d="M491.98,305.377h-69a2.414,2.414,0,0,0-2.332,2.081L406.518,424.952a1.808,1.808,0,0,0,1.831,2.081h69a2.414,2.414,0,0,0,2.332-2.081l14.129-117.493A1.808,1.808,0,0,0,491.98,305.377Z" transform="translate(-401.399 -290.334)" fill="#efefef"/>
        <path id="Path_6075" data-name="Path 6075" d="M554.331,282.564H540.7c-1.114,0-.921-1.6.192-1.6h13.633C555.618,280.966,555.426,282.564,554.331,282.564Z" transform="translate(-490.932 -273.956)" fill="#f4f4f4"/>
        <path id="Path_6076" data-name="Path 6076" d="M506.31,691.012H492.677c-1.114,0-.921-1.6.192-1.6H506.5C507.6,689.415,507.405,691.012,506.31,691.012Z" transform="translate(-458.714 -547.991)" fill="#f4f4f4"/>
        <path id="Path_6077" data-name="Path 6077" d="M654.671,288.873l-1.816,16.336-1.881,16.329-3.864,32.645L643.1,386.81l-2.054,16.308-2.119,16.3a.325.325,0,0,1-.645-.077L640.091,403l1.871-16.33,3.842-32.648,3.986-32.63,2.044-16.309,2.108-16.3a.367.367,0,0,1,.729.088Z" transform="translate(-556.903 -278.987)" fill="#3c4958"/>
        <path id="Path_6078" data-name="Path 6078" d="M540.033,281.834a1.054,1.054,0,0,1-.75-.245,1,1,0,0,1-.322-.763,1.248,1.248,0,0,1,.933-1.193,1.58,1.58,0,0,1,.377-.05l.294-.012.588-.015,1.175-.031c1.567-.048,3.134-.051,4.7-.056s3.135.015,4.7.058l1.175.035.588.017.294.009.075,0,.1.007a1.2,1.2,0,0,1,.2.036.989.989,0,0,1,.662.567,1.137,1.137,0,0,1,.017.8,1.156,1.156,0,0,1-1.18.8.244.244,0,0,1-.006-.487h.006a.635.635,0,0,0,.589-.489.491.491,0,0,0-.038-.344.283.283,0,0,0-.223-.14.49.49,0,0,0-.086-.009l-.119,0-.294.009-.588.017-1.175.035c-1.567.043-3.135.054-4.7.058s-3.134-.007-4.7-.056l-1.175-.031-.588-.015-.294-.012a.793.793,0,0,0-.206.008.553.553,0,0,0-.452.5c-.015.247.106.414.419.437h.011a.275.275,0,0,1-.011.55Z" transform="translate(-490.267 -272.951)" fill="#525c7c"/>
        <path id="Path_6079" data-name="Path 6079" d="M505.318,690.283c-2.7.053-5.407.117-8.11.151-1.352.021-2.7.042-4.055.046l-1.014.006-.253,0h-.127c-.04,0-.081,0-.15,0a1.23,1.23,0,0,1-.76-.284,1.145,1.145,0,0,1-.389-.759,1.39,1.39,0,0,1,.672-1.329,1.458,1.458,0,0,1,.728-.2c2.713.021,5.409.021,8.115.062l4.055.069,1.014.027.52.016a1.055,1.055,0,0,1,.657.257.959.959,0,0,1,.309.646,1.181,1.181,0,0,1-.137.646,1.158,1.158,0,0,1-.457.465,1.2,1.2,0,0,1-.617.146Zm0-.519a.636.636,0,0,0,.575-.376.487.487,0,0,0-.076-.577.437.437,0,0,0-.278-.079l-.494.012-1.014.027-4.055.069c-2.7.041-5.411.04-8.1.063a.421.421,0,0,0-.4.222c-.081.147-.045.317.007.344a.27.27,0,0,0,.174.055l.484,0,1.014.006c1.352,0,2.7.025,4.055.046,2.7.034,5.407.1,8.11.151Z" transform="translate(-457.722 -546.986)" fill="#3c4958"/>
        <path id="Path_6080" data-name="Path 6080" d="M394.475,378.112l-1.71,14.438-.855,7.219c-.042.306-.056.591-.076.88-.006.144-.028.289-.022.433l.015.433c.009.144,0,.29.022.432l.06.428a5.553,5.553,0,0,0,.172.845,7.53,7.53,0,0,0,1.58,3.024,7.323,7.323,0,0,0,2.774,1.976,8.631,8.631,0,0,0,3.387.605l7.269-.013,14.538-.027,29.077-.048,14.538-.014,3.635,0,1.817,0h.909c.3-.006.573-.028.861-.04a9.983,9.983,0,0,0,6.094-2.905,10.275,10.275,0,0,0,2-2.787l.188-.387c.055-.132.1-.268.153-.4l.152-.4c.049-.135.078-.275.117-.412a6.025,6.025,0,0,0,.194-.834c.046-.283.1-.555.132-.864l.861-7.218,1.722-14.436,3.444-28.872,6.889-57.744,1.744-14.434.872-7.217c.044-.309.057-.584.077-.866.006-.141.028-.281.022-.422l-.014-.421c-.008-.14,0-.282-.02-.42l-.057-.416a5.322,5.322,0,0,0-.165-.821,7.307,7.307,0,0,0-1.524-2.937,7.1,7.1,0,0,0-2.688-1.925,7.477,7.477,0,0,0-1.608-.464,9.792,9.792,0,0,0-1.7-.134l-7.269,0-14.539-.008-29.077-.017-14.539-.011-3.635-.006-1.817,0-.909,0c-.3.005-.571.026-.858.037a9.95,9.95,0,0,0-6.079,2.88,10.257,10.257,0,0,0-2,2.776l-.189.386c-.055.132-.1.267-.154.4l-.152.4c-.049.134-.078.274-.118.411a6,6,0,0,0-.2.833c-.047.283-.1.554-.134.863l-.879,7.216-1.758,14.432-3.518,28.863-7.1,57.719Zm-.687-.083,6.787-57.757L404,291.4l1.714-14.437.857-7.219c.028-.294.09-.618.142-.933a6.968,6.968,0,0,1,.216-.935c.044-.154.078-.311.132-.461l.168-.449c.057-.149.11-.3.172-.448l.208-.431a11.409,11.409,0,0,1,2.218-3.093,11.107,11.107,0,0,1,6.788-3.231c.319-.015.648-.039.958-.044h.909l1.817,0,3.635-.006,14.539-.01,29.077-.017,14.539-.008,7.269,0c.293-.008.634.021.953.034a7.387,7.387,0,0,1,.966.117,8.76,8.76,0,0,1,1.875.54,8.383,8.383,0,0,1,3.168,2.266,8.588,8.588,0,0,1,1.8,3.452,6.5,6.5,0,0,1,.194.958l.066.484c.022.162.016.324.025.487l.015.487c.006.162-.017.323-.024.485-.022.323-.042.653-.083.944l-.864,7.218-1.727,14.435-7,57.731-3.5,28.866L483.477,392.6l-.875,7.216c-.029.294-.091.618-.144.932a6.933,6.933,0,0,1-.218.934c-.045.153-.079.31-.133.461l-.169.448c-.058.149-.111.3-.173.447l-.209.43a11.377,11.377,0,0,1-2.222,3.083,11.072,11.072,0,0,1-6.774,3.205c-.317.014-.645.037-.954.042H470.7l-1.817,0-3.635,0-14.538-.014-29.077-.048-14.538-.027-7.269-.013a9.507,9.507,0,0,1-3.713-.684,8.168,8.168,0,0,1-3.083-2.215,8.369,8.369,0,0,1-1.745-3.366,6.349,6.349,0,0,1-.187-.934l-.063-.472c-.021-.157-.015-.316-.023-.475l-.014-.475c-.005-.159.017-.316.025-.474.022-.315.042-.635.084-.929l.881-7.216,1.762-14.431Z" transform="translate(-390.993 -259.665)" fill="#3c4958"/>
      </g>
      <path id="Path_6081" data-name="Path 6081" d="M491.98,305.377h-69a2.414,2.414,0,0,0-2.332,2.081L406.518,424.952a1.808,1.808,0,0,0,1.831,2.081h69a2.414,2.414,0,0,0,2.332-2.081l14.129-117.493A1.808,1.808,0,0,0,491.98,305.377Z" transform="translate(-401.399 -290.334)" fill="#fff"/>
      <path id="Path_6082" data-name="Path 6082" d="M411.789,378.024l-2.663,23.358-1.332,11.679-.666,5.84-.333,2.92-.083.73a2.549,2.549,0,0,0,0,.6,1.375,1.375,0,0,0,.5.91,1.158,1.158,0,0,0,.463.211,1.541,1.541,0,0,0,.267.031c.089.006.235,0,.35,0l1.469,0,2.939,0,5.877-.01,11.754-.019,23.509-.038,11.755-.019,5.877-.007h5.143a1.723,1.723,0,0,0,.533-.078,1.837,1.837,0,0,0,.878-.623,1.673,1.673,0,0,0,.26-.472,2.316,2.316,0,0,0,.113-.58l.349-2.918.7-5.836,1.4-11.671,5.591-46.684,5.649-46.677.353-2.917a1.272,1.272,0,0,0-.233-.936,1.185,1.185,0,0,0-.825-.45l-5.813-.012-11.755-.009-23.509-.043-23.509-.048-2.938-.006-.735,0h-.551l-.144.006a1.836,1.836,0,0,0-1.045.442,1.889,1.889,0,0,0-.615.965.96.96,0,0,0-.03.139c-.008.043-.017.094-.024.16l-.045.365-.09.729-.362,2.916-1.459,11.664-5.841,46.654a.325.325,0,0,1-.645-.079l5.579-46.685,1.4-11.671.352-2.917.088-.729.044-.365c.006-.056.016-.127.03-.2a1.777,1.777,0,0,1,.045-.22,2.887,2.887,0,0,1,.928-1.481,2.839,2.839,0,0,1,1.616-.686l.222-.01h1.286l2.938-.006,23.509-.048,23.509-.042,11.755-.009,2.938,0h2.763l.239.013a2.428,2.428,0,0,1,1.679.925,2.515,2.515,0,0,1,.482,1.837l-.349,2.918L487.745,355.5l-5.636,46.678-1.409,11.67-.7,5.835-.352,2.917a3.574,3.574,0,0,1-.18.855,2.913,2.913,0,0,1-.446.809,3.076,3.076,0,0,1-1.485,1.047,3,3,0,0,1-.913.137h-5.143l-5.877-.006-11.755-.019-23.509-.038-11.754-.019-5.877-.01-2.939,0-1.469,0c-.13,0-.228,0-.384,0a2.6,2.6,0,0,1-.461-.057,2.2,2.2,0,0,1-.862-.4,2.4,2.4,0,0,1-.893-1.591,3.563,3.563,0,0,1,0-.866l.088-.729.352-2.917.7-5.835,1.407-11.67,2.815-23.339a.367.367,0,0,1,.729.086Z" transform="translate(-400.839 -288.819)" fill="#3c4958"/>
    </g>
    <path id="Path_6083" data-name="Path 6083" d="M367.554,655.629c1.628-.19,3.256-.286,4.884-.349.814-.041,1.628-.047,2.442-.07l2.442-.017,2.442.034c.814.028,1.628.04,2.442.086,1.628.074,3.256.181,4.884.38a.491.491,0,0,1,0,.975c-1.628.2-3.256.306-4.884.38-.814.046-1.628.058-2.442.086l-2.442.034-2.442-.017c-.814-.023-1.628-.029-2.442-.07-1.628-.063-3.256-.16-4.884-.349a.554.554,0,0,1,0-1.1Z" transform="translate(-76.857 -304.872)" fill="#fff"/>
    <path id="Path_6084" data-name="Path 6084" d="M378.111,665c1.2-.126,2.4-.191,3.593-.233s2.4-.056,3.593-.058,2.395.026,3.592.08,2.4.12,3.593.253a.327.327,0,0,1,0,.65c-1.2.133-2.4.2-3.593.253s-2.4.07-3.592.08-2.4-.012-3.593-.058-2.4-.107-3.593-.233a.369.369,0,0,1,0-.734Z" transform="translate(-84.047 -311.259)" fill="#efefef"/>
    <path id="Path_6085" data-name="Path 6085" d="M384.277,652.223c1.2-.126,2.392-.191,3.588-.233s2.392-.056,3.588-.058,2.392.026,3.588.08,2.392.121,3.588.253a.327.327,0,0,1,0,.65c-1.2.133-2.392.2-3.588.253s-2.392.07-3.588.08-2.392-.012-3.588-.058-2.392-.106-3.588-.233a.369.369,0,0,1,0-.734Z" transform="translate(-88.184 -302.684)" fill="#3c4958"/>
    <path id="Path_6086" data-name="Path 6086" d="M367.877,660.744c1.254-.126,2.507-.191,3.761-.233s2.507-.056,3.761-.058,2.507.026,3.761.08,2.507.121,3.761.253a.327.327,0,0,1,0,.65c-1.253.133-2.507.2-3.761.253s-2.508.07-3.761.08-2.507-.012-3.761-.058-2.507-.107-3.761-.233a.369.369,0,0,1,0-.734Z" transform="translate(-77.18 -308.401)" fill="#3c4958"/>
    <g id="Group_3259" data-name="Group 3259" transform="translate(252.508 200.781)">
      <g id="Group_3258" data-name="Group 3258" transform="translate(0)" clip-path="url(#clip-path)">
        <path id="Path_6087" data-name="Path 6087" d="M628.243,808.068" transform="translate(-504.594 -608.219)" fill="none" stroke="#3c4958" stroke-linecap="round" stroke-linejoin="round" stroke-width="4"/>
      </g>
    </g>
    <path id="Path_6113" data-name="Path 6113" d="M613.6,580.4c2.318-.189,4.636-.286,6.955-.349,1.159-.041,2.318-.047,3.477-.07l3.477-.017,3.477.034c1.159.028,2.318.04,3.477.086,2.318.074,4.636.181,6.955.38a.489.489,0,0,1,0,.974c-2.318.2-4.636.306-6.955.38-1.159.046-2.318.058-3.477.086l-3.477.034-3.477-.017c-1.159-.023-2.318-.029-3.477-.07-2.318-.063-4.636-.16-6.955-.349a.553.553,0,0,1,0-1.1Z" transform="translate(-241.919 -254.397)" fill="#fff"/>
    <path id="Path_6114" data-name="Path 6114" d="M622.259,589.391c1.2-.126,2.4-.19,3.593-.233s2.4-.056,3.593-.058,2.4.027,3.593.08,2.395.12,3.592.253a.327.327,0,0,1,0,.65c-1.2.133-2.395.2-3.592.253s-2.4.07-3.593.08-2.4-.012-3.593-.058-2.4-.107-3.593-.233a.369.369,0,0,1,0-.734Z" transform="translate(-247.849 -260.529)" fill="#efefef"/>
    <path id="Path_6115" data-name="Path 6115" d="M684.518,358.658c1.2-.126,2.4-.191,3.593-.233s2.4-.056,3.593-.058,2.4.026,3.593.08,2.395.121,3.592.253a.327.327,0,0,1,0,.65c-1.2.133-2.395.2-3.592.253s-2.4.07-3.593.08-2.4-.012-3.593-.058-2.4-.107-3.593-.233a.369.369,0,0,1,0-.734Z" transform="translate(-289.62 -105.727)" fill="#efefef"/>
    <path id="Path_6116" data-name="Path 6116" d="M630.334,576.991q2.31-.176,4.619-.233c1.54-.046,3.08-.056,4.62-.058,3.08.017,6.16.08,9.239.333a.326.326,0,0,1,0,.65c-3.08.253-6.16.316-9.239.333-1.54,0-3.08-.012-4.62-.058s-3.08-.115-4.619-.233a.368.368,0,0,1,0-.734Z" transform="translate(-253.26 -252.21)" fill="#3c4958"/>
    <path id="Path_6117" data-name="Path 6117" d="M594.4,585.513q2.684-.177,5.368-.233c1.789-.046,3.579-.056,5.368-.058,3.578.017,7.157.08,10.736.333a.326.326,0,0,1,0,.65c-3.579.253-7.157.316-10.736.333-1.789,0-3.579-.012-5.368-.058s-3.578-.115-5.368-.233a.368.368,0,0,1,0-.734Z" transform="translate(-229.15 -257.927)" fill="#3c4958"/>
    <path id="Path_6118" data-name="Path 6118" d="M677.445,350.384c-2.744.189-5.487.286-8.231.349-1.372.041-2.744.047-4.116.07l-4.116.017-4.116-.034c-1.372-.028-2.744-.04-4.116-.086-2.744-.074-5.487-.181-8.231-.38a.489.489,0,0,1,0-.975c2.744-.2,5.488-.306,8.231-.38,1.372-.046,2.744-.058,4.116-.086l4.116-.034,4.116.017c1.372.023,2.744.029,4.116.07,2.744.063,5.487.16,8.231.349a.552.552,0,0,1,0,1.1Z" transform="translate(-262.702 -99.339)" fill="#fff"/>
    <path id="Path_6119" data-name="Path 6119" d="M681.517,346.61q-2.879.177-5.759.233c-1.92.046-3.839.056-5.759.058-3.839-.017-7.678-.08-11.517-.333a.326.326,0,0,1,0-.65c3.839-.253,7.678-.316,11.517-.333,1.92,0,3.839.012,5.759.058s3.839.115,5.759.233a.368.368,0,0,1,0,.734Z" transform="translate(-272.17 -97.151)" fill="#3c4958"/>
    <path id="Path_6120" data-name="Path 6120" d="M714.227,355.131c-1.254.126-2.507.191-3.761.233s-2.507.056-3.761.058-2.508-.026-3.761-.08-2.507-.12-3.761-.253a.327.327,0,0,1,0-.65c1.254-.133,2.507-.2,3.761-.253s2.507-.07,3.761-.08,2.507.012,3.761.058,2.508.107,3.761.233a.369.369,0,0,1,0,.734Z" transform="translate(-299.484 -102.868)" fill="#3c4958"/>
    <path id="Path_6121" data-name="Path 6121" d="M667.119,614.32c-1.012.126-2.024.191-3.036.233s-2.024.056-3.036.058-2.024-.027-3.036-.08-2.024-.12-3.036-.253a.328.328,0,0,1,0-.65c1.012-.133,2.024-.2,3.036-.253s2.024-.07,3.036-.08,2.024.012,3.036.058,2.024.107,3.036.233a.37.37,0,0,1,0,.734Z" transform="translate(-269.83 -276.762)" fill="#efefef"/>
    <path id="Path_6122" data-name="Path 6122" d="M637.183,605.693c-2.582.19-5.164.286-7.746.349-1.291.041-2.582.047-3.873.07l-3.873.017-3.873-.034c-1.291-.028-2.582-.04-3.873-.086-2.582-.074-5.164-.181-7.746-.38a.489.489,0,0,1,0-.975c2.582-.2,5.164-.306,7.746-.38,1.291-.046,2.582-.058,3.873-.086l3.873-.034,3.873.017c1.291.023,2.582.029,3.873.07,2.582.063,5.164.16,7.746.349a.552.552,0,0,1,0,1.1Z" transform="translate(-236.993 -270.63)" fill="#fff"/>
    <path id="Path_6123" data-name="Path 6123" d="M646.294,601.92q-2.328.176-4.656.233c-1.552.046-3.1.056-4.656.058-3.1-.017-6.208-.081-9.312-.333a.326.326,0,0,1,0-.65c3.1-.253,6.208-.316,9.312-.333,1.552,0,3.1.012,4.656.058s3.1.115,4.656.233a.368.368,0,0,1,0,.734Z" transform="translate(-251.5 -268.442)" fill="#3c4958"/>
    <path id="Path_6124" data-name="Path 6124" d="M670,610.441c-1.254.126-2.508.191-3.761.233s-2.507.056-3.761.058-2.507-.027-3.761-.08-2.507-.12-3.761-.253a.327.327,0,0,1,0-.65c1.254-.133,2.507-.2,3.761-.253s2.507-.07,3.761-.08,2.507.012,3.761.058,2.507.107,3.761.233a.369.369,0,0,1,0,.734Z" transform="translate(-269.815 -274.159)" fill="#3c4958"/>
    <g id="Group_3260" data-name="Group 3260" transform="translate(269.814 282.755)">
      <path id="Path_6125" data-name="Path 6125" d="M366.467,463.3c-1.012.126-2.024.191-3.036.233s-2.024.056-3.036.058-2.024-.026-3.036-.08-2.024-.12-3.036-.253a.328.328,0,0,1,0-.65c1.012-.133,2.024-.2,3.036-.253s2.024-.07,3.036-.08,2.024.012,3.036.058,2.024.107,3.036.233a.37.37,0,0,1,0,.734Z" transform="translate(-337.932 -458.198)" fill="#fff"/>
      <path id="Path_6126" data-name="Path 6126" d="M336.531,454.678c-2.582.189-5.164.286-7.746.349-1.291.041-2.582.047-3.873.07l-3.873.017-3.873-.034c-1.291-.028-2.582-.04-3.873-.086-2.582-.074-5.164-.181-7.746-.38a.489.489,0,0,1,0-.974c2.582-.2,5.164-.306,7.746-.38,1.291-.046,2.582-.058,3.873-.086l3.873-.034,3.873.017c1.291.023,2.582.029,3.873.07,2.582.063,5.164.16,7.746.349a.552.552,0,0,1,0,1.1Z" transform="translate(-305.096 -452.067)" fill="#fff"/>
      <path id="Path_6127" data-name="Path 6127" d="M356.02,450.9c-1.129.126-2.257.191-3.386.233s-2.258.056-3.386.058-2.258-.026-3.386-.08-2.257-.12-3.386-.253a.327.327,0,0,1,0-.65c1.129-.133,2.257-.2,3.386-.253s2.258-.07,3.386-.08,2.258.012,3.386.058,2.257.107,3.386.233a.369.369,0,0,1,0,.734Z" transform="translate(-329.981 -449.879)" fill="#3c4958"/>
      <path id="Path_6128" data-name="Path 6128" d="M369.353,459.426c-1.254.126-2.508.191-3.761.233s-2.507.056-3.761.058-2.507-.027-3.761-.08-2.507-.12-3.761-.253a.327.327,0,0,1,0-.65c1.254-.133,2.508-.2,3.761-.253s2.507-.07,3.761-.08,2.507.012,3.761.058,2.507.107,3.761.233a.369.369,0,0,1,0,.734Z" transform="translate(-337.917 -455.597)" fill="#3c4958"/>
    </g>
    <path id="Path_6132" data-name="Path 6132" d="M639.636,270.8l-15.7,130.551a10.674,10.674,0,0,1-10.31,9.2h-11.1a10.671,10.671,0,0,0,10.31-9.2l15.7-130.551a8,8,0,0,0-8.1-9.2h11.1A7.993,7.993,0,0,1,639.636,270.8Z" transform="translate(-234.836 -40.804)" fill="#f4f4f4" style="mix-blend-mode: multiply;isolation: isolate"/>
    <g id="Group_3261" data-name="Group 3261" transform="translate(8 -35)">
      <path id="Path_6130" data-name="Path 6130" d="M456.948,559.594l30.52-.2,1.907-.01.475,0,.412-.03a3.726,3.726,0,0,0,.8-.193,3.829,3.829,0,0,0,2.272-2.244,3.188,3.188,0,0,0,.164-1.577,2.176,2.176,0,0,0-.088-.384,1.836,1.836,0,0,0-.138-.37l-.079-.184-.109-.212-.219-.424-1.749-3.39-7-13.562-3.469-6.8-.867-1.7-.434-.85-.217-.424a4.465,4.465,0,0,0-.214-.4,2.954,2.954,0,0,0-2.617-1.488,3.75,3.75,0,0,0-2.869,1.329l-.253.326-.268.395-.535.789L471.3,529.58l-4.3,6.3-8.618,12.593-2.168,3.139-1.084,1.569-.542.785-.271.393-.223.371a3.571,3.571,0,0,0-.435,1.641,3.226,3.226,0,0,0,.418,1.635,3.14,3.14,0,0,0,1.2,1.191,3.568,3.568,0,0,0,1.666.435Zm0,.692a4.244,4.244,0,0,1-2-.48,3.851,3.851,0,0,1-1.5-1.429,3.975,3.975,0,0,1-.557-2,4.36,4.36,0,0,1,.489-2.018l.26-.451.263-.4.526-.8,1.051-1.592,2.1-3.183,8.465-12.7L470.3,528.9l1.064-1.583.532-.792.266-.4.329-.43a4.992,4.992,0,0,1,3.825-1.786,4.424,4.424,0,0,1,2.128.544,4.069,4.069,0,0,1,1.577,1.568c.107.169.165.3.241.442l.219.424.437.848.875,1.7,3.5,6.78,6.94,13.591,1.735,3.4.217.425.109.212.11.254a2.935,2.935,0,0,1,.188.524,3.356,3.356,0,0,1,.117.545,4.4,4.4,0,0,1-.245,2.175,5.007,5.007,0,0,1-3.011,2.922,4.88,4.88,0,0,1-1.053.242l-.54.033h-.479l-1.907-.01-30.52-.2Z" transform="translate(-134.443 -216.794)" fill="#3c4958"/>
      <path id="Path_6129" data-name="Path 6129" d="M457.714,561.23H490.6c3.063,0,5.237-3.24,3.91-5.827l-14.2-27.666c-1.323-2.576-5.133-2.576-6.874,0L454.75,555.4A3.633,3.633,0,0,0,457.714,561.23Z" transform="translate(-135.209 -218.063)" fill="#fdc54f"/>
      <path id="Path_6131" data-name="Path 6131" d="M515.294,569.736c-1.155,0-.6-12.5-.2-12.816s2.563-.554,2.965,0S516.449,569.736,515.294,569.736Z" transform="translate(-175.843 -238.717)" fill="#3c4958"/>
      <ellipse id="Ellipse_461" data-name="Ellipse 461" cx="1.994" cy="1.834" rx="1.994" ry="1.834" transform="matrix(0.814, -0.581, 0.581, 0.814, 336.398, 335.084)" fill="#3c4958"/>
      <path id="Path_6133" data-name="Path 6133" d="M456.948,559.594l30.52-.2,1.907-.01.475,0,.412-.03a3.726,3.726,0,0,0,.8-.193,3.829,3.829,0,0,0,2.272-2.244,3.188,3.188,0,0,0,.164-1.577,2.176,2.176,0,0,0-.088-.384,1.836,1.836,0,0,0-.138-.37l-.079-.184-.109-.212-.219-.424-1.749-3.39-7-13.562-3.469-6.8-.867-1.7-.434-.85-.217-.424a4.465,4.465,0,0,0-.214-.4,2.954,2.954,0,0,0-2.617-1.488,3.75,3.75,0,0,0-2.869,1.329l-.253.326-.268.395-.535.789L471.3,529.58l-4.3,6.3-8.618,12.593-2.168,3.139-1.084,1.569-.542.785-.271.393-.223.371a3.571,3.571,0,0,0-.435,1.641,3.226,3.226,0,0,0,.418,1.635,3.14,3.14,0,0,0,1.2,1.191,3.568,3.568,0,0,0,1.666.435Zm0,.692a4.244,4.244,0,0,1-2-.48,3.851,3.851,0,0,1-1.5-1.429,3.975,3.975,0,0,1-.557-2,4.36,4.36,0,0,1,.489-2.018l.26-.451.263-.4.526-.8,1.051-1.592,2.1-3.183,8.465-12.7L470.3,528.9l1.064-1.583.532-.792.266-.4.329-.43a4.992,4.992,0,0,1,3.825-1.786,4.424,4.424,0,0,1,2.128.544,4.069,4.069,0,0,1,1.577,1.568c.107.169.165.3.241.442l.219.424.437.848.875,1.7,3.5,6.78,6.94,13.591,1.735,3.4.217.425.109.212.11.254a2.935,2.935,0,0,1,.188.524,3.356,3.356,0,0,1,.117.545,4.4,4.4,0,0,1-.245,2.175,5.007,5.007,0,0,1-3.011,2.922,4.88,4.88,0,0,1-1.053.242l-.54.033h-.479l-1.907-.01-30.52-.2Z" transform="translate(-134.443 -216.794)" fill="#3c4958"/>
    </g>
  </g>
</svg>
