<svg xmlns="http://www.w3.org/2000/svg" xmlns:xlink="http://www.w3.org/1999/xlink" width="151.708" height="126.847" viewBox="0 0 151.708 126.847">
  <defs>
    <clipPath id="clip-path">
      <path id="Path_5642" data-name="Path 5642" d="M1189.592,757.689c2.362-2.43,25.025-1.3,26.885,1.334s6.376,35.277,6.376,35.277l-39.637,1.011S1187.229,760.118,1189.592,757.689Z" transform="translate(-1183.216 -756.349)" fill="none"/>
    </clipPath>
  </defs>
  <g id="art" transform="translate(-1080.097 -463.145)">
    <g id="Group_3174" data-name="Group 3174" transform="translate(1085.845 585.911)">
      <path id="Path_5573" data-name="Path 5573" d="M1247.345,930.076c0,2.04-33.953,2.04-75.837,2.04-52.845,0-69.647,0-69.647-2.04s16.8-2.04,69.647-2.04C1213.392,928.036,1247.345,928.036,1247.345,930.076Z" transform="translate(-1101.861 -928.036)" fill="#eaeae9" opacity="0.6" style="mix-blend-mode: multiply;isolation: isolate"/>
    </g>
    <g id="Group_3176" data-name="Group 3176" transform="translate(1141.554 500.644)">
      <g id="Group_3175" data-name="Group 3175" transform="translate(0 0)">
        <path id="Path_5574" data-name="Path 5574" d="M1344.11,607.659l-9.392,27.036h-20.225a.5.5,0,0,0-.5.5v2.482a.681.681,0,0,0,.681.68h58.509a1.449,1.449,0,0,0,1.383-1.016l9.163-29.3a.693.693,0,0,0-.662-.9h-38.234A.763.763,0,0,0,1344.11,607.659Z" transform="translate(-1313.682 -606.618)" fill="#5b5b99"/>
        <path id="Path_5575" data-name="Path 5575" d="M1437.97,638.94h-28.376a.875.875,0,0,1-.829-1.154l6.871-20.427a.875.875,0,0,1,.829-.6h28.2a.875.875,0,0,1,.831,1.147l-6.694,20.427A.875.875,0,0,1,1437.97,638.94Z" transform="translate(-1383.394 -613.696)" fill="#fff"/>
        <path id="Path_5576" data-name="Path 5576" d="M1462.867,608.048l-9.163,29.3a1.448,1.448,0,0,1-1.382,1.017h-30.791V634.7h29.01l8.617-27.549h3.048A.693.693,0,0,1,1462.867,608.048Z" transform="translate(-1392.823 -606.62)" fill="#f4f4f4" style="mix-blend-mode: multiply;isolation: isolate"/>
        <path id="Path_5577" data-name="Path 5577" d="M1540.48,611.5c-.285,1.049-.592,2.09-.888,3.136l-.926,3.124c-.621,2.081-1.273,4.153-1.909,6.23-.665,2.068-1.313,4.141-1.993,6.2l-1.025,3.093c-.355,1.027-.7,2.058-1.063,3.081a.2.2,0,0,1-.373-.116c.283-1.049.589-2.092.882-3.138l.919-3.126c.617-2.083,1.266-4.155,1.9-6.234.66-2.069,1.305-4.143,1.98-6.207l1.019-3.095c.353-1.027.693-2.059,1.057-3.083a.221.221,0,0,1,.422.132Z" transform="translate(-1474.338 -609.616)" fill="#3b3b56"/>
        <path id="Path_5578" data-name="Path 5578" d="M1430.775,607.146" transform="translate(-1399.626 -606.618)" fill="none" stroke="#3b3b56" stroke-linecap="round" stroke-linejoin="round" stroke-width="4"/>
        <path id="Path_5579" data-name="Path 5579" d="M1432.976,635.784l3.543-11.725,3.593-11.71,1.807-5.851c.007-.025.024-.075.023-.078s.007-.018.005-.027a.145.145,0,0,0,0-.051.177.177,0,0,0-.043-.1.174.174,0,0,0-.085-.058.15.15,0,0,0-.052-.009.652.652,0,0,0-.071,0h-.1l-1.531,0-3.063,0-12.25.018-12.25-.027-6.125-.013-1.531,0-.766,0h-.564a.4.4,0,0,0-.076.011.29.29,0,0,0-.126.06.254.254,0,0,0-.068.118l-.256.722-.511,1.444-4.092,11.553-4.14,11.534a.261.261,0,0,1-.492-.171l3.9-11.606,3.947-11.587.494-1.448.247-.724a1.22,1.22,0,0,1,.322-.53,1.247,1.247,0,0,1,.543-.294,1.309,1.309,0,0,1,.3-.042h.584l.766,0,1.531,0,6.123-.013,12.247-.027,12.246.018,3.061,0,1.531,0h.1c.033,0,.057,0,.12,0a1.154,1.154,0,0,1,.323.061,1.2,1.2,0,0,1,.8.965,1.2,1.2,0,0,1-.034.49c-.015.059-.021.069-.032.106l-1.849,5.838-3.719,11.67-3.769,11.654a.295.295,0,0,1-.562-.176Z" transform="translate(-1372.376 -605.147)" fill="#3b3b56"/>
        <path id="Path_5580" data-name="Path 5580" d="M1370.517,710.291c-2.507.055-5.013.078-7.52.118l-7.519.065c-5.013.038-10.026.032-15.039.049-5.013-.024-10.026-.023-15.039-.067l-7.519-.074-3.76-.058-.47-.007a.188.188,0,0,0-.166.064.2.2,0,0,0-.041.077.284.284,0,0,0-.006.054l0,.118-.008.47-.039,1.88a.261.261,0,0,1-.521,0l-.039-1.88-.007-.47,0-.118a.893.893,0,0,1,.015-.18.819.819,0,0,1,.815-.658l.47-.007,3.76-.058,7.519-.074c5.013-.044,10.026-.043,15.039-.067,5.013.017,10.026.012,15.039.049l7.519.066c2.507.04,5.013.063,7.52.119a.295.295,0,0,1,0,.589Z" transform="translate(-1312.821 -681.919)" fill="#3b3b56"/>
        <path id="Path_5581" data-name="Path 5581" d="M1420.945,715.418a5.688,5.688,0,0,1,.117,1.267,5.754,5.754,0,0,1-.134,1.267.134.134,0,0,1-.261,0,5.762,5.762,0,0,1-.134-1.267,5.7,5.7,0,0,1,.117-1.267.151.151,0,0,1,.295,0Z" transform="translate(-1392.09 -686.212)" fill="#3b3b56"/>
      </g>
      <path id="Path_5582" data-name="Path 5582" d="M1437.03,638.09l-26.279.109-1.643,0h-.411a1.284,1.284,0,0,1-.536-.1,1.218,1.218,0,0,1-.693-.85,1.2,1.2,0,0,1,.012-.565c.026-.1.046-.146.068-.217l.065-.195.26-.779.52-1.558,2.079-6.232,2.079-6.232,1.039-3.116.52-1.558.13-.39.065-.195.016-.049.026-.069a1.252,1.252,0,0,1,.063-.135,1.271,1.271,0,0,1,.946-.652l26.331.038,1.643.007.417,0a1.2,1.2,0,0,1,.546.142,1.209,1.209,0,0,1,.574,1.452l-.129.39-.259.779-.518,1.559-2.073,6.234-2.091,6.229-1.045,3.114-.523,1.557-.131.389a1.378,1.378,0,0,1-.2.428,1.076,1.076,0,0,1-.869.435Zm0-.417a.679.679,0,0,0,.544-.281.987.987,0,0,0,.136-.317l.125-.391.5-1.564,1-3.129,2-6.258,2.019-6.252.505-1.563.252-.781.127-.391a.563.563,0,0,0,.022-.255.549.549,0,0,0-.284-.4.526.526,0,0,0-.242-.06h-.4l-1.643.007-26.227.055a.483.483,0,0,0-.358.245.434.434,0,0,0-.024.051l-.01.027-.016.049-.066.194-.132.389-.527,1.555-1.055,3.111-2.11,6.222-2.11,6.222-.527,1.555-.264.778-.066.194c-.02.059-.051.144-.056.174a.524.524,0,0,0-.007.247.542.542,0,0,0,.3.378.593.593,0,0,0,.262.048h.411l1.643,0,26.279.109Z" transform="translate(-1382.454 -612.625)" fill="#3b3b56"/>
      <path id="Path_5583" data-name="Path 5583" d="M1441.881,629.6h-4.9a.151.151,0,0,1-.143-.2l1.187-3.528a.151.151,0,0,1,.143-.1h4.87a.151.151,0,0,1,.144.2l-1.156,3.528A.151.151,0,0,1,1441.881,629.6Z" transform="translate(-1404.081 -620.323)" fill="#37e1ca"/>
      <path id="Path_5584" data-name="Path 5584" d="M1436.194,647.329h-4.9a.151.151,0,0,1-.143-.2l1.187-3.528a.151.151,0,0,1,.143-.1h4.871a.151.151,0,0,1,.143.2l-1.156,3.528A.151.151,0,0,1,1436.194,647.329Z" transform="translate(-1399.896 -633.371)" fill="#37e1ca"/>
      <path id="Path_5585" data-name="Path 5585" d="M1430.593,665.237h-4.9a.151.151,0,0,1-.143-.2l1.187-3.528a.151.151,0,0,1,.143-.1h4.871a.151.151,0,0,1,.143.2l-1.156,3.528A.151.151,0,0,1,1430.593,665.237Z" transform="translate(-1395.774 -646.55)" fill="#37e1ca"/>
      <path id="Path_5586" data-name="Path 5586" d="M1424.755,683.144h-4.9a.151.151,0,0,1-.143-.2l1.187-3.528a.151.151,0,0,1,.143-.1h4.87a.151.151,0,0,1,.144.2l-1.156,3.528A.151.151,0,0,1,1424.755,683.144Z" transform="translate(-1391.478 -659.728)" fill="#37e1ca"/>
      <path id="Path_5587" data-name="Path 5587" d="M1465.3,631.444c.676-.042,1.353-.059,2.029-.089l2.029-.049c1.352-.032,2.705-.035,4.057-.037s2.705.014,4.058.05l2.029.055c.676.032,1.353.052,2.029.095a.2.2,0,0,1,0,.391c-.676.044-1.353.063-2.029.095l-2.029.056c-1.353.036-2.705.043-4.058.05s-2.705-.005-4.057-.037l-2.029-.049c-.676-.03-1.353-.047-2.029-.089a.221.221,0,0,1,0-.442Z" transform="translate(-1424.884 -624.371)" fill="#3b3b56"/>
      <path id="Path_5588" data-name="Path 5588" d="M1441.841,629.247c.105.3.206.6.306.9l-.4-.171a13.18,13.18,0,0,1,1.752-1.089,11.263,11.263,0,0,1,1.9-.816.2.2,0,0,1,.188.343,11.255,11.255,0,0,1-1.713,1.162,13.13,13.13,0,0,1-1.862.889l-.053.02a.263.263,0,0,1-.339-.155c0-.011-.008-.024-.011-.036-.067-.31-.133-.619-.2-.93a.222.222,0,0,1,.426-.117Z" transform="translate(-1407.453 -622.01)" fill="#fff"/>
      <path id="Path_5589" data-name="Path 5589" d="M1436.073,646.256c.105.3.207.6.306.9l-.4-.171a13.169,13.169,0,0,1,1.753-1.089,11.249,11.249,0,0,1,1.9-.816.2.2,0,0,1,.188.343,11.268,11.268,0,0,1-1.713,1.162,13.157,13.157,0,0,1-1.863.889l-.053.02a.263.263,0,0,1-.339-.155.317.317,0,0,1-.01-.036c-.067-.309-.133-.619-.2-.93a.222.222,0,0,1,.426-.117Z" transform="translate(-1403.208 -634.529)" fill="#fff"/>
      <path id="Path_5590" data-name="Path 5590" d="M1430.749,665.416c.105.3.206.6.306.9l-.4-.171a13.171,13.171,0,0,1,1.753-1.089,11.3,11.3,0,0,1,1.9-.816.2.2,0,0,1,.188.343,11.264,11.264,0,0,1-1.713,1.162,13.148,13.148,0,0,1-1.862.889l-.053.02a.263.263,0,0,1-.339-.154.239.239,0,0,1-.011-.036c-.067-.309-.134-.62-.2-.93a.222.222,0,0,1,.426-.117Z" transform="translate(-1399.29 -648.628)" fill="#fff"/>
      <path id="Path_5591" data-name="Path 5591" d="M1425.158,683.32c.139.29.255.586.364.884l-.49-.208c.288-.19.582-.368.879-.54s.6-.335.906-.491a13.77,13.77,0,0,1,1.9-.821.2.2,0,0,1,.188.343,13.7,13.7,0,0,1-1.715,1.157c-.3.173-.6.338-.9.5s-.614.309-.929.449l-.052.023a.315.315,0,0,1-.416-.16.332.332,0,0,1-.022-.071c-.057-.312-.108-.626-.136-.946a.225.225,0,0,1,.426-.117Z" transform="translate(-1395.178 -661.803)" fill="#fff"/>
      <path id="Path_5592" data-name="Path 5592" d="M1461.228,648.175c.676-.042,1.353-.059,2.029-.089l2.029-.049c1.353-.032,2.705-.035,4.058-.037s2.705.013,4.058.05l2.029.055c.676.032,1.353.052,2.029.1a.2.2,0,0,1,0,.391c-.676.043-1.353.063-2.029.095l-2.029.055c-1.353.036-2.705.043-4.058.05s-2.705-.005-4.058-.037l-2.029-.049c-.676-.03-1.353-.047-2.029-.089a.221.221,0,0,1,0-.442Z" transform="translate(-1421.885 -636.684)" fill="#3b3b56"/>
      <path id="Path_5593" data-name="Path 5593" d="M1453.824,666.229c.676-.041,1.353-.059,2.029-.089l2.029-.049c1.353-.032,2.705-.035,4.058-.037s2.705.014,4.058.05l2.029.056c.676.032,1.352.051,2.029.094a.2.2,0,0,1,0,.391c-.677.044-1.353.063-2.029.095L1466,666.8c-1.352.036-2.705.043-4.058.05s-2.705-.005-4.058-.037l-2.029-.049c-.676-.03-1.353-.047-2.029-.089a.221.221,0,0,1,0-.442Z" transform="translate(-1416.436 -649.97)" fill="#3b3b56"/>
      <path id="Path_5594" data-name="Path 5594" d="M1448.179,683.99c.676-.041,1.353-.059,2.029-.089l2.029-.049c1.353-.032,2.705-.035,4.058-.037s2.705.014,4.058.05l2.029.055c.676.032,1.353.051,2.029.095a.2.2,0,0,1,0,.391c-.676.043-1.353.063-2.029.095l-2.029.055c-1.353.036-2.705.043-4.058.05s-2.705-.005-4.058-.037l-2.029-.049c-.676-.03-1.353-.047-2.029-.089a.221.221,0,0,1,0-.442Z" transform="translate(-1412.282 -663.041)" fill="#3b3b56"/>
    </g>
    <g id="Group_3177" data-name="Group 3177" transform="translate(1084.961 529.961)">
      <path id="Path_5595" data-name="Path 5595" d="M1109.681,727.186a4.584,4.584,0,0,1-2.893,7.45,5.682,5.682,0,0,1-5.678-3.506,9.423,9.423,0,0,1,.112-6.99,11.117,11.117,0,0,1,9.465-7.229c2.9-.244,7.465,1.519,9.133,3.519a14.823,14.823,0,0,1,3.2,9.651l-.011,8.692h18.643a3.708,3.708,0,0,1,3.708,3.708v14.367a5.394,5.394,0,0,1-5.394,5.394h-28.341a5.394,5.394,0,0,1-5.394-5.394l-.51-22.594" transform="translate(-1099.966 -716.697)" fill="#b6b6fc"/>
      <path id="Path_5596" data-name="Path 5596" d="M1233.837,888.294h-7.1s4.9,12.372,6.967,12.372S1233.837,888.294,1233.837,888.294Z" transform="translate(-1192.875 -842.838)" fill="#eaeae9"/>
      <path id="Path_5597" data-name="Path 5597" d="M1152.732,888.294h-7.1s-2.582,12.372-.514,12.372S1152.732,888.294,1152.732,888.294Z" transform="translate(-1132.219 -842.838)" fill="#eaeae9"/>
      <path id="Path_5598" data-name="Path 5598" d="M1235.934,908.113c.612,1.147,1.238,2.294,1.885,3.412.328.556.661,1.108,1.017,1.632.179.26.364.515.555.752a3.5,3.5,0,0,0,.59.6.494.494,0,0,0,.2.1c.043,0,.01.011.048-.01a.631.631,0,0,0,.146-.215,2.286,2.286,0,0,0,.131-.375,9.28,9.28,0,0,0,.238-1.831c.056-1.274.036-2.581-.005-3.878V908.3a.261.261,0,0,1,.518-.059,21.683,21.683,0,0,1,.434,3.962,8.919,8.919,0,0,1-.184,2.068,3.318,3.318,0,0,1-.185.553,1.637,1.637,0,0,1-.415.582,1.1,1.1,0,0,1-.865.256,1.485,1.485,0,0,1-.682-.3,4.449,4.449,0,0,1-.783-.8,9.69,9.69,0,0,1-.594-.841c-.365-.569-.691-1.151-.994-1.742a32.8,32.8,0,0,1-1.593-3.632.3.3,0,0,1,.537-.241Z" transform="translate(-1199.234 -857.305)" fill="#3c4958"/>
      <path id="Path_5599" data-name="Path 5599" d="M1144.036,895.67c-.252,1.891-.479,3.795-.62,5.682a19.584,19.584,0,0,0-.038,2.792,5.264,5.264,0,0,0,.087.646,1.533,1.533,0,0,0,.172.486c.031.047.051.052.034.044s-.032,0,.011-.01a1.214,1.214,0,0,0,.406-.253,6.734,6.734,0,0,0,.893-.982c.28-.366.551-.749.814-1.14.524-.783,1.015-1.6,1.5-2.418.958-1.646,1.88-3.327,2.78-5.014l0,0a.261.261,0,0,1,.471.222c-.737,1.784-1.55,3.53-2.456,5.239-.452.855-.93,1.7-1.453,2.523-.261.413-.534.821-.836,1.218a7.679,7.679,0,0,1-1.033,1.151,2.147,2.147,0,0,1-.821.478,1.055,1.055,0,0,1-.693-.043,1.147,1.147,0,0,1-.493-.429,2.475,2.475,0,0,1-.323-.857,6.292,6.292,0,0,1-.1-.78,18.013,18.013,0,0,1,.1-2.957,43.918,43.918,0,0,1,1.017-5.71.295.295,0,0,1,.579.107Z" transform="translate(-1130.746 -848.017)" fill="#3c4958"/>
      <path id="Path_5600" data-name="Path 5600" d="M1226.735,888.294h7.1l.128,3.579-5.42-.09Z" transform="translate(-1192.875 -842.839)" fill="#f4f4f4" style="mix-blend-mode: multiply;isolation: isolate"/>
      <path id="Path_5601" data-name="Path 5601" d="M1148.465,888.294h7.1l-2.036,3.579-5.365-.09Z" transform="translate(-1135.054 -842.839)" fill="#f4f4f4" style="mix-blend-mode: multiply;isolation: isolate"/>
      <path id="Path_5602" data-name="Path 5602" d="M1109.236,731.33a4.82,4.82,0,0,1-1.321,1.952,4.991,4.991,0,0,1-2.092,1.138,4.863,4.863,0,0,1-2.406,0,5.955,5.955,0,0,1-2.151-1.04,6.717,6.717,0,0,1-1.62-1.747,7.314,7.314,0,0,1-.908-2.2,9.954,9.954,0,0,1,.115-4.644,11.414,11.414,0,0,1,1.973-4.179,10.969,10.969,0,0,1,3.511-3.005,11.849,11.849,0,0,1,4.391-1.365c.387-.041.755-.067,1.137-.072a11,11,0,0,1,1.151.029,7.682,7.682,0,0,1,2.248.523.261.261,0,0,1-.164.495h0a8.168,8.168,0,0,0-2.113-.249q-.533,0-1.07.057l-1.076.119a11.263,11.263,0,0,0-4.021,1.33,10.256,10.256,0,0,0-3.163,2.764,10.061,10.061,0,0,0-1.079,1.81,12.146,12.146,0,0,0-.7,2,10.574,10.574,0,0,0-.309,2.086,8.54,8.54,0,0,0,.174,2.073,6.3,6.3,0,0,0,.752,1.9,5.894,5.894,0,0,0,1.354,1.524,5.231,5.231,0,0,0,1.8.932,4.1,4.1,0,0,0,1.991.071,4.39,4.39,0,0,0,3.053-2.512l0,0a.295.295,0,0,1,.547.217Z" transform="translate(-1098.515 -716.162)" fill="#3c4958"/>
      <path id="Path_5603" data-name="Path 5603" d="M1101.112,755.426a5.916,5.916,0,0,0,4.616,3.528l.507,22.193a5.392,5.392,0,0,0,5.392,5.393h28.342a5.394,5.394,0,0,0,5.4-5.393V776.56a5.4,5.4,0,0,1-5.4,5.4h-28.342a5.394,5.394,0,0,1-5.392-5.4l-.433-17.6-.008-.539-.066-4.056a5.908,5.908,0,0,1-4.616-3.525,7.1,7.1,0,0,1-.335-.937A8.752,8.752,0,0,0,1101.112,755.426Z" transform="translate(-1099.967 -740.994)" fill="#eaeae9" opacity="0.6" style="mix-blend-mode: multiply;isolation: isolate"/>
      <path id="Path_5604" data-name="Path 5604" d="M1244.035,821.277a6.2,6.2,0,0,0,1.306-1.2,5.837,5.837,0,0,0,.868-1.52,5.72,5.72,0,0,0,.357-1.7l.008-.44v-.47l0-.941c.006-2.51.023-5.019.073-7.528l.084-3.764.028-.941a4.089,4.089,0,0,0,0-.43,3.254,3.254,0,0,0-.05-.409,3.34,3.34,0,0,0-.7-1.49,3.441,3.441,0,0,0-1.345-.993,3.4,3.4,0,0,0-.825-.218,7.944,7.944,0,0,0-.911-.033l-3.764-.041a.261.261,0,0,1,0-.522l3.764-.041c.314,0,.619-.014.97,0a4.089,4.089,0,0,1,1.006.191,4,4,0,0,1,1.723,1.117,4.064,4.064,0,0,1,.965,1.842,4.222,4.222,0,0,1,.083.521,4.88,4.88,0,0,1,.021.51l0,.941-.015,3.764c-.015,2.509-.064,5.019-.124,7.528l-.027.941-.014.47c-.007.162-.013.334-.025.5a6.39,6.39,0,0,1-.5,1.953,6.175,6.175,0,0,1-2.652,2.9.295.295,0,0,1-.309-.5Z" transform="translate(-1201.83 -776.828)" fill="#3c4958"/>
      <path id="Path_5605" data-name="Path 5605" d="M1119.777,791.915q.262,4.7.427,9.4c.117,3.135.205,6.27.287,9.406l.027,1.172c.012.178.009.36.032.536a5.223,5.223,0,0,0,.09.523,4.933,4.933,0,0,0,4.57,3.825l4.687.086c1.568.043,3.135.069,4.7.127a.261.261,0,0,1,0,.522c-1.568.058-3.135.084-4.7.126l-2.352.043-1.176.018-.588.008c-.2,0-.384.01-.6,0a5.825,5.825,0,0,1-4.441-2.217,5.894,5.894,0,0,1-1.11-2.3,6.348,6.348,0,0,1-.113-.634c-.029-.212-.029-.424-.043-.636l-.036-1.179c-.078-3.133-.151-6.267-.194-9.4s-.068-6.269-.054-9.405a.295.295,0,0,1,.589-.015Z" transform="translate(-1113.725 -771.706)" fill="#3c4958"/>
    </g>
    <path id="Path_5606" data-name="Path 5606" d="M1149.5,664.078s3.378,11.38,3.294,12.7-.059,20.748.286,21.253,16.122-.08,16.769-.884c.879-1.093,4.611-18.042,3-23.514-.372-5.6-.889-9.854-1.276-10.351a13.732,13.732,0,0,0-11.268-5.556C1153.879,657.742,1148.14,660.1,1149.5,664.078Z" transform="translate(-50.928 -143.198)" fill="#5b5b99"/>
    <path id="Path_5607" data-name="Path 5607" d="M1231.369,813.322" transform="translate(-111.324 -257.704)" fill="none" stroke="#3b3b56" stroke-linecap="round" stroke-linejoin="round" stroke-width="4"/>
    <path id="Path_5608" data-name="Path 5608" d="M1179.895,697.769c-.6.884-26.051.861-26.4.356s-.634-19.4-.55-20.725-3.293-12.7-3.293-12.7c-1.07-3.125,3.877-5.408,9.161-6.128-2.439,1.112-3.943,2.678-3.3,4.541,0,0,5.064,15.094,4.98,16.417s-3.666,17.105-3.321,17.611c.264.386,15.378.182,22.734-.331A2.086,2.086,0,0,1,1179.895,697.769Z" transform="translate(-51.082 -143.817)" fill="#f4f4f4" style="mix-blend-mode: multiply;isolation: isolate"/>
    <path id="Path_5609" data-name="Path 5609" d="M1234.172,678.891" transform="translate(-113.387 -158.773)" fill="#fdc54f"/>
    <path id="Path_5610" data-name="Path 5610" d="M1234.172,678.891" transform="translate(-113.387 -158.773)" fill="#fdc54f"/>
    <path id="Path_5611" data-name="Path 5611" d="M1177.626,730.09" transform="translate(-71.774 -196.451)" fill="none" stroke="#3b3b56" stroke-linecap="round" stroke-linejoin="round" stroke-width="4"/>
    <path id="Path_5612" data-name="Path 5612" d="M1180.714,914.393s-.063,5.751-.063,5.487,6.338,0,6.338,0Z" transform="translate(-74 -332.084)" fill="#3b3b56"/>
    <path id="Path_5613" data-name="Path 5613" d="M1122.417,466.255s-18.1-2.112-28.7,6.753c-3.608,3.016-12.5,45.6-12.5,45.6l14.072,2.44C1100.764,474.1,1118.751,476.706,1122.417,466.255Z" transform="translate(-0.82 -2.127)" fill="#5b5b99"/>
    <path id="Path_5614" data-name="Path 5614" d="M1164.525,466.4c12.551,3.654,22.748,19.192,21.936,21.981-.617,2.119-11.54,30.584-12.868,30.493-16.616-1.142-38.795-10.478-39.243-12.291a3.276,3.276,0,0,1,.923-3.349s.6-26.015,1.155-28.878S1151.975,462.75,1164.525,466.4Z" transform="translate(-39.837 -1.753)" fill="#5b5b99"/>
    <path id="Path_5615" data-name="Path 5615" d="M1187.54,547.545c-2.815.693-30.124-7.533-31.039-9.587-.849-1.907,4.6-28.089,8.146-29.4s30.134,5.611,31.947,9.3S1190.355,546.851,1187.54,547.545Z" transform="translate(-56.162 -33.305)" fill="#fff"/>
    <path id="Path_5616" data-name="Path 5616" d="M1232.194,617.4a10.153,10.153,0,0,1,1.157.449c.373.165.739.337,1.1.508s.717.339,1.067.492c.176.073.35.145.52.2a1.986,1.986,0,0,0,.488.11l.053,0a.263.263,0,0,1,.24.284.266.266,0,0,1-.137.209,1.569,1.569,0,0,1-.744.16,3.266,3.266,0,0,1-.69-.079,6.213,6.213,0,0,1-1.242-.422,8.224,8.224,0,0,1-1.115-.621,6.5,6.5,0,0,1-1-.788.3.3,0,0,1,.3-.507Z" transform="translate(-111.642 -113.513)" fill="#3b3b56"/>
    <path id="Path_5617" data-name="Path 5617" d="M1097.985,630.323" transform="translate(-13.164 -123.031)" fill="none" stroke="#3b3b56" stroke-linecap="round" stroke-linejoin="round" stroke-width="4"/>
    <path id="Path_5618" data-name="Path 5618" d="M1187.791,547.425a.82.82,0,0,1-.253.119c-2.816.692-30.124-7.533-31.04-9.589-.849-1.907,4.605-28.088,8.148-29.4.939-.345,3.5-.112,6.792.482a4.083,4.083,0,0,0-1.284.161c-3.542,1.307-9,27.488-8.147,29.4C1162.71,540.178,1179.011,545.406,1187.791,547.425Z" transform="translate(-56.16 -33.304)" fill="#f4f4f4" style="mix-blend-mode: multiply;isolation: isolate"/>
    <path id="Path_5619" data-name="Path 5619" d="M1196.973,514c-4.918,4.895-14.256,10.162-29.225,7.454,1.7-6.926,3.475-12.242,5.241-12.893,2.395-.882,15.3,1.985,23.984,5.077C1196.973,513.758,1196.972,513.879,1196.973,514Z" transform="translate(-64.504 -33.304)" fill="#7f7ff8"/>
    <path id="Path_5620" data-name="Path 5620" d="M1284.8,544.525c-5.406-3.05-6.395-10.538-6.385-15.662q.133-.137.264-.267c4.045,1.457,7.124,2.958,7.7,4.131C1287.1,534.2,1286.26,539.109,1284.8,544.525Z" transform="translate(-145.948 -48.167)" fill="#7f7ff8"/>
    <path id="Path_5621" data-name="Path 5621" d="M1163.376,507.437a3.807,3.807,0,0,1,1.015-.177c.327-.017.65-.016.971-.006.642.021,1.275.08,1.906.15,1.261.143,2.51.347,3.753.572,2.486.456,4.948,1.014,7.395,1.633s4.871,1.325,7.276,2.1a55.8,55.8,0,0,1,7.093,2.759,15.607,15.607,0,0,1,1.694.961,6.2,6.2,0,0,1,.806.626,2.58,2.58,0,0,1,.192.192,1.972,1.972,0,0,1,.183.218,2.005,2.005,0,0,1,.3.536,3.952,3.952,0,0,1,.2,1.056,9.067,9.067,0,0,1,.02,1c-.02.653-.082,1.294-.162,1.929a62.108,62.108,0,0,1-1.547,7.45q-.965,3.668-2.174,7.263c-.809,2.395-1.678,4.771-2.72,7.094-.264.58-.541,1.155-.842,1.724a13.33,13.33,0,0,1-1.026,1.677,3.672,3.672,0,0,1-.772.8,1.487,1.487,0,0,1-.329.17.878.878,0,0,1-.184.052c-.054.009-.113.021-.163.026a3.985,3.985,0,0,1-.547.011,15.715,15.715,0,0,1-1.941-.244c-2.51-.46-4.949-1.1-7.387-1.751s-4.854-1.374-7.262-2.125-4.8-1.544-7.175-2.409c-1.186-.433-2.368-.884-3.538-1.376-.585-.248-1.167-.506-1.743-.794-.288-.147-.575-.3-.86-.473-.143-.089-.285-.185-.429-.3a2.44,2.44,0,0,1-.22-.2c-.038-.043-.074-.079-.112-.13a1.43,1.43,0,0,1-.109-.186,1.5,1.5,0,0,1-.083-.332,2.22,2.22,0,0,1-.026-.275c-.011-.176-.006-.34,0-.507.011-.328.034-.65.064-.968.059-.638.142-1.267.234-1.894.182-1.254.4-2.5.642-3.737q.729-3.716,1.661-7.382c.62-2.444,1.3-4.875,2.089-7.274a.261.261,0,0,1,.5.16c-.745,2.394-1.38,4.824-1.956,7.267s-1.089,4.9-1.53,7.371c-.22,1.234-.431,2.47-.6,3.708-.084.619-.16,1.238-.211,1.854-.025.308-.045.614-.052.915,0,.148,0,.3.007.436a1.4,1.4,0,0,0,.02.195.922.922,0,0,0,.026.126c.006.009.011.008.011.016l.044.047a1.632,1.632,0,0,0,.132.116c.107.08.226.159.351.235.251.153.524.292.8.428.552.269,1.123.516,1.7.753,1.153.472,2.328.908,3.509,1.326,4.734,1.651,9.542,3.127,14.386,4.434,2.422.642,4.861,1.267,7.3,1.7a14.814,14.814,0,0,0,1.8.222,3.108,3.108,0,0,0,.4-.007.374.374,0,0,0,.2-.072,2.778,2.778,0,0,0,.526-.564,12.388,12.388,0,0,0,.934-1.544c.285-.544.552-1.1.807-1.67,1.023-2.267,1.892-4.621,2.7-6.99s1.529-4.772,2.172-7.191a61.162,61.162,0,0,0,1.54-7.317c.079-.612.139-1.226.159-1.83a8.083,8.083,0,0,0-.015-.89,3.168,3.168,0,0,0-.142-.793,2.839,2.839,0,0,0-1.095-1.107,14.645,14.645,0,0,0-1.579-.912,54.98,54.98,0,0,0-6.943-2.767c-2.375-.794-4.782-1.505-7.2-2.154s-4.861-1.246-7.318-1.737c-1.228-.243-2.462-.464-3.7-.624-.618-.079-1.237-.145-1.853-.175-.308-.015-.614-.02-.916-.009a3.3,3.3,0,0,0-.842.127l-.014,0a.295.295,0,0,1-.19-.558Z" transform="translate(-54.993 -32.456)" fill="#3b3b56"/>
    <path id="Path_5622" data-name="Path 5622" d="M1178.976,570.941c.77-2.526,20.569-.837,17.9,7.936S1178.173,573.574,1178.976,570.941Z" transform="translate(-72.745 -78.544)" fill="#49cbf9"/>
    <path id="Path_5623" data-name="Path 5623" d="M1268.654,597.339c.77-2.526-11.7-10.672-14.371-1.9S1267.851,599.972,1268.654,597.339Z" transform="translate(-127.969 -94.439)" fill="#49cbf9"/>
    <path id="Path_5624" data-name="Path 5624" d="M1180.136,573.852a17.462,17.462,0,0,1-1.253-1.287,11.117,11.117,0,0,1-1.106-1.463,3.892,3.892,0,0,1-.414-.9,1.67,1.67,0,0,1-.071-.594,1.082,1.082,0,0,1,.1-.362.8.8,0,0,1,.094-.16.758.758,0,0,1,.108-.134,2.319,2.319,0,0,1,.941-.559,6.1,6.1,0,0,1,.926-.241,16.144,16.144,0,0,1,3.638-.176,26.4,26.4,0,0,1,3.576.443,23.3,23.3,0,0,1,3.481.965,14.323,14.323,0,0,1,3.25,1.657,6.858,6.858,0,0,1,2.435,2.809,5.015,5.015,0,0,1,.061,3.688v0a.261.261,0,0,1-.5-.154,4.514,4.514,0,0,0-.266-3.213,4.948,4.948,0,0,0-.958-1.317,7.82,7.82,0,0,0-1.3-1.049,14.289,14.289,0,0,0-3.074-1.464,23.051,23.051,0,0,0-3.336-.888,26.3,26.3,0,0,0-3.433-.443,16.376,16.376,0,0,0-3.413.088,5.149,5.149,0,0,0-.79.178,1.6,1.6,0,0,0-.587.3c-.054.059-.064.064-.075.124a.817.817,0,0,0,.028.279,3.189,3.189,0,0,0,.295.714,15.367,15.367,0,0,0,2.062,2.746l0,0a.295.295,0,0,1-.422.411Z" transform="translate(-71.526 -77.129)" fill="#3b3b56"/>
    <path id="Path_5625" data-name="Path 5625" d="M1265.7,597.748c.415-.193.823-.4,1.213-.623a5.662,5.662,0,0,0,1.06-.761,1.6,1.6,0,0,0,.34-.424.354.354,0,0,0,.044-.167.68.68,0,0,0-.028-.2,2.9,2.9,0,0,0-.614-1,10.425,10.425,0,0,0-2.018-1.72,14.646,14.646,0,0,0-2.359-1.3,11.394,11.394,0,0,0-2.542-.807,6.712,6.712,0,0,0-2.585-.027,4.248,4.248,0,0,0-2.2,1.188,6.226,6.226,0,0,0-1.359,2.252v0a.261.261,0,0,1-.5-.155,6.416,6.416,0,0,1,1.287-2.623,4.9,4.9,0,0,1,1.156-.985,5.231,5.231,0,0,1,1.408-.583,7.318,7.318,0,0,1,2.971-.074,12.082,12.082,0,0,1,2.789.844,15.123,15.123,0,0,1,2.524,1.413,12.833,12.833,0,0,1,1.144.9,8.286,8.286,0,0,1,1.028,1.064,5.364,5.364,0,0,1,.438.634,2.628,2.628,0,0,1,.315.777,1.546,1.546,0,0,1,.029.489,1.245,1.245,0,0,1-.161.494,2.36,2.36,0,0,1-.559.637,6.4,6.4,0,0,1-1.271.775,11.04,11.04,0,0,1-1.331.537.3.3,0,0,1-.217-.548Z" transform="translate(-128.081 -93.074)" fill="#3b3b56"/>
    <path id="Path_5626" data-name="Path 5626" d="M1276.346,606.625a6.565,6.565,0,0,1-.165,1.132c-.082.369-.18.733-.3,1.09s-.249.711-.4,1.056a6.653,6.653,0,0,1-.537,1.014.271.271,0,0,1-.5-.158,6.679,6.679,0,0,1,.149-1.137c.074-.371.175-.734.282-1.1s.241-.713.387-1.061a6.552,6.552,0,0,1,.521-1.019.3.3,0,0,1,.561.179Z" transform="translate(-143.026 -105.356)" fill="#3b3b56"/>
    <path id="Path_5627" data-name="Path 5627" d="M1231.647,590.861a7.388,7.388,0,0,1-.212,1.194c-.1.389-.212.772-.345,1.148s-.28.749-.45,1.112a7.455,7.455,0,0,1-.581,1.067.27.27,0,0,1-.493-.169,7.462,7.462,0,0,1,.2-1.2c.089-.392.206-.774.328-1.154s.272-.752.433-1.118a7.375,7.375,0,0,1,.566-1.073.3.3,0,0,1,.557.191Z" transform="translate(-109.997 -93.747)" fill="#3b3b56"/>
    <path id="Path_5628" data-name="Path 5628" d="M1117.84,508.741a1.861,1.861,0,0,0-1.224.186,4.106,4.106,0,0,0-1.063.836,11.87,11.87,0,0,0-1.62,2.345,38.58,38.58,0,0,0-2.306,5.352c-.655,1.84-1.214,3.717-1.752,5.6s-1.02,3.784-1.47,5.693-.863,3.827-1.255,5.749-.766,3.849-1.107,5.782-.652,3.87-.93,5.813-.549,3.885-.756,5.834v.008a.421.421,0,0,1-.464.375l-.026,0c-1.816-.311-3.632-.616-5.446-.941s-3.629-.638-5.44-.973a.261.261,0,0,1,.083-.515c1.826.249,3.648.517,5.472.778s3.645.536,5.467.809l-.492.379q.258-2.951.648-5.886t.892-5.85q.492-2.917,1.069-5.82t1.286-5.778a97.894,97.894,0,0,1,3.369-11.365,36.019,36.019,0,0,1,2.476-5.427,12.538,12.538,0,0,1,1.8-2.444,4.6,4.6,0,0,1,1.281-.934,2.485,2.485,0,0,1,1.646-.174.295.295,0,0,1-.134.574Z" transform="translate(-9.324 -33.083)" fill="#3b3b56"/>
    <path id="Path_5629" data-name="Path 5629" d="M1080.105,516.412q2.62-11.012,5.373-21.991,1.391-5.487,2.852-10.958.735-2.734,1.507-5.461c.521-1.817,1.049-3.631,1.663-5.434.157-.451.317-.9.506-1.354.051-.115.094-.226.153-.343l.084-.174.1-.184a3.854,3.854,0,0,1,.5-.636,10.811,10.811,0,0,1,2.389-1.75,31.465,31.465,0,0,1,5.268-2.29,51.879,51.879,0,0,1,11.146-2.423,43.435,43.435,0,0,1,11.418.226,22.921,22.921,0,0,1,5.531,1.654,29.813,29.813,0,0,1,5.009,2.827,40.81,40.81,0,0,1,8.3,7.851,38.6,38.6,0,0,1,3.268,4.707,22.664,22.664,0,0,1,1.307,2.582,10.518,10.518,0,0,1,.486,1.4,4.805,4.805,0,0,1,.142.775,3.655,3.655,0,0,1-.024.811,20.155,20.155,0,0,1-.651,2.833c-.266.916-.557,1.819-.86,2.718-.608,1.8-1.264,3.571-1.944,5.336q-2.043,5.293-4.4,10.455c-.789,1.719-1.6,3.428-2.481,5.111-.44.841-.894,1.676-1.393,2.5-.25.41-.51.815-.8,1.212a6.141,6.141,0,0,1-.487.586,2.543,2.543,0,0,1-.319.284,1.366,1.366,0,0,1-.223.134.933.933,0,0,1-.156.056.835.835,0,0,1-.134.024,8.44,8.44,0,0,1-1.5.014c-.482-.028-.957-.074-1.431-.126-.947-.107-1.887-.244-2.822-.4-1.871-.306-3.728-.674-5.576-1.082-3.692-.829-7.348-1.815-10.946-2.99-1.8-.589-3.581-1.23-5.336-1.941a51.124,51.124,0,0,1-5.155-2.4.261.261,0,0,1,.247-.459,50.526,50.526,0,0,0,5.125,2.316c1.748.685,3.525,1.3,5.318,1.866,3.587,1.127,7.235,2.066,10.913,2.848,1.839.393,3.685.746,5.539,1.037.927.144,1.855.274,2.783.372.464.049.928.09,1.388.114a7.786,7.786,0,0,0,1.329-.016c.04.02.192-.1.334-.248a5.32,5.32,0,0,0,.412-.5c.265-.363.513-.754.752-1.151.477-.8.919-1.621,1.349-2.453.856-1.667,1.654-3.37,2.427-5.085q2.308-5.148,4.332-10.422c.672-1.757,1.32-3.522,1.917-5.3.3-.889.583-1.782.841-2.678a19.353,19.353,0,0,0,.612-2.677,2.659,2.659,0,0,0,.019-.6,3.843,3.843,0,0,0-.116-.614,9.566,9.566,0,0,0-.443-1.266,21.683,21.683,0,0,0-1.254-2.459,37.619,37.619,0,0,0-3.191-4.573,39.856,39.856,0,0,0-8.1-7.63,24.854,24.854,0,0,0-10.1-4.325,42.423,42.423,0,0,0-11.145-.236,50.876,50.876,0,0,0-10.93,2.356,30.978,30.978,0,0,0-5.1,2.2,9.933,9.933,0,0,0-2.175,1.563,2.907,2.907,0,0,0-.377.47,4.821,4.821,0,0,0-.278.57c-.177.416-.336.854-.491,1.293-.612,1.763-1.15,3.571-1.678,5.376s-1.034,3.622-1.534,5.439c-1,3.634-1.961,7.28-2.914,10.929q-2.873,10.942-5.6,21.925a.295.295,0,0,1-.573-.139Z" fill="#3b3b56"/>
    <path id="Path_5630" data-name="Path 5630" d="M1101.947,475.15c-3.268,2.733-10.889,38.006-12.279,44.556l-8.456-1.468s8.9-42.584,12.5-45.6c6.628-5.539,16.178-6.793,22.413-6.952a.009.009,0,0,1,.006,0,23.091,23.091,0,0,1,13.736,2.486,26.889,26.889,0,0,0-5.5.024h-.006C1118.125,468.356,1108.574,469.611,1101.947,475.15Z" transform="translate(-0.82 -1.757)" fill="#f4f4f4" style="mix-blend-mode: multiply;isolation: isolate"/>
    <line id="Line_47" data-name="Line 47" x1="14.728" transform="translate(1141.269 587.592)" fill="#eaeae9"/>
    <g id="Group_3178" data-name="Group 3178" transform="translate(1127.84 532.559)">
      <path id="Path_5631" data-name="Path 5631" d="M1260.888,726.622l4.653,54.87h6.314l-1.571-29.529h39.287l-.689,29.529H1335.1l4.65-54.87Zm48.9,20.278H1269.8l-1.162-15.105h41.661Z" transform="translate(-1260.888 -726.459)" fill="#fff"/>
      <path id="Path_5632" data-name="Path 5632" d="M1312.767,852.11h-14.727l-1.571-29.529h15.625Z" transform="translate(-1287.072 -797.078)" fill="#fff"/>
      <path id="Path_5633" data-name="Path 5633" d="M1327.463,746.212l-.51,15.105H1285.38l-1.162-15.105Z" transform="translate(-1278.057 -740.875)" fill="#eeeeed"/>
      <ellipse id="Ellipse_1" data-name="Ellipse 1" cx="2.594" cy="2.751" rx="2.594" ry="2.751" transform="translate(24.106 10.048)" fill="#eaeae9"/>
      <path id="Path_5634" data-name="Path 5634" d="M1305.08,781.491l12.034-.084-.809-26.721m53.964-28.065h-67.917m6.6,25.341h31.137l-.689,29.529h26.223L1369.95,729" transform="translate(-1291.402 -726.459)" fill="none" stroke="#3c4958" stroke-linecap="round" stroke-linejoin="round" stroke-width="1"/>
      <path id="Path_5635" data-name="Path 5635" d="M1282.607,744.9l10.877-.083,10.877-.049,21.755-.04a.392.392,0,0,1,.393.392v.015l-.528,15.1a.375.375,0,0,1-.374.362l-8.552-.017-8.552-.04-8.552-.052-8.552-.07a.2.2,0,0,1,0-.391l8.552-.07,8.552-.052,8.552-.04,8.552-.017-.374.362.491-15.106.393.406-21.755-.04-10.877-.049-10.877-.083a.221.221,0,0,1,0-.442Z" transform="translate(-1276.71 -739.78)" fill="#3b3b56"/>
      <path id="Path_5636" data-name="Path 5636" d="M1354.007,762.917a2.838,2.838,0,0,1,.888.076,3.04,3.04,0,0,1,.826.371,3.106,3.106,0,0,1,1.142,1.4,3.3,3.3,0,0,1-.606,3.47,3.29,3.29,0,0,1-.736.587,3.13,3.13,0,0,1-.885.335,3.266,3.266,0,0,1-.943.031,3.017,3.017,0,0,1-.9-.271,3.094,3.094,0,0,1-.752-.533,3.179,3.179,0,0,1-.544-.721,3.027,3.027,0,0,1-.35-1.7.262.262,0,0,1,.521,0v0a2.546,2.546,0,0,0,1.507,2.108,2.051,2.051,0,0,0,2.3-.549,2.452,2.452,0,0,0,.485-2.415,2.342,2.342,0,0,0-1.955-1.6H1354a.3.3,0,0,1,.009-.588Z" transform="translate(-1327.306 -753.163)" fill="#3c4958"/>
      <path id="Path_5637" data-name="Path 5637" d="M1461.856,726l-2.157,55.051,21.715-.208,4.6-54.651Z" transform="translate(-1407.198 -726.003)" fill="#eaeae9" opacity="0.6" style="mix-blend-mode: multiply;isolation: isolate"/>
      <path id="Path_5638" data-name="Path 5638" d="M1357.364,772.174a2.6,2.6,0,1,1-5.187,0,2.839,2.839,0,0,1,.12-.824,2.551,2.551,0,0,0,4.946,0A2.847,2.847,0,0,1,1357.364,772.174Z" transform="translate(-1328.07 -759.375)" fill="#eaeae9" opacity="0.6" style="mix-blend-mode: multiply;isolation: isolate"/>
      <path id="Path_5639" data-name="Path 5639" d="M1308.351,851.92h-16.312l-1.571-29.338h17.21Z" transform="translate(-1282.657 -797.078)" fill="#eaeae9" opacity="0.6" style="mix-blend-mode: multiply;isolation: isolate"/>
      <path id="Path_5640" data-name="Path 5640" d="M1326.406,748.247h-40.544l.9,12.586-2.517.18-1.026-14.8h43.509Z" transform="translate(-1277.321 -740.875)" fill="#eaeae9" opacity="0.6" style="mix-blend-mode: multiply;isolation: isolate"/>
    </g>
    <path id="Path_5641" data-name="Path 5641" d="M1189.592,757.689c2.362-2.43,25.025-1.3,26.885,1.334s6.376,35.277,6.376,35.277l-39.637,1.011S1187.229,760.118,1189.592,757.689Z" transform="translate(-75.887 -215.776)" fill="#5b5b99"/>
    <g id="Group_3180" data-name="Group 3180" transform="translate(1107.328 540.573)">
      <g id="Group_3179" data-name="Group 3179" clip-path="url(#clip-path)">
        <rect id="Rectangle_18" data-name="Rectangle 18" width="58.272" height="14.123" transform="translate(50.569 41.03) rotate(-180)" fill="#5b5b99"/>
      </g>
    </g>
    <path id="Path_5643" data-name="Path 5643" d="M1194.436,759.289a17.728,17.728,0,0,1,.616-2.023,5.467,5.467,0,0,1,.226-.5,1.739,1.739,0,0,1,.367-.5,2.992,2.992,0,0,1,1.023-.555,12.041,12.041,0,0,1,2.082-.482c.7-.109,1.392-.184,2.088-.242a68.2,68.2,0,0,1,8.35-.11,74.475,74.475,0,0,1,8.32.777c.691.111,1.381.236,2.07.392a14.792,14.792,0,0,1,2.063.6,4.578,4.578,0,0,1,1.032.535,2.12,2.12,0,0,1,.257.215,1.313,1.313,0,0,1,.222.285l.156.284c.05.1.074.176.112.265a17.021,17.021,0,0,1,.633,2.049c.685,2.715,1.188,5.44,1.69,8.17s.951,5.464,1.393,8.2c.875,5.474,1.668,10.956,2.429,16.446a.5.5,0,0,1-.422.561.468.468,0,0,1-.058,0l-9.287.212-9.288.185q-4.644.1-9.289.169l-9.289.146a.261.261,0,0,1-.013-.521l9.284-.327q4.642-.171,9.285-.306l9.286-.289,9.286-.262-.48.565Q1227.414,785,1226.1,776.8c-.434-2.732-.884-5.462-1.367-8.183s-.988-5.444-1.651-8.1a16.249,16.249,0,0,0-.584-1.919c-.03-.07-.056-.157-.088-.213l-.093-.172a.435.435,0,0,0-.091-.126,1.168,1.168,0,0,0-.141-.117,3.831,3.831,0,0,0-.807-.417,13.886,13.886,0,0,0-1.917-.576c-.66-.157-1.332-.286-2.006-.4a73.507,73.507,0,0,0-8.206-.848c-1.376-.073-2.754-.109-4.131-.12s-2.754.016-4.123.105c-.684.045-1.367.107-2.041.2a11.391,11.391,0,0,0-1.967.416,2.418,2.418,0,0,0-.8.4,2.253,2.253,0,0,0-.448.767,17.261,17.261,0,0,0-.628,1.938v0a.295.295,0,0,1-.569-.151Z" transform="translate(-82.107 -214.63)" fill="#3b3b56"/>
    <path id="Path_5644" data-name="Path 5644" d="M1156.991,704.727c.413,1.447.788,2.9,1.088,4.377a17.305,17.305,0,0,1,.335,2.27c.038.752.058,1.5.07,2.254.042,3-.068,6-.139,8.982-.036,1.493-.071,2.985-.066,4.469,0,.742.011,1.483.049,2.215.019.365.045.729.088,1.083a4.525,4.525,0,0,0,.2.974.721.721,0,0,0,.07.143c.008.012.014.016.006.01a.105.105,0,0,0-.024-.017l.044.021a2.446,2.446,0,0,0,.436.164,6.56,6.56,0,0,0,1.019.193,17.924,17.924,0,0,0,2.175.1,42.77,42.77,0,0,0,4.413-.282h0a.521.521,0,0,1,.576.459.531.531,0,0,1-.005.151c-.493,2.727-.919,5.468-1.326,8.213s-.766,5.5-1.1,8.254-.637,5.517-.929,8.276l-.883,8.3-.408-.451,6.338.058-.229.619-5.486-4.823a.261.261,0,0,1,.339-.4l5.605,4.684a.35.35,0,0,1-.22.619h-.009l-6.338.058a.407.407,0,0,1-.411-.4.347.347,0,0,1,0-.041v-.007l.768-8.3c.245-2.775.555-5.54.872-8.305s.674-5.527,1.063-8.284.823-5.51,1.332-8.253l.573.61a43.605,43.605,0,0,1-4.534.273,18.868,18.868,0,0,1-2.3-.117,7.535,7.535,0,0,1-1.18-.23,3.429,3.429,0,0,1-.609-.235l-.082-.041a.9.9,0,0,1-.138-.1,1.08,1.08,0,0,1-.178-.2,1.685,1.685,0,0,1-.182-.357,5.379,5.379,0,0,1-.257-1.215c-.045-.388-.071-.771-.09-1.152-.035-.761-.044-1.515-.036-2.268.015-1.5.068-3,.124-4.5.114-2.989.244-5.972.265-8.949,0-.744,0-1.487-.021-2.228a16.781,16.781,0,0,0-.275-2.168c-.266-1.456-.6-2.912-.963-4.352v0a.295.295,0,0,1,.569-.153Z" transform="translate(-56.163 -177.629)" fill="#3b3b56"/>
    <path id="Path_5645" data-name="Path 5645" d="M1282.288,913.215s6.857,5.12,6.7,5.638-7.13,0-7.13,0Z" transform="translate(-148.484 -331.217)" fill="#3b3b56"/>
    <path id="Path_5646" data-name="Path 5646" d="M1281.605,907.842c.582.36,1.147.745,1.72,1.117s1.134.762,1.694,1.153,1.12.782,1.676,1.177,1.107.8,1.661,1.2a.525.525,0,0,1-.306.952h-.005l-3.565-.011-3.565-.037h-.015a.468.468,0,0,1-.463-.459,28.644,28.644,0,0,1,.2-3.738c.07-.617.161-1.23.259-1.842s.209-1.219.345-1.828a.261.261,0,0,1,.514.087v.005c-.072.6-.135,1.214-.193,1.821s-.1,1.218-.132,1.826a33.147,33.147,0,0,0-.035,3.632l-.478-.46,3.565-.037,3.565-.011-.311.952c-.549-.406-1.1-.8-1.646-1.218s-1.092-.82-1.631-1.239-1.079-.838-1.613-1.263-1.067-.854-1.587-1.3a.3.3,0,0,1,.348-.476Z" transform="translate(-147.432 -325.406)" fill="#3b3b56"/>
    <path id="Path_5647" data-name="Path 5647" d="M1243.4,699.579a37.488,37.488,0,0,0,2.026,3.839,13.006,13.006,0,0,0,2.664,3.261,3.537,3.537,0,0,0,1.722.814,1.56,1.56,0,0,0,.224.018.792.792,0,0,0,.1,0,.428.428,0,0,0,.068-.009,1.546,1.546,0,0,0,.377-.141,6.25,6.25,0,0,0,.847-.547c1.124-.857,2.222-1.846,3.356-2.78a29.473,29.473,0,0,1,7.494-4.779,15.281,15.281,0,0,1,4.359-1.1,12.605,12.605,0,0,1,4.463.391.261.261,0,0,1-.12.507,12.75,12.75,0,0,0-4.255-.12,15.351,15.351,0,0,0-4.082,1.187,23.651,23.651,0,0,0-3.738,2.1c-1.194.8-2.33,1.7-3.451,2.622l-1.679,1.405c-.562.472-1.129.944-1.744,1.389a7.211,7.211,0,0,1-1.005.624,2.5,2.5,0,0,1-.654.222,1.386,1.386,0,0,1-.2.021,1.506,1.506,0,0,1-.173,0,2.409,2.409,0,0,1-.322-.03,4.487,4.487,0,0,1-2.182-1.067,9.754,9.754,0,0,1-1.551-1.693,17.515,17.515,0,0,1-1.211-1.889,32.606,32.606,0,0,1-1.873-4.017.295.295,0,0,1,.541-.234Z" transform="translate(-119.762 -172.914)" fill="#3b3b56"/>
    <path id="Path_5648" data-name="Path 5648" d="M1171.261,660.1l-.1-2.691-.048-1.343-.078-1.34c-.116-1.788-.258-3.575-.476-5.344a23.271,23.271,0,0,0-.441-2.6,3.941,3.941,0,0,0-.188-.57,4.242,4.242,0,0,0-.315-.5,10.813,10.813,0,0,0-.814-1,11.515,11.515,0,0,0-4.29-2.832,16.851,16.851,0,0,0-5.1-1.07,18.541,18.541,0,0,0-5.21.422,13.828,13.828,0,0,0-2.466.807,8.221,8.221,0,0,0-2.142,1.332,4.475,4.475,0,0,0-.785.911,3.1,3.1,0,0,0-.266.514.852.852,0,0,0-.094.422,1.642,1.642,0,0,0,.465.876,6.022,6.022,0,0,0,.926.818,16.885,16.885,0,0,0,2.235,1.345c.784.4,1.589.776,2.405,1.128,1.633.7,3.306,1.333,4.993,1.922s3.393,1.135,5.107,1.649c.857.256,1.717.506,2.578.741l.322.087.16.042.079.02.038.009.018,0a.354.354,0,0,0-.072-.01.269.269,0,0,0-.106.012l.017-.008a1.022,1.022,0,0,0,.1-.057c.074-.048.156-.109.236-.172a12.293,12.293,0,0,0,.957-.867c.624-.618,1.218-1.277,1.791-1.954s1.128-1.37,1.655-2.084a31.918,31.918,0,0,0,2.818-4.5,20.85,20.85,0,0,0,1.049-2.424,13.348,13.348,0,0,0,.657-2.535,8.173,8.173,0,0,0,0-2.58,5.979,5.979,0,0,0-.944-2.371.261.261,0,0,1,.425-.3,6.416,6.416,0,0,1,1.128,2.558,8.828,8.828,0,0,1,.082,2.786,16.715,16.715,0,0,1-1.657,5.232,32.74,32.74,0,0,1-2.811,4.677,34,34,0,0,1-3.5,4.193,13.226,13.226,0,0,1-1.034.947c-.1.076-.194.151-.307.226a1.907,1.907,0,0,1-.193.114,1.059,1.059,0,0,1-.137.06.7.7,0,0,1-.27.044.728.728,0,0,1-.114-.016l-.023-.006-.044-.011-.084-.021-.166-.043-.329-.087q-1.31-.353-2.6-.738-2.594-.768-5.156-1.644c-1.706-.589-3.4-1.217-5.071-1.93-.834-.358-1.662-.735-2.474-1.157a17.9,17.9,0,0,1-2.373-1.439,7.033,7.033,0,0,1-1.085-.969,3.5,3.5,0,0,1-.458-.644,2.119,2.119,0,0,1-.261-.849,1.711,1.711,0,0,1,.036-.482,1.563,1.563,0,0,1,.064-.222l.069-.181a4.14,4.14,0,0,1,.354-.68,5.507,5.507,0,0,1,.97-1.123,9.23,9.23,0,0,1,2.418-1.5,14.887,14.887,0,0,1,2.651-.86,19.556,19.556,0,0,1,5.5-.428,17.387,17.387,0,0,1,5.391,1.186,12.427,12.427,0,0,1,4.592,3.113,11.665,11.665,0,0,1,.874,1.1,4.646,4.646,0,0,1,.391.647,4.715,4.715,0,0,1,.228.71,21.978,21.978,0,0,1,.425,2.716c.187,1.8.294,3.6.377,5.4l.052,1.351.021,1.351.032,2.7a.295.295,0,0,1-.589.015Z" transform="translate(-49.532 -125.664)" fill="#3b3b56"/>
    <g id="Group_3181" data-name="Group 3181" transform="translate(1207.703 530.499)">
      <path id="Path_5649" data-name="Path 5649" d="M1595.407,782.043c4.862,1.258,8.479-6.595,9.567-11.355s-2.008-6.714-.834-9.58,6.757-7.184,1.534-13.722c-7.265,3.019-5.8,7.964-6.021,12.129-.209,4.039-4.259,3.652-5.412,8.108S1594.192,781.729,1595.407,782.043Z" transform="translate(-1585.716 -739.679)" fill="#eaeae9"/>
      <path id="Path_5650" data-name="Path 5650" d="M1582.051,758.191c5.26-.683,5.711-9.805,4.9-14.9s-4.615-5.79-4.594-9.062,3.792-9.7-3.9-14.054c-5.93,5.822-2.55,10.093-1.12,14.261,1.386,4.041-2.735,5.258-2.109,10.08S1580.735,758.362,1582.051,758.191Z" transform="translate(-1571.967 -719.654)" fill="#37e1ca"/>
      <path id="Path_5651" data-name="Path 5651" d="M1571.578,867.087h10.093c4.105-6.543,8.8-12.773,4.936-23.576h-19.965C1562.369,853.9,1566.258,860.174,1571.578,867.087Z" transform="translate(-1564.421 -810.42)" fill="#49cbf9"/>
      <path id="Path_5652" data-name="Path 5652" d="M1565.808,842.389a25.089,25.089,0,0,0-1.57,6.088,16.785,16.785,0,0,0,.439,6.189,21.526,21.526,0,0,0,2.531,5.706,59.793,59.793,0,0,0,3.662,5.174l-.4-.2,10.093-.019-.442.245c1.117-1.792,2.269-3.542,3.284-5.355a25.087,25.087,0,0,0,2.409-5.678,17.727,17.727,0,0,0,.565-6.085,25.153,25.153,0,0,0-1.3-6.031l.417.294-8.514-.071-8.514-.112a.261.261,0,0,1,0-.522l8.514-.112,8.514-.07a.44.44,0,0,1,.417.294,25.312,25.312,0,0,1,1.429,6.254,18.716,18.716,0,0,1-.561,6.419,26.092,26.092,0,0,1-2.471,5.924c-1.026,1.868-2.189,3.635-3.308,5.406l0,0a.526.526,0,0,1-.441.242l-10.093-.019h0a.5.5,0,0,1-.4-.2,53.172,53.172,0,0,1-3.682-5.3,22.436,22.436,0,0,1-2.555-5.981l-.194-.8c-.051-.268-.086-.54-.129-.81s-.087-.54-.118-.811l-.048-.819c-.01-.273-.042-.545-.033-.818l.03-.818c.016-.272.007-.546.044-.816l.1-.809a24.659,24.659,0,0,1,1.771-6.221.295.295,0,0,1,.547.218Z" transform="translate(-1563.314 -809.185)" fill="#3b3b56"/>
      <path id="Path_5653" data-name="Path 5653" d="M1585.241,741.885a9.327,9.327,0,0,0-1.081-2.98,16.474,16.474,0,0,0-1.99-2.539,9.434,9.434,0,0,1-1.042-1.372,4.323,4.323,0,0,1-.594-1.715,6.128,6.128,0,0,1,.083-1.765c.09-.56.205-1.1.313-1.639a19.672,19.672,0,0,0,.443-3.188,7.93,7.93,0,0,0-.421-3.059,6.371,6.371,0,0,0-.682-1.371,7.243,7.243,0,0,0-.971-1.2,11.261,11.261,0,0,0-2.522-1.88l.622-.082a13.363,13.363,0,0,0-2.345,3.022,7.053,7.053,0,0,0-.888,3.581,11.192,11.192,0,0,0,.857,3.711c.233.612.49,1.222.744,1.843.126.311.252.623.372.942a7.9,7.9,0,0,1,.322.993,4.736,4.736,0,0,1,.12,2.177,6.615,6.615,0,0,1-.741,2c-.324.6-.662,1.169-.948,1.746a7.439,7.439,0,0,0-.635,1.781l-.078.463a4,4,0,0,0-.039.469,4.227,4.227,0,0,0-.017.472l.027.475a14.2,14.2,0,0,0,.282,1.931,11.1,11.1,0,0,0,.548,1.864,7.158,7.158,0,0,0,.408.867c.079.137.162.27.252.4a2.587,2.587,0,0,0,.278.33l.024.022a.26.26,0,0,1-.345.388,2.77,2.77,0,0,1-.389-.413c-.11-.141-.209-.286-.3-.434a7.572,7.572,0,0,1-.482-.922,11.765,11.765,0,0,1-.642-1.949,14.8,14.8,0,0,1-.36-2.012l-.046-.522a4.912,4.912,0,0,1,0-.526,4.694,4.694,0,0,1,.027-.527l.078-.524a8.242,8.242,0,0,1,.662-1.988c.294-.623.629-1.21.924-1.787a5.751,5.751,0,0,0,.615-1.745,3.8,3.8,0,0,0-.138-1.774,8.038,8.038,0,0,0-.309-.9c-.116-.3-.242-.609-.369-.915-.255-.611-.521-1.227-.766-1.859a12.158,12.158,0,0,1-.952-4.038,8.093,8.093,0,0,1,.98-4.1,13.636,13.636,0,0,1,2.539-3.274.52.52,0,0,1,.622-.082,12.3,12.3,0,0,1,2.742,2.07,8,8,0,0,1,1.87,2.949,8.9,8.9,0,0,1,.461,3.442,20.638,20.638,0,0,1-.521,3.336c-.118.539-.241,1.073-.335,1.6a5.3,5.3,0,0,0-.1,1.519,3.455,3.455,0,0,0,.456,1.386,9.81,9.81,0,0,0,.925,1.274,17.108,17.108,0,0,1,1.993,2.713,9.539,9.539,0,0,1,1.047,3.235.295.295,0,0,1-.581.1Z" transform="translate(-1570.548 -718.201)" fill="#3b3b56"/>
      <path id="Path_5654" data-name="Path 5654" d="M1620.377,769.238a8.89,8.89,0,0,0,.076-2.99,16.542,16.542,0,0,0-.865-2.919,9.136,9.136,0,0,1-.438-1.582,4.155,4.155,0,0,1,.081-1.744,5.772,5.772,0,0,1,.7-1.54c.279-.462.573-.9.858-1.33a19.516,19.516,0,0,0,1.522-2.628,7.492,7.492,0,0,0,.711-2.814,6.562,6.562,0,0,0-.523-2.828,10.858,10.858,0,0,0-1.522-2.553l.574.148a15.23,15.23,0,0,0-2.533,1.325,7.98,7.98,0,0,0-2,1.944,6.977,6.977,0,0,0-1.1,2.573,16.274,16.274,0,0,0-.3,2.888.261.261,0,0,1-.521,0,14.831,14.831,0,0,1,.147-3.021c.031-.254.1-.5.159-.755s.152-.5.228-.744c.1-.24.2-.484.313-.718s.239-.467.39-.681a8.49,8.49,0,0,1,2.161-2.237,14.91,14.91,0,0,1,2.684-1.484.477.477,0,0,1,.565.135l.01.013a11.4,11.4,0,0,1,1.706,2.775,7.61,7.61,0,0,1,.622,3.263,8.436,8.436,0,0,1-.81,3.206,18.625,18.625,0,0,1-1.628,2.761c-.293.433-.588.858-.854,1.284a5.068,5.068,0,0,0-.623,1.278,3.2,3.2,0,0,0-.092,1.35,8.972,8.972,0,0,0,.355,1.436c.154.492.327.989.466,1.509a11.4,11.4,0,0,1,.313,1.591,8.968,8.968,0,0,1-.251,3.22.295.295,0,0,1-.575-.127Z" transform="translate(-1601.406 -738.295)" fill="#3b3b56"/>
      <path id="Path_5655" data-name="Path 5655" d="M1581.668,880.259h-10.1c-4.334-5.627-7.716-10.836-6.517-18.182a21.728,21.728,0,0,0,3.4,8.077,9.46,9.46,0,0,0,7.951,4.335h0a9.5,9.5,0,0,0,8.219-4.777,23.994,23.994,0,0,0,3.186-8.3C1589.021,869.432,1585.134,874.732,1581.668,880.259Z" transform="translate(-1564.417 -823.592)" fill="#f4f4f4" style="mix-blend-mode: multiply;isolation: isolate"/>
    </g>
  </g>
</svg>
