<svg xmlns="http://www.w3.org/2000/svg" xmlns:xlink="http://www.w3.org/1999/xlink" width="417.923" height="238.625" viewBox="0 0 417.923 238.625">
  <defs>
    <clipPath id="clip-path">
      <path id="Path_4503" data-name="Path 4503" d="M690.692,403.9c24.834,1.479,51.465-.078,71.393-1.559-8.912-32.069-17.069-54.375-19.784-68.108l-26.228,4.5-8.69-7.529C699.968,352.816,692.955,375.253,690.692,403.9Z" transform="translate(-690.692 -331.201)" fill="none"/>
    </clipPath>
  </defs>
  <g id="Group_2619" data-name="Group 2619" transform="translate(-154.437 -153.612)">
    <path id="Path_4451" data-name="Path 4451" d="M566.9,535.957c0,4.55-90.762,4.55-202.722,4.55S178,540.507,178,535.957s74.217-4.551,186.177-4.551S566.9,531.406,566.9,535.957Z" transform="translate(-9.248 -148.27)" fill="#eaeae9" opacity="0.6" style="mix-blend-mode: multiply;isolation: isolate"/>
    <ellipse id="Ellipse_340" data-name="Ellipse 340" cx="2.625" cy="2.205" rx="2.625" ry="2.205" transform="translate(219.933 348.236)" fill="#eaeae9" opacity="0.6" style="mix-blend-mode: multiply;isolation: isolate"/>
    <path id="Path_4452" data-name="Path 4452" d="M745.972,251.468c-11.273-8.289-8.563-16.469,2.225-9.136-3.944-6.731-4.509-12.317-1.176-13s7.4,4.086,12.066,13.181c-2.211-11.309,9.208-7.1,7.567,11.86Z" transform="translate(-229.305 -29.691)" fill="#7f7ff8"/>
    <path id="Path_4453" data-name="Path 4453" d="M583.7,185.826" transform="translate(-168.469 -12.643)" fill="#7f7ff8"/>
    <path id="Path_4454" data-name="Path 4454" d="M601.242,251.846c.736-2.072,1.611-6.225,3.748-5.447,2.49.906,16.147-1.456,14.467-11.538-7.771,3.571-10.836-1.629-10.81-3.934.04-3.662,6.207-4.2,8-7.406,2.725-4.863-6.358-11.006-3.487-15.794a12.491,12.491,0,0,1,2.257-2.336c5.25-5.036,4-13.485.514-20-3.833-7.16-10.473-13.645-18.909-15.636s-23.141-2.417-30.072,10.185c-7.232,13.149,16.382,30.244,16.382,30.244" transform="translate(-161.356 -5.92)" fill="#7f7ff8"/>
    <g id="Group_2606" data-name="Group 2606" transform="translate(257.204 153.612)">
      <path id="Path_4455" data-name="Path 4455" d="M451.844,407.282s-7.654,73.826-13.78,72.448c-8.219-1.848-9.391-70.05-9.391-70.05C428.392,388.986,452.856,388.962,451.844,407.282Z" transform="translate(-364.83 -247.891)" fill="#fff"/>
      <path id="Path_4456" data-name="Path 4456" d="M451.448,426.165c-.536,5.589-1.169,11.167-1.819,16.744q-1.018,8.36-2.213,16.7t-2.8,16.636c-.549,2.763-1.138,5.521-1.86,8.264-.366,1.371-.754,2.739-1.243,4.1a19.926,19.926,0,0,1-.839,2.037,9.3,9.3,0,0,1-.566,1.016,4,4,0,0,1-.888,1.016c-.053.041-.1.081-.159.12l-.2.112c-.069.035-.137.069-.208.1s-.173.049-.261.069a1.459,1.459,0,0,1-.554.028A1.575,1.575,0,0,1,437.4,493a2.966,2.966,0,0,1-.685-.338,4.149,4.149,0,0,1-.527-.44,7.457,7.457,0,0,1-1.355-1.97,23.562,23.562,0,0,1-1.507-4.105,76.4,76.4,0,0,1-1.744-8.332c-.88-5.578-1.483-11.175-1.923-16.781s-.777-11.213-1.032-16.824c-.225-5.612-.411-11.224-.476-16.839a.45.45,0,0,1,.9-.026c.265,5.6.539,11.2.911,16.793.346,5.594.754,11.183,1.283,16.757.547,5.57,1.132,11.139,2.044,16.639a74.713,74.713,0,0,0,1.746,8.125,21.914,21.914,0,0,0,1.4,3.777,5.778,5.778,0,0,0,1.012,1.485,2.425,2.425,0,0,0,.278.234,1.192,1.192,0,0,0,.255.123c.031.009.1.042.066.019-.018,0-.033.01-.035,0s0,0,0,.009a.113.113,0,0,1,.025-.021.1.1,0,0,1,.03-.012l.048-.042a2.362,2.362,0,0,0,.479-.57,7.624,7.624,0,0,0,.458-.819,17.942,17.942,0,0,0,.769-1.85c.465-1.278.85-2.611,1.212-3.947.716-2.68,1.312-5.41,1.865-8.147,1.106-5.478,2-11.009,2.891-16.539s1.674-11.083,2.433-16.637c.786-5.552,1.5-11.114,2.222-16.675a.509.509,0,0,1,1.012.114Z" transform="translate(-364.624 -260.361)" fill="#3b3b56"/>
      <path id="Path_4457" data-name="Path 4457" d="M428.988,422.663l.472,9.989,20.814-.37,1.715-10.914Z" transform="translate(-364.955 -258.697)" fill="#eaeae9" opacity="0.6" style="mix-blend-mode: multiply;isolation: isolate"/>
      <path id="Path_4458" data-name="Path 4458" d="M343.99,407.282s-15.618,73.826-9.058,72.448c8.8-1.848,31.473-70.05,31.473-70.05C373.21,388.986,348.753,388.962,343.99,407.282Z" transform="translate(-327.41 -247.891)" fill="#fff"/>
      <path id="Path_4459" data-name="Path 4459" d="M342.6,426.208c-1.057,5.717-2.129,11.431-3.122,17.157-1.02,5.722-2,11.45-2.892,17.189-.875,5.74-1.746,11.482-2.355,17.24-.3,2.875-.55,5.762-.589,8.616a18.832,18.832,0,0,0,.3,4.114,2.417,2.417,0,0,0,.272.729c.023.053.043.053.052.069.015.033.009,0-.007,0s-.042-.035-.07-.015c-.007-.013-.036-.007-.016,0a3.649,3.649,0,0,0,1.405-.911,19.491,19.491,0,0,0,2.587-3.236c.784-1.184,1.516-2.418,2.217-3.673,1.4-2.513,2.684-5.106,3.919-7.724,2.467-5.239,4.7-10.6,6.914-15.966s4.3-10.792,6.35-16.229c2.076-5.428,4.067-10.89,6.057-16.352a.45.45,0,0,1,.851.293c-1.8,5.534-3.713,11.032-5.653,16.52q-2.952,8.218-6.126,16.359c-2.118,5.428-4.377,10.8-6.826,16.107-1.232,2.649-2.515,5.278-3.933,7.854-.711,1.287-1.456,2.56-2.27,3.8a21.092,21.092,0,0,1-2.84,3.572,5.211,5.211,0,0,1-2.264,1.357,2.468,2.468,0,0,1-.558.035,1.79,1.79,0,0,1-.585-.182,1.676,1.676,0,0,1-.436-.328,1.843,1.843,0,0,1-.284-.357,4.063,4.063,0,0,1-.513-1.293,20.234,20.234,0,0,1-.338-4.566c.052-2.962.318-5.876.631-8.783.65-5.807,1.5-11.574,2.474-17.316s2.019-11.47,3.121-17.185c1.131-5.71,2.282-11.414,3.527-17.1a.509.509,0,0,1,1,.2Z" transform="translate(-326.832 -260.36)" fill="#3b3b56"/>
      <path id="Path_4460" data-name="Path 4460" d="M370.622,422.663,367,432.652l-20.7-.37,1.726-10.914Z" transform="translate(-332.504 -258.697)" fill="#eaeae9" opacity="0.6" style="mix-blend-mode: multiply;isolation: isolate"/>
      <path id="Path_4461" data-name="Path 4461" d="M354.378,196.047s-7.384,10.492-12.4,6.21c-3.05-2.6-.567-11.238,3.681-18.044,0,0-7.807,3.852-6.925-2.892.895-6.849,16.246-29.707,37.723-27.568,23.261,2.318,14.715,18.819,14.715,18.819" transform="translate(-329.505 -153.612)" fill="#7f7ff8"/>
      <path id="Path_4462" data-name="Path 4462" d="M420.4,321.893c-33.3,2.753-69.161,1.541-95.409.214,13.715-42.809,25.876-72.646,30.274-90.94-3.624-11.034-21.337-54.323,8.732-60.906,26.819-5.872,32.908,34.973,37.9,54.687C410.608,253.372,418.977,283.986,420.4,321.893Z" transform="translate(-324.139 -159.922)" fill="#fff"/>
      <path id="Path_4463" data-name="Path 4463" d="M396.793,166.933a13.527,13.527,0,0,1-2.478,12.1c-3.927,4.516-9.876,8.34-15.179,9.322a2.265,2.265,0,0,1-1.555-.121c-1.249-.7-1.2-2.914-.873-4.564a60.717,60.717,0,0,1,4.863-14.735" transform="translate(-344.36 -158.84)" fill="#7f7ff8"/>
      <path id="Path_4464" data-name="Path 4464" d="M423.937,326.435c-30.64.9-57.382-.224-81.519,0,13.716-42.808,15.286-40.576,19.686-58.872.159.156,41.537,44.468,44.178,41.47,2.3,1.168,2.7-46.6,2.7-46.6C417.691,290.855,419.692,299.456,423.937,326.435Z" transform="translate(-330.979 -196.32)" fill="#fdc54f"/>
      <path id="Path_4465" data-name="Path 4465" d="M366.445,225.237a145.562,145.562,0,0,1-4.908-16.134,68.288,68.288,0,0,1-1.98-16.838,33.4,33.4,0,0,1,1.242-8.5,21.225,21.225,0,0,1,3.984-7.722,19.892,19.892,0,0,1,6.905-5.314l.987-.468,1.022-.374,1.024-.371c.34-.129.7-.2,1.042-.3a28.562,28.562,0,0,1,4.253-.859,20.264,20.264,0,0,1,8.676.817,21.106,21.106,0,0,1,7.49,4.422,32.455,32.455,0,0,1,5.515,6.6,53.038,53.038,0,0,1,3.993,7.526,110.032,110.032,0,0,1,5.413,16.01c1.425,5.438,2.614,10.921,3.792,16.393a.45.45,0,0,1-.877.206c-1.375-5.434-2.648-10.883-4.2-16.244a109.471,109.471,0,0,0-5.576-15.712,56.493,56.493,0,0,0-3.951-7.259,30.8,30.8,0,0,0-5.255-6.226,19.355,19.355,0,0,0-6.886-4.023,18.468,18.468,0,0,0-7.925-.7,26.027,26.027,0,0,0-7.766,2.178,18.117,18.117,0,0,0-6.314,4.814,19.474,19.474,0,0,0-3.684,7.092,33.677,33.677,0,0,0-1.247,8.067,67.068,67.068,0,0,0,1.72,16.472,157.141,157.141,0,0,0,4.478,16.114.509.509,0,0,1-.962.33Z" transform="translate(-337.7 -159.342)" fill="#3b3b56"/>
      <path id="Path_4466" data-name="Path 4466" d="M423.759,259.64a25.165,25.165,0,0,1-1.021,5.984,13.179,13.179,0,0,1-1.292,2.856,9.964,9.964,0,0,1-2.087,2.437,11.31,11.31,0,0,1-5.841,2.42,38.567,38.567,0,0,1-6.068.262,89.848,89.848,0,0,1-11.908-1.208,79.4,79.4,0,0,1-11.628-2.736.451.451,0,0,1,.236-.869l.008,0c1.916.432,3.842.827,5.784,1.142,1.938.333,3.884.62,5.833.873a114.785,114.785,0,0,0,11.719.971,38.4,38.4,0,0,0,5.78-.212,9.89,9.89,0,0,0,5.034-1.932,10.139,10.139,0,0,0,3.086-4.479,26.975,26.975,0,0,0,1.353-5.62.509.509,0,0,1,1.012.108Z" transform="translate(-347.142 -195.012)" fill="#3b3b56"/>
      <path id="Path_4467" data-name="Path 4467" d="M402.923,263.554c1.343,3.848,2.341,7.747,3.356,11.652.5,1.953.993,3.908,1.454,5.869l.706,2.939.675,2.946q2.7,11.783,4.945,23.665t4.018,23.849c1.163,7.981,2.145,16,2.643,24.072a.869.869,0,0,1-.813.92h-.039q-23.858.462-47.717.666-11.931.068-23.866.019c-7.958-.051-15.912-.128-23.888-.493a.846.846,0,0,1-.807-.884.879.879,0,0,1,.041-.224c2.48-7.609,5.069-15.162,7.664-22.719l7.79-22.662,7.776-22.664,3.831-11.348c1.242-3.786,2.543-7.584,3.585-11.393l.006-.022a.45.45,0,0,1,.87.233c-1.019,3.91-2.266,7.688-3.467,11.506l-3.7,11.4q-3.724,11.391-7.555,22.744L332.8,336.344c-2.527,7.575-5.1,15.142-7.553,22.727l-.766-1.107c7.913.341,15.866.4,23.81.428s15.9-.015,23.845-.081q23.847-.16,47.7-.584l-.852.922c-.481-8-1.45-15.983-2.545-23.942q-1.674-11.937-3.859-23.806c-.736-3.953-1.479-7.905-2.276-11.847-.38-1.974-.79-3.943-1.2-5.912s-.818-3.937-1.251-5.9l-.64-2.948-.671-2.939c-.439-1.962-.908-3.917-1.383-5.869-.965-3.895-1.925-7.817-3.194-11.588l0-.015a.509.509,0,0,1,.962-.33Z" transform="translate(-323.59 -196.626)" fill="#3b3b56"/>
      <path id="Path_4468" data-name="Path 4468" d="M424.136,204.62a8,8,0,0,1,.768,1.43,13.713,13.713,0,0,1,.883,3.054,8.146,8.146,0,0,1,.117,1.624.478.478,0,0,1-.863.259,8.171,8.171,0,0,1-.795-1.422,13.65,13.65,0,0,1-.941-3.036,8.007,8.007,0,0,1-.144-1.616.536.536,0,0,1,.552-.52A.542.542,0,0,1,424.136,204.62Z" transform="translate(-362.667 -173.541)" fill="#3b3b56"/>
      <path id="Path_4469" data-name="Path 4469" d="M412.706,229.1a7.842,7.842,0,0,0,2.565,2.893,5.307,5.307,0,0,0,1.7.683,7.171,7.171,0,0,0,1.907.106,2.913,2.913,0,0,0,1.677-.5,2.658,2.658,0,0,0,.956-1.421,9.035,9.035,0,0,0,.091-4.054l0-.029a.45.45,0,0,1,.872-.214,10.716,10.716,0,0,1,.476,2.266,7.545,7.545,0,0,1-.122,2.39,4.1,4.1,0,0,1-1.326,2.252,3.822,3.822,0,0,1-1.188.667c-.205.075-.433.129-.626.18s-.388.1-.589.129a8.036,8.036,0,0,1-1.222.117,7.16,7.16,0,0,1-1.252-.109,5.921,5.921,0,0,1-2.339-.993,6.452,6.452,0,0,1-2.552-4.081.51.51,0,0,1,.95-.332Z" transform="translate(-358.178 -182.119)" fill="#3b3b56"/>
      <path id="Path_4470" data-name="Path 4470" d="M402.913,217.316a8.97,8.97,0,0,1-.76-1.542,14.808,14.808,0,0,1-.521-1.607,15.021,15.021,0,0,1-.342-1.656,9.052,9.052,0,0,1-.105-1.721.474.474,0,0,1,.868-.238,9.049,9.049,0,0,1,.787,1.534,15.375,15.375,0,0,1,.922,3.247,8.914,8.914,0,0,1,.132,1.714.532.532,0,0,1-.552.513A.538.538,0,0,1,402.913,217.316Z" transform="translate(-354.039 -175.876)" fill="#3b3b56"/>
    </g>
    <path id="Path_4471" data-name="Path 4471" d="M345.481,270.729c-1.146,3.484-2.411,6.914-3.684,10.346q-1.952,5.131-4.04,10.21-4.193,10.151-9.115,20c-1.673,3.264-3.421,6.492-5.281,9.661a100.841,100.841,0,0,1-6.042,9.241c-1.1,1.482-2.264,2.922-3.507,4.3a33.65,33.65,0,0,1-4.047,3.858,15.163,15.163,0,0,1-5,2.71,8.587,8.587,0,0,1-2.908.293,7.788,7.788,0,0,1-2.784-.882.45.45,0,0,1,.4-.8l.02.009a6.824,6.824,0,0,0,2.441.646,7.576,7.576,0,0,0,2.5-.35,13.974,13.974,0,0,0,4.481-2.662,43.2,43.2,0,0,0,7.106-8.057,145.478,145.478,0,0,0,10.984-18.787c3.315-6.482,6.317-13.128,9.219-19.817q2.185-5.014,4.236-10.088c1.4-3.369,2.734-6.768,4.051-10.164l0,0a.509.509,0,0,1,.958.343Z" transform="translate(-56.672 -45.702)" fill="#3b3b56"/>
    <path id="Path_4472" data-name="Path 4472" d="M324.993,322.108c3.956.2,8.126.4,12.478.581,13.461-41.779,25.322-70.995,29.655-89.015-3.621-11.037-21.337-54.325,8.732-60.907a23.936,23.936,0,0,1,2.813-.454A19.5,19.5,0,0,0,364,170.26c-30.068,6.581-12.357,49.874-8.732,60.907C350.868,249.46,338.708,279.3,324.993,322.108Z" transform="translate(-66.937 -6.309)" fill="#f4f4f4" style="mix-blend-mode: multiply;isolation: isolate"/>
    <path id="Path_4473" data-name="Path 4473" d="M451.5,258.311c1.279,3.266,2.406,6.586,3.5,9.911,1.073,3.334,2.088,6.684,3.084,10.037,1.981,6.71,3.8,13.459,5.744,20.163,1.886,6.719,3.848,13.418,6.212,19.945.594,1.629,1.224,3.244,1.918,4.824a37.18,37.18,0,0,0,2.343,4.574,15.019,15.019,0,0,0,1.458,2.049,6.586,6.586,0,0,0,1.814,1.544,2.726,2.726,0,0,0,2.125.233,4.959,4.959,0,0,0,1.969-1.3l.008-.009a.45.45,0,0,1,.646.627,5.9,5.9,0,0,1-2.3,1.66,3.82,3.82,0,0,1-2.955-.2,7.72,7.72,0,0,1-2.232-1.738,16.239,16.239,0,0,1-1.664-2.154,37.451,37.451,0,0,1-2.551-4.687c-.75-1.6-1.43-3.229-2.073-4.868-1.293-3.274-2.383-6.611-3.448-9.95s-2.054-6.7-3.028-10.058c-1.889-6.737-3.727-13.479-5.58-20.21-.922-3.367-1.866-6.726-2.857-10.069-.962-3.352-2.007-6.677-3.1-9.986a.509.509,0,0,1,.957-.346Z" transform="translate(-116.199 -40.964)" fill="#3b3b56"/>
    <path id="Path_4474" data-name="Path 4474" d="M535.353,409.234s17.487,73.458,23.1,71.03c7.536-3.258-.8-72.511-.8-72.511C555.052,386.752,531.855,390.856,535.353,409.234Z" transform="translate(-149.355 -94.207)" fill="#fff"/>
    <path id="Path_4475" data-name="Path 4475" d="M519.432,326.855c32.25,2.7,67.1,1.512,92.628.211-12.047-42.02-25.492-70.685-29.821-88.525,3.472-10.968,20.338-50.153-8.591-56.972-22.557-5.317-30.673,27.241-35.443,46.789C529.869,256.592,521.938,289.647,519.432,326.855Z" transform="translate(-143.247 -10.744)" fill="#fff"/>
    <path id="Path_4476" data-name="Path 4476" d="M581.457,178.865A42,42,0,0,0,595.213,198.1a43.255,43.255,0,0,0,22.137,8.971C617.307,184.551,602.622,169.876,581.457,178.865Z" transform="translate(-167.589 -8.858)" fill="#7f7ff8"/>
    <path id="Path_4477" data-name="Path 4477" d="M519.43,357.456c32.252,2.7,66.79,1.511,92.63.21-12.047-42.019-25.491-70.684-29.822-88.527,0,0-29.019,21.264-40.15,20-6.066-.686-3.883-30.186-3.883-30.186C529.867,287.193,521.937,320.246,519.43,357.456Z" transform="translate(-143.246 -41.344)" fill="#fb9387"/>
    <path id="Path_4478" data-name="Path 4478" d="M519.43,399.044c32.252,2.7,66.791,1.511,92.628.21-3.555-12.4-7.232-23.85-10.757-34.291-24.139-.208-49.622.493-77.766.632C521.988,376.1,520.164,388.111,519.43,399.044Z" transform="translate(-143.246 -82.932)" fill="#fff"/>
    <path id="Path_4479" data-name="Path 4479" d="M558.29,423.314l1.224,9.7-20.593.422-2.872-10.962Z" transform="translate(-149.768 -105.517)" fill="#eaeae9" opacity="0.6" style="mix-blend-mode: multiply;isolation: isolate"/>
    <path id="Path_4480" data-name="Path 4480" d="M550.333,258.956" transform="translate(-155.374 -41.343)" fill="none"/>
    <path id="Path_4481" data-name="Path 4481" d="M595.742,233.452c1.587-4.846,3.132-9.694,4.26-14.638a65.16,65.16,0,0,0,1.949-14.964,33.407,33.407,0,0,0-.816-7.4,20.207,20.207,0,0,0-2.861-6.712,17.2,17.2,0,0,0-5.219-4.992,23.121,23.121,0,0,0-6.79-2.776,19.158,19.158,0,0,0-7.246-.5,16.781,16.781,0,0,0-6.744,2.565,24.249,24.249,0,0,0-5.455,4.945,43.76,43.76,0,0,0-4.213,6.2,83.78,83.78,0,0,0-6.037,13.9c-1.679,4.793-3.055,9.7-4.389,14.619a.45.45,0,0,1-.874-.219c1.143-4.98,2.439-9.935,3.994-14.824a84.656,84.656,0,0,1,5.914-14.247,41.517,41.517,0,0,1,4.305-6.5,25.934,25.934,0,0,1,5.814-5.326,18.532,18.532,0,0,1,7.434-2.872,20.949,20.949,0,0,1,7.936.489,24.848,24.848,0,0,1,7.3,3.027,18.985,18.985,0,0,1,5.729,5.529,21.968,21.968,0,0,1,3.083,7.3,32.779,32.779,0,0,1,.786,7.793,66.382,66.382,0,0,1-2.216,15.3,150.155,150.155,0,0,1-4.685,14.634.509.509,0,0,1-.962-.334Z" transform="translate(-155.752 -10.173)" fill="#3b3b56"/>
    <path id="Path_4482" data-name="Path 4482" d="M538.035,428.144c1.451,5.478,2.886,10.959,4.391,16.42,1.479,5.468,2.993,10.926,4.578,16.36s3.2,10.86,4.983,16.219c.891,2.679,1.824,5.343,2.852,7.957.516,1.3,1.053,2.6,1.65,3.85.294.628.611,1.238.944,1.825a9.063,9.063,0,0,0,1.088,1.577,1.473,1.473,0,0,0,.461.385c.023.019.009,0-.01,0s-.046-.009-.066.014.009,0,.023-.012l.052-.029a.409.409,0,0,0,.111-.08,1.856,1.856,0,0,0,.238-.238,3.906,3.906,0,0,0,.228-.339,5.272,5.272,0,0,0,.394-.824,18.746,18.746,0,0,0,.933-3.928,73.348,73.348,0,0,0,.619-8.369c.143-5.631-.053-11.286-.281-16.936-.247-5.651-.614-11.3-1.04-16.949-.4-5.649-.9-11.292-1.4-16.935a.45.45,0,0,1,.9-.1c.7,5.629,1.286,11.272,1.834,16.919.52,5.651.965,11.309,1.3,16.979s.521,11.354.42,17.058a74.916,74.916,0,0,1-.59,8.583,20.39,20.39,0,0,1-1.016,4.33,7.08,7.08,0,0,1-.519,1.092,5.732,5.732,0,0,1-.364.542,3.628,3.628,0,0,1-.509.515,1.8,1.8,0,0,1-.32.228l-.18.1a.928.928,0,0,1-.218.1,1.547,1.547,0,0,1-.585.094c-.1,0-.193-.013-.287-.027a1.406,1.406,0,0,1-.241-.069,3.02,3.02,0,0,1-1.224-.871,10.567,10.567,0,0,1-1.325-1.913q-.547-.969-1-1.953c-.619-1.311-1.162-2.637-1.684-3.97-1.037-2.666-1.967-5.357-2.855-8.06q-2.648-8.111-4.9-16.319-2.275-8.2-4.368-16.451c-1.373-5.5-2.732-11.01-4-16.538a.509.509,0,0,1,.988-.244Z" transform="translate(-150.155 -107.54)" fill="#3b3b56"/>
    <path id="Path_4483" data-name="Path 4483" d="M592.755,409.234s21.961,73.458,27.429,71.03c7.337-3.258-5.22-72.511-5.22-72.511C611.085,386.752,588.138,390.856,592.755,409.234Z" transform="translate(-171.784 -94.207)" fill="#fff"/>
    <path id="Path_4484" data-name="Path 4484" d="M616.1,423.314l1.815,9.7-20.567.422-3.54-10.962Z" transform="translate(-172.436 -105.517)" fill="#eaeae9" opacity="0.6" style="mix-blend-mode: multiply;isolation: isolate"/>
    <path id="Path_4485" data-name="Path 4485" d="M596.164,428.117c1.776,5.444,3.535,10.893,5.362,16.319q2.7,8.152,5.537,16.253c1.916,5.391,3.828,10.783,5.915,16.1,1.045,2.657,2.123,5.3,3.289,7.89.584,1.294,1.19,2.576,1.84,3.823a21.989,21.989,0,0,0,2.159,3.484c.1.114.2.249.3.343l.152.154.146.119a.612.612,0,0,0,.128.088l.057.039a.215.215,0,0,1,.03.007.067.067,0,0,1,.025.016.019.019,0,0,0-.018-.01c-.007.012-.04,0-.07.013a.078.078,0,0,0-.018.016l.021-.016a.525.525,0,0,1,.046-.028.3.3,0,0,0,.1-.075,1.565,1.565,0,0,0,.221-.236,3.692,3.692,0,0,0,.394-.753,15.326,15.326,0,0,0,.8-3.945,68.51,68.51,0,0,0,.151-8.472c-.19-5.688-.733-11.382-1.307-17.068-.593-5.686-1.306-11.364-2.079-17.034-.747-5.675-1.591-11.337-2.436-17A.45.45,0,0,1,617.8,428c1.044,5.637,1.976,11.293,2.871,16.957.866,5.668,1.658,11.35,2.34,17.049s1.216,11.422,1.454,17.184a70.156,70.156,0,0,1-.112,8.7c-.068.732-.154,1.467-.291,2.207a11.863,11.863,0,0,1-.607,2.244,5.412,5.412,0,0,1-.6,1.142,3.336,3.336,0,0,1-.507.55,1.725,1.725,0,0,1-.329.242l-.186.106-.1.051-.148.049a1.439,1.439,0,0,1-.6.076,2.481,2.481,0,0,1-.284-.033l-.228-.075c-.074-.027-.152-.055-.221-.086l-.172-.1a2.145,2.145,0,0,1-.316-.211l-.27-.221-.227-.225c-.159-.151-.275-.3-.411-.457a23.255,23.255,0,0,1-2.357-3.809c-.669-1.3-1.284-2.606-1.872-3.925-1.175-2.638-2.251-5.306-3.293-7.984q-3.1-8.043-5.837-16.2-2.752-8.152-5.332-16.353c-1.7-5.476-3.382-10.954-4.977-16.459a.509.509,0,0,1,.973-.3Z" transform="translate(-172.972 -107.54)" fill="#3b3b56"/>
    <g id="Group_2607" data-name="Group 2607" transform="translate(447.96 280.401)" opacity="0.5">
      <path id="Path_4486" data-name="Path 4486" d="M638.58,362.709c.673,2.939,1.5,5.859,2.292,8.784l2.457,8.772,1.221,4.393,1.191,4.405c.788,2.941,1.537,5.891,2.162,8.894a.529.529,0,0,1-.14.474.494.494,0,0,1-.646.018.6.6,0,0,1-.072-.073.479.479,0,0,1-.06-.091.645.645,0,0,1-.033-.071l-.034-.088-.046-.14-.076-.262-.137-.51-.255-1.014-.48-2.028-.454-2.033-.215-1.022-.1-.518-.046-.267-.02-.145-.009-.087,0-.066,0-.064,0-.016a.53.53,0,0,1,.021-.089.507.507,0,0,1,.092-.161.45.45,0,0,1,.674.6.408.408,0,0,0,.087-.145.387.387,0,0,0,.019-.081v-.008a.2.2,0,0,0,0-.032c0-.01,0,0,0,0l0,.042.018.113.044.244.1.5.22,1.009.469,2.017.494,2.011.259,1,.137.492.071.237.035.105.013.033c0,.008,0,0-.006-.012a.473.473,0,0,0-.044-.063.446.446,0,0,0-.061-.06.491.491,0,0,0-.257-.107.478.478,0,0,0-.374.128l-.14.473c-.911-2.885-1.889-5.772-2.781-8.681l-1.335-4.367-1.272-4.389c-.818-2.935-1.614-5.879-2.307-8.854a82.475,82.475,0,0,1-1.691-9.029.509.509,0,0,1,1-.177Z" transform="translate(-637.573 -362.306)" fill="#fb9387"/>
    </g>
    <g id="Group_2608" data-name="Group 2608" transform="translate(437.038 280.545)" opacity="0.5">
      <path id="Path_4487" data-name="Path 4487" d="M620.608,362.976c.459,2.909.981,5.813,1.471,8.723l1.507,8.73,1.456,8.744c.482,2.916.923,5.84,1.354,8.764v0a.451.451,0,0,1-.882.182c-.771-2.869-1.443-5.756-2.048-8.656s-1.161-5.81-1.678-8.728c-.5-2.92-.972-5.846-1.354-8.789s-.7-5.9-.84-8.874a.509.509,0,0,1,1.012-.106Z" transform="translate(-619.595 -362.542)" fill="#fb9387"/>
    </g>
    <g id="Group_2609" data-name="Group 2609" transform="translate(417.379 280.738)" opacity="0.5">
      <path id="Path_4488" data-name="Path 4488" d="M588.315,363.337l.7,8.639.674,8.653c.2,2.886.411,5.773.584,8.663.188,2.888.325,5.784.465,8.671v0a.451.451,0,0,1-.9.1c-.485-2.874-.856-5.75-1.168-8.636s-.575-5.772-.805-8.664c-.214-2.893-.4-5.787-.515-8.689s-.171-5.807-.061-8.726a.51.51,0,0,1,1.017-.022Z" transform="translate(-587.236 -362.86)" fill="#fb9387"/>
    </g>
    <g id="Group_2610" data-name="Group 2610" transform="translate(392.939 278.193)" opacity="0.5">
      <path id="Path_4489" data-name="Path 4489" d="M549.686,359.181c.006,3.137,0,6.276-.055,9.415s-.136,6.278-.245,9.418c-.126,3.139-.267,6.279-.485,9.417s-.468,6.274-1,9.418a.451.451,0,0,1-.894-.1v-.019c.089-1.545.145-3.111.175-4.675l.116-4.7c.07-3.135.163-6.271.262-9.408.115-3.137.233-6.274.406-9.411s.38-6.274.7-9.41a.51.51,0,0,1,1.016.053Z" transform="translate(-547.008 -358.671)" fill="#fb9387"/>
    </g>
    <g id="Group_2611" data-name="Group 2611" transform="translate(381.903 278.163)" opacity="0.5">
      <path id="Path_4490" data-name="Path 4490" d="M532.953,359.165c-.186,3.123-.347,6.255-.561,9.383-.2,3.129-.431,6.258-.671,9.386-.256,3.127-.518,6.254-.835,9.378s-.659,6.245-1.147,9.367a.451.451,0,0,1-.9-.088v-.01c.142-3.122.259-6.263.445-9.394.169-3.134.385-6.265.614-9.395.246-3.129.5-6.259.832-9.384s.693-6.247,1.208-9.362a.509.509,0,0,1,1.011.111Z" transform="translate(-528.844 -358.621)" fill="#fb9387"/>
    </g>
    <path id="Path_4491" data-name="Path 4491" d="M538.137,258.769c-2.209,8.055-4.137,16.194-5.979,24.349s-3.541,16.344-5.17,24.545-3.138,16.424-4.461,24.672c-.655,4.125-1.267,8.256-1.772,12.394-.24,2.07-.5,4.139-.652,6.21l-.136,1.552-.069.776-.033.774-.131,3.095-.86-.871,46.315.069,46.315.121-.832,1.181q-3.941-11-7.812-22.019t-7.669-22.07c-2.508-7.374-5-14.753-7.416-22.161-1.2-3.708-2.4-7.413-3.541-11.143-1.159-3.722-2.249-7.47-3.219-11.27l.768.515c-3.817.558-7.634,1.027-11.463,1.445s-7.666.764-11.521.966c-1.928.1-3.86.157-5.8.118-.971-.016-1.945-.069-2.924-.174-.489-.049-.982-.131-1.475-.227-.247-.064-.5-.122-.742-.194l-.7-.253a13.433,13.433,0,0,1-2.67-1.341A14.438,14.438,0,0,1,539,262.914a.45.45,0,0,1,.84-.322l.016.04a13.115,13.115,0,0,0,7.645,7.578l.654.228c.218.061.436.107.654.163.451.081.907.153,1.375.2.933.091,1.879.132,2.83.138,1.9.018,3.812-.06,5.72-.176,3.819-.241,7.635-.631,11.443-1.081s7.613-.975,11.4-1.544a.686.686,0,0,1,.764.5l0,.014c.979,3.738,2.086,7.462,3.264,11.167,1.157,3.71,2.382,7.4,3.6,11.1,2.455,7.383,4.992,14.742,7.543,22.095q7.655,22.06,15.579,44.029a.882.882,0,0,1-.832,1.181l-46.314-.089-46.315-.141h-.029a.833.833,0,0,1-.831-.837v-.034l.137-3.175.036-.793.07-.787.141-1.573c.165-2.1.44-4.184.693-6.269.53-4.165,1.168-8.309,1.847-12.445,1.372-8.269,2.939-16.5,4.6-24.7s3.469-16.385,5.386-24.537,3.936-16.281,6.232-24.344a.509.509,0,0,1,.98.273Z" transform="translate(-142.689 -41.016)" fill="#3b3b56"/>
    <path id="Path_4492" data-name="Path 4492" d="M518.73,272.349q-1.271,5.061-2.722,10.081c-.99,3.34-2.035,6.666-3.2,9.962-.582,1.648-1.189,3.289-1.874,4.906-.661,1.624-1.4,3.223-2.213,4.8a23.9,23.9,0,0,1-2.936,4.54,8.714,8.714,0,0,1-2.225,1.886c-.242.111-.481.227-.731.324a7.919,7.919,0,0,1-.815.187,4.932,4.932,0,0,1-.853.006l-.42-.069a1.534,1.534,0,0,1-.4-.109,6.242,6.242,0,0,1-2.489-1.724,15.89,15.89,0,0,1-1.665-2.208,44.913,44.913,0,0,1-2.507-4.69c-1.487-3.174-2.832-6.372-4.3-9.489a49.423,49.423,0,0,0-2.4-4.532,22.6,22.6,0,0,0-1.43-2.079,11.815,11.815,0,0,0-1.68-1.8,5.007,5.007,0,0,0-4.275-1.383,9.431,9.431,0,0,0-4.208,2.429.45.45,0,0,1-.626-.647,10.019,10.019,0,0,1,4.6-2.894,5.691,5.691,0,0,1,2.875.107,7.112,7.112,0,0,1,2.484,1.357,12.711,12.711,0,0,1,1.925,1.95,23.986,23.986,0,0,1,1.575,2.175,50.779,50.779,0,0,1,2.588,4.614c1.589,3.126,2.926,6.343,4.427,9.442a43.344,43.344,0,0,0,2.44,4.476,14.164,14.164,0,0,0,1.482,1.936,4.505,4.505,0,0,0,1.741,1.222,2.156,2.156,0,0,0,1.8-.2,7.046,7.046,0,0,0,1.727-1.468,22.255,22.255,0,0,0,2.73-4.182,87.488,87.488,0,0,0,4.092-9.452c1.219-3.233,2.323-6.516,3.385-9.815,1.092-3.29,2.075-6.617,3.1-9.933v0a.509.509,0,0,1,.979.275Z" transform="translate(-125.667 -46.351)" fill="#3b3b56"/>
    <path id="Path_4493" data-name="Path 4493" d="M624.989,279.489c.928,2.874,1.967,5.741,3.105,8.553s2.318,5.612,3.634,8.344c.317.689.656,1.366,1,2.043s.67,1.359,1.028,2.026l1.055,2.011c.357.667.739,1.321,1.107,1.982l.557.988.587.97,1.179,1.936,1.245,1.892a17.112,17.112,0,0,0,1.279,1.782,15.421,15.421,0,0,0,3.206,2.862,23.534,23.534,0,0,0,3.891,2.064c2.739,1.182,5.684,2.032,8.543,3.273a26.536,26.536,0,0,1,4.156,2.216,17.124,17.124,0,0,1,3.572,3.144,18.806,18.806,0,0,1,3.894,8.492.45.45,0,0,1-.876.207,23.429,23.429,0,0,0-1.561-4.181,16.014,16.014,0,0,0-2.477-3.623,19.053,19.053,0,0,0-7.335-4.757c-2.773-1.118-5.709-1.968-8.6-3.16a25.365,25.365,0,0,1-4.205-2.178,15.729,15.729,0,0,1-3.6-3.205,18.787,18.787,0,0,1-1.377-1.942l-1.259-1.94-1.189-1.981-.591-.992-.56-1.01c-1.524-2.674-2.88-5.437-4.139-8.238a114.355,114.355,0,0,1-6.247-17.307.509.509,0,0,1,.975-.29Z" transform="translate(-184.282 -49.257)" fill="#3b3b56"/>
    <path id="Path_4494" data-name="Path 4494" d="M567.508,220.918a7.5,7.5,0,0,1,.19-1.563,12.366,12.366,0,0,1,.423-1.482,12.568,12.568,0,0,1,.6-1.422,7.655,7.655,0,0,1,.832-1.343.479.479,0,0,1,.673-.075.484.484,0,0,1,.179.366,7.672,7.672,0,0,1-.162,1.571,12.684,12.684,0,0,1-.4,1.493,12.408,12.408,0,0,1-.571,1.432,7.536,7.536,0,0,1-.8,1.352.538.538,0,0,1-.963-.329Z" transform="translate(-162.115 -24.064)" fill="#3b3b56"/>
    <path id="Path_4495" data-name="Path 4495" d="M591.262,221.286a8.4,8.4,0,0,1-.319,1.634,14.311,14.311,0,0,1-1.267,3.008,8.512,8.512,0,0,1-.947,1.375.475.475,0,0,1-.833-.342,8.578,8.578,0,0,1,.292-1.644,14.179,14.179,0,0,1,.52-1.551,14.036,14.036,0,0,1,.692-1.48,8.339,8.339,0,0,1,.921-1.386.535.535,0,0,1,.941.386Z" transform="translate(-170.116 -26.334)" fill="#3b3b56"/>
    <path id="Path_4496" data-name="Path 4496" d="M635.431,327.066c-4.693.239-9.707.473-14.959.683-11.636-39.2-24.156-66.231-28.3-83.329,3.472-10.97,20.334-50.154-8.592-56.973a20.478,20.478,0,0,0-4.595-.576c4.7-4.68,10.579-7.062,18.036-5.306,28.927,6.819,12.063,46,8.592,56.973C609.938,256.381,623.384,285.044,635.431,327.066Z" transform="translate(-166.619 -10.744)" fill="#f4f4f4" style="mix-blend-mode: multiply;isolation: isolate"/>
    <path id="Path_4497" data-name="Path 4497" d="M568.138,232.362a9.17,9.17,0,0,0,.078,3.777,3.193,3.193,0,0,0,2.084,2.3,3.46,3.46,0,0,0,3.1-.649,6.5,6.5,0,0,0,2.038-3.066l0-.012a.453.453,0,0,1,.878.188,6.232,6.232,0,0,1-1.881,4.108,5.131,5.131,0,0,1-2.138,1.2,4.69,4.69,0,0,1-2.531-.026,4.439,4.439,0,0,1-2.132-1.416,5.027,5.027,0,0,1-1.041-2.236,7.75,7.75,0,0,1,.561-4.448.512.512,0,0,1,.98.267Z" transform="translate(-161.711 -30.671)" fill="#3b3b56"/>
    <path id="Path_4498" data-name="Path 4498" d="M775.547,436.185l3.678,15.484s10.428-.555,18.587,4.41c3.464,2.109,7.324,5.56,5.409,6.7-4.07-2.516-30.244,1.589-33.409,1.225-4.626-.533-10.517-25.877-10.517-25.877C757.8,426.269,774.053,424.33,775.547,436.185Z" transform="translate(-237.346 -107.767)" fill="#fff"/>
    <path id="Path_4499" data-name="Path 4499" d="M690.694,376.031c24.833,1.478,51.707-.084,71.391-1.558-8.911-32.07-17.069-54.376-19.783-68.107,3.06-8.395,17.682-41.395-4.61-45.822-19.885-3.95-25.732,27-30.093,41.967C700.185,324.126,692.956,347.388,690.694,376.031Z" transform="translate(-210.461 -41.831)" fill="#fff"/>
    <path id="Path_4500" data-name="Path 4500" d="M702.409,441.272s4.008,56.177,8.577,54.205c6.13-2.645,8.534-55.756,8.534-55.756C720.195,423.616,702.072,427.2,702.409,441.272Z" transform="translate(-215.057 -108.118)" fill="#fff"/>
    <path id="Path_4501" data-name="Path 4501" d="M690.692,403.9c24.834,1.479,51.465-.078,71.393-1.559-8.912-32.069-17.069-54.375-19.784-68.108-.165.161-23.864,5.953-26.52,5.452-3.216-.607-8.4-8.481-8.4-8.481C699.968,352.816,692.955,375.253,690.692,403.9Z" transform="translate(-210.46 -69.697)" fill="#49cbf9"/>
    <g id="Group_2613" data-name="Group 2613" transform="translate(480.232 261.504)">
      <g id="Group_2612" data-name="Group 2612" clip-path="url(#clip-path)">
        <path id="Path_4502" data-name="Path 4502" d="M691.537,388.859c22.533-1,47.421-1.287,69.775-2.141l-2.713-25.84c-20.842-1-43.078-1.71-66.542,2.611l.21,8.822,62.329-2.762,1.427,6.9-62.943,3.408Z" transform="translate(-691.024 -342.552)" fill="#fff"/>
      </g>
    </g>
    <path id="Path_4504" data-name="Path 4504" d="M754.624,301.413c1.413-4,2.763-8.02,3.769-12.118a52.827,52.827,0,0,0,1.809-12.409,25.337,25.337,0,0,0-.663-6.108,13.338,13.338,0,0,0-2.586-5.357,12.187,12.187,0,0,0-4.736-3.5,18.089,18.089,0,0,0-5.876-1.345,13.747,13.747,0,0,0-5.871.9,15.991,15.991,0,0,0-5.053,3.258,34.811,34.811,0,0,0-7.018,10.2,89.968,89.968,0,0,0-4.6,11.778c-1.334,4.021-2.462,8.117-3.676,12.2a.45.45,0,0,1-.869-.238c2.06-8.237,4.091-16.58,7.709-24.423a44.223,44.223,0,0,1,3.112-5.694,28.032,28.032,0,0,1,4.16-5.08,17.751,17.751,0,0,1,5.583-3.649,15.569,15.569,0,0,1,6.624-1.07l.84.047.827.126.827.128c.276.043.541.126.813.187a18.25,18.25,0,0,1,3.181,1.032,13.967,13.967,0,0,1,5.4,4.036,15.084,15.084,0,0,1,2.9,6.046,25.041,25.041,0,0,1,.639,6.548,54,54,0,0,1-2.083,12.75,115.66,115.66,0,0,1-4.2,12.115.509.509,0,0,1-.952-.36Z" transform="translate(-221.663 -41.256)" fill="#3b3b56"/>
    <path id="Path_4505" data-name="Path 4505" d="M706.793,333.176c-1.926,5.8-3.787,11.625-5.5,17.487-.425,1.467-.858,2.931-1.257,4.4s-.818,2.941-1.2,4.419c-.394,1.475-.784,2.95-1.144,4.432s-.737,2.961-1.072,4.448A244.918,244.918,0,0,0,691,404.477l-.856-.941c11.888.143,23.78-.008,35.67-.32,11.891-.281,23.778-.759,35.676-1.214l-.784,1.075q-2.376-8.534-4.853-17.042t-5.083-16.982c-1.724-5.653-3.445-11.31-5.089-17s-3.24-11.393-4.383-17.227a.45.45,0,0,1,.882-.181v.006c1.225,5.754,2.909,11.418,4.637,17.063s3.546,11.272,5.309,16.915,3.53,11.288,5.245,16.949,3.369,11.343,4.967,17.04a.846.846,0,0,1-.586,1.044.857.857,0,0,1-.189.031h-.008c-11.89.5-23.788,1.016-35.7,1.338-11.908.3-23.824.413-35.741.244h0a.869.869,0,0,1-.857-.881c0-.019,0-.04,0-.059.5-6.12,1.23-12.223,2.231-18.281s2.223-12.076,3.66-18.04c.349-1.494.728-2.98,1.115-4.464s.778-2.967,1.187-4.444.836-2.95,1.269-4.42.88-2.936,1.328-4.4c1.808-5.856,3.762-11.662,5.778-17.442a.509.509,0,0,1,.964.328Z" transform="translate(-209.898 -70.209)" fill="#3b3b56"/>
    <path id="Path_4506" data-name="Path 4506" d="M703.158,456.157c.429,4.14.835,8.282,1.3,12.416.442,4.137.913,8.27,1.444,12.392.546,4.12,1.077,8.242,1.781,12.323.351,2.04.735,4.074,1.215,6.065.244.993.5,1.982.832,2.917a10.466,10.466,0,0,0,.547,1.324,3.384,3.384,0,0,0,.318.508,1.223,1.223,0,0,0,.13.143c.011,0,.013,0,.015.01s-.032-.024-.053-.016a.165.165,0,0,0-.111,0,.093.093,0,0,0-.071.018.961.961,0,0,0,.16-.1,2.1,2.1,0,0,0,.38-.383,6.642,6.642,0,0,0,.7-1.167,20.44,20.44,0,0,0,1.047-2.793,61.345,61.345,0,0,0,1.434-5.983c.793-4.055,1.344-8.171,1.89-12.287.528-4.12.967-8.255,1.365-12.394.423-4.139.767-8.285,1.121-12.432a.451.451,0,0,1,.9.055c-.155,4.167-.411,8.328-.688,12.49-.306,4.159-.67,8.316-1.115,12.468s-1.009,8.3-1.771,12.425a63.169,63.169,0,0,1-1.432,6.171,22.008,22.008,0,0,1-1.126,3.057,8.322,8.322,0,0,1-.9,1.509,3.843,3.843,0,0,1-.718.72,2.68,2.68,0,0,1-.506.306,2.207,2.207,0,0,1-.445.128,1.953,1.953,0,0,1-.5-.023,2.13,2.13,0,0,1-.417-.155,3.517,3.517,0,0,1-.309-.206,2.874,2.874,0,0,1-.4-.423,5.037,5.037,0,0,1-.51-.813,12.116,12.116,0,0,1-.64-1.561c-.356-1.033-.619-2.061-.867-3.092-.485-2.06-.862-4.123-1.207-6.189q-1.013-6.2-1.686-12.42t-1.222-12.452c-.332-4.156-.66-8.311-.9-12.473a.509.509,0,0,1,1.014-.081Z" transform="translate(-214.954 -118.558)" fill="#3b3b56"/>
    <path id="Path_4507" data-name="Path 4507" d="M778.66,452.82c.72,2.732,1.41,5.471,2.108,8.208l-.68-.509a37.893,37.893,0,0,1,7.352.4,35.432,35.432,0,0,1,7.157,1.78,26.429,26.429,0,0,1,6.564,3.482,20.4,20.4,0,0,1,2.861,2.465,6.95,6.95,0,0,1,1.21,1.681,2.516,2.516,0,0,1,.264,1.355,1.754,1.754,0,0,1-.328.828,2.05,2.05,0,0,1-.6.538.837.837,0,0,1-.868.023l-.052-.03a4.817,4.817,0,0,0-1.324-.406c-.26-.044-.53-.077-.795-.115l-.82-.073c-1.106-.075-2.235-.082-3.366-.067-2.264.045-4.546.157-6.825.323-4.562.323-9.123.805-13.7,1.245-1.145.112-2.293.206-3.451.284-.578.041-1.163.069-1.76.084a9.15,9.15,0,0,1-.967-.03,2.642,2.642,0,0,1-1.128-.443,5.75,5.75,0,0,1-1.386-1.41,14.583,14.583,0,0,1-.968-1.536,32.6,32.6,0,0,1-1.506-3.185c-.9-2.151-1.615-4.351-2.3-6.555s-1.293-4.427-1.854-6.661a.45.45,0,0,1,.868-.241,120.149,120.149,0,0,0,4.563,12.91,31.2,31.2,0,0,0,1.5,3.009,13.017,13.017,0,0,0,.9,1.357,4.332,4.332,0,0,0,1.026,1.023,1.1,1.1,0,0,0,.459.183c.215.014.484.011.754,0,.55-.027,1.112-.066,1.679-.118,1.131-.1,2.27-.227,3.409-.34,4.562-.476,9.134-1,13.734-1.359,2.3-.177,4.607-.34,6.936-.358,1.166-.008,2.334,0,3.52.09l.9.086c.3.045.6.084.909.137a8.377,8.377,0,0,1,.939.229c.163.057.316.092.487.169s.343.167.511.254l-.92-.008c.044-.033.078-.055.073-.058s-.008.011,0,0a.907.907,0,0,0-.108-.389,5.36,5.36,0,0,0-.9-1.235,18.783,18.783,0,0,0-2.6-2.256,24.211,24.211,0,0,0-2.951-1.866,26.682,26.682,0,0,0-3.171-1.475,33.884,33.884,0,0,0-6.809-1.832c-1.165-.2-2.343-.332-3.521-.436a35.008,35.008,0,0,0-3.526-.135h-.034a.651.651,0,0,1-.646-.51c-.608-2.758-1.222-5.515-1.808-8.278a.509.509,0,0,1,.99-.236Z" transform="translate(-238.244 -117.279)" fill="#3b3b56"/>
    <path id="Path_4508" data-name="Path 4508" d="M774.833,297.9c.936-3.033,1.986-6.015,3.043-9q1.627-4.462,3.389-8.875,3.539-8.82,7.8-17.346c1.453-2.824,2.984-5.612,4.638-8.335q1.235-2.044,2.587-4.024c.9-1.32,1.848-2.612,2.874-3.848a36.521,36.521,0,0,1,3.3-3.541,17.992,17.992,0,0,1,3.978-2.887,10.464,10.464,0,0,1,1.16-.495c.2-.067.395-.149.6-.2l.623-.151a6.867,6.867,0,0,1,2.572-.06,7.777,7.777,0,0,1,4.315,2.487.45.45,0,0,1-.624.648l-.016-.015a8.655,8.655,0,0,0-1.8-1.318,5.524,5.524,0,0,0-2.041-.678,6.871,6.871,0,0,0-4.166.967,16.894,16.894,0,0,0-3.589,2.767,34.99,34.99,0,0,0-3.064,3.473,99.865,99.865,0,0,0-9.716,16.038c-2.875,5.591-5.433,11.351-7.9,17.15q-1.852,4.349-3.583,8.75c-1.182,2.922-2.305,5.874-3.413,8.82l0,0a.509.509,0,0,1-.963-.329Z" transform="translate(-243.473 -33.525)" fill="#3b3b56"/>
    <path id="Path_4509" data-name="Path 4509" d="M699.022,292.257c-.653-3.007-1.189-6.025-1.781-9.032-.56-3.012-1.129-6.02-1.736-9.019-1.2-6-2.459-11.983-4.054-17.87a95.441,95.441,0,0,0-5.976-17.178,34.446,34.446,0,0,0-2.2-3.917,18.525,18.525,0,0,0-2.813-3.4,11.168,11.168,0,0,0-1.714-1.316,8.08,8.08,0,0,0-1.951-.832,6.881,6.881,0,0,0-2.105-.187,8.4,8.4,0,0,0-2.112.447l-.026.008a.45.45,0,0,1-.3-.847,9.335,9.335,0,0,1,2.341-.637,7.894,7.894,0,0,1,2.462.109,9.282,9.282,0,0,1,2.306.865,12.376,12.376,0,0,1,1.991,1.392,19.527,19.527,0,0,1,3.137,3.577,35.848,35.848,0,0,1,2.415,4.026,65.051,65.051,0,0,1,3.6,8.575c1.019,2.919,1.905,5.877,2.713,8.851,1.554,5.965,2.835,11.984,3.916,18.032q.8,4.537,1.517,9.084l1.375,9.087v0a.509.509,0,0,1-1,.184Z" transform="translate(-203.108 -29.361)" fill="#3b3b56"/>
    <path id="Path_4510" data-name="Path 4510" d="M737.529,298.516a8.71,8.71,0,0,0-.146,1.9,3.537,3.537,0,0,0,.428,1.605,2.134,2.134,0,0,0,1.114.907,3.052,3.052,0,0,0,1.579.125,6.969,6.969,0,0,0,3.25-1.55,15.042,15.042,0,0,0,2.641-2.9l.006-.008a.454.454,0,0,1,.791.428,10.3,10.3,0,0,1-2.367,3.676,7.582,7.582,0,0,1-4.055,2.162,4.727,4.727,0,0,1-2.507-.264,3.694,3.694,0,0,1-1.922-1.8,4.613,4.613,0,0,1-.383-2.423,6.986,6.986,0,0,1,.6-2.171.512.512,0,0,1,.972.293Z" transform="translate(-228.215 -56.629)" fill="#3b3b56"/>
    <path id="Path_4511" data-name="Path 4511" d="M741.2,283.341a6.729,6.729,0,0,1-.14,1.48,11.021,11.021,0,0,1-.375,1.4,11.2,11.2,0,0,1-.552,1.346,6.883,6.883,0,0,1-.786,1.27.482.482,0,0,1-.856-.279,6.856,6.856,0,0,1,.113-1.488,11.286,11.286,0,0,1,.347-1.413,11.171,11.171,0,0,1,.524-1.355,6.755,6.755,0,0,1,.759-1.278.541.541,0,0,1,.76-.092A.547.547,0,0,1,741.2,283.341Z" transform="translate(-229.218 -50.708)" fill="#3b3b56"/>
    <path id="Path_4512" data-name="Path 4512" d="M758.214,284.539a8.321,8.321,0,0,1-.182,1.651,13.885,13.885,0,0,1-.417,1.576,14.13,14.13,0,0,1-.595,1.52,8.5,8.5,0,0,1-.829,1.445.476.476,0,0,1-.665.1.481.481,0,0,1-.193-.372,8.5,8.5,0,0,1,.154-1.659,14.132,14.132,0,0,1,.389-1.586,13.951,13.951,0,0,1,.566-1.529,8.4,8.4,0,0,1,.8-1.454.535.535,0,0,1,.97.307Z" transform="translate(-235.828 -51.175)" fill="#3b3b56"/>
    <path id="Path_4513" data-name="Path 4513" d="M784.629,374.471c-3.429.255-7.08.516-10.9.764-8.688-31-16.562-52.657-19.218-66.1,3.06-8.4,17.681-41.4-4.609-45.823a17.25,17.25,0,0,0-1.767-.262,14.915,14.915,0,0,1,12.1-2.509c22.294,4.428,7.674,37.427,4.614,45.823C767.562,320.094,775.718,342.4,784.629,374.471Z" transform="translate(-233.005 -41.83)" fill="#eaeae9" opacity="0.6" style="mix-blend-mode: multiply;isolation: isolate"/>
    <path id="Path_4514" data-name="Path 4514" d="M761.519,450.552l16.149-1.159,1.708,6.962-16.227.811Z" transform="translate(-238.257 -116.083)" fill="#eaeae9" opacity="0.6" style="mix-blend-mode: multiply;isolation: isolate"/>
    <path id="Path_4515" data-name="Path 4515" d="M702.4,451.6l1.032,7.958,15.261-.228.931-7.866Z" transform="translate(-215.054 -116.897)" fill="#eaeae9" opacity="0.6" style="mix-blend-mode: multiply;isolation: isolate"/>
    <ellipse id="Ellipse_341" data-name="Ellipse 341" cx="2.625" cy="2.205" rx="2.625" ry="2.205" transform="matrix(1, -0.024, 0.024, 1, 491.563, 352.47)" fill="#eaeae9" opacity="0.6" style="mix-blend-mode: multiply;isolation: isolate"/>
    <ellipse id="Ellipse_342" data-name="Ellipse 342" cx="2.625" cy="2.205" rx="2.625" ry="2.205" transform="matrix(1, -0.024, 0.024, 1, 532.322, 352.538)" fill="#eaeae9" opacity="0.6" style="mix-blend-mode: multiply;isolation: isolate"/>
    <ellipse id="Ellipse_343" data-name="Ellipse 343" cx="3.498" cy="2.939" rx="3.498" ry="2.939" transform="translate(274.9 342.007)" fill="#eaeae9" opacity="0.6" style="mix-blend-mode: multiply;isolation: isolate"/>
    <ellipse id="Ellipse_344" data-name="Ellipse 344" cx="3.498" cy="2.939" rx="3.498" ry="2.939" transform="translate(330.137 342.007)" fill="#eaeae9" opacity="0.6" style="mix-blend-mode: multiply;isolation: isolate"/>
    <ellipse id="Ellipse_345" data-name="Ellipse 345" cx="3.498" cy="2.939" rx="3.498" ry="2.939" transform="translate(397.134 342.217)" fill="#eaeae9" opacity="0.6" style="mix-blend-mode: multiply;isolation: isolate"/>
    <ellipse id="Ellipse_346" data-name="Ellipse 346" cx="3.498" cy="2.939" rx="3.498" ry="2.939" transform="translate(434.099 341.377)" fill="#eaeae9" opacity="0.6" style="mix-blend-mode: multiply;isolation: isolate"/>
    <ellipse id="Ellipse_347" data-name="Ellipse 347" cx="2.112" cy="2.737" rx="2.112" ry="2.737" transform="translate(323.144 238.806) rotate(-9.3)" fill="#fdc54f"/>
    <ellipse id="Ellipse_348" data-name="Ellipse 348" cx="1.912" cy="2.478" rx="1.912" ry="2.478" transform="translate(325.267 250.443) rotate(-9.298)" fill="#fdc54f"/>
    <path id="Path_4516" data-name="Path 4516" d="M195.226,296.2c-13.049,3.035-26.673,7.981-37.385-3.57,0,0,4.831.84,4.621-7.141-.355-13.5-2.73-25.833,13.232-32.554,21.69-9.133,29.135,11.04,32.764,18.9,2.52,5.461,7.771,2.941,7.771,2.941S213.288,292,195.226,296.2Z" transform="translate(-1.336 -38.07)" fill="#7f7ff8"/>
    <path id="Path_4517" data-name="Path 4517" d="M182.823,440.758l.048,15.981c-5.343,10.342-8.659,34.581-6.367,34.7s13.145-20.774,20.846-31.415c1.727-2.387,2.529-21.6,2.529-21.6C198.5,425.177,181.259,427.6,182.823,440.758Z" transform="translate(-8.372 -108.318)" fill="#fff"/>
    <path id="Path_4518" data-name="Path 4518" d="M235.207,373.64c-24.789,2.076-51.694,1.162-71.408.162,8.137-32.276,15.755-54.771,18.137-68.564-3.262-8.319-18.675-40.957,3.5-45.92,19.783-4.427,26.374,26.368,31.094,41.23C224.468,321.979,232.256,345.061,235.207,373.64Z" transform="translate(-3.674 -41.317)" fill="#fff"/>
    <path id="Path_4519" data-name="Path 4519" d="M260.536,437.759s2,55.88-2.724,54.838c-6.346-1.4-14.369-53.022-14.369-53.022C241.063,423.91,259.374,423.892,260.536,437.759Z" transform="translate(-34.848 -107.523)" fill="#fff"/>
    <path id="Path_4520" data-name="Path 4520" d="M235.208,400.554c-24.791,2.077-51.452,1.162-71.41.162,8.137-32.275,15.753-54.771,18.137-68.565,9.328,15.637,28.65,16.687,26.969,3.876,9.241,8.821,13.862,2.1,7.631-8.563C224.469,348.894,232.256,371.974,235.208,400.554Z" transform="translate(-3.674 -68.23)" fill="#37e1ca"/>
    <path id="Path_4521" data-name="Path 4521" d="M172.363,267.294c-2.515,29.039,26.126-3.253,18.95-9.164C185.725,253.527,176.73,255.5,172.363,267.294Z" transform="translate(-6.973 -40.119)" fill="#7f7ff8"/>
    <path id="Path_4522" data-name="Path 4522" d="M199.642,258.943c-5.614-5.066-1.082-7.307,6.256-6.095s10.943,7.807,8.481,9.654C211.577,264.6,204.569,263.18,199.642,258.943Z" transform="translate(-16.754 -38.82)" fill="#7f7ff8"/>
    <path id="Path_4523" data-name="Path 4523" d="M235.207,431.159c-24.789,2.077-51.454,1.16-71.41.16,2.386-9.456,4.726-18.072,6.9-25.879,18.673,1.3,42.2,1.094,60.732,1.67A232.756,232.756,0,0,1,235.207,431.159Z" transform="translate(-3.673 -98.833)" fill="#fff"/>
    <path id="Path_4524" data-name="Path 4524" d="M182.766,453.745c.1,4.09.156,8.18.234,12.27a.656.656,0,0,1-.066.3l-.013.026a55.075,55.075,0,0,0-3.619,10.4c-.46,1.792-.868,3.6-1.236,5.414s-.713,3.636-1,5.464-.538,3.663-.721,5.5a38.107,38.107,0,0,0-.224,5.445,6.382,6.382,0,0,0,.162,1.2.806.806,0,0,0,.033.11.393.393,0,0,0,.032.081c.01.024.018.041.015.031,0,.015-.015-.026-.049-.049a.743.743,0,0,0-.089-.064c-.035-.015-.078-.033-.135-.052a.46.46,0,0,0-.231-.005c-.052,0-.033.013.018-.024a2.484,2.484,0,0,0,.382-.326c.141-.138.283-.3.425-.459.281-.33.557-.684.829-1.045,1.085-1.454,2.1-3.016,3.093-4.578,3.978-6.28,7.69-12.772,11.82-19.02,1.029-1.565,2.08-3.118,3.178-4.645l.414-.571c.066-.092.148-.2.2-.278.035-.069.072-.135.113-.2a7.708,7.708,0,0,0,.4-1.2c.221-.865.388-1.773.538-2.681.591-3.647.914-7.368,1.257-11.075v0a.45.45,0,0,1,.9.061c-.169,3.736-.4,7.465-.88,11.206a28.545,28.545,0,0,1-.487,2.819,8.822,8.822,0,0,1-.461,1.462q-.109.208-.228.411c-.073.115-.135.2-.2.294l-.4.569c-1.051,1.524-2.061,3.083-3.051,4.656-3.942,6.308-7.657,12.77-11.6,19.139-1,1.589-2,3.172-3.139,4.718-.285.387-.583.769-.91,1.146-.167.189-.335.377-.529.565a4.108,4.108,0,0,1-.691.567,1.944,1.944,0,0,1-.616.263,1.307,1.307,0,0,1-.577-.013.944.944,0,0,1-.3-.117,1.211,1.211,0,0,1-.232-.162,1.508,1.508,0,0,1-.27-.318,1.657,1.657,0,0,1-.149-.276,1.912,1.912,0,0,1-.095-.244,2.215,2.215,0,0,1-.068-.225,8,8,0,0,1-.214-1.567,39.62,39.62,0,0,1,.258-5.728c.2-1.877.459-3.741.762-5.6a104.3,104.3,0,0,1,2.4-11.016c.5-1.814,1.052-3.616,1.686-5.4a40.009,40.009,0,0,1,2.242-5.238l-.079.326c.054-4.091.081-8.18.161-12.271a.509.509,0,0,1,1.018,0Z" transform="translate(-7.794 -117.596)" fill="#3b3b56"/>
    <path id="Path_4525" data-name="Path 4525" d="M185.593,300.632a115.556,115.556,0,0,1-4.427-11.825,54.953,54.953,0,0,1-2.414-12.489,25.567,25.567,0,0,1,.38-6.462,16.179,16.179,0,0,1,2.49-6.109,13.868,13.868,0,0,1,5.054-4.314,12.054,12.054,0,0,1,1.512-.68,14.4,14.4,0,0,1,1.558-.536c.53-.135,1.05-.307,1.59-.409s1.079-.208,1.625-.278a15.672,15.672,0,0,1,6.584.569,17.09,17.09,0,0,1,5.758,3.181,26.061,26.061,0,0,1,4.4,4.75,40.613,40.613,0,0,1,3.338,5.459c3.893,7.574,6.167,15.728,8.384,23.793a.45.45,0,0,1-.863.257c-1.286-3.989-2.519-7.984-3.962-11.9a82.353,82.353,0,0,0-4.965-11.407,31.985,31.985,0,0,0-7.43-9.615,15.344,15.344,0,0,0-5.184-2.822,13.852,13.852,0,0,0-5.843-.458,17.933,17.933,0,0,0-5.69,1.691,12.08,12.08,0,0,0-4.43,3.732,14.454,14.454,0,0,0-2.234,5.435,26.039,26.039,0,0,0-.424,6.044,53.787,53.787,0,0,0,2.132,12.168c1.093,4.009,2.516,7.933,4,11.84a.509.509,0,0,1-.942.383Z" transform="translate(-9.523 -40.736)" fill="#3b3b56"/>
    <path id="Path_4526" data-name="Path 4526" d="M261.453,451.919c.208,4.265.329,8.532.444,12.8q.128,6.4.115,12.816t-.369,12.835c-.131,2.143-.3,4.285-.587,6.439a27.348,27.348,0,0,1-.614,3.255,7.369,7.369,0,0,1-.651,1.707,2.241,2.241,0,0,1-.913.945,1.525,1.525,0,0,1-.467.149,1.731,1.731,0,0,1-.507-.013,2.44,2.44,0,0,1-.6-.219,4.464,4.464,0,0,1-1.476-1.346,11.959,11.959,0,0,1-.919-1.467,27.554,27.554,0,0,1-1.365-3.012c-.793-2.029-1.441-4.083-2.044-6.146-1.19-4.129-2.2-8.29-3.088-12.475s-1.7-8.379-2.462-12.583c-.728-4.21-1.436-8.422-2.044-12.649a.45.45,0,0,1,.888-.149c.8,4.187,1.6,8.376,2.469,12.547.846,4.176,1.732,8.343,2.7,12.485.987,4.138,1.979,8.277,3.194,12.334.608,2.027,1.261,4.039,2.036,5.98a25.887,25.887,0,0,0,1.293,2.8,10.143,10.143,0,0,0,.784,1.238,2.806,2.806,0,0,0,.852.81.965.965,0,0,0,.142.06.309.309,0,0,0-.2.02c-.063.039.066-.043.149-.22a5.737,5.737,0,0,0,.481-1.276,25.6,25.6,0,0,0,.584-3.027c.292-2.073.465-4.186.605-6.3.278-4.233.368-8.489.473-12.745.089-4.258.115-8.519.111-12.781.024-4.263-.018-8.526-.035-12.79a.509.509,0,0,1,1.018-.027Z" transform="translate(-35.111 -116.884)" fill="#3b3b56"/>
    <path id="Path_4527" data-name="Path 4527" d="M226.221,282.663a6.744,6.744,0,0,1,1.015,1.086,10.967,10.967,0,0,1,.8,1.211,11.245,11.245,0,0,1,.642,1.305,6.889,6.889,0,0,1,.43,1.43.482.482,0,0,1-.776.456,6.888,6.888,0,0,1-1.04-1.072,11.154,11.154,0,0,1-.827-1.2,10.953,10.953,0,0,1-.668-1.29,6.729,6.729,0,0,1-.454-1.415.542.542,0,0,1,.434-.631A.548.548,0,0,1,226.221,282.663Z" transform="translate(-27.825 -50.599)" fill="#3b3b56"/>
    <path id="Path_4528" data-name="Path 4528" d="M208.15,287.35a8.318,8.318,0,0,1,1.1,1.248,14.354,14.354,0,0,1,1.6,2.837,8.476,8.476,0,0,1,.506,1.587.476.476,0,0,1-.375.559.481.481,0,0,1-.405-.109,8.543,8.543,0,0,1-1.12-1.235,14.11,14.11,0,0,1-.906-1.357,13.816,13.816,0,0,1-.745-1.45,8.336,8.336,0,0,1-.532-1.573.535.535,0,0,1,.882-.508Z" transform="translate(-20.73 -52.433)" fill="#3b3b56"/>
    <path id="Path_4529" data-name="Path 4529" d="M226.677,296.791a6.864,6.864,0,0,1,1.136,3.844,3.81,3.81,0,0,1-.748,2.187,3.235,3.235,0,0,1-.939.829,3.636,3.636,0,0,1-1.16.422,4.454,4.454,0,0,1-2.262-.261,5.877,5.877,0,0,1-1.8-1.114,7.871,7.871,0,0,1-2.163-3.291.455.455,0,0,1,.794-.422l.007.009a10.755,10.755,0,0,0,2.364,2.453,3.853,3.853,0,0,0,2.744.829,1.605,1.605,0,0,0,1.005-.567,2.34,2.34,0,0,0,.5-1.219,8.4,8.4,0,0,0-.406-3.28l0-.016a.513.513,0,0,1,.932-.4Z" transform="translate(-25.228 -56.096)" fill="#3b3b56"/>
    <path id="Path_4530" data-name="Path 4530" d="M202.569,348.62a49.816,49.816,0,0,0,5.038,7.54,39.589,39.589,0,0,0,6.348,6.4,25.6,25.6,0,0,0,7.754,4.276,19.339,19.339,0,0,0,4.3.882,14.408,14.408,0,0,0,4.318-.232,24.494,24.494,0,0,0,8.04-3.641c2.553-1.626,5.007-3.491,7.677-5.1a26.764,26.764,0,0,1,8.68-3.649,17.77,17.77,0,0,1,9.363.768.451.451,0,0,1-.275.858,19.216,19.216,0,0,0-4.408-.729,16.137,16.137,0,0,0-4.4.424,25.324,25.324,0,0,0-8.1,3.693c-2.537,1.643-4.987,3.486-7.586,5.2a37.075,37.075,0,0,1-4.079,2.362,19,19,0,0,1-4.539,1.595,15.373,15.373,0,0,1-2.424.3,19.257,19.257,0,0,1-2.42-.069,21.085,21.085,0,0,1-4.692-.993,25.633,25.633,0,0,1-8.23-4.668,40.227,40.227,0,0,1-6.436-6.8q-1.4-1.872-2.617-3.861a39.591,39.591,0,0,1-2.227-4.107.509.509,0,0,1,.908-.457Z" transform="translate(-18.511 -76.421)" fill="#3b3b56"/>
    <g id="Group_2614" data-name="Group 2614" transform="translate(166.42 303.233)" opacity="0.5">
      <path id="Path_4531" data-name="Path 4531" d="M180.711,400.44c-.211,2.482-.564,4.943-.994,7.385s-.914,4.869-1.417,7.289q-.779,3.625-1.6,7.232l-1.647,7.209v0a.451.451,0,0,1-.889-.137c.2-2.482.546-4.945.965-7.388s.894-4.872,1.388-7.294q.765-3.628,1.571-7.238l1.618-7.212v0a.51.51,0,0,1,1.005.155Z" transform="translate(-174.16 -399.886)" fill="#37e1ca"/>
    </g>
    <g id="Group_2615" data-name="Group 2615" transform="translate(176.987 304.473)" opacity="0.5">
      <path id="Path_4532" data-name="Path 4532" d="M195.249,402.467q-.2,3.432-.532,6.843c-.207,2.275-.449,4.546-.682,6.816-.493,4.539-.977,9.071-1.556,13.609a.452.452,0,0,1-.9-.044c-.058-2.3-.015-4.6.111-6.891s.308-4.58.532-6.862c.24-2.28.51-4.557.845-6.825s.716-4.529,1.174-6.778a.51.51,0,0,1,1.009.132Z" transform="translate(-191.553 -401.927)" fill="#37e1ca"/>
    </g>
    <g id="Group_2616" data-name="Group 2616" transform="translate(197.758 306.411)" opacity="0.5">
      <path id="Path_4533" data-name="Path 4533" d="M227.238,405.6q.163,3.281.234,6.552c.057,2.183.083,4.366.1,6.554,0,2.188-.01,4.378-.092,6.571s-.213,4.385-.44,6.571a.452.452,0,0,1-.9-.023q-.177-3.282-.262-6.553c-.066-2.183-.1-4.367-.129-6.555-.01-2.187-.01-4.379.062-6.57s.194-4.385.411-6.572a.51.51,0,0,1,1.018.025Z" transform="translate(-225.742 -405.118)" fill="#37e1ca"/>
    </g>
    <g id="Group_2617" data-name="Group 2617" transform="translate(214.298 305.824)" opacity="0.5">
      <path id="Path_4534" data-name="Path 4534" d="M254.024,404.607q.407,3.395.649,6.8c.173,2.267.3,4.536.407,6.805.194,4.54.324,9.083.191,13.636a.451.451,0,0,1-.9.044v-.006c-.567-4.525-.873-9.06-1.114-13.6-.106-2.27-.2-4.54-.246-6.812s-.058-4.546,0-6.821a.51.51,0,0,1,1.016-.049Z" transform="translate(-252.968 -404.151)" fill="#37e1ca"/>
    </g>
    <path id="Path_4535" data-name="Path 4535" d="M191.7,307.76c-2.332,13.5-9.678,35.331-17.616,66.515-3.6-.144-7.041-.309-10.287-.473,8.14-32.275,15.757-54.773,18.139-68.564-3.262-8.32-18.677-40.957,3.5-45.921a14.906,14.906,0,0,1,12.068,2.159,17.414,17.414,0,0,0-2.3.362C173.027,266.8,188.438,299.439,191.7,307.76Z" transform="translate(-3.673 -41.316)" fill="#eaeae9" opacity="0.6" style="mix-blend-mode: multiply;isolation: isolate"/>
    <path id="Path_4536" data-name="Path 4536" d="M244.191,449.4l1.4,7.561,15.542-.28.14-8.261Z" transform="translate(-35.225 -115.702)" fill="#eaeae9" opacity="0.6" style="mix-blend-mode: multiply;isolation: isolate"/>
    <path id="Path_4537" data-name="Path 4537" d="M186.574,448.652l.7,7.841,16.1.14.98-7.561Z" transform="translate(-12.613 -115.792)" fill="#eaeae9" opacity="0.6" style="mix-blend-mode: multiply;isolation: isolate"/>
    <ellipse id="Ellipse_349" data-name="Ellipse 349" cx="2.625" cy="2.205" rx="2.625" ry="2.205" transform="translate(182.548 346.556)" fill="#eaeae9" opacity="0.6" style="mix-blend-mode: multiply;isolation: isolate"/>
    <ellipse id="Ellipse_350" data-name="Ellipse 350" cx="5.916" cy="5.362" rx="5.916" ry="5.362" transform="matrix(0.801, -0.599, 0.599, 0.801, 154.437, 233.283)" fill="#fb9387"/>
    <path id="Path_4538" data-name="Path 4538" d="M163.31,282.791a.91.91,0,0,0,.853.156,3.3,3.3,0,0,0,1.081-.422,2.58,2.58,0,0,0,.821-.733.491.491,0,0,0,.1-.3.265.265,0,0,0-.132-.153,4.28,4.28,0,0,0-1.061-.423,9.987,9.987,0,0,0-1.231-.251,8.944,8.944,0,0,0-2.484-.031,3.079,3.079,0,0,0-1.939.88,2.236,2.236,0,0,0-.224,1.976c.426,1.524,1.314,3.131,2.661,3.7a3.356,3.356,0,0,0,2.174.176,5.621,5.621,0,0,0,2.118-1.049,6.807,6.807,0,0,0,2.557-4,4.121,4.121,0,0,0,.044-1.164,3.931,3.931,0,0,0-.1-.569c-.06-.19-.133-.38-.2-.572a4.1,4.1,0,0,0-1.366-1.882,5.81,5.81,0,0,0-4.736-.612l-.027.006a.337.337,0,0,1-.186-.648,7.625,7.625,0,0,1,2.767-.4,5.338,5.338,0,0,1,2.756.834,5.112,5.112,0,0,1,1.81,2.289c.087.225.18.447.26.678a5.12,5.12,0,0,1,.156.736,5.292,5.292,0,0,1,0,1.489,6.837,6.837,0,0,1-1.024,2.708,8.339,8.339,0,0,1-1.914,2.134,6.922,6.922,0,0,1-2.606,1.321,4.711,4.711,0,0,1-3.038-.221,5.237,5.237,0,0,1-2.242-2,8.918,8.918,0,0,1-1.15-2.643,4.438,4.438,0,0,1-.125-1.541,2.9,2.9,0,0,1,.628-1.562,3.285,3.285,0,0,1,1.332-.944,5.786,5.786,0,0,1,1.455-.347,10.122,10.122,0,0,1,2.823.119,11.131,11.131,0,0,1,1.366.325,4.926,4.926,0,0,1,1.375.627,1.281,1.281,0,0,1,.534.949,1.49,1.49,0,0,1-.311.937,3.488,3.488,0,0,1-1.191.977,4.129,4.129,0,0,1-1.416.462,2.251,2.251,0,0,1-.812-.044,1.352,1.352,0,0,1-.772-.505.382.382,0,0,1,.606-.464Z" transform="translate(-1.267 -48.214)" fill="#3b3b56"/>
    <g id="Group_2618" data-name="Group 2618" transform="translate(221.594 304.951)" opacity="0.5">
      <path id="Path_4539" data-name="Path 4539" d="M266,403.162l1.776,13.419c.273,2.244.547,4.492.755,6.751s.371,4.527.412,6.8a.452.452,0,0,1-.9.084c-.383-2.229-.764-4.455-1.106-6.69s-.672-4.473-.974-6.718c-.284-2.248-.549-4.5-.728-6.769s-.291-4.544-.255-6.826a.51.51,0,0,1,1.016-.059Z" transform="translate(-264.977 -402.715)" fill="#37e1ca"/>
    </g>
    <path id="Path_4540" data-name="Path 4540" d="M214.367,319.419a10.69,10.69,0,0,1-1.346,1.832,11.419,11.419,0,0,1-1.663,1.52,9.586,9.586,0,0,1-4.153,1.815,30.887,30.887,0,0,1-4.395.14c-1.447-.032-2.886-.1-4.325-.187-5.752-.357-11.472-.911-17.193-1.539l.759-.566c-1.016,5.874-2.518,11.612-4.049,17.329s-3.152,11.4-4.742,17.1c-3.19,11.383-6.291,22.781-9.181,34.235l-.818-1.083c11.9.343,23.793.607,35.687.642q8.92.029,17.835-.145c5.942-.118,11.882-.323,17.809-.674l-.829.976q-.936-9.077-2.625-18.062c-1.116-5.985-2.471-11.927-4-17.823s-3.258-11.744-5.105-17.556c-.924-2.906-1.884-5.8-2.854-8.7l-1.449-4.354a43.868,43.868,0,0,1-1.295-4.5.736.736,0,0,1,1-.829l.016.007a22.545,22.545,0,0,0,7.06,1.724,20.9,20.9,0,0,0,7.214-.786,34.446,34.446,0,0,0,6.807-2.838c2.191-1.165,4.31-2.489,6.422-3.841a106.588,106.588,0,0,1,13.059-7.662,36.368,36.368,0,0,1,7.219-2.474,29.384,29.384,0,0,1,7.608-.686.45.45,0,0,1-.033.9,28.442,28.442,0,0,0-7.355.748,35.37,35.37,0,0,0-6.987,2.485A105.768,105.768,0,0,0,245.63,314.3c-2.1,1.382-4.235,2.749-6.468,3.97a35.316,35.316,0,0,1-7.06,3,22.324,22.324,0,0,1-7.69.885,24.013,24.013,0,0,1-7.533-1.783l1.017-.823a43.49,43.49,0,0,0,1.272,4.292l1.473,4.333c.989,2.891,1.971,5.79,2.917,8.7q2.851,8.73,5.205,17.622c1.557,5.927,2.935,11.9,4.074,17.931s2.046,12.1,2.69,18.2a.884.884,0,0,1-.787.972l-.035,0H234.7c-11.915.728-23.842.905-35.758.848s-23.828-.339-35.732-.7h0a.869.869,0,0,1-.842-.895.913.913,0,0,1,.026-.188q2.191-8.6,4.518-17.165,2.354-8.555,4.806-17.08c1.623-5.685,3.267-11.363,4.835-17.054s3.072-11.4,4.145-17.168l0-.01a.69.69,0,0,1,.758-.557c5.688.686,11.4,1.3,17.108,1.713,1.428.1,2.855.183,4.279.23a30.212,30.212,0,0,0,4.209-.084,9.614,9.614,0,0,0,6.423-4.557l.019-.033a.508.508,0,0,1,.875.518Z" transform="translate(-3.111 -58.395)" fill="#3b3b56"/>
  </g>
</svg>
