<svg xmlns="http://www.w3.org/2000/svg" width="17" height="21" viewBox="0 0 17 21">
  <g id="family-child" transform="translate(-7 -1.5)">
    <path id="Path_4873" data-name="Path 4873" d="M19.5,9a3.75,3.75,0,1,1,3.75-3.75A3.754,3.754,0,0,1,19.5,9Zm0-6a2.25,2.25,0,1,0,2.25,2.25A2.252,2.252,0,0,0,19.5,3Z" fill="#7f7ff8"/>
    <path id="Path_4874" data-name="Path 4874" d="M18,22.5a.751.751,0,0,1-.744-.657l-.188-1.5a.75.75,0,0,1,.651-.838.734.734,0,0,1,.092-.006.751.751,0,0,1,.745.657l.106.844h1.676l.668-5.343A.751.751,0,0,1,21.75,15h.75V13.5a3,3,0,0,0-4.8-2.4.75.75,0,0,1-.9-1.2A4.5,4.5,0,0,1,24,13.5v2.25a.75.75,0,0,1-.75.75h-.838l-.668,5.343A.751.751,0,0,1,21,22.5Z" fill="#7f7ff8"/>
    <path id="Path_4875" data-name="Path 4875" d="M4.5,9A3.75,3.75,0,1,1,8.25,5.25,3.754,3.754,0,0,1,4.5,9Zm0-6A2.25,2.25,0,1,0,6.75,5.25,2.252,2.252,0,0,0,4.5,3Z" transform="translate(7)" fill="#7f7ff8"/>
    <path id="Path_4876" data-name="Path 4876" d="M3,22.5a.751.751,0,0,1-.744-.657L1.588,16.5H.75A.75.75,0,0,1,0,15.75V13.5A4.5,4.5,0,0,1,7.2,9.9a.75.75,0,0,1-.45,1.35h0a.747.747,0,0,1-.45-.15,3,3,0,0,0-4.8,2.4V15h.75a.751.751,0,0,1,.744.657L3.662,21H5.338l.106-.843a.751.751,0,0,1,.745-.657c.03,0,.06,0,.09,0a.75.75,0,0,1,.653.838l-.188,1.5A.751.751,0,0,1,6,22.5Z" transform="translate(7)" fill="#7f7ff8"/>
  </g>
</svg>
