<svg xmlns="http://www.w3.org/2000/svg" width="196" height="196" viewBox="0 0 196 196">
  <g id="icon_pro" transform="translate(-90 -187)">
    <circle id="back" cx="98" cy="98" r="98" transform="translate(90 187)" fill="#f4f5f8"/>
    <g id="protection" transform="translate(132.301 225.93)">
      <g id="Group_3177" data-name="Group 3177" transform="translate(0 0)">
        <g id="Group_3176" data-name="Group 3176" transform="translate(0)">
          <path id="Path_5567" data-name="Path 5567" d="M283.645,277.339a27.642,27.642,0,1,0,27.643,27.642A27.675,27.675,0,0,0,283.645,277.339ZM267.38,307.2a2.515,2.515,0,0,1-1.325-2.216,17.59,17.59,0,0,1,32.173-9.836,2.512,2.512,0,1,1-4.162,2.812,12.556,12.556,0,0,0-19.544-1.605l2.709,1.355a2.513,2.513,0,0,1,.27,4.339l-7.539,5.026a2.518,2.518,0,0,1-2.582.125Zm16.266,15.375a17.575,17.575,0,0,1-14.582-7.755,2.512,2.512,0,1,1,4.162-2.812,12.559,12.559,0,0,0,18.769,2.361c-.025-.022-.049-.044-.074-.069l-2.513-2.513a2.509,2.509,0,0,1,.383-3.868l7.539-5.026a2.512,2.512,0,0,1,3.907,2.091A17.612,17.612,0,0,1,283.645,322.572Z" transform="translate(-200.719 -212)" fill="#7f75f8"/>
          <path id="Path_5568" data-name="Path 5568" d="M75.232,107.87a2.513,2.513,0,0,0-3.458-1.043c-1.3.724-2.623,1.453-4.027,2.194a2.55,2.55,0,0,1-2.471-.069,2.524,2.524,0,0,1-1.217-2.152V65.337a2.512,2.512,0,0,0-2.513-2.513h-27.4a2.508,2.508,0,0,1-2.51-2.4c-.174-3.838-.245-8.01-.245-12.68V24.7a2.517,2.517,0,0,1,1.676-2.368L65.74,10.8a2.513,2.513,0,0,1,3.345,2.371V55.285A2.512,2.512,0,0,0,71.6,57.8H99a2.506,2.506,0,0,1,1.762.712l.326.591a2.526,2.526,0,0,0,2.253,1.261l.928-.052a32.967,32.967,0,0,1,4.486.346,2.513,2.513,0,0,0,2.854-2.4c.125-3.306.2-6.756.2-10.516V17.59a2.517,2.517,0,0,0-1.676-2.371L67.409.142a2.509,2.509,0,0,0-1.674,0L23.015,15.22a2.517,2.517,0,0,0-1.676,2.371V47.746c0,39.024,5.787,53.288,44.1,72.606a2.505,2.505,0,0,0,2.263,0c3.3-1.664,6.278-3.276,9.1-4.871a2.516,2.516,0,0,0,.815-3.644A32.487,32.487,0,0,1,75.232,107.87Z" transform="translate(-21.339 0.002)" fill="#fdc54f"/>
        </g>
      </g>
    </g>
  </g>
</svg>
