<svg xmlns="http://www.w3.org/2000/svg" width="145.057" height="186.753" viewBox="0 0 145.057 186.753">
  <g id="art" transform="translate(-257.604 -185.481)">
    <g id="Group_3163" data-name="Group 3163" transform="translate(222.636 185.481)">
      <path id="Path_5490" data-name="Path 5490" d="M225.615,820.534c0,2.225,32.922,2.225,73.533,2.225s67.531,0,67.532-2.225-26.921-2.225-67.532-2.225S225.615,818.309,225.615,820.534Z" transform="translate(-190.648 -636.007)" fill="#eaeae9" opacity="0.6" style="mix-blend-mode: multiply;isolation: isolate"/>
      <g id="Group_3159" data-name="Group 3159" transform="translate(88.935)">
        <rect id="Rectangle_1587" data-name="Rectangle 1587" width="89.943" height="164.933" rx="9.37" transform="translate(0.572 0.562)" fill="#fff"/>
        <rect id="Rectangle_1588" data-name="Rectangle 1588" width="81.012" height="134.704" rx="8.001" transform="translate(4.947 16.512)" fill="#efefef"/>
        <path id="Path_5491" data-name="Path 5491" d="M677.68,213.691h-15.1a.885.885,0,1,1,0-1.769h15.1A.885.885,0,1,1,677.68,213.691Z" transform="translate(-624.98 -204.305)" fill="#f4f4f4"/>
        <path id="Path_5492" data-name="Path 5492" d="M679.066,730.328h-15.1a.885.885,0,1,1,0-1.769h15.1A.885.885,0,1,1,679.066,730.328Z" transform="translate(-625.968 -572.112)" fill="#f4f4f4"/>
        <path id="Path_5493" data-name="Path 5493" d="M625.7,435.025c.217,16.492.229,32.984.254,49.476l-.066,24.738-.039,6.184c-.009,1.037-.007,2.049-.026,3.105a10.629,10.629,0,0,1-.578,3.164,10.633,10.633,0,0,1-9.8,7.151l-49.486-.037-12.369-.014-6.184-.007-1.546,0c-.253,0-.527-.008-.792-.016s-.533-.036-.8-.075a10.389,10.389,0,0,1-3.068-.885,10.568,10.568,0,0,1-4.673-4.238,10.4,10.4,0,0,1-1.181-2.964,9.867,9.867,0,0,1-.239-1.581c-.026-.266-.025-.532-.033-.8l0-.773.07-12.369a.284.284,0,0,1,.569,0l.07,12.369,0,.773c.008.249.007.5.032.745a9.14,9.14,0,0,0,.226,1.472,9.685,9.685,0,0,0,1.1,2.756,9.835,9.835,0,0,0,4.357,3.935,9.636,9.636,0,0,0,2.852.816c.245.037.494.049.741.069s.491.016.753.013l1.546,0,6.184-.007,12.369-.014,49.465-.049a9.74,9.74,0,0,0,8.969-6.561,9.724,9.724,0,0,0,.525-2.9c.012-1-.008-2.054-.011-3.079l-.039-6.184L624.8,484.5c.025-16.492.037-32.983.254-49.475a.321.321,0,0,1,.643,0Z" transform="translate(-534.863 -362.912)" fill="#3c4958"/>
        <path id="Path_5494" data-name="Path 5494" d="M676.338,185.722l11.156-.12,11.156-.07q5.578-.041,11.156-.04l5.578-.009a10.7,10.7,0,0,1,10.631,8.444,10.3,10.3,0,0,1,.209,1.452c.022.244.027.489.031.733s0,.468,0,.7l-.015,5.578-.036,5.578q-.062,11.156-.2,22.312a.284.284,0,0,1-.569,0q-.153-11.156-.2-22.312l-.036-5.578-.015-5.578c0-.23,0-.471,0-.691s-.011-.44-.033-.66a9.235,9.235,0,0,0-.2-1.3,9.565,9.565,0,0,0-.919-2.463,9.752,9.752,0,0,0-3.613-3.745,9.619,9.619,0,0,0-5.031-1.349l-5.578-.009q-5.578,0-11.156-.04l-11.156-.07-11.156-.12a.321.321,0,0,1,0-.643Z" transform="translate(-635.204 -185.481)" fill="#3c4958"/>
        <path id="Path_5495" data-name="Path 5495" d="M534.586,321.409l-.135-35.128-.075-35.128-.029-35.128-.011-17.564v-1.1c0-.358,0-.745.02-1.133a10.524,10.524,0,0,1,.405-2.278,10.435,10.435,0,0,1,5.9-6.7,10.367,10.367,0,0,1,4.438-.82.284.284,0,0,1,0,.569,10.023,10.023,0,0,0-4.073,1.043,9.725,9.725,0,0,0-3.26,2.572,9.554,9.554,0,0,0-1.926,3.646,9.887,9.887,0,0,0-.335,2.041c-.022.343-.026.688-.024,1.062v1.1l-.011,17.564-.029,35.128-.075,35.128-.135,35.128a.321.321,0,0,1-.643,0Z" transform="translate(-534.335 -186.152)" fill="#3c4958"/>
        <path id="Path_5496" data-name="Path 5496" d="M678.013,729.5l-8.976.132c-1.5.018-2.992.037-4.488.04l-1.122.006h-.421c-.047,0-.088,0-.158,0a1.364,1.364,0,0,1-.757-.25,1.274,1.274,0,0,1-.472-.679,1.371,1.371,0,0,1,.015-.8,1.26,1.26,0,0,1,.5-.662,1.4,1.4,0,0,1,.765-.224c3,.018,5.986.018,8.98.054l4.488.06,1.122.024.57.014a1.2,1.2,0,0,1,.676.234,1.164,1.164,0,0,1,.371,1.3,1.065,1.065,0,0,1-.436.555,1.184,1.184,0,0,1-.659.172Zm0-.454a.63.63,0,0,0,.629-.453.607.607,0,0,0-.6-.82l-.552.01-1.122.024-4.488.06c-2.99.036-5.988.035-8.972.055a.441.441,0,0,0-.463.292.477.477,0,0,0,.144.528.521.521,0,0,0,.293.092l.543,0,1.122.005c1.5,0,2.992.022,4.488.04l8.976.132Z" transform="translate(-624.914 -571.046)" fill="#3c4958"/>
        <rect id="Rectangle_1876" data-name="Rectangle 1876" width="72" height="35" rx="7" transform="translate(9.235 72.206)" fill="#fff"/>
        <rect id="Rectangle_1877" data-name="Rectangle 1877" width="62" height="15" rx="4" transform="translate(14.235 82.206)" fill="#7f78f8"/>
        <text id="تحدث_الآن" data-name="جلسة مجانية" transform="translate(45.235 92.206)" fill="#fff" font-size="9" font-family="Famtree-Regular, Famtree"><tspan x="-19.058" y="0">جلسة مجانية</tspan></text>
      </g>
      <path id="Path_5526" data-name="Path 5526" d="M551.225,263.936l.123,104.561,0,3.268c0,.266,0,.558,0,.8a2.488,2.488,0,0,0,.11.685,1.919,1.919,0,0,0,.757,1.054,1.67,1.67,0,0,0,.59.251,1.918,1.918,0,0,0,.323.037c.106.007.264,0,.393,0l1.634,0,3.267,0,13.07-.017,26.14-.033,26.14-.03h4.9c.262,0,.578.006.756-.012a1.693,1.693,0,0,0,.592-.178,1.772,1.772,0,0,0,.828-.894,1.682,1.682,0,0,0,.128-.605c0-.045,0-.117,0-.186v-3.88l-.005-13.07.006-104.561,0-6.535v-1.225c0-.074,0-.128,0-.177a.939.939,0,0,0-.014-.156,1.722,1.722,0,0,0-.579-1.074,1.76,1.76,0,0,0-1.141-.436l-1.63,0-13.07-.008-26.14-.033-26.14-.042-6.535-.011-1.634,0h-.817c-.073,0-.13,0-.183,0a1.039,1.039,0,0,0-.164.014,1.86,1.86,0,0,0-1.571,1.489,2.067,2.067,0,0,0-.033.33l0,.405-.147,13.07a.284.284,0,0,1-.569,0l-.147-13.07,0-.412a2.951,2.951,0,0,1,.047-.483,2.719,2.719,0,0,1,2.3-2.2,1.739,1.739,0,0,1,.242-.022c.084,0,.162-.008.226-.007h.817l1.634,0,6.535-.01,26.14-.043,26.14-.033,13.07-.008h1.638a2.842,2.842,0,0,1,1.847.7,2.807,2.807,0,0,1,.939,1.739,1.827,1.827,0,0,1,.023.251c0,.087.008.169.007.231v1.225l0,6.535.006,104.561-.005,13.07v3.88c0,.068,0,.132,0,.223a2.768,2.768,0,0,1-.21.984,2.861,2.861,0,0,1-1.345,1.452,2.788,2.788,0,0,1-.964.288c-.364.031-.594.014-.877.018h-4.9l-26.14-.03-26.14-.033-13.07-.017-3.267,0-1.634,0c-.143,0-.257,0-.424,0a2.828,2.828,0,0,1-.486-.059,2.584,2.584,0,0,1-.9-.387,2.816,2.816,0,0,1-1.113-1.545,3.393,3.393,0,0,1-.146-.922c-.008-.3,0-.552,0-.83l0-3.268.123-104.561a.321.321,0,0,1,.643,0Z" transform="translate(-456.876 -224.609)" fill="#3c4958"/>
      <path id="Path_5527" data-name="Path 5527" d="M547.013,573.219" transform="translate(-454.426 -461.521)" fill="none" stroke="#3c4958" stroke-linecap="round" stroke-linejoin="round" stroke-width="4"/>
    </g>
    <g id="Group_3164" data-name="Group 3164" transform="translate(325.694 185.615)">
      <path id="Path_5528" data-name="Path 5528" d="M584.379,187.3s76.134,70.38,76.056,69.121.042-20.724.042-20.724-52.838-48.272-53.7-48.4S584.379,187.3,584.379,187.3Z" transform="translate(-584.086 -186.867)" fill="#fb9387"/>
      <path id="Path_5529" data-name="Path 5529" d="M583.929,186.5l.024-.01a.169.169,0,0,0,.1-.119c.015-.044-.02-.089,0-.07l.178.163.356.326.711.652,1.422,1.3,2.845,2.609,5.693,5.216L606.648,207l22.8,20.83c7.612,6.93,15.227,13.859,22.907,20.706,1.923,1.707,3.848,3.417,5.8,5.077.487.411.982.829,1.47,1.2l.175.127.073.047.011.006-.029-.012a.473.473,0,0,0-.194-.025c-.276-.1-.632.584-.509.572v-.032l0-.064,0-.128-.008-.254-.011-.971-.015-3.865.091-15.445.179.41-34.976-31.91-8.773-7.944-4.4-3.952c-1.471-1.311-2.94-2.631-4.431-3.907l-.561-.468c-.093-.075-.188-.15-.275-.214l-.054-.037s-.019-.011,0,0a.23.23,0,0,0,.071.022c.037,0,0,0,0,0l-.164-.008-.164-.009-.183,0-.367-.009-.737-.013-2.956-.029-5.917-.025-5.918-.01h-5.64c-.045,0-.035,0-.021-.009A.14.14,0,0,0,583.929,186.5Zm-.568-.207.028-.022a.829.829,0,0,1,.377-.174,1.106,1.106,0,0,1,.164-.01h.092l.37,0,.74-.007,1.48-.015,2.959-.028,5.919-.05,5.92-.034h2.963l.743.005.373.005.187,0,.206.01.206.011a.155.155,0,0,1,.047.007.606.606,0,0,1,.114.039c.044.022.051.028.078.044.043.026.065.044.1.066.112.081.211.158.311.237l.58.475c3.024,2.558,5.957,5.191,8.907,7.815l8.816,7.9,17.572,15.867,17.513,15.931a.546.546,0,0,1,.179.405v.005l-.043,15.439-.007,3.856.006.96.006.228,0,.114v.085c.126.009-.241.716-.54.613a.605.605,0,0,1-.252-.039.77.77,0,0,1-.083-.036c-.044-.022-.067-.036-.1-.052-.05-.03-.091-.058-.13-.084-.078-.054-.146-.1-.215-.156-.535-.41-1.022-.826-1.517-1.246-1.964-1.682-3.882-3.4-5.8-5.114-7.665-6.88-15.256-13.835-22.846-20.792s-15.165-13.928-22.714-20.929l-11.324-10.5-5.658-5.254-2.828-2.628-1.414-1.314-.707-.657-.354-.329-.177-.164a.8.8,0,0,1-.18-.234A.833.833,0,0,1,583.361,186.293Z" transform="translate(-583.361 -185.946)" fill="#3b3b56"/>
    </g>
    <path id="Path_5530" data-name="Path 5530" d="M662.769,237.067a7.755,7.755,0,0,0-1.273,7.317,8.285,8.285,0,0,0,5.917,4.842,12.759,12.759,0,0,0,7.774-.918,6.94,6.94,0,0,0,3.286-2.469,3.205,3.205,0,0,0-.184-3.863c-1.368-1.374-3.724-.68-5.347.38a16.916,16.916,0,0,0-6.672,8.542c-.749,2.159-1.015,4.668.139,6.64a6.7,6.7,0,0,0,5.193,3.008,14.12,14.12,0,0,0,6.092-1.043c4.673-1.7,9.294-4.971,10.382-9.824a5.351,5.351,0,0,0-.268-3.6,2.867,2.867,0,0,0-3.022-1.6c-1.425.332-2.155,1.895-2.567,3.3a14.1,14.1,0,0,0-.519,6.973,7.229,7.229,0,0,0,4.238,5.29c3.075,1.142,6.55-.582,8.776-2.992a14.861,14.861,0,0,0,3.905-11.477,13.3,13.3,0,0,0-6.554-10.086,5.978,5.978,0,0,0-4.616-.8c-1.531.49-2.689,2.285-2.04,3.755.557,1.262,2.077,1.747,3.438,1.975a12.548,12.548,0,0,0,6.632-.4,6.433,6.433,0,0,0,4.168-4.87,7.207,7.207,0,0,0-1.99-5.453,11.991,11.991,0,0,0-20.419,3.968,1.369,1.369,0,0,0,.049,1.331,1.229,1.229,0,0,0,.992.308c2.386-.09,4.3-2.34,4.6-4.708a9.534,9.534,0,0,0-2.117-6.66,8.324,8.324,0,0,0-5.135-3.6c-2.937-.456-5.695,1.492-7.774,3.615a12.319,12.319,0,0,0-3.613,5.927,7.731,7.731,0,0,0,3.589,7.993c1.548.9,3.8,1.094,4.916-.306,1.089-1.363.37-3.6-1.15-4.456a5.141,5.141,0,0,0-4.989.324,15.168,15.168,0,0,0-3.785,3.573" transform="translate(-312.986 -24.766)" fill="#fb9387"/>
    <path id="Path_5531" data-name="Path 5531" d="M724.663,217.616c.5-9.451,7.84-16.511,7.84-16.511l-8.165,1.942.427-5.389a19.111,19.111,0,0,0-8.4,12.646l-14.751,3.183L702.691,228l21.563-3.95Z" transform="translate(-341.857 -8.668)" fill="#fb9387"/>
    <path id="Path_5532" data-name="Path 5532" d="M644.22,282.913s-9.01-6.767-23.61-3.441l4.888,4.016-4.487,5.49s16.115-3.263,23.39,4.431" transform="translate(-284.185 -66.259)" fill="#fb9387"/>
    <path id="Path_5533" data-name="Path 5533" d="M755.583,205.6a17.8,17.8,0,0,1,2.913-5.248,19.759,19.759,0,0,1,4.453-4.056.409.409,0,0,1,.635.37v0l-.409,5.391-.525-.45c1.359-.333,2.723-.642,4.085-.961l4.087-.952a.4.4,0,0,1,.373.671l0,0a27.4,27.4,0,0,0-1.888,2.1c-.6.734-1.167,1.5-1.694,2.285s-1.036,1.592-1.491,2.425-.87,1.689-1.263,2.555l0,.007a.213.213,0,0,1-.393-.165,28.214,28.214,0,0,1,2.6-5.186c.518-.819,1.078-1.612,1.671-2.379a23.385,23.385,0,0,1,1.913-2.215l.368.675-4.078.99c-1.36.328-2.717.666-4.08.98h0a.427.427,0,0,1-.512-.32.443.443,0,0,1-.01-.131l.445-5.388.635.375a23.94,23.94,0,0,0-2.319,1.751,17.952,17.952,0,0,0-2.04,2.068,19.5,19.5,0,0,0-1.7,2.362,19.985,19.985,0,0,0-1.31,2.608v0a.241.241,0,0,1-.45-.173Z" transform="translate(-380.266 -7.651)" fill="#3b3b56"/>
    <path id="Path_5534" data-name="Path 5534" d="M628.711,278.532a38.914,38.914,0,0,0-4.546.19,40.435,40.435,0,0,0-4.485.719l.181-.714,2.419,2.038c.805.68,1.616,1.355,2.412,2.046l.006,0a.423.423,0,0,1,.044.595l-2.3,2.694q-1.147,1.351-2.32,2.681l-.343-.591c.539-.086,1.064-.149,1.6-.206s1.062-.105,1.594-.134c1.064-.061,2.13-.1,3.194-.075a.214.214,0,0,1,.007.427c-1.053.061-2.1.136-3.149.256-.523.061-1.045.122-1.565.195s-1.043.154-1.546.251a.362.362,0,0,1-.35-.582l.007-.009q1.118-1.375,2.257-2.734l2.272-2.722.05.6c-.811-.674-1.607-1.365-2.409-2.05l-2.4-2.058,0,0a.41.41,0,0,1,.183-.712,34.91,34.91,0,0,1,4.6-.62,30.541,30.541,0,0,1,4.63.031.241.241,0,0,1-.025.481Z" transform="translate(-283.171 -65.828)" fill="#3b3b56"/>
    <path id="Path_5535" data-name="Path 5535" d="M686.613,222.981a11.577,11.577,0,0,0-2.012-2.036,6.385,6.385,0,0,0-2.479-1.215,5.46,5.46,0,0,0-2.7.077,8.554,8.554,0,0,0-2.514,1.2,16.807,16.807,0,0,0-2.2,1.827,20.61,20.61,0,0,0-1.919,2.15,10.912,10.912,0,0,0-1.433,2.42,7.234,7.234,0,0,0-.415,1.314c-.053.223-.075.447-.112.671-.009.227-.045.452-.034.68a7.046,7.046,0,0,0,.5,2.681,7.173,7.173,0,0,0,1.452,2.32,5.943,5.943,0,0,0,2.207,1.541,3.943,3.943,0,0,0,2.552.156,2.1,2.1,0,0,0,.984-.663,2.015,2.015,0,0,0,.422-1.1,3.005,3.005,0,0,0-.922-2.314c-.076-.076-.162-.139-.242-.211s-.173-.121-.266-.177a3.473,3.473,0,0,0-.6-.274,4.085,4.085,0,0,0-1.333-.213,5.928,5.928,0,0,0-2.682.718l0,0a.285.285,0,0,1-.282-.494,6.284,6.284,0,0,1,2.948-.943,4.274,4.274,0,0,1,3.037.972,3.93,3.93,0,0,1,.961,1.346,3.609,3.609,0,0,1,.313,1.646,2.962,2.962,0,0,1-.586,1.639,3.093,3.093,0,0,1-1.409,1.015,4.792,4.792,0,0,1-3.255-.107,7,7,0,0,1-2.634-1.79,8.268,8.268,0,0,1-1.7-2.656,8.179,8.179,0,0,1-.606-3.1c-.01-.267.031-.533.045-.8.043-.263.074-.532.137-.79a8.38,8.38,0,0,1,.487-1.505,12.023,12.023,0,0,1,1.595-2.658,21.7,21.7,0,0,1,2.041-2.256,15.515,15.515,0,0,1,2.386-1.916,9.548,9.548,0,0,1,2.844-1.272,6.366,6.366,0,0,1,3.163-.009,7.232,7.232,0,0,1,2.75,1.478,11.289,11.289,0,0,1,2.042,2.267.321.321,0,0,1-.516.383Z" transform="translate(-319.091 -23.621)" fill="#3c4958"/>
    <path id="Path_5536" data-name="Path 5536" d="M737.732,246.792a5.6,5.6,0,0,0-.322-2.345,7.916,7.916,0,0,0-1.165-2.1,8.737,8.737,0,0,0-.792-.921,11.053,11.053,0,0,0-.888-.833,11.838,11.838,0,0,0-2.019-1.354,11.58,11.58,0,0,0-9.384-.75,10.9,10.9,0,0,0-2.173,1.061,11.767,11.767,0,0,0-1.917,1.484,12.532,12.532,0,0,0-1.588,1.836,12.169,12.169,0,0,0-1.166,2.127l-.221.561a1.984,1.984,0,0,0-.114.49.485.485,0,0,0,.053.3.385.385,0,0,0,.244.147,1.47,1.47,0,0,0,.5.028l.281-.02.277-.052a3.769,3.769,0,0,0,1.065-.4,5.432,5.432,0,0,0,2.6-3.8l0-.01a.284.284,0,0,1,.563.082,6.352,6.352,0,0,1-.283,1.309,6.154,6.154,0,0,1-.57,1.216,5.748,5.748,0,0,1-.824,1.072,5.173,5.173,0,0,1-1.067.861,4.551,4.551,0,0,1-1.285.542l-.345.077-.352.04a2.34,2.34,0,0,1-.769-.026,1.329,1.329,0,0,1-.816-.5,1.428,1.428,0,0,1-.249-.91,2.907,2.907,0,0,1,.144-.751c.074-.217.151-.418.228-.629a12.678,12.678,0,0,1,7.387-7.213,12.171,12.171,0,0,1,2.59-.632,12.4,12.4,0,0,1,5.261.494c.425.124.835.291,1.246.455.4.186.8.371,1.186.593a12.392,12.392,0,0,1,2.16,1.529,11.924,11.924,0,0,1,.936.938,9.3,9.3,0,0,1,.83,1.036,8.756,8.756,0,0,1,1.178,2.388,5.967,5.967,0,0,1,.215,2.672.322.322,0,0,1-.638-.076Z" transform="translate(-351.389 -36.451)" fill="#3c4958"/>
    <path id="Path_5537" data-name="Path 5537" d="M744.586,293.58a5.958,5.958,0,0,0,1.594.287,6.438,6.438,0,0,0,1.617-.154,7.721,7.721,0,0,0,1.552-.525c.254-.1.492-.245.737-.369.234-.146.478-.275.7-.438a11.334,11.334,0,0,0,2.452-2.217,14.351,14.351,0,0,0,1.835-2.777,14.656,14.656,0,0,0,1.6-6.392,12.884,12.884,0,0,0-1.625-6.333,12.326,12.326,0,0,0-4.5-4.725,6.934,6.934,0,0,0-2.993-1.057,3.707,3.707,0,0,0-1.488.174,2.836,2.836,0,0,0-1.189.812,2.6,2.6,0,0,0-.619,1.283,1.778,1.778,0,0,0,.307,1.3,2.856,2.856,0,0,0,1.164.9,7.1,7.1,0,0,0,1.55.47,12.558,12.558,0,0,0,6.627-.214.285.285,0,0,1,.208.53,10.1,10.1,0,0,1-3.466.74,17.376,17.376,0,0,1-3.521-.225,7.71,7.71,0,0,1-1.757-.49,3.746,3.746,0,0,1-1.556-1.164,2.837,2.837,0,0,1-.447-.932,2.747,2.747,0,0,1-.066-1.035,3.575,3.575,0,0,1,.811-1.807,3.858,3.858,0,0,1,1.606-1.145,4.664,4.664,0,0,1,1.912-.25,7.983,7.983,0,0,1,3.473,1.175,13.444,13.444,0,0,1,4.951,5.112,14,14,0,0,1,1.728,6.9A15.181,15.181,0,0,1,756,287.869a15.38,15.38,0,0,1-2.022,2.929,12.174,12.174,0,0,1-2.7,2.339c-.248.167-.518.3-.778.449-.272.127-.536.27-.818.376a8.544,8.544,0,0,1-1.73.519,7.15,7.15,0,0,1-1.814.108,6.638,6.638,0,0,1-1.775-.406.321.321,0,0,1,.2-.608Z" transform="translate(-371.521 -58.608)" fill="#3c4958"/>
    <path id="Path_5538" data-name="Path 5538" d="M676.869,309.49a11.115,11.115,0,0,0-.551,3.145,5.938,5.938,0,0,0,.679,2.981,5.266,5.266,0,0,0,2.156,2.085,7.232,7.232,0,0,0,2.959.824,14.784,14.784,0,0,0,6.206-1.258,20.056,20.056,0,0,0,5.551-3.213,11.5,11.5,0,0,0,3.688-5.032c.1-.243.147-.5.223-.749a6.113,6.113,0,0,0,.208-2.262,3.537,3.537,0,0,0-.434-1.357,2.748,2.748,0,0,0-.975-.968,1.894,1.894,0,0,0-2.436.36,4.411,4.411,0,0,0-.811,1.253,10.766,10.766,0,0,0-.529,1.5,13.623,13.623,0,0,0-.529,6.374h0a.284.284,0,0,1-.555.122,11.094,11.094,0,0,1-.277-3.384,18.152,18.152,0,0,1,.546-3.337,11.178,11.178,0,0,1,.533-1.634,5.3,5.3,0,0,1,.95-1.533,2.857,2.857,0,0,1,3.6-.6,3.775,3.775,0,0,1,1.383,1.307,4.488,4.488,0,0,1,.595,1.766,6.576,6.576,0,0,1-.032,1.8,6.458,6.458,0,0,1-.179.861c-.082.279-.139.567-.242.839a10.93,10.93,0,0,1-1.618,3.069,14.7,14.7,0,0,1-2.367,2.494,21.137,21.137,0,0,1-5.884,3.364,21.69,21.69,0,0,1-3.243,1,11.5,11.5,0,0,1-3.445.26,8.238,8.238,0,0,1-3.353-1.014,6.175,6.175,0,0,1-2.479-2.515,6.778,6.778,0,0,1-.666-3.427,11.052,11.052,0,0,1,.726-3.33.322.322,0,0,1,.608.209Z" transform="translate(-323.281 -83.253)" fill="#3c4958"/>
    <path id="Path_5539" data-name="Path 5539" d="M663.057,274.651a9.141,9.141,0,0,0-2.2,4.777,6.79,6.79,0,0,0,.1,2.613,4.682,4.682,0,0,0,.495,1.2,6.355,6.355,0,0,0,.743,1.074A8.289,8.289,0,0,0,664.178,286a8.625,8.625,0,0,0,2.411.993,11.239,11.239,0,0,0,5.227-.064,14.885,14.885,0,0,0,2.524-.85,8.456,8.456,0,0,0,2.2-1.329,4.2,4.2,0,0,0,.786-.928,3.079,3.079,0,0,0,.406-1.095,2.315,2.315,0,0,0-.565-2.083,2.092,2.092,0,0,0-.957-.522,3.221,3.221,0,0,0-1.189-.044,6.539,6.539,0,0,0-2.4.89,17.541,17.541,0,0,0-2.181,1.58,18.267,18.267,0,0,0-1.92,1.918.285.285,0,0,1-.445-.354A15.946,15.946,0,0,1,669.937,282a15.65,15.65,0,0,1,2.215-1.776,7.446,7.446,0,0,1,2.723-1.109,4.214,4.214,0,0,1,1.563.011,2.984,2.984,0,0,1,1.461.755,3.051,3.051,0,0,1,.842,1.427,3.844,3.844,0,0,1,.074,1.6,4.183,4.183,0,0,1-.533,1.492,5.31,5.31,0,0,1-.98,1.192,8.7,8.7,0,0,1-2.507,1.54,16.013,16.013,0,0,1-2.725.891,11.681,11.681,0,0,1-5.741-.024,8.994,8.994,0,0,1-4.789-3.161,7.166,7.166,0,0,1-.766-1.242,6.822,6.822,0,0,1-.289-.67,5.581,5.581,0,0,1-.223-.7,7.488,7.488,0,0,1-.09-2.887A10.037,10.037,0,0,1,661,276.6a9.189,9.189,0,0,1,1.585-2.382.321.321,0,0,1,.473.435Z" transform="translate(-312.28 -63.098)" fill="#3c4958"/>
    <g id="Group_3315" data-name="Group 3315" transform="translate(151.117 210.04)">
      <path id="Path_5220" data-name="Path 5220" d="M1746.676,524.791a44.4,44.4,0,0,0,1.064,7.921,34.67,34.67,0,0,0,1.065,3.833,12.283,12.283,0,0,0,.763,1.777,3.2,3.2,0,0,0,.491.7.534.534,0,0,0,.195.141c.007,0,0,0-.009,0a.177.177,0,0,0-.02,0c-.012,0-.014,0-.011,0a.408.408,0,0,0,.082-.045,2.918,2.918,0,0,0,.571-.6c.189-.249.37-.519.547-.793.353-.551.687-1.128,1.016-1.709l1.972-3.523c.671-1.175,1.373-2.34,2.156-3.466a17.959,17.959,0,0,1,1.282-1.631,6.627,6.627,0,0,1,1.647-1.391l0,0a.418.418,0,0,1,.569.159l.012.024a1.477,1.477,0,0,0,.338.426,1.125,1.125,0,0,0,.466.25,1.623,1.623,0,0,0,1.127-.222,5.18,5.18,0,0,0,1.071-.826,12.155,12.155,0,0,0,.947-1.045l0,0a.269.269,0,0,1,.428.327,11.667,11.667,0,0,1-.926,1.163,5.81,5.81,0,0,1-1.171.995,3.02,3.02,0,0,1-.755.331,1.992,1.992,0,0,1-.887.041,1.882,1.882,0,0,1-.82-.384,2.247,2.247,0,0,1-.317-.307,2.14,2.14,0,0,1-.259-.379l.586.18a6.1,6.1,0,0,0-1.369,1.27,17.086,17.086,0,0,0-1.161,1.583c-.732,1.1-1.39,2.263-2.045,3.432s-1.282,2.359-1.956,3.536c-.336.589-.679,1.177-1.055,1.758-.188.291-.386.579-.609.862a3.781,3.781,0,0,1-.841.83,1.378,1.378,0,0,1-.372.172,1.006,1.006,0,0,1-.26.037.885.885,0,0,1-.146-.01.794.794,0,0,1-.131-.031,1.511,1.511,0,0,1-.638-.41,4.147,4.147,0,0,1-.659-.948,12.993,12.993,0,0,1-.8-1.944,32.408,32.408,0,0,1-1.012-3.969q-.394-2-.6-4.031a33.171,33.171,0,0,1-.19-4.073.3.3,0,0,1,.608,0Z" transform="translate(-1587.936 -450.634)" fill="#3b3b56"/>
      <path id="Path_5221" data-name="Path 5221" d="M1614.285,293.143s-18.823,0-28.644,10.366c-3.34,3.526-7.366,48.286-7.366,48.286l14.731.818C1593.006,303.782,1611.774,304.306,1614.285,293.143Z" transform="translate(-1465.921 -282.395)" fill="#5b5b99"/>
      <path id="Path_5222" data-name="Path 5222" d="M1647.779,292.942c13.315,2.246,25.64,16.968,25.14,19.927-.38,2.249-8.178,32.764-9.552,32.829-17.186.818-41.061-6.105-41.739-7.911a3.384,3.384,0,0,1,.546-3.546s-2.5-26.765-2.273-29.77S1634.464,290.7,1647.779,292.942Z" transform="translate(-1496.181 -282.026)" fill="#5b5b99"/>
      <path id="Path_5224" data-name="Path 5224" d="M1730.12,811.313s-6.141,7.183-5.869,7.729,7.366,0,7.366,0Z" transform="translate(-1572.069 -659.208)" fill="#3b3b56"/>
      <path id="Path_5225" data-name="Path 5225" d="M1680.4,376.852c-2.805,1.048-31.812-4.122-33-6.12-1.1-1.855,1.359-29.373,4.838-31.137s31.591,2.148,33.894,5.718S1683.2,375.8,1680.4,376.852Z" transform="translate(-1515.998 -315.856)" fill="#fff"/>
      <path id="Path_5226" data-name="Path 5226" d="M1761.2,423.006a6.754,6.754,0,0,1-.034,1.182,11.583,11.583,0,0,1-.176,1.154c-.082.38-.17.759-.288,1.132a6.852,6.852,0,0,1-.429,1.1.28.28,0,0,1-.529-.1,6.893,6.893,0,0,1,.017-1.185c.031-.39.091-.774.158-1.157s.162-.761.27-1.136a6.779,6.779,0,0,1,.412-1.108.315.315,0,0,1,.6.116Z" transform="translate(-1597.874 -376.618)" fill="#3b3b56"/>
      <path id="Path_5227" data-name="Path 5227" d="M1721.957,442.863c.011.026.025.107.041.162a1.69,1.69,0,0,0,.06.18,1.862,1.862,0,0,0,.178.334,2.668,2.668,0,0,0,.539.571,6.851,6.851,0,0,0,1.518.865c.138.055.287.133.421.175a2.811,2.811,0,0,0,.406.106,1.792,1.792,0,0,0,.775-.011,1.448,1.448,0,0,0,.661-.385,2.192,2.192,0,0,0,.462-.692l.012-.029a.269.269,0,0,1,.511.157,2.512,2.512,0,0,1-.454,1.018,2.146,2.146,0,0,1-.931.707,2.582,2.582,0,0,1-1.156.14,3.707,3.707,0,0,1-.549-.1c-.18-.047-.339-.077-.506-.133a4.564,4.564,0,0,1-1.873-1.031,2.146,2.146,0,0,1-.705-2.177.277.277,0,0,1,.517-.027Z" transform="translate(-1569.915 -391.027)" fill="#3b3b56"/>
      <path id="Path_5228" data-name="Path 5228" d="M1719.147,415.2a7.647,7.647,0,0,1-.075,1.251c-.054.411-.125.817-.216,1.22s-.2.8-.328,1.2a7.737,7.737,0,0,1-.469,1.165.279.279,0,0,1-.526-.115,7.7,7.7,0,0,1,.058-1.254c.045-.412.119-.819.2-1.224s.189-.8.31-1.2a7.583,7.583,0,0,1,.452-1.168.314.314,0,0,1,.595.129Z" transform="translate(-1567.185 -370.936)" fill="#3b3b56"/>
      <path id="Path_5229" data-name="Path 5229" d="M1717.782,401.224a4.061,4.061,0,0,1-.348.986,3.54,3.54,0,0,1-.612.881,2.549,2.549,0,0,1-.957.617,2.454,2.454,0,0,1-1.156.092.406.406,0,0,1,.1-.806h.007l.029,0c.4.058.826.1,1.24.134a11.4,11.4,0,0,0,1.241.027,4.556,4.556,0,0,0,1.176-.169,1.045,1.045,0,0,0,.763-.641v0a.2.2,0,0,1,.4.072,1.19,1.19,0,0,1-.316.716,1.915,1.915,0,0,1-.617.433,4.488,4.488,0,0,1-1.349.337,9.025,9.025,0,0,1-1.342.032,10.9,10.9,0,0,1-1.329-.136l.135-.8a1.9,1.9,0,0,0,.779-.038,2.03,2.03,0,0,0,.7-.395,3.479,3.479,0,0,0,.575-.668,5.41,5.41,0,0,0,.445-.8l.006-.014a.229.229,0,0,1,.433.139Z" transform="translate(-1564.877 -360.791)" fill="#3b3b56"/>
      <path id="Path_5230" data-name="Path 5230" d="M1758.547,408.1a4.07,4.07,0,0,1-.348.986,3.545,3.545,0,0,1-.612.881,2.549,2.549,0,0,1-.957.617,2.458,2.458,0,0,1-1.156.093.406.406,0,1,1,.1-.806h.007l.029,0c.4.058.826.1,1.24.134a11.54,11.54,0,0,0,1.241.027,4.553,4.553,0,0,0,1.175-.169,1.045,1.045,0,0,0,.763-.641v0a.2.2,0,0,1,.4.072,1.189,1.189,0,0,1-.316.716,1.916,1.916,0,0,1-.617.433,4.479,4.479,0,0,1-1.349.337,9.029,9.029,0,0,1-1.342.032,10.951,10.951,0,0,1-1.329-.136l.135-.8a1.9,1.9,0,0,0,.779-.038,2.025,2.025,0,0,0,.7-.395,3.473,3.473,0,0,0,.575-.668,5.409,5.409,0,0,0,.444-.8l.007-.014a.229.229,0,0,1,.433.14Z" transform="translate(-1594.521 -365.792)" fill="#3b3b56"/>
      <path id="Path_5231" data-name="Path 5231" d="M1637.516,493.148s1.89,11.733,1.617,13.1-7.483,65.606-6.937,66.151,41.386-.086,42.421-.955c1.4-1.18-12.065-62.8-12.958-68.44.4-5.778.467-10.16.136-10.672-.682-1.058-1.665-5.435-9.5-5.729C1645.7,486.353,1636.667,489.048,1637.516,493.148Z" transform="translate(-1505.112 -423.066)" fill="#5b5b99"/>
      <path id="Path_5232" data-name="Path 5232" d="M1728.052,803.776c.315.755.575,1.519.84,2.288s.491,1.549.693,2.339.39,1.585.525,2.4a15.751,15.751,0,0,1,.245,2.487.537.537,0,0,1-.53.544h-.014l-3.683-.011-3.683-.039h-.014a.49.49,0,0,1-.353-.825q1.321-1.41,2.653-2.809l1.344-1.389q.671-.7,1.353-1.38a.27.27,0,0,1,.4.361q-.612.749-1.239,1.484l-1.248,1.475q-1.256,1.469-2.53,2.92l-.366-.825,3.683-.039,3.683-.011-.544.544a17.279,17.279,0,0,0-.205-2.32c-.111-.78-.272-1.558-.433-2.338s-.351-1.556-.544-2.332-.4-1.553-.607-2.322v0a.3.3,0,0,1,.576-.2Z" transform="translate(-1570.398 -653.59)" fill="#3b3b56"/>
      <path id="Path_5233" data-name="Path 5233" d="M1632.34,818.365s-.065,5.941-.065,5.668,6.547,0,6.547,0Z" transform="translate(-1505.19 -664.336)" fill="#3b3b56"/>
      <path id="Path_5234" data-name="Path 5234" d="M1642.051,442.722" transform="translate(-1512.299 -391.169)" fill="none" stroke="#3b3b56" stroke-linecap="round" stroke-linejoin="round" stroke-width="4"/>
      <path id="Path_5235" data-name="Path 5235" d="M1637.53,533.6c.272,1.728.509,3.452.609,5.215.016.442.031.884.014,1.338s-.072.882-.11,1.32l-.251,2.594-1.027,10.368-2.082,20.732c-.7,6.91-1.4,13.82-2.049,20.733l-.957,10.37c-.151,1.728-.3,3.458-.424,5.186-.064.864-.123,1.728-.17,2.591-.024.431-.044.862-.058,1.291s-.024.865,0,1.255l-.406-.372,6.547.065-.223.6-5.68-4.966a.269.269,0,0,1,.35-.409l5.777,4.855a.342.342,0,0,1-.215.6h-.008l-6.547.064a.405.405,0,0,1-.406-.372c-.037-.475-.026-.905-.02-1.348s.025-.876.045-1.312c.038-.872.088-1.74.143-2.609.109-1.736.236-3.47.369-5.2q.4-5.2.875-10.387.943-10.379,1.973-20.747l2.139-20.729,1.111-10.359.276-2.589c.042-.426.1-.875.121-1.273.028-.414.026-.841.022-1.267-.026-1.709-.158-3.442-.342-5.156v-.005a.3.3,0,0,1,.6-.08Z" transform="translate(-1503.674 -457.07)" fill="#3b3b56"/>
      <path id="Path_5236" data-name="Path 5236" d="M1741.275,507.765" transform="translate(-1584.455 -438.468)" fill="#fdc54f"/>
      <path id="Path_5237" data-name="Path 5237" d="M1741.275,507.765" transform="translate(-1584.455 -438.468)" fill="#fdc54f"/>
      <path id="Path_5238" data-name="Path 5238" d="M1585.162,329.565c.733-5.43,1.521-10.849,2.416-16.256.455-2.7.926-5.4,1.517-8.089.149-.672.308-1.342.49-2.012.093-.335.188-.669.3-1a4.992,4.992,0,0,1,.444-1.013,7.386,7.386,0,0,1,1.443-1.61,18.114,18.114,0,0,1,1.668-1.273,39.9,39.9,0,0,1,7.36-3.8,54.107,54.107,0,0,1,7.889-2.482,48.165,48.165,0,0,1,8.193-1.2,38.6,38.6,0,0,1,4.156-.01,22.84,22.84,0,0,1,4.14.624,30.053,30.053,0,0,1,7.708,3.131,43.12,43.12,0,0,1,12.458,10.853,20.179,20.179,0,0,1,2.245,3.564,6.7,6.7,0,0,1,.388,1.044c.027.091.045.193.066.29a2.882,2.882,0,0,1,.04.305c.016.2.018.382.014.565a18.369,18.369,0,0,1-.2,2.107c-.2,1.375-.464,2.726-.748,4.073s-.594,2.685-.934,4.015q-1.008,3.994-2.182,7.939t-2.567,7.824c-.463,1.294-.965,2.574-1.517,3.839-.277.632-.568,1.26-.895,1.876a10.25,10.25,0,0,1-.538.911,4.01,4.01,0,0,1-.337.438,1.823,1.823,0,0,1-.218.209.86.86,0,0,1-.331.174h0a.269.269,0,1,1-.135-.522l.008,0a.806.806,0,0,0,.259-.228,3.5,3.5,0,0,0,.272-.387,9.73,9.73,0,0,0,.471-.876c.291-.605.552-1.232.8-1.863.494-1.265.933-2.556,1.372-3.847.87-2.585,1.637-5.207,2.393-7.83s1.459-5.264,2.1-7.915,1.277-5.311,1.685-7.981a17.352,17.352,0,0,0,.2-1.977c0-.159,0-.316-.008-.461a1.868,1.868,0,0,0-.025-.2c-.016-.07-.026-.137-.048-.21a5.693,5.693,0,0,0-.328-.877,19.242,19.242,0,0,0-2.124-3.371,41.459,41.459,0,0,0-5.553-5.89,40.555,40.555,0,0,0-6.573-4.73,29.086,29.086,0,0,0-7.448-3.058,21.857,21.857,0,0,0-3.966-.613,37.707,37.707,0,0,0-4.052-.007,47.259,47.259,0,0,0-8.042,1.141,54.011,54.011,0,0,0-7.774,2.405,39.126,39.126,0,0,0-7.235,3.663,17.264,17.264,0,0,0-1.6,1.2,6.694,6.694,0,0,0-1.3,1.421,4.209,4.209,0,0,0-.38.862c-.108.312-.2.636-.294.96-.181.65-.341,1.311-.492,1.975-.6,2.658-1.083,5.351-1.549,8.044-.92,5.391-1.735,10.8-2.494,16.222v0a.3.3,0,0,1-.6-.083Z" transform="translate(-1470.927 -280.665)" fill="#3b3b56"/>
      <path id="Path_5239" data-name="Path 5239" d="M1652.467,351.594c.913-6,2.191-11.261,3.649-12,3.045-1.544,24.948,1.258,31.919,4.375C1680.995,352.6,1667.981,353.678,1652.467,351.594Z" transform="translate(-1519.874 -315.856)" fill="#7f7ff8"/>
      <path id="Path_5240" data-name="Path 5240" d="M1640.859,340.58a1.92,1.92,0,0,0-1.23.343,4.169,4.169,0,0,0-.986.986,12.259,12.259,0,0,0-1.37,2.6,38.256,38.256,0,0,0-1.72,5.765,113.781,113.781,0,0,0-1.964,11.969c-.5,4.021-.834,8.063-1.1,12.11q-.2,3.035-.312,6.076c-.089,2.026-.129,4.054-.149,6.082a.269.269,0,0,1-.539.011c-.1-2.036-.113-4.074-.112-6.111.017-2.037.077-4.074.16-6.109.177-4.071.514-8.134.969-12.187q.367-3.037.867-6.059c.343-2.012.716-4.024,1.219-6.01a38.7,38.7,0,0,1,1.9-5.868,12.988,12.988,0,0,1,1.57-2.722,4.822,4.822,0,0,1,1.207-1.111,2.57,2.57,0,0,1,1.671-.369.3.3,0,0,1-.068.6Z" transform="translate(-1504.537 -316.435)" fill="#3b3b56"/>
      <path id="Path_5241" data-name="Path 5241" d="M1680.642,376.7a.837.837,0,0,1-.245.153c-2.807,1.048-31.811-4.122-33-6.122-1.1-1.855,1.361-29.372,4.839-31.137.922-.466,3.579-.535,7.027-.319a4.213,4.213,0,0,0-1.3.319c-3.478,1.765-5.939,29.282-4.839,31.137C1654.039,372.265,1671.392,375.678,1680.642,376.7Z" transform="translate(-1515.995 -315.855)" fill="#f4f4f4" style="mix-blend-mode: multiply;isolation: isolate"/>
      <path id="Path_5242" data-name="Path 5242" d="M1650.968,338.432a3.922,3.922,0,0,1,1.02-.3c.334-.056.665-.095,1-.123.661-.055,1.318-.071,1.974-.074,1.311,0,2.617.055,3.919.138,2.6.17,5.2.447,7.783.79s5.158.776,7.718,1.288a57.728,57.728,0,0,1,7.608,1.981,16.1,16.1,0,0,1,1.854.784,6.421,6.421,0,0,1,.9.546,2.666,2.666,0,0,1,.22.174,2.38,2.38,0,0,1,.583.716,4.1,4.1,0,0,1,.336,1.059,9.3,9.3,0,0,1,.139,1.019c.058.673.071,1.337.065,2a64.164,64.164,0,0,1-.7,7.83q-.551,3.88-1.361,7.713c-.543,2.554-1.15,5.1-1.942,7.6-.2.626-.416,1.25-.657,1.87a13.787,13.787,0,0,1-.851,1.844,3.791,3.791,0,0,1-.7.909,1.544,1.544,0,0,1-.318.214.874.874,0,0,1-.182.075c-.054.016-.114.035-.164.046a4.151,4.151,0,0,1-.56.077,16.193,16.193,0,0,1-2.021-.017c-2.63-.171-5.21-.531-7.79-.912s-5.145-.829-7.705-1.311-5.112-1.009-7.651-1.613c-1.269-.3-2.535-.623-3.8-.989-.63-.184-1.258-.379-1.884-.606-.313-.117-.625-.235-.939-.382a5.3,5.3,0,0,1-.475-.252,2.479,2.479,0,0,1-.249-.177c-.045-.039-.086-.072-.131-.119a1.452,1.452,0,0,1-.134-.178,1.55,1.55,0,0,1-.125-.331,2.276,2.276,0,0,1-.06-.279c-.032-.18-.047-.349-.065-.519-.028-.338-.042-.67-.05-1-.015-.662-.005-1.317.013-1.971.037-1.309.115-2.611.211-3.911.2-2.6.48-5.191.821-7.774s.748-5.158,1.272-7.714a.269.269,0,0,1,.528.1c-.478,2.546-.837,5.116-1.137,7.691s-.53,5.16-.687,7.746c-.078,1.292-.147,2.586-.169,3.876-.012.645-.016,1.29.005,1.927.011.319.028.635.057.945.017.152.032.307.06.447a1.489,1.489,0,0,0,.043.2.964.964,0,0,0,.042.126c.007.008.012.007.013.015l.051.043a1.749,1.749,0,0,0,.15.1c.119.07.251.136.388.2.276.127.573.237.869.343.6.21,1.214.4,1.833.57,1.24.347,2.5.653,3.759.94,5.054,1.128,10.165,2.066,15.292,2.827,2.562.369,5.139.718,7.7.875a15.361,15.361,0,0,0,1.875.012,3.177,3.177,0,0,0,.405-.055.386.386,0,0,0,.2-.1,2.873,2.873,0,0,0,.472-.641,12.776,12.776,0,0,0,.773-1.7c.228-.592.434-1.2.629-1.81.778-2.449,1.388-4.967,1.932-7.5s1-5.08,1.367-7.639a63.159,63.159,0,0,0,.7-7.692c.008-.638,0-1.275-.056-1.9a8.337,8.337,0,0,0-.122-.911,3.272,3.272,0,0,0-.241-.8,2.934,2.934,0,0,0-1.255-1,15.154,15.154,0,0,0-1.729-.747,56.854,56.854,0,0,0-7.455-2.007c-2.532-.531-5.087-.972-7.651-1.347s-5.137-.7-7.717-.905c-1.29-.1-2.582-.181-3.869-.2-.644-.007-1.287,0-1.922.042-.317.022-.632.054-.94.1a3.412,3.412,0,0,0-.849.23l-.014.007a.3.3,0,0,1-.261-.549Z" transform="translate(-1514.863 -314.966)" fill="#3b3b56"/>
      <path id="Path_5243" data-name="Path 5243" d="M1674.617,572.095c-.955.955-41.875,1.5-42.421.955s6.664-64.787,6.937-66.151-1.617-13.1-1.617-13.1c-.666-3.222,4.766-5.576,10.325-6.318-2.676,1.146-4.449,2.761-4.051,4.681,0,0,2.182,22.37,1.91,23.734s-7.775,54.969-7.229,55.515c.417.417,24.465.2,36.171-.357C1674.731,571.612,1674.731,571.98,1674.617,572.095Z" transform="translate(-1505.112 -423.719)" fill="#f4f4f4" style="mix-blend-mode: multiply;isolation: isolate"/>
      <path id="Path_5249" data-name="Path 5249" d="M1642.194,570.63c8.98.062,17.964.083,26.939-.049,2.243-.034,4.487-.078,6.723-.171,1.115-.05,2.24-.1,3.323-.228.134-.016.267-.035.394-.058a2.2,2.2,0,0,0,.323-.076l.013-.005c-.01,0-.008,0-.026.016a.226.226,0,0,0-.042.037.418.418,0,0,0-.073.108.441.441,0,0,0-.034.2c.021.116.008.036.009.047l-.044-.211-.087-.422-.333-1.659-2.6-13.222-5.134-26.456-5.1-26.462a.53.53,0,0,1-.008-.149v0c.168-1.79.3-3.594.391-5.389.042-.9.071-1.8.063-2.685,0-.444-.017-.887-.054-1.314a5.417,5.417,0,0,0-.083-.611,1.244,1.244,0,0,0-.2-.486,7.54,7.54,0,0,0-1.549-2.005,10.063,10.063,0,0,0-.989-.817,11.855,11.855,0,0,0-1.106-.671c-.374-.217-.781-.378-1.176-.559-.411-.148-.814-.315-1.238-.43a16.6,16.6,0,0,0-2.573-.567,21.167,21.167,0,0,0-2.641-.213,24.626,24.626,0,0,0-2.653.107,20.209,20.209,0,0,0-5.148,1.172,11.678,11.678,0,0,0-2.308,1.183,5.291,5.291,0,0,0-1.706,1.759,7.436,7.436,0,0,0-.49,1.18c-.145.414-.268.841-.387,1.27-.236.859-.437,1.733-.621,2.612a87.457,87.457,0,0,0-1.5,10.691c-.066.9-.116,1.794-.132,2.687-.006.446-.008.892.012,1.332a8.229,8.229,0,0,0,.131,1.28c.015.105.049.184.071.279a1.268,1.268,0,0,0,.107.238,2.141,2.141,0,0,0,.345.451,5.606,5.606,0,0,0,.987.781,19.6,19.6,0,0,0,2.345,1.245c3.268,1.486,6.7,2.759,9.889,4.549a22.5,22.5,0,0,1,4.489,3.182,10.635,10.635,0,0,1,3.015,4.639v0a.3.3,0,0,1-.205.378.308.308,0,0,1-.277-.055l-5.3-4.256a.269.269,0,0,1,.335-.422l5.342,4.2-.481.327a10,10,0,0,0-2.887-4.33,21.83,21.83,0,0,0-4.384-3.037c-1.573-.859-3.215-1.6-4.875-2.307s-3.344-1.371-5.008-2.127a20.39,20.39,0,0,1-2.455-1.287,6.4,6.4,0,0,1-1.141-.9,2.989,2.989,0,0,1-.478-.623,2.122,2.122,0,0,1-.172-.379,3.8,3.8,0,0,1-.1-.378,9.022,9.022,0,0,1-.157-1.418c-.024-.465-.025-.924-.021-1.383.01-.917.056-1.829.118-2.738a88.255,88.255,0,0,1,1.449-10.82c.182-.894.381-1.786.62-2.675.12-.444.246-.888.4-1.33a8.357,8.357,0,0,1,.544-1.326,6.192,6.192,0,0,1,2.012-2.122,12.685,12.685,0,0,1,2.51-1.3,21.2,21.2,0,0,1,5.41-1.247,25.62,25.62,0,0,1,2.771-.118,22.137,22.137,0,0,1,2.77.217,17.626,17.626,0,0,1,2.726.6c.451.122.887.3,1.327.459.429.194.866.367,1.277.6a12.873,12.873,0,0,1,1.215.735,11.053,11.053,0,0,1,1.105.908,8.579,8.579,0,0,1,1.759,2.268l.089.157.045.08.048.115.044.115.028.1c.018.067.039.138.049.2a6.425,6.425,0,0,1,.1.733c.042.474.056.937.062,1.4.01.922-.018,1.834-.058,2.744-.084,1.822-.217,3.63-.383,5.445l-.008-.153,10.171,52.929,2.534,13.232.321,1.645.081.4.041.2a.554.554,0,0,1,.016.1.507.507,0,0,1-.044.253.561.561,0,0,1-.1.151.882.882,0,0,1-.083.071.952.952,0,0,1-.117.069l-.084.035a2.856,2.856,0,0,1-.495.121c-.15.025-.3.045-.44.062-1.149.127-2.27.17-3.4.216-2.252.081-4.5.113-6.748.135-8.99.056-17.973-.059-26.957-.207a.3.3,0,0,1,.008-.609Z" transform="translate(-1510.415 -421.985)" fill="#3b3b56"/>
    </g>
  </g>
</svg>
