<svg xmlns="http://www.w3.org/2000/svg" width="24" height="24" viewBox="0 0 24 24">
  <g id="google" transform="translate(-298 -298)">
    <rect id="back" width="24" height="24" transform="translate(298 298)" fill="none"/>
    <path id="Path_13216" data-name="Path 13216" d="M277.708,211.479h-9.794a.783.783,0,0,0-.783.783v3.129a.783.783,0,0,0,.783.783h5.515a7.363,7.363,0,0,1-3.169,3.714l2.352,4.071a11.771,11.771,0,0,0,6-10.295,7.934,7.934,0,0,0-.135-1.537A.786.786,0,0,0,277.708,211.479Z" transform="translate(43.386 96.428)" fill="#167ee6"/>
    <path id="Path_13217" data-name="Path 13217" d="M44.8,337.5a7.306,7.306,0,0,1-6.321-3.657l-4.071,2.346a12,12,0,0,0,16.394,4.4v-.006l-2.352-4.071A7.253,7.253,0,0,1,44.8,337.5Z" transform="translate(265.203 -20.202)" fill="#12b347"/>
    <path id="Path_13218" data-name="Path 13218" d="M262,394.856v-.006l-2.352-4.071a7.253,7.253,0,0,1-3.651.987v4.7A11.985,11.985,0,0,0,262,394.856Z" transform="translate(53.999 -74.464)" fill="#0f993e"/>
    <path id="Path_13219" data-name="Path 13219" d="M4.7,134.116a7.253,7.253,0,0,1,.987-3.651l-4.071-2.346a11.95,11.95,0,0,0,0,11.994l4.071-2.346A7.253,7.253,0,0,1,4.7,134.116Z" transform="translate(298 175.884)" fill="#ffd500"/>
    <path id="Path_13220" data-name="Path 13220" d="M44.8,4.7a7.274,7.274,0,0,1,4.639,1.666.78.78,0,0,0,1.05-.047L52.708,4.1a.789.789,0,0,0-.045-1.154A11.979,11.979,0,0,0,34.411,6.008l4.071,2.346A7.306,7.306,0,0,1,44.8,4.7Z" transform="translate(265.203 298)" fill="#ff4b26"/>
    <path id="Path_13221" data-name="Path 13221" d="M260.639,6.363a.78.78,0,0,0,1.05-.047L263.906,4.1a.789.789,0,0,0-.045-1.154A11.969,11.969,0,0,0,256,0V4.7A7.274,7.274,0,0,1,260.639,6.363Z" transform="translate(53.998 298)" fill="#d93f21"/>
  </g>
</svg>
