<svg xmlns="http://www.w3.org/2000/svg" xmlns:xlink="http://www.w3.org/1999/xlink" width="12.115" height="12.114" viewBox="0 0 12.115 12.114">
  <defs>
    <clipPath id="clip-path">
      <path id="star" d="M15.818,8.3a.841.841,0,0,0-.67-.571l-3.162-.474L10.562,4.235a.831.831,0,0,0-1.512,0l-1.4,3.011-3.183.485a.841.841,0,0,0-.67.571.867.867,0,0,0,.2.885l2.3,2.356-.544,3.321a.858.858,0,0,0,.351.848.817.817,0,0,0,.874.049l2.808-1.568,2.847,1.568a.819.819,0,0,0,.874-.049.858.858,0,0,0,.351-.848l-.545-3.325,2.3-2.352A.867.867,0,0,0,15.818,8.3Z" transform="translate(-3.749 -3.75)" fill="#dedede"/>
    </clipPath>
  </defs>
  <g id="Group_4623" data-name="Group 4623" transform="translate(0)">
    <path id="star-2" data-name="star" d="M15.818,8.3a.841.841,0,0,0-.67-.571l-3.162-.474L10.562,4.235a.831.831,0,0,0-1.512,0l-1.4,3.011-3.183.485a.841.841,0,0,0-.67.571.867.867,0,0,0,.2.885l2.3,2.356-.544,3.321a.858.858,0,0,0,.351.848.817.817,0,0,0,.874.049l2.808-1.568,2.847,1.568a.819.819,0,0,0,.874-.049.858.858,0,0,0,.351-.848l-.545-3.325,2.3-2.352A.867.867,0,0,0,15.818,8.3Z" transform="translate(-3.749 -3.75)" fill="#dedede"/>
    <g id="Mask_Group_3" data-name="Mask Group 3" clip-path="url(#clip-path)">
      <rect id="Rectangle_1627" data-name="Rectangle 1627" width="11" height="21" transform="translate(5.498 -5.708)" fill="#ffac33"/>
    </g>
  </g>
</svg>
