<svg xmlns="http://www.w3.org/2000/svg" xmlns:xlink="http://www.w3.org/1999/xlink" width="238.596" height="252.677" viewBox="0 0 238.596 252.677">
  <defs>
    <clipPath id="clip-path">
      <path id="Path_4794" data-name="Path 4794" d="M349.964,388.692c-3.454,2.635-45.93,7.654-48.414,5.378-2.307-2.113-10.46-41.347-6.372-45.259s44.758-10.3,49.455-6.309S353.417,386.058,349.964,388.692Z" transform="translate(-294.048 -341.24)" fill="none"/>
    </clipPath>
    <clipPath id="clip-path-2">
      <path id="Path_4814" data-name="Path 4814" d="M646.849,336.007a58.8,58.8,0,1,1-18.449-81.08A58.626,58.626,0,0,1,646.849,336.007Z" transform="translate(-538.279 -245.887)" fill="none"/>
    </clipPath>
  </defs>
  <g id="Group_3047" data-name="Group 3047" transform="translate(-219.638 -223.017)">
    <circle id="Ellipse_378" data-name="Ellipse 378" cx="13.612" cy="13.612" r="13.612" transform="translate(331.537 244.267) rotate(-51.313)" fill="#b6b6fc"/>
    <path id="Path_4777" data-name="Path 4777" d="M556.169,247.287a13.383,13.383,0,0,0-3.049-6.323,13.065,13.065,0,0,0-5.763-3.881,12.822,12.822,0,0,0-1.7-.428,12.437,12.437,0,0,0-5.2.055,12.844,12.844,0,0,0-6.1,3.192,13.985,13.985,0,0,0-2.209,2.688c-.163.241-.282.509-.426.761a5.923,5.923,0,0,0-.383.783l-.34.8-.26.834c-.041.14-.092.277-.126.418l-.088.428c-.054.286-.128.569-.168.858a13.215,13.215,0,0,0-.124,1.743c.006.292-.018.585.011.875l.083.872a7.079,7.079,0,0,0,.128.867l.077.432.111.425a13.344,13.344,0,0,0,9.59,9.525.373.373,0,0,1-.163.727,14.014,14.014,0,0,1-6.721-3.417,13.885,13.885,0,0,1-3.978-6.491,13.4,13.4,0,0,1-.531-3.822,14.693,14.693,0,0,1,.119-1.935c.041-.321.117-.636.175-.954l.094-.477c.037-.157.089-.311.134-.466l.281-.93.367-.9a6.989,6.989,0,0,1,.417-.877c.157-.283.289-.581.467-.852a15.436,15.436,0,0,1,2.432-3.023,14.158,14.158,0,0,1,20.7,1.405,14.8,14.8,0,0,1,1.107,1.57c.166.274.3.564.455.845l.223.424c.068.144.122.3.184.442l.359.887.269.917.129.459.084.47.166.937a.42.42,0,0,1-.826.159Z" transform="translate(-192.504 -7.444)" fill="#3b3b56"/>
    <path id="Path_4778" data-name="Path 4778" d="M646.849,336.007a58.8,58.8,0,1,1-18.449-81.08A58.626,58.626,0,0,1,646.849,336.007Z" transform="translate(-198.386 -14.239)" fill="#eaeae9"/>
    <path id="Path_4779" data-name="Path 4779" d="M292.107,878.984c0,3.152,21.681,3.152,48.426,3.152s44.473,0,44.473-3.152-17.729-3.152-44.473-3.152S292.107,875.832,292.107,878.984Z" transform="translate(-45.119 -406.442)" fill="#eaeae9" opacity="0.6" style="mix-blend-mode: multiply;isolation: isolate"/>
    <path id="Path_4780" data-name="Path 4780" d="M358.352,506.018c3.746.456,2.264,53.214,1.51,57.742s-2.642,63.026-4.151,64.536-45.666,1.132-47.553,0,3.4-58.12,2.642-60.762-14.719-48.307-13.209-51.7S330.425,502.622,358.352,506.018Z" transform="translate(-48.463 -175.758)" fill="#fff"/>
    <path id="Path_4781" data-name="Path 4781" d="M445.275,859.18l12.213,9.246H444.279Z" transform="translate(-139.861 -396.074)" fill="#3b3b56"/>
    <path id="Path_4782" data-name="Path 4782" d="M317.3,861.18l12.185,8.491H316.279Z" transform="translate(-60.169 -397.32)" fill="#3b3b56"/>
    <path id="Path_4783" data-name="Path 4783" d="M368.853,513.283c1.681,1.133,3.335,2.3,5,3.452s3.316,2.329,4.964,3.506l-.919.1,4.865-5.7a.732.732,0,0,1,.972-.127l.011.008,1.611,1.122,1.605,1.13c1.063.763,2.132,1.519,3.184,2.3l-1.1.409q.5-1.879,1.055-3.746.271-.935.567-1.863c.193-.62.384-1.241.594-1.856a.374.374,0,0,1,.723.181c-.1.642-.228,1.279-.349,1.918s-.243,1.276-.377,1.911q-.394,1.906-.832,3.8a.7.7,0,0,1-1.076.426l-.025-.017c-1.086-.731-2.156-1.485-3.232-2.231l-1.6-1.134-1.6-1.142.982-.119-4.947,5.626-.008.009a.678.678,0,0,1-.912.1q-2.434-1.819-4.848-3.664c-1.6-1.24-3.219-2.461-4.809-3.718a.421.421,0,0,1,.5-.68Z" transform="translate(-92.493 -179.777)" fill="#3b3b56"/>
    <path id="Path_4784" data-name="Path 4784" d="M233.979,509.376c-1.114-.194-2.247-.384-3.376-.523s-2.259-.274-3.388-.367-2.257-.142-3.378-.131a22.71,22.71,0,0,0-3.309.26l.155-1.441c2.279.926,4.551,1.869,6.81,2.847q1.695.729,3.379,1.487c1.116.52,2.243,1.016,3.351,1.556a.373.373,0,0,1-.279.691c-1.172-.382-2.327-.809-3.491-1.211q-1.735-.631-3.462-1.282c-2.3-.868-4.591-1.77-6.873-2.69l-.01,0a.75.75,0,0,1,.165-1.437,21.874,21.874,0,0,1,3.568-.25,34.038,34.038,0,0,1,3.512.247c1.16.14,2.309.339,3.449.573,1.138.252,2.265.508,3.386.86a.422.422,0,0,1-.2.818Z" transform="translate(0 -176.732)" fill="#3b3b56"/>
    <path id="Path_4785" data-name="Path 4785" d="M283.806,624.5q9.814.064,19.63-.009c3.271-.028,6.542-.069,9.811-.142s6.538-.166,9.782-.387c.809-.06,1.619-.123,2.407-.226a7.71,7.71,0,0,0,1.1-.208c.066-.018.148-.058.115-.041a.351.351,0,0,0-.068.067.4.4,0,0,0-.04.06l.02-.062c.041-.147.077-.342.109-.532.236-1.565.359-3.212.493-4.832.253-3.255.452-6.52.644-9.785.378-6.531.706-13.068,1.028-19.6l.976-19.615.269-4.906.153-2.457c.046-.818.141-1.659.189-2.443.181-3.242.272-6.521.368-9.787q.268-9.807.335-19.619c.029-6.537.027-13.084-.271-19.592-.081-1.623-.179-3.251-.371-4.838-.049-.4-.1-.789-.176-1.167a4.864,4.864,0,0,0-.269-1c-.02-.055-.057-.085-.005-.032.024.018.014.011,0,0l-.026-.018a.8.8,0,0,0-.076-.044,2.8,2.8,0,0,0-.445-.183,9.384,9.384,0,0,0-1.1-.28,42.221,42.221,0,0,0-4.78-.576c-1.618-.12-3.245-.2-4.873-.253-3.256-.107-6.521-.127-9.782-.08-1.63.025-3.261.067-4.887.137s-3.255.16-4.839.347c-3.19.421-6.4,1.1-9.563,1.838s-6.32,1.59-9.415,2.577c-1.546.5-3.079,1.029-4.576,1.631a26.407,26.407,0,0,0-4.28,2.1,5.607,5.607,0,0,0-1.616,1.426,1.419,1.419,0,0,0-.178.371c-.045.147-.091.367-.132.553-.085.391-.163.789-.24,1.187-.3,1.6-.586,3.211-.874,4.821-.571,3.223-1.149,6.449-1.78,9.668s-1.306,6.432-2.133,9.622a48.959,48.959,0,0,1-1.458,4.752,12.992,12.992,0,0,1-1.1,2.326,4.464,4.464,0,0,1-.425.565,2.18,2.18,0,0,1-.654.517,1.394,1.394,0,0,1-.512.139,1.243,1.243,0,0,1-.553-.091.831.831,0,0,1-.177-.092.875.875,0,0,1-.161-.138,1.216,1.216,0,0,1-.171-.246,2.092,2.092,0,0,1-.155-.4,7.326,7.326,0,0,1-.212-1.323c-.036-.423-.056-.84-.071-1.255-.028-.83-.032-1.654-.029-2.476.008-1.644.038-3.281.072-4.918a194.771,194.771,0,0,0-.269-19.577A51.22,51.22,0,0,0,257,506.4a17.78,17.78,0,0,0-1.841-4.414,6.469,6.469,0,0,0-3.44-2.958.373.373,0,0,1,.219-.712A6.091,6.091,0,0,1,254.2,499.6a9.068,9.068,0,0,1,1.635,1.966,18.588,18.588,0,0,1,1.973,4.6,52.088,52.088,0,0,1,1.686,9.745,195.73,195.73,0,0,1,.452,19.675c-.017,1.636-.045,3.271-.042,4.9,0,.814.01,1.627.042,2.433.016.4.038.8.074,1.195a6.408,6.408,0,0,0,.176,1.1.98.98,0,0,0,.066.175c.009.017.014.019,0,.006s-.015-.013-.045-.039-.06-.029-.04-.023c.047.015.039.016.122-.016a1.968,1.968,0,0,0,.6-.667,11.957,11.957,0,0,0,.98-2.11,47.814,47.814,0,0,0,1.395-4.638c.8-3.151,1.453-6.352,2.067-9.558s1.171-6.429,1.725-9.654c.279-1.613.551-3.226.851-4.845.076-.4.154-.81.24-1.22.047-.212.081-.395.151-.641a2.775,2.775,0,0,1,.34-.736,6.8,6.8,0,0,1,2.007-1.837,26.976,26.976,0,0,1,4.509-2.241c1.539-.622,3.1-1.167,4.668-1.674,3.14-1.008,6.317-1.865,9.517-2.626s6.411-1.441,9.711-1.884c1.667-.2,3.306-.288,4.952-.367s3.286-.12,4.928-.148c3.284-.054,6.567-.041,9.853.061,1.643.052,3.287.127,4.933.246a43.5,43.5,0,0,1,4.964.591,10.828,10.828,0,0,1,1.279.325,4.245,4.245,0,0,1,.686.287c.063.037.12.063.188.112l.1.071a.861.861,0,0,1,.121.1,1.549,1.549,0,0,1,.331.477,5.992,5.992,0,0,1,.391,1.361c.081.426.14.843.193,1.259.2,1.662.3,3.3.39,4.95.3,6.572.286,13.123.249,19.676s-.174,13.1-.362,19.65c-.1,3.277-.2,6.542-.384,9.836-.285,3.273-.439,6.518-.624,9.792l-1.037,19.609c-.353,6.537-.712,13.075-1.122,19.612-.208,3.269-.423,6.537-.692,9.807-.145,1.64-.269,3.26-.529,4.932a6.513,6.513,0,0,1-.143.669,1.792,1.792,0,0,1-.082.227.932.932,0,0,1-.117.193.853.853,0,0,1-.183.167,1.63,1.63,0,0,1-.446.2,8.583,8.583,0,0,1-1.306.246c-.836.1-1.658.167-2.482.219-3.289.2-6.564.255-9.841.3s-6.552.058-9.826.058q-9.824-.007-19.644-.161a.421.421,0,0,1,.01-.842Z" transform="translate(-19.813 -171.389)" fill="#3b3b56"/>
    <path id="Path_4786" data-name="Path 4786" d="M468.329,457.1c2.648.234,5.3.4,7.95.421a53.786,53.786,0,0,0,7.89-.445,19.708,19.708,0,0,0,3.761-.886,7.887,7.887,0,0,0,1.654-.8,4.131,4.131,0,0,0,.661-.537,2.746,2.746,0,0,0,.255-.3c.04-.052.071-.106.106-.159a.393.393,0,0,0,.038-.09,2.718,2.718,0,0,0,.077-.755,8.269,8.269,0,0,0-.066-.917,18.917,18.917,0,0,0-.344-1.895c-.29-1.268-.666-2.53-1.081-3.778a65.121,65.121,0,0,0-6.74-14.265,24.41,24.41,0,0,0-5.036-5.911,8.091,8.091,0,0,0-3.318-1.678,4.938,4.938,0,0,0-3.541.649.373.373,0,0,1-.4-.628,6.021,6.021,0,0,1,1.943-.884,5.638,5.638,0,0,1,2.162-.088,8.8,8.8,0,0,1,3.846,1.72,19.427,19.427,0,0,1,3,2.825,33.74,33.74,0,0,1,2.489,3.233,56.6,56.6,0,0,1,3.979,7.058c.581,1.217,1.13,2.45,1.637,3.7s.961,2.522,1.379,3.808.794,2.589,1.09,3.925a20.3,20.3,0,0,1,.354,2.045,9.609,9.609,0,0,1,.068,1.078,3.7,3.7,0,0,1-.168,1.222c-.017.056-.048.122-.074.181s-.072.139-.1.181c-.057.086-.112.175-.175.255a4.152,4.152,0,0,1-.4.455,5.5,5.5,0,0,1-.9.71,9.2,9.2,0,0,1-1.955.91,20.955,20.955,0,0,1-4.033.882,49.411,49.411,0,0,1-8.089.285q-4.03-.152-8.018-.683a.421.421,0,0,1,.092-.837Z" transform="translate(-154.55 -125.185)" fill="#3b3b56"/>
    <path id="Path_4787" data-name="Path 4787" d="M300.693,555.291c3.11,10.01,6.2,20.024,9.082,30.107.722,2.521,1.434,5.045,2.107,7.586.333,1.274.665,2.541.94,3.856a9.385,9.385,0,0,1,.168,1.055l.009.169c0,.055,0,.088,0,.133l-.012.253-.025.506c-.028.685-.082,1.322-.124,1.982-.362,5.235-.765,10.457-1.167,15.682l-1.23,15.671-1.294,15.665-1.307,15.664-1.366,15.659-.6-.646,6.6.036,6.6.06-.288.912-11.248-8.031a.373.373,0,0,1,.427-.611l11.4,7.82a.5.5,0,0,1-.275.912h-.012l-6.6.06-6.6.036a.594.594,0,0,1-.6-.591v-.055l1.195-15.672,1.238-15.669L310.2,616.5c.416-5.221.834-10.446,1.209-15.663.043-.648.1-1.315.127-1.939l.025-.475.013-.237c0-.037.006-.086,0-.112l0-.077c-.019-.249-.083-.58-.14-.885-.249-1.251-.568-2.524-.886-3.787-.644-2.53-1.331-5.056-2.027-7.578-1.388-5.048-2.851-10.077-4.276-15.118s-2.889-10.071-4.358-15.1a.421.421,0,0,1,.806-.244Z" transform="translate(-49.953 -206.689)" fill="#3b3b56"/>
    <path id="Path_4788" data-name="Path 4788" d="M445.814,842.595l-.537,3.524-.493,3.528c-.152,1.176-.3,2.351-.414,3.523a27.633,27.633,0,0,0-.167,3.459,3.616,3.616,0,0,0,.093.724.5.5,0,0,0,.031.088c0,.012.006-.012-.069-.077a.465.465,0,0,0-.183-.093l.062.01c.037.009.114.016.172.023.527.051,1.129.071,1.71.084,1.176.022,2.363.016,3.549,0,2.373-.013,4.755-.071,7.13-.114l-.4,1.282q-2.905-2.2-5.781-4.432-1.441-1.114-2.866-2.249c-.953-.753-1.907-1.5-2.85-2.271a.373.373,0,0,1,.444-.6c1.007.68,2,1.375,3,2.069s1.994,1.387,2.983,2.092q2.973,2.106,5.918,4.248a.709.709,0,0,1-.382,1.281h-.018c-2.387.107-4.771.164-7.162.2-1.2.009-2.392.012-3.6-.016-.609-.019-1.2-.029-1.857-.108-.089-.014-.161-.019-.269-.042l-.157-.034a1.013,1.013,0,0,1-.379-.2,1.233,1.233,0,0,1-.327-.437,1.957,1.957,0,0,1-.117-.333,4.928,4.928,0,0,1-.128-1.046,25.082,25.082,0,0,1,.252-3.671q.226-1.794.54-3.56c.2-1.181.43-2.355.673-3.525s.489-2.338.771-3.5a.421.421,0,0,1,.826.161Z" transform="translate(-138.908 -385.445)" fill="#3b3b56"/>
    <path id="Path_4789" data-name="Path 4789" d="M308.158,634.827c1.887,1.132,46.043,1.51,47.553,0a5.761,5.761,0,0,0,.54-1.819c-13.318.434-37.646.011-39.035-.823-1.887-1.132,3.4-58.12,2.642-60.762s-14.719-48.307-13.209-51.7c.423-.947,3.166-2.4,7.51-3.917-9.427,2.31-15.9,5.061-16.568,6.559-1.51,3.4,12.454,49.062,13.209,51.7S306.271,633.695,308.158,634.827Z" transform="translate(-48.463 -182.288)" fill="#f4f4f4" style="mix-blend-mode: multiply;isolation: isolate"/>
    <g id="Group_3038" data-name="Group 3038" transform="translate(294.848 288.031)">
      <path id="Rectangle_1545" data-name="Rectangle 1545" d="M5.746,0h4.871a5.746,5.746,0,0,1,5.746,5.746V22.957A5.747,5.747,0,0,1,10.617,28.7H5.746A5.746,5.746,0,0,1,0,22.957V5.746A5.746,5.746,0,0,1,5.746,0Z" transform="matrix(0.787, -0.618, 0.618, 0.787, 0, 10.105)" fill="#5b5b99"/>
      <rect id="Rectangle_1546" data-name="Rectangle 1546" width="20.63" height="10.641" transform="matrix(0.618, 0.787, -0.787, 0.618, 12.331, 4.047)" fill="#fff"/>
      <circle id="Ellipse_379" data-name="Ellipse 379" cx="1.287" cy="1.287" r="1.287" transform="translate(20.849 25.862) rotate(-56.343)" fill="#5b5b99"/>
      <path id="Path_4790" data-name="Path 4790" d="M448.529,420.015l-8.444,6.736-.528.421-.264.211c-.089.07-.169.138-.286.219a2.575,2.575,0,0,1-1.51.476,2.6,2.6,0,0,1-1.51-.5,2.758,2.758,0,0,1-.562-.554L435,426.5l-3.363-4.226-6.716-8.459-3.347-4.239-.837-1.06-.422-.537a2.773,2.773,0,0,1-.4-.743,2.743,2.743,0,0,1,.882-3.061l8.512-6.65.532-.416.266-.208c.089-.069.169-.135.294-.221a2.693,2.693,0,0,1,3.149.051,2.746,2.746,0,0,1,.317.275c.091.1.2.221.257.3l.416.532,3.317,4.262,6.6,8.546,3.285,4.288.821,1.072.412.54a2.546,2.546,0,0,1,.361.684,2.482,2.482,0,0,1-.836,2.757Zm-.368-.468a1.868,1.868,0,0,0,.293-2.6l-.419-.523-.847-1.052-3.386-4.208-6.735-8.445-3.354-4.233-.418-.53c-.077-.1-.12-.143-.182-.212a1.678,1.678,0,0,0-.193-.165,1.626,1.626,0,0,0-1.9-.022c-.062.04-.156.116-.244.186l-.265.209-.53.418-8.479,6.69a1.617,1.617,0,0,0-.525,1.8,1.67,1.67,0,0,0,.236.439l.409.527.831,1.064,3.323,4.257,6.625,8.531,3.308,4.27.413.534a1.883,1.883,0,0,0,.387.4,1.738,1.738,0,0,0,2.034.049c.07-.045.163-.119.253-.187l.267-.206.534-.413,8.547-6.6Z" transform="translate(-419.443 -395.851)" fill="#3c4958"/>
    </g>
    <g id="Group_3042" data-name="Group 3042" transform="translate(226.448 246.455)">
      <path id="Path_4791" data-name="Path 4791" d="M279.862,287.074c3.01-.239,46.777,23.708,47.3,27.827s-63.655,58.721-66.514,57.184-14.066-8.858-13.086-10.125,8.236-1.051,7.671-2.5-14.773-29.313-15.9-32.213S271.953,287.7,279.862,287.074Z" transform="translate(-238.692 -286.336)" fill="#fb9387"/>
      <circle id="Ellipse_380" data-name="Ellipse 380" cx="6.331" cy="6.331" r="6.331" transform="matrix(0.999, -0.051, 0.051, 0.999, 17.635, 57.815)" fill="#fff"/>
      <path id="Path_4792" data-name="Path 4792" d="M349.964,388.692c-3.454,2.635-45.93,7.654-48.414,5.378-2.307-2.113-10.46-41.347-6.372-45.259s44.758-10.3,49.455-6.309S353.417,386.058,349.964,388.692Z" transform="translate(-272.776 -320.06)" fill="#fff"/>
      <g id="Group_3040" data-name="Group 3040" transform="translate(21.272 21.179)">
        <g id="Group_3039" data-name="Group 3039" clip-path="url(#clip-path)">
          <path id="Path_4793" data-name="Path 4793" d="M361.034,444.9a12.188,12.188,0,0,0,14.027,11.727c7.443-.95,12.157-7.022,11.853-14.448s-5.043-13.454-12.953-12.445A14.662,14.662,0,0,0,361.034,444.9Z" transform="translate(-335.746 -396.266)" fill="#7f7ff8"/>
        </g>
      </g>
      <g id="Group_3041" data-name="Group 3041" transform="translate(55.764 58.341)">
        <path id="Path_4795" data-name="Path 4795" d="M392.278,440.838c3.522,0,5.781,3.662-1.349,4.433S388.756,440.838,392.278,440.838Z" transform="translate(-386.594 -440.411)" fill="#fff"/>
        <path id="Path_4796" data-name="Path 4796" d="M391.124,439.713a4.807,4.807,0,0,1,2.736.649,2.578,2.578,0,0,1,1.08,1.2,1.787,1.787,0,0,1,.1.954,1.981,1.981,0,0,1-.372.854,3.581,3.581,0,0,1-1.22.988,6.976,6.976,0,0,1-1.313.518,13.59,13.59,0,0,1-2.649.474,11.238,11.238,0,0,1-1.372.028,4.616,4.616,0,0,1-1.485-.279,2.089,2.089,0,0,1-.8-.539,1.538,1.538,0,0,1-.388-1.077,2.079,2.079,0,0,1,.26-.9,3.568,3.568,0,0,1,.451-.642,6.676,6.676,0,0,1,2.273-1.628,5.68,5.68,0,0,1,2.7-.548Zm0,.793a5.64,5.64,0,0,0-2.2.785,6.138,6.138,0,0,0-1.75,1.48,1.44,1.44,0,0,0-.339.74c.011.063.011.055.047.091a.768.768,0,0,0,.267.14,3.7,3.7,0,0,0,1.026.152,9.706,9.706,0,0,0,1.184-.046,16.239,16.239,0,0,0,2.392-.374,6.858,6.858,0,0,0,1.086-.361,2.341,2.341,0,0,0,.808-.538.592.592,0,0,0,.16-.6,1.528,1.528,0,0,0-.561-.71,3.991,3.991,0,0,0-2.124-.713Z" transform="translate(-385.44 -439.707)" fill="#3b3b56"/>
      </g>
      <path id="Path_4797" data-name="Path 4797" d="M288.45,399.735l.6,3.476.635,3.469q.639,3.467,1.344,6.921a.744.744,0,0,1-.58.877.767.767,0,0,1-.123.015h-.018a7.27,7.27,0,0,0-2.307.459,4.944,4.944,0,0,0-3.232,5.507,7.876,7.876,0,0,0,.509,2.344,4.98,4.98,0,0,0,1.322,1.9,5.162,5.162,0,0,0,2.081,1.087,7.619,7.619,0,0,0,2.458.2.373.373,0,0,1,.094.739,7.637,7.637,0,0,1-2.76.014,5.827,5.827,0,0,1-4.378-3.422,8.863,8.863,0,0,1-.71-2.735,7.914,7.914,0,0,1,.186-2.857,5.942,5.942,0,0,1,1.442-2.579,6.576,6.576,0,0,1,2.453-1.6c.228-.077.457-.154.686-.224.232-.055.464-.116.7-.163s.465-.082.7-.108l.731-.049-.721.891q-.671-3.485-1.178-7c-.16-1.172-.323-2.344-.445-3.522s-.251-2.353-.33-3.535a.422.422,0,0,1,.836-.1Z" transform="translate(-266.107 -356.262)" fill="#3b3b56"/>
      <path id="Path_4798" data-name="Path 4798" d="M308.987,412.777c.269.862.549,1.721.868,2.553a12.215,12.215,0,0,0,.516,1.2,2.16,2.16,0,0,0,.286.454.864.864,0,0,0,.369.158,12.687,12.687,0,0,0,2.581.242c.894.015,1.795,0,2.7-.033,3.608-.119,7.225-.424,10.832-.779,7.214-.726,14.428-1.6,21.566-2.823,1.784-.3,3.565-.62,5.321-1,.877-.192,1.75-.4,2.595-.646a11.916,11.916,0,0,0,1.21-.416,2.746,2.746,0,0,0,.466-.239.745.745,0,0,0,.211-.277,4.962,4.962,0,0,0,.383-1.114c.1-.411.176-.841.239-1.275.127-.87.2-1.76.258-2.653.1-1.789.126-3.593.109-5.4-.04-3.612-.26-7.23-.6-10.836q-.477-5.412-1.393-10.773v0a.373.373,0,0,1,.732-.14,125.278,125.278,0,0,1,2.575,21.725c.055,1.829.064,3.662-.035,5.5-.05.921-.122,1.844-.251,2.774-.065.465-.144.932-.254,1.4a6.288,6.288,0,0,1-.5,1.457,3.053,3.053,0,0,1-.245.39c-.058.068-.11.134-.176.2a2,2,0,0,1-.217.183,3.961,3.961,0,0,1-.736.4,13.208,13.208,0,0,1-1.363.481c-.9.269-1.793.487-2.69.691-1.793.4-3.589.74-5.387,1.055-3.6.6-7.21,1.105-10.826,1.555s-7.237.853-10.87,1.143-7.27.544-10.932.6c-.916.006-1.833,0-2.756-.045a13.46,13.46,0,0,1-2.827-.358,2.823,2.823,0,0,1-.393-.147,1.716,1.716,0,0,1-.218-.124,1.13,1.13,0,0,1-.214-.19,2.952,2.952,0,0,1-.432-.7,12.644,12.644,0,0,1-.523-1.318c-.3-.878-.548-1.759-.787-2.641a.421.421,0,0,1,.809-.234Z" transform="translate(-281.564 -343.371)" fill="#3b3b56"/>
      <path id="Path_4799" data-name="Path 4799" d="M301.551,401.371c2.482,2.278,44.959-2.745,48.412-5.377a1.9,1.9,0,0,0,.538-.852c-13.321,2.468-38.679,5-40.579,3.259-2.309-2.114-10.46-41.346-6.371-45.261q.092-.086.206-.175c-4.353,1.073-7.574,2.184-8.578,3.145C291.091,360.025,299.242,399.257,301.551,401.371Z" transform="translate(-272.777 -327.361)" fill="#f4f4f4" style="mix-blend-mode: multiply;isolation: isolate"/>
      <path id="Path_4800" data-name="Path 4800" d="M278.211,359.811c6.834-.111,9.957-5.455,14.4-6.4s8.674,5.361,14.664,4.6S316.2,350.4,316.2,350.4c1.083,2.525,6.611,4.1,10.354,3.625s3.871-5.44,7.615-5.917,5.3,2.748,7.917,2.414c0,0,.351-9.176-5.789-12.577s-50.739,1.907-54.14,8.048S278.211,359.811,278.211,359.811Z" transform="translate(-262.915 -317.346)" fill="#fb9387"/>
      <path id="Path_4801" data-name="Path 4801" d="M311.919,342.042c.47.7,39.03-4.218,39.309-5.015s-.015-6.086-.812-6.364-38.329,3.748-39.309,5.015S311.449,341.341,311.919,342.042Z" transform="translate(-283.177 -313.467)" fill="#3b3b56"/>
      <path id="Path_4802" data-name="Path 4802" d="M341.539,368.455a3.866,3.866,0,0,1-2.061-.3,14.8,14.8,0,0,1-1.705-.9,6.559,6.559,0,0,0-3.252-1.1,3.7,3.7,0,0,0-2.94,1.144c-.8.791-1.39,1.9-2.241,2.92a8.8,8.8,0,0,1-.694.75,5.5,5.5,0,0,1-.86.637,4.941,4.941,0,0,1-1,.454,7.035,7.035,0,0,1-1.044.2,14.036,14.036,0,0,1-3.917-.157,15.6,15.6,0,0,1-3.754-1.131,9.017,9.017,0,0,1-1.744-1.05,4.672,4.672,0,0,1-1.407-1.706h1.351a16.749,16.749,0,0,1-1.427,2.508,15.714,15.714,0,0,1-1.815,2.224,11.119,11.119,0,0,1-4.947,3.043,6.772,6.772,0,0,1-.727.157c-.245.041-.486.106-.735.124a8.7,8.7,0,0,1-1.494.031,10.449,10.449,0,0,1-2.871-.622,32.393,32.393,0,0,1-4.977-2.572,18.537,18.537,0,0,0-2.354-1.188,5.248,5.248,0,0,0-2.383-.423,6.973,6.973,0,0,0-1.194.271l-.6.228c-.2.075-.39.185-.586.274a20.458,20.458,0,0,0-2.283,1.377,32.079,32.079,0,0,1-4.769,2.865,13.14,13.14,0,0,1-5.5,1.2.373.373,0,0,1-.012-.745,12.819,12.819,0,0,0,5.1-1.332,34.478,34.478,0,0,0,4.533-2.934,21.6,21.6,0,0,1,2.381-1.507c.217-.106.422-.229.649-.321l.68-.278a8.1,8.1,0,0,1,1.47-.363,6.537,6.537,0,0,1,2.985.441,17.547,17.547,0,0,1,2.564,1.233,31.35,31.35,0,0,0,4.776,2.43,8.991,8.991,0,0,0,2.477.519,7.189,7.189,0,0,0,1.246-.036c.207-.015.411-.077.616-.111a5.431,5.431,0,0,0,.611-.136,9.963,9.963,0,0,0,4.272-2.674,14.23,14.23,0,0,0,1.661-2.012,15.491,15.491,0,0,0,1.3-2.246l0-.011a.738.738,0,0,1,1.346.011,3.273,3.273,0,0,0,.962,1.142,7.606,7.606,0,0,0,1.45.881,14.208,14.208,0,0,0,3.387,1.038,13.739,13.739,0,0,0,3.534.2,5.774,5.774,0,0,0,.8-.127,3.6,3.6,0,0,0,.707-.309,4.147,4.147,0,0,0,.65-.459,7.556,7.556,0,0,0,.587-.612c.77-.871,1.385-2,2.377-2.957a4.733,4.733,0,0,1,1.777-1.132c.085-.03.168-.065.254-.091l.263-.053c.174-.032.351-.074.523-.095a6.8,6.8,0,0,1,1.026-.02,6.4,6.4,0,0,1,1.02.138,7.418,7.418,0,0,1,.968.315,11.439,11.439,0,0,1,1.729.916c1.063.662,2.063,1.352,3.149,1.223a.421.421,0,0,1,.115.834Z" transform="translate(-262.317 -334.862)" fill="#3b3b56"/>
      <path id="Path_4803" data-name="Path 4803" d="M318.727,321.74c1.137-1.131,2.262-2.274,3.355-3.441.547-.583,1.085-1.173,1.6-1.775a21.7,21.7,0,0,0,1.46-1.844,3.481,3.481,0,0,0,.483-.891c.054-.015-.116-.357-.349-.62a12.542,12.542,0,0,0-1.681-1.57c-1.228-.991-2.54-1.906-3.863-2.8-5.312-3.563-10.867-6.8-16.451-9.961-5.6-3.132-11.238-6.216-16.978-9.064-1.436-.708-2.878-1.4-4.331-2.047-.725-.32-1.458-.631-2.178-.885-.18-.065-.357-.12-.526-.168-.077-.017-.175-.051-.234-.056l-.1-.018c-.012,0-.015,0-.024,0a4.049,4.049,0,0,0-.96.234,12.131,12.131,0,0,0-2.033,1c-.668.4-1.324.83-1.971,1.282-1.29.912-2.544,1.891-3.774,2.905a182.689,182.689,0,0,0-14.019,13.115c-4.471,4.593-8.811,9.331-12.875,14.268-1.007,1.239-2,2.5-2.9,3.791a16.628,16.628,0,0,0-1.216,1.969,3.982,3.982,0,0,0-.2.473l-.029.1-.015.05v.029a.315.315,0,0,1-.008.043c.007-.014-.007-.045-.015-.042l.223.528.246.542c1.342,2.9,2.771,5.786,4.179,8.672l8.473,17.328a.373.373,0,0,1-.667.333l-8.8-17.168c-1.449-2.874-2.9-5.736-4.291-8.656l-.258-.553-.251-.58a1.741,1.741,0,0,1-.069-.338,1.505,1.505,0,0,1,.013-.257l.015-.121.025-.1.052-.189a4.973,4.973,0,0,1,.261-.639,17.666,17.666,0,0,1,1.29-2.146c.922-1.351,1.91-2.633,2.916-3.9,2.014-2.53,4.122-4.972,6.278-7.37s4.356-4.753,6.6-7.07a184.107,184.107,0,0,1,14.087-13.282c1.252-1.029,2.536-2.025,3.874-2.966.672-.467,1.359-.919,2.075-1.341a13.585,13.585,0,0,1,2.293-1.113,5.674,5.674,0,0,1,.651-.2,4.31,4.31,0,0,1,.728-.118c.092,0,.189,0,.277.011l.2.034c.14.022.234.056.352.084.218.062.424.128.622.2.8.283,1.542.6,2.286.935,1.484.663,2.936,1.368,4.382,2.086,2.887,1.441,5.738,2.94,8.572,4.471s5.645,3.1,8.435,4.709,5.564,3.244,8.311,4.928,5.472,3.408,8.13,5.249c1.325.928,2.637,1.876,3.894,2.927a13.43,13.43,0,0,1,1.8,1.753,2.755,2.755,0,0,1,.2.274,2.171,2.171,0,0,1,.189.317,1.29,1.29,0,0,1,.14.935,2.936,2.936,0,0,1-.3.68c-.114.189-.23.373-.354.542a22.5,22.5,0,0,1-1.564,1.908c-.542.606-1.1,1.194-1.661,1.774-1.125,1.16-2.275,2.289-3.437,3.4a.421.421,0,0,1-.588-.6Z" transform="translate(-237.682 -285.121)" fill="#3b3b56"/>
      <path id="Path_4804" data-name="Path 4804" d="M417.785,411.49a12.313,12.313,0,0,1-.464-1.821c-.114-.611-.2-1.225-.265-1.843s-.1-1.236-.108-1.859a12.516,12.516,0,0,1,.091-1.881.384.384,0,0,1,.741-.08,12.587,12.587,0,0,1,.487,1.819c.127.61.212,1.225.289,1.84s.114,1.235.132,1.857a12.353,12.353,0,0,1-.067,1.878.432.432,0,0,1-.837.09Z" transform="translate(-349.292 -358.981)" fill="#3b3b56"/>
      <path id="Path_4805" data-name="Path 4805" d="M378.386,414.587a11.154,11.154,0,0,1-.439-1.728c-.105-.58-.187-1.163-.239-1.748s-.085-1.173-.082-1.764a11.311,11.311,0,0,1,.116-1.783.385.385,0,0,1,.742-.073,11.3,11.3,0,0,1,.462,1.726c.118.579.2,1.162.264,1.746s.1,1.171.107,1.761a11.147,11.147,0,0,1-.093,1.781.434.434,0,0,1-.838.083Z" transform="translate(-324.811 -361.151)" fill="#3b3b56"/>
    </g>
    <circle id="Ellipse_381" data-name="Ellipse 381" cx="7.545" cy="7.545" r="7.545" transform="matrix(0.869, -0.496, 0.496, 0.869, 432.011, 350.683)" fill="#fdc54f"/>
    <path id="Path_4806" data-name="Path 4806" d="M803.818,553.944a8.049,8.049,0,0,1-4.026,8,8.186,8.186,0,0,1-12.148-6.277,8.286,8.286,0,0,1,1.817-6.077,8.2,8.2,0,0,1,5.569-2.963,8.093,8.093,0,0,1,5.956,1.863,7.93,7.93,0,0,1,2.784,5.463Zm-.789.084a7.455,7.455,0,0,0-.919-2.625,7.093,7.093,0,0,0-6.941-3.46,6.929,6.929,0,0,0-4.575,2.56,6.889,6.889,0,0,0,1.015,9.59,6.945,6.945,0,0,0,5.016,1.555,7.036,7.036,0,0,0,6.355-7.614Z" transform="translate(-353.612 -201.454)" fill="#3b3b56"/>
    <g id="Group_3044" data-name="Group 3044" transform="translate(339.893 231.648)">
      <g id="Group_3043" data-name="Group 3043" transform="translate(0 0)" clip-path="url(#clip-path-2)">
        <path id="Path_4807" data-name="Path 4807" d="M654.78,519.423c.755-2.642,14.719-48.307,13.209-51.7s-32.834-13.209-60.762-9.812c-3.746.456-2.264,53.214-1.51,57.742" transform="translate(-579.685 -377.451)" fill="#b6b6fc"/>
        <path id="Path_4808" data-name="Path 4808" d="M618.6,526.856c-3.806,2.512-10.841,2.381-11.276,1.946-1.51-1.51-.85-8.453-1.605-12.981s-2.237-56.909,1.51-57.365c5.672-.69,13.006-.977,13.006-.977C620.194,458.408,618.6,526.856,618.6,526.856Z" transform="translate(-579.685 -377.624)" fill="none"/>
        <path id="Path_4809" data-name="Path 4809" d="M679.684,528.682c7.231,5.961,22.781,2.8,22.781,2.8s-1.808-7.705-1.053-10.347,14.719-48.307,13.209-51.7c-.81-1.821-15.848-7-28.678-9.48L684.6,474.723Z" transform="translate(-626.318 -379.161)" fill="none"/>
        <path id="Path_4810" data-name="Path 4810" d="M618.517,457.02c3.3-.428,6.6-.594,9.9-.712s6.606-.128,9.911-.066c1.653.037,3.306.084,4.963.177.829.049,1.659.108,2.5.189s1.664.208,2.485.34c3.283.528,6.511,1.254,9.726,2.047s6.4,1.7,9.546,2.8a49.305,49.305,0,0,1,4.658,1.865,20.66,20.66,0,0,1,2.254,1.214,7.7,7.7,0,0,1,2.073,1.786,3.262,3.262,0,0,1,.4.7l.069.21.032.106.019.077.074.306.277,1.214.523,2.423,1,4.848q.972,4.852,1.858,9.721c.573,3.25,1.113,6.507,1.565,9.784.222,1.64.429,3.282.549,4.951.028.418.051.837.057,1.264a7.756,7.756,0,0,1-.07,1.335,2.244,2.244,0,0,1-.1.4,1.166,1.166,0,0,1-.133.26.792.792,0,0,1-.151.164.948.948,0,0,1-.112.079l-.085.041a1.539,1.539,0,0,1-.477.106q-.189.013-.359.01a12.385,12.385,0,0,1-1.291-.1c-1.666-.212-3.284-.522-4.908-.826l-4.854-.953c-3.231-.645-6.46-1.29-9.694-1.9-6.468-1.218-12.958-2.335-19.491-3.044a89.908,89.908,0,0,0-9.815-.582,38.613,38.613,0,0,0-4.879.3,14.685,14.685,0,0,0-4.617,1.278l-.006,0a.373.373,0,0,1-.338-.664,15.39,15.39,0,0,1,4.854-1.383,39.281,39.281,0,0,1,4.978-.337,90.811,90.811,0,0,1,9.911.529c6.576.676,13.092,1.759,19.58,2.942,3.244.594,6.481,1.221,9.715,1.848l4.85.924c1.615.294,3.237.593,4.842.787a11.381,11.381,0,0,0,1.172.088c.092,0,.179,0,.258-.008s.152-.026.125-.018a.064.064,0,0,0-.015.009.243.243,0,0,0-.05.034c-.035.036-.037.034-.047.051s0,.007,0-.017a1.21,1.21,0,0,0,.042-.2,7.128,7.128,0,0,0,.035-1.131c-.012-.4-.04-.8-.074-1.2-.14-1.616-.37-3.242-.616-4.862-.5-3.243-1.091-6.48-1.706-9.711s-1.244-6.462-1.908-9.684L676.493,472l-.534-2.4-.279-1.194-.073-.294-.018-.073-.015-.042-.027-.084a1.785,1.785,0,0,0-.217-.368,6.369,6.369,0,0,0-1.672-1.4,21.424,21.424,0,0,0-2.094-1.129,47.852,47.852,0,0,0-4.507-1.823c-3.077-1.084-6.232-1.986-9.407-2.795s-6.386-1.508-9.6-2.081c-.8-.139-1.608-.267-2.406-.362s-1.615-.157-2.43-.216c-1.632-.113-3.272-.182-4.912-.24s-3.283-.088-4.927-.1-3.286-.029-4.929-.012c-3.283.038-6.574.125-9.821.468h-.007a.421.421,0,0,1-.1-.836Z" transform="translate(-588.007 -376.831)" fill="#3b3b56"/>
        <path id="Path_4811" data-name="Path 4811" d="M713.257,523.311c.755-2.642,14.719-48.307,13.209-51.7-.423-.947-3.166-2.4-7.51-3.917,9.427,2.31,15.9,5.061,16.568,6.559,1.51,3.4-12.454,49.062-13.209,51.7" transform="translate(-647.22 -383.981)" fill="#f4f4f4" style="mix-blend-mode: multiply;isolation: isolate"/>
        <path id="Path_4812" data-name="Path 4812" d="M749.044,507.441q-1.408,5.363-2.922,10.7c-1,3.557-2.033,7.1-3.062,10.652l-3.129,10.628-1.555,5.312q-.391,1.327-.757,2.657c-.115.443-.239.888-.342,1.329-.057.221-.112.442-.155.659-.022.107-.051.222-.066.324l-.042.3-.01.069a.37.37,0,0,1-.736-.069l.02-.393c.009-.128.029-.24.043-.36.028-.24.067-.471.106-.7.077-.465.177-.917.266-1.375q.288-1.363.6-2.718.64-2.705,1.348-5.388c.934-3.58,1.936-7.14,2.958-10.694s2.09-7.093,3.192-10.622,2.238-7.048,3.436-10.548a.421.421,0,0,1,.806.244Z" transform="translate(-661.547 -408.401)" fill="#3b3b56"/>
        <path id="Path_4813" data-name="Path 4813" d="M644.227,469.678l2.111,3.139-8.6,29.506,12.071,1.412-.737-30.371,2.744-2.713-2.436-5.528Z" transform="translate(-600.205 -382.383)" fill="#fff"/>
      </g>
    </g>
    <path id="Path_4815" data-name="Path 4815" d="M569.108,452.765c-.164-1.509-.208-2.953-.29-4.428s-.111-2.935-.162-4.4-.1-2.934-.117-4.4l-.067-4.4,1.218.554a18.454,18.454,0,0,0-1.665,1.728c-.539.62-1.065,1.259-1.584,1.906-1.04,1.293-2.047,2.622-3.062,3.945l-6.051,8c-1.018,1.331-2.043,2.658-3.1,3.968a44.189,44.189,0,0,1-3.376,3.827,7.591,7.591,0,0,1-1.07.88,2.926,2.926,0,0,1-.365.2,1.5,1.5,0,0,1-.557.142,1,1,0,0,1-.288-.03.935.935,0,0,1-.294-.144,1.016,1.016,0,0,1-.188-.179,1.336,1.336,0,0,1-.105-.157,1.8,1.8,0,0,1-.176-.479,6.305,6.305,0,0,1-.105-1.41c.006-.44.031-.87.065-1.3.14-1.7.393-3.369.671-5.03.568-3.317,1.277-6.6,2.065-9.86s1.666-6.5,2.646-9.709,2.063-6.388,3.291-9.515a60.485,60.485,0,0,1,4.349-9.105.373.373,0,0,1,.641.38,47.367,47.367,0,0,0-2.233,4.442c-.677,1.517-1.3,3.06-1.884,4.618-1.167,3.117-2.186,6.292-3.112,9.494a168.948,168.948,0,0,0-4.474,19.468c-.258,1.639-.49,3.287-.607,4.917-.028.407-.048.813-.049,1.208a5.469,5.469,0,0,0,.079,1.086.678.678,0,0,0,.034.11.105.105,0,0,0-.019-.027.358.358,0,0,0-.074-.072.471.471,0,0,0-.156-.072.455.455,0,0,0-.132-.018c-.043,0,0,0,.044-.022a1.649,1.649,0,0,0,.183-.1,6.414,6.414,0,0,0,.857-.72,43.068,43.068,0,0,0,3.233-3.712c1.036-1.3,2.048-2.623,3.054-3.954l6.007-8.035q1.511-2.009,3.095-3.974c.53-.655,1.069-1.305,1.63-1.945a19.7,19.7,0,0,1,1.824-1.871.735.735,0,0,1,1.218.55v0l.022,4.4c.018,1.466-.006,2.932-.006,4.4s0,2.932-.016,4.4-.028,2.949,0,4.367v.031a.421.421,0,0,1-.839.053Z" transform="translate(-204.254 -118.401)" fill="#3b3b56"/>
    <path id="Path_4816" data-name="Path 4816" d="M556.259,346.053A58.514,58.514,0,0,0,584.6,360.6a59.556,59.556,0,0,0,10.663,1.142,58.133,58.133,0,1,0-50.386-85.527,59.318,59.318,0,0,0-4.152,9.888,58.127,58.127,0,0,0-2.659,21.211A59.971,59.971,0,0,0,539.7,317.94a58.837,58.837,0,0,0,3.568,10.148.373.373,0,0,1-.676.313,59.6,59.6,0,0,1-3.7-10.253,60.841,60.841,0,0,1-1.75-10.769,59.15,59.15,0,0,1,2.527-21.6,58.9,58.9,0,0,1,10.159-19.26,59.453,59.453,0,1,1,45.412,96.41,59.544,59.544,0,0,1-21.3-4.459,59.265,59.265,0,0,1-18.253-11.8.421.421,0,0,1,.574-.615Z" transform="translate(-197.588 -13.085)" fill="#3b3b56"/>
    <g id="Group_3045" data-name="Group 3045" transform="translate(345.05 276.52)">
      <path id="Rectangle_1547" data-name="Rectangle 1547" d="M5.746,0h4.871a5.746,5.746,0,0,1,5.746,5.746V22.957A5.747,5.747,0,0,1,10.617,28.7H5.746A5.746,5.746,0,0,1,0,22.957V5.746A5.746,5.746,0,0,1,5.746,0Z" transform="translate(17.303 0) rotate(37.071)" fill="#5b5b99"/>
      <rect id="Rectangle_1548" data-name="Rectangle 1548" width="20.63" height="10.641" transform="translate(26.309 10.376) rotate(127.071)" fill="#fff"/>
      <circle id="Ellipse_382" data-name="Ellipse 382" cx="1.287" cy="1.287" r="1.287" transform="translate(6.559 26.617) rotate(-71.135)" fill="#5b5b99"/>
      <path id="Path_4817" data-name="Path 4817" d="M563.811,397.006l-8.668-6.444-.542-.4-.271-.2c-.09-.068-.177-.129-.285-.221a2.581,2.581,0,0,1-.748-2.926,2.746,2.746,0,0,1,.391-.685l.4-.542,3.227-4.33,6.464-8.653,3.244-4.318.811-1.079.411-.545a2.73,2.73,0,0,1,3.8-.508l8.6,6.531.538.408.269.2c.09.069.174.129.289.228a2.693,2.693,0,0,1,.755,3.058,2.722,2.722,0,0,1-.185.377c-.071.112-.163.248-.225.326l-.408.537-3.274,4.295-6.577,8.568-3.307,4.27-.827,1.067-.417.536a2.54,2.54,0,0,1-.57.524,2.482,2.482,0,0,1-2.879-.1Zm.359-.475a1.868,1.868,0,0,0,2.588-.38l.4-.539.8-1.087,3.2-4.348,6.445-8.668,3.237-4.323.405-.54c.077-.1.108-.153.158-.229a1.7,1.7,0,0,0,.111-.229,1.643,1.643,0,0,0,.066-1,1.625,1.625,0,0,0-.53-.847c-.055-.049-.152-.121-.242-.188l-.27-.2-.539-.406-8.634-6.49A1.616,1.616,0,0,0,569.5,367a1.649,1.649,0,0,0-.365.34l-.4.53-.817,1.075-3.267,4.3-6.557,8.583-3.283,4.288-.411.535a1.874,1.874,0,0,0-.288.476,1.738,1.738,0,0,0,.472,1.979c.061.056.156.128.246.2l.268.206.536.411,8.568,6.578Z" transform="translate(-552.676 -365.295)" fill="#3c4958"/>
    </g>
    <g id="Group_3046" data-name="Group 3046" transform="translate(364.883 240.623)">
      <path id="Path_4818" data-name="Path 4818" d="M620.38,345.123c3.473,2.552,45.622,6.762,48.046,4.46,2.25-2.138,9.637-41.208,5.511-45.016s-44.589-9.415-49.178-5.374S616.907,342.571,620.38,345.123Z" transform="translate(-613.48 -287.178)" fill="#fff"/>
      <path id="Path_4819" data-name="Path 4819" d="M672.669,305.277c3.064-7.835,6.191-15.9,6.676-22.418.216-2.892-30.229-16.9-48.777-12.255-12.387,3.1-16.353,11.781-13.925,16.608,2.589,5.146,30.124,10.918,37.183-5.143,0,0,14.321.85,18.167,4.589C676.144,292.035,671.17,300.961,672.669,305.277Z" transform="translate(-611.636 -269.667)" fill="#7f7ff8"/>
      <circle id="Ellipse_383" data-name="Ellipse 383" cx="6.282" cy="6.282" r="6.282" transform="translate(51.496 56.302) rotate(-74.318)" fill="#fff"/>
      <path id="Path_4820" data-name="Path 4820" d="M621.469,349.739a1.793,1.793,0,0,0,.517.754c3.471,2.553,45.622,6.766,48.045,4.462,2.251-2.139,9.638-41.208,5.51-45.013-1.062-.98-4.538-2.082-9.195-3.109a2.817,2.817,0,0,1,.42.315c4.128,3.805-3.259,42.874-5.51,45.014C659.421,353.9,634.82,351.914,621.469,349.739Z" transform="translate(-615.063 -292.807)" fill="#f4f4f4" style="mix-blend-mode: multiply;isolation: isolate"/>
      <path id="Path_4821" data-name="Path 4821" d="M670.97,343.305a5.933,5.933,0,0,0,4.556-1.21,5.016,5.016,0,0,0,1.353-1.937,7.84,7.84,0,0,0,.514-2.385,6.766,6.766,0,0,0-.243-2.4,4.716,4.716,0,0,0-1.191-2,6.356,6.356,0,0,0-4.372-1.623h-.006a.565.565,0,0,1-.56-.57.641.641,0,0,1,.008-.09c.628-3.678,1.184-7.37,1.625-11.071a94.05,94.05,0,0,0,.761-11.11c-.008-.92-.044-1.839-.138-2.737a8.713,8.713,0,0,0-.563-2.513,1.827,1.827,0,0,0-.265-.432,1.858,1.858,0,0,0-.4-.314,7.8,7.8,0,0,0-1.147-.574,25.831,25.831,0,0,0-2.58-.887,103.881,103.881,0,0,0-10.877-2.378q-5.508-.942-11.071-1.555c-3.7-.408-7.42-.721-11.132-.847-1.855-.059-3.711-.074-5.547.019-.917.048-1.831.123-2.72.255a8.581,8.581,0,0,0-2.457.665,1.705,1.705,0,0,0-.4.277,2.674,2.674,0,0,0-.343.418,7.365,7.365,0,0,0-.6,1.115,21.122,21.122,0,0,0-.909,2.547c-.517,1.757-.916,3.569-1.268,5.39-.7,3.646-1.2,7.342-1.59,11.045s-.669,7.424-.8,11.143c-.066,1.859-.1,3.719-.06,5.572a38.621,38.621,0,0,0,.427,5.482,9.327,9.327,0,0,0,.3,1.268,1.7,1.7,0,0,0,.449.823,5.353,5.353,0,0,0,1.122.466c.425.136.866.255,1.31.367,1.783.441,3.618.774,5.452,1.085,7.355,1.205,14.8,2.008,22.235,2.643,3.72.3,7.449.56,11.172.626.93.014,1.859.014,2.784-.018a15.516,15.516,0,0,0,2.7-.274,1.852,1.852,0,0,0,.519-.189A1.251,1.251,0,0,0,667.3,347a10.8,10.8,0,0,0,.515-1.245c.307-.867.569-1.759.819-2.655a.372.372,0,0,1,.719.194c-.24.91-.491,1.817-.8,2.719a11.509,11.509,0,0,1-.539,1.353,1.87,1.87,0,0,1-.537.714,2.515,2.515,0,0,1-.782.319,16.141,16.141,0,0,1-2.867.338c-.945.046-1.887.06-2.827.059-3.761-.012-7.505-.215-11.246-.466s-7.472-.6-11.2-1-7.448-.864-11.16-1.45c-1.856-.3-3.709-.619-5.562-1.06-.464-.113-.928-.233-1.4-.379a6.329,6.329,0,0,1-1.459-.613,1.816,1.816,0,0,1-.223-.169,1.913,1.913,0,0,1-.188-.2,2.543,2.543,0,0,1-.265-.4,4.738,4.738,0,0,1-.322-.756,10.657,10.657,0,0,1-.361-1.456,38.86,38.86,0,0,1-.47-5.7c-.042-1.888-.018-3.77.043-5.65.126-3.759.4-7.507.777-11.245s.879-7.465,1.574-11.172c.352-1.853.752-3.7,1.285-5.536a22.535,22.535,0,0,1,.97-2.737,8.81,8.81,0,0,1,.728-1.352,4.019,4.019,0,0,1,.549-.661,3.2,3.2,0,0,1,.747-.522,9.848,9.848,0,0,1,2.932-.813c.961-.141,1.915-.215,2.865-.264,1.9-.092,3.79-.072,5.673-.008,3.767.136,7.512.46,11.244.879s7.45.95,11.153,1.591c1.851.322,3.7.673,5.538,1.069s3.675.835,5.495,1.384a27.094,27.094,0,0,1,2.717.958,9.111,9.111,0,0,1,1.351.694,3.132,3.132,0,0,1,.686.573,3.183,3.183,0,0,1,.468.758,6.978,6.978,0,0,1,.45,1.488,14.593,14.593,0,0,1,.208,1.454c.093.963.123,1.916.124,2.866a95.19,95.19,0,0,1-.852,11.266q-.7,5.59-1.746,11.12l-.557-.66a7.7,7.7,0,0,1,1.4.14,8.234,8.234,0,0,1,1.345.363,6.472,6.472,0,0,1,2.385,1.5,5.758,5.758,0,0,1,1.421,2.448,7.772,7.772,0,0,1,.248,2.759,8.8,8.8,0,0,1-.618,2.677,5.95,5.95,0,0,1-1.636,2.268,5.876,5.876,0,0,1-2.5,1.227,8.061,8.061,0,0,1-2.735.126.421.421,0,0,1,.092-.837Z" transform="translate(-612.364 -285.527)" fill="#3b3b56"/>
      <path id="Path_4822" data-name="Path 4822" d="M655.262,407.646a.4.4,0,0,0,0-.429l.006.008.011.015.023.032.049.065.1.131.214.257c.145.169.3.333.454.492a8.835,8.835,0,0,0,1,.877,5.906,5.906,0,0,0,2.28,1.1,3.187,3.187,0,0,0,2.259-.311,4.1,4.1,0,0,0,.928-.711,4.491,4.491,0,0,0,.394-.455,5.089,5.089,0,0,0,.319-.468l.571,1.089c-.7-.1-1.387-.191-2.076-.319s-1.376-.255-2.082-.41C658.314,408.3,656.847,407.961,655.262,407.646Zm-.727-.414.051,0c1.416.068,2.953.1,4.566.186.8.037,1.627.1,2.448.167s1.642.166,2.454.259h0a.74.74,0,0,1,.566,1.089,4.648,4.648,0,0,1-.458.7,5.954,5.954,0,0,1-.535.6,4.917,4.917,0,0,1-1.33.935,4.5,4.5,0,0,1-3.2.232,6.706,6.706,0,0,1-2.652-1.482,9.894,9.894,0,0,1-1.036-1.055c-.158-.187-.308-.38-.452-.578l-.211-.3-.1-.155-.05-.079-.025-.041-.013-.021-.006-.011a.522.522,0,0,1-.039-.077.423.423,0,0,1,.023-.363Z" transform="translate(-635.616 -355.304)" fill="#3b3b56"/>
      <path id="Path_4823" data-name="Path 4823" d="M627.817,376.268c-1.137.579-20.309-.582-21.075-1.808s-.185-10.239.946-11.027,20.334.888,21.075,1.808S628.955,375.688,627.817,376.268Z" transform="translate(-605.678 -327.918)" fill="#49cbf9"/>
      <path id="Path_4824" data-name="Path 4824" d="M697.842,383.162c-1.137.579-20.309-.582-21.075-1.808s-.185-10.239.946-11.027,20.334.888,21.075,1.808S698.98,382.582,697.842,383.162Z" transform="translate(-649.275 -332.21)" fill="#49cbf9"/>
      <path id="Path_4825" data-name="Path 4825" d="M626.825,375.415c-.038.017-.078.034-.118.048s-.06.017-.09.026c-.062.018-.106.024-.158.034-.1.017-.19.03-.28.04-.181.021-.355.033-.53.044-.348.02-.691.031-1.034.037-.686.013-1.368.01-2.05,0-1.363-.018-2.723-.063-4.082-.122-2.719-.117-5.433-.3-8.151-.591-.68-.074-1.36-.156-2.042-.254a19.584,19.584,0,0,1-2.075-.393,5.37,5.37,0,0,1-.562-.181,2.388,2.388,0,0,1-.34-.169c-.034-.022-.076-.053-.112-.081a.794.794,0,0,1-.128-.118c-.025-.028-.048-.057-.071-.086a.483.483,0,0,1-.048-.072l-.053-.1a2.716,2.716,0,0,1-.216-.662c-.039-.192-.066-.379-.088-.56a18.782,18.782,0,0,1-.1-2.115,38.3,38.3,0,0,1,.236-4.141c.078-.689.175-1.378.314-2.075.073-.349.155-.7.268-1.064a4.991,4.991,0,0,1,.217-.568,2.46,2.46,0,0,1,.183-.323,1.915,1.915,0,0,1,.135-.179,2.142,2.142,0,0,1,.222-.2,1.448,1.448,0,0,1,.17-.1,1.037,1.037,0,0,1,.129-.051,1.638,1.638,0,0,1,.2-.057,3.2,3.2,0,0,1,.32-.055c.2-.026.379-.038.562-.049.36-.019.71-.025,1.057-.025.694,0,1.38.02,2.064.048,1.368.057,2.727.144,4.086.247,2.716.214,5.426.459,8.13.837,1.356.194,2.7.38,4.076.71.176.047.349.092.539.159a2.662,2.662,0,0,1,.314.131c.029.014.071.04.105.062l.054.035a1,1,0,0,1,.082.069,1.085,1.085,0,0,1,.077.078.629.629,0,0,1,.041.058l.071.117a2.3,2.3,0,0,1,.2.661c.036.192.054.372.071.553a19.11,19.11,0,0,1,.049,2.1,40.456,40.456,0,0,1-.331,4.108c-.092.682-.2,1.362-.349,2.043-.08.34-.166.68-.283,1.023a4.878,4.878,0,0,1-.215.522,2.14,2.14,0,0,1-.169.274c-.04.049-.076.1-.121.143a1.579,1.579,0,0,1-.2.143Zm-.36-.707c0-.009,0-.012,0-.012l.038-.055a1.674,1.674,0,0,0,.087-.163,4.2,4.2,0,0,0,.149-.428c.085-.3.149-.627.207-.95.113-.65.193-1.314.254-1.979a39.565,39.565,0,0,0,.159-4.011,19.4,19.4,0,0,0-.1-1.967c-.019-.156-.04-.314-.07-.454a1.407,1.407,0,0,0-.089-.31.011.011,0,0,0,.006.008s0,0,.008.005a.208.208,0,0,0,.03.036.253.253,0,0,0,.035.027h0s.005,0,0,0c-.034-.015-.093-.037-.157-.059-.131-.043-.287-.08-.44-.116-1.266-.27-2.622-.428-3.954-.583-2.68-.285-5.374-.54-8.068-.717-1.347-.089-2.695-.163-4.037-.206-.671-.02-1.341-.034-2-.028-.33,0-.659.012-.976.032-.156.011-.314.023-.451.043a1.732,1.732,0,0,0-.181.032.231.231,0,0,0-.043.012c.006,0-.018,0,.011-.006a.23.23,0,0,0,.059-.035.052.052,0,0,0,.036-.028.248.248,0,0,1-.016.025.96.96,0,0,0-.068.118,3.529,3.529,0,0,0-.148.381c-.091.284-.168.593-.236.907-.132.632-.231,1.286-.312,1.943a36.993,36.993,0,0,0-.263,3.976,17.523,17.523,0,0,0,.073,1.947c.017.155.039.3.065.445a1.676,1.676,0,0,0,.082.307l0,.012c0,.008,0,0-.013-.02a.261.261,0,0,0-.029-.037.4.4,0,0,1-.035-.034s-.012-.007-.01-.005a1.165,1.165,0,0,0,.115.058,4.111,4.111,0,0,0,.4.138,18.352,18.352,0,0,0,1.912.4c.657.11,1.322.2,1.989.292,2.67.342,5.367.581,8.062.787,1.348.1,2.7.183,4.046.242.674.029,1.348.051,2.018.059.335,0,.67,0,1-.006.164-.005.329-.012.485-.025.079-.006.155-.014.224-.024s.145-.031.124-.021Z" transform="translate(-604.495 -326.69)" fill="#3b3b56"/>
      <path id="Path_4826" data-name="Path 4826" d="M696.85,382.309c-.039.018-.078.034-.118.049s-.06.017-.09.026c-.062.017-.106.023-.158.034-.1.017-.19.03-.28.039-.181.021-.356.033-.53.044-.348.02-.692.031-1.034.038-.686.012-1.368.01-2.05,0-1.363-.019-2.723-.063-4.082-.122-2.719-.117-5.433-.3-8.151-.59-.68-.074-1.36-.155-2.042-.254a19.577,19.577,0,0,1-2.075-.393,5.317,5.317,0,0,1-.563-.181,2.323,2.323,0,0,1-.339-.169c-.034-.022-.076-.053-.112-.081a.76.76,0,0,1-.128-.118c-.025-.028-.048-.056-.071-.086a.485.485,0,0,1-.048-.072l-.053-.1a2.71,2.71,0,0,1-.216-.662c-.039-.192-.066-.379-.088-.561a18.764,18.764,0,0,1-.1-2.115,38.308,38.308,0,0,1,.236-4.141c.079-.689.175-1.378.314-2.076.073-.349.155-.7.268-1.063a4.992,4.992,0,0,1,.217-.568,2.452,2.452,0,0,1,.183-.323,1.9,1.9,0,0,1,.135-.179,2.187,2.187,0,0,1,.221-.2,1.509,1.509,0,0,1,.17-.1,1.032,1.032,0,0,1,.129-.051,1.7,1.7,0,0,1,.2-.056,3.232,3.232,0,0,1,.32-.055c.2-.026.38-.038.562-.049.36-.019.71-.025,1.057-.025.694,0,1.38.02,2.064.048,1.367.057,2.727.144,4.086.247,2.716.214,5.426.458,8.13.837,1.356.194,2.7.38,4.076.711.176.047.349.092.539.158a2.677,2.677,0,0,1,.314.131c.029.014.071.04.105.061l.054.035a1.007,1.007,0,0,1,.082.069,1.078,1.078,0,0,1,.077.078.642.642,0,0,1,.041.059l.071.117a2.283,2.283,0,0,1,.2.661c.035.192.054.372.071.553a19.1,19.1,0,0,1,.049,2.1,40.55,40.55,0,0,1-.331,4.108c-.092.682-.2,1.362-.349,2.043-.081.34-.166.68-.283,1.023a4.891,4.891,0,0,1-.215.521,2.168,2.168,0,0,1-.169.275c-.04.049-.076.1-.121.143a1.619,1.619,0,0,1-.2.143Zm-.36-.707c0-.009,0-.012,0-.011l.038-.056a1.632,1.632,0,0,0,.087-.163,4.191,4.191,0,0,0,.149-.428c.085-.3.149-.627.207-.95.113-.65.193-1.313.254-1.979a39.573,39.573,0,0,0,.159-4.011,19.4,19.4,0,0,0-.1-1.968c-.019-.156-.04-.314-.07-.454a1.39,1.39,0,0,0-.089-.309.011.011,0,0,0,.006.007s0,0,.008.005a.207.207,0,0,0,.03.036.205.205,0,0,0,.035.027v0s.005,0,0,0c-.034-.015-.093-.037-.157-.058-.131-.043-.287-.08-.44-.116-1.266-.271-2.622-.428-3.954-.583-2.68-.285-5.374-.54-8.068-.717-1.347-.089-2.695-.163-4.037-.206-.671-.02-1.341-.034-2-.028-.33,0-.659.012-.976.032-.156.011-.314.023-.451.043-.07.009-.135.021-.181.032a.216.216,0,0,0-.043.012c.006,0-.018,0,.011-.006a.248.248,0,0,0,.059-.035.054.054,0,0,0,.036-.028.262.262,0,0,1-.016.025.951.951,0,0,0-.068.119,3.631,3.631,0,0,0-.148.381c-.091.283-.167.593-.235.906-.132.632-.231,1.286-.312,1.943a36.89,36.89,0,0,0-.263,3.976,17.519,17.519,0,0,0,.073,1.947c.017.155.039.3.065.445a1.67,1.67,0,0,0,.082.307l0,.013c0,.008,0,0-.013-.02a.264.264,0,0,0-.029-.038.323.323,0,0,1-.035-.034s-.012-.007-.01-.005a1.172,1.172,0,0,0,.115.058,3.979,3.979,0,0,0,.4.138,18.357,18.357,0,0,0,1.912.4c.657.11,1.322.2,1.989.292,2.67.343,5.367.581,8.062.787,1.348.1,2.7.183,4.046.242.674.029,1.348.051,2.018.059.335,0,.669,0,1-.006.164-.006.329-.012.485-.025.078-.006.155-.015.224-.025s.145-.031.124-.021Z" transform="translate(-648.093 -330.983)" fill="#3b3b56"/>
      <path id="Path_4827" data-name="Path 4827" d="M638.575,381.139a6.435,6.435,0,0,1-.188-1.311,10.719,10.719,0,0,1,.016-1.3,10.831,10.831,0,0,1,.17-1.289,6.566,6.566,0,0,1,.373-1.276.4.4,0,0,1,.744.046,6.556,6.556,0,0,1,.211,1.313,10.966,10.966,0,0,1-.136,2.59,6.428,6.428,0,0,1-.349,1.277.444.444,0,0,1-.84-.052Z" transform="translate(-625.589 -335.698)" fill="#3b3b56"/>
      <path id="Path_4828" data-name="Path 4828" d="M685,384.181a6.658,6.658,0,0,1-.239-1.325,11.019,11.019,0,0,1-.034-1.321,11.149,11.149,0,0,1,.12-1.318,6.762,6.762,0,0,1,.323-1.313.395.395,0,0,1,.745.017,6.792,6.792,0,0,1,.262,1.326,11.224,11.224,0,0,1,.058,1.322,11.09,11.09,0,0,1-.1,1.318,6.658,6.658,0,0,1-.3,1.313.444.444,0,0,1-.842-.02Z" transform="translate(-654.441 -337.519)" fill="#3b3b56"/>
    </g>
    <path id="Path_4829" data-name="Path 4829" d="M645.215,464.382c.216,1.032.416,2.066.615,3.1s.4,2.068.591,3.1l-1.022-.365q1.877-1.759,3.787-3.481c1.268-1.153,2.551-2.29,3.833-3.428l0,0a.75.75,0,0,1,1.059.063.81.81,0,0,1,.112.166l1.08,2.19c.362.729.711,1.465,1.062,2.2.7,1.468,1.384,2.948,2.054,4.433l-.784-.234c4.143-2.344,8.274-4.708,12.429-7.032a.373.373,0,0,1,.376.643c-4.068,2.473-8.159,4.905-12.239,7.357a.553.553,0,0,1-.759-.189l-.009-.016-.016-.028c-.786-1.427-1.563-2.859-2.315-4.3-.377-.722-.756-1.442-1.122-2.169l-1.1-2.178,1.173.228c-1.287,1.132-2.574,2.265-3.875,3.381s-2.6,2.231-3.922,3.328l-.023.019a.613.613,0,0,1-1-.384c-.149-1.042-.283-2.087-.419-3.132s-.274-2.089-.394-3.136a.421.421,0,0,1,.831-.135Z" transform="translate(-264.445 -149.489)" fill="#3b3b56"/>
    <path id="Path_4830" data-name="Path 4830" d="M696.312,501.894l-.735,6.133,13.723.671,1.116-5.627Z" transform="translate(-296.319 -173.629)" fill="#f4f4f4" style="mix-blend-mode: multiply;isolation: isolate"/>
    <path id="Path_4831" data-name="Path 4831" d="M692.226,496.162l-.735,6.133,13.723.671,1.116-5.627Z" transform="translate(-293.776 -170.06)" fill="#fff"/>
    <path id="Path_4832" data-name="Path 4832" d="M693.693,495.368c1.948.094,3.892.224,5.838.338l5.834.389a.657.657,0,0,1,.612.7.646.646,0,0,1-.009.072l0,.023-.51,2.823-.529,2.819a.737.737,0,0,1-.759.6h-.009l-3.431-.159-3.43-.186q-3.429-.2-6.855-.455l-.035,0a.6.6,0,0,1-.552-.642c0-.014,0-.03,0-.044.153-1.019.3-2.038.471-3.054s.323-2.035.506-3.05a.373.373,0,0,1,.74.089c-.062,1.03-.149,2.056-.229,3.083s-.172,2.053-.264,3.079l-.582-.689q3.435.077,6.867.216l3.432.149,3.43.177-.768.6.586-2.808.606-2.8.6.795-5.818-.584c-1.938-.21-3.877-.4-5.814-.635a.421.421,0,0,1,.07-.839Z" transform="translate(-292.755 -169.48)" fill="#3b3b56"/>
  </g>
</svg>
