<svg id="Component_4_1" data-name="Component 4 – 1" xmlns="http://www.w3.org/2000/svg" width="196" height="196" viewBox="0 0 196 196">
  <g id="icon_pro">
    <circle id="back" cx="98" cy="98" r="98" fill="#f4f5f8"/>
    <g id="plug" transform="translate(32.447 26)">
      <path id="Path_5656" data-name="Path 5656" d="M66.779,22A66.778,66.778,0,0,0,16.124,132.287l7.143,7.143A66.779,66.779,0,1,0,66.779,22Z" transform="translate(0 -16)" fill="#b6b6fc"/>
    </g>
  </g>
  <g id="wifi" transform="translate(55.811 52.811)">
    <g id="Rounded" transform="translate(-2 -2)">
      <g id="Communication" transform="translate(0 0)">
        <g id="_-Round-_-Communication-_-portable_wifi_off" data-name="-Round-/-Communication-/-portable_wifi_off">
          <g id="Group_3078" data-name="Group 3078">
            <path id="Path" d="M0,0H94.1V94.1H0Z" fill="none" fill-rule="evenodd"/>
            <path id="_Icon-Color" data-name="🔹Icon-Color" d="M4.784,6.2a3.9,3.9,0,0,0,0,5.528l5.45,5.45a39.18,39.18,0,0,0,7.684,55.555,3.921,3.921,0,0,0,4.7-6.273A31.346,31.346,0,0,1,9.841,41.206a30.989,30.989,0,0,1,6-18.388l5.607,5.646a23.416,23.416,0,0,0,4.313,30.424,3.923,3.923,0,0,0,5.881-1.1l.039-.039a3.972,3.972,0,0,0-.9-4.94,15.337,15.337,0,0,1-3.529-18.623l6.195,6.195-.078.823a7.864,7.864,0,0,0,7.841,7.841l.823-.078,26.7,26.7a3.909,3.909,0,0,0,5.528-5.528L10.351,6.2A3.952,3.952,0,0,0,4.784,6.2ZM63.593,48.342a23.845,23.845,0,0,0,1.137-7.136A23.542,23.542,0,0,0,41.206,17.683a23.846,23.846,0,0,0-7.136,1.137l6.743,6.743c.118,0,.235-.039.392-.039A15.678,15.678,0,0,1,56.889,41.206c0,.157-.039.274-.039.431ZM41.206,9.841A31.356,31.356,0,0,1,72.571,41.206,30.89,30.89,0,0,1,69.553,54.34l5.842,5.842a38.5,38.5,0,0,0,5.018-18.976A39.035,39.035,0,0,0,22.23,7.018l5.8,5.8A30.9,30.9,0,0,1,41.206,9.841Z" transform="translate(5.841 5.841)" fill="#675ed1" fill-rule="evenodd"/>
          </g>
        </g>
      </g>
    </g>
  </g>
</svg>
