<svg xmlns="http://www.w3.org/2000/svg" width="20" height="20" viewBox="0 0 20 20">
  <g id="language_black_24dp" transform="translate(-1 -1)">
    <path id="Path_13348" data-name="Path 13348" d="M0,0H20V20H0Z" transform="translate(1 1)" fill="none"/>
    <path id="Path_13349" data-name="Path 13349" d="M11.99,2A10,10,0,1,0,22,12,10,10,0,0,0,11.99,2Zm6.93,6H15.97a15.649,15.649,0,0,0-1.38-3.56A8.03,8.03,0,0,1,18.92,8ZM12,4.04A14.087,14.087,0,0,1,13.91,8H10.09A14.087,14.087,0,0,1,12,4.04ZM4.26,14a7.822,7.822,0,0,1,0-4H7.64a16.515,16.515,0,0,0-.14,2,16.515,16.515,0,0,0,.14,2Zm.82,2H8.03a15.649,15.649,0,0,0,1.38,3.56A7.987,7.987,0,0,1,5.08,16ZM8.03,8H5.08A7.987,7.987,0,0,1,9.41,4.44,15.649,15.649,0,0,0,8.03,8ZM12,19.96A14.087,14.087,0,0,1,10.09,16h3.82A14.087,14.087,0,0,1,12,19.96ZM14.34,14H9.66a14.713,14.713,0,0,1-.16-2,14.585,14.585,0,0,1,.16-2h4.68a14.585,14.585,0,0,1,.16,2A14.713,14.713,0,0,1,14.34,14Zm.25,5.56A15.649,15.649,0,0,0,15.97,16h2.95A8.03,8.03,0,0,1,14.59,19.56ZM16.36,14a16.515,16.515,0,0,0,.14-2,16.515,16.515,0,0,0-.14-2h3.38a7.822,7.822,0,0,1,0,4Z" transform="translate(-1 -1)" fill="#7d7bfa"/>
  </g>
</svg>
