<svg xmlns="http://www.w3.org/2000/svg" width="25" height="24" viewBox="0 0 25 24">
  <g id="Icons" transform="translate(5 2)">
    <g id="Rounded" transform="translate(-139 -3124)">
      <g id="Maps" transform="translate(100 3068)">
        <g id="_-Round-_-Maps-_-edit_location" data-name="-Round-/-Maps-/-edit_location" transform="translate(34 54)">
          <g id="Group_3003" data-name="Group 3003">
            <path id="Path" d="M0,0H25V24H0Z" fill="none" fill-rule="evenodd"/>
            <path id="_-Icon-Color" data-name="🔹-Icon-Color" d="M12.5,2A7.158,7.158,0,0,0,5.208,9c0,4.17,4.6,9.92,6.5,12.11a1.062,1.062,0,0,0,1.594,0c1.885-2.19,6.49-7.94,6.49-12.11A7.158,7.158,0,0,0,12.5,2ZM10.365,12.49h-1.5V11.05l4.094-3.92,1.49,1.43Zm5.563-5.34-.729.7L13.7,6.41l.729-.7a.408.408,0,0,1,.563,0l.938.9A.37.37,0,0,1,15.927,7.15Z" fill="#7f7ff8" fill-rule="evenodd"/>
          </g>
        </g>
      </g>
    </g>
  </g>
</svg>
