<svg xmlns="http://www.w3.org/2000/svg" width="106.231" height="85.727" viewBox="0 0 106.231 85.727">
  <g id="logo" transform="translate(-1130.169 569.289)">
    <path id="Path_156"  d="M876.384-527.113c2.294,4.273,5.908,6.627,10.176,6.628a12.445,12.445,0,0,0,2.592-.283c4.944-1.06,8.072-4.955,8.58-10.684.733-8.265-3.908-19.726-10.1-25.35a20.358,20.358,0,0,1,15.536-7.289c6.438,0,12.216,2.615,15.458,6.993,3.742,5.056,4.267,12.494,1.514,21.512-5.886,19.276-23.824,28.442-30.213,31.157a3.963,3.963,0,0,1-2.478.209c-7.773-1.865-35.918-9.936-38.129-29.445l-.02-.154a19.27,19.27,0,0,1-.265-3.035A19.389,19.389,0,0,1,868.4-556.221a19.235,19.235,0,0,1,8.336,1.916c-3.946,8.679-4.14,20.143-.355,27.192m13.392-5.045c-.28,3.149-1.643,3.44-2.3,3.578a4.266,4.266,0,0,1-.913.105c-.5,0-1.841,0-3.139-2.417-2.134-3.976-2.524-12.13.008-18.776,3.491,4.128,6.833,12.026,6.346,17.509m13.393-39.922a28.335,28.335,0,0,0-22.279,10.9,27.274,27.274,0,0,0-12.487-3.03,27.387,27.387,0,0,0-27.356,27.356,26.613,26.613,0,0,0,.348,4.172c3.3,28.613,45.136,36.5,46.917,36.823h0a3.992,3.992,0,0,0,1.956-.136c1.185-.39,29.144-9.856,37.51-37.26,4.45-14.574.971-23.6-2.732-28.6-4.741-6.405-12.921-10.229-21.879-10.229" transform="translate(299.113 12.232)" fill="#fff"/>
    <path id="Path_157"  d="M902.536-578.349a7.368,7.368,0,0,0-7.36,7.359,7.368,7.368,0,0,0,7.36,7.359,7.368,7.368,0,0,0,7.359-7.359,7.368,7.368,0,0,0-7.359-7.359" transform="translate(326.505 9.06)" fill="#fff"/>
    <path id="Path_158"  d="M849.129-564.6a7.366,7.366,0,0,0-7.359-7.359,7.366,7.366,0,0,0-7.357,7.359,7.366,7.366,0,0,0,7.357,7.359,7.366,7.366,0,0,0,7.359-7.359" transform="translate(295.755 12.293)" fill="#fff"/>
  </g>
</svg>
