<svg xmlns="http://www.w3.org/2000/svg" width="151" height="30" viewBox="0 0 151 30">
  <g id="logo" transform="translate(0.036 0.021)">
    <g id="Layer_1" data-name="Layer 1" transform="translate(-0.036 -0.021)">
      <path id="Path_13158" data-name="Path 13158" d="M52.706,27.309h.9v-.484c0-2.77-1.8-3.721-3.911-3.721a10.021,10.021,0,0,0-4.4,1.207,1.573,1.573,0,0,1-2.348-.723l-.413-.785a1.542,1.542,0,0,1,.364-2.166c.12-.062.178-.12.3-.182a14.8,14.8,0,0,1,6.925-1.745c5.478,0,8.789,3.072,8.789,8.429V39.128a1.55,1.55,0,0,1-1.323,1.745H55.778c-1.145,0-1.687-.6-1.687-1.745V37.847a4.448,4.448,0,0,1,.062-.905h-.062a7.6,7.6,0,0,1-6.615,3.977c-3.853,0-7.028-2.48-7.028-6.383C40.362,28.392,48.01,27.309,52.706,27.309Zm-3.915,9.575c2.952,0,4.878-3.01,4.878-5.54v-.785h-.9c-2.65,0-7.168.413-7.168,3.555C45.6,35.556,46.683,36.883,48.792,36.883Z" transform="translate(-23.712 -10.96)" fill="#7d7afa"/>
      <path id="Path_13159" data-name="Path 13159" d="M250.377,27.309h.827v-.484c0-2.77-1.807-3.721-3.973-3.721a10.021,10.021,0,0,0-4.4,1.207,1.573,1.573,0,0,1-2.348-.723l-.413-.785a1.542,1.542,0,0,1,.364-2.166c.12-.062.178-.12.3-.182a14.8,14.8,0,0,1,6.925-1.745c5.478,0,8.789,3.072,8.789,8.429V39.128a1.55,1.55,0,0,1-1.323,1.745h-1.807c-1.145,0-1.687-.6-1.687-1.745V37.847a4.45,4.45,0,0,1,.062-.905h-.054a7.6,7.6,0,0,1-6.615,3.977c-3.857,0-7.028-2.48-7.028-6.383C237.971,28.392,245.619,27.309,250.377,27.309ZM246.4,36.883c2.948,0,4.878-3.01,4.878-5.54v-.785h-.827c-2.65,0-7.169.413-7.169,3.555-.074,1.443,1.009,2.77,3.117,2.77Z" transform="translate(-141.2 -10.96)" fill="#7d7afa"/>
      <path id="Path_13160" data-name="Path 13160" d="M94.41,21.158a1.55,1.55,0,0,1,1.323-1.745h1.988A1.513,1.513,0,0,1,99.408,20.8v1.625c0,.3-.062.661-.062.963h.062a8.337,8.337,0,0,1,6.982-4.457c3.192,0,5.3,1.5,6.2,4.337h.058a8.268,8.268,0,0,1,7.214-4.337c4.4,0,6.925,2.48,6.925,8.07V39.286a1.55,1.55,0,0,1-1.323,1.745h-2.212a1.55,1.55,0,0,1-1.745-1.323V27.963c0-2.406-.484-4.213-2.894-4.213-3.551,0-5.42,3.671-5.42,7.346v8.19a1.54,1.54,0,0,1-1.683,1.745h-1.807a1.554,1.554,0,0,1-1.749-1.323V27.963c0-2.286-.36-4.213-2.828-4.213-3.721,0-5.482,3.791-5.482,7.346v8.19a1.543,1.543,0,0,1-1.687,1.745H96.154a1.517,1.517,0,0,1-1.687-1.745Z" transform="translate(-56.067 -11.089)" fill="#7d7afa"/>
      <path id="Path_13161" data-name="Path 13161" d="M324.229,25.068a1.852,1.852,0,0,1-1.807,1.807h-9.455a1.079,1.079,0,0,1-1.083-1.083V24.708a1.079,1.079,0,0,1,1.083-1.062h6.023c0-4.758-4.7-6.565-8.491-6.565a18.062,18.062,0,0,0-2.53.24c-6.743,1.265-11.2,7.288-11.2,10.778V35.3a1.544,1.544,0,0,1-1.687,1.749h-1.807A1.52,1.52,0,0,1,291.59,35.3V15.733h1.629a3.46,3.46,0,0,1,3.369,3.435,11.34,11.34,0,0,1-.12,1.443h.062c.661-1.926,7.218-8.491,15.114-8.491C317.3,12.244,324.229,15.733,324.229,25.068Z" transform="translate(-173.229 -7.095)" fill="#7d7afa"/>
      <path id="Path_13162" data-name="Path 13162" d="M341.619,44.219l-.48-.781c-.542-.967-1.265-1.087-2.348-.6a9.475,9.475,0,0,1-4.576,1.385,6.416,6.416,0,0,1-6.383-5.841,12.191,12.191,0,0,1,.12-3.307A2.571,2.571,0,0,0,326.083,32a1.608,1.608,0,0,0-.542-.062h0a2.534,2.534,0,0,0-2.406,1.678,12.819,12.819,0,0,0-.666,3.977c0,6.019,4.337,11.079,11.381,11.079a13.126,13.126,0,0,0,7.169-2.108A1.539,1.539,0,0,0,341.619,44.219Z" transform="translate(-191.342 -18.717)" fill="#7d7afa"/>
      <path id="Path_13163" data-name="Path 13163" d="M-.021,1.749A1.559,1.559,0,0,1,1.318-.012H15.167a1.608,1.608,0,0,1,1.761,1.4v1.5a1.505,1.505,0,0,1-1.385,1.683H5.3V28.188a1.545,1.545,0,0,1-1.687,1.749H1.682a1.549,1.549,0,0,1-1.7-1.749Z" transform="translate(0.036 0.021)" fill="#7d7afa"/>
      <path id="Path_13164" data-name="Path 13164" d="M23.842,31.6l-3.307.178a1.364,1.364,0,0,0-1.265,1.265v1.5a1.273,1.273,0,0,0,1.265,1.265L23.842,36c1.265.058,1.988-.542,1.988-1.625V33.228C25.773,32.083,25.107,31.541,23.842,31.6Z" transform="translate(-11.289 -18.524)" fill="#7d7afa"/>
      <path id="Path_13165" data-name="Path 13165" d="M359.622.3h-.8a.132.132,0,0,1-.124-.12h0V.12a.132.132,0,0,1,.124-.12h1.865a.128.128,0,0,1,.12.12h0V.182a.128.128,0,0,1-.12.12h-.781V2.41a.132.132,0,0,1-.12.12h-.124a.132.132,0,0,1-.12-.12Z" transform="translate(-212.595 0.009)" fill="#7d7afa"/>
      <path id="Path_13166" data-name="Path 13166" d="M364.584.12A.132.132,0,0,1,364.7,0h.182a.128.128,0,0,1,.12.12l.542,1.265a2.138,2.138,0,0,1,.12.36h0l.12-.36L366.333.12a.128.128,0,0,1,.12-.12h.178a.132.132,0,0,1,.124.12h0l.178,2.29c0,.058,0,.12-.058.12h-.12a.132.132,0,0,1-.124-.12L366.511.9V.542h0a2.138,2.138,0,0,1-.12.36l-.48,1.087a.132.132,0,0,1-.124.12h-.12a.132.132,0,0,1-.12-.12L365.056.9a2.143,2.143,0,0,1-.12-.36h0V.9l-.182,1.509a.133.133,0,0,1-.12.12h-.12a.132.132,0,0,1-.124-.12h0Z" transform="translate(-215.933 0.009)" fill="#7d7afa"/>
      <path id="Path_13167" data-name="Path 13167" d="M182.468,31.224,182.41,29.6l.058-1.625c.182-5.9,4.035-9.455,10.058-9.455,4.337,0,7.346,1.745,8.851,3.973a6.833,6.833,0,0,1,1.145,3.192.951.951,0,0,1-.963.963h-3.675c-.6,0-.781-.178-1.083-.827a4.048,4.048,0,0,0-4.217-2.948c-2.77,0-4.395,1.745-4.514,5.374l-.041,1.472.041,1.4c.182,3.555,1.687,5.374,4.514,5.374,2.17,0,3.373-.827,4.217-2.952a1,1,0,0,1,1.083-.827h3.675a.951.951,0,0,1,.963.963h0c-.12,1.926-1.5,4.337-4.457,5.961a11.786,11.786,0,0,1-5.54,1.2C186.445,40.679,182.654,37.127,182.468,31.224Z" transform="translate(-108.232 -10.849)" fill="#7d7afa"/>
    </g>
  </g>
</svg>
