<svg xmlns="http://www.w3.org/2000/svg" width="196" height="196" viewBox="0 0 196 196">
  <g id="icon_pro" transform="translate(-90 -187)">
    <circle id="back" cx="98" cy="98" r="98" transform="translate(90 187)" fill="#f4f5f8"/>
    <g id="plug" transform="translate(122.447 213)">
      <path id="Path_5656" data-name="Path 5656" d="M66.779,22A66.778,66.778,0,0,0,16.124,132.287l7.143,7.143A66.779,66.779,0,1,0,66.779,22Z" transform="translate(0 -16)" fill="#ffc839"/>
      <path id="Path_5657" data-name="Path 5657" d="M408.991,153.021a20.966,20.966,0,0,1,2.517,3.046l12.905-12.905a5.479,5.479,0,0,1-6.769-6.769L405,149.033l3.987,3.987Z" transform="translate(-294.614 -99.217)" fill="#7f75f8"/>
      <path id="Path_5658" data-name="Path 5658" d="M306.472,51.21,310.46,55.2l12.64-12.64a5.479,5.479,0,0,1-6.769-6.769L303.426,48.693A20.936,20.936,0,0,1,306.472,51.21Z" transform="translate(-220.722 -26.033)" fill="#7f75f8"/>
      <path id="Path_5659" data-name="Path 5659" d="M73.464,386.561a6.786,6.786,0,0,1-1.978-5.166L59.155,393.726A67.159,67.159,0,0,0,66.3,400.87L78.63,388.539A6.785,6.785,0,0,1,73.464,386.561Z" transform="translate(-43.031 -277.439)" fill="#bec8f7"/>
      <path id="Path_5660" data-name="Path 5660" d="M71.983,390.229a5.391,5.391,0,0,1,5.652,1.331l.046.047.047.046a5.386,5.386,0,0,1,1.252,5.868l8.982-8.982a6.787,6.787,0,0,1-7.144-7.144Z" transform="translate(-52.363 -277.439)" fill="#bec8f7"/>
      <path id="Path_5661" data-name="Path 5661" d="M112.533,336.867l-8.222,8.222a6.81,6.81,0,0,0,9.631,9.631l8.222-8.222Z" transform="translate(-74.428 -245.048)" fill="#7268e8"/>
      <path id="Path_5662" data-name="Path 5662" d="M106.691,352.189l4.066-4.066a5.725,5.725,0,0,1,8.1,0l.843.843,2.469-2.469-9.631-9.631-8.222,8.222a6.8,6.8,0,0,0,.6,10.158A6.985,6.985,0,0,1,106.691,352.189Z" transform="translate(-74.428 -245.048)" fill="#7f75f8"/>
      <path id="Path_5663" data-name="Path 5663" d="M154.915,288.353l-24.935-24.935a8.565,8.565,0,0,1-1.659-2.347l-5.664,12.208a5.292,5.292,0,0,0,1.058,5.969l15.369,15.369a5.292,5.292,0,0,0,5.969,1.058l12.208-5.664a8.555,8.555,0,0,1-2.347-1.659Z" transform="translate(-88.868 -189.912)" fill="#675ed1"/>
      <path id="Path_5664" data-name="Path 5664" d="M141.229,278.476a2.648,2.648,0,0,0,2.276-1.534l-13.523-13.523a8.563,8.563,0,0,1-1.659-2.347l-5.664,12.208a5.292,5.292,0,0,0,1.058,5.969l8.635,8.635C132.012,280.172,137.578,278.651,141.229,278.476Z" transform="translate(-88.869 -189.912)" fill="#675ed1"/>
      <path id="Path_5665" data-name="Path 5665" d="M185.292,69.116a21,21,0,0,0-1.827-1.186L177.009,64.2a4.01,4.01,0,0,0-4.839.638L155.934,81.078a21.785,21.785,0,0,0-4.357,6.236L140.783,110.58a8.567,8.567,0,0,0-.794,3.838Z" transform="translate(-101.831 -46.314)" fill="#7f75f8"/>
      <path id="Path_5666" data-name="Path 5666" d="M312.351,214.078l-3.725-6.456a20.939,20.939,0,0,0-1.186-1.827l-45.3,45.3a8.572,8.572,0,0,0,3.838-.794l23.266-10.793a21.777,21.777,0,0,0,6.236-4.358l16.236-16.236a4.01,4.01,0,0,0,.638-4.839Z" transform="translate(-190.688 -149.702)" fill="#7f75f8"/>
      <path id="Path_5667" data-name="Path 5667" d="M218.968,116.486a20.93,20.93,0,0,0-2.517-3.046L187.824,84.813a20.964,20.964,0,0,0-3.046-2.517l-44.742,44.742a8.58,8.58,0,0,0,2.48,6.776l24.935,24.935a8.58,8.58,0,0,0,6.776,2.48Z" transform="translate(-101.846 -59.865)" fill="#675ed1"/>
      <path id="Path_5668" data-name="Path 5668" d="M178.374,122.015a2.666,2.666,0,0,0,1.642-.767l9.82-9.82a2.7,2.7,0,0,0,.76-2.19c-.816-7.929,6.253-9.908,9.51-10.4a2.625,2.625,0,0,0,1.218-.528l-13.5-13.5a20.964,20.964,0,0,0-3.046-2.517l-44.743,44.743a8.579,8.579,0,0,0,2.48,6.776l13.627,13.627a2.7,2.7,0,0,0,.593-1.58,6.824,6.824,0,0,1,1.916-4.269l9.539-8.612a2.687,2.687,0,0,0,.869-2.1c-.245-7.313,6.749-8.631,9.315-8.868Z" transform="translate(-101.846 -59.864)" fill="#7167e8"/>
      <circle id="Ellipse_438" data-name="Ellipse 438" cx="8.118" cy="8.118" r="8.118" transform="matrix(0.612, -0.791, 0.791, 0.612, 71.835, 57.864)" fill="#e1eaf9"/>
      <path id="Path_5669" data-name="Path 5669" d="M297.982,192.619a4.192,4.192,0,1,0,0,5.928A4.191,4.191,0,0,0,297.982,192.619Z" transform="translate(-211.557 -139.224)" fill="#bec8f7"/>
      <g id="Group_3187" data-name="Group 3187" transform="translate(53.306 72.238)">
        <path id="Path_5670" data-name="Path 5670" d="M205.842,278.4l-9.631-9.631a2.19,2.19,0,0,1,3.1-3.1l9.631,9.631a2.19,2.19,0,0,1-3.1,3.1Z" transform="translate(-195.569 -265.027)" fill="#5c82c4"/>
      </g>
      <g id="Group_3188" data-name="Group 3188" transform="translate(56.803 63.711)">
        <path id="Path_5671" data-name="Path 5671" d="M223.7,252.144l-14.66-14.66a2.19,2.19,0,0,1,3.1-3.1l14.66,14.66a2.19,2.19,0,1,1-3.1,3.1Z" transform="translate(-208.4 -233.745)" fill="#5c82c4"/>
      </g>
      <path id="Path_5672" data-name="Path 5672" d="M464.579,102.211a5.482,5.482,0,0,0-7.752,0l-6.2,6.2a5.482,5.482,0,1,0,7.752,7.752l6.2-6.2A5.481,5.481,0,0,0,464.579,102.211Z" transform="translate(-326.631 -73.184)" fill="#bec8f7"/>
      <path id="Path_5676" data-name="Path 5676" d="M363.974,1.606a5.482,5.482,0,0,0-7.752,0l-6.2,6.2a5.482,5.482,0,0,0,7.752,7.752l6.2-6.2a5.482,5.482,0,0,0,0-7.752Z" transform="translate(-253.447)" fill="#bec8f7"/>
    </g>
  </g>
</svg>
