<svg id="makeAllRead" xmlns="http://www.w3.org/2000/svg" width="24" height="24" viewBox="0 0 24 24">
  <rect id="bound" width="24" height="24" fill="none"/>
  <path id="check" d="M4.875,20.75a.946.946,0,0,1-.671-.288L2.287,18.546a.926.926,0,0,1,0-1.342.926.926,0,0,1,1.342,0L4.875,18.45l3.163-3.163a.949.949,0,0,1,1.342,1.342L5.546,20.462A.946.946,0,0,1,4.875,20.75Z" transform="translate(0 0.304)" fill="#7f7ff8" opacity="0.3"/>
  <path id="Combined-Shape" d="M2,11.865V6A3,3,0,0,1,5,3H19a3,3,0,0,1,3,3v9s0,.007,0,.01l.025-.01v4.586a1,1,0,0,1-1.707.707L18.025,18H12.984A7.5,7.5,0,0,0,2,11.865ZM6,7A1,1,0,0,0,6,9h9a1,1,0,0,0,0-2Z" transform="translate(0 0.304)" fill="#7f7ff8" fill-rule="evenodd"/>
</svg>
