<svg xmlns="http://www.w3.org/2000/svg" xmlns:xlink="http://www.w3.org/1999/xlink" width="56.25" height="50.622" viewBox="0 0 56.25 50.622">
  <defs>
    <clipPath id="clip-path">
      <path id="Path_5553" data-name="Path 5553" d="M859.335,533.325c2.336,1.39,29.1,1.46,30.481-.133,1.282-1.479,3.534-26.453.712-28.591s-28.562-3.187-31.2-.371S857,531.936,859.335,533.325Z" transform="translate(-857.468 -502.521)" fill="none"/>
    </clipPath>
  </defs>
  <g id="male" transform="translate(0)">
    <g id="Group_3178" data-name="Group 3178" transform="translate(0 0)">
      <g id="Group_3167" data-name="Group 3167" transform="translate(37.107 39.261)">
        <circle id="Ellipse_438" data-name="Ellipse 438" cx="4.149" cy="4.149" r="4.149" transform="translate(0 8.282) rotate(-86.371)" fill="#fff"/>
      </g>
      <path id="Path_5550" data-name="Path 5550" d="M849.03,448.937c-1.888.067-25.513,16.764-25.544,19.362s42.84,31.7,44.507,30.535,8.107-6.517,7.407-7.233-4.25.174-4-.768,7.078-19.282,7.573-21.166S853.991,448.76,849.03,448.937Z" transform="translate(-822.729 -448.487)" fill="#fff"/>
      <circle id="Ellipse_439" data-name="Ellipse 439" cx="3.962" cy="3.962" r="3.962" transform="translate(38.543 40.819) rotate(-86.391)" fill="#fff"/>
      <path id="Path_5551" data-name="Path 5551" d="M859.335,533.325c2.336,1.39,29.1,1.46,30.481-.133,1.282-1.479,3.534-26.453.712-28.591s-28.562-3.187-31.2-.371S857,531.936,859.335,533.325Z" transform="translate(-849.13 -489.417)" fill="#fff"/>
      <g id="Group_3169" data-name="Group 3169" transform="translate(8.338 13.104)">
        <g id="Group_3168" data-name="Group 3168" clip-path="url(#clip-path)">
          <path id="Path_5552" data-name="Path 5552" d="M889.516,606.042c4.477,19.068-27.865,16.174-26.052.319,3.5-.082,7.892-11.477,11.75-11.471S883.8,605.759,889.516,606.042Z" transform="translate(-861.991 -573.076)" fill="#7f7ff8"/>
        </g>
      </g>
      <path id="Path_5554" data-name="Path 5554" d="M1000.636,549.261c.035.74.042,1.481.048,2.221s-.008,1.481-.024,2.221q-.062,2.22-.23,4.435l-.512-.5.458-.022c.151,0,.3.011.446.017s.3.034.445.052.3.058.443.09a4.114,4.114,0,0,1,1.64.819,3.721,3.721,0,0,1,1.082,1.5,4.952,4.952,0,0,1,.32,1.763,5.541,5.541,0,0,1-.245,1.751,3.647,3.647,0,0,1-2.476,2.442,4.777,4.777,0,0,1-1.717.19.233.233,0,0,1,.005-.466,4.773,4.773,0,0,0,1.514-.3,3.228,3.228,0,0,0,1.216-.825,3.117,3.117,0,0,0,.686-1.275,4.925,4.925,0,0,0,.148-1.494,3.094,3.094,0,0,0-2.4-3.191,4.555,4.555,0,0,0-1.467-.12H1000a.465.465,0,0,1-.5-.423.459.459,0,0,1,0-.08q.188-2.2.339-4.4l.146-2.2.125-2.2a.264.264,0,0,1,.527,0Z" transform="translate(-957.619 -524.927)" fill="#3b3b56"/>
      <path id="Path_5555" data-name="Path 5555" d="M889.212,562.75c-.085.566-.177,1.131-.3,1.7a7.909,7.909,0,0,1-.23.857,1.867,1.867,0,0,1-.218.466.729.729,0,0,1-.119.133,1.059,1.059,0,0,1-.127.093,1.768,1.768,0,0,1-.234.12,8.414,8.414,0,0,1-1.732.425c-.571.093-1.14.164-1.71.226-2.28.23-4.559.336-6.838.414s-4.559.085-6.839.07-4.559-.073-6.841-.189c-1.141-.067-2.281-.147-3.425-.269-.572-.062-1.144-.133-1.722-.236a8.228,8.228,0,0,1-.882-.2,2.469,2.469,0,0,1-.486-.194,1.257,1.257,0,0,1-.148-.1c-.046-.037-.083-.074-.124-.112a1.877,1.877,0,0,1-.18-.224,3.935,3.935,0,0,1-.417-.87c-.1-.286-.185-.57-.259-.855-.147-.569-.258-1.138-.355-1.706-.194-1.138-.32-2.278-.417-3.419a78.378,78.378,0,0,1,.041-13.69.233.233,0,0,1,.465.034v0q-.184,3.394-.092,6.8c.05,2.265.173,4.53.407,6.778.119,1.123.264,2.243.455,3.348.1.551.21,1.1.351,1.631.071.266.149.527.24.776a3.124,3.124,0,0,0,.318.665.463.463,0,0,0,.151.157,1.666,1.666,0,0,0,.307.115,7.368,7.368,0,0,0,.782.172c.543.093,1.1.159,1.66.215,1.119.112,2.249.184,3.38.241,4.525.247,9.072.273,13.609.207,2.268-.038,4.538-.108,6.789-.293.563-.045,1.124-.1,1.678-.173a7.962,7.962,0,0,0,1.587-.336.536.536,0,0,0,.218-.125,1.35,1.35,0,0,0,.146-.3,7.714,7.714,0,0,0,.234-.784c.138-.54.251-1.094.356-1.649a.263.263,0,0,1,.52.087Z" transform="translate(-847.498 -521.846)" fill="#3b3b56"/>
      <path id="Path_5556" data-name="Path 5556" d="M894.577,535.587c-1.379,1.594-28.144,1.522-30.48.134a1.187,1.187,0,0,1-.4-.491c8.457.578,24.4.333,25.458-.888,1.283-1.48,3.534-26.452.71-28.592-.042-.031-.089-.062-.14-.094,2.783.354,4.865.814,5.558,1.339C898.11,509.135,895.86,534.107,894.577,535.587Z" transform="translate(-853.891 -491.812)" fill="#f4f4f4" style="mix-blend-mode: multiply;isolation: isolate"/>
      <path id="Path_5557" data-name="Path 5557" d="M889.441,509.089c-4.256.422-6.581-2.676-9.412-2.946s-5.007,3.955-8.785,3.911-6.092-4.087-6.092-4.087c-.492,1.647-3.815,3.025-6.176,3s-2.8-3.1-5.159-3.131-3.1,2.089-4.748,2.069c0,0-.877-5.678,2.7-8.234s31.677-2.458,34.232,1.115A23.948,23.948,0,0,1,889.441,509.089Z" transform="translate(-842.642 -485.89)" fill="#fff"/>
      <path id="Path_5558" data-name="Path 5558" d="M899.727,498.181c-.242.469-24.564.18-24.8-.295s-.427-3.784.048-4.014,24.095-.422,24.8.295S899.969,497.712,899.727,498.181Z" transform="translate(-862.284 -482.651)" fill="#3b3b56"/>
      <path id="Path_5559" data-name="Path 5559" d="M848.535,532.116a3.271,3.271,0,0,0,1.87-.986,7.179,7.179,0,0,1,1.008-.693,4.652,4.652,0,0,1,.579-.265,4.028,4.028,0,0,1,.624-.159,4.266,4.266,0,0,1,.639-.061c.109,0,.221.014.332.021l.167.014c.055.01.11.026.164.038a2.966,2.966,0,0,1,1.186.576c.685.523,1.149,1.181,1.69,1.667a4.685,4.685,0,0,0,.409.338,2.6,2.6,0,0,0,.437.239,2.26,2.26,0,0,0,.461.141,3.652,3.652,0,0,0,.5.022,8.578,8.578,0,0,0,2.183-.376,8.894,8.894,0,0,0,2.031-.888,4.767,4.767,0,0,0,.838-.652,2.049,2.049,0,0,0,.516-.779.462.462,0,0,1,.836-.1l0,.007a9.631,9.631,0,0,0,.97,1.3,8.865,8.865,0,0,0,1.177,1.132,6.231,6.231,0,0,0,2.847,1.356,3.432,3.432,0,0,0,.39.041c.13.007.261.03.391.025a4.5,4.5,0,0,0,.777-.067,5.628,5.628,0,0,0,1.5-.5,19.647,19.647,0,0,0,2.794-1.854,10.979,10.979,0,0,1,1.506-.951,4.085,4.085,0,0,1,1.824-.488,5.048,5.048,0,0,1,.94.12l.443.124c.147.041.284.1.426.153a13.455,13.455,0,0,1,1.588.766,21.584,21.584,0,0,0,3.028,1.5,8.017,8.017,0,0,0,3.263.462.233.233,0,0,1,.046.464,8.222,8.222,0,0,1-3.5-.35,20.091,20.091,0,0,1-3.171-1.438,12.8,12.8,0,0,0-1.518-.692c-.128-.042-.255-.1-.384-.128l-.387-.1a4.377,4.377,0,0,0-.762-.082,3.279,3.279,0,0,0-1.451.434,11.581,11.581,0,0,0-1.378.908,20.267,20.267,0,0,1-2.909,1.956,6.525,6.525,0,0,1-1.74.593,5.447,5.447,0,0,1-.931.088c-.156.006-.31-.017-.466-.024a4.287,4.287,0,0,1-.463-.046,6.955,6.955,0,0,1-3.293-1.537,9.808,9.808,0,0,1-1.288-1.252,10.444,10.444,0,0,1-1.067-1.456l.84-.1a2.924,2.924,0,0,1-.752,1.161,5.656,5.656,0,0,1-1.009.778,9.756,9.756,0,0,1-2.252.972,8.779,8.779,0,0,1-2.424.379,4.377,4.377,0,0,1-.663-.046,3.092,3.092,0,0,1-.651-.211,3.427,3.427,0,0,1-.581-.334,5.443,5.443,0,0,1-.485-.416c-.6-.576-1.046-1.22-1.6-1.654a2.316,2.316,0,0,0-1.91-.5,4.108,4.108,0,0,0-1.943.919,9.237,9.237,0,0,1-1,.685,2.418,2.418,0,0,1-1.26.334h-.005a.263.263,0,0,1,.011-.527Z" transform="translate(-842.105 -510.369)" fill="#3b3b56"/>
      <path id="Path_5560" data-name="Path 5560" d="M827.348,471.736c-.818-.624-1.63-1.257-2.427-1.913-.4-.328-.793-.662-1.18-1.008a12.675,12.675,0,0,1-1.123-1.11,3.5,3.5,0,0,1-.257-.335,1,1,0,0,1-.2-.523,1.219,1.219,0,0,1,.137-.5,3.124,3.124,0,0,1,.218-.37,9.936,9.936,0,0,1,1.026-1.22c.724-.752,1.489-1.448,2.264-2.13,1.552-1.362,3.159-2.651,4.784-3.913s3.273-2.5,4.935-3.708,3.34-2.4,5.038-3.567,3.41-2.307,5.2-3.363c.45-.262.9-.52,1.388-.754.123-.058.248-.115.386-.167.07-.026.141-.051.227-.074a1.432,1.432,0,0,1,.143-.031l.1-.009h.06a3.83,3.83,0,0,1,.867.1,15.011,15.011,0,0,1,2.969,1.135,61.573,61.573,0,0,1,5.409,3.044c3.5,2.182,6.891,4.523,10.2,6.977q2.479,1.842,4.889,3.779c.8.648,1.6,1.306,2.377,1.983s1.552,1.368,2.289,2.113a9.564,9.564,0,0,1,1.058,1.229,2.211,2.211,0,0,1,.232.428.928.928,0,0,1,.065.371.948.948,0,0,1-.021.134l-.015.049-.029.1c-.076.266-.16.5-.241.753-.331.98-.677,1.946-1.023,2.915q-1.044,2.9-2.108,5.792c-1.417,3.857-2.868,7.7-4.238,11.566l-.329-.492c.615.038,1.22.09,1.832.16a10.793,10.793,0,0,1,1.857.34,2.056,2.056,0,0,1,.256.1,1.065,1.065,0,0,1,.148.087.607.607,0,0,1,.179.19.487.487,0,0,1,.064.205.525.525,0,0,1-.007.117.678.678,0,0,1-.03.1.957.957,0,0,1-.092.161c-.055.08-.106.141-.159.205-.208.246-.421.464-.635.685-.429.437-.865.86-1.3,1.281-1.758,1.678-3.547,3.313-5.347,4.939l0,0a.271.271,0,0,1-.3.044l-4.921-2.324a.233.233,0,0,1,.2-.423l4.956,2.248-.3.046c1.771-1.65,3.535-3.312,5.257-5.007.43-.424.856-.852,1.269-1.285.205-.217.41-.437.592-.655.043-.053.088-.109.118-.155.015-.022.026-.043.022-.034a.253.253,0,0,0,.013.2c.025.04.03.035.021.03a.367.367,0,0,0-.048-.027,1.419,1.419,0,0,0-.166-.063,10.306,10.306,0,0,0-1.718-.294c-.593-.063-1.2-.109-1.79-.141a.37.37,0,0,1-.349-.389.366.366,0,0,1,.019-.1l0,0c1.337-3.885,2.757-7.744,4.138-11.609l2.079-5.8c.341-.966.685-1.935,1.008-2.9.077-.239.162-.487.227-.715l.026-.087.013-.043a.139.139,0,0,0-.006.039c0,.044,0,.021-.009,0a1.414,1.414,0,0,0-.138-.245,8.864,8.864,0,0,0-.957-1.1,59.943,59.943,0,0,0-4.6-4.012q-2.393-1.921-4.871-3.74c-3.3-2.426-6.658-4.78-10.127-6.946a60.681,60.681,0,0,0-5.317-3.009,14.243,14.243,0,0,0-2.77-1.073,2.983,2.983,0,0,0-.658-.084h-.036c-.011,0-.024,0-.045.01-.038.01-.089.027-.139.046-.1.039-.211.087-.32.139-.439.209-.882.46-1.319.714-1.75,1.033-3.461,2.167-5.162,3.306s-3.379,2.319-5.045,3.514c-3.327,2.393-6.613,4.856-9.738,7.49-.776.663-1.541,1.341-2.251,2.058a9.38,9.38,0,0,0-.972,1.12,2.465,2.465,0,0,0-.177.29.682.682,0,0,0-.078.229c0-.019.005.02.019.052a1.244,1.244,0,0,0,.072.128,2.946,2.946,0,0,0,.208.278,12.13,12.13,0,0,0,1.052,1.068c.373.344.758.679,1.147,1.009.78.66,1.578,1.3,2.384,1.935a.263.263,0,0,1-.323.417Z" transform="translate(-822.162 -447.033)" fill="#3b3b56"/>
      <path id="Path_5561" data-name="Path 5561" d="M890.189,583a5,5,0,0,1,.19.923,8.6,8.6,0,0,1,.065.927,9.3,9.3,0,0,1-.034.929,5.08,5.08,0,0,1-.159.932.244.244,0,0,1-.3.169.247.247,0,0,1-.165-.157,5.121,5.121,0,0,1-.205-.923c-.046-.308-.066-.617-.08-.926a8.568,8.568,0,0,1,.018-.929,5.008,5.008,0,0,1,.144-.932.274.274,0,0,1,.336-.195A.278.278,0,0,1,890.189,583Z" transform="translate(-873.594 -550.748)" fill="#3b3b56"/>
      <path id="Path_5562" data-name="Path 5562" d="M906.743,609.392a3.935,3.935,0,0,1-.592,2.641,3.362,3.362,0,0,1-1.021,1,3.72,3.72,0,0,1-1.313.5,3.171,3.171,0,0,1-.34.047,3.56,3.56,0,0,1-.369.025,1.984,1.984,0,0,1-.762-.146,2.266,2.266,0,0,1-1.077-1,4.521,4.521,0,0,1-.455-1.269,6.5,6.5,0,0,1-.136-1.3.233.233,0,0,1,.464-.034l0,.014a5.579,5.579,0,0,0,.727,2.224,1.525,1.525,0,0,0,.758.638,1.548,1.548,0,0,0,1-.041,3.188,3.188,0,0,0,1.774-1.171,4.929,4.929,0,0,0,.818-2.1l0-.026a.264.264,0,0,1,.522.007Z" transform="translate(-882.135 -570.876)" fill="#3b3b56"/>
      <path id="Path_5563" data-name="Path 5563" d="M935.252,584.518a5.611,5.611,0,0,1-.213-.976,9.581,9.581,0,0,1-.088-.982c-.008-.328-.012-.657.011-.986a5.654,5.654,0,0,1,.135-.992.243.243,0,0,1,.466-.022,5.667,5.667,0,0,1,.228.975c.054.326.081.653.1.981a9.639,9.639,0,0,1,0,.986,5.589,5.589,0,0,1-.12.992.273.273,0,0,1-.526.025Z" transform="translate(-908.309 -548.901)" fill="#3b3b56"/>
    </g>
  </g>
</svg>
