<svg xmlns="http://www.w3.org/2000/svg" width="38.186" height="31.209" viewBox="0 0 38.186 31.209">
    <g>
        <g>
            <path fill="#f79e1b" fill-rule="evenodd" d="M15 14.279a11.276 11.276 0 1 1 11.278 11.278A11.278 11.278 0 0 1 15 14.279z" transform="translate(.629 -3.001)"/>
            <path fill="#eb001b" d="M5.994 14.279A11.274 11.274 0 1 1 17.27 25.557 11.275 11.275 0 0 1 5.994 14.279z" transform="translate(-5.994 -3.001)"/>
            <path fill="#ff5e00" fill-rule="evenodd" d="M21.918 12.945a11.248 11.248 0 0 1-3.454 8.124 11.273 11.273 0 0 1 0-16.253 11.249 11.249 0 0 1 3.454 8.129z" transform="translate(.629 -1.666)"/>
            <path fill="#231f20" fill-rule="evenodd" d="M21.585 18.355v1.1h1.245l.007.721H21.6v1.652c0 .363.138.606.5.606a1.35 1.35 0 0 0 .513-.121l.157-.084.218.674a1.728 1.728 0 0 1-.946.281 1.069 1.069 0 0 1-1.2-1.154l-.006-.188v-1.667h-.707v-.721h.692v-1.1zm-3.48 1.008a2.515 2.515 0 0 1 1.155.236l.264.143-.335.636a2.177 2.177 0 0 0-1.091-.31c-.415 0-.663.182-.663.424 0 .208.192.288.454.335l.136.021.364.053c.756.114 1.216.394 1.216 1.084s-.582 1.182-1.587 1.182a2.429 2.429 0 0 1-1.28-.322l-.227-.147.364-.614a1.8 1.8 0 0 0 1.157.378c.516 0 .793-.159.793-.44 0-.175-.144-.283-.447-.349l-.165-.03-.363-.052c-.78-.114-1.2-.478-1.2-1.069-.002-.722.574-1.158 1.455-1.158zm13.8-.015a1.766 1.766 0 0 1 1.069.293l.183.138-.364.637a1.494 1.494 0 0 0-.91-.326 1.168 1.168 0 0 0 0 2.319 1.48 1.48 0 0 0 .746-.212l.164-.113.364.636a1.777 1.777 0 0 1-1.252.432h-.165a1.794 1.794 0 0 1-1.689-1.7V21.067a1.785 1.785 0 0 1 1.854-1.718zm-17.965.015a1.292 1.292 0 0 1 .971.39l.12.14v-.44h.758v3.608h-.758v-.44a1.3 1.3 0 0 1-1.091.531 1.9 1.9 0 0 1 0-3.789zM44.154 18v5.062h-.727v-.44a1.3 1.3 0 0 1-1.093.531 1.9 1.9 0 0 1 0-3.789 1.3 1.3 0 0 1 .972.39l.121.14V18zm-18.969 1.364a1.666 1.666 0 0 1 1.654 1.68l.009.222v.3h-2.584a.976.976 0 0 0 1.042.887 1.606 1.606 0 0 0 .832-.248l.181-.131.364.584a2.07 2.07 0 0 1-1.222.492h-.224l-.2-.008a1.9 1.9 0 0 1 .147-3.781zm10.105 0a1.292 1.292 0 0 1 .971.39l.12.14v-.44h.758v3.608h-.758v-.44a1.3 1.3 0 0 1-1.091.531 1.9 1.9 0 0 1 0-3.789zm-25.057 0h.083a1.324 1.324 0 0 1 1.2 1.256v2.457l-.764.015v-2.016c0-.614-.249-.955-.765-.955a.753.753 0 0 0-.146.006.839.839 0 0 0-.711.8l.006.154v2.009h-.762v-2.014c0-.614-.255-.955-.758-.955a.774.774 0 0 0-.154.006.838.838 0 0 0-.7.8l.007.153v1.994H6v-3.62h.756v.446a1.135 1.135 0 0 1 1.02-.538 1.263 1.263 0 0 1 1.15.644 1.331 1.331 0 0 1 1.223-.644zm19.039-.013a1.568 1.568 0 0 1 .364.044l.176.054-.234.758a1.182 1.182 0 0 0-.472-.091c-.428 0-.671.263-.719.743l-.009.19v2.031h-.756v-3.626h.749v.44a1.027 1.027 0 0 1 .758-.523l.159-.008zm10.518 0a1.562 1.562 0 0 1 .363.044l.176.054-.229.751a1.194 1.194 0 0 0-.474-.091c-.427 0-.67.263-.719.743l-.009.19v2.031h-.756v-3.619h.749v.44a1.027 1.027 0 0 1 .759-.523l.16-.008zm2.677.889a1.066 1.066 0 0 0-1.112 1.029.83.83 0 0 0 0 .086 1.052 1.052 0 1 0 2.1.043 1.081 1.081 0 0 0-.988-1.161zm-28.383 0a1.067 1.067 0 0 0-1.112 1.029.287.287 0 0 0-.009.093 1.055 1.055 0 0 0 2.109.035 1.08 1.08 0 0 0-.988-1.16zm21.35-.008a1.068 1.068 0 0 0-1.112 1.029v.086a1.052 1.052 0 1 0 2.1.043 1.081 1.081 0 0 0-.988-1.161zm-10.249-.161a.907.907 0 0 0-.916.715l-.023.164h1.82l-.017-.162a.871.871 0 0 0-.864-.72z" transform="translate(-5.989 8.026)"/>
        </g>
    </g>
</svg>
