<svg xmlns="http://www.w3.org/2000/svg" width="21.5" height="21.5" viewBox="0 0 21.5 21.5">
  <g id="folder-04.1" transform="translate(-3 -3)">
    <path id="Path_5565" data-name="Path 5565" d="M15.619,16.565A1.818,1.818,0,0,0,13.8,18.383c0,1,.814,2.209,1.818,2.209s1.818-1.205,1.818-2.209a1.818,1.818,0,0,0-1.818-1.818Z" transform="translate(-1.869 -2.348)" fill="#7f7df8"/>
    <path id="Path_5566" data-name="Path 5566" d="M22.846,6.308H14.577a1.654,1.654,0,0,1-1.323-.661L11.765,3.662A1.654,1.654,0,0,0,10.442,3H4.654A1.654,1.654,0,0,0,3,4.654V22.846A1.654,1.654,0,0,0,4.654,24.5H22.846A1.654,1.654,0,0,0,24.5,22.846V7.962A1.654,1.654,0,0,0,22.846,6.308Zm-5.8,13.62a4.341,4.341,0,0,0-3.3-1.608,4.341,4.341,0,0,0-3.3,1.608,4.962,4.962,0,1,1,6.6,0Z" fill="#7f7df8"/>
  </g>
</svg>
