<svg xmlns="http://www.w3.org/2000/svg" width="165.045" height="96.996" viewBox="0 0 165.045 96.996">
  <g id="Group_4623" data-name="Group 4623" transform="translate(-104.978 -441.267)">
    <path id="_-_Star-Favorite-Featured-Famous-Super" data-name="-_Star-Favorite-Featured-Famous-Super" d="M52.926,22.3A3.426,3.426,0,0,0,50.2,19.97L37.31,18.04,31.51,5.728a3.387,3.387,0,0,0-6.16,0L19.635,18,6.666,19.97A3.428,3.428,0,0,0,3.935,22.3a3.533,3.533,0,0,0,.82,3.607l9.38,9.6L11.919,49.035a3.5,3.5,0,0,0,1.43,3.453,3.33,3.33,0,0,0,3.561.2L28.349,46.3l11.6,6.389a3.337,3.337,0,0,0,3.561-.2,3.494,3.494,0,0,0,1.43-3.453l-2.219-13.55L52.106,25.9A3.533,3.533,0,0,0,52.926,22.3Z" transform="translate(216.91 461.335)" fill="#a59ffa" opacity="0.4"/>
    <path id="_-_Star-Favorite-Featured-Famous-Super-2" data-name="-_Star-Favorite-Featured-Famous-Super" d="M52.926,22.3A3.426,3.426,0,0,0,50.2,19.97L37.31,18.04,31.51,5.728a3.387,3.387,0,0,0-6.16,0L19.635,18,6.666,19.97A3.428,3.428,0,0,0,3.935,22.3a3.533,3.533,0,0,0,.82,3.607l9.38,9.6L11.919,49.035a3.5,3.5,0,0,0,1.43,3.453,3.33,3.33,0,0,0,3.561.2L28.349,46.3l11.6,6.389a3.337,3.337,0,0,0,3.561-.2,3.494,3.494,0,0,0,1.43-3.453l-2.219-13.55L52.106,25.9A3.533,3.533,0,0,0,52.926,22.3Z" transform="translate(101.229 461.335)" fill="#a59ffa" opacity="0.4"/>
    <path id="_-_Star-Favorite-Featured-Famous-Super-3" data-name="-_Star-Favorite-Featured-Famous-Super" d="M100.383,40.193a6.732,6.732,0,0,0-5.366-4.569L69.7,31.83,58.3,7.637a6.655,6.655,0,0,0-12.1,0L34.966,31.744,9.481,35.623a6.737,6.737,0,0,0-5.366,4.569A6.943,6.943,0,0,0,5.726,47.28L24.158,66.146,19.8,92.736a6.873,6.873,0,0,0,2.809,6.786,6.544,6.544,0,0,0,7,.395L52.089,87.363l22.8,12.554a6.558,6.558,0,0,0,7-.395,6.866,6.866,0,0,0,2.809-6.786L80.332,66.111,98.772,47.28A6.943,6.943,0,0,0,100.383,40.193Z" transform="translate(135.251 437.517)" fill="#7f7ff8"/>
  </g>
</svg>
