<svg xmlns="http://www.w3.org/2000/svg" width="21" height="21" viewBox="0 0 21 21">
  <path id="num" d="M-2443.129,3179.685a2.317,2.317,0,0,1,2.316-2.316,2.317,2.317,0,0,1,2.315,2.316,2.316,2.316,0,0,1-2.315,2.315A2.317,2.317,0,0,1-2443.129,3179.685Zm-8.369,0a2.317,2.317,0,0,1,2.315-2.316,2.318,2.318,0,0,1,2.316,2.316,2.317,2.317,0,0,1-2.316,2.315A2.316,2.316,0,0,1-2451.5,3179.685Zm-8,0a2.317,2.317,0,0,1,2.315-2.316,2.318,2.318,0,0,1,2.316,2.316,2.317,2.317,0,0,1-2.316,2.315A2.317,2.317,0,0,1-2459.5,3179.685Zm16.369-8.185a2.316,2.316,0,0,1,2.316-2.316,2.317,2.317,0,0,1,2.315,2.316,2.316,2.316,0,0,1-2.315,2.315A2.317,2.317,0,0,1-2443.129,3171.5Zm-8.185,0a2.317,2.317,0,0,1,2.315-2.316,2.317,2.317,0,0,1,2.316,2.316,2.317,2.317,0,0,1-2.316,2.315A2.317,2.317,0,0,1-2451.314,3171.5Zm-8.185,0a2.317,2.317,0,0,1,2.315-2.316,2.317,2.317,0,0,1,2.316,2.316,2.317,2.317,0,0,1-2.316,2.315A2.317,2.317,0,0,1-2459.5,3171.5Zm16.369-8.185c0-.04,0-.08,0-.119a2.309,2.309,0,0,1,.653-1.5l0,0,.012-.012.007-.008.011-.011.008-.008.007-.007a2.309,2.309,0,0,1,1.611-.652,2.316,2.316,0,0,1,2.315,2.316,2.316,2.316,0,0,1-2.315,2.315A2.317,2.317,0,0,1-2443.129,3163.316Zm-8.185,0a2.316,2.316,0,0,1,2.2-2.313c.04,0,.079,0,.119,0a2.316,2.316,0,0,1,2.316,2.316,2.317,2.317,0,0,1-2.316,2.315A2.317,2.317,0,0,1-2451.314,3163.316Zm-8.185,0a2.316,2.316,0,0,1,2.2-2.313c.04,0,.079,0,.119,0a2.316,2.316,0,0,1,2.316,2.316,2.317,2.317,0,0,1-2.316,2.315A2.317,2.317,0,0,1-2459.5,3163.316Z" transform="translate(2459.499 -3161)" fill="#7f7ff8"/>
</svg>
