<svg xmlns="http://www.w3.org/2000/svg" width="38" height="38" viewBox="0 0 38 38">
  <g id="ok" transform="translate(0.493 -0.354)">
    <circle id="Ellipse_488" data-name="Ellipse 488" cx="19" cy="19" r="19" transform="translate(-0.493 0.354)" fill="#ffca28"/>
    <g id="Group_3318" data-name="Group 3318" transform="translate(9.427 12.093)">
      <ellipse id="Ellipse_489" data-name="Ellipse 489" cx="2.357" cy="2.42" rx="2.357" ry="2.42" fill="#6d4c41"/>
      <ellipse id="Ellipse_490" data-name="Ellipse 490" cx="2.357" cy="2.42" rx="2.357" ry="2.42" transform="translate(14.141)" fill="#6d4c41"/>
      <path id="Path_6540" data-name="Path 6540" d="M146.846,347.427a11.561,11.561,0,0,1-8.334-3.546,1.234,1.234,0,0,1,0-1.711,1.157,1.157,0,0,1,1.666,0,9.467,9.467,0,0,0,13.332,0,1.157,1.157,0,0,1,1.666,0,1.234,1.234,0,0,1,0,1.711A11.552,11.552,0,0,1,146.846,347.427Z" transform="translate(-137.419 -328.063)" fill="#6d4c41"/>
    </g>
  </g>
</svg>
