<svg xmlns="http://www.w3.org/2000/svg" width="20" height="20" viewBox="0 0 20 20">
  <g id="icon" transform="translate(-339.001 -2)">
    <g id="business-center-round-24px" transform="translate(338.001 1)">
      <path id="Path_13329" data-name="Path 13329" d="M0,0H20V20H0Z" transform="translate(1 1)" fill="none"/>
      <path id="Path_13330" data-name="Path 13330" d="M13,16H11a1,1,0,0,1-1-1H3.01v4a2.006,2.006,0,0,0,2,2H19a2.006,2.006,0,0,0,2-2V15H14A1,1,0,0,1,13,16Zm7-9H16A4,4,0,0,0,8,7H4A2.006,2.006,0,0,0,2,9v3a1.993,1.993,0,0,0,2,2h6V13a1,1,0,0,1,1-1h2a1,1,0,0,1,1,1v1h6a2.006,2.006,0,0,0,2-2V9A2.006,2.006,0,0,0,20,7ZM10,7a2,2,0,0,1,4,0H10Z" transform="translate(-1 -1)" fill="#7d7bfa"/>
    </g>
  </g>
</svg>
