<svg xmlns="http://www.w3.org/2000/svg" xmlns:xlink="http://www.w3.org/1999/xlink" width="35" height="35" viewBox="0 0 35 35">
  <defs>
    <clipPath id="clip-path">
      <path id="Path_5205" data-name="Path 5205" d="M1050.694,302.551a10.371,10.371,0,1,1-3.254-14.3A10.339,10.339,0,0,1,1050.694,302.551Z" transform="translate(-1031.542 -286.659)" fill="none"/>
    </clipPath>
    <clipPath id="clip-path-2">
      <circle id="circle" cx="10.5" cy="10.5" r="10.5" transform="translate(0 0)" fill="#fff"/>
    </clipPath>
  </defs>
  <g id="avatar" transform="translate(-307 -444)">
    <g id="Group_4698" data-name="Group 4698" transform="translate(307 449)">
      <g id="Group_3076" data-name="Group 3076">
        <path id="Path_5192" data-name="Path 5192" d="M1033.136,302.551a10.371,10.371,0,1,0,3.255-14.3A10.341,10.341,0,0,0,1033.136,302.551Z" transform="translate(-1031.438 -286.513)" fill="#efefef"/>
        <path id="Path_5193" data-name="Path 5193" d="M1034.651,303.623a10.3,10.3,0,0,0,5.278,1.9,10.489,10.489,0,0,0,1.887-.042,10.23,10.23,0,1,0-5.783-19.279,10.1,10.1,0,0,0-1.595,1,10.278,10.278,0,0,0-3.832,10.064,10.348,10.348,0,0,0,1.372,3.511.078.078,0,0,1-.133.083,10.472,10.472,0,1,1,10,4.865,10.523,10.523,0,0,1-3.833-.3,10.47,10.47,0,0,1-3.463-1.658.089.089,0,0,1,.1-.144Z" transform="translate(-1030.211 -284.784)" fill="#3b3b56"/>
        <g id="Group_3075" data-name="Group 3075" transform="translate(0.104 0.146)">
          <g id="Group_3074" data-name="Group 3074" clip-path="url(#clip-path)">
            <path id="Path_5194" data-name="Path 5194" d="M1175.067,324.9s5.4.98,7.673,4.462c.774,1.184-.4,14.223-.4,14.223l-4.266-.532C1180.614,329.056,1175.205,328.229,1175.067,324.9Z" transform="translate(-1163.657 -321.86)" fill="#5b5b99"/>
            <path id="Path_5195" data-name="Path 5195" d="M1067.809,323.378c-3.935-.049-8.235,3.528-8.246,4.4-.009.664.638,9.816,1.029,9.906,4.885,1.129,12.091.388,12.379-.095a.986.986,0,0,0,.028-1.045s2.112-7.541,2.2-8.414S1071.744,323.427,1067.809,323.378Z" transform="translate(-1057.336 -320.46)" fill="#5b5b99"/>
            <path id="Path_5196" data-name="Path 5196" d="M1077.36,381.121c.75.447,9.335.475,9.779-.036.412-.474,1.14-8.489.234-9.176s-9.17-1.029-10.016-.126S1076.611,380.675,1077.36,381.121Z" transform="translate(-1073.166 -364.516)" fill="#fff"/>
            <path id="Path_5197" data-name="Path 5197" d="M1117.4,371.369c.987,1.84,3.213,4.176,7.761,4.71.119-2.143.074-3.829-.378-4.171-.612-.464-4.579-.771-7.352-.643C1117.418,371.3,1117.408,371.334,1117.4,371.369Z" transform="translate(-1110.572 -364.514)" fill="#7f7ff8"/>
            <path id="Path_5198" data-name="Path 5198" d="M1076.977,375.7c1.824-.4,2.766-2.472,3.213-3.948-.017-.034-.035-.068-.052-.1a5.191,5.191,0,0,0-2.58.513C1077.22,372.525,1077.033,374.013,1076.977,375.7Z" transform="translate(-1073.365 -364.898)" fill="#7f7ff8"/>
            <path id="Path_5199" data-name="Path 5199" d="M1112.794,470.335a.586.586,0,0,1-.073.333.8.8,0,0,1-.226.253,1.243,1.243,0,0,1-.6.225,1.143,1.143,0,0,1-.64-.1.624.624,0,0,1-.259-.24.49.49,0,0,1-.053-.342.08.08,0,0,1,.156.007v0a.381.381,0,0,0,.272.32,1.089,1.089,0,0,0,.488.041,1.236,1.236,0,0,0,.475-.149.566.566,0,0,0,.284-.355v0a.09.09,0,0,1,.177.012Z" transform="translate(-1104.619 -455.664)" fill="#3b3b56"/>
            <path id="Path_5200" data-name="Path 5200" d="M1215.461,484.263" transform="translate(-1200.84 -468.56)" fill="none" stroke="#3b3b56" stroke-linecap="round" stroke-linejoin="round" stroke-width="4"/>
            <path id="Path_5201" data-name="Path 5201" d="M1073.968,339.974q.154-2.761.281-5.524c.083-1.842.16-3.684.2-5.526.01-.46.019-.921.021-1.381s0-.921-.025-1.375c-.007-.113-.017-.227-.033-.333a.839.839,0,0,0-.106-.288,2.949,2.949,0,0,0-.4-.529,8.128,8.128,0,0,0-1.015-.907,15.223,15.223,0,0,0-4.876-2.447,11.957,11.957,0,0,0-1.334-.3c-.225-.037-.45-.068-.674-.084a6.48,6.48,0,0,0-.677-.014,8.44,8.44,0,0,0-2.653.548,12.566,12.566,0,0,0-3.53,2.048,7.676,7.676,0,0,0-.971.943,3.2,3.2,0,0,0-.2.263,1.308,1.308,0,0,0-.145.27,1.614,1.614,0,0,0-.056.307c-.012.11-.019.222-.024.335-.019.453-.009.912.008,1.37.038.917.094,1.835.176,2.751.04.458.087.916.135,1.373s.1.914.162,1.37.13.91.21,1.361c.041.225.086.45.143.669.028.11.06.219.1.323a1.264,1.264,0,0,0,.064.149.273.273,0,0,0,.072.1h0a.078.078,0,1,1-.066.142h0a.271.271,0,0,1-.1-.078.611.611,0,0,1-.056-.082,1.467,1.467,0,0,1-.079-.166c-.045-.111-.082-.223-.116-.335-.067-.224-.122-.45-.173-.677-.1-.453-.181-.909-.253-1.366q-.216-1.371-.345-2.752-.067-.69-.117-1.382c-.034-.461-.061-.923-.074-1.386s-.022-.927,0-1.4c.006-.117.014-.235.028-.354a1.848,1.848,0,0,1,.073-.372,1.583,1.583,0,0,1,.179-.339,3.472,3.472,0,0,1,.219-.288,7.972,7.972,0,0,1,1.011-.981,12.291,12.291,0,0,1,1.128-.828,12.459,12.459,0,0,1,2.494-1.26,8.721,8.721,0,0,1,2.745-.556,6.783,6.783,0,0,1,.706.018c.236.018.468.051.7.09a12.212,12.212,0,0,1,1.363.314,14.963,14.963,0,0,1,2.589,1.032,14.7,14.7,0,0,1,2.358,1.484,8.359,8.359,0,0,1,1.037.943,3.155,3.155,0,0,1,.427.576,1.381,1.381,0,0,1,.079.171.905.905,0,0,1,.049.188c.019.122.028.238.035.355.026.466.024.928.021,1.39s-.013.923-.025,1.385c-.049,1.845-.132,3.688-.22,5.53s-.189,3.684-.3,5.525a.089.089,0,0,1-.177-.01Z" transform="translate(-1055.376 -318.256)" fill="#3b3b56"/>
            <path id="Path_5202" data-name="Path 5202" d="M1208.779,378.875a.75.75,0,0,1,.46.193,1.4,1.4,0,0,1,.288.381,3.786,3.786,0,0,1,.308.862,11.271,11.271,0,0,1,.238,1.78c.041.6.043,1.191.036,1.786s-.032,1.189-.067,1.782c-.081,1.185-.2,2.367-.357,3.543-.082.588-.171,1.175-.272,1.759s-.216,1.167-.35,1.746a.078.078,0,0,1-.154-.031c.1-.582.194-1.166.274-1.751s.16-1.171.227-1.758c.134-1.174.249-2.35.315-3.528a33.136,33.136,0,0,0,.06-3.533,11.15,11.15,0,0,0-.193-1.742,3.559,3.559,0,0,0-.257-.817,1.214,1.214,0,0,0-.231-.334.56.56,0,0,0-.335-.163h0a.089.089,0,0,1,.012-.177Z" transform="translate(-1194.605 -371.547)" fill="#3b3b56"/>
            <path id="Path_5203" data-name="Path 5203" d="M1083.52,383.544a.24.24,0,0,0,.063.057c.75.446,9.335.475,9.78-.037.412-.474,1.139-8.489.234-9.176a5.666,5.666,0,0,0-2-.457,1.227,1.227,0,0,1,.356.159c.905.687.178,8.7-.234,9.176C1091.378,383.658,1086.225,383.733,1083.52,383.544Z" transform="translate(-1079.388 -366.995)" fill="#f4f4f4" style="mix-blend-mode: multiply;isolation: isolate"/>
            <path id="Path_5204" data-name="Path 5204" d="M1085.526,370.46a.987.987,0,0,0-.231-.11c-.086-.03-.174-.055-.264-.078-.18-.046-.364-.081-.549-.112-.37-.062-.745-.107-1.12-.145-.75-.074-1.505-.118-2.26-.142s-1.51-.033-2.264-.012a16.561,16.561,0,0,0-2.242.187,4.421,4.421,0,0,0-.535.124.855.855,0,0,0-.412.222.956.956,0,0,0-.111.216,2.424,2.424,0,0,0-.082.255c-.047.176-.084.358-.115.541a18.4,18.4,0,0,0-.2,2.241q-.041,1.129-.006,2.261c.024.753.068,1.506.164,2.249.024.185.052.37.086.552a3.749,3.749,0,0,0,.133.526.844.844,0,0,0,.1.208.113.113,0,0,0,.051.038.921.921,0,0,0,.113.037,4.475,4.475,0,0,0,.538.094c.742.088,1.5.122,2.253.15,1.51.049,3.024.046,4.531-.014.377-.017.753-.039,1.127-.074.187-.018.373-.039.555-.068.091-.015.182-.031.267-.053.043-.011.084-.023.122-.037a.482.482,0,0,0,.048-.022l.017-.01s0,0,0,0a.256.256,0,0,0,.019-.034.412.412,0,0,0,.023-.054c.015-.039.028-.082.041-.125.024-.087.046-.177.065-.268.039-.182.072-.367.1-.552.061-.371.108-.745.153-1.12q.135-1.124.207-2.256c.048-.754.079-1.509.075-2.264a.079.079,0,0,1,.157,0c.017.76,0,1.519-.037,2.277s-.092,1.515-.169,2.271c-.04.378-.086.755-.143,1.132-.029.188-.06.377-.1.566-.019.094-.041.189-.067.284-.014.048-.027.1-.046.145a.666.666,0,0,1-.031.077.3.3,0,0,1-.1.132c-.016.011-.029.018-.044.027a.724.724,0,0,1-.081.038,1.538,1.538,0,0,1-.149.047c-.1.026-.193.044-.289.061-.191.032-.382.056-.572.075-.38.039-.76.065-1.14.086-.759.041-1.518.06-2.278.064s-1.518,0-2.277-.026-1.518-.056-2.281-.144a4.717,4.717,0,0,1-.58-.1,1.213,1.213,0,0,1-.156-.051l-.045-.022a.256.256,0,0,1-.048-.031.445.445,0,0,1-.08-.078,1.1,1.1,0,0,1-.152-.3,4,4,0,0,1-.148-.573c-.037-.19-.066-.38-.091-.57-.1-.76-.138-1.52-.161-2.281s-.018-1.521.012-2.281a18.693,18.693,0,0,1,.208-2.28c.033-.19.071-.38.123-.569a2.71,2.71,0,0,1,.093-.285,1.2,1.2,0,0,1,.151-.286.607.607,0,0,1,.133-.128.591.591,0,0,1,.072-.047.786.786,0,0,1,.072-.038,1.872,1.872,0,0,1,.287-.11,4.686,4.686,0,0,1,.572-.128,16.815,16.815,0,0,1,2.285-.172q1.141-.02,2.28.032c.759.036,1.517.092,2.273.179.378.044.755.1,1.131.165.188.035.375.074.562.124.093.025.186.053.279.087a1.146,1.146,0,0,1,.277.14.089.089,0,0,1-.1.144Z" transform="translate(-1071.371 -362.996)" fill="#3b3b56"/>
          </g>
        </g>
      </g>
      <path id="Path_5206" data-name="Path 5206" d="M1116.737,371.607l.051.1c.011-.034.021-.069.031-.1Z" transform="translate(-1109.86 -364.705)" fill="#7f7ff8"/>
      <path id="Path_5207" data-name="Path 5207" d="M1116.737,371.607l.051.1c.011-.034.021-.069.031-.1Z" transform="translate(-1109.86 -364.705)" fill="#7f7ff8"/>
      <path id="Path_5208" data-name="Path 5208" d="M1116.737,371.607l.051.1c.011-.034.021-.069.031-.1Z" transform="translate(-1109.86 -364.705)" fill="#7f7ff8"/>
      <path id="Path_5211" data-name="Path 5211" d="M1130.228,430.772a4.839,4.839,0,0,0-.954-.318,7.768,7.768,0,0,0-1.005-.17,6.818,6.818,0,0,0-1.016-.036,4.214,4.214,0,0,0-.992.148,2.32,2.32,0,0,0-.455.184,1.459,1.459,0,0,0-.383.289,1.331,1.331,0,0,0-.351.883.077.077,0,0,1-.154,0h0a1.477,1.477,0,0,1,.334-1.034,2.02,2.02,0,0,1,.927-.582,4.216,4.216,0,0,1,1.058-.188,6.87,6.87,0,0,1,1.064.027,7.76,7.76,0,0,1,1.046.182,4.757,4.757,0,0,1,1.01.362,1.784,1.784,0,0,1,.24.147C1130.673,430.726,1130.3,430.808,1130.228,430.772Z" transform="translate(-1117.327 -418.382)" fill="#3b3b56"/>
      <path id="Path_5212" data-name="Path 5212" d="M1065.227,430.13a4.464,4.464,0,0,1,.833-.181,3.565,3.565,0,0,1,.858,0,2.158,2.158,0,0,1,.831.276,1.538,1.538,0,0,1,.346.285,1.44,1.44,0,0,1,.241.377,1.887,1.887,0,0,1,.137.85.077.077,0,0,1-.153,0h0a1.832,1.832,0,0,0-.19-.751,1.25,1.25,0,0,0-.519-.524,1.977,1.977,0,0,0-.731-.214,3.36,3.36,0,0,0-.786.009,4.313,4.313,0,0,0-.776.164C1065.066,430.5,1065.091,430.174,1065.227,430.13Z" transform="translate(-1061.534 -418.368)" fill="#3b3b56"/>
      <path id="Path_5213" data-name="Path 5213" d="M1105.069,445.323a1.221,1.221,0,0,1,.06.254,1.982,1.982,0,0,1,.018.255,2.031,2.031,0,0,1-.014.255,1.244,1.244,0,0,1-.056.256.082.082,0,0,1-.154,0,1.236,1.236,0,0,1-.064-.254,2.032,2.032,0,0,1-.023-.254,2,2,0,0,1,.009-.255,1.214,1.214,0,0,1,.051-.256.092.092,0,0,1,.116-.058A.093.093,0,0,1,1105.069,445.323Z" transform="translate(-1098.902 -432.498)" fill="#3b3b56"/>
      <path id="Path_5214" data-name="Path 5214" d="M1147.966,443.1a1.4,1.4,0,0,1,.068.272,2.308,2.308,0,0,1,.025.274,2.339,2.339,0,0,1-.006.276,1.444,1.444,0,0,1-.048.278.081.081,0,0,1-.154.007,1.441,1.441,0,0,1-.072-.272,2.337,2.337,0,0,1-.031-.274,2.385,2.385,0,0,1,0-.276,1.418,1.418,0,0,1,.043-.277.091.091,0,0,1,.173-.008Z" transform="translate(-1138.401 -430.456)" fill="#3b3b56"/>
    </g>
    <g id="Group_4699" data-name="Group 4699" transform="translate(321 444)">
      <g id="circle-2" data-name="circle" transform="translate(0 0)" fill="#efefef" stroke="#3b3b56" stroke-width="0.5">
        <circle cx="10.5" cy="10.5" r="10.5" stroke="none"/>
        <circle cx="10.5" cy="10.5" r="10.25" fill="none"/>
      </g>
      <g id="avatar-2" data-name="avatar" transform="translate(4.068 3.787)">
        <g id="Group_3173" data-name="Group 3173" transform="translate(0 0)">
          <g id="Group_3171" data-name="Group 3171" transform="translate(0 0)">
            <g id="Group_3170" data-name="Group 3170">
              <path id="Path_5550" data-name="Path 5550" d="M650.241,462.084s4.016.729,5.709,3.321c.576.882-.3,9.808-.3,9.808l-3.174-.4C654.368,464.4,650.344,464.563,650.241,462.084Z" transform="translate(-643.283 -461.852)" fill="#5b5b99"/>
              <path id="Path_5551" data-name="Path 5551" d="M540.872,460.562c-2.928-.037-6.127,2.626-6.135,3.277-.006.494.475,7.306.766,7.374,3.635.841,9,.289,9.211-.07a.734.734,0,0,0,.021-.778s1.571-5.613,1.639-6.263S543.8,460.6,540.872,460.562Z" transform="translate(-534.611 -460.42)" fill="#5b5b99"/>
              <path id="Path_5552" data-name="Path 5552" d="M552.381,515.779c.558.332,6.946.353,7.276-.027.307-.353.848-6.319.174-6.83s-6.823-.766-7.452-.094S551.823,515.446,552.381,515.779Z" transform="translate(-550.791 -505.449)" fill="#fff"/>
              <path id="Path_5553" data-name="Path 5553" d="M580.186,581.43a1.483,1.483,0,0,1,.045.252c.009.084.013.168.014.253s0,.169-.011.253a1.5,1.5,0,0,1-.042.253.061.061,0,0,1-.117,0,1.49,1.49,0,0,1-.049-.252c-.011-.084-.015-.168-.018-.253s0-.169.007-.253a1.474,1.474,0,0,1,.039-.253.068.068,0,0,1,.132,0Z" transform="translate(-577.204 -574.093)" fill="#3b3b56"/>
              <path id="Path_5554" data-name="Path 5554" d="M592.329,607.262a.466.466,0,0,1-.235.437.99.99,0,0,1-.439.147c-.038.005-.073.006-.113.009a.8.8,0,0,1-.121,0,.559.559,0,0,1-.241-.075.465.465,0,0,1-.171-.187.545.545,0,0,1-.057-.235.058.058,0,0,1,.115-.014l0,.007a.476.476,0,0,0,.072.165.315.315,0,0,0,.126.108.387.387,0,0,0,.165.032.589.589,0,0,0,.091-.007c.03,0,.065-.014.1-.021a1.488,1.488,0,0,0,.357-.126.58.58,0,0,0,.137-.1.409.409,0,0,0,.051-.064.364.364,0,0,0,.02-.036c.005-.011.011-.028.015-.033l.022-.033a.06.06,0,0,1,.109.026Z" transform="translate(-587.5 -598.394)" fill="#3b3b56"/>
              <path id="Path_5555" data-name="Path 5555" d="M623.088,579.219a1.653,1.653,0,0,1,.051.267c.011.089.018.178.02.268s0,.179-.005.269a1.668,1.668,0,0,1-.036.27.06.06,0,0,1-.117,0,1.666,1.666,0,0,1-.055-.267c-.013-.089-.019-.178-.024-.268s0-.179,0-.269a1.646,1.646,0,0,1,.033-.27.068.068,0,0,1,.132,0Z" transform="translate(-617.578 -572.013)" fill="#3b3b56"/>
              <path id="Path_5556" data-name="Path 5556" d="M607.372,565.353a1.174,1.174,0,0,0,.064.188.749.749,0,0,0,.1.165.439.439,0,0,0,.134.111.411.411,0,0,0,.165.038h.006a.088.088,0,0,1-.008.176,2.385,2.385,0,0,1-.289-.023,1.956,1.956,0,0,1-.285-.059.973.973,0,0,1-.275-.124.416.416,0,0,1-.115-.116.258.258,0,0,1-.04-.165.044.044,0,0,1,.087,0h0a.227.227,0,0,0,.138.166.993.993,0,0,0,.244.082,2.478,2.478,0,0,0,.266.042c.089.01.182.016.27.019l0,.176a.533.533,0,0,1-.243-.065.552.552,0,0,1-.18-.169.766.766,0,0,1-.1-.212.884.884,0,0,1-.036-.224.05.05,0,0,1,.1-.013Z" transform="translate(-602.434 -558.974)" fill="#3b3b56"/>
              <path id="Path_5557" data-name="Path 5557" d="M566.034,564.834a1.165,1.165,0,0,0,.064.188.751.751,0,0,0,.1.165.439.439,0,0,0,.134.111.413.413,0,0,0,.165.038h.006a.088.088,0,0,1-.008.176,2.372,2.372,0,0,1-.289-.023,1.941,1.941,0,0,1-.285-.059.972.972,0,0,1-.275-.124.417.417,0,0,1-.115-.116.258.258,0,0,1-.04-.165.044.044,0,0,1,.088,0h0a.227.227,0,0,0,.138.166.99.99,0,0,0,.244.081,2.45,2.45,0,0,0,.266.042c.089.01.182.016.27.019l0,.176a.534.534,0,0,1-.243-.065.553.553,0,0,1-.18-.169.769.769,0,0,1-.1-.212.881.881,0,0,1-.036-.224.05.05,0,0,1,.1-.013Z" transform="translate(-563.542 -558.486)" fill="#3b3b56"/>
              <path id="Path_5558" data-name="Path 5558" d="M690.635,621.447" transform="translate(-681.288 -611.789)" fill="none" stroke="#3b3b56" stroke-linecap="round" stroke-linejoin="round" stroke-width="4"/>
              <path id="Path_5559" data-name="Path 5559" d="M544.909,471.524c.077-1.37.147-1.962.209-3.333s.119-2.742.152-4.113c.008-.343.014-.685.016-1.028s0-.685-.018-1.024c-.005-.084-.012-.169-.025-.248a.626.626,0,0,0-.079-.215,2.2,2.2,0,0,0-.3-.394,6.056,6.056,0,0,0-.755-.675,11.055,11.055,0,0,0-1.732-1.075,10.934,10.934,0,0,0-1.9-.747,8.894,8.894,0,0,0-.992-.224c-.168-.027-.335-.05-.5-.062a4.819,4.819,0,0,0-.5-.011,6.279,6.279,0,0,0-1.974.408,9.054,9.054,0,0,0-1.808.922,9.153,9.153,0,0,0-.818.6,5.711,5.711,0,0,0-.723.7,2.367,2.367,0,0,0-.148.2.975.975,0,0,0-.108.2,1.2,1.2,0,0,0-.042.228c-.009.082-.014.165-.018.25-.014.337-.007.679.006,1.02.028.682.07,1.366.131,2.048.03.341.065.682.1,1.022s.075.68.12,1.019.1.677.156,1.013c.031.168.064.335.106.5.021.082.044.163.072.24a.969.969,0,0,0,.047.111.2.2,0,0,0,.054.072h0a.058.058,0,0,1-.05.106h0a.2.2,0,0,1-.071-.058.461.461,0,0,1-.042-.061,1.091,1.091,0,0,1-.059-.123c-.034-.083-.061-.166-.086-.249-.05-.167-.091-.335-.129-.5-.076-.337-.135-.677-.188-1.017q-.161-1.02-.257-2.048-.05-.514-.087-1.029c-.026-.343-.045-.687-.055-1.032s-.016-.69,0-1.039c0-.087.011-.175.021-.264a1.376,1.376,0,0,1,.054-.277,1.177,1.177,0,0,1,.134-.253,2.583,2.583,0,0,1,.162-.214,5.935,5.935,0,0,1,.753-.73,9.161,9.161,0,0,1,.84-.616,9.269,9.269,0,0,1,1.856-.938,6.491,6.491,0,0,1,2.042-.414,5.053,5.053,0,0,1,.525.013c.175.013.348.038.519.067a9.1,9.1,0,0,1,1.014.233,11.137,11.137,0,0,1,1.927.768,10.921,10.921,0,0,1,1.754,1.1,6.209,6.209,0,0,1,.772.7,2.352,2.352,0,0,1,.317.428,1.035,1.035,0,0,1,.059.127.673.673,0,0,1,.036.14c.014.091.021.177.026.264.019.347.018.69.016,1.035s-.01.687-.019,1.031c-.037,1.373-.1,2.745-.164,4.116s-.141,1.963-.221,3.334a.066.066,0,0,1-.132-.008Z" transform="translate(-532.608 -458.167)" fill="#3b3b56"/>
              <path id="Path_5560" data-name="Path 5560" d="M574.75,511.623c.038-1.315-.031-2.487-.314-2.7-.59-.447-5.371-.7-6.979-.3C568.625,510.732,571.36,511.466,574.75,511.623Z" transform="translate(-565.397 -505.449)" fill="#7f7ff8"/>
              <path id="Path_5561" data-name="Path 5561" d="M683.929,516.06a.581.581,0,0,1,.342.133.981.981,0,0,1,.214.263,2.483,2.483,0,0,1,.229.595,7.246,7.246,0,0,1,.177,1.228c.03.411.032.822.027,1.232s-.024.82-.05,1.229c-.06.818-.146,1.633-.266,2.445-.061.406-.127.81-.2,1.214s-.161.805-.261,1.2a.059.059,0,0,1-.07.04.054.054,0,0,1-.044-.062c.074-.4.144-.8.2-1.208s.119-.808.169-1.213c.1-.81.185-1.621.234-2.434a21.238,21.238,0,0,0,.045-2.437,7.146,7.146,0,0,0-.144-1.2,2.333,2.333,0,0,0-.192-.564.839.839,0,0,0-.172-.23.43.43,0,0,0-.249-.112h0a.063.063,0,0,1-.059-.067A.065.065,0,0,1,683.929,516.06Z" transform="translate(-674.914 -512.636)" fill="#3b3b56"/>
              <path id="Path_5562" data-name="Path 5562" d="M558.694,518.271a.182.182,0,0,0,.046.042c.558.332,6.946.353,7.277-.027.306-.353.848-6.319.174-6.83a4.211,4.211,0,0,0-1.487-.34.914.914,0,0,1,.265.118c.674.511.132,6.477-.174,6.83C564.541,518.356,560.707,518.411,558.694,518.271Z" transform="translate(-557.151 -507.983)" fill="#f4f4f4" style="mix-blend-mode: multiply;isolation: isolate"/>
              <path id="Path_5563" data-name="Path 5563" d="M557.958,507.42a.739.739,0,0,0-.172-.082c-.064-.022-.13-.041-.2-.058-.134-.034-.271-.06-.409-.083-.275-.046-.554-.08-.833-.108-.558-.055-1.12-.088-1.681-.106s-1.123-.024-1.684-.009a12.332,12.332,0,0,0-1.668.139,3.283,3.283,0,0,0-.4.092.637.637,0,0,0-.307.166.711.711,0,0,0-.082.161,1.83,1.83,0,0,0-.061.19c-.035.131-.062.266-.085.4a13.686,13.686,0,0,0-.148,1.668q-.03.84,0,1.683c.018.56.051,1.121.122,1.674.018.138.038.275.064.411a2.777,2.777,0,0,0,.1.392.622.622,0,0,0,.076.155.084.084,0,0,0,.038.028.689.689,0,0,0,.084.027,3.306,3.306,0,0,0,.4.07c.552.066,1.115.091,1.676.112,1.123.036,2.25.034,3.372-.01.28-.012.56-.029.838-.055.139-.013.277-.029.413-.05.068-.011.135-.023.2-.04.032-.008.062-.017.091-.028a.382.382,0,0,0,.036-.016l.012-.007s0,0,0,0a.214.214,0,0,0,.014-.025.3.3,0,0,0,.017-.04c.011-.029.021-.061.03-.093.018-.065.034-.132.049-.2.029-.135.054-.273.076-.411.045-.276.081-.555.114-.833.067-.558.117-1.118.154-1.679s.059-1.123.056-1.685a.058.058,0,0,1,.117,0c.013.565,0,1.131-.028,1.695s-.068,1.128-.126,1.69c-.03.281-.064.562-.107.843-.021.14-.045.281-.073.421-.015.07-.031.141-.05.212-.01.036-.02.071-.034.108a.463.463,0,0,1-.023.057.328.328,0,0,1-.039.066.323.323,0,0,1-.035.033l-.032.02a.545.545,0,0,1-.06.028,1.151,1.151,0,0,1-.111.035c-.073.019-.144.032-.215.045-.142.024-.284.041-.425.056-.283.029-.565.049-.848.064-.565.03-1.13.044-1.695.047s-1.13,0-1.695-.019-1.129-.042-1.7-.107a3.543,3.543,0,0,1-.432-.075.9.9,0,0,1-.116-.038l-.033-.016a.192.192,0,0,1-.036-.023.338.338,0,0,1-.06-.058.825.825,0,0,1-.113-.221,3,3,0,0,1-.11-.426c-.027-.142-.049-.283-.068-.424-.072-.566-.1-1.132-.12-1.7s-.013-1.132.009-1.7a13.923,13.923,0,0,1,.155-1.7c.024-.141.053-.283.091-.424a2.031,2.031,0,0,1,.069-.212.886.886,0,0,1,.113-.213.454.454,0,0,1,.1-.1.444.444,0,0,1,.054-.035.573.573,0,0,1,.054-.029,1.391,1.391,0,0,1,.214-.081,3.489,3.489,0,0,1,.426-.1,12.514,12.514,0,0,1,1.7-.128q.849-.015,1.7.024c.565.027,1.129.068,1.691.133.281.033.562.071.841.123.14.026.279.055.418.092.069.019.139.04.208.065a.848.848,0,0,1,.206.1.066.066,0,0,1-.077.107Z" transform="translate(-548.958 -503.895)" fill="#3b3b56"/>
            </g>
          </g>
        </g>
      </g>
    </g>
    <g id="Group_4697" data-name="Group 4697" transform="translate(321 458)">
      <g id="circle-3" data-name="circle" transform="translate(0 0)" fill="#efefef" stroke="#3b3b56" stroke-width="0.5">
        <circle cx="10.5" cy="10.5" r="10.5" stroke="none"/>
        <circle cx="10.5" cy="10.5" r="10.25" fill="none"/>
      </g>
      <g id="Mask_Group_1" data-name="Mask Group 1" transform="translate(0 0)" clip-path="url(#clip-path-2)">
        <g id="Group_4608" data-name="Group 4608" transform="translate(2.023 2.074)">
          <path id="Path_7984" data-name="Path 7984" d="M232.885,655.552c.021.4.036.808.055,1.212l.047,1.212.086,2.424.074,2.424.033,1.212c.008.4.02.808.026,1.213a.058.058,0,0,1-.116.005c-.031-.4-.055-.807-.082-1.211l-.066-1.212c-.042-.808-.071-1.616-.1-2.425s-.05-1.617-.064-2.426l-.018-1.213c0-.4-.006-.809,0-1.214a.065.065,0,0,1,.131,0Z" transform="translate(-229.427 -619.694)" fill="#3b3b56"/>
          <g id="Group_4607" data-name="Group 4607">
            <path id="Path_7975" data-name="Path 7975" d="M218.4,242.541a1.755,1.755,0,0,1-1.236.65,35.486,35.486,0,0,0-4.08.63,3.589,3.589,0,0,0-2.71,2.8,4.442,4.442,0,0,0,.34,1.829,27.311,27.311,0,0,0,4.066,7.55l-19.311-6.865q-.443-7.56-.612-15.132l-.1.078a1.072,1.072,0,0,1-.9.325c-.3-.087-.463-.41-.582-.7a23.722,23.722,0,0,1-1.648-6.711,6.564,6.564,0,0,1,.023-1.848,6.877,6.877,0,0,1,.864-2.061q.545-.958,1.15-1.882a1.271,1.271,0,0,1,.476-.493.635.635,0,0,1,.878.76c.414-.893,2.238-4.823,2.554-5.379l-.029-1.74c.123-.729.222-1.421.3-2.081-.754-.033-1.886-.077-2.564-.106a.828.828,0,0,1-.943-.618l-1.6-3.734a.623.623,0,0,1-.075-.376.7.7,0,0,1,.179-.28,3.928,3.928,0,0,0,.723-1.272c-.723-1.414-.873-4.516.408-6.094,1.176-1.448,3.285-1.755,5.136-1.519a8.322,8.322,0,0,1,5.827,3.174,9.961,9.961,0,0,1,1.5,4.427c.518,3.782.131,7.643.614,11.43.26,2.042.87,4.208,2.493,5.475.779.608,1.741.963,2.478,1.62a2.108,2.108,0,0,1,.626,2.632c-.661.932-2.1.711-3.137,1.187a2.5,2.5,0,0,0-.383,4.1,5.208,5.208,0,0,0,2.1.686,3.829,3.829,0,0,1,2.023.845,1.446,1.446,0,0,1,.166,1.987c-.615.588-1.811.349-2.249,1.078a1.223,1.223,0,0,0,.5,1.541,4.357,4.357,0,0,0,1.7.518,12.9,12.9,0,0,1,3.807,1.344C218.009,240.768,218.905,241.728,218.4,242.541Z" transform="translate(-191.467 -198.108)" fill="#fff"/>
            <path id="Path_7976" data-name="Path 7976" d="M209.65,204.871a5.2,5.2,0,0,1-.442-1.41,7.949,7.949,0,0,1-.121-1.469,7.284,7.284,0,0,1,.156-1.467,4.851,4.851,0,0,1,.514-1.389,3.12,3.12,0,0,1,.442-.6,2.823,2.823,0,0,1,.264-.263,3.231,3.231,0,0,1,.289-.236,4.548,4.548,0,0,1,1.324-.667,7.4,7.4,0,0,1,2.93-.259,10.235,10.235,0,0,1,2.856.707,7.971,7.971,0,0,1,2.481,1.584,6.59,6.59,0,0,1,.945,1.141,7.383,7.383,0,0,1,.672,1.318,12.619,12.619,0,0,1,.7,2.856c.549,3.888.137,7.819.656,11.675a11.908,11.908,0,0,0,.692,2.807,6.822,6.822,0,0,0,.664,1.273,5.086,5.086,0,0,0,.949,1.064c.724.623,1.663.965,2.446,1.592a2.958,2.958,0,0,1,.915,1.194,2.246,2.246,0,0,1,.173.748,1.533,1.533,0,0,1-.652,1.361,2.351,2.351,0,0,1-.692.328c-.483.142-.972.2-1.438.3a3.7,3.7,0,0,0-.674.215,1.908,1.908,0,0,0-.56.4,2.362,2.362,0,0,0-.612,1.231,2.592,2.592,0,0,0,.117,1.38,2.1,2.1,0,0,0,.351.595,1.966,1.966,0,0,0,.536.434,4.494,4.494,0,0,0,1.35.446,12.27,12.27,0,0,1,1.438.324,2.666,2.666,0,0,1,1.275.8,1.79,1.79,0,0,1,.339.692,1.521,1.521,0,0,1,0,.776,1.156,1.156,0,0,1-.456.64,2.242,2.242,0,0,1-.7.3c-.24.064-.479.111-.7.181a1.31,1.31,0,0,0-.582.331.775.775,0,0,0-.2.6,1.225,1.225,0,0,0,.245.619,1.4,1.4,0,0,0,.234.247,1.751,1.751,0,0,0,.289.186,2.938,2.938,0,0,0,.665.235c.233.056.471.1.712.139s.482.093.721.15a12.827,12.827,0,0,1,1.411.421,13.089,13.089,0,0,1,1.355.577c.11.055.22.11.328.168s.219.118.324.185a3.605,3.605,0,0,1,.587.467,2.45,2.45,0,0,1,.458.6,1.253,1.253,0,0,1,.151.761,1.089,1.089,0,0,1-.392.675,1.865,1.865,0,0,1-.688.331,6.363,6.363,0,0,1-.728.143c-.243.038-.486.066-.729.094-.486.054-.971.1-1.452.159a9.414,9.414,0,0,0-1.42.281c-.117.031-.228.073-.342.111s-.224.085-.332.138a4.7,4.7,0,0,0-.629.345,4.339,4.339,0,0,0-.563.441,3.427,3.427,0,0,0-.463.541,2.493,2.493,0,0,0-.443,1.326,4.2,4.2,0,0,0,.258,1.405c.154.46.321.918.5,1.369a27.314,27.314,0,0,0,2.717,5.153.058.058,0,0,1-.1.065,27.444,27.444,0,0,1-2.755-5.164c-.184-.453-.353-.911-.511-1.375a4.342,4.342,0,0,1-.272-1.456,2.655,2.655,0,0,1,.464-1.413,3.592,3.592,0,0,1,.483-.571,4.51,4.51,0,0,1,.584-.463,4.739,4.739,0,0,1,.651-.359c.111-.055.229-.1.343-.143s.234-.083.353-.115a9.6,9.6,0,0,1,1.446-.289c.486-.064.972-.108,1.455-.162.241-.028.482-.057.722-.094a6.2,6.2,0,0,0,.706-.139,1.686,1.686,0,0,0,.621-.3.9.9,0,0,0,.326-.56,1.069,1.069,0,0,0-.133-.648,2.268,2.268,0,0,0-.424-.556,3.422,3.422,0,0,0-.556-.441c-.1-.064-.2-.121-.311-.177s-.215-.111-.323-.165a12.9,12.9,0,0,0-1.336-.567,12.646,12.646,0,0,0-1.391-.412c-.235-.057-.472-.1-.711-.147s-.482-.082-.723-.14a3.136,3.136,0,0,1-.711-.25,1.939,1.939,0,0,1-.325-.209,1.6,1.6,0,0,1-.268-.282,1.474,1.474,0,0,1-.192-.34,1.277,1.277,0,0,1-.094-.384,1.043,1.043,0,0,1,.047-.4.979.979,0,0,1,.037-.1l.047-.091a1.645,1.645,0,0,1,.121-.162,1.508,1.508,0,0,1,.671-.39c.24-.076.481-.122.712-.185a2.053,2.053,0,0,0,.638-.267.946.946,0,0,0,.375-.527,1.315,1.315,0,0,0,0-.669,1.581,1.581,0,0,0-.3-.61,1.621,1.621,0,0,0-.113-.127c-.043-.038-.084-.08-.13-.115a2.3,2.3,0,0,0-.286-.2,3.271,3.271,0,0,0-.647-.283,12.152,12.152,0,0,0-1.415-.315,4.7,4.7,0,0,1-1.415-.468,2.188,2.188,0,0,1-.595-.481,2.324,2.324,0,0,1-.391-.658,2.815,2.815,0,0,1-.131-1.5,2.586,2.586,0,0,1,.67-1.35,2.136,2.136,0,0,1,.627-.445,3.916,3.916,0,0,1,.717-.231c.483-.112.969-.167,1.422-.3a2.122,2.122,0,0,0,.623-.3,1.357,1.357,0,0,0,.43-.507,1.373,1.373,0,0,0,.125-.655,2.013,2.013,0,0,0-.155-.67,2.724,2.724,0,0,0-.844-1.1,9.25,9.25,0,0,0-1.215-.779,7.675,7.675,0,0,1-1.233-.819,5.309,5.309,0,0,1-.989-1.112,7.033,7.033,0,0,1-.684-1.316,12.121,12.121,0,0,1-.7-2.86c-.516-3.892-.1-7.821-.639-11.676a12.417,12.417,0,0,0-.689-2.812,7.186,7.186,0,0,0-.653-1.284,6.4,6.4,0,0,0-.915-1.108,7.783,7.783,0,0,0-2.419-1.549,10.1,10.1,0,0,0-2.8-.7,7.231,7.231,0,0,0-2.86.239,4.383,4.383,0,0,0-1.279.637,3.061,3.061,0,0,0-.278.225,2.654,2.654,0,0,0-.254.251,2.959,2.959,0,0,0-.425.572,4.7,4.7,0,0,0-.5,1.342,7.141,7.141,0,0,0-.159,1.436,7.807,7.807,0,0,0,.112,1.443,5.067,5.067,0,0,0,.423,1.374h0a.065.065,0,0,1-.117.058Z" transform="translate(-207.609 -197.069)" fill="#3b3b56"/>
            <path id="Path_7977" data-name="Path 7977" d="M208.984,235.755l-1.939-.073c-.162-.008-.321-.008-.489-.023a.934.934,0,0,1-.5-.17,1.082,1.082,0,0,1-.294-.431l-.195-.445-.772-1.781-.386-.89-.193-.445-.1-.223a1.073,1.073,0,0,1-.083-.255.487.487,0,0,1,0-.154.462.462,0,0,1,.052-.148,1.3,1.3,0,0,1,.159-.211l.144-.186c.024-.031.049-.062.071-.093l.062-.1c.041-.067.084-.133.124-.2l.106-.211c.017-.035.037-.07.052-.106l.045-.11c.029-.073.061-.146.088-.22a9.154,9.154,0,0,0,.4-1.871c.084-.639.144-1.285.266-1.928.016-.08.029-.161.047-.241l.056-.24a3.47,3.47,0,0,1,.143-.479,1.834,1.834,0,0,1,.246-.454,1.145,1.145,0,0,1,.409-.343,1.169,1.169,0,0,1,.522-.114,1.5,1.5,0,0,1,.514.1,1.68,1.68,0,0,1,.451.255,1.858,1.858,0,0,1,.353.376,3.2,3.2,0,0,1,.432.9c.1.315.171.633.245.948.144.633.273,1.27.37,1.913s.172,1.288.214,1.937a27.763,27.763,0,0,1-.024,3.891c-.1,1.294-.274,2.579-.5,3.855a.058.058,0,0,1-.114-.019c.2-1.276.361-2.56.439-3.848a27.732,27.732,0,0,0-.009-3.865l-.041-.481c-.015-.16-.036-.32-.053-.48l-.027-.24-.033-.239c-.023-.159-.042-.319-.069-.478-.1-.637-.228-1.268-.373-1.9-.074-.314-.145-.629-.243-.93a2.978,2.978,0,0,0-.4-.839,1.628,1.628,0,0,0-.31-.329,1.449,1.449,0,0,0-.391-.219,1.086,1.086,0,0,0-.851.009,1.175,1.175,0,0,0-.542.671,3.27,3.27,0,0,0-.135.45l-.055.233c-.018.078-.031.157-.046.235-.12.629-.182,1.272-.268,1.915a9.37,9.37,0,0,1-.416,1.916c-.028.078-.062.154-.092.23l-.047.115c-.016.038-.037.074-.055.112l-.113.222c-.042.071-.088.141-.132.212l-.067.105c-.025.034-.051.066-.076.1l-.154.2a1.145,1.145,0,0,0-.135.173.244.244,0,0,0-.029.167.889.889,0,0,0,.067.2l.095.223.19.447.379.893.758,1.786.188.447a.923.923,0,0,0,.238.368.773.773,0,0,0,.408.141c.154.016.319.019.479.029l1.938.1a.065.065,0,0,1-.006.13Z" transform="translate(-202.948 -221.538)" fill="#3b3b56"/>
            <g id="Group_4504" data-name="Group 4504" transform="translate(4.613 7.519)">
              <path id="Path_7978" data-name="Path 7978" d="M276.269,298.022c-1.1.079-3.173-.012-4.846,1.289A8.205,8.205,0,0,0,269.048,303c-.408,1.07-.965,2.349-2.1,2.487-1.05.127-1.874-.816-2.74-1.423a7.488,7.488,0,0,0-1.851-.889,11.23,11.23,0,0,0-5.6-.607,7.454,7.454,0,0,0-4.751,2.92c-.425.586-.7,1.1-1.142,1.825a4.239,4.239,0,0,1,.774-3.67,15.758,15.758,0,0,1,3.395-3.721,7.583,7.583,0,0,1,2.451-1.438,7.138,7.138,0,0,1,3.843.074c1.258.317,2.471.8,3.734,1.1a2.317,2.317,0,0,0,.933.077c.831-.15,1.274-1.03,1.713-1.751a7.533,7.533,0,0,1,3.979-3.235,6.5,6.5,0,0,1,5.076.389,2.921,2.921,0,0,1,1.2,1.069,1.429,1.429,0,0,1,.039,1.346C277.839,297.752,277.343,297.945,276.269,298.022Z" transform="translate(-250.57 -294.326)" fill="#fff"/>
              <g id="Group_4503" data-name="Group 4503">
                <path id="Path_7979" data-name="Path 7979" d="M274.934,297.115c-.333.023-.663.033-.992.054s-.657.053-.982.1a6.717,6.717,0,0,0-1.88.545,5.137,5.137,0,0,0-1.564,1.155,7.305,7.305,0,0,0-1.092,1.625c-.149.292-.285.592-.41.9s-.239.613-.363.923a7.508,7.508,0,0,1-.426.909,3.358,3.358,0,0,1-.616.809,1.764,1.764,0,0,1-.92.464,1.821,1.821,0,0,1-1.021-.134,4.2,4.2,0,0,1-.867-.525c-.267-.2-.521-.414-.783-.611a6.455,6.455,0,0,0-1.723-.914,14.519,14.519,0,0,0-1.888-.562,10.159,10.159,0,0,0-3.9-.158,7.554,7.554,0,0,0-3.528,1.594,7.171,7.171,0,0,0-1.319,1.436c-.374.536-.689,1.118-1.04,1.684h0a.113.113,0,0,1-.2-.02,2.945,2.945,0,0,1-.176-1.227,4.424,4.424,0,0,1,.271-1.2,6.963,6.963,0,0,1,.533-1.1c.208-.349.435-.681.675-1.006a16.735,16.735,0,0,1,3.42-3.39,6.51,6.51,0,0,1,2.157-1.108,6.3,6.3,0,0,1,2.422-.12,13.651,13.651,0,0,1,2.351.551c.766.237,1.521.5,2.29.7a3.878,3.878,0,0,0,1.147.19,1.26,1.26,0,0,0,.53-.16,1.8,1.8,0,0,0,.44-.359,5.936,5.936,0,0,0,.671-.968c.051-.086.1-.172.156-.258l.164-.256.174-.249c.06-.082.122-.161.184-.242a7.861,7.861,0,0,1,1.77-1.647,6.981,6.981,0,0,1,2.206-.99,6.528,6.528,0,0,1,4.712.576,3.327,3.327,0,0,1,.956.756,1.779,1.779,0,0,1,.315.534,1.715,1.715,0,0,1,.094.614,1.413,1.413,0,0,1-.04.311.678.678,0,0,1-.142.3.824.824,0,0,1-.268.181,2.072,2.072,0,0,1-.291.1,6.222,6.222,0,0,1-1.2.181Zm-.009-.123a6.1,6.1,0,0,0,1.171-.184,1.945,1.945,0,0,0,.273-.1.706.706,0,0,0,.226-.153.556.556,0,0,0,.112-.241,1.285,1.285,0,0,0,.035-.283,1.583,1.583,0,0,0-.09-.565,1.644,1.644,0,0,0-.295-.491,3.189,3.189,0,0,0-.92-.717,6.146,6.146,0,0,0-2.248-.7,6.6,6.6,0,0,0-2.35.165,6.807,6.807,0,0,0-2.148.971,7.681,7.681,0,0,0-1.725,1.612c-.059.079-.121.157-.179.236l-.169.243-.159.25c-.052.084-.1.17-.154.256a6.1,6.1,0,0,1-.692,1,1.994,1.994,0,0,1-.486.4,1.456,1.456,0,0,1-.61.186,2.293,2.293,0,0,1-.622-.052c-.2-.041-.394-.09-.589-.141-.779-.2-1.537-.465-2.3-.7a13.459,13.459,0,0,0-2.317-.538,6.091,6.091,0,0,0-2.34.12,6.3,6.3,0,0,0-2.083,1.078,16.515,16.515,0,0,0-3.365,3.35,8.782,8.782,0,0,0-1.175,2.046,4.2,4.2,0,0,0-.26,1.133,2.717,2.717,0,0,0,.159,1.13l-.2-.019c.348-.559.665-1.143,1.05-1.692a7.4,7.4,0,0,1,1.363-1.477,7.766,7.766,0,0,1,3.632-1.631,10.362,10.362,0,0,1,3.982.169,14.706,14.706,0,0,1,1.914.574,6.653,6.653,0,0,1,1.77.945c.266.2.52.415.781.613a4.012,4.012,0,0,0,.825.5,1.634,1.634,0,0,0,.919.125,1.588,1.588,0,0,0,.827-.416,3.183,3.183,0,0,0,.585-.762,7.346,7.346,0,0,0,.42-.886c.123-.3.238-.617.368-.923s.267-.61.42-.907a7.461,7.461,0,0,1,1.124-1.656,5.289,5.289,0,0,1,1.616-1.183,6.858,6.858,0,0,1,1.923-.549c.33-.047.662-.078.994-.1s.663-.029.991-.05Z" transform="translate(-249.23 -293.354)" fill="#3b3b56"/>
              </g>
            </g>
            <path id="Path_7980" data-name="Path 7980" d="M261.3,430.959q-.135.185-.272.368l-.268.371-.266.372-.261.375c-.345.5-.683,1.009-1,1.529s-.633,1.041-.933,1.572l-.223.4-.217.4-.215.4q-.1.2-.211.406h0a.058.058,0,0,1-.1-.05q.091-.211.185-.421l.193-.417.2-.413.21-.409c.285-.544.594-1.074.914-1.6s.666-1.031,1.027-1.527l.274-.37.28-.365.289-.358q.146-.177.3-.352a.065.065,0,0,1,.1.081Z" transform="translate(-252.08 -412.599)" fill="#3b3b56"/>
            <path id="Path_7981" data-name="Path 7981" d="M221.683,506.368a8.853,8.853,0,0,1,1.2.9,4.286,4.286,0,0,1,.52.555,2,2,0,0,1,.209.331.9.9,0,0,1,.1.4.557.557,0,0,1-.051.222.509.509,0,0,1-.061.1.4.4,0,0,1-.1.086.469.469,0,0,1-.23.065.876.876,0,0,1-.212-.021,2.672,2.672,0,0,1-.712-.307c-.219-.127-.428-.267-.633-.412q-.153-.109-.3-.221c-.1-.073-.2-.154-.294-.218l.159-.033-.169.265-.084.133c-.027.043-.057.091-.078.128l-.015-.131a1.286,1.286,0,0,0,.12.106l.139.11.284.221c.189.15.376.3.557.466a3.881,3.881,0,0,1,.508.538,1.171,1.171,0,0,1,.188.35.516.516,0,0,1,.019.227.423.423,0,0,1-.038.118.458.458,0,0,1-.07.1.412.412,0,0,1-.214.114.723.723,0,0,1-.211.01,1.668,1.668,0,0,1-.375-.085,4.809,4.809,0,0,1-.673-.3c-.215-.112-.425-.233-.632-.357l-.307-.189c-.1-.062-.206-.131-.3-.181l.11-.174.587.42c.2.144.391.291.58.447a5.163,5.163,0,0,1,.542.5,1.492,1.492,0,0,1,.226.314.476.476,0,0,1,.056.216.277.277,0,0,1-.034.126.313.313,0,0,1-.081.1.456.456,0,0,1-.206.083.968.968,0,0,1-.2.01,2.2,2.2,0,0,1-.374-.054,5.522,5.522,0,0,1-.7-.216q-.344-.128-.675-.283-.166-.077-.328-.162a3.188,3.188,0,0,1-.321-.187.058.058,0,0,1,.063-.1l0,0a5.192,5.192,0,0,0,.639.322c.22.1.444.187.67.266a5.354,5.354,0,0,0,.688.2,2.045,2.045,0,0,0,.346.044.484.484,0,0,0,.291-.062.12.12,0,0,0,.047-.09.308.308,0,0,0-.039-.131,1.322,1.322,0,0,0-.2-.271,4.991,4.991,0,0,0-.527-.479c-.187-.15-.38-.294-.576-.434l-.3-.208c-.1-.07-.2-.133-.3-.212a.1.1,0,0,1,.11-.174h0c.118.063.213.125.318.187l.307.185c.2.122.411.24.621.348a4.616,4.616,0,0,0,.642.28,1.463,1.463,0,0,0,.325.073.306.306,0,0,0,.246-.057.22.22,0,0,0,.035-.227.957.957,0,0,0-.154-.279,3.667,3.667,0,0,0-.48-.5c-.176-.157-.36-.307-.548-.454l-.283-.222-.142-.114a1.4,1.4,0,0,1-.147-.134.112.112,0,0,1-.015-.131c.032-.055.058-.095.087-.141l.085-.133.172-.265,0,0a.111.111,0,0,1,.153-.033l0,0c.111.078.2.152.3.227s.2.148.3.219c.2.143.4.28.614.4a2.537,2.537,0,0,0,.648.286.4.4,0,0,0,.282-.012.214.214,0,0,0,.079-.095.346.346,0,0,0,.034-.138.7.7,0,0,0-.076-.312,1.806,1.806,0,0,0-.183-.3,4.443,4.443,0,0,0-.487-.54,9.416,9.416,0,0,0-1.147-.926h0a.065.065,0,0,1,.072-.109Z" transform="translate(-216.823 -482.207)" fill="#3b3b56"/>
            <path id="Path_7982" data-name="Path 7982" d="M208.635,509.513a.314.314,0,0,1,.126.138.377.377,0,0,1,.034.178.489.489,0,0,1-.141.316.519.519,0,0,1-.314.149.87.87,0,0,1-.326-.039,6.605,6.605,0,0,1-1.137-.415,2.145,2.145,0,0,1-.272-.157l-.066-.049-.058-.048c-.039-.032-.077-.066-.116-.1a1.4,1.4,0,0,1-.388-.511,1.139,1.139,0,0,1-.033-.651,4.372,4.372,0,0,1,.181-.585q.21-.563.466-1.107a11.974,11.974,0,0,1,.561-1.063,9.4,9.4,0,0,1,.682-.991,2.285,2.285,0,0,1,.432-.439.825.825,0,0,1,.293-.138.6.6,0,0,1,.327.02.058.058,0,0,1-.034.11h0a.481.481,0,0,0-.261,0,.689.689,0,0,0-.237.127,2.207,2.207,0,0,0-.382.426,9.418,9.418,0,0,0-.642.99,14.339,14.339,0,0,0-.987,2.146,4.18,4.18,0,0,0-.176.551.914.914,0,0,0,.018.523,1.181,1.181,0,0,0,.327.429c.036.032.072.064.109.1l.056.047.053.041a1.945,1.945,0,0,0,.241.147,6.536,6.536,0,0,0,1.09.427.7.7,0,0,0,.261.045.353.353,0,0,0,.219-.092.339.339,0,0,0,.106-.212.2.2,0,0,0-.081-.2h0a.065.065,0,0,1,.069-.111Z" transform="translate(-204.683 -480.021)" fill="#3b3b56"/>
            <path id="Path_7983" data-name="Path 7983" d="M195.116,458.978c-.132.242-.252.494-.372.746l-.352.759q-.347.762-.684,1.528l-.148-.083a.566.566,0,0,0,.081-.414.514.514,0,0,0-.227-.348.586.586,0,0,0-.412-.084.64.64,0,0,0-.363.228,3.567,3.567,0,0,0-.279.4l-.267.421q-.264.423-.516.854a12.611,12.611,0,0,0-.905,1.763,4.258,4.258,0,0,0-.247.942,5.432,5.432,0,0,0-.036.979,22.72,22.72,0,0,0,.6,3.93q.232.968.549,1.914c.052.158.106.315.162.471s.112.312.171.468.12.309.181.464a2.439,2.439,0,0,0,.206.431.625.625,0,0,0,.313.272.559.559,0,0,0,.406-.037,4.022,4.022,0,0,0,.782-.567c.128-.106.259-.208.384-.318l.374-.329c.253-.216.492-.447.736-.673.967-.913,1.883-1.882,2.788-2.861s1.8-1.972,2.728-2.932a36.14,36.14,0,0,1,2.925-2.741.058.058,0,0,1,.074.089,36.019,36.019,0,0,0-2.879,2.767c-.916.968-1.8,1.963-2.7,2.951l-.677.738-.686.731c-.234.239-.464.481-.7.717l-.357.352c-.119.118-.238.235-.361.348-.245.228-.485.461-.739.68l-.377.333c-.126.111-.258.214-.386.322l-.389.319a2.091,2.091,0,0,1-.446.282.938.938,0,0,1-.273.075.7.7,0,0,1-.3-.031.851.851,0,0,1-.433-.364,2.638,2.638,0,0,1-.227-.469c-.061-.156-.126-.311-.184-.468s-.119-.314-.174-.472-.111-.316-.164-.475q-.316-.955-.551-1.934a22.934,22.934,0,0,1-.6-3.975,5.644,5.644,0,0,1,.04-1.018,4.37,4.37,0,0,1,.264-.989,12.784,12.784,0,0,1,.932-1.788q.256-.432.525-.855l.272-.422a3.7,3.7,0,0,1,.3-.418A1.026,1.026,0,0,1,192.7,461a.723.723,0,0,1,.266-.1.762.762,0,0,1,.545.116.7.7,0,0,1,.3.469.738.738,0,0,1-.114.542h0a.085.085,0,0,1-.148-.083q.347-.763.7-1.522l.362-.757c.124-.251.246-.5.385-.749a.065.065,0,0,1,.114.063Z" transform="translate(-190.158 -438.436)" fill="#3b3b56"/>
            <g id="Group_4515" data-name="Group 4515" transform="translate(2.964 2.144)">
              <path id="Path_7995" data-name="Path 7995" d="M228.9,226.286a9.021,9.021,0,0,0,3.556,6.038s-.187-6.272-2.041-6.757A1.273,1.273,0,0,0,228.9,226.286Z" transform="translate(-228.841 -225.438)" fill="#3b3b56"/>
              <g id="Group_4514" data-name="Group 4514">
                <path id="Path_7996" data-name="Path 7996" d="M228.232,225.356l.006.028.1.421c.014.069.033.141.052.214l.057.216c.036.145.08.287.125.429l.066.213c.023.071.05.14.074.21a10.324,10.324,0,0,0,.73,1.623,7.65,7.65,0,0,0,2.352,2.609l-.178.1c-.014-.378-.042-.758-.073-1.137s-.069-.758-.115-1.135a16.872,16.872,0,0,0-.414-2.236,7.225,7.225,0,0,0-.363-1.068,3.573,3.573,0,0,0-.262-.492,1.844,1.844,0,0,0-.353-.413,1.189,1.189,0,0,0-.221-.144.948.948,0,0,0-.253-.078,1.171,1.171,0,0,0-.534,0,1.109,1.109,0,0,0-.47.251,1.433,1.433,0,0,0-.186.2,1.3,1.3,0,0,0-.078.113c-.012.019-.024.039-.035.059s-.011.02-.016.03-.011.027-.01.013Zm-.12.03,0-.016a.246.246,0,0,1,.02-.052c.005-.012.011-.023.017-.034s.023-.044.036-.066a1.439,1.439,0,0,1,.081-.125,1.528,1.528,0,0,1,.2-.225,1.252,1.252,0,0,1,.523-.3,1.327,1.327,0,0,1,.6-.018,1.111,1.111,0,0,1,.295.084,1.3,1.3,0,0,1,.261.162,2.024,2.024,0,0,1,.4.447,3.761,3.761,0,0,1,.285.513,7.428,7.428,0,0,1,.391,1.093,16.883,16.883,0,0,1,.434,2.263c.1.762.166,1.524.192,2.293l.008.225-.186-.127A7.2,7.2,0,0,1,230.3,230.3a8.391,8.391,0,0,1-1.033-1.494,10.063,10.063,0,0,1-.716-1.664c-.024-.072-.05-.143-.071-.215l-.063-.217c-.043-.145-.085-.289-.118-.436l-.054-.22c-.018-.072-.036-.146-.05-.224Z" transform="translate(-228.112 -224.529)" fill="#3b3b56"/>
              </g>
            </g>
          </g>
        </g>
      </g>
    </g>
  </g>
</svg>
