<svg height="12" id="password-type" viewBox="0 0 24 12" width="24"
    xmlns="http://www.w3.org/2000/svg">
    <path d="M20.25,15a.75.75,0,0,0,0-1.5h-3a.75.75,0,0,0,0,1.5Z" fill="#7f7ff8"
        id="Path_4761" transform="translate(-13.5 -6)" />
    <path d="M21.75,18A2.252,2.252,0,0,0,24,15.75V8.25A2.252,2.252,0,0,0,21.75,6H2.25A2.252,2.252,0,0,0,0,8.25v7.5A2.252,2.252,0,0,0,2.25,18Zm0-10.5a.75.75,0,0,1,.75.75v7.5a.75.75,0,0,1-.75.75H2.25a.75.75,0,0,1-.75-.75V8.25a.75.75,0,0,1,.75-.75Z"
        fill="#7f7ff8"
        id="Path_4762" transform="translate(0 -6)" />
    <path d="M3.75,15a.743.743,0,0,0,.53-.22l1.345-1.345L6.97,14.78a.748.748,0,0,0,1.06,0,.752.752,0,0,0,0-1.061L6.685,12.374,8.03,11.03A.75.75,0,0,0,7.5,9.75h0a.743.743,0,0,0-.53.22L5.625,11.315,4.28,9.97a.743.743,0,0,0-.53-.22h0a.75.75,0,0,0-.53,1.28l1.345,1.345L3.22,13.72A.749.749,0,0,0,3.75,15Z"
        fill="#7f7ff8"
        id="Path_4763" transform="translate(12.75 -6)" />
    <path d="M10.5,15a.743.743,0,0,0,.53-.22l1.345-1.345L13.72,14.78a.748.748,0,0,0,1.06,0,.752.752,0,0,0,0-1.061l-1.345-1.345L14.78,11.03a.75.75,0,0,0-.53-1.28h0a.743.743,0,0,0-.53.22l-1.345,1.345L11.03,9.97a.744.744,0,0,0-.53-.22h0a.75.75,0,0,0-.53,1.28l1.345,1.345L9.97,13.72A.749.749,0,0,0,10.5,15Z"
        fill="#7f7ff8"
        id="Path_4764" transform="translate(-0.75 -6)" />
</svg>
