<svg id="lock-round-24px" xmlns="http://www.w3.org/2000/svg" width="20" height="20" viewBox="0 0 20 20">
  <path id="Path_13178" data-name="Path 13178" d="M0,0H20V20H0Z" fill="none" opacity="0.87"/>
  <path id="Path_13179" data-name="Path 13179" d="M18,7.667H17v-1.9A4.887,4.887,0,0,0,12,1,4.887,4.887,0,0,0,7,5.762v1.9H6a1.96,1.96,0,0,0-2,1.9V19.1A1.96,1.96,0,0,0,6,21H18a1.96,1.96,0,0,0,2-1.9V9.571A1.96,1.96,0,0,0,18,7.667Zm-6,8.571a1.907,1.907,0,1,1,2-1.9A1.96,1.96,0,0,1,12,16.238ZM9,7.667v-1.9A2.927,2.927,0,0,1,12,2.9a2.927,2.927,0,0,1,3,2.857v1.9Z" transform="translate(-2 -1)" fill="#7e7bfa"/>
</svg>
