<svg xmlns="http://www.w3.org/2000/svg" width="41.646" height="41.645" viewBox="0 0 41.646 41.645">
  <g id="Group_3112" data-name="Group 3112" transform="translate(-263 112.646)">
    <g id="meeting_1_" data-name="meeting (1)" transform="translate(263 -112.654)">
      <g id="Group_3015" data-name="Group 3015" transform="translate(3.661 6.19)">
        <g id="Group_3014" data-name="Group 3014">
          <path id="Path_4895" data-name="Path 4895" d="M48.674,76.005a3.66,3.66,0,1,0,3.66,3.66A3.664,3.664,0,0,0,48.674,76.005Z" transform="translate(-45.014 -76.005)" fill="#3a3855"/>
        </g>
      </g>
      <g id="Group_3017" data-name="Group 3017" transform="translate(12.202 0.008)">
        <g id="Group_3016" data-name="Group 3016" transform="translate(0 0)">
          <path id="Path_4896" data-name="Path 4896" d="M163.593.008H153.67a3.735,3.735,0,0,0-3.66,3.741V6.19a3.664,3.664,0,0,0,3.66,3.66h4.456l4.6,4.523a1.22,1.22,0,0,0,2.083-.863V9.641a3.668,3.668,0,0,0,2.44-3.452V3.749A3.735,3.735,0,0,0,163.593.008Z" transform="translate(-150.01 -0.008)" fill="#3a3855"/>
        </g>
      </g>
      <g id="Group_3019" data-name="Group 3019" transform="translate(0 14.744)">
        <g id="Group_3018" data-name="Group 3018" transform="translate(0)">
          <path id="Path_4897" data-name="Path 4897" d="M19.449,205.054l-3.66-11.063a2.435,2.435,0,0,0-2.367-1.847h-2.44a1.22,1.22,0,1,1,0-2.44h3.66a2.44,2.44,0,0,0,0-4.88H7.923l-.859-2.31a2.448,2.448,0,0,0-4.55.5l-2.44,10.98a2.438,2.438,0,0,0,2.332,3.028l-2.367,9.55a1.219,1.219,0,1,0,2.366.591l.989-3.956H13.652l1.062,3.032a2.44,2.44,0,0,0,4.735-1.184ZM4,200.766l.841-3.446a1.17,1.17,0,0,0,.014-.3h6.657l1.282,3.742Z" transform="translate(0 -181.178)" fill="#3a3855"/>
        </g>
      </g>
      <g id="Group_3021" data-name="Group 3021" transform="translate(30.664 6.19)">
        <g id="Group_3020" data-name="Group 3020">
          <path id="Path_4898" data-name="Path 4898" d="M380.651,76.005a3.66,3.66,0,1,0,3.66,3.66A3.664,3.664,0,0,0,380.651,76.005Z" transform="translate(-376.991 -76.005)" fill="#3a3855"/>
        </g>
      </g>
      <g id="Group_3023" data-name="Group 3023" transform="translate(22.123 14.744)">
        <g id="Group_3022" data-name="Group 3022">
          <path id="Path_4899" data-name="Path 4899" d="M289.105,197.018a2.438,2.438,0,0,0,2.332-3.028L289,183.01a2.448,2.448,0,0,0-4.55-.5l-.859,2.31h-6.719a2.44,2.44,0,1,0,0,4.88h3.66a1.22,1.22,0,0,1,0,2.44h-2.44a2.435,2.435,0,0,0-2.367,1.847l-3.66,11.063a2.44,2.44,0,0,0,4.735,1.184l1.062-3.032h10.259l.989,3.956a1.219,1.219,0,1,0,2.366-.591Zm-10.392,3.746,1.282-3.75h6.657a1.169,1.169,0,0,0,.014.3l.841,3.454Z" transform="translate(-271.988 -181.176)" fill="#3a3855"/>
        </g>
      </g>
    </g>
  </g>
</svg>
