<svg xmlns="http://www.w3.org/2000/svg" width="28" height="32" viewBox="0 0 28 32">
  <g id="pdf_1_" data-name="pdf (1)" transform="translate(-19.329)">
    <path id="Path_13187" data-name="Path 13187" d="M21.329,0H38.322l9.007,8.972V30a2,2,0,0,1-2,2h-24a2,2,0,0,1-2-2V2A2,2,0,0,1,21.329,0Z" fill="#e2574c"/>
    <path id="Path_13188" data-name="Path 13188" d="M211.957,9.2h-6.993A2.007,2.007,0,0,1,202.957,7.2v-7Z" transform="translate(-164.657 -0.173)" fill="#b53629"/>
    <path id="Path_13189" data-name="Path 13189" d="M100.352,136.575a.585.585,0,0,0,0-1.155H98.474a.594.594,0,0,0-.572.652v4.7c0,.419.234.652.551.652s.55-.233.55-.652v-1.291h1.136a.54.54,0,0,0,.528-.586.529.529,0,0,0-.528-.57H99v-1.755Zm-6.347-1.155H92.631a.613.613,0,0,0-.638.648v4.712a.61.61,0,0,0,.653.631h1.442a2.7,2.7,0,0,0,2.833-2.911A2.773,2.773,0,0,0,94.005,135.42Zm.066,4.83h-.838v-3.668h.755c1.143,0,1.64.782,1.64,1.86C95.628,139.451,95.14,140.249,94.071,140.249Zm-5.033-4.83H87.677a.579.579,0,0,0-.6.652v4.7a.581.581,0,1,0,1.153,0V139.4h.853a1.882,1.882,0,0,0,1.922-1.983A1.9,1.9,0,0,0,89.038,135.42Zm-.023,2.879h-.784v-1.775h.784a.893.893,0,0,1,0,1.775Z" transform="translate(-60.628 -121.418)" fill="#fff"/>
  </g>
</svg>
