<svg xmlns="http://www.w3.org/2000/svg" width="20" height="20" viewBox="0 0 20 20">
  <g id="icon" transform="translate(-325.798 -12.798)">
    <rect id="Rectangle_1537" data-name="Rectangle 1537" width="20" height="20" transform="translate(325.798 12.798)" fill="none"/>
    <path id="Path_6821" data-name="Path 6821" d="M21.067,16.649l-2.828-.323a2.216,2.216,0,0,0-1.826.635l-2.049,2.049a16.751,16.751,0,0,1-7.337-7.337l2.06-2.06a2.216,2.216,0,0,0,.635-1.826L9.4,4.981A2.228,2.228,0,0,0,7.183,3.01H5.257a2.21,2.21,0,0,0-2.227,2.3A18.918,18.918,0,0,0,20.722,23.006a2.21,2.21,0,0,0,2.3-2.227V18.853A2.207,2.207,0,0,0,21.067,16.649Z" transform="translate(322.772 9.788)" fill="#7d7bfa"/>
  </g>
</svg>
