<svg xmlns="http://www.w3.org/2000/svg" width="28" height="28" viewBox="0 0 28 28">
  <g id="play" transform="translate(-230.042 -417)">
    <rect id="back" width="28" height="28" transform="translate(230.042 417)" fill="none"/>
    <path id="Path_25" data-name="Path 25" d="M31.089,20.46a3.553,3.553,0,0,1-.753,2.208,12.178,12.178,0,0,1-.879.968l-.188.181c-2.636,2.755-9.193,6.9-12.519,8.226a11.079,11.079,0,0,1-2.918.847h-.125a3.967,3.967,0,0,1-3.483-2.053,16.8,16.8,0,0,1-.753-2.752A54.084,54.084,0,0,1,9,20.429a46.675,46.675,0,0,1,.533-7.893,19.626,19.626,0,0,1,.565-2.208,3.99,3.99,0,0,1,1.757-1.875A4.54,4.54,0,0,1,13.832,8a10.986,10.986,0,0,1,2.6.7,48.1,48.1,0,0,1,12.8,8.347c.439.423.91.94,1.035,1.059A3.73,3.73,0,0,1,31.089,20.46Z" transform="translate(223.842 410.556)" fill="#7d7afa"/>
    <path id="Path_25_-_Outline" data-name="Path 25 - Outline" d="M13.421,34h-.148a5.52,5.52,0,0,1-4.865-2.874l0-.005a10.933,10.933,0,0,1-.79-2.654l-.042-.036-.086-.556A55.537,55.537,0,0,1,7,19.985,48.105,48.105,0,0,1,7.56,11.8h0c.029-.17.09-.451.213-.973a10.327,10.327,0,0,1,.434-1.518l.019-.045a5.548,5.548,0,0,1,2.442-2.619l.035-.019.036-.017A6.122,6.122,0,0,1,13.4,6l.074,0a12.5,12.5,0,0,1,3.1.8A49.287,49.287,0,0,1,29.9,15.5c.292.283.582.588.795.812.079.084.178.187.21.218l.076.072.068.085A5.26,5.26,0,0,1,32.2,20.015a5.11,5.11,0,0,1-1.079,3.157A13.676,13.676,0,0,1,30.1,24.3l-.166.16c-2.805,2.923-9.416,7.109-12.95,8.545q-.056.028-.116.055c-.079.035-.178.075-.293.121-.262.1-.567.214-.859.312a7.594,7.594,0,0,1-2.269.5Zm-2.235-4.339a2.37,2.37,0,0,0,2.087,1.229h.1a7.806,7.806,0,0,0,1.557-.415l.795-.318c3.14-1.256,9.5-5.289,11.943-7.852l.045-.046.188-.181c.267-.258.642-.691.72-.791l.018-.023a2.012,2.012,0,0,0,.417-1.249,2.211,2.211,0,0,0-.428-1.334c-.056-.057-.126-.131-.226-.236-.2-.209-.47-.494-.72-.736l-.039-.039A46.733,46.733,0,0,0,15.433,9.7l-.024-.009a10.221,10.221,0,0,0-2.054-.583,2.919,2.919,0,0,0-1.208.281,2.445,2.445,0,0,0-1.022,1.088c-.116.309-.356,1.332-.444,1.759h0l-.028.144a45.17,45.17,0,0,0-.5,7.6,53.732,53.732,0,0,0,.441,7.35c.027.1.05.216.074.335A10.322,10.322,0,0,0,11.186,29.661Z" transform="translate(224.442 411)" fill="#fff"/>
  </g>
</svg>
