<?xml version="1.0" encoding="utf-8"?>
<!-- Generator: Adobe Illustrator 24.2.3, SVG Export Plug-In . SVG Version: 6.00 Build 0)  -->
<svg version="1.1" id="Layer_1" xmlns="http://www.w3.org/2000/svg" xmlns:xlink="http://www.w3.org/1999/xlink" x="0px" y="0px"
	 viewBox="0 0 24 24" style="enable-background:new 0 0 24 24;" xml:space="preserve">
<style type="text/css">
	.st0{fill:#FFFFFF;}
</style>
<path class="st0" d="M11.9,24c0,0,2.6,0,2.6-7.8c0-1.5-1.2-2.6-2.6-2.6s-2.6,1.2-2.6,2.6C9.3,24,11.9,24,11.9,24z M15.2,21.3
	c0.1-0.4,0.2-0.9,0.3-1.4l0.1-0.4c0.1,0,0.2-0.1,0.3-0.1c1.8-0.8,3.4-2.2,4.3-4c0.4-0.8,0.8-1.7,1-2.6c0.2-1,0.3-2.1,0.2-3.1
	c-0.1-1-0.4-1.9-0.8-2.8c-0.5-1-1.1-2-1.9-2.8c-0.8-0.8-1.8-1.5-2.9-2c-1.1-0.5-2.3-0.8-3.5-0.8c-1.2,0-2.4,0.2-3.6,0.6
	c-1.1,0.4-2.1,1-3,1.8c-0.8,0.8-1.5,1.7-2,2.7C3.2,7.5,2.9,8.4,2.7,9.3c-0.2,1-0.2,2,0,3c0.1,0.9,0.4,1.7,0.8,2.5
	c0.9,1.9,2.4,3.4,4.3,4.4c0.2,0.1,0.5,0.2,0.7,0.3c0,0.1,0,0.3,0.1,0.4c0.1,0.4,0.2,0.9,0.3,1.3c-0.4-0.1-0.8-0.3-1.2-0.5
	c-2.2-1-4-2.7-5.1-4.8c-0.5-0.9-0.9-2-1.1-3c-0.3-1.2-0.3-2.4-0.1-3.6c0.1-1.1,0.5-2.2,0.9-3.2C2.7,5.1,3.5,4,4.4,3.1
	c0.9-0.9,2.1-1.7,3.3-2.2C9,0.3,10.4,0,11.8,0c1.4,0,2.8,0.2,4.1,0.8c1.3,0.5,2.4,1.2,3.4,2.2c1,0.9,1.8,2,2.3,3.1
	c0.5,1,0.8,2.1,1,3.2c0.2,1.1,0.2,2.3,0,3.4c-0.2,1.1-0.5,2.1-1,3.1c-1.1,2.1-2.8,3.9-4.9,4.9C16.3,20.9,15.8,21.1,15.2,21.3
	C15.2,21.3,15.2,21.3,15.2,21.3z M15.7,17l0-0.5c0-0.3,0-0.6,0-0.9c0-0.1,0-0.2-0.1-0.3c0.6-0.5,1-1,1.4-1.7c0.3-0.5,0.5-1,0.6-1.6
	c0.1-0.6,0.1-1.2,0.1-1.9c-0.1-0.6-0.2-1.1-0.5-1.6c-0.3-0.6-0.7-1.2-1.2-1.7c-0.5-0.5-1.1-0.9-1.7-1.2c-0.7-0.3-1.4-0.5-2.2-0.5
	c-0.8,0-1.5,0.1-2.2,0.4C9.2,5.9,8.6,6.3,8.1,6.7c-0.5,0.5-0.9,1-1.2,1.6c-0.3,0.5-0.4,1-0.5,1.6c-0.1,0.6-0.1,1.2,0,1.7
	c0.1,0.6,0.2,1.1,0.5,1.6c0.3,0.8,0.9,1.4,1.5,2l-0.1,0.4c-0.1,0.3,0,0.6,0,0.9v0.4c-1.1-0.6-1.9-1.6-2.5-2.7
	c-0.3-0.6-0.6-1.3-0.7-2c-0.2-0.8-0.2-1.6-0.1-2.3c0.1-0.7,0.3-1.4,0.6-2c0.3-0.8,0.9-1.5,1.5-2.1c0.6-0.6,1.3-1.1,2.1-1.5
	c0.9-0.4,1.8-0.6,2.8-0.6c1,0,1.9,0.2,2.8,0.5c0.8,0.3,1.6,0.8,2.2,1.4c0.6,0.6,1.2,1.3,1.6,2c0.3,0.6,0.6,1.3,0.7,2
	c0.1,0.7,0.1,1.5,0,2.2c-0.1,0.7-0.3,1.4-0.6,2c-0.6,1.3-1.6,2.4-2.8,3.2C15.6,17.2,15.7,17,15.7,17z M11.9,7.5
	c1.5,0,2.7,1.2,2.7,2.7c0,1.5-1.2,2.7-2.7,2.7c-1.5,0-2.7-1.2-2.7-2.6S10.5,7.5,11.9,7.5L11.9,7.5z"/>
</svg>
