<svg xmlns="http://www.w3.org/2000/svg" width="20" height="20" viewBox="0 0 20 20">
  <g id="folder" transform="translate(-3 -3)">
    <path id="Path_5566" data-name="Path 5566" d="M21.462,6.077H13.769a1.539,1.539,0,0,1-1.231-.615L11.154,3.615A1.538,1.538,0,0,0,9.923,3H4.538A1.538,1.538,0,0,0,3,4.538V21.462A1.538,1.538,0,0,0,4.538,23H21.462A1.538,1.538,0,0,0,23,21.462V7.615A1.538,1.538,0,0,0,21.462,6.077ZM16.07,18.747a4.038,4.038,0,0,0-3.07-1.5,4.038,4.038,0,0,0-3.07,1.5,4.615,4.615,0,1,1,6.141,0Z" transform="translate(0 0)" fill="#7f7df8"/>
    <circle id="Ellipse_1" data-name="Ellipse 1" cx="1.82" cy="1.82" r="1.82" transform="translate(11.18 13.278)" fill="#7d7bfa"/>
  </g>
</svg>
