<svg xmlns="http://www.w3.org/2000/svg" width="20.127" height="15.095" viewBox="0 0 20.127 15.095">
  <g id="financial" transform="translate(0 0)">
    <g id="Group_4127" data-name="Group 4127" transform="translate(0 0)">
      <g id="Group_4126" data-name="Group 4126">
        <path id="Path_6551" data-name="Path 6551" d="M302.441,71.548a3.774,3.774,0,1,0-3.774-3.774A3.778,3.778,0,0,0,302.441,71.548Zm-1.026-5.407.839-.419a.42.42,0,0,1,.607.375v3.354a.419.419,0,0,1-.839,0V66.775l-.232.116a.419.419,0,1,1-.375-.75Z" transform="translate(-297.828 -64)" fill="#de4343"/>
        <path id="Path_6552" data-name="Path 6552" d="M1.012,214.027l3.415-.683a.419.419,0,0,1,.5.411v6.709a.419.419,0,0,1-.419.419H1.882A1.264,1.264,0,0,1,.636,219.8l-.623-4.365A1.258,1.258,0,0,1,1.012,214.027Z" transform="translate(15.199 -207.465)" fill="#de4343"/>
        <path id="Path_6553" data-name="Path 6553" d="M131.247,247.846a11.042,11.042,0,0,1,2.2.386.424.424,0,0,1,.316.428c0,.008,0,.017,0,.025a1.915,1.915,0,0,0,.785,1.569,3.178,3.178,0,0,0,1.982.537,17.707,17.707,0,0,0,4.7-.893.436.436,0,0,0,.317-.485.421.421,0,0,0-.531-.326,17.281,17.281,0,0,1-4.481.865,2.3,2.3,0,0,1-1.481-.371,1.08,1.08,0,0,1-.448-.9,1.434,1.434,0,0,1,.022-.2c.159-1.158,1.683-1.571,3.249-1.889a7.186,7.186,0,0,0,1.792-.661,4.535,4.535,0,0,1,2.065-.605,7.755,7.755,0,0,1,1.009.069.42.42,0,0,1,.362.448,2,2,0,0,0,.012.446l.623,4.366a1.016,1.016,0,0,0,.027.113l.022.084a.42.42,0,0,1-.236.483c-2,.893-4.658,1.957-6.013,1.957-1.626,0-4.975-1.646-7.19-2.735-.572-.281-1.046-.514-1.355-.65a.42.42,0,0,1-.259-.373C128.721,248.543,129.758,247.846,131.247,247.846Z" transform="translate(-128.732 -238.202)" fill="#de4343"/>
      </g>
    </g>
  </g>
</svg>
