<svg xmlns="http://www.w3.org/2000/svg" width="12.359" height="13.732" viewBox="0 0 12.359 13.732">
  <g id="calnder" transform="translate(-3 -2)">
    <g id="Calendar" transform="translate(3 2)">
      <path id="Fill-1" d="M4.083,2.633H8.3V1.651H4.083Zm-.959-.942v0a4.72,4.72,0,0,0-.972.194v0c-.022.009-.041.013-.059.023a.356.356,0,0,0-.074.027c-.069.023-.139.049-.2.077-.035.013-.069.031-.1.045l-.147.072L1.446,2.2c-.035.018-.065.04-.1.061a2.812,2.812,0,0,0-.49.4l-.009.009c-.052.061-.1.117-.152.176l-.009.009A3.638,3.638,0,0,0,0,5.168v.263H.956V5.165A2.161,2.161,0,0,1,2.145,2.918a3.256,3.256,0,0,1,.981-.244h.009V1.7Zm8.551,1.157,0-.009a2.08,2.08,0,0,0-.157-.176l-.005-.009a2.975,2.975,0,0,0-.494-.4c-.031-.018-.059-.041-.1-.061s-.078-.045-.122-.068-.1-.049-.147-.072c-.03-.013-.065-.031-.1-.045-.067-.027-.131-.054-.2-.077l-.074-.027c-.026-.009-.04-.014-.059-.023v0a4.774,4.774,0,0,0-.972-.194v.973a3.143,3.143,0,0,1,.967.244,1.808,1.808,0,0,1,.908.829A3.029,3.029,0,0,1,11.4,5.158v.273h.951V5.165a3.641,3.641,0,0,0-.679-2.316Z" transform="translate(0 -0.517)" fill="#3a3855" opacity="0.4"/>
      <path id="Fill-4" d="M13.049.492V2.656a.494.494,0,0,1-.989,0V.5A.494.494,0,0,1,13.049.49Z" transform="translate(-3.779 0)" fill="#3a3855"/>
      <path id="Fill-6" d="M5.489.5V2.661a.494.494,0,1,1-.989,0V.5a.494.494,0,1,1,.989,0" transform="translate(-1.41 -0.002)" fill="#3a3855"/>
      <path id="Fill-8" d="M12.359,7.156V12.48c0,2.322-1.3,3.495-3.866,3.495H3.86C1.3,15.975,0,14.8,0,12.48H0V7.156ZM9.006,12.024a.576.576,0,0,0-.572.583.584.584,0,0,0,.572.583.584.584,0,0,0,0-1.167Zm-2.823-.006a.587.587,0,0,0,0,1.173.576.576,0,0,0,.566-.59.587.587,0,0,0-.566-.583Zm-2.829,0a.587.587,0,0,0,0,1.173.587.587,0,0,0,0-1.173ZM9.006,9.532a.584.584,0,1,0,.566.583A.571.571,0,0,0,9.006,9.532ZM6.183,9.526a.587.587,0,0,0,0,1.173.576.576,0,0,0,.566-.59.583.583,0,0,0-.566-.583Zm-2.823,0a.581.581,0,0,0-.572.59.566.566,0,1,0,.572-.59Z" transform="translate(0 -2.242)" fill="#3a3855"/>
    </g>
  </g>
</svg>
