<svg xmlns="http://www.w3.org/2000/svg" width="22" height="22" viewBox="0 0 22 22">
  <path id="question-help" d="M14.753,4.308a11,11,0,1,1-11,11A11.012,11.012,0,0,1,14.753,4.308ZM13.411,21.366a1.132,1.132,0,0,0,.4.843,1.482,1.482,0,0,0,1.046.367,1.6,1.6,0,0,0,1.087-.364,1.1,1.1,0,0,0,.427-.846v-.541a1.107,1.107,0,0,0-.427-.846,1.6,1.6,0,0,0-1.087-.363,1.486,1.486,0,0,0-1.046.367,1.13,1.13,0,0,0-.4.842Zm-2.98-8.1a3.28,3.28,0,0,0,.662.892,5.663,5.663,0,0,0,.844.659,7.348,7.348,0,0,1,.8.588,3.043,3.043,0,0,1,.6.676,1.585,1.585,0,0,1,.226.869v.34a1.079,1.079,0,0,0,.329.7,1.2,1.2,0,0,0,.877.39l.074,0a1.249,1.249,0,0,0,.886-.312,1,1,0,0,0,.358-.742,4.292,4.292,0,0,0-.261-1.6,4.232,4.232,0,0,0-.633-1.1,4.46,4.46,0,0,0-.829-.788c-.288-.209-.556-.416-.793-.613a3.814,3.814,0,0,1-.586-.606,1.152,1.152,0,0,1-.219-.719,1.279,1.279,0,0,1,.4-1.044,1.676,1.676,0,0,1,1.113-.345,4.639,4.639,0,0,1,.794.058,2.12,2.12,0,0,1,.579.187,1.841,1.841,0,0,1,.48.352,4.771,4.771,0,0,1,.485.582,1.346,1.346,0,0,0,.662.475,1.23,1.23,0,0,0,.968-.086.972.972,0,0,0,.561-.6,1.371,1.371,0,0,0,0-.7,2.331,2.331,0,0,0-.371-.758,3.723,3.723,0,0,0-.855-.867,5.258,5.258,0,0,0-1.371-.712,5.777,5.777,0,0,0-1.953-.3,4.906,4.906,0,0,0-1.9.332,3.488,3.488,0,0,0-1.276.88,3.421,3.421,0,0,0-.7,1.235,4.642,4.642,0,0,0-.217,1.407A2.756,2.756,0,0,0,10.432,13.264Z" transform="translate(-3.753 -4.308)" fill="#7f75f8"/>
</svg>
