<svg xmlns="http://www.w3.org/2000/svg" width="18" height="18" viewBox="0 0 18 18">
  <path id="question" d="M12.753,4.308a9,9,0,1,0,9,9A9.01,9.01,0,0,0,12.753,4.308Zm1.1,13.956a.926.926,0,0,1-.328.69,1.213,1.213,0,0,1-.856.3,1.309,1.309,0,0,1-.889-.3.9.9,0,0,1-.349-.692v-.442a.905.905,0,0,1,.349-.692,1.312,1.312,0,0,1,.889-.3,1.216,1.216,0,0,1,.856.3.925.925,0,0,1,.328.689Zm2.438-6.628a2.683,2.683,0,0,1-.541.73,4.633,4.633,0,0,1-.691.539,6.011,6.011,0,0,0-.658.481,2.49,2.49,0,0,0-.492.553,1.3,1.3,0,0,0-.185.711v.278a.883.883,0,0,1-.269.575.984.984,0,0,1-.718.319h-.061a1.022,1.022,0,0,1-.725-.255.821.821,0,0,1-.293-.607,3.512,3.512,0,0,1,.214-1.307,3.463,3.463,0,0,1,.518-.9,3.649,3.649,0,0,1,.678-.645c.236-.171.455-.34.649-.5a3.12,3.12,0,0,0,.48-.5.942.942,0,0,0,.179-.588,1.046,1.046,0,0,0-.325-.854,1.371,1.371,0,0,0-.91-.282,3.8,3.8,0,0,0-.65.047,1.734,1.734,0,0,0-.474.153,1.507,1.507,0,0,0-.393.288,3.9,3.9,0,0,0-.4.476,1.1,1.1,0,0,1-.542.389,1.007,1.007,0,0,1-.792-.07.8.8,0,0,1-.459-.49,1.121,1.121,0,0,1,0-.57,1.907,1.907,0,0,1,.3-.62,3.046,3.046,0,0,1,.7-.71A4.3,4.3,0,0,1,11.559,7.7a4.727,4.727,0,0,1,1.6-.244,4.014,4.014,0,0,1,1.555.272,2.854,2.854,0,0,1,1.044.72,2.8,2.8,0,0,1,.574,1.011,3.8,3.8,0,0,1,.178,1.151A2.255,2.255,0,0,1,16.289,11.636Z" transform="translate(-3.753 -4.308)" fill="#7f7bf8"/>
</svg>
