<svg xmlns="http://www.w3.org/2000/svg" width="52" height="51" viewBox="0 0 52 51">
  <g id="Group_3325" data-name="Group 3325" transform="translate(0.094 -0.21)">
    <g id="bad" transform="translate(6.856 6.856)">
      <ellipse id="Ellipse_495" data-name="Ellipse 495" cx="19" cy="18.5" rx="19" ry="18.5" transform="translate(0.05 0.354)" fill="#ffca28"/>
      <g id="Group_3321" data-name="Group 3321" transform="translate(7.07 15.319)">
        <path id="Path_6545" data-name="Path 6545" d="M292.714,213.892A4.718,4.718,0,0,1,288,209.178a1.178,1.178,0,1,1,2.357,0,2.357,2.357,0,1,0,4.714,0,1.178,1.178,0,0,1,2.357,0A4.718,4.718,0,0,1,292.714,213.892Z" transform="translate(-273.859 -208)" fill="#6d4c41"/>
        <path id="Path_6546" data-name="Path 6546" d="M100.714,213.892A4.718,4.718,0,0,1,96,209.178a1.178,1.178,0,1,1,2.357,0,2.357,2.357,0,0,0,4.714,0,1.178,1.178,0,1,1,2.357,0A4.718,4.718,0,0,1,100.714,213.892Z" transform="translate(-96 -208)" fill="#6d4c41"/>
        <path id="Path_6547" data-name="Path 6547" d="M154.346,357.463a1.184,1.184,0,0,1-.834-.344,9.65,9.65,0,0,0-13.332,0,1.178,1.178,0,1,1-1.666-1.666,11.781,11.781,0,0,1,16.665,0,1.177,1.177,0,0,1-.832,2.01Z" transform="translate(-135.062 -341.394)" fill="#6d4c41"/>
      </g>
      <path id="Path_6548" data-name="Path 6548" d="M53.741,1.157a1.227,1.227,0,0,0-2.055,0C51.071,2.253,48,7.831,48,9.983a4.714,4.714,0,0,0,9.427,0C57.427,7.831,54.356,2.253,53.741,1.157Z" transform="translate(-44.465 -0.556)" fill="#03a9f4"/>
    </g>
  </g>
</svg>
