<svg xmlns="http://www.w3.org/2000/svg" width="51" height="51" viewBox="0 0 51 51">
  <g id="Group_3324" data-name="Group 3324" transform="translate(-0.058 -0.21)">
    <g id="nope" transform="translate(6.856 6.856)">
      <ellipse id="Ellipse_492" data-name="Ellipse 492" cx="19" cy="18.5" rx="19" ry="18.5" transform="translate(0.202 0.354)" fill="#ffca28"/>
      <g id="Group_3320" data-name="Group 3320" transform="translate(9.427 11.784)">
        <path id="Path_6544" data-name="Path 6544" d="M154.346,325.463a1.184,1.184,0,0,1-.834-.344,9.65,9.65,0,0,0-13.332,0,1.178,1.178,0,1,1-1.666-1.666,11.781,11.781,0,0,1,16.665,0,1.179,1.179,0,0,1,0,1.666A1.164,1.164,0,0,1,154.346,325.463Z" transform="translate(-137.419 -308.216)" fill="#6d4c41"/>
        <circle id="Ellipse_493" data-name="Ellipse 493" cx="2.357" cy="2.357" r="2.357" fill="#6d4c41"/>
        <circle id="Ellipse_494" data-name="Ellipse 494" cx="2.357" cy="2.357" r="2.357" transform="translate(14.141)" fill="#6d4c41"/>
      </g>
    </g>
  </g>
</svg>
