<svg xmlns="http://www.w3.org/2000/svg" width="148" height="171" viewBox="0 0 148 171">
  <g id="Group_4689" data-name="Group 4689" transform="translate(-3633.297 -4698.254)">
    <path id="Path_8329" data-name="Path 8329" d="M3849.03,4845.034s-4.707.923-5.6,1.026-5.155-1.845-5.155-3.28,9.862-4.3,13.447-4.714,11.879,5.124,14.792,6.354.672,46.325-1.569,48.169-26,12.3-29.36,11.889-18.826-12.708-19.723-14.144-3.137-45.915-1.793-47.76,29.359-16.4,30.7-16.6c1.905-.282,10.758,0,11.655-.616s-2.615-8.814-2.615-8.814-5.945-2.836-6.35-3.792c-.868-2.05-1.989-21.907-.672-22.855s14.68-.307,14.875.739,3.027,16.992,6.571,21.912,18.126,12.766,20.577,15.168c3.138,3.075,7.328,42.187-.224,50.015-6.724,6.969-22.462,10.153-22.462,10.153" transform="translate(-112.066 -56.917)" fill="#fff"/>
    <path id="Path_8330" data-name="Path 8330" d="M3932.45,4792.643s-4.929,2.135-5.5,2.925c-.836,1.164,1.062,15.227,2.408,17.133,1.633,2.314,17.938,22.991,17.77,25.6s-15.946,4.871-15.946,4.871,4.1.689,6.113,3.251-1.345,44.377-1.345,44.377,17.482-5.688,22.319-10.028c7.131-6.4,5.733-42.679,1.325-51.055-4.287-8.146-16.165-9.327-20.577-15.168S3932.45,4792.643,3932.45,4792.643Z" transform="translate(-182.853 -59.003)" fill="#ddd"/>
    <path id="Path_8331" data-name="Path 8331" d="M3899.869,4938.112c-2.412-2.421-24.875,7.764-27.984,7.687-2.184-.054-3.193-1-3.866.04s-2.187,50.32-1.076,50.808,2.857,1.412,4.1.665,26.254-9.746,27.007-11.9,2.311-19.318,2.632-26.928S3901.309,4939.557,3899.869,4938.112Z" transform="translate(-145.358 -149.739)" fill="#ddd"/>
    <path id="Path_8332" data-name="Path 8332" d="M3847.877,4844.283l-3.864.747-.972.175-.492.082-.256.038a1.371,1.371,0,0,1-.173.012c-.065,0-.113,0-.17-.008a5.013,5.013,0,0,1-1.05-.271c-.324-.115-.637-.245-.946-.386a12.244,12.244,0,0,1-1.781-.993,6.492,6.492,0,0,1-.824-.658,2.627,2.627,0,0,1-.686-.965,1.388,1.388,0,0,1-.074-.363.9.9,0,0,1,.1-.466,1.7,1.7,0,0,1,.1-.175l.11-.127a2,2,0,0,1,.223-.21,5.768,5.768,0,0,1,.9-.584,18.352,18.352,0,0,1,1.836-.836,57.374,57.374,0,0,1,7.579-2.321c.645-.15,1.292-.29,1.95-.407.328-.06.661-.111,1-.153a4.865,4.865,0,0,1,1.093,0,14.736,14.736,0,0,1,3.9,1.167c2.45,1.046,4.751,2.334,7.049,3.59.574.313,1.147.627,1.721.926.287.149.574.3.86.432q.215.1.427.194l.053.023c.027.013.075.041.112.063a1.155,1.155,0,0,1,.209.156,1.693,1.693,0,0,1,.233.3,4.049,4.049,0,0,1,.409,1.067c.091.341.154.675.212,1.009.113.667.19,1.329.255,1.99.243,2.642.306,5.272.333,7.9s-.016,5.255-.083,7.879c-.14,5.25-.4,10.494-.812,15.732-.211,2.619-.454,5.237-.812,7.855a29.863,29.863,0,0,1-.756,3.957c-.047.168-.111.343-.179.522a2.128,2.128,0,0,1-.355.616,1.349,1.349,0,0,1-.281.247c-.077.055-.162.122-.234.164-.148.091-.3.192-.444.275-.587.348-1.173.649-1.762.957-2.355,1.2-4.741,2.3-7.14,3.371s-4.814,2.105-7.246,3.1-4.882,1.953-7.384,2.812a36.681,36.681,0,0,1-3.85,1.131l-.517.1c-.173.031-.367.044-.55.066a3.679,3.679,0,0,1-.636-.012,3.785,3.785,0,0,1-.591-.146,11.978,11.978,0,0,1-1.909-.869,68.881,68.881,0,0,1-6.64-4.367q-3.2-2.323-6.27-4.8c-1.025-.828-2.042-1.663-3.04-2.54a19.851,19.851,0,0,1-1.491-1.415,2.483,2.483,0,0,1-.212-.266,1,1,0,0,1-.125-.234.737.737,0,0,1-.04-.111l-.023-.083a5.505,5.505,0,0,1-.117-.556c-.057-.343-.1-.676-.142-1.007-.3-2.639-.482-5.249-.666-7.871-.351-5.237-.621-10.475-.845-15.717s-.4-10.484-.421-15.744c0-1.316.006-2.632.054-3.96.026-.665.058-1.327.137-2.019.019-.172.046-.353.079-.538.024-.1.034-.185.07-.3l.055-.175a1.575,1.575,0,0,1,.123-.25,2.488,2.488,0,0,1,.5-.513c.146-.12.292-.234.431-.328,1.124-.791,2.25-1.452,3.388-2.124s2.281-1.314,3.427-1.956c4.588-2.559,9.225-5.012,13.89-7.417,2.334-1.2,4.671-2.39,7.046-3.534.6-.283,1.188-.566,1.817-.835l.251-.1.126-.05c.05-.018.128-.041.191-.058a1.739,1.739,0,0,1,.191-.045l.14-.018c.1-.012.178-.017.268-.026.348-.028.682-.043,1.016-.056,1.329-.045,2.638-.052,3.947-.07s2.614-.036,3.9-.1a15.189,15.189,0,0,0,1.85-.175c.062-.013.127-.027.174-.041l.055-.018c.006,0-.02.005-.023.015a.376.376,0,0,0-.148.158.1.1,0,0,0-.028.066c0-.022.008-.024,0-.086a4.067,4.067,0,0,0-.108-.8,30.514,30.514,0,0,0-1.15-3.647c-.45-1.214-.934-2.429-1.436-3.62l.351.366c-1.617-.789-3.2-1.592-4.767-2.532a13.389,13.389,0,0,1-1.171-.787,3.159,3.159,0,0,1-.628-.611,1.718,1.718,0,0,1-.228-.512c-.039-.131-.068-.251-.094-.37-.2-.936-.3-1.815-.4-2.712-.375-3.565-.572-7.118-.682-10.686-.048-1.785-.073-3.569-.018-5.368a24.1,24.1,0,0,1,.213-2.741,5.386,5.386,0,0,1,.161-.745,2.137,2.137,0,0,1,.195-.462c.032-.051.067-.1.1-.15a1.446,1.446,0,0,1,.193-.184c.05-.034.1-.065.151-.094l.127-.061a3.8,3.8,0,0,1,.8-.215c.242-.042.476-.071.708-.1a44.151,44.151,0,0,1,5.418-.086c1.792.066,3.577.179,5.374.4.45.057.9.123,1.357.209.229.043.459.092.7.154a3.605,3.605,0,0,1,.781.285,1.326,1.326,0,0,1,.284.2.745.745,0,0,1,.093.1.734.734,0,0,1,.093.144,1.059,1.059,0,0,1,.076.216l.009.047.06.329.121.652.251,1.3c.344,1.735.706,3.466,1.1,5.188a82.35,82.35,0,0,0,2.916,10.144,16.144,16.144,0,0,0,2.372,4.5,26.322,26.322,0,0,0,3.82,3.487c2.794,2.132,5.756,4.076,8.736,6,1.49.963,2.99,1.913,4.477,2.9.744.495,1.484,1,2.214,1.554.183.126.365.3.547.451l.273.24a2.525,2.525,0,0,1,.278.345,6.513,6.513,0,0,1,.642,1.325,22.978,22.978,0,0,1,.771,2.623c.21.876.392,1.754.557,2.635.328,1.76.593,3.526.818,5.3a129.813,129.813,0,0,1,.962,21.353,57.326,57.326,0,0,1-1.332,10.65,18.524,18.524,0,0,1-1.938,5.093,8.387,8.387,0,0,1-.825,1.14l-.238.266c-.082.083-.167.156-.25.234l-.5.463a21.447,21.447,0,0,1-2.112,1.712,34.873,34.873,0,0,1-4.659,2.709,52.979,52.979,0,0,1-4.934,2.109,75.387,75.387,0,0,1-10.279,2.994.369.369,0,0,1-.157-.722l.01,0a74.606,74.606,0,0,0,10.14-3.028,52.07,52.07,0,0,0,4.843-2.11,34.048,34.048,0,0,0,4.523-2.668,20.619,20.619,0,0,0,2.011-1.654l.474-.442c.078-.074.16-.147.235-.222l.2-.232a7.628,7.628,0,0,0,.727-1.021,17.672,17.672,0,0,0,1.8-4.841,56.411,56.411,0,0,0,1.234-10.47c.134-3.529.072-7.069-.114-10.6s-.5-7.059-.956-10.562c-.23-1.752-.5-3.5-.828-5.228a33.576,33.576,0,0,0-1.293-5.055,5.469,5.469,0,0,0-.513-1.067,1.536,1.536,0,0,0-.136-.175l-.23-.2c-.159-.131-.3-.268-.481-.394-.684-.517-1.415-1.011-2.151-1.5-1.473-.973-2.977-1.917-4.473-2.876-2.995-1.914-5.984-3.859-8.847-6.025a27.339,27.339,0,0,1-4.04-3.671l-.45-.545c-.131-.2-.253-.4-.38-.6s-.258-.4-.369-.6l-.311-.615-.311-.616-.268-.626c-.175-.418-.367-.833-.514-1.257a83.741,83.741,0,0,1-3.009-10.306q-.611-2.605-1.128-5.229l-.255-1.313-.123-.657-.06-.326-.007-.034a.417.417,0,0,0,.046.138.6.6,0,0,0,.046.076.346.346,0,0,0,.039.043c.032.03.027.021.011.014a2.5,2.5,0,0,0-.47-.16c-.192-.05-.4-.093-.6-.132-.416-.078-.844-.141-1.275-.195-1.728-.213-3.491-.323-5.247-.385a43.033,43.033,0,0,0-5.227.087c-.209.022-.416.049-.611.083a2.63,2.63,0,0,0-.488.123.126.126,0,0,1-.023.01.011.011,0,0,0,.01-.006.206.206,0,0,0,.073-.067.02.02,0,0,0,.01-.012.98.98,0,0,0-.056.152,4.148,4.148,0,0,0-.117.556,23,23,0,0,0-.193,2.568c-.051,1.75-.025,3.518.026,5.284.114,3.529.316,7.072.689,10.571.1.866.2,1.754.376,2.556.022.1.045.193.07.275s.062.155.029.1a2.247,2.247,0,0,0,.335.3,12.374,12.374,0,0,0,1.04.695c1.48.888,3.068,1.691,4.643,2.455l.007,0a.711.711,0,0,1,.344.363c.518,1.222,1.006,2.442,1.468,3.684a31.54,31.54,0,0,1,1.213,3.844,5.233,5.233,0,0,1,.142,1.144,2.015,2.015,0,0,1-.047.4,1.871,1.871,0,0,1-.117.295,1.176,1.176,0,0,1-.313.337,1.848,1.848,0,0,1-.243.124l-.178.06c-.11.032-.205.053-.3.074a16.436,16.436,0,0,1-2.059.2c-1.33.067-2.644.085-3.957.1s-2.622.029-3.912.075c-.321.013-.641.028-.946.054a1.658,1.658,0,0,0-.721.189c-.576.247-1.168.531-1.753.809-2.345,1.134-4.677,2.326-7,3.525q-6.971,3.607-13.843,7.4-1.711.957-3.4,1.938c-1.118.657-2.253,1.328-3.273,2.044-.133.089-.244.178-.352.266-.129.093-.174.161-.2.172.012,0,.024-.052.018-.03l-.018.061c-.014.038-.026.119-.04.176-.024.136-.048.28-.064.435-.071.609-.1,1.257-.13,1.9-.048,1.292-.058,2.6-.057,3.9.017,5.221.194,10.457.4,15.687s.483,10.461.827,15.681c.18,2.606.356,5.227.65,7.793.038.319.081.637.131.94.025.147.055.306.083.406l.01.036c0,.019.006.023,0,0s-.036-.048-.01-.019a1.472,1.472,0,0,0,.1.116c.383.417.885.864,1.361,1.287.97.854,1.977,1.684,2.99,2.5q3.045,2.454,6.208,4.762a67.88,67.88,0,0,0,6.482,4.275,10.678,10.678,0,0,0,1.659.764,2.325,2.325,0,0,0,.36.094,1.045,1.045,0,0,0,.165.006.859.859,0,0,0,.178,0c.142-.019.276-.024.426-.051l.449-.084a36.779,36.779,0,0,0,3.69-1.078c2.459-.834,4.9-1.782,7.317-2.758s4.828-2,7.217-3.059,4.769-2.145,7.087-3.316c.573-.3,1.154-.593,1.7-.912.139-.078.26-.161.392-.24.07-.041.112-.079.169-.117s.127-.093.091-.071a1.3,1.3,0,0,0,.12-.238c.048-.127.1-.259.14-.407a28.971,28.971,0,0,0,.726-3.757c.36-2.573.611-5.176.83-7.778q.64-7.813.863-15.663c.076-2.614.12-5.228.11-7.84s-.059-5.225-.281-7.8c-.059-.643-.13-1.284-.232-1.909-.052-.312-.109-.623-.186-.915a3.076,3.076,0,0,0-.276-.769c-.027-.062-.046-.055-.06-.089-.007-.01,0,.014.012.011s.018,0,.009,0l-.059-.026q-.239-.1-.466-.215c-.305-.147-.6-.3-.894-.455-.585-.311-1.161-.629-1.734-.948-2.291-1.271-4.564-2.561-6.931-3.588a13.871,13.871,0,0,0-3.6-1.114,3.855,3.855,0,0,0-.867-.012c-.312.037-.628.083-.945.139-.633.109-1.267.241-1.9.385a56.272,56.272,0,0,0-7.456,2.231,17.343,17.343,0,0,0-1.744.779,4.932,4.932,0,0,0-.75.476,1,1,0,0,0-.135.125l-.053.056c-.012.017-.011.026-.021.037l-.011.013a.018.018,0,0,0,.009-.011c0-.01-.01-.026,0,0a.491.491,0,0,0,.023.117,1.807,1.807,0,0,0,.454.615,5.727,5.727,0,0,0,.707.57,11.4,11.4,0,0,0,1.642.928c.287.133.578.256.871.362a4.36,4.36,0,0,0,.846.231c.024,0,.058.005.075,0a.387.387,0,0,0,.071-.005l.23-.032.478-.077.963-.167,3.858-.72h.005a.417.417,0,0,1,.156.82Z" transform="translate(-110.833 -55.756)" fill="#3b3b56"/>
    <path id="Path_8333" data-name="Path 8333" d="M3888.539,4966.789q-5.128,2.3-10.352,4.367c-3.483,1.381-6.994,2.692-10.561,3.881-.9.288-1.792.576-2.7.839s-1.818.523-2.763.723a13.7,13.7,0,0,1-1.466.241,5.089,5.089,0,0,1-1.609-.126l-.732-.2-.69-.244c-.463-.161-.892-.366-1.339-.547a54.264,54.264,0,0,1-5.018-2.641c-1.616-.965-3.212-1.949-4.764-3.016a.369.369,0,0,1,.39-.626l.005,0c1.619.915,3.246,1.833,4.9,2.681s3.313,1.686,5,2.392c.426.156.848.343,1.274.474l.636.209.627.153a3.658,3.658,0,0,0,1.173.074,12.669,12.669,0,0,0,1.3-.242c1.766-.413,3.544-.99,5.305-1.571,3.531-1.171,7.037-2.457,10.544-3.735l10.521-3.866a.418.418,0,0,1,.317.773Z" transform="translate(-132.75 -167.476)" fill="#3b3b56"/>
    <path id="Path_8334" data-name="Path 8334" d="M3887.66,5005.03q-5.095,2.358-10.289,4.472c-3.464,1.415-6.955,2.76-10.51,3.973a55.962,55.962,0,0,1-5.454,1.588l-.722.135c-.256.03-.492.074-.77.085-.138,0-.277.012-.414.01l-.4-.048-.4-.052-.365-.09a17.921,17.921,0,0,1-2.748-.951,75.934,75.934,0,0,1-9.931-5.339.37.37,0,0,1,.363-.643l.008,0c1.65.854,3.3,1.714,4.984,2.509s3.36,1.581,5.067,2.25a18.836,18.836,0,0,0,2.562.814l.316.073.294.029.294.033c.1,0,.19-.011.284-.015.189-.009.414-.055.62-.082l.652-.135c1.758-.414,3.53-1,5.282-1.593,3.515-1.195,7-2.514,10.491-3.826l10.463-3.971a.418.418,0,0,1,.326.769Z" transform="translate(-132.185 -191.398)" fill="#3b3b56"/>
    <path id="Path_8335" data-name="Path 8335" d="M3887.986,5037.25q-4.9,2.446-9.92,4.644c-3.344,1.47-6.719,2.869-10.163,4.135a51.963,51.963,0,0,1-5.3,1.659,12.3,12.3,0,0,1-1.444.246,3.511,3.511,0,0,1-.808-.018,4.5,4.5,0,0,1-.766-.135,15.441,15.441,0,0,1-2.684-.985,51.028,51.028,0,0,1-4.864-2.633c-1.563-.963-3.1-1.944-4.6-3.009a.37.37,0,0,1,.4-.622l.006,0c1.564.914,3.138,1.83,4.74,2.675s3.208,1.681,4.848,2.382c.412.159.823.338,1.237.474l.617.207c.2.06.407.1.61.154a3.186,3.186,0,0,0,.579.091,2.216,2.216,0,0,0,.554.005,11.041,11.041,0,0,0,1.244-.242,53.147,53.147,0,0,0,5.118-1.658c3.4-1.244,6.771-2.617,10.142-3.985l10.105-4.147h0a.418.418,0,0,1,.345.76Z" transform="translate(-133.318 -211.555)" fill="#3b3b56"/>
    <path id="Path_8336" data-name="Path 8336" d="M3660.912,4812.4l7.129,13.065a1.377,1.377,0,0,0,.963.7l14.477,2.639a1.378,1.378,0,0,1,.765,2.291l-10.106,10.942a1.376,1.376,0,0,0-.355,1.106l1.828,14.507a1.378,1.378,0,0,1-1.94,1.425l-13.4-6.132a1.376,1.376,0,0,0-1.147,0l-13.4,6.132a1.378,1.378,0,0,1-1.941-1.425l1.828-14.507a1.378,1.378,0,0,0-.355-1.106l-10.106-10.942a1.378,1.378,0,0,1,.765-2.291l14.477-2.639a1.377,1.377,0,0,0,.962-.7l7.129-13.065A1.378,1.378,0,0,1,3660.912,4812.4Z" transform="translate(-0.936 -70.937)" fill="#fdc54f"/>
    <path id="Path_8337" data-name="Path 8337" d="M3675.754,4824.589a.95.95,0,0,0,.571-.38,1.1,1.1,0,0,0,.094-.162l.116-.227.233-.454.943-1.809,1.886-3.618,1.912-3.6.957-1.8.478-.9.24-.45.119-.226c.015-.031.048-.086.083-.141l.1-.158a2.076,2.076,0,0,1,2.74-.53,2.089,2.089,0,0,1,.57.518l.1.159c.036.056.068.109.084.141l.123.224.491.893,1.965,3.574,3.93,7.148.484.9.121.225.04.072c.011.017.021.033.033.049a.621.621,0,0,0,.173.158.628.628,0,0,0,.22.087l.5.094,1,.188,4.009.75c2.672.506,5.348.987,8.015,1.519l.5.1.25.049c.092.02.144.023.281.061a1.982,1.982,0,0,1,1.194.834,2.016,2.016,0,0,1,.314,1.406,1.866,1.866,0,0,1-.243.694,1.652,1.652,0,0,1-.211.3c-.087.108-.127.14-.19.21l-2.807,2.96c-1.89,1.957-3.761,3.929-5.667,5.871a.37.37,0,0,1-.543-.5c1.785-2.053,3.6-4.075,5.4-6.113l2.729-3.032a1.98,1.98,0,0,0,.148-.172.552.552,0,0,0,.08-.119.66.66,0,0,0,.083-.264.779.779,0,0,0-.137-.534.714.714,0,0,0-.448-.29c-.027-.011-.144-.026-.219-.04l-.251-.043-.5-.085c-2.683-.444-5.357-.938-8.035-1.407l-4.016-.713-1-.178-.5-.09a2.13,2.13,0,0,1-.727-.274,2.106,2.106,0,0,1-.58-.52c-.04-.052-.077-.106-.113-.161l-.086-.149-.123-.223-.493-.893-3.885-7.173-1.942-3.587-.486-.9-.121-.225a.538.538,0,0,0-.047-.078l-.033-.056a.756.756,0,0,0-.178-.166.7.7,0,0,0-.915.149l-3.949,7.028-2.021,3.543-1.011,1.771-.256.441-.128.221a1.924,1.924,0,0,1-.178.269,1.81,1.81,0,0,1-1.127.664.417.417,0,0,1-.159-.819Z" transform="translate(-26.363 -69.787)" fill="#3b3b56"/>
    <path id="Path_8338" data-name="Path 8338" d="M3673.51,4866.862a.959.959,0,0,0-.224.471.939.939,0,0,0-.007.26l.05.359.217,1.509.42,3.02.839,6.04.405,3.021.051.377.025.189.018.269a1.965,1.965,0,0,1-.3,1.053,2.021,2.021,0,0,1-1.887.935,1.915,1.915,0,0,1-.539-.128c-.1-.036-.153-.062-.208-.087l-.174-.078-.7-.312-1.391-.624-2.781-1.248-5.557-2.51-2.751-1.251a.669.669,0,0,0-.359-.041.723.723,0,0,0-.179.057l-.346.159-1.385.638-11.077,5.1-.347.157c-.118.052-.209.1-.418.176a2.1,2.1,0,0,1-1.161.06,2.124,2.124,0,0,1-1.58-1.566,2.651,2.651,0,0,1-.01-1.022l.1-.755.2-1.512.781-6.046.771-5.989a.684.684,0,0,0-.086-.366.6.6,0,0,0-.052-.08.917.917,0,0,0-.082-.1l-.258-.281-1.03-1.125-2.049-2.256-4.1-4.514-2.049-2.257-.518-.574a1.91,1.91,0,0,1-.458-.959,1.946,1.946,0,0,1,.766-1.88,1.9,1.9,0,0,1,.471-.249,2.6,2.6,0,0,1,.461-.112l.752-.126,1.5-.253,3.006-.506,6.016-1a.369.369,0,0,1,.132.727l-5.981,1.188-2.992.587-1.5.294-.748.146a1.469,1.469,0,0,0-.276.072.8.8,0,0,0-.2.112.849.849,0,0,0-.309.808.778.778,0,0,0,.2.393l.513.549,2.087,2.221,4.175,4.444,2.088,2.222,1.039,1.115.26.279a2.415,2.415,0,0,1,.167.193,2,2,0,0,1,.157.238,2.061,2.061,0,0,1,.267,1.1l-.742,6.111-.743,6.051-.186,1.513-.093.756a1.2,1.2,0,0,0-.015.491.642.642,0,0,0,.481.466.619.619,0,0,0,.339-.022c.032-.008.169-.07.282-.124l.346-.16,11.1-5.052,1.387-.631.347-.158a2.142,2.142,0,0,1,.547-.167,2.1,2.1,0,0,1,1.136.135l2.793,1.284,5.531,2.566,2.762,1.29,1.381.645.69.322.173.081a1.463,1.463,0,0,0,.143.062.653.653,0,0,0,.2.052.766.766,0,0,0,.712-.341.72.72,0,0,0,.119-.392l-.005-.112-.022-.189-.045-.378-.357-3.028-.686-6.059-.343-3.029-.165-1.516-.042-.4a1.807,1.807,0,0,1,.49-1.37.417.417,0,0,1,.617.561Z" transform="translate(0 -95.478)" fill="#3b3b56"/>
    <path id="Path_8339" data-name="Path 8339" d="M3661.829,4958.186l7.789,8.778a1.09,1.09,0,0,0,.863.364l11.591-.533a1.087,1.087,0,0,1,.993,1.625l-5.83,10.194a1.088,1.088,0,0,0-.076.914l3.97,10.822a1.086,1.086,0,0,1-1.239,1.438l-11.378-2.342a1.081,1.081,0,0,0-.881.2l-9.208,7.081a1.086,1.086,0,0,1-1.743-.752l-1.162-11.47a1.082,1.082,0,0,0-.468-.787l-9.7-6.62a1.087,1.087,0,0,1,.182-1.9l10.657-4.588a1.086,1.086,0,0,0,.617-.705l3.166-11.3A1.086,1.086,0,0,1,3661.829,4958.186Z" transform="translate(-7.245 -162.346)" fill="#fdc54f"/>
    <path id="Path_8340" data-name="Path 8340" d="M3711.145,4980.735c2.068-.174,4.139-.3,6.208-.454l1.552-.1.388-.025.194-.012a2.6,2.6,0,0,1,.292.006,1.705,1.705,0,0,1,1.082.541,1.709,1.709,0,0,1,.369,1.736,1.97,1.97,0,0,1-.124.283l-.1.173-.756,1.36-3.043,5.428-1.538,2.705-.345.611a.345.345,0,0,0-.013.239l.524,1.422,2.119,5.85,1.045,2.931.131.366.065.184.032.092.042.14a1.743,1.743,0,0,1-.105,1.239,1.774,1.774,0,0,1-.886.851,1.712,1.712,0,0,1-.611.143,1.686,1.686,0,0,1-.311-.015l-.148-.023-.094-.021-6.073-1.361-3.03-.708-1.515-.354-.378-.092-.189-.046a.91.91,0,0,0-.135-.027.706.706,0,0,0-.479.119l-.009.007a.37.37,0,0,1-.441-.592,1.475,1.475,0,0,1,.977-.326,1.692,1.692,0,0,1,.25.029l.192.033.384.064,1.532.273,3.064.546,6.117,1.148.1.018.045,0a.4.4,0,0,0,.077,0,.368.368,0,0,0,.139-.04.429.429,0,0,0,.2-.212.387.387,0,0,0,.012-.277c-.006-.016,0-.015-.014-.045l-.034-.091-.069-.182-.137-.364-1.1-2.911-2.167-5.833-.545-1.5a1.837,1.837,0,0,1,.077-1.281c.022-.05.047-.1.073-.147l.053-.092.1-.168.194-.337,1.551-2.7,3.135-5.375.789-1.341.1-.164c.008-.025.03-.047.034-.072a.447.447,0,0,0,.03-.146.463.463,0,0,0-.108-.292.433.433,0,0,0-.27-.154c-.032,0-.047,0-.1-.006l-.194.006-.389.011-1.555.043c-2.074.039-4.148.1-6.223.118a.417.417,0,0,1-.039-.833Z" transform="translate(-44.544 -176.319)" fill="#3b3b56"/>
    <path id="Path_8341" data-name="Path 8341" d="M3664.488,4990.647l-3.764,3.009-1.886,1.5-.943.75-.236.188-.117.094c-.048.035-.12.085-.18.125a1.654,1.654,0,0,1-.884.241,1.685,1.685,0,0,1-1.484-.958,1.571,1.571,0,0,1-.138-.443l-.018-.109-.008-.075-.017-.149-.066-.6-.265-2.395-.531-4.789-.265-2.394-.064-.6-.031-.3-.016-.15a.413.413,0,0,0-.01-.053c-.051-.16-.065-.167-.493-.451l-3.987-2.705-3.987-2.7-1-.677-.249-.168a3.7,3.7,0,0,1-.3-.217,1.824,1.824,0,0,1-.124-2.7,2.224,2.224,0,0,1,.743-.462l.552-.239,8.865-3.776,1.089-.463a.384.384,0,0,0,.16-.136.362.362,0,0,0,.046-.1l.078-.269.659-2.317c.435-1.545.884-3.087,1.336-4.629l.675-2.313.338-1.156.169-.579a1.728,1.728,0,0,1,.469-.784,1.687,1.687,0,0,1,1.731-.359,1.55,1.55,0,0,1,.411.22,1.2,1.2,0,0,1,.176.148c.054.054.113.114.137.145l.4.454,1.578,1.82,3.136,3.659,1.567,1.829.779.919.18.212a.745.745,0,0,0,.15.122.712.712,0,0,0,.375.1h.007a.37.37,0,0,1,.027.738,1.474,1.474,0,0,1-.783-.17,1.5,1.5,0,0,1-.329-.24l-.222-.236-.82-.882-1.63-1.774-3.259-3.549-1.619-1.784-.4-.446a.651.651,0,0,0-.072-.072.248.248,0,0,0-.055-.044.369.369,0,0,0-.12-.06.5.5,0,0,0-.5.119.514.514,0,0,0-.13.243l-.156.582-.312,1.163-.625,2.327c-.415,1.551-.833,3.1-1.264,4.649l-.641,2.322-.087.31a1.769,1.769,0,0,1-.21.448,1.788,1.788,0,0,1-.739.643l-1.123.49-8.835,3.846a5.959,5.959,0,0,0-.838.385.346.346,0,0,0-.084.352.321.321,0,0,0,.1.151c0,.007.11.082.189.135l.248.17.993.682,3.972,2.727,3.972,2.726.248.171a2.2,2.2,0,0,1,.336.265,1.787,1.787,0,0,1,.481.855,1.764,1.764,0,0,1,.042.243l.015.15.03.3.058.6.22,2.4.439,4.8.22,2.4.055.6.014.15.007.075.006.039a.4.4,0,0,0,.037.13.512.512,0,0,0,.431.293.491.491,0,0,0,.265-.061l.069-.044.121-.089.241-.18.966-.719,1.933-1.438,3.874-2.865a.417.417,0,0,1,.509.661Z" transform="translate(-6.003 -161.356)" fill="#3b3b56"/>
    <path id="Path_8342" data-name="Path 8342" d="M3722.567,5069.567l8.049,4.124a.834.834,0,0,0,.721.02l8.173-3.625a.837.837,0,0,1,1.168.889l-1.333,8.951a.839.839,0,0,0,.2.678l5.88,6.66a.838.838,0,0,1-.487,1.38l-8.825,1.5a.839.839,0,0,0-.576.393l-4.63,7.661a.837.837,0,0,1-1.462-.052l-4.044-7.911a.837.837,0,0,0-.557-.435l-8.818-2.038a.837.837,0,0,1-.4-1.412l6.368-6.277a.833.833,0,0,0,.245-.678l-.888-9A.837.837,0,0,1,3722.567,5069.567Z" transform="translate(-51.159 -232.188)" fill="#fdc54f"/>
    <path id="Path_8343" data-name="Path 8343" d="M3723.879,5089.336a.407.407,0,0,0-.251-.183l-.6-.115-1.284-.257-2.567-.515-2.563-.535-1.28-.273-.32-.068-.159-.035-.08-.018a1,1,0,0,1-.107-.026,1.509,1.509,0,0,1-.918-.7,1.542,1.542,0,0,1-.156-1.147,1.568,1.568,0,0,1,.262-.539,4.142,4.142,0,0,1,.286-.308l.924-.927,1.849-1.854,1.859-1.843.93-.922a9.169,9.169,0,0,0,.646-.656l-.455-4.933-.229-2.608-.114-1.3-.013-.163-.006-.12c0-.049,0-.1,0-.146a1.576,1.576,0,0,1,.152-.571,1.522,1.522,0,0,1,.856-.752,1.481,1.481,0,0,1,1.135.068l.6.315,1.153.619,2.3,1.248,2.292,1.268,1.146.634.532.3a.466.466,0,0,0,.347.017l.015-.006a.369.369,0,0,1,.285.681,1.223,1.223,0,0,1-.928.05c-.038-.014-.076-.028-.112-.045l-.079-.036-.149-.068-.3-.138-1.184-.56-2.368-1.12-2.358-1.139-1.176-.574-.571-.278a.177.177,0,0,0-.138,0,.2.2,0,0,0-.1.1.267.267,0,0,0-.009.059l.025.224.143,1.3.285,2.6.271,2.6.134,1.3.067.65.033.325a1.574,1.574,0,0,1-.33,1.15,3.533,3.533,0,0,1-.291.3l-.467.459-.934.917-1.87,1.832-1.88,1.822-.94.91c-.217.206-.168.16-.2.206a.166.166,0,0,0,.008.118.146.146,0,0,0,.089.078l.607.152,1.27.316,2.538.644,2.533.664,1.266.333.316.086.158.043.079.021c.033.01.079.022.116.036a1.273,1.273,0,0,1,.719.646.417.417,0,0,1-.731.4Z" transform="translate(-50.035 -231.098)" fill="#3b3b56"/>
    <path id="Path_8344" data-name="Path 8344" d="M3752.794,5071.908q1.519-.735,3.046-1.451l1.526-.719.381-.179a1.8,1.8,0,0,1,.284-.108,1.479,1.479,0,0,1,.351-.049,1.42,1.42,0,0,1,1.2.65,1.389,1.389,0,0,1,.221.68.987.987,0,0,1,0,.178c0,.061-.01.123-.015.148l-.027.209-.111.836-.221,1.671-.456,3.342-.229,1.671-.118.835-.052.37a.124.124,0,0,0,.014.062l2.1,2.356,2.238,2.523,1.118,1.262.28.316a3.731,3.731,0,0,1,.342.419,1.582,1.582,0,0,1-.424,2.132,1.5,1.5,0,0,1-.354.187,1.081,1.081,0,0,1-.189.058l-.1.022-.058.01-.831.139-1.664.278-3.327.551-1.665.269-.833.134-.416.068-.062.009-.017,0a.152.152,0,0,0-.06.038c-.012.014,0,0-.052.079l-.221.359-.443.717-.891,1.432-1.785,2.862-.9,1.428-.449.713a1.463,1.463,0,0,1-.477.482,1.381,1.381,0,0,1-1.852-.393l-.086-.146c-.027-.048-.033-.068-.051-.1l-.091-.19-.183-.38-.73-1.521q-.735-1.518-1.449-3.046a.37.37,0,0,1,.658-.337q.819,1.476,1.621,2.959l.8,1.482.2.372.1.186c.015.026.037.071.047.083a.239.239,0,0,1,.023.034.3.3,0,0,0,.268.1.284.284,0,0,0,.231-.17l.423-.729.846-1.458,1.7-2.911.854-1.455.429-.726.215-.363a1.813,1.813,0,0,1,.185-.268,1.577,1.577,0,0,1,.285-.259,1.508,1.508,0,0,1,.34-.179,1.625,1.625,0,0,1,.184-.057l.146-.029.415-.074.83-.148,1.66-.3,3.322-.58,1.661-.289.831-.144c.014,0,.041-.007.045-.009l.007,0c.005,0,.01,0,.012,0a.041.041,0,0,0,.017-.009.085.085,0,0,0,.027-.034.08.08,0,0,0,0-.083c.025.025-.114-.135-.2-.229l-.278-.316-1.114-1.266-2.226-2.534-1.108-1.272-.554-.636-.277-.317-.16-.187a1.525,1.525,0,0,1-.2-.333,1.55,1.55,0,0,1-.128-.761l.011-.1.008-.055.016-.1.033-.208.13-.833.268-1.665.538-3.33.275-1.664.138-.832.034-.208a.447.447,0,0,0,.009-.061.071.071,0,0,0,0-.032.241.241,0,0,0-.027-.115.274.274,0,0,0-.212-.142.349.349,0,0,0-.067.005.475.475,0,0,0-.111.038l-.389.162-1.557.648q-1.555.653-3.12,1.285a.418.418,0,0,1-.338-.763Z" transform="translate(-69.629 -232.142)" fill="#3b3b56"/>
    <path id="Path_8345" data-name="Path 8345" d="M3753.2,4728.922l2.4,9.759a.93.93,0,0,0,.508.621l8.995,4.223a.93.93,0,0,1,.1,1.627l-8.486,5.4a.933.933,0,0,0-.423.661l-1.312,9.785a.931.931,0,0,1-1.513.6l-7.685-6.317a.932.932,0,0,0-.749-.2l-9.8,1.689a.93.93,0,0,1-1.021-1.266l3.7-9.154a.93.93,0,0,0-.041-.783l-4.707-8.888a.93.93,0,0,1,.895-1.363l9.906.777a.929.929,0,0,0,.748-.288l6.91-7.3A.93.93,0,0,1,3753.2,4728.922Z" transform="translate(-62.173 -18.75)" fill="#fdc54f"/>
    <path id="Path_8346" data-name="Path 8346" d="M3758.987,4759.115q1.889.825,3.77,1.669l1.882.841.941.42.471.21.118.053c.031.012.114.057.167.087a1.486,1.486,0,0,1,.328.259,1.521,1.521,0,0,1-.174,2.246c-.13.1-.18.125-.256.176l-.216.141-1.727,1.125-3.453,2.25-1.727,1.125-.867.557c-.127.083-.348.219-.328.215a.221.221,0,0,0-.062.1l-.524,3.986-.535,4.087-.134,1.021-.067.511-.016.127c-.007.047-.007.069-.024.158a1.643,1.643,0,0,1-.14.438,1.683,1.683,0,0,1-1.485.945,1.661,1.661,0,0,1-.891-.242q-.095-.064-.187-.132l-.1-.084-.2-.163-6.344-5.264-.793-.658-.2-.164-.045-.037a.176.176,0,0,0-.027-.016.234.234,0,0,0-.123-.024l-1.987.333c-1.355.231-2.711.448-4.068.663l-2.036.324-1.017.162-.509.082-.127.02c-.048.007-.069.014-.151.021a1.52,1.52,0,0,1-1.642-1.046,1.49,1.49,0,0,1-.027-.833c.019-.066.041-.131.064-.2l.051-.123.1-.238.8-1.9,1.621-3.791.811-1.9.411-.945.1-.222a.537.537,0,0,0,.037-.145.566.566,0,0,0-.05-.3l-.005-.01a.369.369,0,0,1,.657-.336,1.307,1.307,0,0,1,.094,1.053l-.095.257-.361.965-.733,1.927-1.468,3.852-.747,1.921-.094.24-.044.116a.355.355,0,0,1-.014.049.312.312,0,0,0,.014.182.325.325,0,0,0,.366.218s.067-.011.1-.018l.126-.023.507-.094,1.014-.188,2.027-.375c1.351-.252,2.7-.5,4.055-.737l2.075-.363a1.629,1.629,0,0,1,.879.15,1.66,1.66,0,0,1,.2.112,1.8,1.8,0,0,1,.16.12l.2.163.8.65,6.393,5.205.2.164.1.08a.059.059,0,0,1,.024.017.156.156,0,0,0,.09.026.2.2,0,0,0,.169-.1.172.172,0,0,0,.017-.051.742.742,0,0,0,.015-.1l.018-.128.07-.51.14-1.021.561-4.083.281-2.042.14-1.021.07-.511.035-.255.018-.131a1.638,1.638,0,0,1,.519-.983,1.6,1.6,0,0,1,.178-.14l.129-.083.218-.138.872-.549,1.751-1.087,3.5-2.172,1.751-1.087.219-.136c.068-.042.167-.1.172-.11a.306.306,0,0,0,.11-.137.345.345,0,0,0-.056-.352,3.757,3.757,0,0,0-.709-.382l-.924-.456-1.849-.911q-1.851-.907-3.692-1.834a.417.417,0,0,1,.354-.755Z" transform="translate(-63.014 -38.069)" fill="#3b3b56"/>
    <path id="Path_8347" data-name="Path 8347" d="M3735.4,4742.7c-.918-1.566-1.8-3.155-2.7-4.732l-.662-1.189-.33-.595-.166-.3c-.021-.033-.075-.149-.108-.227a1.738,1.738,0,0,1-.078-.276,1.581,1.581,0,0,1,1.108-1.8,1.667,1.667,0,0,1,.571-.062l.339.022.679.043,5.431.374,2.714.2.678.052.084,0a.2.2,0,0,0,.034,0,.19.19,0,0,0,.062-.026l.026-.022.094-.1.233-.247.467-.5,3.761-3.935,1.892-1.957.473-.49c.026-.028.114-.112.183-.171a1.778,1.778,0,0,1,.244-.167,1.6,1.6,0,0,1,1.672.081,1.588,1.588,0,0,1,.651.938c.412,1.778.8,3.542,1.194,5.317l.569,2.663.284,1.332.068.333.034.167a.713.713,0,0,0,.025.1.547.547,0,0,0,.253.3l.012.007a.369.369,0,0,1-.326.662,1.315,1.315,0,0,1-.669-.659,1.439,1.439,0,0,1-.079-.22l-.047-.163-.094-.328-.365-1.311-.729-2.624-1.4-5.255a.265.265,0,0,0-.3-.181.3.3,0,0,0-.079.032.426.426,0,0,0-.036.027c-.013.018-.012.007-.062.063l-.462.5-1.851,2-3.725,3.971-.468.493-.234.247-.142.146a1.72,1.72,0,0,1-.239.191,1.67,1.67,0,0,1-.561.237,1.715,1.715,0,0,1-.3.039,2.171,2.171,0,0,1-.255-.009l-.678-.054-2.713-.221-5.423-.479-.677-.062-.339-.032a.338.338,0,0,0-.1,0,.287.287,0,0,0-.21.3.47.47,0,0,0,.01.052.81.81,0,0,0,.036.082l.153.3.307.608.612,1.216c.8,1.63,1.62,3.249,2.4,4.889a.418.418,0,0,1-.738.391Z" transform="translate(-61.116 -17.62)" fill="#3b3b56"/>
    <path id="Path_8348" data-name="Path 8348" d="M3854.754,4700.559l-.934,7.95a.743.743,0,0,0,.206.6l5.532,5.66a.741.741,0,0,1-.377,1.243l-7.837,1.659a.741.741,0,0,0-.5.375l-3.708,6.935a.741.741,0,0,1-1.295.022l-3.972-6.855a.741.741,0,0,0-.5-.357l-7.785-1.474a.741.741,0,0,1-.408-1.229l5.313-5.8a.741.741,0,0,0,.189-.6l-1.033-7.944a.741.741,0,0,1,1.048-.767l7.174,3.343a.743.743,0,0,0,.639-.006l7.19-3.518A.742.742,0,0,1,3854.754,4700.559Z" transform="translate(-124.472 -0.924)" fill="#fdc54f"/>
    <path id="Path_8349" data-name="Path 8349" d="M3862.733,4700.566q1.41-.751,2.828-1.485l.708-.368.354-.184.177-.092.094-.048.157-.066a1.3,1.3,0,0,1,1.3.283,1.312,1.312,0,0,1,.365.6,1.329,1.329,0,0,1,.05.352c0,.053,0,.128-.008.163l-.009.1-.649,6.354-.156,1.5a.047.047,0,0,0,.009.019l.168.169.562.567,2.248,2.268,2.238,2.278.28.285.07.072c.044.047.087.1.128.148a1.584,1.584,0,0,1,.2.35,1.487,1.487,0,0,1-.912,1.949c-.057.018-.138.04-.177.049l-.1.021-.2.042-.781.167-6.253,1.3-.513.1-.006,0,0,0s0-.005-.021.035l-.191.351-.765,1.4-1.539,2.8-.772,1.4-.386.7-.1.174c-.011.021-.041.072-.076.125a.964.964,0,0,1-.109.146,1.347,1.347,0,0,1-1.948.1,1.377,1.377,0,0,1-.222-.278c-.052-.085-.07-.124-.106-.188l-.194-.349-.773-1.4-1.529-2.8-.764-1.4-.376-.7-.084-.159a.381.381,0,0,0-.057-.077.375.375,0,0,0-.168-.1l-.017,0a.369.369,0,0,1,.155-.721,1.121,1.121,0,0,1,.742.476l.117.186.424.677.836,1.36,1.672,2.722.827,1.366.206.341c.032.051.077.129.1.156a.177.177,0,0,0,.029.03.144.144,0,0,0,.142.014.112.112,0,0,0,.047-.042l.126-.24.367-.709.733-1.418,1.473-2.833.741-1.415.185-.353a1.54,1.54,0,0,1,.079-.139,1.461,1.461,0,0,1,.758-.593c.056-.019.14-.04.176-.047l.1-.021.39-.086,6.242-1.348.781-.164.2-.041.1-.021c.025-.006.008,0,.015,0s-.006,0-.006.006,0-.01,0,0a0,0,0,0,0,0,0s0,0,0,0l-.07-.071-.279-.287-2.227-2.289-2.216-2.3-.554-.574-.138-.144c-.013-.014-.073-.075-.11-.123a1.5,1.5,0,0,1-.112-.159,1.437,1.437,0,0,1-.207-.74,1.475,1.475,0,0,1,.011-.187l.013-.1.025-.2.052-.4.1-.792.841-6.332.018-.134a.175.175,0,0,0,0-.042.163.163,0,0,0-.037-.081.181.181,0,0,0-.179-.062.129.129,0,0,1-.028.01l-.086.039-.182.083-.363.167-.726.333q-1.448.672-2.908,1.322a.418.418,0,0,1-.367-.75Z" transform="translate(-137.88)" fill="#3b3b56"/>
    <path id="Path_8350" data-name="Path 8350" d="M3837.351,4716.854c-1.376-.181-2.743-.407-4.115-.608l-.513-.082-.257-.042-.066-.011-.113-.026a1.4,1.4,0,0,1-.222-.079,1.374,1.374,0,0,1-.736-1.607,1.344,1.344,0,0,1,.21-.437c.117-.153.145-.174.209-.25l.344-.39.688-.779c.913-1.042,1.846-2.066,2.769-3.1l1.324-1.457,0,0-.066-.5-.137-1.03-.51-4.125-.24-2.064-.031-.282a1.416,1.416,0,0,1,.608-1.3,1.408,1.408,0,0,1,.943-.242,1.426,1.426,0,0,1,.469.132l.233.114q1.867.913,3.721,1.854l1.849.954.924.477.23.122.11.059a.324.324,0,0,0,.054.025.36.36,0,0,0,.247,0l.023-.009a.369.369,0,0,1,.3.672,1.128,1.128,0,0,1-.765.106,1.2,1.2,0,0,1-.191-.059l-.126-.051-.241-.1-.959-.4-1.919-.8c-1.274-.546-2.547-1.1-3.813-1.657l-.238-.1c-.017,0-.023-.005-.031,0a.076.076,0,0,0-.039.022c-.011.016-.019.027-.016.035l.035.252.3,2.058.562,4.118.132,1.031.067.531a1.485,1.485,0,0,1-.246.989,1.589,1.589,0,0,1-.15.188l-.088.1-.176.191-.352.382-.706.763c-.949,1.01-1.888,2.028-2.847,3.029l-1.227,1.294a.118.118,0,0,0,.038.141c.007,0,.011.01.021.01a.04.04,0,0,1,.012.007l.062.013.254.055.508.111c1.351.313,2.706.6,4.053.938a.418.418,0,0,1-.155.82Z" transform="translate(-123.458 -0.116)" fill="#3b3b56"/>
    <circle id="Ellipse_516" data-name="Ellipse 516" cx="2.567" cy="2.567" r="2.567" transform="translate(3655.455 4842.907)" fill="#fdc54f"/>
    <circle id="Ellipse_517" data-name="Ellipse 517" cx="2.321" cy="2.321" r="2.321" transform="translate(3698.92 4863.893)" fill="#fdc54f"/>
    <circle id="Ellipse_518" data-name="Ellipse 518" cx="3.312" cy="3.312" r="3.312" transform="translate(3655.455 4726.283)" fill="#fdc54f"/>
    <circle id="Ellipse_519" data-name="Ellipse 519" cx="2.342" cy="2.342" r="2.342" transform="translate(3740.975 4704.633)" fill="#fdc54f"/>
    <circle id="Ellipse_520" data-name="Ellipse 520" cx="2.728" cy="2.728" r="2.728" transform="translate(3713.974 4730.182)" fill="#fdc54f"/>
    <path id="Path_8351" data-name="Path 8351" d="M3696.9,5086.411a2.859,2.859,0,0,1-.364,1.751,3.388,3.388,0,0,1-.586.728,3.264,3.264,0,0,1-.792.522,3.205,3.205,0,0,1-1.887.237,3.2,3.2,0,0,1-2.583-2.6,3.186,3.186,0,0,1,.248-1.875,3.236,3.236,0,0,1,.523-.782,3.365,3.365,0,0,1,.724-.575,2.826,2.826,0,0,1,1.732-.346.373.373,0,0,1,.013.737l-.013,0a2.232,2.232,0,0,0-1.765,1.467,1.952,1.952,0,0,0,2.486,2.473,2.2,2.2,0,0,0,1.429-1.742l0-.016a.42.42,0,0,1,.832.016Z" transform="translate(-35.891 -240.936)" fill="#3b3b56"/>
    <path id="Path_8352" data-name="Path 8352" d="M3811.592,5142.254a2.615,2.615,0,0,1-.323,1.614,3.1,3.1,0,0,1-.537.675,3.012,3.012,0,0,1-.73.485,2.96,2.96,0,0,1-1.745.223,2.954,2.954,0,0,1-2.389-2.4,2.876,2.876,0,0,1,.72-2.452,3.038,3.038,0,0,1,.671-.526,2.572,2.572,0,0,1,1.595-.3.373.373,0,0,1,.017.735l-.017,0a1.984,1.984,0,0,0-1.537,1.314,1.707,1.707,0,0,0,2.164,2.15,1.955,1.955,0,0,0,1.276-1.514l0-.021a.421.421,0,0,1,.831.021Z" transform="translate(-107.613 -276.04)" fill="#3b3b56"/>
    <path id="Path_8353" data-name="Path 8353" d="M3698.39,4775.773a3.736,3.736,0,0,1-.069,1.11,3.981,3.981,0,0,1-.42,1.056,4.208,4.208,0,0,1-.732.889,4.1,4.1,0,0,1-.979.635,3.952,3.952,0,0,1-1.134.315,4.4,4.4,0,0,1-1.183-.036,4.179,4.179,0,0,1-1.124-.394,3.866,3.866,0,0,1-1.658-1.667,4.118,4.118,0,0,1-.387-1.123,4.353,4.353,0,0,1-.03-1.178,3.962,3.962,0,0,1,.32-1.127,4.08,4.08,0,0,1,.636-.969,4.2,4.2,0,0,1,.886-.721,3.912,3.912,0,0,1,1.047-.41,3.686,3.686,0,0,1,1.1-.062.371.371,0,0,1,.015.737h-.015a2.983,2.983,0,0,0-2.452,1.927,2.695,2.695,0,0,0,3.458,3.445,2.952,2.952,0,0,0,1.889-2.43l0-.017a.418.418,0,0,1,.833.017Z" transform="translate(-35.895 -46.179)" fill="#3b3b56"/>
    <path id="Path_8354" data-name="Path 8354" d="M3923.405,4716.986a2.64,2.64,0,0,1-.326,1.627,3.144,3.144,0,0,1-.542.678,3.01,3.01,0,0,1-.735.488,2.972,2.972,0,0,1-1.757.224,2.977,2.977,0,0,1-2.406-2.42,2.96,2.96,0,0,1,.235-1.745,3,3,0,0,1,.489-.725,3.108,3.108,0,0,1,.675-.53,2.6,2.6,0,0,1,1.606-.308.373.373,0,0,1,.016.736l-.016,0a2.007,2.007,0,0,0-1.556,1.328,1.727,1.727,0,0,0,2.191,2.178,1.975,1.975,0,0,0,1.29-1.533l0-.02a.421.421,0,0,1,.831.02Z" transform="translate(-177.328 -10.012)" fill="#3b3b56"/>
    <path id="Path_8355" data-name="Path 8355" d="M3852.412,4785.595a3.1,3.1,0,0,1-.045.941,3.336,3.336,0,0,1-.346.9,3.575,3.575,0,0,1-.617.763,3.465,3.465,0,0,1-.832.547,3.374,3.374,0,0,1-1.981.246,3.365,3.365,0,0,1-2.709-2.724,3.349,3.349,0,0,1,.257-1.969,3.433,3.433,0,0,1,.548-.822,3.532,3.532,0,0,1,.759-.606,3.3,3.3,0,0,1,.893-.336,3.051,3.051,0,0,1,.928-.038.371.371,0,0,1,.02.736l-.02,0a2.4,2.4,0,0,0-1.914,1.566,2.113,2.113,0,0,0,2.7,2.683,2.364,2.364,0,0,0,1.528-1.891l0-.022a.419.419,0,0,1,.831.022Z" transform="translate(-132.563 -52.685)" fill="#3b3b56"/>
  </g>
</svg>
