<svg xmlns="http://www.w3.org/2000/svg" width="196" height="196" viewBox="0 0 196 196">
  <g id="icon_pro" transform="translate(-90 -187)">
    <circle id="back" cx="98" cy="98" r="98" transform="translate(90 187)" fill="#f4f5f8"/>
    <g id="plug" transform="translate(122.447 213)">
      <path id="Path_5656" data-name="Path 5656" d="M66.779,22A66.778,66.778,0,0,0,16.124,132.287l7.143,7.143A66.779,66.779,0,1,0,66.779,22Z" transform="translate(0 -16)" fill="#b6b6fc"/>
    </g>
    <g id="surface1" transform="translate(122.447 218.995)">
      <path id="Path_5986" data-name="Path 5986" d="M114,19.559A66.779,66.779,0,0,0,19.559,114,66.779,66.779,0,0,0,114,19.559Zm0,0" fill="#fff"/>
      <path id="Path_5988" data-name="Path 5988" d="M166.175,19.559a66.779,66.779,0,0,0-94.44,0,3.914,3.914,0,0,0,0,5.533L86.553,39.91a3.913,3.913,0,0,0,5.534,0,38,38,0,0,1,53.737,0,3.913,3.913,0,0,0,5.533,0l14.818-14.818a3.911,3.911,0,0,0,0-5.533Zm0,0" transform="translate(-52.176)" fill="#ffd12b"/>
      <path id="Path_5989" data-name="Path 5989" d="M303.22,19.559A66.345,66.345,0,0,0,256,0V28.781a37.751,37.751,0,0,1,26.869,11.13,3.913,3.913,0,0,0,5.533,0L303.22,25.093a3.913,3.913,0,0,0,0-5.534Zm0,0" transform="translate(-189.221)" fill="#ff8e1d"/>
      <path id="Path_5990" data-name="Path 5990" d="M28.782,118.952A37.751,37.751,0,0,1,39.91,92.083a3.909,3.909,0,0,0,0-5.533L25.093,71.732a3.913,3.913,0,0,0-5.534,0,66.779,66.779,0,0,0,0,94.44,3.911,3.911,0,0,0,5.533,0L39.91,151.354a3.911,3.911,0,0,0,0-5.533A37.753,37.753,0,0,1,28.782,118.952Zm0,0" transform="translate(0 -52.173)" fill="#80d398"/>
      <path id="Path_5991" data-name="Path 5991" d="M376.107,71.732a3.911,3.911,0,0,0-5.533,0L355.756,86.55a3.911,3.911,0,0,0,0,5.533,38,38,0,0,1,0,53.738,3.911,3.911,0,0,0,0,5.533l14.818,14.818a3.911,3.911,0,0,0,5.533,0,66.779,66.779,0,0,0,0-94.44Zm0,0" transform="translate(-262.107 -52.173)" fill="#f04444"/>
      <path id="Path_5992" data-name="Path 5992" d="M258.226,211.465c-6.121-1.776-36.963-10.633-43-10.633a14.391,14.391,0,0,0,0,28.782c6.037,0,36.88-8.857,43-10.633a3.913,3.913,0,0,0,0-7.516Zm0,0" transform="translate(-148.447 -148.444)" fill="#00345c"/>
      <path id="Path_5993" data-name="Path 5993" d="M200.836,215.223a14.407,14.407,0,0,0,14.39,14.391V200.832A14.407,14.407,0,0,0,200.836,215.223Zm0,0" transform="translate(-148.447 -148.444)" fill="#005ab1"/>
      <path id="Path_5994" data-name="Path 5994" d="M229,362.435H211.639a3.913,3.913,0,0,1,0-7.826H229a3.913,3.913,0,0,1,0,7.826Zm0,0" transform="translate(-153.54 -262.107)" fill="#005ab1"/>
      <path id="Path_5995" data-name="Path 5995" d="M264.68,354.609H256v7.826h8.68a3.913,3.913,0,1,0,0-7.826Zm0,0" transform="translate(-189.221 -262.107)" fill="#00345c"/>
    </g>
  </g>
</svg>
