<svg xmlns="http://www.w3.org/2000/svg" xmlns:xlink="http://www.w3.org/1999/xlink" width="412.393" height="491.266" viewBox="0 0 412.393 491.266">
  <defs>
    <clipPath id="clip-path">
      <path id="Path_6175" data-name="Path 6175" d="M1069.753,203.705H833.52a4.293,4.293,0,0,0-4.147,3.7L795.282,505.463a3.215,3.215,0,0,0,3.257,3.7h236.233a4.293,4.293,0,0,0,4.147-3.7l34.09-298.057A3.215,3.215,0,0,0,1069.753,203.705Z" transform="translate(-795.255 -203.705)" fill="none"/>
    </clipPath>
    <clipPath id="clip-path-2">
      <path id="Path_6160" data-name="Path 6160" d="M975.7,435.782c7.5,1.858,80.379-19.977,82.824-25.448,2.271-5.08-12.158-74.881-21.6-78.376s-80.334,14.836-85.181,24.665S968.2,433.923,975.7,435.782Z" transform="translate(-951.039 -331.52)" fill="none"/>
    </clipPath>
    <clipPath id="clip-path-3">
      <path id="Path_6203" data-name="Path 6203" d="M782.091,475.128c-5.517,5.061-77.644,20.3-82.263,16.777-4.288-3.268-24.4-69.341-17.99-76.693s75.221-24.65,83.9-18.537S787.608,470.068,782.091,475.128Z" transform="translate(-680.588 -395.392)" fill="none"/>
    </clipPath>
  </defs>
  <g id="reschedule" transform="translate(-626.179 -192.6)">
    <path id="Path_6134" data-name="Path 6134" d="M1149.09,192.6" transform="translate(-182.781)" fill="none" stroke="#3c4958" stroke-linecap="round" stroke-linejoin="round" stroke-width="4"/>
    <g id="Group_3263" data-name="Group 3263" transform="translate(826.234 238.124)">
      <g id="Group_3262" data-name="Group 3262">
        <path id="Path_6135" data-name="Path 6135" d="M1075.286,558.95H951.11c-10.047,0-17.212-8.144-16-18.191l31.03-258.04c1.208-10.046,10.332-18.191,20.378-18.191h124.176c10.046,0,17.211,8.144,16,18.191l-31.03,258.04C1094.456,550.805,1085.332,558.95,1075.286,558.95Z" transform="translate(-934.171 -263.266)" fill="#eaeae9"/>
        <path id="Path_6136" data-name="Path 6136" d="M1093.7,558.95H951.11c-10.047,0-17.212-8.144-16-18.191l31.03-258.04c1.208-10.046,10.332-18.191,20.378-18.191h142.591c10.046,0,17.212,8.144,16,18.191l-31.029,258.04C1112.871,550.805,1103.748,558.95,1093.7,558.95Z" transform="translate(-934.171 -263.266)" fill="#efefef"/>
        <path id="Path_6137" data-name="Path 6137" d="M1118.2,308.3H981.815a4.773,4.773,0,0,0-4.609,4.115L949.28,544.646a3.573,3.573,0,0,0,3.62,4.115h136.385a4.771,4.771,0,0,0,4.609-4.115l27.927-232.232A3.574,3.574,0,0,0,1118.2,308.3Z" transform="translate(-939.162 -278.566)" fill="#efefef"/>
        <path id="Path_6138" data-name="Path 6138" d="M1111.119,287.047h-26.947c-2.2,0-1.821-3.157.38-3.157H1111.5C1113.664,283.89,1113.284,287.047,1111.119,287.047Z" transform="translate(-985.808 -270.034)" fill="#f4f4f4"/>
        <path id="Path_6139" data-name="Path 6139" d="M1063.1,695.5h-26.946c-2.2,0-1.822-3.158.379-3.158h26.947C1065.643,692.338,1065.263,695.5,1063.1,695.5Z" transform="translate(-969.023 -412.805)" fill="#f4f4f4"/>
        <path id="Path_6140" data-name="Path 6140" d="M1213.422,292.194l-3.59,32.29-3.718,32.274-7.636,64.525-7.921,64.491-4.06,32.233-4.187,32.218a.642.642,0,0,1-1.276-.154l3.57-32.292,3.7-32.277,7.594-64.53,7.878-64.5,4.04-32.236,4.168-32.22a.726.726,0,0,1,1.441.173Z" transform="translate(-1020.179 -272.655)" fill="#3c4958"/>
        <path id="Path_6141" data-name="Path 6141" d="M1083.826,287.068a2.086,2.086,0,0,1-1.482-.485,1.978,1.978,0,0,1-.636-1.508,2.466,2.466,0,0,1,1.845-2.359,3.146,3.146,0,0,1,.745-.1l.58-.023,1.162-.031,2.323-.061c3.1-.1,6.195-.1,9.292-.111,3.1.007,6.2.029,9.293.114l2.323.07,1.162.034.581.017.148.005.2.013a2.371,2.371,0,0,1,.4.072,1.954,1.954,0,0,1,1.309,1.121,2.247,2.247,0,0,1,.033,1.59,2.285,2.285,0,0,1-2.333,1.577.482.482,0,0,1-.011-.963h.011a1.255,1.255,0,0,0,1.164-.967.966.966,0,0,0-.074-.68.561.561,0,0,0-.441-.277.969.969,0,0,0-.17-.017l-.236,0-.581.018-1.162.034-2.323.069c-3.1.086-6.2.107-9.293.114-3.1-.009-6.195-.014-9.292-.11l-2.323-.062-1.162-.031-.58-.023a1.546,1.546,0,0,0-.407.016,1.093,1.093,0,0,0-.894.985c-.031.488.21.818.827.864h.022a.544.544,0,0,1-.022,1.087Z" transform="translate(-985.462 -269.51)" fill="#525c7c"/>
        <path id="Path_6142" data-name="Path 6142" d="M1062.582,695.517c-5.343.105-10.686.232-16.029.3-2.672.042-5.344.084-8.015.091l-2,.012-.5,0h-.25c-.08,0-.161,0-.3,0a2.436,2.436,0,0,1-1.5-.561,2.263,2.263,0,0,1-.769-1.5,2.749,2.749,0,0,1,1.329-2.627,2.88,2.88,0,0,1,1.44-.391c5.362.042,10.692.042,16.039.122l8.015.137,2,.053,1.027.031a2.082,2.082,0,0,1,1.3.508,1.893,1.893,0,0,1,.611,1.276,2.327,2.327,0,0,1-.271,1.278,2.288,2.288,0,0,1-.9.92,2.377,2.377,0,0,1-1.221.288Zm0-1.026a1.257,1.257,0,0,0,1.136-.743.962.962,0,0,0-.15-1.139.86.86,0,0,0-.55-.156l-.977.023-2,.054-8.015.137c-5.339.081-10.7.079-16.019.124a.833.833,0,0,0-.783.439c-.159.291-.089.626.014.679a.538.538,0,0,0,.344.108l.956.009,2,.013c2.671.007,5.343.049,8.015.091,5.343.066,10.686.193,16.029.3Z" transform="translate(-968.506 -412.282)" fill="#3c4958"/>
        <path id="Path_6143" data-name="Path 6143" d="M940.623,496.706l-3.378,28.537-1.69,14.269c-.084.6-.111,1.168-.15,1.739-.012.286-.056.571-.044.857l.03.856c.017.285,0,.572.044.855l.118.846a10.9,10.9,0,0,0,.34,1.671,14.888,14.888,0,0,0,3.123,5.976,14.467,14.467,0,0,0,5.483,3.906,17.051,17.051,0,0,0,6.7,1.2l14.368-.027,28.736-.053,57.472-.094,28.736-.027,7.184-.007,3.593,0,1.8,0c.586-.012,1.133-.055,1.7-.078a19.735,19.735,0,0,0,12.045-5.742,20.327,20.327,0,0,0,3.955-5.509l.372-.765c.109-.261.2-.529.3-.793l.3-.794c.1-.266.154-.544.232-.815a11.763,11.763,0,0,0,.383-1.648c.091-.561.2-1.1.261-1.707l1.7-14.267,3.4-28.534,6.808-57.068,13.617-114.135,3.447-28.528,1.723-14.264c.086-.61.113-1.155.153-1.711.012-.278.056-.556.045-.834l-.028-.833c-.016-.276,0-.556-.039-.831l-.113-.822a10.6,10.6,0,0,0-.327-1.624,14.445,14.445,0,0,0-3.013-5.8,14.045,14.045,0,0,0-5.313-3.8,14.762,14.762,0,0,0-3.178-.917,19.3,19.3,0,0,0-3.357-.266l-14.368-.008-28.736-.017-57.472-.033-28.737-.02-7.184-.011-3.592-.006-1.8,0c-.585.01-1.129.051-1.7.074a19.662,19.662,0,0,0-12.016,5.691,20.285,20.285,0,0,0-3.962,5.487l-.373.763c-.109.26-.2.528-.3.791l-.3.792c-.1.265-.155.542-.234.813a11.853,11.853,0,0,0-.386,1.646c-.092.559-.2,1.094-.265,1.706L965,297.036l-3.475,28.525-6.954,57.05L940.539,496.7Zm-1.358-.163,13.415-114.16,6.769-57.072,3.386-28.535,1.693-14.268c.055-.581.178-1.222.28-1.843a13.721,13.721,0,0,1,.427-1.849c.088-.3.155-.615.261-.913l.333-.888c.113-.295.218-.594.339-.885l.412-.853a22.546,22.546,0,0,1,4.385-6.115,21.956,21.956,0,0,1,13.417-6.386c.63-.03,1.281-.076,1.893-.087l1.8,0,3.592-.006,7.184-.011,28.737-.02,57.472-.033,28.736-.017,14.368-.008c.58-.015,1.254.042,1.884.068a14.474,14.474,0,0,1,1.91.232,17.318,17.318,0,0,1,3.707,1.067,16.57,16.57,0,0,1,6.262,4.478,16.981,16.981,0,0,1,3.559,6.824,12.874,12.874,0,0,1,.384,1.893l.131.957c.042.319.031.641.049.961l.031.963c.012.321-.033.639-.047.959-.044.638-.083,1.29-.165,1.866l-1.707,14.266-3.415,28.533-13.829,114.109L1120,496.822l-3.458,28.527-1.729,14.264c-.057.581-.18,1.221-.285,1.842a13.739,13.739,0,0,1-.431,1.846c-.089.3-.156.613-.264.91l-.334.886c-.114.295-.219.593-.342.883l-.413.85a22.5,22.5,0,0,1-4.391,6.093,21.888,21.888,0,0,1-13.388,6.335c-.628.028-1.276.073-1.886.083l-1.8,0-3.593,0-7.184-.007-28.736-.027-57.472-.095-28.736-.053-14.368-.026a18.793,18.793,0,0,1-7.34-1.352,16.144,16.144,0,0,1-6.093-4.378,16.533,16.533,0,0,1-3.45-6.652,12.533,12.533,0,0,1-.37-1.846l-.125-.933c-.041-.311-.029-.626-.046-.938l-.028-.939c-.011-.313.034-.624.049-.935.044-.624.083-1.255.166-1.838l1.742-14.262,3.483-28.524Z" transform="translate(-933.74 -262.588)" fill="#3c4958"/>
      </g>
      <path id="Path_6144" data-name="Path 6144" d="M1118.2,308.3H981.815a4.773,4.773,0,0,0-4.609,4.115L949.28,544.646a3.573,3.573,0,0,0,3.62,4.115h136.385a4.771,4.771,0,0,0,4.609-4.115l27.927-232.232A3.574,3.574,0,0,0,1118.2,308.3Z" transform="translate(-939.162 -278.566)" fill="#37e1ca"/>
      <path id="Path_6145" data-name="Path 6145" d="M960.512,454.1l-7.721,67.723-1.931,16.93-.241,2.117-.12,1.058a6.049,6.049,0,0,0-.051.913,2.5,2.5,0,0,0,2.226,2.714c.139.01.244.017.414.02h.533l2.13,0,4.26-.007,34.079-.055,68.16-.11,17.04-.02,8.52,0c.34,0,.744.005,1.032-.006a3.075,3.075,0,0,0,.751-.115,3.6,3.6,0,0,0,1.37-.754,3.726,3.726,0,0,0,.926-1.269,3.28,3.28,0,0,0,.211-.736c.023-.1.044-.3.065-.474l.063-.529,4.051-33.838L1112.536,372.3l4.095-33.833,2.048-16.916,1.023-8.458.128-1.058.064-.529.033-.264.014-.2a2.521,2.521,0,0,0-.286-1.385,2.259,2.259,0,0,0-.988-.931,2.292,2.292,0,0,0-.677-.211,2.119,2.119,0,0,0-.366-.036c-.108-.011-.336,0-.5-.007q-34.08-.061-68.159-.522a.642.642,0,0,1,0-1.284q34.08-.5,68.16-.63c.193,0,.321-.008.567,0a4.537,4.537,0,0,1,.692.066,4.746,4.746,0,0,1,3.409,2.367,4.975,4.975,0,0,1,.589,2.725l-.027.332-.031.265-.064.529-.126,1.057-1.011,8.46-2.022,16.92-4.043,33.839L1098.764,507.95l-4.086,33.834-.064.528c-.023.179-.036.336-.081.582a5.738,5.738,0,0,1-.379,1.3,6.193,6.193,0,0,1-1.563,2.145,6.047,6.047,0,0,1-2.334,1.276,5.53,5.53,0,0,1-1.349.2c-.421.012-.729,0-1.1.006l-8.52,0-17.04-.02-68.16-.111-34.079-.055-4.26-.007-2.13,0h-.533c-.184,0-.434-.014-.648-.035a4.777,4.777,0,0,1-1.318-.353,4.328,4.328,0,0,1-2.031-1.826,5.222,5.222,0,0,1-.674-2.519,8.131,8.131,0,0,1,.07-1.211l.128-1.058.255-2.115,2.04-16.917,8.161-67.669a.726.726,0,0,1,1.441.169Z" transform="translate(-938.869 -277.777)" fill="#3c4958"/>
    </g>
    <g id="Group_3270" data-name="Group 3270" transform="translate(736.156 199.823)">
      <g id="Group_3269" data-name="Group 3269" clip-path="url(#clip-path)">
        <path id="Path_6146" data-name="Path 6146" d="M1170.99,810.991" transform="translate(-926.591 -415.978)" fill="none" stroke="#3c4958" stroke-linecap="round" stroke-linejoin="round" stroke-width="4"/>
        <g id="Group_3268" data-name="Group 3268" transform="translate(16.849 54.58)">
          <path id="Path_6147" data-name="Path 6147" d="M821.159,881.589c.118,5.3,57.176,4.026,127.56,2.452s117.04-2.619,116.921-7.922-46.775-4.259-117.159-2.684S821.04,876.285,821.159,881.589Z" transform="translate(-821.159 -491.939)" fill="#eaeae9" opacity="0.6" style="mix-blend-mode: multiply;isolation: isolate"/>
          <path id="Path_6148" data-name="Path 6148" d="M998.423,508.618c-6.183,1.451,6,89.435,8.092,96.872s14.795,108.072,17.391,110.555,76.875.186,80.007-1.79-15.408-106.915-14.631-111.474,15.74-83.518,12.59-88.922S1044.518,497.8,998.423,508.618Z" transform="translate(-882.514 -363.235)" fill="#fff"/>
          <path id="Path_6149" data-name="Path 6149" d="M1033.035,857.25l-20.2,16.017,22.224-.5Z" transform="translate(-888.158 -486.728)" fill="#3b3b56"/>
          <path id="Path_6150" data-name="Path 6150" d="M1157.971,856.408l-20.182,14.746,22.224-.5Z" transform="translate(-931.835 -486.434)" fill="#3b3b56"/>
          <path id="Path_6151" data-name="Path 6151" d="M1096.009,715.815c-16.176.622-32.349,1.145-48.545,1.355-4.05.04-8.1.047-12.159-.007-2.029-.031-4.059-.075-6.1-.17-1.02-.047-2.042-.107-3.075-.2-.517-.047-1.037-.1-1.572-.184-.269-.042-.54-.087-.829-.155a3.349,3.349,0,0,1-1.081-.415,1.685,1.685,0,0,1-.612-.78c-.055-.149-.122-.32-.161-.453-.084-.273-.158-.538-.219-.792-.131-.515-.242-1.017-.35-1.52q-.318-1.506-.594-3c-.373-2-.719-4-1.057-5.995-.674-4-1.312-7.994-1.94-11.992-2.517-15.993-4.788-32.014-7.134-48.023l-3.538-24c-.609-3.991-1.209-8-1.908-11.944-.089-.495-.181-.968-.282-1.456-.11-.531-.2-1.028-.285-1.536l-.491-3.014-.906-6.013q-3.422-24.057-6.077-48.2c-.862-8.055-1.672-16.114-2.184-24.226-.124-2.029-.224-4.062-.271-6.108-.019-1.024-.033-2.05-.005-3.088a21.917,21.917,0,0,1,.264-3.206,3.666,3.666,0,0,1,.094-.442,3.554,3.554,0,0,1,.141-.48l.109-.269.06-.137.116-.183a3.076,3.076,0,0,1,.259-.338l.211-.176c.141-.113.29-.234.431-.33l.4-.224a6.241,6.241,0,0,1,.782-.378,22.988,22.988,0,0,1,3.029-1.02c2-.548,4.005-.965,6.011-1.348,8.021-1.481,16.076-2.427,24.152-3.21,4.039-.382,8.083-.7,12.145-.909,2.032-.1,4.068-.174,6.134-.139s4.087.177,6.115.347a230.079,230.079,0,0,1,24.12,3.385,121.227,121.227,0,0,1,11.861,2.892,46.938,46.938,0,0,1,5.771,2.147,18.435,18.435,0,0,1,2.747,1.53,6.259,6.259,0,0,1,2.272,2.473.642.642,0,0,1-1.172.527v0l-.009-.021a5.079,5.079,0,0,0-1.839-1.885,17.046,17.046,0,0,0-2.565-1.384,45.6,45.6,0,0,0-5.621-2.008,119.638,119.638,0,0,0-11.745-2.7,228.664,228.664,0,0,0-23.967-3.052c-2-.139-4.013-.261-6-.289s-3.988.068-5.995.181c-4.015.237-8.036.582-12.048.991-8.018.836-16.044,1.842-23.925,3.358-1.964.389-3.922.814-5.816,1.348a20.829,20.829,0,0,0-2.712.93,4.175,4.175,0,0,0-.581.284l-.263.146-.167.135-.086.06c.007,0,.034-.014.041-.029a.064.064,0,0,0,.008-.027l-.012.04-.031.083a1.638,1.638,0,0,0-.068.248,2.1,2.1,0,0,0-.061.3,21.119,21.119,0,0,0-.211,2.837c-.023.983-.008,1.981.014,2.978.051,2,.156,4.005.284,6.013.529,8.036,1.359,16.077,2.24,24.107q2.7,24.089,6.2,48.095l.892,5.987.48,2.976c.085.489.17.987.265,1.447.1.5.2,1.023.292,1.523.7,4.024,1.294,8.018,1.9,12.024l3.494,24.024q3.443,24.024,6.979,48.024c.6,4,1.211,7.993,1.856,11.978.324,1.992.655,3.983,1.011,5.962.177.99.364,1.976.564,2.952.1.486.2.972.321,1.438.056.239.117.46.18.672.031.11.061.172.088.262a.616.616,0,0,0-.171-.181c-.082-.049.152.058.339.091.2.049.43.089.661.128.465.072.95.129,1.439.177.98.095,1.978.161,2.978.213,2,.106,4.015.163,6.029.208,4.031.083,8.07.094,12.11.092,16.162-.016,32.341-.344,48.506-.771a.725.725,0,0,1,.05,1.45Z" transform="translate(-881.791 -362.236)" fill="#3b3b56"/>
          <path id="Path_6152" data-name="Path 6152" d="M1151.181,541.521q-2.408,13.653-4.722,27.324c-1.535,9.114-3.118,18.219-4.561,27.341-.719,4.559-1.432,9.126-2.012,13.681-.142,1.137-.275,2.277-.368,3.393a13.546,13.546,0,0,0-.062,1.53c.056.493.15,1.107.223,1.655l1,6.843,4.114,27.424,8.2,54.858L1157.059,733l4,27.445v.009a1.019,1.019,0,0,1-.861,1.155,1.22,1.22,0,0,1-.128.01q-11.113.2-22.228.339h-.017a.862.862,0,0,1-.513-1.561l18.882-13.582a.642.642,0,0,1,.76,1.035l-18.619,13.94-.531-1.56q11.109-.365,22.221-.656l-.988,1.175-4.285-27.4-4.2-27.415c-2.789-18.278-5.592-36.555-8.279-54.849l-4.042-27.441-.983-6.882c-.077-.6-.161-1.127-.231-1.782a13.725,13.725,0,0,1,.071-1.931c.11-1.186.258-2.341.413-3.5.634-4.61,1.393-9.171,2.159-13.737,3.083-18.249,6.565-36.409,10.1-54.564a.726.726,0,0,1,1.426.266Z" transform="translate(-931.542 -376.069)" fill="#3b3b56"/>
          <path id="Path_6153" data-name="Path 6153" d="M1030.869,841.16c.521,1.949.984,3.9,1.435,5.863s.884,3.926,1.269,5.9.746,3.965,1.045,5.971a42.2,42.2,0,0,1,.564,6.171,8.314,8.314,0,0,1-.176,1.771,3.38,3.38,0,0,1-.186.568,2.1,2.1,0,0,1-.542.759,1.74,1.74,0,0,1-.642.349l-.265.063c-.183.044-.3.055-.454.081-1.106.158-2.1.2-3.124.252-2.029.092-4.042.133-6.054.163-4.025.025-8.038.02-12.059-.072h-.026a1.222,1.222,0,0,1-.713-2.193q4.874-3.716,9.8-7.366,2.458-1.832,4.943-3.628c1.652-1.2,3.3-2.41,4.973-3.59a.643.643,0,0,1,.788,1.014c-1.556,1.328-3.132,2.629-4.706,3.933s-3.148,2.608-4.737,3.894q-4.755,3.87-9.557,7.679l-.739-2.193c4-.018,8.006-.01,12-.077,2-.021,3.994-.055,5.97-.136.978-.043,1.99-.1,2.872-.2.1-.016.226-.028.287-.045l.1-.019a.816.816,0,0,0-.315.169c-.129.118-.126.161-.121.144a.808.808,0,0,0,.047-.145,6.084,6.084,0,0,0,.129-1.215,46.5,46.5,0,0,0-.41-5.809c-.235-1.968-.528-3.939-.827-5.911l-.958-5.917-1.032-5.91v0a.726.726,0,0,1,1.417-.312Z" transform="translate(-887.328 -480.916)" fill="#3b3b56"/>
          <path id="Path_6154" data-name="Path 6154" d="M1118.016,715.323c-3.132,1.976-77.411,4.273-80.007,1.79a9.706,9.706,0,0,1-.976-3.04c22.424.229,63.339-1.4,65.645-2.854,3.133-1.975-15.707-105.565-14.93-110.123s15.74-83.517,12.59-88.922c-.881-1.507-5.738-3.427-13.284-5.172,16.2,2.13,27.529,5.542,28.922,7.926,3.15,5.4-11.813,84.363-12.589,88.922S1121.148,713.347,1118.016,715.323Z" transform="translate(-896.616 -364.301)" fill="#f4f4f4" style="mix-blend-mode: multiply;isolation: isolate"/>
          <path id="Path_6155" data-name="Path 6155" d="M953.836,464.449c-6.461.544-12.919.907-19.395,1.134s-12.958.321-19.454.062c-3.248-.131-6.5-.338-9.752-.73-1.627-.2-3.254-.442-4.879-.784a24.63,24.63,0,0,1-4.861-1.473,8.947,8.947,0,0,1-2.359-1.469,4.6,4.6,0,0,1-1-1.256,5.119,5.119,0,0,1-.477-1.513,20.42,20.42,0,0,1,.092-5.163c.4-3.291,1.078-6.474,1.774-9.648,1.419-6.339,3.042-12.6,4.572-18.868,1.5-6.268,3.09-12.534,4.029-18.822a39.62,39.62,0,0,0,.428-4.669,13.439,13.439,0,0,0-.118-2.2,5.35,5.35,0,0,0-.222-.942l-.081-.183-.044-.1-.078-.168a6.834,6.834,0,0,1-.277-.682,11.207,11.207,0,0,1-.237-5.384,25.971,25.971,0,0,1,1.4-4.864,72.655,72.655,0,0,1,9.872-16.926.642.642,0,0,1,1.053.732l-.014.022c-1.735,2.68-3.405,5.439-4.9,8.265a60.355,60.355,0,0,0-3.919,8.667,25.879,25.879,0,0,0-1.14,4.477,8.908,8.908,0,0,0,.193,4.2,4.455,4.455,0,0,0,.185.438l.128.279.161.371a7.754,7.754,0,0,1,.354,1.408,15.8,15.8,0,0,1,.164,2.628,41.9,41.9,0,0,1-.419,4.982A193.441,193.441,0,0,1,900.6,425.36c-1.563,6.279-3.213,12.527-4.646,18.8-.709,3.131-1.37,6.279-1.791,9.4a18.584,18.584,0,0,0-.18,4.5,2.847,2.847,0,0,0,.223.8,2.279,2.279,0,0,0,.5.632,6.716,6.716,0,0,0,1.737,1.086,22.488,22.488,0,0,0,4.388,1.367c1.534.338,3.1.589,4.683.8,3.16.413,6.362.65,9.569.81A380.1,380.1,0,0,0,953.725,463h.009a.726.726,0,0,1,.1,1.448Z" transform="translate(-845.757 -316.251)" fill="#3b3b56"/>
          <g id="Group_3267" data-name="Group 3267" transform="translate(61.473)">
            <path id="Path_6156" data-name="Path 6156" d="M971.12,444.561c4.646,6.313,5.03,14.173-1.283,18.82s-13.464,2.271-18.11-4.041-5.03-14.173,1.283-18.82S966.473,438.248,971.12,444.561Z" transform="translate(-927.056 -340.212)" fill="#3b3b56"/>
            <g id="Group_3266" data-name="Group 3266">
              <path id="Path_6157" data-name="Path 6157" d="M970.62,289.979c-5.081,1.737-55.617,66.609-53.563,73.7s142.647,50.978,146.226,46.447,16.7-24.4,14.2-25.777-11.421,3.973-11.523,1.207,3.389-58.288,3.185-63.82S983.975,285.413,970.62,289.979Z" transform="translate(-916.132 -288.281)" fill="#efefef"/>
              <circle id="Ellipse_462" data-name="Ellipse 462" cx="11.261" cy="11.261" r="11.261" transform="translate(117.723 78.206) rotate(-9.067)" fill="#fff"/>
              <path id="Path_6158" data-name="Path 6158" d="M975.7,435.782c7.5,1.858,80.379-19.977,82.824-25.448,2.271-5.08-12.158-74.881-21.6-78.376s-80.334,14.836-85.181,24.665S968.2,433.923,975.7,435.782Z" transform="translate(-928.031 -302.962)" fill="#fff"/>
              <g id="Group_3265" data-name="Group 3265" transform="translate(23.008 28.558)">
                <g id="Group_3264" data-name="Group 3264" clip-path="url(#clip-path-2)">
                  <path id="Path_6159" data-name="Path 6159" d="M1068.039,445.62c27.874,48.2-84.218,72.337-92.338,27.706,7.625-5.8,15.055-16.319,17.891-15.437,3.289,1.023,7.088,18.763,18.85,15.205s7.861-22.737,11.631-25.374C1027.206,445.53,1052.247,449.558,1068.039,445.62Z" transform="translate(-959.659 -371.403)" fill="#7f7ff8"/>
                </g>
              </g>
              <path id="Path_6161" data-name="Path 6161" d="M1100.647,368.163c.7,1.986,1.328,4,1.953,6.006s1.192,4.037,1.758,6.064q1.655,6.091,3.02,12.255l-1.752-.915,1.224-.436c.408-.126.815-.214,1.224-.321.413-.087.833-.151,1.25-.226.423-.047.849-.084,1.276-.12a11.666,11.666,0,0,1,5.118.875,10.538,10.538,0,0,1,4.163,3.177,14.048,14.048,0,0,1,2.318,4.519,15.748,15.748,0,0,1,.775,4.954,10.343,10.343,0,0,1-4.707,8.659,13.6,13.6,0,0,1-4.505,1.931.643.643,0,0,1-.773-.479.65.65,0,0,1,.416-.755,13.537,13.537,0,0,0,3.883-2.057,9.188,9.188,0,0,0,2.641-3.253,8.891,8.891,0,0,0,.823-4.049,14.033,14.033,0,0,0-.825-4.2,8.832,8.832,0,0,0-9.207-6.733,12.973,12.973,0,0,0-4.1.885l-.022.009a1.281,1.281,0,0,1-1.665-.714,1.351,1.351,0,0,1-.064-.211q-1.3-6.134-2.7-12.247l-1.422-6.11-1.481-6.1a.727.727,0,0,1,1.391-.413Z" transform="translate(-979.832 -315.601)" fill="#3b3b56"/>
              <path id="Path_6162" data-name="Path 6162" d="M1060.1,428.124c.234,1.611.447,3.224.58,4.867a22.552,22.552,0,0,1,.077,2.517,5.285,5.285,0,0,1-.21,1.438,1.984,1.984,0,0,1-.213.455,2.908,2.908,0,0,1-.265.353,4.886,4.886,0,0,1-.534.514,15,15,0,0,1-2.158,1.43c-.727.409-1.461.787-2.2,1.147-1.476.721-2.968,1.382-4.467,2.019-6.013,2.5-12.126,4.662-18.263,6.748s-12.335,3.982-18.549,5.817-12.465,3.553-18.768,5.113c-3.158.758-6.326,1.478-9.536,2.087-1.607.3-3.222.578-4.876.775a23.576,23.576,0,0,1-2.56.178,7.053,7.053,0,0,1-1.475-.127,3.45,3.45,0,0,1-.477-.144c-.154-.061-.284-.131-.425-.2a5.27,5.27,0,0,1-.67-.459,11.129,11.129,0,0,1-1.843-2.015c-.513-.693-.972-1.4-1.406-2.111-.868-1.425-1.637-2.88-2.37-4.348-1.464-2.934-2.746-5.931-3.95-8.954a223.238,223.238,0,0,1-11.168-37.272.642.642,0,0,1,1.253-.281l0,.007q2.285,9.389,5.333,18.574c2,6.123,4.2,12.186,6.683,18.112,1.248,2.959,2.563,5.889,3.994,8.738.721,1.42,1.475,2.82,2.3,4.151.411.664.84,1.312,1.294,1.915a8.883,8.883,0,0,0,1.421,1.556,1.357,1.357,0,0,0,.556.311,4.778,4.778,0,0,0,.939.062,21.105,21.105,0,0,0,2.274-.177c1.554-.195,3.127-.474,4.7-.78,3.139-.617,6.273-1.352,9.4-2.124,12.515-3.055,24.909-6.724,37.2-10.643,6.139-1.972,12.259-4.033,18.232-6.391,1.493-.587,2.976-1.2,4.424-1.854a22.607,22.607,0,0,0,4.047-2.225,1.551,1.551,0,0,0,.5-.532,3.888,3.888,0,0,0,.147-.952,21.606,21.606,0,0,0-.008-2.329c-.069-1.585-.22-3.185-.392-4.782a.726.726,0,0,1,1.439-.185Z" transform="translate(-929.193 -329.41)" fill="#3b3b56"/>
              <path id="Path_6163" data-name="Path 6163" d="M1070.984,410.332c-2.44,5.473-75.322,27.3-82.82,25.45a3.386,3.386,0,0,1-1.48-1.011c23.487-5.39,66.667-19.179,68.537-23.368,2.274-5.083-12.157-74.879-21.6-78.379-.141-.05-.293-.1-.46-.14,7.863-1.326,13.907-1.79,16.224-.931C1058.827,335.454,1073.258,405.25,1070.984,410.332Z" transform="translate(-940.49 -302.961)" fill="#f4f4f4" style="mix-blend-mode: multiply;isolation: isolate"/>
              <path id="Path_6164" data-name="Path 6164" d="M1054.668,347.438c-11.233,4.65-20.109-1.865-28.033-.269s-10.367,14.883-20.684,17.87-19.939-6.107-19.939-6.107c.018,4.888-7.889,11.37-14.337,13.237s-10.165-6.142-16.613-4.275-6.7,8.23-11.216,9.538c0,0-7.06-14.728.558-24.622s84.163-32.757,94.057-25.139S1054.668,347.438,1054.668,347.438Z" transform="translate(-924.476 -301.083)" fill="#efefef"/>
              <path id="Path_6165" data-name="Path 6165" d="M1028.775,332.714c-.272,1.477-66.687,20.708-67.7,19.605s-4.277-9.944-3.174-10.962,65.21-20.979,67.7-19.6S1029.046,331.238,1028.775,332.714Z" transform="translate(-930.349 -299.524)" fill="#3b3b56"/>
              <path id="Path_6166" data-name="Path 6166" d="M944.859,387.33c1.876-.559,3.025-2.4,4.292-4.229a20.416,20.416,0,0,1,2.172-2.711,13.308,13.308,0,0,1,1.354-1.195,11.376,11.376,0,0,1,1.562-.943,12.054,12.054,0,0,1,1.684-.691c.3-.089.612-.144.919-.214l.464-.1c.157-.019.317-.02.476-.031a8.387,8.387,0,0,1,3.687.591c2.289.857,4.091,2.265,5.967,3.146a13.264,13.264,0,0,0,1.4.586,7.39,7.39,0,0,0,1.393.293,6.444,6.444,0,0,0,1.38,0,10.314,10.314,0,0,0,1.4-.356,24.433,24.433,0,0,0,5.64-2.822,25.315,25.315,0,0,0,4.8-4.095,13.641,13.641,0,0,0,1.75-2.471,5.868,5.868,0,0,0,.768-2.563,1.271,1.271,0,0,1,2.12-.94l.017.015a27.491,27.491,0,0,0,3.717,2.751,25.3,25.3,0,0,0,4.139,2.114,17.756,17.756,0,0,0,8.885,1.347,9.891,9.891,0,0,0,1.1-.211c.36-.089.736-.133,1.087-.255a12.851,12.851,0,0,0,2.065-.823,16.009,16.009,0,0,0,3.686-2.606,55.762,55.762,0,0,0,6.081-7.348,31.284,31.284,0,0,1,3.31-3.822,11.578,11.578,0,0,1,4.545-2.823,14.407,14.407,0,0,1,2.647-.446l1.3-.027c.434-.01.856.045,1.285.065a38.4,38.4,0,0,1,4.947.775,61.3,61.3,0,0,0,9.479,1.579,22.819,22.819,0,0,0,9.268-1.436.642.642,0,0,1,.491,1.186,23.362,23.362,0,0,1-9.812,1.924,57.152,57.152,0,0,1-9.8-1.309,36.316,36.316,0,0,0-4.7-.635c-.385-.009-.774-.053-1.153-.034l-1.136.048a12.441,12.441,0,0,0-2.149.4,9.373,9.373,0,0,0-3.6,2.383,32.985,32.985,0,0,0-3.006,3.607,57.557,57.557,0,0,1-6.3,7.711,18.527,18.527,0,0,1-4.238,3.039,15.493,15.493,0,0,1-2.454,1c-.419.146-.856.209-1.283.316a11.97,11.97,0,0,1-1.3.256,19.747,19.747,0,0,1-10.2-1.468,27.83,27.83,0,0,1-4.529-2.344,29.678,29.678,0,0,1-4.1-3.079l2.137-.925a8.275,8.275,0,0,1-1.084,3.76,16.055,16.055,0,0,1-2.1,2.939,27.748,27.748,0,0,1-5.319,4.493,24.941,24.941,0,0,1-6.272,3.021,12.386,12.386,0,0,1-1.836.419,8.752,8.752,0,0,1-1.936-.037,9.7,9.7,0,0,1-1.847-.429,15.7,15.7,0,0,1-1.659-.73c-2.109-1.067-3.846-2.457-5.726-3.181a6.612,6.612,0,0,0-5.634.215,11.7,11.7,0,0,0-4.538,4.112,26.271,26.271,0,0,1-2.141,2.679,6.839,6.839,0,0,1-3.14,1.94l-.014,0a.726.726,0,0,1-.39-1.4Z" transform="translate(-925.69 -311.679)" fill="#3b3b56"/>
              <path id="Path_6167" data-name="Path 6167" d="M933.885,372.288c-2.739-1.026-5.469-2.081-8.177-3.209-1.354-.565-2.7-1.148-4.04-1.773a35.919,35.919,0,0,1-3.966-2.1,9.889,9.889,0,0,1-.974-.7,2.828,2.828,0,0,1-.96-1.247,3.439,3.439,0,0,1-.041-1.473,8.794,8.794,0,0,1,.288-1.183,28.138,28.138,0,0,1,1.786-4.158c1.351-2.641,2.859-5.163,4.406-7.657,3.1-4.981,6.414-9.809,9.8-14.581s6.851-9.482,10.376-14.147,7.111-9.285,10.772-13.849,7.379-9.08,11.369-13.424c1.008-1.084,2.02-2.155,3.153-3.191.285-.259.58-.515.911-.771a6.588,6.588,0,0,1,.553-.387,4.02,4.02,0,0,1,.36-.2l.25-.1.161-.051a10.849,10.849,0,0,1,2.435-.429,42.611,42.611,0,0,1,9,.645,175.016,175.016,0,0,1,17.217,3.83c5.663,1.517,11.275,3.191,16.854,4.961s11.125,3.643,16.63,5.628,10.982,4.052,16.41,6.256c2.714,1.1,5.417,2.241,8.1,3.437s5.347,2.443,7.966,3.864a27.158,27.158,0,0,1,3.883,2.469,6.256,6.256,0,0,1,.977.968,2.6,2.6,0,0,1,.474.942,2.72,2.72,0,0,1,.051.376v.433c.012.784-.021,1.5-.036,2.245-.094,2.938-.241,5.852-.384,8.772-.3,5.835-.613,11.665-.967,17.493-.68,11.661-1.467,23.3-2.007,34.957l-1.26-1.036c2.117-.5,4.219-.937,6.373-1.287a30.957,30.957,0,0,1,3.3-.379c.287-.012.578-.018.886-.006a4.387,4.387,0,0,1,1.03.146,1.767,1.767,0,0,1,.773.436,1.321,1.321,0,0,1,.354.685,1.65,1.65,0,0,1,.008.47,4.253,4.253,0,0,1-.272.993,27.49,27.49,0,0,1-1.462,3c-.521.953-1.061,1.886-1.609,2.814-1.1,1.854-2.229,3.677-3.389,5.49a.642.642,0,0,1-1.1-.664l0-.005c1.061-1.848,2.1-3.719,3.1-5.6.5-.941.985-1.886,1.447-2.836a26.115,26.115,0,0,0,1.223-2.835,3.109,3.109,0,0,0,.14-.556c0-.01-.006-.027.005.07a.639.639,0,0,0,.17.336c.126.115.116.075.068.069a5,5,0,0,0-1.278-.051,29.017,29.017,0,0,0-3.075.381c-2.071.353-4.16.808-6.208,1.307a1.019,1.019,0,0,1-1.231-.749,1,1,0,0,1-.029-.275v-.012c.44-11.672,1.13-23.337,1.71-34.991l.887-17.482c.133-2.91.271-5.827.354-8.724.012-.715.042-1.456.028-2.132v-.388a.277.277,0,0,0,.014.1c.033.111.014.044-.035-.018a4.042,4.042,0,0,0-.585-.559,25.176,25.176,0,0,0-3.51-2.2c-2.517-1.356-5.15-2.576-7.8-3.752s-5.335-2.292-8.032-3.378c-5.4-2.171-10.849-4.214-16.333-6.168-10.975-3.885-22.052-7.524-33.275-10.563a172.759,172.759,0,0,0-16.948-3.812,40.572,40.572,0,0,0-8.428-.64,8.509,8.509,0,0,0-1.869.315l-.1.03s0,0,0,0c-.031.018-.064.032-.118.067-.1.059-.221.148-.344.241-.247.191-.5.411-.76.643-1.024.931-2.024,1.979-3,3.031-3.912,4.253-7.634,8.746-11.323,13.247s-7.286,9.093-10.835,13.714c-7.082,9.251-14,18.656-20.328,28.4-1.564,2.444-3.088,4.917-4.431,7.456a26.631,26.631,0,0,0-1.724,3.853,7.026,7.026,0,0,0-.245.939,1.993,1.993,0,0,0-.023.7c-.021-.044.035.057.1.137a3.512,3.512,0,0,0,.3.293,8.348,8.348,0,0,0,.8.586,34.66,34.66,0,0,0,3.744,2.041c1.3.628,2.622,1.223,3.954,1.8,2.664,1.154,5.366,2.241,8.079,3.3a.726.726,0,0,1-.518,1.356Z" transform="translate(-915.667 -287.616)" fill="#3b3b56"/>
              <path id="Path_6168" data-name="Path 6168" d="M1015.648,455.609a19.639,19.639,0,0,0,1.655,1.374,5.1,5.1,0,0,0,1.637.84,1.462,1.462,0,0,0,.652.029.922.922,0,0,0,.456-.191,4.19,4.19,0,0,0,1.009-1.352,18.245,18.245,0,0,0,1.415-3.991,23.757,23.757,0,0,0,.7-4.22l1.6,1.2q-3.031.853-6.083,1.63c-2.035.518-4.08,1.006-6.142,1.434a.645.645,0,0,1-.371-1.23c1.955-.785,3.928-1.509,5.91-2.2s3.972-1.363,5.969-2.007a1.224,1.224,0,0,1,1.541.79,1.211,1.211,0,0,1,.059.365v.044a15.838,15.838,0,0,1-.212,2.466c-.121.79-.271,1.572-.455,2.348a19.2,19.2,0,0,1-1.672,4.6,6.272,6.272,0,0,1-1.839,2.179,2.565,2.565,0,0,1-.375.224,2.364,2.364,0,0,1-.425.183,2.217,2.217,0,0,1-.437.115,2.467,2.467,0,0,1-.429.056,3.811,3.811,0,0,1-1.6-.257,6.189,6.189,0,0,1-2.228-1.555,10.611,10.611,0,0,1-1.467-1.966.733.733,0,0,1,1.121-.918Z" transform="translate(-949.259 -343.279)" fill="#3b3b56"/>
              <path id="Path_6169" data-name="Path 6169" d="M994.371,440.61a8.594,8.594,0,0,1,.443-1.953,14.4,14.4,0,0,1,.745-1.807l.01-.021a1.29,1.29,0,0,1,1.629-.623c1.046.419,2.085.858,3.1,1.361.509.246,1.01.513,1.508.786s.989.569,1.462.906a.662.662,0,0,1-.463,1.2c-.577-.07-1.133-.194-1.691-.314s-1.1-.272-1.645-.433c-1.088-.31-2.152-.684-3.207-1.078l1.639-.645a14.355,14.355,0,0,1-.961,1.7,8.6,8.6,0,0,1-1.261,1.555.775.775,0,0,1-1.306-.634Z" transform="translate(-943.177 -339.523)" fill="#3b3b56"/>
              <path id="Path_6170" data-name="Path 6170" d="M999.1,414.61a8.872,8.872,0,0,1-1.161,3.64,13.605,13.605,0,0,1-2.25,2.984,15.629,15.629,0,0,1-2.916,2.264,17.341,17.341,0,0,1-1.62.847,17.041,17.041,0,0,1-1.716.61.654.654,0,0,1-.631-1.1l.039-.037c.428-.4.881-.742,1.317-1.1.423-.373.868-.708,1.281-1.076s.844-.706,1.226-1.1c.411-.359.789-.746,1.167-1.131a28.1,28.1,0,0,0,2.1-2.434,23.821,23.821,0,0,0,1.739-2.658l.063-.112a.726.726,0,0,1,1.358.407Z" transform="translate(-941.162 -331.733)" fill="#3b3b56"/>
              <path id="Path_6171" data-name="Path 6171" d="M1036.865,412.06a24.558,24.558,0,0,1-4.373.212,31.819,31.819,0,0,1-4.363-.434,21.515,21.515,0,0,1-4.31-1.2,10.945,10.945,0,0,1-2.064-1.092,5.163,5.163,0,0,1-1.7-1.823.646.646,0,0,1,.991-.787l.063.053a9.109,9.109,0,0,0,3.441,1.482c1.3.323,2.649.583,4.016.8,1.365.234,2.749.422,4.137.636s2.794.418,4.182.7l.019,0a.735.735,0,0,1-.038,1.448Z" transform="translate(-952.13 -329.272)" fill="#3b3b56"/>
              <path id="Path_6172" data-name="Path 6172" d="M1032.34,428.028a12.925,12.925,0,0,1,.521-1.68c.2-.546.428-1.077.671-1.6a1.146,1.146,0,0,1,1.292-.633l.15.034c.61.139,1.216.291,1.813.473s1.193.366,1.776.6q.882.32,1.74.719a13.5,13.5,0,0,1,1.686.9.668.668,0,0,1-.363,1.232,13.637,13.637,0,0,1-1.907-.155q-.937-.132-1.852-.34c-.615-.124-1.213-.3-1.816-.463s-1.192-.371-1.78-.585l1.442-.6c-.305.489-.626.969-.975,1.434a12.77,12.77,0,0,1-1.124,1.353.753.753,0,0,1-1.276-.692Z" transform="translate(-956.443 -335.318)" fill="#3b3b56"/>
            </g>
            <path id="Path_6173" data-name="Path 6173" d="M1121.483,405.064c3.042,8.624.315,16.956-8.309,20s-16.282-2.605-19.324-11.229-.315-16.956,8.309-20S1118.442,396.439,1121.483,405.064Z" transform="translate(-977.53 -324.452)" fill="#3b3b56"/>
            <path id="Path_6174" data-name="Path 6174" d="M965.892,461.073c1.108,5.316,2.245,10.638,3.488,15.9.647,2.623,1.288,5.254,2.117,7.771.21.626.422,1.248.659,1.841a9.485,9.485,0,0,0,.777,1.6,2.034,2.034,0,0,0,.183.241c.046.057.081.057-.023.006-.271-.086-.045-.019.055-.025.129.008.277.011.428.01.613,0,1.277-.047,1.934-.1,2.652-.2,5.339-.576,8.009-.959s5.339-.846,7.981-1.364c1.318-.268,2.633-.55,3.923-.877.644-.165,1.282-.343,1.9-.546a9.721,9.721,0,0,0,1.7-.685,1.969,1.969,0,0,0,.272-.181c.066-.044.034-.074.009.115a.389.389,0,0,0,.009.108c0-.017-.005-.042-.01-.053l-.013-.055c-.007-.011.041.029.049.022a.859.859,0,0,0-.474.037,4.81,4.81,0,0,0-.815.314,19.517,19.517,0,0,0-3.269,2.137l-.02.015a.642.642,0,0,1-.823-.984,18.894,18.894,0,0,1,3.407-2.541,6.3,6.3,0,0,1,1.067-.472,2.336,2.336,0,0,1,1.53-.04,1.572,1.572,0,0,1,.8.68,1.917,1.917,0,0,1,.181.417c.023.069.034.129.051.2a1.288,1.288,0,0,1,.026.362,1.591,1.591,0,0,1-.485.984,3.446,3.446,0,0,1-.537.44,16.806,16.806,0,0,1-4,1.693c-1.328.42-2.662.777-4,1.1-2.676.654-5.369,1.179-8.074,1.643s-5.42.838-8.2,1.087c-.7.055-1.4.1-2.144.1-.189,0-.382-.005-.593-.019-.109-.008-.215-.016-.343-.034l-.1-.015a1.435,1.435,0,0,1-.142-.028,1.97,1.97,0,0,1-.362-.122,2.548,2.548,0,0,1-.823-.619,4.565,4.565,0,0,1-.435-.569,11.8,11.8,0,0,1-1.013-2.068c-.263-.673-.494-1.339-.7-2.009-.814-2.677-1.445-5.346-2-8.034-1.115-5.369-1.951-10.762-2.607-16.192a.726.726,0,0,1,1.431-.238Z" transform="translate(-932.72 -348.042)" fill="#3b3b56"/>
          </g>
        </g>
      </g>
    </g>
    <path id="Path_6176" data-name="Path 6176" d="M1218.618,282.717,1187.591,540.76c-1.21,10.043-10.329,18.187-20.379,18.187h-21.933c10.05,0,19.175-8.144,20.379-18.187l31.033-258.042c1.2-10.043-5.958-18.193-16.008-18.193h21.933C1212.666,264.524,1219.828,272.674,1218.618,282.717Z" transform="translate(-181.448 -25.141)" fill="#f4f4f4" style="mix-blend-mode: multiply;isolation: isolate"/>
    <path id="Path_6177" data-name="Path 6177" d="M1022.89,679.612H926.6a9.166,9.166,0,0,1-9.345-10.362l8.838-81.235a11.911,11.911,0,0,1,11.6-10.362h96.287a9.167,9.167,0,0,1,9.346,10.362l-8.838,81.235A11.91,11.91,0,0,1,1022.89,679.612Z" transform="translate(-101.723 -134.593)" fill="#eaeae9" style="mix-blend-mode: multiply;isolation: isolate"/>
    <path id="Path_6178" data-name="Path 6178" d="M1015.312,669.841H919.025a9.166,9.166,0,0,1-9.345-10.362l8.838-81.235a11.91,11.91,0,0,1,11.6-10.362H1026.4a9.166,9.166,0,0,1,9.346,10.362l-8.838,81.235A11.909,11.909,0,0,1,1015.312,669.841Z" transform="translate(-99.075 -131.177)" fill="#b6b6fc"/>
    <path id="Path_6179" data-name="Path 6179" d="M1040.583,575.24l-.842,7.736H922.509l.842-7.736a8.457,8.457,0,0,1,8.239-7.359h102.356A6.51,6.51,0,0,1,1040.583,575.24Z" transform="translate(-103.58 -131.177)" fill="#7f7ff8"/>
    <ellipse id="Ellipse_463" data-name="Ellipse 463" cx="5.482" cy="4.917" rx="5.482" ry="4.917" transform="matrix(0.759, -0.651, 0.651, 0.759, 841.403, 436.941)" fill="#fff"/>
    <ellipse id="Ellipse_464" data-name="Ellipse 464" cx="5.482" cy="4.917" rx="5.482" ry="4.917" transform="matrix(0.759, -0.651, 0.651, 0.759, 861.477, 436.941)" fill="#fff"/>
    <ellipse id="Ellipse_465" data-name="Ellipse 465" cx="5.482" cy="4.917" rx="5.482" ry="4.917" transform="matrix(0.759, -0.651, 0.651, 0.759, 881.283, 436.941)" fill="#fff"/>
    <ellipse id="Ellipse_466" data-name="Ellipse 466" cx="5.482" cy="4.917" rx="5.482" ry="4.917" transform="matrix(0.759, -0.651, 0.651, 0.759, 900.287, 436.941)" fill="#fff"/>
    <path id="Path_6180" data-name="Path 6180" d="M1036.577,567.5l-.047-.324a.665.665,0,0,1,.557-.751l.235-.036c1.434-.221,2.868-.339,4.3-.417s2.867-.1,4.3-.085a1.3,1.3,0,0,1,1.292,1.316,1.391,1.391,0,0,1-.026.246,4.222,4.222,0,0,0-.079.743,4.95,4.95,0,0,0,.062.762,3.746,3.746,0,0,0,.569,1.406,3.9,3.9,0,0,0,1.147,1.1,4.932,4.932,0,0,0,1.63.639l.026.006a.652.652,0,0,1-.026,1.279A5.055,5.055,0,0,1,1046,571.8a5.515,5.515,0,0,1-1.438-3.567,6.666,6.666,0,0,1,.1-1.318l1.266,1.562q-2.15.02-4.3-.085c-1.434-.078-2.867-.2-4.3-.416l.792-.788-.1.471a.724.724,0,0,1-1.426-.04Z" transform="translate(-143.434 -130.48)" fill="#3b3b56"/>
    <path id="Path_6181" data-name="Path 6181" d="M1006.129,567.5l-.044-.324a.67.67,0,0,1,.565-.751l.224-.033c1.568-.233,3.135-.347,4.7-.431.784-.023,1.568-.066,2.351-.068s1.568-.021,2.351,0h.03a1.293,1.293,0,0,1,1.255,1.33,1.326,1.326,0,0,1-.026.223,4.312,4.312,0,0,0-.022,1.509,3.794,3.794,0,0,0,.571,1.411,3.9,3.9,0,0,0,1.152,1.1,4.894,4.894,0,0,0,1.635.628l.023.005a.651.651,0,0,1-.023,1.279,5.085,5.085,0,0,1-4.51-1.595,5.321,5.321,0,0,1-1.247-2.271,5.862,5.862,0,0,1-.1-2.6l1.26,1.554c-.784.023-1.568,0-2.351,0s-1.568-.046-2.351-.068c-1.568-.084-3.135-.2-4.7-.431l.79-.784-.093.471a.724.724,0,0,1-1.427-.042Z" transform="translate(-132.792 -130.479)" fill="#3b3b56"/>
    <path id="Path_6182" data-name="Path 6182" d="M975.268,567.5l-.042-.324a.671.671,0,0,1,.567-.751l.221-.032c1.612-.237,3.224-.35,4.836-.435.806-.02,1.612-.069,2.418-.066s1.612-.019,2.418,0h.021a1.3,1.3,0,0,1,1.261,1.333,1.406,1.406,0,0,1-.025.218,4.355,4.355,0,0,0-.024,1.511,3.785,3.785,0,0,0,.572,1.413,3.891,3.891,0,0,0,1.154,1.1,4.869,4.869,0,0,0,1.637.625l.022,0a.651.651,0,0,1-.022,1.28,5.093,5.093,0,0,1-4.507-1.6,5.335,5.335,0,0,1-1.246-2.269,5.839,5.839,0,0,1-.1-2.6l1.258,1.551c-.807.022-1.612.01-2.418,0s-1.612-.046-2.418-.066c-1.612-.085-3.224-.2-4.836-.434l.788-.784-.092.471a.724.724,0,0,1-1.428-.043Z" transform="translate(-122.005 -130.48)" fill="#3b3b56"/>
    <path id="Path_6183" data-name="Path 6183" d="M978.476,670.084c-15.833.3-31.665.438-47.5.511l-11.875.029-2.969.008c-.506,0-.949.016-1.565-.017a8.366,8.366,0,0,1-1.724-.288,7.842,7.842,0,0,1-3.1-1.674,7.661,7.661,0,0,1-2.029-2.9,8.081,8.081,0,0,1-.548-3.459l.035-.434.04-.37.079-.738.158-1.476.646-5.9,1.311-11.8,2.622-23.6,1.311-11.8,1.356-11.8,1.356-11.8.678-5.9c.133-1,.17-1.908.421-3.058a9.059,9.059,0,0,1,1.352-3.021,9.539,9.539,0,0,1,5.248-3.77c.269-.062.535-.133.805-.186.274-.038.546-.081.821-.111l.826-.033.742.007,2.969.029,11.875.115a.754.754,0,0,1,.746.76.775.775,0,0,1-.013.13l0,.011a4.355,4.355,0,0,0,.01,1.737,3.8,3.8,0,0,0,.742,1.563,3.992,3.992,0,0,0,3.112,1.464.642.642,0,0,1,0,1.285,5.572,5.572,0,0,1-2.288-.451,5.19,5.19,0,0,1-2.973-3.531,5.707,5.707,0,0,1-.066-2.376l.731.9-11.875.115-2.969.029-.742.007-.656.04-.648.1c-.214.047-.425.109-.637.161a7.763,7.763,0,0,0-4.153,3.095,7.113,7.113,0,0,0-1.032,2.379c-.17.785-.234,1.864-.345,2.826l-.607,5.906-1.212,11.813-1.213,11.813-1.258,11.808-2.516,23.615L910.7,653.658l-.638,5.9-.163,1.475-.081.738-.04.367-.026.306a5.5,5.5,0,0,0,.363,2.361,5.118,5.118,0,0,0,3.419,3.055,8.668,8.668,0,0,0,2.6.221l2.969.007,11.875.029c15.833.073,31.665.211,47.5.511a.726.726,0,0,1,0,1.451Z" transform="translate(-98.214 -130.695)" fill="#3b3b56"/>
    <path id="Path_6184" data-name="Path 6184" d="M1099.534,590.794q-.487,7.7-1.21,15.375c-.465,5.118-1,10.229-1.553,15.338-1.146,10.214-2.381,20.417-3.989,30.581a.643.643,0,0,1-1.277-.139c.615-10.271,1.6-20.5,2.68-30.723.56-5.108,1.135-10.215,1.781-15.313q.944-7.651,2.125-15.277a.726.726,0,0,1,1.443.157Z" transform="translate(-162.651 -138.916)" fill="#3b3b56"/>
    <path id="Path_6185" data-name="Path 6185" d="M1065.794,567.5l-.044-.324a.655.655,0,0,1,.516-.73l.274-.055a24.925,24.925,0,0,1,3.208-.414c1.069-.07,2.139-.113,3.208-.094s2.139.056,3.208.161a22.509,22.509,0,0,1,3.208.494.661.661,0,0,1,0,1.285,22.518,22.518,0,0,1-3.208.494c-1.069.105-2.139.142-3.208.161s-2.139-.024-3.208-.094a24.936,24.936,0,0,1-3.208-.414l.79-.785-.093.471a.724.724,0,0,1-1.427-.042Z" transform="translate(-153.647 -130.478)" fill="#3b3b56"/>
    <path id="Path_6186" data-name="Path 6186" d="M953.263,621.585h-13.33a2.679,2.679,0,0,1-2.732-3.029l1.435-13.19a3.482,3.482,0,0,1,3.391-3.029h13.33a2.679,2.679,0,0,1,2.732,3.029l-1.435,13.19A3.482,3.482,0,0,1,953.263,621.585Z" transform="translate(-108.709 -143.221)" fill="#fff"/>
    <path id="Path_6187" data-name="Path 6187" d="M991.326,621.585H978a2.68,2.68,0,0,1-2.732-3.029l1.436-13.19a3.481,3.481,0,0,1,3.391-3.029h13.33a2.68,2.68,0,0,1,2.732,3.029l-1.436,13.19A3.481,3.481,0,0,1,991.326,621.585Z" transform="translate(-122.014 -143.221)" fill="#fff"/>
    <path id="Path_6188" data-name="Path 6188" d="M1028.613,621.585h-13.331a2.68,2.68,0,0,1-2.732-3.029l1.435-13.19a3.482,3.482,0,0,1,3.391-3.029h13.33a2.679,2.679,0,0,1,2.732,3.029L1032,618.556A3.482,3.482,0,0,1,1028.613,621.585Z" transform="translate(-135.048 -143.221)" fill="#fff"/>
    <path id="Path_6189" data-name="Path 6189" d="M1065.9,621.585h-13.33a2.679,2.679,0,0,1-2.732-3.029l1.435-13.19a3.482,3.482,0,0,1,3.391-3.029h13.33a2.68,2.68,0,0,1,2.732,3.029l-1.435,13.19A3.482,3.482,0,0,1,1065.9,621.585Z" transform="translate(-148.081 -143.221)" fill="#fff"/>
    <path id="Path_6190" data-name="Path 6190" d="M949.165,659.247h-13.33a2.68,2.68,0,0,1-2.732-3.029l1.436-13.19A3.481,3.481,0,0,1,937.929,640h13.33a2.68,2.68,0,0,1,2.732,3.029l-1.436,13.19A3.48,3.48,0,0,1,949.165,659.247Z" transform="translate(-107.277 -156.386)" fill="#fff"/>
    <path id="Path_6191" data-name="Path 6191" d="M987.229,659.247H973.9a2.679,2.679,0,0,1-2.732-3.029l1.435-13.19A3.482,3.482,0,0,1,975.992,640h13.33a2.68,2.68,0,0,1,2.732,3.029l-1.435,13.19A3.482,3.482,0,0,1,987.229,659.247Z" transform="translate(-120.582 -156.386)" fill="#fff"/>
    <path id="Path_6192" data-name="Path 6192" d="M1024.515,659.247h-13.33a2.68,2.68,0,0,1-2.732-3.029l1.436-13.19a3.481,3.481,0,0,1,3.391-3.029h13.33a2.68,2.68,0,0,1,2.732,3.029l-1.436,13.19A3.481,3.481,0,0,1,1024.515,659.247Z" transform="translate(-133.615 -156.386)" fill="#fff"/>
    <path id="Path_6193" data-name="Path 6193" d="M1061.8,659.247h-13.33a2.68,2.68,0,0,1-2.732-3.029l1.435-13.19a3.482,3.482,0,0,1,3.391-3.029h13.33a2.679,2.679,0,0,1,2.732,3.029l-1.435,13.19A3.482,3.482,0,0,1,1061.8,659.247Z" transform="translate(-146.649 -156.386)" fill="#fff"/>
    <path id="Path_6194" data-name="Path 6194" d="M945.109,696.525h-13.33a2.679,2.679,0,0,1-2.732-3.029l1.435-13.189a3.482,3.482,0,0,1,3.391-3.029H947.2a2.68,2.68,0,0,1,2.732,3.029L948.5,693.5A3.482,3.482,0,0,1,945.109,696.525Z" transform="translate(-105.86 -169.416)" fill="#fff"/>
    <path id="Path_6195" data-name="Path 6195" d="M983.173,696.525h-13.33a2.68,2.68,0,0,1-2.732-3.029l1.435-13.189a3.482,3.482,0,0,1,3.391-3.029h13.33A2.679,2.679,0,0,1,988,680.306L986.564,693.5A3.482,3.482,0,0,1,983.173,696.525Z" transform="translate(-119.164 -169.416)" fill="#fff"/>
    <path id="Path_6196" data-name="Path 6196" d="M1020.811,696.525h-13.33a2.68,2.68,0,0,1-2.732-3.029l1.436-13.189a3.481,3.481,0,0,1,3.391-3.029h13.33a2.68,2.68,0,0,1,2.732,3.029L1024.2,693.5A3.481,3.481,0,0,1,1020.811,696.525Z" transform="translate(-132.32 -169.416)" fill="#fff"/>
    <g id="Group_3271" data-name="Group 3271" transform="translate(872.612 503.096)">
      <ellipse id="Ellipse_467" data-name="Ellipse 467" cx="28.137" cy="24.854" rx="28.137" ry="24.854" transform="translate(0.538 46.062) rotate(-54.939)" fill="#37e1ca"/>
      <ellipse id="Ellipse_468" data-name="Ellipse 468" cx="28.137" cy="24.854" rx="28.137" ry="24.854" transform="translate(0 52.088) rotate(-54.939)" fill="#eaeae9" style="mix-blend-mode: multiply;isolation: isolate"/>
      <ellipse id="Ellipse_469" data-name="Ellipse 469" cx="20.833" cy="18.402" rx="20.833" ry="18.402" transform="matrix(0.574, -0.819, 0.819, 0.574, 9.966, 43.789)" fill="#fff"/>
      <path id="Path_6197" data-name="Path 6197" d="M1049.07,705.453c.734,1.158,1.415,2.341,2.073,3.536s1.3,2.4,1.914,3.612,1.214,2.438,1.806,3.663,1.158,2.465,1.707,3.711l.027.06a1.2,1.2,0,0,1-.131,1.189q-1.581,2.145-3.228,4.247c-1.1,1.4-2.22,2.783-3.4,4.129a.646.646,0,0,1-1.051-.739c.869-1.561,1.79-3.085,2.737-4.592s1.915-3,2.9-4.474l-.105,1.249c-.623-1.211-1.216-2.437-1.81-3.662s-1.164-2.461-1.711-3.709-1.093-2.5-1.6-3.76-1-2.537-1.445-3.836a.731.731,0,0,1,1.31-.624Z" transform="translate(-1019.96 -682.242)" fill="#3b3b56"/>
      <path id="Path_6198" data-name="Path 6198" d="M1023.108,711.465a26.849,26.849,0,0,0,.658,10.157,24.436,24.436,0,0,0,1.833,4.734l.283.568.326.544c.221.36.427.729.66,1.081a24.4,24.4,0,0,0,3.246,3.86c.31.284.635.55.951.827a9.826,9.826,0,0,0,.99.777,20.762,20.762,0,0,0,4.351,2.493l1.164.472,1.2.374a9.383,9.383,0,0,0,1.214.318c.41.086.816.193,1.229.263a24.065,24.065,0,0,0,2.5.279c.419.018.837.058,1.257.058l1.259-.049a25.731,25.731,0,0,0,9.724-2.4,29.985,29.985,0,0,0,8.274-5.73,30.518,30.518,0,0,0,8.964-17.712,26.636,26.636,0,0,0-.522-9.975,22.408,22.408,0,0,0-4.423-8.867,21.21,21.21,0,0,0-7.863-5.959,23.262,23.262,0,0,0-9.75-1.873,25.379,25.379,0,0,0-9.786,2.252,29.066,29.066,0,0,0-8.412,5.661,30.587,30.587,0,0,0-6.178,8.116,30.235,30.235,0,0,0-3.23,9.718Zm-1.356-.179A30.46,30.46,0,0,1,1024.813,701a32.338,32.338,0,0,1,6.293-8.748,30.844,30.844,0,0,1,8.876-6.2,27.569,27.569,0,0,1,10.572-2.617l1.376-.038c.459,0,.917.053,1.376.078l1.376.095c.458.046.909.151,1.363.224l1.361.248c.448.111.887.258,1.331.387l1.326.4,1.277.542a23.645,23.645,0,0,1,8.81,6.592,24.9,24.9,0,0,1,4.973,9.806,29.2,29.2,0,0,1,.645,10.945,33.033,33.033,0,0,1-9.819,19.149,29.724,29.724,0,0,1-19.645,8.574l-1.374.031c-.458-.007-.915-.056-1.372-.083a26.267,26.267,0,0,1-2.729-.346c-.451-.085-.9-.206-1.343-.308a10.686,10.686,0,0,1-1.326-.368l-1.309-.431-1.271-.535a22.1,22.1,0,0,1-4.717-2.816,10.984,10.984,0,0,1-1.063-.87c-.339-.308-.687-.606-1.018-.923a26.19,26.19,0,0,1-3.44-4.257c-.244-.385-.459-.788-.689-1.181l-.34-.593-.293-.617a26.156,26.156,0,0,1-1.862-5.113,28.415,28.415,0,0,1-.488-10.759Z" transform="translate(-1010.75 -674.652)" fill="#3b3b56"/>
    </g>
    <path id="Path_6199" data-name="Path 6199" d="M1130.584,520.581a242.991,242.991,0,0,1,5.8,33.917,119.446,119.446,0,0,1,.535,17.294,59.551,59.551,0,0,1-1.029,8.692,33.741,33.741,0,0,1-1.154,4.3c-.131.353-.253.707-.394,1.057l-.217.524-.109.262c-.053.112-.112.239-.183.362a2.933,2.933,0,0,1-.615.751,2.435,2.435,0,0,1-1.022.505,3.083,3.083,0,0,1-1.795-.2,8.626,8.626,0,0,1-2.137-1.343c-.6-.488-1.149-1-1.681-1.511-1.058-1.032-2.043-2.094-3.014-3.163-1.925-2.146-3.775-4.322-5.655-6.465a128.373,128.373,0,0,0-11.812-12.183,48.209,48.209,0,0,0-6.7-4.978,21.489,21.489,0,0,0-7.521-2.986,12.093,12.093,0,0,0-7.675,1.181,19.165,19.165,0,0,0-6.079,5.333l-.881-1.454c5.683-.869,11.362-1.763,17.051-2.6a.642.642,0,0,1,.213,1.266c-5.648,1.076-11.306,2.092-16.96,3.135a.908.908,0,0,1-.9-1.429l.018-.024a20.35,20.35,0,0,1,6.59-6.021,14.111,14.111,0,0,1,4.348-1.514,14.855,14.855,0,0,1,4.6-.038,23.681,23.681,0,0,1,8.39,3.126,48.438,48.438,0,0,1,7.094,5.167,130.812,130.812,0,0,1,12.134,12.334c1.9,2.143,3.776,4.3,5.676,6.406.947,1.052,1.9,2.09,2.885,3.058.492.482.992.949,1.5,1.363a6.348,6.348,0,0,0,1.462.959,1.485,1.485,0,0,0,.3.084.128.128,0,0,0-.07.037c-.006,0,.02-.019.055-.079l.059-.115.1-.233.2-.464c.127-.312.238-.634.359-.95a31.446,31.446,0,0,0,1.084-3.971,57.1,57.1,0,0,0,1.02-8.318,133.311,133.311,0,0,0-.332-16.965c-.435-5.665-1.151-11.316-1.975-16.952s-1.827-11.259-2.965-16.829l0-.016a.725.725,0,0,1,1.416-.315Z" transform="translate(-157.398 -114.45)" fill="#3b3b56"/>
    <g id="Group_3276" data-name="Group 3276" transform="translate(626.179 292.042)">
      <g id="Group_3274" data-name="Group 3274" transform="translate(0 0)">
        <path id="Path_6200" data-name="Path 6200" d="M691.262,347.435c5.128-.879,83.985,33.4,85.529,40.391S676.681,498.54,671.534,496.346s-25.524-13.014-24.039-15.34,13.973-3.087,12.777-5.487-29.925-48.013-32.318-52.813S677.783,349.747,691.262,347.435Z" transform="translate(-626.771 -346.158)" fill="#fb9387"/>
        <circle id="Ellipse_470" data-name="Ellipse 470" cx="10.912" cy="10.912" r="10.912" transform="translate(30.962 117.801) rotate(-66.383)" fill="#fff"/>
        <path id="Path_6201" data-name="Path 6201" d="M782.091,475.128c-5.517,5.061-77.644,20.3-82.263,16.777-4.288-3.268-24.4-69.341-17.99-76.693s75.221-24.65,83.9-18.537S787.608,470.068,782.091,475.128Z" transform="translate(-645.198 -362.927)" fill="#fff"/>
        <g id="Group_3273" data-name="Group 3273" transform="translate(35.391 32.465)">
          <g id="Group_3272" data-name="Group 3272" clip-path="url(#clip-path-3)">
            <path id="Path_6202" data-name="Path 6202" d="M754.456,513.7c1.678,12.7,13.276,20.733,25.9,17.943s19.773-13.946,18.094-26.646-10.753-22.307-24.172-19.343A25.269,25.269,0,0,0,754.456,513.7Z" transform="translate(-706.332 -426.753)" fill="#7f7ff8"/>
          </g>
        </g>
        <path id="Path_6204" data-name="Path 6204" d="M682.8,464.437l1.577,5.873,1.629,5.855q1.638,5.852,3.386,11.67a1.281,1.281,0,0,1-.859,1.595,1.254,1.254,0,0,1-.209.044l-.031,0a12.53,12.53,0,0,0-3.889,1.147,8.522,8.522,0,0,0-4.689,9.957,13.572,13.572,0,0,0,1.239,3.944,8.6,8.6,0,0,0,2.566,3.054,8.885,8.885,0,0,0,3.742,1.541,13.118,13.118,0,0,0,4.249-.045.643.643,0,0,1,.277,1.254,13.157,13.157,0,0,1-4.735.454A10.043,10.043,0,0,1,679,505.593a15.278,15.278,0,0,1-1.646-4.584,13.648,13.648,0,0,1-.127-4.934,10.253,10.253,0,0,1,2.074-4.651,11.333,11.333,0,0,1,3.962-3.131c.379-.167.76-.334,1.144-.49.39-.131.778-.272,1.171-.39.4-.1.786-.212,1.192-.3l1.248-.2-1.1,1.642q-1.695-5.878-3.112-11.829c-.457-1.987-.918-3.974-1.313-5.976s-.8-4-1.117-6.017a.726.726,0,0,1,1.419-.3Z" transform="translate(-643.966 -386.873)" fill="#3b3b56"/>
        <path id="Path_6205" data-name="Path 6205" d="M704.749,496.4c.6,1.438,1.211,2.869,1.888,4.247a21.193,21.193,0,0,0,1.073,1.982,3.735,3.735,0,0,0,.563.735,1.488,1.488,0,0,0,.658.214,21.915,21.915,0,0,0,4.468.012c1.537-.113,3.08-.282,4.622-.477,6.174-.767,12.335-1.854,18.471-3.026,12.27-2.371,24.516-5,36.578-8.207,3.016-.792,6.022-1.62,8.978-2.551,1.476-.466,2.942-.959,4.353-1.513a20.44,20.44,0,0,0,2.013-.9,4.68,4.68,0,0,0,.762-.483,1.284,1.284,0,0,0,.319-.509,8.6,8.6,0,0,0,.484-1.973c.106-.722.17-1.471.212-2.227.083-1.512.075-3.053.029-4.594-.1-3.086-.344-6.187-.654-9.283-.632-6.194-1.574-12.37-2.712-18.506q-1.662-9.215-4.07-18.275v-.005a.642.642,0,0,1,1.235-.354,215.959,215.959,0,0,1,7.807,36.889c.38,3.131.68,6.276.8,9.452.058,1.589.078,3.185,0,4.8-.04.809-.1,1.623-.218,2.452a10.794,10.794,0,0,1-.635,2.578,5.136,5.136,0,0,1-.36.707c-.088.126-.167.247-.271.371a3.419,3.419,0,0,1-.343.348,6.765,6.765,0,0,1-1.2.8,22.613,22.613,0,0,1-2.264,1.039c-1.5.6-3,1.116-4.51,1.6-3.014.972-6.044,1.83-9.082,2.651-6.086,1.6-12.2,3.02-18.34,4.356s-12.288,2.591-18.479,3.656-12.394,2.067-18.671,2.728c-1.571.153-3.148.282-4.738.353a23.155,23.155,0,0,1-4.909-.174,4.834,4.834,0,0,1-.7-.191,2.864,2.864,0,0,1-.394-.178,2.006,2.006,0,0,1-.4-.292,5.139,5.139,0,0,1-.85-1.132,21.938,21.938,0,0,1-1.1-2.18c-.648-1.46-1.214-2.933-1.762-4.411a.726.726,0,0,1,1.352-.528Z" transform="translate(-653.155 -375.112)" fill="#3b3b56"/>
        <path id="Path_6206" data-name="Path 6206" d="M699.83,498.935c4.615,3.523,76.741-11.718,82.259-16.774a3.276,3.276,0,0,0,.791-1.547c-22.48,6.312-65.61,14.614-69.143,11.918-4.293-3.269-24.4-69.338-17.99-76.7q.144-.161.327-.332c-7.3,2.52-12.661,4.928-14.233,6.735C675.433,429.6,695.537,495.666,699.83,498.935Z" transform="translate(-645.199 -369.957)" fill="#f4f4f4" style="mix-blend-mode: multiply;isolation: isolate"/>
        <path id="Path_6207" data-name="Path 6207" d="M667.042,438.238c11.713-1.255,16.241-10.916,23.722-13.235s15.723,7.851,25.885,5.606,14.129-14.446,14.129-14.446c2.253,4.166,11.986,6.012,18.338,4.608s5.8-9.94,12.149-11.344,9.519,3.892,13.965,2.91c0,0-.827-15.8-11.9-20.686S676.54,402.832,671.658,413.9,667.042,438.238,667.042,438.238Z" transform="translate(-640.461 -361.305)" fill="#fb9387"/>
        <path id="Path_6208" data-name="Path 6208" d="M697.7,410.156c.916,1.13,66.335-13.323,66.69-14.733s-.975-10.443-2.385-10.8-65.206,12.407-66.69,14.733S696.781,409.027,697.7,410.156Z" transform="translate(-650.201 -359.161)" fill="#3b3b56"/>
        <path id="Path_6209" data-name="Path 6209" d="M775.052,422.443a6.649,6.649,0,0,1-3.584-.192,25.391,25.391,0,0,1-3.069-1.286,11.3,11.3,0,0,0-5.754-1.386A6.379,6.379,0,0,0,757.777,422c-1.259,1.484-2.09,3.471-3.391,5.362a15.23,15.23,0,0,1-1.075,1.395,9.392,9.392,0,0,1-1.378,1.227,8.505,8.505,0,0,1-1.638.935,12.018,12.018,0,0,1-1.762.5,24.194,24.194,0,0,1-6.748.342,26.926,26.926,0,0,1-6.619-1.356,15.628,15.628,0,0,1-3.157-1.531,8.05,8.05,0,0,1-2.68-2.71l2.319-.211a28.846,28.846,0,0,1-2.059,4.527,26.955,26.955,0,0,1-2.769,4.1,19.163,19.163,0,0,1-8.016,5.995,11.757,11.757,0,0,1-1.224.384c-.415.108-.817.256-1.242.327a14.929,14.929,0,0,1-2.559.287,18.009,18.009,0,0,1-5.025-.621,55.812,55.812,0,0,1-8.944-3.64,31.994,31.994,0,0,0-4.225-1.674,9.047,9.047,0,0,0-4.156-.355,12.033,12.033,0,0,0-2.008.65l-.987.485c-.33.16-.641.378-.963.563a35.307,35.307,0,0,0-3.7,2.72,55.226,55.226,0,0,1-7.74,5.66,22.633,22.633,0,0,1-9.251,2.913.642.642,0,0,1-.137-1.277,22.1,22.1,0,0,0,8.539-3.08,59.579,59.579,0,0,0,7.324-5.742,37.1,37.1,0,0,1,3.851-2.958c.355-.216.689-.459,1.064-.652l1.123-.583a13.949,13.949,0,0,1,2.466-.853,11.262,11.262,0,0,1,5.193.292,30.324,30.324,0,0,1,4.594,1.717,54.109,54.109,0,0,0,8.576,3.427,15.509,15.509,0,0,0,4.334.5,12.472,12.472,0,0,0,2.132-.257c.353-.059.693-.2,1.039-.287a9.55,9.55,0,0,0,1.028-.328,17.173,17.173,0,0,0,6.916-5.256,24.505,24.505,0,0,0,2.537-3.713,26.687,26.687,0,0,0,1.883-4.058l.007-.019a1.271,1.271,0,0,1,2.312-.192,5.641,5.641,0,0,0,1.829,1.81,13.119,13.119,0,0,0,2.627,1.286,24.477,24.477,0,0,0,5.975,1.254,23.665,23.665,0,0,0,6.1-.215,9.968,9.968,0,0,0,1.346-.342,6.2,6.2,0,0,0,1.165-.64,7.145,7.145,0,0,0,1.045-.89,13.024,13.024,0,0,0,.912-1.142c1.185-1.616,2.066-3.65,3.62-5.446a8.161,8.161,0,0,1,2.874-2.221c.141-.065.278-.138.421-.2l.442-.133c.295-.083.591-.182.885-.244a11.615,11.615,0,0,1,1.758-.194,11.053,11.053,0,0,1,1.772.078,12.852,12.852,0,0,1,1.711.39,19.737,19.737,0,0,1,3.109,1.3c1.927.971,3.752,2,5.6,1.609a.726.726,0,0,1,.328,1.413Z" transform="translate(-640.127 -370.702)" fill="#3b3b56"/>
        <path id="Path_6210" data-name="Path 6210" d="M653.889,466.708,636.132,438.6c-2.932-4.709-5.864-9.4-8.706-14.2l-.529-.909-.522-.959a3.1,3.1,0,0,1-.176-.585,2.606,2.606,0,0,1-.017-.451l.007-.214.027-.17.06-.337a8.791,8.791,0,0,1,.351-1.143,30.53,30.53,0,0,1,1.885-3.891c1.375-2.464,2.872-4.819,4.4-7.149,3.066-4.656,6.308-9.173,9.636-13.623s6.741-8.834,10.231-13.158a316.855,316.855,0,0,1,22.126-24.981c1.991-1.959,4.041-3.869,6.192-5.69,1.081-.905,2.191-1.787,3.353-2.621a23.319,23.319,0,0,1,3.762-2.264,9.569,9.569,0,0,1,1.086-.435,7.389,7.389,0,0,1,1.229-.315c.157-.015.323-.025.475-.025l.343.028c.243.016.409.06.615.09.383.073.747.153,1.1.246,1.409.363,2.739.8,4.068,1.251,2.649.909,5.252,1.894,7.844,2.9q15.52,6.111,30.613,13.126,7.558,3.488,15.028,7.172c4.972,2.472,9.919,5,14.765,7.75,2.417,1.388,4.814,2.812,7.132,4.419a23.089,23.089,0,0,1,3.356,2.721,4.72,4.72,0,0,1,.388.434,3.73,3.73,0,0,1,.368.507,2.154,2.154,0,0,1,.375,1.534,5.006,5.006,0,0,1-.4,1.194c-.165.341-.336.672-.521.98a38.653,38.653,0,0,1-2.385,3.511c-.835,1.123-1.7,2.218-2.574,3.3-1.751,2.164-3.55,4.28-5.371,6.374a.642.642,0,0,1-.976-.834c1.775-2.12,3.526-4.259,5.22-6.435.848-1.087,1.679-2.185,2.477-3.3a37.385,37.385,0,0,0,2.221-3.4,6.025,6.025,0,0,0,.7-1.629c.09-.089-.275-.65-.717-1.071a21.681,21.681,0,0,0-3.142-2.44c-2.266-1.51-4.662-2.875-7.075-4.2-9.681-5.284-19.721-9.971-29.8-14.517-10.105-4.5-20.265-8.905-30.564-12.893-2.575-.99-5.16-1.956-7.755-2.835-1.295-.435-2.6-.855-3.878-1.178-.319-.083-.633-.15-.93-.206-.136-.018-.308-.059-.412-.06l-.175-.016a.058.058,0,0,1-.043,0,6.97,6.97,0,0,0-1.615.553,20.959,20.959,0,0,0-3.336,2.035c-1.084.785-2.143,1.632-3.182,2.509-2.07,1.768-4.071,3.645-6.021,5.58a315.514,315.514,0,0,0-22,24.709c-6.953,8.584-13.657,17.4-19.856,26.508-1.533,2.284-3.032,4.6-4.38,6.958a28.658,28.658,0,0,0-1.776,3.563,6.752,6.752,0,0,0-.271.836l-.033.174-.018.086,0,.045a.312.312,0,0,1-.008.066c.009-.031-.023-.088-.036-.085l.464.87.507.891c2.757,4.764,5.662,9.5,8.532,14.228l17.261,28.412a.726.726,0,0,1-1.234.763Z" transform="translate(-626.179 -345.481)" fill="#3b3b56"/>
        <path id="Path_6211" data-name="Path 6211" d="M806.779,463.195a11.021,11.021,0,0,1,.807,2.127,18.221,18.221,0,0,1,.457,2.182,18.613,18.613,0,0,1,.2,2.223,11.247,11.247,0,0,1-.151,2.278.681.681,0,0,1-1.268.2,11.249,11.249,0,0,1-.846-2.12,18.608,18.608,0,0,1-.5-2.175,18.278,18.278,0,0,1-.238-2.217,11.028,11.028,0,0,1,.11-2.271.766.766,0,0,1,1.434-.227Z" transform="translate(-688.763 -386.484)" fill="#3b3b56"/>
        <path id="Path_6212" data-name="Path 6212" d="M765.491,479.371a12.554,12.554,0,0,1-.779-2.3,20.866,20.866,0,0,1-.429-2.349,21.25,21.25,0,0,1-.167-2.384,12.781,12.781,0,0,1,.181-2.431.677.677,0,0,1,1.273-.172,12.769,12.769,0,0,1,.819,2.3,21.2,21.2,0,0,1,.472,2.343,20.861,20.861,0,0,1,.209,2.379,12.551,12.551,0,0,1-.141,2.426.761.761,0,0,1-.88.62A.771.771,0,0,1,765.491,479.371Z" transform="translate(-674.394 -388.78)" fill="#3b3b56"/>
      </g>
      <path id="Path_6213" data-name="Path 6213" d="M853.044,936.594c0,5.433-37.153,5.433-82.983,5.433s-76.21,0-76.21-5.433,30.38-5.433,76.21-5.433S853.044,931.161,853.044,936.594Z" transform="translate(-649.834 -550.202)" fill="#eaeae9" opacity="0.6" style="mix-blend-mode: multiply;isolation: isolate"/>
      <path id="Path_6214" data-name="Path 6214" d="M797.071,561.036c6.457.785,3.9,91.714,2.6,99.52s-4.187,109.159-6.789,111.761-78.705,1.951-81.957,0,5.488-100.7,4.187-105.257-25.368-83.258-22.766-89.112S748.937,555.182,797.071,561.036Z" transform="translate(-649.239 -420.403)" fill="#fff"/>
      <path id="Path_6215" data-name="Path 6215" d="M841.232,914.508l21.05,15.936H839.516Z" transform="translate(-700.75 -544.381)" fill="#3b3b56"/>
      <path id="Path_6216" data-name="Path 6216" d="M713.28,916.508l21,14.635H711.516Z" transform="translate(-656.008 -545.08)" fill="#3b3b56"/>
      <path id="Path_6217" data-name="Path 6217" d="M764,568.885c2.9,1.953,5.749,3.967,8.624,5.95q4.288,3.006,8.555,6.043l-1.585.18,8.386-9.818a1.261,1.261,0,0,1,1.674-.219l.019.013,2.777,1.934,2.767,1.947c1.832,1.317,3.674,2.619,5.488,3.961l-1.9.7q.868-3.238,1.819-6.456c.31-1.074.638-2.144.976-3.211s.661-2.138,1.024-3.2a.645.645,0,0,1,1.246.312c-.18,1.107-.393,2.206-.6,3.3s-.418,2.2-.649,3.293q-.679,3.286-1.434,6.553a1.213,1.213,0,0,1-1.854.734l-.043-.029c-1.871-1.261-3.716-2.56-5.569-3.846l-2.762-1.955-2.752-1.968,1.693-.206-8.526,9.7-.014.016a1.168,1.168,0,0,1-1.571.164q-4.2-3.135-8.356-6.315c-2.762-2.137-5.548-4.242-8.289-6.409a.726.726,0,0,1,.856-1.172Z" transform="translate(-673.959 -422.659)" fill="#3b3b56"/>
      <path id="Path_6218" data-name="Path 6218" d="M796.252,563.16a4.925,4.925,0,0,0-1.452-.606c-.563-.159-1.153-.286-1.748-.395-1.194-.215-2.413-.371-3.638-.5-2.45-.252-4.923-.4-7.4-.509s-4.955-.163-7.436-.2-4.962-.062-7.444-.055c-4.964.018-9.93.122-14.881.351-2.473.122-4.947.262-7.393.475-2.427.207-4.841.609-7.275,1.053a231.617,231.617,0,0,0-28.741,7.365c-2.342.775-4.664,1.6-6.935,2.525a48.208,48.208,0,0,0-6.54,3.159,14.534,14.534,0,0,0-2.731,2.049,4.087,4.087,0,0,0-.831,1.143l-.049.132c-.005.01-.026.069-.019.04.06-.278.023-.129.033-.155l0,.048-.035.451-.067.926-.487,7.441q-.92,14.894-1.494,29.8c-.185,4.968-.33,9.936-.384,14.9-.032,4.954-.057,9.943.379,14.805a18.344,18.344,0,0,0,.589,3.438,2.008,2.008,0,0,0,.218.492.569.569,0,0,0-.315-.134.58.58,0,0,0-.285.031c-.016,0-.062.031-.045.021l.09-.055a12.931,12.931,0,0,0,1.417-.974,28.734,28.734,0,0,0,4.876-5.262,117.308,117.308,0,0,0,7.827-12.548c2.432-4.33,4.767-8.734,7.339-13.039a68.573,68.573,0,0,1,4.191-6.3,25.8,25.8,0,0,1,2.552-2.909,9.8,9.8,0,0,1,3.412-2.256l-.073.029,23.14-10.26.351,1.473c-2.023.1-4.073.275-6.1.494s-4.059.5-6.069.842-4.005.766-5.957,1.309a26.475,26.475,0,0,0-5.593,2.161l-.016.009a.674.674,0,0,1-1-.518,28.974,28.974,0,0,1-.165-3.1,22.474,22.474,0,0,1,.2-3.112,10.588,10.588,0,0,1,.869-3.1,4.944,4.944,0,0,1,1-1.416,3.441,3.441,0,0,1,1.613-.877l.012,0a.642.642,0,0,1,.278,1.254h0a2.68,2.68,0,0,0-1.732,1.61,9.338,9.338,0,0,0-.732,2.713,21.09,21.09,0,0,0-.167,2.925,27.93,27.93,0,0,0,.173,2.938l-1.011-.509a27.8,27.8,0,0,1,5.88-2.329c2.011-.575,4.046-1.015,6.088-1.385s4.1-.66,6.155-.9,4.113-.428,6.2-.546a.77.77,0,0,1,.364,1.468l-.013.006L722.2,609.549l-.062.025-.011,0a8.136,8.136,0,0,0-2.736,1.884,24.068,24.068,0,0,0-2.339,2.724,66.9,66.9,0,0,0-4.012,6.168c-2.5,4.262-4.817,8.669-7.234,13.035a119.112,119.112,0,0,1-7.9,12.821,30.772,30.772,0,0,1-5.226,5.683,15.343,15.343,0,0,1-1.652,1.148l-.109.066a2.455,2.455,0,0,1-.255.122,1.57,1.57,0,0,1-.742.1,1.7,1.7,0,0,1-.387-.1,2.022,2.022,0,0,1-.307-.167,1.966,1.966,0,0,1-.386-.36,3.685,3.685,0,0,1-.6-1.173,19.928,19.928,0,0,1-.712-3.9c-.481-5.057-.479-10.044-.478-15.042.025-4.994.142-9.98.3-14.964.321-9.966.831-19.919,1.415-29.868l.472-7.464.066-.936.037-.481.006-.068a1.181,1.181,0,0,1,.046-.271l.061-.179.115-.305a6.433,6.433,0,0,1,1.315-1.888,16.841,16.841,0,0,1,3.2-2.455,50.539,50.539,0,0,1,6.872-3.38c2.336-.965,4.7-1.824,7.08-2.628,4.756-1.614,9.586-2.944,14.437-4.173s9.737-2.3,14.674-3.2c2.463-.439,4.969-.847,7.5-1.052,2.515-.217,5.014-.331,7.515-.409,5-.157,9.991-.188,14.984-.131s9.986.21,14.977.567c2.5.177,4.99.395,7.485.72,1.247.163,2.5.357,3.745.617.625.132,1.251.284,1.88.48a6,6,0,0,1,1.934.918.725.725,0,0,1-.868,1.16Z" transform="translate(-647.454 -420.012)" fill="#3b3b56"/>
      <path id="Path_6219" data-name="Path 6219" d="M732.008,772.914q17.194.092,34.39-.059c5.73-.057,11.46-.139,17.184-.279s11.456-.288,17.125-.717c1.408-.116,2.835-.243,4.157-.481a6.139,6.139,0,0,0,.877-.215.76.76,0,0,0,.11-.045.53.53,0,0,0-.162.161.767.767,0,0,0-.057.089.2.2,0,0,0,.012-.038c.014-.038.032-.113.049-.176.137-.589.232-1.309.318-2,.331-2.8.541-5.662.747-8.511.4-5.706.719-11.428,1.024-17.15.6-11.445,1.123-22.9,1.668-34.352l1.617-34.369.463-8.6c.087-1.437.174-2.867.3-4.328.068-.736.1-1.4.158-2.1l.107-2.134c.263-5.705.422-11.438.574-17.163.283-11.454.515-22.913.566-34.368.034-11.448.043-22.927-.649-34.3v-.009a1.225,1.225,0,0,1,2.43-.281c1.769,10.348,3.724,20.687,5.926,30.953,1.1,5.133,2.262,10.253,3.588,15.318.665,2.531,1.37,5.049,2.165,7.526a40.3,40.3,0,0,0,2.859,7.091,5.762,5.762,0,0,0,.97,1.309.905.905,0,0,0,.275.186c0-.008-.07.016-.016,0a.593.593,0,0,0,.137-.081,3.383,3.383,0,0,0,.782-1.212,13.474,13.474,0,0,0,.593-1.724,56.846,56.846,0,0,0,1.35-7.612c.632-5.187,1.04-10.435,1.536-15.68s1.023-10.5,1.924-15.742a56.541,56.541,0,0,1,1.862-7.805,20.739,20.739,0,0,1,1.635-3.788,7.264,7.264,0,0,1,3.133-3.148l-.53.813c.064-3.226.236-6.42.578-9.629a46.935,46.935,0,0,1,.742-4.809,17.048,17.048,0,0,1,.688-2.407,6.63,6.63,0,0,1,.588-1.208,2.539,2.539,0,0,1,1.24-1.1.718.718,0,0,1,.889,1.009l-.01.018-10.984,20.31a.668.668,0,0,1-.9.271.675.675,0,0,1-.33-.422c-.581-2.267-1.19-4.535-1.829-6.787q-.479-1.69-.995-3.365c-.347-1.113-.7-2.227-1.114-3.3v0a.642.642,0,0,1,1.2-.462c.436,1.123.8,2.247,1.155,3.375s.691,2.258,1.016,3.391q.979,3.4,1.864,6.817l-1.235-.151,10.884-20.364.878,1.027a1.25,1.25,0,0,0-.475.509,5.259,5.259,0,0,0-.437.949,15.646,15.646,0,0,0-.584,2.2,45.83,45.83,0,0,0-.634,4.655c-.28,3.139-.394,6.323-.4,9.474a.891.891,0,0,1-.524.81l-.007,0a5.57,5.57,0,0,0-2.279,2.42,18.973,18.973,0,0,0-1.454,3.461,54.757,54.757,0,0,0-1.73,7.554c-.857,5.141-1.358,10.368-1.826,15.6s-.851,10.485-1.466,15.75a58.508,58.508,0,0,1-1.373,7.924,15.38,15.38,0,0,1-.682,2.007,5.25,5.25,0,0,1-1.4,2.033,2.724,2.724,0,0,1-.713.412,2.094,2.094,0,0,1-.983.127,2.686,2.686,0,0,1-1.451-.706,7.64,7.64,0,0,1-1.408-1.821,27.443,27.443,0,0,1-1.748-3.723c-.494-1.252-.935-2.512-1.352-3.776-.83-2.529-1.56-5.075-2.25-7.629-1.373-5.108-2.577-10.247-3.715-15.4-2.243-10.309-4.222-20.653-6.026-31.048l2.43-.29c.729,11.525.745,23,.74,34.481q-.056,17.22-.513,34.427c-.162,5.739-.33,11.469-.6,17.219l-.112,2.16c-.056.725-.1,1.492-.167,2.184-.124,1.4-.213,2.828-.3,4.251l-.476,8.576-1.676,34.357q-.821,17.184-1.806,34.365c-.339,5.727-.693,11.454-1.129,17.184-.226,2.868-.451,5.726-.809,8.619a22.328,22.328,0,0,1-.378,2.245c-.03.11-.054.21-.1.341a1.969,1.969,0,0,1-.081.215,1.782,1.782,0,0,1-.181.326,1.655,1.655,0,0,1-.587.481,2.944,2.944,0,0,1-.385.163,8.153,8.153,0,0,1-1.209.3c-1.5.26-2.937.373-4.386.485-5.77.394-11.505.515-17.248.6s-11.479.1-17.216.092q-17.211-.025-34.415-.315a.726.726,0,0,1,.018-1.451Z" transform="translate(-662.915 -420.01)" fill="#3b3b56"/>
      <path id="Path_6220" data-name="Path 6220" d="M695.963,610.013c5.373,17.292,10.706,34.592,15.688,52.011,1.246,4.355,2.476,8.715,3.637,13.106.575,2.2,1.147,4.389,1.616,6.668a13.307,13.307,0,0,1,.267,1.886c-.014.628-.051,1.177-.076,1.77-.049,1.179-.141,2.276-.209,3.418-.6,9.044-1.275,18.067-1.942,27.1L712.9,743.045l-2.156,27.068-2.178,27.066-2.279,27.058-1.026-1.11,11.383.062,11.382.1-.495,1.572-19.387-13.842a.642.642,0,0,1,.737-1.052l19.641,13.478a.862.862,0,0,1-.474,1.572h-.021l-11.382.1-11.383.063a1.024,1.024,0,0,1-1.03-1.019l0-.078v-.014L706.216,797l2.057-27.074,4.14-54.145c.692-9.022,1.389-18.049,2.016-27.065.07-1.117.168-2.275.215-3.357l.079-1.62a12.875,12.875,0,0,0-.215-1.47c-.423-2.158-.972-4.358-1.52-6.539-1.111-4.371-2.3-8.734-3.5-13.092-2.4-8.72-4.923-17.409-7.387-26.116q-3.722-13.053-7.528-26.083a.725.725,0,0,1,1.389-.42Z" transform="translate(-650.076 -437.768)" fill="#3b3b56"/>
      <path id="Path_6221" data-name="Path 6221" d="M843.269,898.276l-.926,6.074-.849,6.08c-.261,2.027-.517,4.052-.714,6.072a47.743,47.743,0,0,0-.288,5.961,6.288,6.288,0,0,0,.161,1.248.9.9,0,0,0,.055.152c.006.02.01-.021-.119-.133a.8.8,0,0,0-.315-.16l.106.018c.064.016.2.027.3.04.908.088,1.945.123,2.948.144,2.026.038,4.073.027,6.117,0,4.091-.023,8.194-.123,12.289-.2l-.689,2.209q-5.007-3.786-9.964-7.639-2.484-1.919-4.941-3.875c-1.642-1.3-3.287-2.592-4.912-3.914a.643.643,0,0,1,.766-1.032c1.736,1.171,3.452,2.37,5.171,3.566s3.436,2.391,5.141,3.6q5.123,3.63,10.2,7.322a1.221,1.221,0,0,1-.658,2.208l-.031,0c-4.115.184-8.222.282-12.344.348-2.061.016-4.122.02-6.2-.027-1.05-.033-2.068-.05-3.2-.185-.154-.023-.278-.033-.465-.073l-.271-.058a1.746,1.746,0,0,1-.654-.337,2.137,2.137,0,0,1-.565-.754,3.368,3.368,0,0,1-.2-.573,8.492,8.492,0,0,1-.22-1.8,43.407,43.407,0,0,1,.434-6.326q.39-3.092.932-6.136c.347-2.035.741-4.058,1.16-6.075s.844-4.029,1.33-6.037a.726.726,0,0,1,1.424.278Z" transform="translate(-700.214 -538.414)" fill="#3b3b56"/>
      <path id="Path_6222" data-name="Path 6222" d="M710.926,775.984c3.252,1.951,79.356,2.6,81.957,0a9.919,9.919,0,0,0,.929-3.135c-22.954.748-64.883.019-67.276-1.418-3.252-1.951,5.488-100.7,4.187-105.257s-25.368-83.258-22.766-89.112c.729-1.633,5.457-4.13,12.944-6.752-16.248,3.981-27.4,8.723-28.555,11.3-2.6,5.854,21.465,84.559,22.766,89.112S707.674,774.033,710.926,775.984Z" transform="translate(-649.239 -424.069)" fill="#f4f4f4" style="mix-blend-mode: multiply;isolation: isolate"/>
      <g id="Group_3275" data-name="Group 3275" transform="translate(102.187 96.981)">
        <path id="Path_6223" data-name="Path 6223" d="M784.391,506.078s1.372-9.025,5.976-9.571,5.291,6.287,5.291,6.287Z" transform="translate(-783.668 -495.242)" fill="#fff"/>
        <path id="Path_6224" data-name="Path 6224" d="M783.484,505.916a.787.787,0,0,1-.2-.494.772.772,0,0,1,.007-.138l0-.016v-.011l0-.045.01-.086.022-.172.047-.34.109-.673c.077-.448.173-.893.277-1.337a21.718,21.718,0,0,1,.8-2.643,12.429,12.429,0,0,1,1.3-2.554,6.846,6.846,0,0,1,2.249-2.183,4.824,4.824,0,0,1,1.631-.581,5.388,5.388,0,0,1,1.725.007,4.958,4.958,0,0,1,2.947,1.774,8.367,8.367,0,0,1,1.465,2.708,12.409,12.409,0,0,1,.633,2.87l0,.027a1.217,1.217,0,0,1-.891,1.291c-2.055.56-4.162,1.059-6.207,1.471s-4.012.757-5.831,1.1Zm1.026-1.019c1.9-.737,3.668-1.478,5.351-2.147,1.71-.684,3.359-1.28,5.06-1.814l-.888,1.317a9.22,9.22,0,0,0-1.613-4.172,2.651,2.651,0,0,0-1.443-.967,2.885,2.885,0,0,0-.9-.047,2.639,2.639,0,0,0-.862.241,4.6,4.6,0,0,0-1.594,1.371,11.868,11.868,0,0,0-1.25,2.061,19.686,19.686,0,0,0-.951,2.337c-.137.4-.261.811-.38,1.221l-.169.617-.077.309-.037.153-.017.076-.008.037,0,.009s0,.014,0-.005a.628.628,0,0,0,.006-.128A.7.7,0,0,0,784.51,504.9Z" transform="translate(-783.279 -494.579)" fill="#3b3b56"/>
      </g>
    </g>
  </g>
</svg>
