<svg xmlns="http://www.w3.org/2000/svg" width="104.636" height="171.669" viewBox="0 0 104.636 171.669">
  <g id="_reserv_er"  transform="translate(-601.089 -236.005)">
    <g id="Group_3289"  transform="translate(601.438 236.005)">
      <path id="Path_6271"  d="M817.53,236.005" transform="translate(-748.734 -236.005)" fill="none"/>
      <g id="Group_3288"  transform="translate(0 22.359)">
        <g id="Group_3286" >
          <path id="Path_6272"  d="M672.327,452.534H611.34a7.759,7.759,0,0,1-7.86-8.934l15.24-126.733a10.362,10.362,0,0,1,10.009-8.934h60.987a7.759,7.759,0,0,1,7.86,8.934L682.335,443.6A10.362,10.362,0,0,1,672.327,452.534Z" transform="translate(-603.02 -307.313)" fill="#eaeae9"/>
          <path id="Path_6273"  d="M681.371,452.534H611.34a7.759,7.759,0,0,1-7.86-8.934l15.24-126.733a10.362,10.362,0,0,1,10.009-8.934H698.76a7.76,7.76,0,0,1,7.86,8.934L691.38,443.6A10.362,10.362,0,0,1,681.371,452.534Z" transform="translate(-603.02 -307.313)" fill="#efefef"/>
          <path id="Path_6274"  d="M700.668,351.706H633.684a2.343,2.343,0,0,0-2.264,2.021L617.7,467.784a1.755,1.755,0,0,0,1.778,2.021h66.984a2.344,2.344,0,0,0,2.264-2.021l13.716-114.058A1.755,1.755,0,0,0,700.668,351.706Z" transform="translate(-612.735 -337.103)" fill="#efefef"/>
          <path id="Path_6275"  d="M765.1,328.846H751.863c-1.081,0-.895-1.551.186-1.551h13.235C766.347,327.295,766.161,328.846,765.1,328.846Z" transform="translate(-703.553 -320.49)" fill="#f4f4f4"/>
          <path id="Path_6276"  d="M717.077,737.295H703.842c-1.081,0-.895-1.551.187-1.551h13.234C718.327,735.744,718.14,737.295,717.077,737.295Z" transform="translate(-670.873 -598.455)" fill="#f4f4f4"/>
          <path id="Path_6277"  d="M865.379,335.19l-1.763,15.858L861.791,366.9,858.04,398.59l-3.89,31.673-1.994,15.831L850.1,461.917a.315.315,0,0,1-.626-.075l1.753-15.86,1.816-15.852,3.73-31.693,3.869-31.676,1.984-15.832,2.047-15.825a.356.356,0,0,1,.708.085Z" transform="translate(-770.471 -325.593)" fill="#3c4958"/>
          <path id="Path_6278"  d="M751.19,328.094a1.026,1.026,0,0,1-.728-.238.972.972,0,0,1-.312-.741,1.211,1.211,0,0,1,.906-1.158,1.545,1.545,0,0,1,.366-.048l.285-.011.571-.015,1.141-.03c1.521-.047,3.043-.049,4.564-.054s3.043.014,4.564.057l1.141.034.571.017.285.009.073,0,.1.007a1.172,1.172,0,0,1,.2.035.96.96,0,0,1,.643.551,1.107,1.107,0,0,1,.016.781,1.122,1.122,0,0,1-1.146.774.237.237,0,0,1-.005-.473h.005a.616.616,0,0,0,.572-.475.473.473,0,0,0-.036-.334.276.276,0,0,0-.217-.136.474.474,0,0,0-.083-.008l-.116,0-.285.008-.571.017-1.141.034c-1.521.042-3.043.053-4.564.056s-3.043-.007-4.564-.054l-1.141-.03-.571-.015-.285-.012a.79.79,0,0,0-.2.008.538.538,0,0,0-.439.484c-.015.24.1.4.407.425h.01a.267.267,0,0,1-.01.533Z" transform="translate(-702.879 -319.471)" fill="#525c7c"/>
          <g id="Group_3284"  transform="translate(31.774 136.81)">
            <path id="Path_6279"  d="M716.071,736.542c-2.624.052-5.248.114-7.873.147-1.312.02-2.624.041-3.936.045l-.984.006h-.369c-.039,0-.079,0-.146,0a1.194,1.194,0,0,1-.738-.275,1.111,1.111,0,0,1-.378-.736,1.349,1.349,0,0,1,.653-1.29,1.416,1.416,0,0,1,.707-.193c2.633.021,5.251.021,7.877.06l3.936.067.984.027.5.015a1.022,1.022,0,0,1,.637.249.929.929,0,0,1,.3.627,1.143,1.143,0,0,1-.133.627,1.121,1.121,0,0,1-.443.452,1.162,1.162,0,0,1-.6.141Zm0-.5a.618.618,0,0,0,.557-.365.472.472,0,0,0-.074-.56.425.425,0,0,0-.27-.077l-.479.011-.984.027-3.936.067c-2.622.04-5.253.039-7.868.061a.408.408,0,0,0-.384.216c-.079.143-.044.307.006.334a.262.262,0,0,0,.169.053l.469,0,.984.006c1.312,0,2.624.025,3.936.045,2.624.033,5.248.095,7.873.146Z" transform="translate(-701.641 -734.245)" fill="#3c4958"/>
          </g>
          <g id="Group_3285" >
            <path id="Path_6280"  d="M605.56,420.977,603.9,434.992l-.83,7.008c-.042.3-.055.574-.074.855-.006.14-.027.28-.021.42l.015.42c.008.14,0,.281.021.42l.058.416a5.354,5.354,0,0,0,.167.82,7.312,7.312,0,0,0,1.533,2.935,7.109,7.109,0,0,0,2.693,1.918,8.375,8.375,0,0,0,3.288.588l7.057-.013,14.114-.026,28.226-.047,14.114-.013,3.529,0,1.764,0h.882c.288-.006.557-.027.836-.038a9.7,9.7,0,0,0,5.915-2.82,9.977,9.977,0,0,0,1.943-2.706l.183-.376c.054-.128.1-.259.149-.389l.147-.39c.047-.131.075-.267.114-.4a5.8,5.8,0,0,0,.188-.81c.045-.275.1-.538.128-.839l.836-7.007,1.672-14.014,3.343-28.028,6.688-56.056,1.693-14.012.847-7.005c.042-.3.055-.568.075-.84.006-.136.028-.273.022-.409l-.013-.409c-.008-.135,0-.273-.019-.408l-.056-.4a5.17,5.17,0,0,0-.16-.8,7.094,7.094,0,0,0-1.48-2.851,6.9,6.9,0,0,0-2.609-1.868,7.245,7.245,0,0,0-1.561-.45,9.508,9.508,0,0,0-1.648-.131l-7.057,0-14.113-.008-28.227-.016-14.114-.01-3.528-.005-1.764,0h-.882c-.288.005-.554.025-.833.036a9.662,9.662,0,0,0-5.9,2.8,9.963,9.963,0,0,0-1.946,2.695l-.183.374c-.054.128-.1.259-.149.388l-.148.389c-.048.13-.076.266-.115.4a5.771,5.771,0,0,0-.189.809c-.046.275-.1.537-.13.838l-.853,7-1.707,14.01-3.416,28.019-6.891,56.031Zm-.667-.08,6.589-56.068,3.325-28.03,1.663-14.015.832-7.007c.028-.286.087-.6.138-.905a6.786,6.786,0,0,1,.21-.908c.043-.149.076-.3.128-.448l.163-.436c.056-.145.107-.292.167-.435l.2-.419a11.065,11.065,0,0,1,2.154-3,10.782,10.782,0,0,1,6.589-3.136c.309-.015.629-.038.93-.043h.882l1.764,0,3.528-.005,14.114-.01,28.227-.017L690.611,306l7.057,0c.284-.007.616.02.925.033a7.206,7.206,0,0,1,.938.114,8.5,8.5,0,0,1,1.821.524,8.132,8.132,0,0,1,3.076,2.2,8.341,8.341,0,0,1,1.748,3.351,6.365,6.365,0,0,1,.188.93l.064.47c.021.157.016.315.024.472l.015.473c.005.158-.016.314-.024.471-.021.314-.041.634-.081.917l-.839,7.006-1.677,14.014-6.792,56.043-3.4,28.022-1.7,14.011-.849,7.005c-.028.286-.089.6-.14.9a6.818,6.818,0,0,1-.212.907c-.044.149-.077.3-.129.447l-.164.435c-.056.144-.108.291-.168.433l-.2.418a11.054,11.054,0,0,1-2.156,2.992,10.75,10.75,0,0,1-6.576,3.112c-.308.014-.626.035-.926.041h-.882l-1.764,0-3.529,0-14.114-.013-28.226-.047-14.114-.026-7.057-.013a9.218,9.218,0,0,1-3.605-.664,7.93,7.93,0,0,1-2.992-2.15,8.118,8.118,0,0,1-1.694-3.267,6.081,6.081,0,0,1-.181-.907l-.062-.458c-.02-.153-.014-.307-.022-.461l-.014-.461c-.005-.154.017-.306.024-.46.022-.306.04-.617.081-.9l.855-7,1.711-14.009Z" transform="translate(-602.18 -305.993)" fill="#3c4958"/>
          </g>
        </g>
        <path id="Path_6281"  d="M700.668,351.706H633.684a2.343,2.343,0,0,0-2.264,2.021L617.7,467.784a1.755,1.755,0,0,0,1.778,2.021h66.984a2.344,2.344,0,0,0,2.264-2.021l13.716-114.058A1.755,1.755,0,0,0,700.668,351.706Z" transform="translate(-612.735 -337.103)" fill="#b6b6fc"/>
        <g id="Group_3287"  transform="translate(4.63 13.977)">
          <path id="Path_6282"  d="M631.1,352.244l-.025.213-10.9,93.009-1.371,11.624-.686,5.812-.171,1.453-.086.727-.043.363-.02.179-.012.148a1.549,1.549,0,0,0,.265,1.022,1.106,1.106,0,0,0,.841.438l23.378-.021,23.416-.027,11.708-.013,5.854-.007,1.464,0h.915c.062,0,.09,0,.137-.006a1.316,1.316,0,0,0,.252-.042,1.7,1.7,0,0,0,.885-.562,1.729,1.729,0,0,0,.274-.451,1.958,1.958,0,0,0,.079-.246l.021-.126c.008-.044.015-.116.022-.173l11.263-92.983,1.42-11.622.71-5.811.355-2.905a1.32,1.32,0,0,0-.244-1,1.235,1.235,0,0,0-.891-.465l-23.371-.01-23.413-.034-11.707-.017-5.853-.008-1.463,0h-1.1a3.014,3.014,0,0,0-.316.035,1.813,1.813,0,0,0-1.079.575,2.228,2.228,0,0,0-.351.534A3.537,3.537,0,0,0,631.1,352.244Zm-.763.391.078-.3a4.375,4.375,0,0,1,.268-.767,2.851,2.851,0,0,1,.447-.687,2.461,2.461,0,0,1,1.445-.788,3.46,3.46,0,0,1,.411-.046l.366,0,.732,0,1.463-.007L641.4,350l11.709-.059,23.419-.12,23.46-.08a2.27,2.27,0,0,1,1.625.854,2.365,2.365,0,0,1,.46,1.76l-.344,2.907-.688,5.813L699.669,372.7l-11.1,93-.024.189-.04.235a3.126,3.126,0,0,1-.143.45,3,3,0,0,1-.483.793,2.972,2.972,0,0,1-1.551.973,2.583,2.583,0,0,1-.468.075c-.075,0-.169.009-.229.009h-.915l-1.464,0-5.854-.006-11.708-.013-23.416-.027-23.453-.035a2.234,2.234,0,0,1-1.661-.887,2.655,2.655,0,0,1-.48-1.746l.017-.217.021-.185.044-.363.088-.727.175-1.454.7-5.814,1.4-11.628Z" transform="translate(-616.673 -349.744)" fill="#3c4958"/>
        </g>
      </g>
      <path id="Path_6283"  d="M849.738,316.865,834.5,443.6a10.361,10.361,0,0,1-10.009,8.932H813.719a10.358,10.358,0,0,0,10.009-8.932l15.242-126.734a7.763,7.763,0,0,0-7.862-8.936H841.88A7.759,7.759,0,0,1,849.738,316.865Z" transform="translate(-746.14 -284.952)" fill="#f4f4f4" style="mix-blend-mode: multiply;isolation: isolate"/>
    </g>
    <g id="Group_3292"  transform="translate(614.862 302.424)">
      <path id="Path_6284"  d="M706.038,514.378h-47.29a4.448,4.448,0,0,1-4.536-5.089l4.768-39.9a5.928,5.928,0,0,1,5.752-5.089h47.29a4.447,4.447,0,0,1,4.535,5.089l-4.767,39.9A5.928,5.928,0,0,1,706.038,514.378Z" transform="translate(-650.99 -457.789)" fill="#eaeae9" style="mix-blend-mode: multiply;isolation: isolate"/>
      <path id="Path_6285"  d="M698.565,504.607h-47.29a4.447,4.447,0,0,1-4.535-5.089l4.767-39.9a5.928,5.928,0,0,1,5.752-5.089h47.29a4.447,4.447,0,0,1,4.535,5.089l-4.768,39.9A5.928,5.928,0,0,1,698.565,504.607Z" transform="translate(-645.904 -451.139)" fill="#b6b6fc"/>
      <path id="Path_6286"  d="M718.9,458.145l-.454,3.8H660.871l.454-3.8a4.21,4.21,0,0,1,4.085-3.614h50.271A3.158,3.158,0,0,1,718.9,458.145Z" transform="translate(-655.546 -451.139)" fill="#7f7ff8"/>
      <ellipse id="Ellipse_471"  cx="2.706" cy="2.402" rx="2.706" ry="2.402" transform="matrix(0.758, -0.653, 0.653, 0.758, 16.438, 3.533)" fill="#b6b6fc"/>
      <ellipse id="Ellipse_472"  cx="2.706" cy="2.402" rx="2.706" ry="2.402" transform="matrix(0.758, -0.653, 0.653, 0.758, 26.297, 3.533)" fill="#b6b6fc"/>
      <ellipse id="Ellipse_473"  cx="2.706" cy="2.402" rx="2.706" ry="2.402" transform="matrix(0.758, -0.653, 0.653, 0.758, 36.025, 3.533)" fill="#b6b6fc"/>
      <ellipse id="Ellipse_474"  cx="2.706" cy="2.402" rx="2.706" ry="2.402" transform="matrix(0.758, -0.653, 0.653, 0.758, 45.358, 3.533)" fill="#b6b6fc"/>
      <path id="Path_6287"  d="M775.16,453.326l-.021-.159a.326.326,0,0,1,.273-.365l.116-.018c.7-.108,1.408-.166,2.112-.2s1.409-.048,2.113-.041a.64.64,0,0,1,.634.646.687.687,0,0,1-.014.127,2.138,2.138,0,0,0-.043.364,2.446,2.446,0,0,0,.026.373,1.805,1.805,0,0,0,.271.688,1.87,1.87,0,0,0,.557.54,2.406,2.406,0,0,0,.8.313l.012,0a.32.32,0,0,1-.012.628,2.462,2.462,0,0,1-2.215-.784,2.692,2.692,0,0,1-.688-1.757,3.291,3.291,0,0,1,.054-.644l.62.773q-1.056.01-2.113-.042c-.7-.039-1.408-.1-2.112-.2l.389-.382-.049.23a.355.355,0,0,1-.7-.027Z" transform="translate(-733.307 -449.782)" fill="#3b3b56"/>
      <path id="Path_6288"  d="M744.713,453.325l-.02-.159a.329.329,0,0,1,.277-.365l.111-.016c.77-.114,1.54-.17,2.31-.212.385-.011.77-.033,1.155-.033s.77-.011,1.155,0h.015a.635.635,0,0,1,.617.653.657.657,0,0,1-.014.116,2.118,2.118,0,0,0-.02.739,1.832,1.832,0,0,0,.272.691,1.876,1.876,0,0,0,.559.542,2.393,2.393,0,0,0,.8.308l.011,0a.32.32,0,0,1-.011.629,2.476,2.476,0,0,1-2.21-.788,2.587,2.587,0,0,1-.6-1.12,2.874,2.874,0,0,1-.034-1.276l.617.77c-.385.011-.77,0-1.155,0s-.77-.022-1.155-.033c-.77-.041-1.54-.1-2.31-.212l.388-.381-.048.23a.355.355,0,0,1-.7-.028Z" transform="translate(-712.588 -449.781)" fill="#3b3b56"/>
      <path id="Path_6289"  d="M713.853,453.325l-.019-.159a.329.329,0,0,1,.278-.365l.109-.016c.792-.116,1.584-.172,2.376-.213.4-.01.792-.034,1.187-.032s.792-.01,1.188,0h.011a.637.637,0,0,1,.619.654.67.67,0,0,1-.013.114,2.138,2.138,0,0,0-.02.74,1.821,1.821,0,0,0,.272.692,1.867,1.867,0,0,0,.56.542,2.377,2.377,0,0,0,.8.306l.011,0a.32.32,0,0,1-.011.629,2.48,2.48,0,0,1-2.208-.789,2.591,2.591,0,0,1-.6-1.119,2.866,2.866,0,0,1-.035-1.276l.616.768c-.4.011-.792,0-1.188,0s-.792-.022-1.187-.032c-.792-.042-1.584-.1-2.376-.213l.387-.38-.047.23a.356.356,0,0,1-.7-.028Z" transform="translate(-691.587 -449.781)" fill="#3b3b56"/>
      <path id="Path_6290"  d="M679.193,504.024c-7.781.148-15.562.215-23.342.251l-5.836.014-1.459,0c-.246,0-.471.008-.772-.01a4.1,4.1,0,0,1-.847-.147,3.792,3.792,0,0,1-1.516-.84,3.733,3.733,0,0,1-.975-1.444,3.982,3.982,0,0,1-.231-1.706c.012-.15.027-.268.042-.387l.042-.362.086-.725.348-2.9.705-5.793,1.411-11.586.705-5.793.727-5.79.728-5.79.364-2.9c.071-.49.094-.939.225-1.5a4.491,4.491,0,0,1,.68-1.475,4.743,4.743,0,0,1,2.585-1.84c.132-.031.263-.065.4-.092l.4-.055.407-.017.365,0,1.459.014,5.836.057a.369.369,0,0,1,.366.373.36.36,0,0,1-.007.067v.006a2.13,2.13,0,0,0,0,.851,1.849,1.849,0,0,0,.355.767,1.936,1.936,0,0,0,1.519.718.315.315,0,0,1,0,.631,2.721,2.721,0,0,1-1.121-.221,2.515,2.515,0,0,1-1.446-1.741,2.79,2.79,0,0,1-.019-1.164l.358.446-5.836.057-1.459.014-.365,0-.322.019-.319.05-.313.079a3.871,3.871,0,0,0-2.052,1.516,3.537,3.537,0,0,0-.522,1.165c-.09.385-.126.911-.186,1.385l-.329,2.9-.657,5.8-.657,5.8-.68,5.8-1.359,11.592-.679,5.8-.344,2.9-.169,1.424a2.7,2.7,0,0,0,.152,1.163,2.469,2.469,0,0,0,1.652,1.517,4.12,4.12,0,0,0,1.273.113l1.459,0,5.836.015c7.781.036,15.562.1,23.342.251a.356.356,0,0,1,0,.713Z" transform="translate(-644.201 -450.2)" fill="#3b3b56"/>
      <path id="Path_6291"  d="M833.123,477.054q-.279,3.784-.675,7.554c-.255,2.514-.546,5.025-.843,7.534-.616,5.017-1.277,10.027-2.12,15.016a.316.316,0,0,1-.626-.075c.356-5.047.894-10.072,1.478-15.093.3-2.509.611-5.017.956-7.52s.71-5.005,1.124-7.5a.357.357,0,0,1,.708.085Z" transform="translate(-769.867 -466.207)" fill="#3b3b56"/>
      <path id="Path_6292"  d="M804.379,453.322l-.02-.159a.321.321,0,0,1,.253-.355l.135-.027a12.257,12.257,0,0,1,1.576-.2c.525-.034,1.05-.055,1.576-.046s1.05.027,1.576.079a10.969,10.969,0,0,1,1.576.243.324.324,0,0,1,0,.631,11.011,11.011,0,0,1-1.576.242c-.525.052-1.05.07-1.576.079s-1.05-.012-1.576-.046a12.307,12.307,0,0,1-1.576-.2l.388-.381-.048.23a.355.355,0,0,1-.7-.028Z" transform="translate(-753.193 -449.777)" fill="#3b3b56"/>
      <path id="Path_6293"  d="M683.035,498.441h-6.547a1.3,1.3,0,0,1-1.326-1.488l.774-6.478a1.733,1.733,0,0,1,1.682-1.488h6.547a1.3,1.3,0,0,1,1.326,1.488l-.774,6.478A1.733,1.733,0,0,1,683.035,498.441Z" transform="translate(-665.264 -474.588)" fill="#fff"/>
      <path id="Path_6294"  d="M721.1,498.441h-6.547a1.3,1.3,0,0,1-1.326-1.488l.774-6.478a1.733,1.733,0,0,1,1.681-1.488h6.547a1.3,1.3,0,0,1,1.326,1.488l-.774,6.478A1.733,1.733,0,0,1,721.1,498.441Z" transform="translate(-691.168 -474.588)" fill="#fff"/>
      <path id="Path_6295"  d="M758.385,498.441h-6.547a1.3,1.3,0,0,1-1.326-1.488l.774-6.478a1.733,1.733,0,0,1,1.682-1.488h6.547a1.3,1.3,0,0,1,1.326,1.488l-.774,6.478A1.733,1.733,0,0,1,758.385,498.441Z" transform="translate(-716.543 -474.588)" fill="#fff"/>
      <path id="Path_6296"  d="M795.672,498.441h-6.547a1.3,1.3,0,0,1-1.326-1.488l.774-6.478a1.733,1.733,0,0,1,1.681-1.488H796.8a1.3,1.3,0,0,1,1.326,1.488l-.774,6.478A1.733,1.733,0,0,1,795.672,498.441Z" transform="translate(-741.918 -474.588)" fill="#fff"/>
      <path id="Path_6297"  d="M678.535,536.1h-6.547a1.3,1.3,0,0,1-1.326-1.488l.774-6.478a1.733,1.733,0,0,1,1.681-1.488h6.547a1.3,1.3,0,0,1,1.326,1.488l-.774,6.478A1.733,1.733,0,0,1,678.535,536.1Z" transform="translate(-662.202 -500.218)" fill="#fff"/>
      <path id="Path_6298"  d="M716.6,536.1h-6.547a1.3,1.3,0,0,1-1.326-1.488l.774-6.478a1.733,1.733,0,0,1,1.682-1.488h6.547a1.3,1.3,0,0,1,1.326,1.488l-.774,6.478A1.733,1.733,0,0,1,716.6,536.1Z" transform="translate(-688.105 -500.218)" fill="#fff"/>
      <path id="Path_6299"  d="M753.885,536.1h-6.547a1.3,1.3,0,0,1-1.326-1.488l.774-6.478a1.733,1.733,0,0,1,1.681-1.488h6.547a1.3,1.3,0,0,1,1.326,1.488l-.774,6.478A1.733,1.733,0,0,1,753.885,536.1Z" transform="translate(-713.48 -500.218)" fill="#fff"/>
      <path id="Path_6300"  d="M791.172,536.1h-6.547a1.3,1.3,0,0,1-1.326-1.488l.774-6.478a1.733,1.733,0,0,1,1.681-1.488H792.3a1.3,1.3,0,0,1,1.326,1.488l-.774,6.478A1.733,1.733,0,0,1,791.172,536.1Z" transform="translate(-738.855 -500.218)" fill="#fff"/>
      <path id="Path_6301"  d="M674.08,573.38h-6.547a1.3,1.3,0,0,1-1.326-1.488l.774-6.478a1.733,1.733,0,0,1,1.681-1.488h6.547a1.3,1.3,0,0,1,1.326,1.488l-.774,6.478A1.733,1.733,0,0,1,674.08,573.38Z" transform="translate(-659.17 -525.588)" fill="#fff"/>
      <path id="Path_6302"  d="M712.144,573.38H705.6a1.3,1.3,0,0,1-1.326-1.488l.774-6.478a1.733,1.733,0,0,1,1.681-1.488h6.547a1.3,1.3,0,0,1,1.326,1.488l-.774,6.478A1.733,1.733,0,0,1,712.144,573.38Z" transform="translate(-685.074 -525.588)" fill="#fff"/>
      <path id="Path_6303"  d="M749.782,573.38h-6.547a1.3,1.3,0,0,1-1.326-1.488l.774-6.478a1.733,1.733,0,0,1,1.681-1.488h6.547a1.3,1.3,0,0,1,1.326,1.488l-.774,6.478A1.733,1.733,0,0,1,749.782,573.38Z" transform="translate(-710.688 -525.588)" fill="#fff"/>
      <g id="Group_3291"  transform="translate(31.125 35.944)">
        <ellipse id="Ellipse_475"  cx="13.889" cy="12.145" rx="13.889" ry="12.145" transform="matrix(0.59, -0.808, 0.808, 0.59, 0.296, 22.434)" fill="#7f7ff8"/>
        <ellipse id="Ellipse_476"  cx="13.889" cy="12.145" rx="13.889" ry="12.145" transform="matrix(0.59, -0.808, 0.808, 0.59, 0, 25.394)" fill="#eaeae9" style="mix-blend-mode: multiply;isolation: isolate"/>
        <ellipse id="Ellipse_477"  cx="10.284" cy="8.992" rx="10.284" ry="8.992" transform="matrix(0.59, -0.808, 0.808, 0.59, 4.944, 21.381)" fill="#fff"/>
        <path id="Path_6304"  d="M785.517,591.933c.354.57.683,1.151,1,1.738s.626,1.178.921,1.775.583,1.2.868,1.8.556,1.21.819,1.822l.013.03a.588.588,0,0,1-.069.582q-.788,1.054-1.608,2.085c-.546.687-1.1,1.366-1.69,2.027a.317.317,0,0,1-.513-.367c.435-.767.9-1.516,1.368-2.256s.956-1.472,1.45-2.2l-.056.612c-.3-.595-.585-1.2-.87-1.8s-.559-1.209-.821-1.822-.523-1.225-.768-1.846-.48-1.246-.689-1.883a.359.359,0,0,1,.646-.3Z" transform="translate(-771.045 -580.475)" fill="#3b3b56"/>
        <g id="Group_3290"  transform="translate(5.299 4.35)">
          <path id="Path_6305"  d="M759.092,583.834a13.175,13.175,0,0,0,.271,4.994,11.281,11.281,0,0,0,2.241,4.407,11.787,11.787,0,0,0,.842.908,11.466,11.466,0,0,0,.954.787,9.888,9.888,0,0,0,2.139,1.22,10.769,10.769,0,0,0,4.829.819,12.759,12.759,0,0,0,4.776-1.2,14.979,14.979,0,0,0,4.069-2.817,15.188,15.188,0,0,0,4.473-8.679,13.075,13.075,0,0,0-.2-4.9A10.835,10.835,0,0,0,781.339,575a10.256,10.256,0,0,0-3.859-2.925,11.379,11.379,0,0,0-4.794-.9,12.651,12.651,0,0,0-4.807,1.128,14.563,14.563,0,0,0-4.137,2.783,15.223,15.223,0,0,0-3.058,3.974,14.988,14.988,0,0,0-1.632,4.761Zm-.665-.095a15.072,15.072,0,0,1,1.551-5.04,16.093,16.093,0,0,1,3.114-4.281,15.44,15.44,0,0,1,4.36-3.044,13.726,13.726,0,0,1,5.188-1.309l.676-.018c.226-.012.451.022.676.032l.677.047a6,6,0,0,1,.671.1l.669.122c.223.041.437.123.655.184l.652.2c.213.078.419.175.63.262a11.462,11.462,0,0,1,4.33,3.241,12.06,12.06,0,0,1,2.412,4.837,14.326,14.326,0,0,1,.261,5.381,16.42,16.42,0,0,1-4.894,9.374,14.774,14.774,0,0,1-9.645,4.233,11.823,11.823,0,0,1-5.275-.977l-.311-.133-.3-.157c-.2-.108-.4-.2-.6-.323a11.387,11.387,0,0,1-1.116-.765,12.436,12.436,0,0,1-1.024-.881,12.74,12.74,0,0,1-.9-1.007,12.153,12.153,0,0,1-2.321-4.794,13.928,13.928,0,0,1-.184-5.289Z" transform="translate(-758.218 -570.045)" fill="#3b3b56"/>
        </g>
      </g>
    </g>
    <g id="Group_3294"  transform="translate(604.017 248.396)">
      <circle id="Ellipse_478"  cx="18.964" cy="18.964" r="18.964" transform="translate(0.639 0.558)" fill="#fb9387"/>
      <g id="Group_3293"  transform="translate(0)">
        <path id="Path_6306"  d="M649.178,294.313a19.389,19.389,0,0,1-19.32,19.51,19.523,19.523,0,0,1-7.484-37.577,19.284,19.284,0,0,1,7.484-1.455,19.325,19.325,0,0,1,19.279,19.521Zm-.672,0a18.543,18.543,0,0,0-25.68-16.977,18.4,18.4,0,0,0-5.948,29.957,18.627,18.627,0,0,0,5.946,4,18.519,18.519,0,0,0,25.642-16.984Z" transform="translate(-610.255 -274.791)" fill="#3c4958"/>
      </g>
      <path id="Path_6307"  d="M667.668,317.864c-1.121,0-1.8-12.028-1.447-12.33s2.434-.533,2.879,0S668.789,317.864,667.668,317.864Z" transform="translate(-648.277 -295.495)" fill="#fff"/>
      <ellipse id="Ellipse_479"  cx="1.813" cy="1.884" rx="1.813" ry="1.884" transform="matrix(0.257, -0.966, 0.966, 0.257, 17.18, 27.868)" fill="#fff"/>
    </g>
    <path id="Path_6308"  d="M695.717,759.337c0,2.668-22.084,2.668-49.327,2.668s-45.3,0-45.3-2.668,18.059-2.668,45.3-2.668S695.717,756.669,695.717,759.337Z" transform="translate(0 -354.331)" fill="#eaeae9" opacity="0.6" style="mix-blend-mode: multiply;isolation: isolate"/>
  </g>
</svg>
