<svg id="sessions" xmlns="http://www.w3.org/2000/svg" width="17.857" height="17.857" viewBox="0 0 17.857 17.857">
  <path id="Path_6309" data-name="Path 6309" d="M3.348,4.906V1.558A1.981,1.981,0,0,1,3.423,1H1.3A1.308,1.308,0,0,0,0,2.3V5.65a1.308,1.308,0,0,0,1.3,1.3h.275L2.53,8.217a.574.574,0,0,0,.424.223h.022a.529.529,0,0,0,.417-.193L4.509,6.975A2.445,2.445,0,0,1,3.348,4.906Z" transform="translate(0 -0.256)" fill="#7f7df8"/>
  <path id="Path_6310" data-name="Path 6310" d="M21.147,1H19.026a1.981,1.981,0,0,1,.074.558V4.906A2.445,2.445,0,0,1,17.94,6.975l1.116,1.272a.529.529,0,0,0,.417.193H19.5a.574.574,0,0,0,.424-.223l.945-1.265h.283a1.308,1.308,0,0,0,1.3-1.3V2.3A1.308,1.308,0,0,0,21.147,1Z" transform="translate(-4.592 -0.256)" fill="#7f7df8"/>
  <path id="Path_6311" data-name="Path 6311" d="M10.464,7.44h-.021a.56.56,0,0,1-.426-.223L9.069,5.952H7.3A1.3,1.3,0,0,1,6,4.65V1.3A1.3,1.3,0,0,1,7.3,0h6.324a1.3,1.3,0,0,1,1.3,1.3V4.65a1.3,1.3,0,0,1-1.3,1.3H12.019l-1.135,1.3a.556.556,0,0,1-.42.19Z" transform="translate(-1.536)" fill="#7f7df8"/>
  <circle id="Ellipse_480" data-name="Ellipse 480" cx="1.5" cy="1.5" r="1.5" transform="translate(1 9.857)" fill="#7f7df8"/>
  <path id="Path_6312" data-name="Path 6312" d="M4.963,18.3A3.118,3.118,0,0,0,3.72,20.79v.186H.558A.562.562,0,0,1,0,20.418v-.372A2.045,2.045,0,0,1,2.046,18h1.86A2.033,2.033,0,0,1,4.963,18.3Z" transform="translate(0 -4.607)" fill="#7f7df8"/>
  <circle id="Ellipse_481" data-name="Ellipse 481" cx="1.5" cy="1.5" r="1.5" transform="translate(13 9.857)" fill="#7f7df8"/>
  <path id="Path_6313" data-name="Path 6313" d="M22.293,20.046v.372a.562.562,0,0,1-.558.558H18.573V20.79A3.118,3.118,0,0,0,17.33,18.3a2.033,2.033,0,0,1,1.057-.3h1.86A2.045,2.045,0,0,1,22.293,20.046Z" transform="translate(-4.436 -4.607)" fill="#7f7df8"/>
  <circle id="Ellipse_482" data-name="Ellipse 482" cx="2.232" cy="2.232" r="2.232" transform="translate(6.696 8.557)" fill="#7f7df8"/>
  <path id="Path_6314" data-name="Path 6314" d="M12.638,19H8.546A2.048,2.048,0,0,0,6.5,21.046v1.116a.558.558,0,0,0,.558.558h7.068a.558.558,0,0,0,.558-.558V21.046A2.048,2.048,0,0,0,12.638,19Z" transform="translate(-1.664 -4.863)" fill="#7f7df8"/>
</svg>
