<svg xmlns="http://www.w3.org/2000/svg" width="20" height="20" viewBox="0 0 20 20">
  <g id="icon" transform="translate(-325.798 -12.798)">
    <rect id="Rectangle_1537" data-name="Rectangle 1537" width="20" height="20" transform="translate(325.798 12.798)" fill="none"/>
    <g id="messages" transform="translate(276.738 55.526)">
      <path id="Path_6817" data-name="Path 6817" d="M61.943-18.13H52.4a3.342,3.342,0,0,0-3.338,3.338v8.436A2.355,2.355,0,0,0,49.8-4.625a2.444,2.444,0,0,0,1.656.661,2.353,2.353,0,0,0,1.481-.526l1.541-1.233h7.468a3.345,3.345,0,0,0,3.341-3.341v-5.728A3.342,3.342,0,0,0,61.943-18.13Zm-1.908,7.2H54.309a.956.956,0,0,1-.957-.954.956.956,0,0,1,.957-.954h5.725a.953.953,0,0,1,.954.954A.953.953,0,0,1,60.034-10.934Z" transform="translate(0 -18.764)" fill="#7d7bfa"/>
      <path id="Path_6818" data-name="Path 6818" d="M84.018-40.82v8.843a2.862,2.862,0,0,1-2.863,2.863v-4.877a3.822,3.822,0,0,0-3.817-3.817H68.751a2.861,2.861,0,0,1,2.86-2.759h6.682l2.759-1.839a1.906,1.906,0,0,1,2.646.529A1.905,1.905,0,0,1,84.018-40.82Z" transform="translate(-14.958)" fill="#7d7bfa"/>
    </g>
  </g>
</svg>
