<svg xmlns="http://www.w3.org/2000/svg" width="22" height="22" viewBox="0 0 22 22">
  <g id="Icons" transform="translate(2 2)">
    <g id="Outlined" transform="translate(-2 -2)">
      <g id="Action">
        <g id="Outlined-_-Action-_-settings" data-name="Outlined-/-Action-/-settings">
          <g id="Group_2878" data-name="Group 2878">
            <path id="Path" d="M0,0H22V22H0Z" fill="none" fill-rule="evenodd"/>
            <path id="_-Icon-Color" data-name="🔹-Icon-Color" d="M17.666,11.882A7.035,7.035,0,0,0,17.729,11a7.035,7.035,0,0,0-.063-.882l1.893-1.485a.455.455,0,0,0,.108-.576L17.872,4.943a.448.448,0,0,0-.395-.225.418.418,0,0,0-.153.027l-2.234.9a6.55,6.55,0,0,0-1.516-.882l-.341-2.385A.438.438,0,0,0,12.794,2H9.205a.438.438,0,0,0-.44.378L8.425,4.763a6.888,6.888,0,0,0-1.516.882l-2.234-.9a.507.507,0,0,0-.161-.027.444.444,0,0,0-.386.225L2.333,8.057a.445.445,0,0,0,.108.576l1.893,1.485A7.159,7.159,0,0,0,4.271,11a7.159,7.159,0,0,0,.063.882L2.441,13.367a.455.455,0,0,0-.108.576l1.794,3.114a.448.448,0,0,0,.395.225.418.418,0,0,0,.153-.027l2.234-.9a6.55,6.55,0,0,0,1.516.882l.341,2.385a.438.438,0,0,0,.44.378h3.589a.438.438,0,0,0,.44-.378l.341-2.385a6.888,6.888,0,0,0,1.516-.882l2.234.9a.507.507,0,0,0,.161.027.444.444,0,0,0,.386-.225l1.794-3.114a.455.455,0,0,0-.108-.576Zm-1.776-1.539a4.824,4.824,0,0,1,.045.657c0,.189-.018.387-.045.657l-.126,1.017.8.63.969.756L16.9,15.149l-1.139-.459-.933-.378-.807.612a5.251,5.251,0,0,1-1.121.657l-.951.387-.144,1.017L11.628,18.2H10.372l-.17-1.215-.144-1.017-.951-.387A5.087,5.087,0,0,1,8,14.942l-.816-.63-.951.387L5.1,15.158l-.628-1.089.969-.756.8-.63L6.11,11.666c-.027-.279-.045-.486-.045-.666s.018-.387.045-.657l.126-1.017-.8-.63L4.468,7.94,5.1,6.851l1.139.459.933.378.807-.612A5.251,5.251,0,0,1,9.1,6.419l.951-.387.144-1.017L10.372,3.8h1.247l.17,1.215.144,1.017.951.387a5.087,5.087,0,0,1,1.1.639l.816.63.951-.387,1.139-.459.628,1.089-.96.765-.8.63ZM11,7.4A3.6,3.6,0,1,0,14.589,11,3.593,3.593,0,0,0,11,7.4Zm0,5.4A1.8,1.8,0,1,1,12.794,11,1.8,1.8,0,0,1,11,12.8Z" fill="#fff" fill-rule="evenodd"/>
          </g>
        </g>
      </g>
    </g>
  </g>
</svg>
