<svg xmlns="http://www.w3.org/2000/svg" width="20.829" height="18.002" viewBox="0 0 20.829 18.002">
  <g id="settings" transform="translate(0 5)">
    <path id="Union_3" data-name="Union 3" d="M-973.423-120.036a.84.84,0,0,1-.727-.414l-4.787-8.173a.815.815,0,0,1,0-.827l4.787-8.174a.842.842,0,0,1,.727-.414h9.575a.842.842,0,0,1,.727.414l4.787,8.174a.815.815,0,0,1,0,.827l-4.787,8.173a.84.84,0,0,1-.727.414Zm-3.818-9,4.3,7.346h8.606l4.3-7.346-4.3-7.347h-8.606Zm4.131,0a4.447,4.447,0,0,1,4.474-4.41,4.446,4.446,0,0,1,4.474,4.41,4.447,4.447,0,0,1-4.474,4.41A4.448,4.448,0,0,1-973.109-129.037Zm1.679,0a2.779,2.779,0,0,0,2.8,2.755,2.779,2.779,0,0,0,2.8-2.755,2.779,2.779,0,0,0-2.8-2.755A2.779,2.779,0,0,0-971.431-129.037Z" transform="translate(979.05 133.038)" fill="#acb2c1"/>
  </g>
</svg>
