<svg id="simpleClose" xmlns="http://www.w3.org/2000/svg" width="8" height="8" viewBox="0 0 8 8">
  <path id="Path_13220" data-name="Path 13220" d="M0,0H8V8H0Z" fill="none"/>
  <path id="Path_13221" data-name="Path 13221" d="M13.23,5.591a.6.6,0,0,0-.856,0L9.407,8.552,6.44,5.585a.6.6,0,0,0-.856.856L8.552,9.407,5.585,12.375a.6.6,0,0,0,.856.856l2.967-2.967,2.967,2.967a.6.6,0,0,0,.856-.856L10.263,9.407,13.23,6.44A.608.608,0,0,0,13.23,5.591Z" transform="translate(-5.408 -5.408)" fill="#9a98b3"/>
</svg>
