<svg xmlns="http://www.w3.org/2000/svg" xmlns:xlink="http://www.w3.org/1999/xlink" width="197.232" height="147.971" viewBox="0 0 197.232 147.971">
  <defs>
    <clipPath id="clip-path">
      <path id="Path_5845" data-name="Path 5845" d="M412.579,757.88c2.7-2.777,28.6-1.48,30.731,1.525s7.288,40.322,7.288,40.322l-45.306,1.156S409.879,760.657,412.579,757.88Z" transform="translate(-405.292 -756.349)" fill="none"/>
    </clipPath>
    <clipPath id="clip-path-2">
      <path id="Path_5865" data-name="Path 5865" d="M250.313,646.251a4.49,4.49,0,0,0,1.23.664,3.043,3.043,0,0,0,3.511-.806c.985-1.316.46-3.385-1.173-4.622s-3.756-1.173-4.741.142S248.68,645.014,250.313,646.251Z" transform="translate(-248.643 -640.599)" fill="none"/>
    </clipPath>
    <clipPath id="clip-path-3">
      <path id="Path_5873" data-name="Path 5873" d="M542,596.163a4.5,4.5,0,0,1-1.23.664,3.042,3.042,0,0,1-3.51-.806c-.986-1.315-.46-3.385,1.173-4.622s3.756-1.173,4.741.143S543.631,594.926,542,596.163Z" transform="translate(-536.76 -590.511)" fill="none"/>
    </clipPath>
  </defs>
  <g id="Art" transform="translate(-196.358 -453.263)">
    <g id="Group_3214" data-name="Group 3214" transform="translate(227.298 535.589)">
      <g id="Group_3213" data-name="Group 3213" transform="translate(0 60.983)">
        <path id="Path_5794" data-name="Path 5794" d="M465.153,930.368c0,2.332-38.809,2.332-86.683,2.332-60.4,0-79.609,0-79.609-2.332s19.206-2.332,79.609-2.332C426.344,928.036,465.153,928.036,465.153,930.368Z" transform="translate(-298.861 -928.036)" fill="#eaeae9" opacity="0.6" style="mix-blend-mode: multiply;isolation: isolate"/>
      </g>
      <path id="Path_5795" data-name="Path 5795" d="M457.888,726.622l5.319,62.717h7.217l-1.8-33.752h44.906l-.788,33.752h29.973l5.315-62.717Zm55.89,23.179H468.069l-1.328-17.266H514.36Z" transform="translate(-409.886 -726.435)" fill="#fff"/>
      <path id="Path_5796" data-name="Path 5796" d="M512.1,856.334H495.264l-1.8-33.752h17.86Z" transform="translate(-434.727 -793.43)" fill="#fff"/>
      <path id="Path_5797" data-name="Path 5797" d="M530.648,746.212l-.582,17.266h-47.52l-1.328-17.266Z" transform="translate(-426.174 -740.112)" fill="#eeeeed"/>
      <ellipse id="Ellipse_447" data-name="Ellipse 447" cx="2.965" cy="3.145" rx="2.965" ry="3.145" transform="translate(75.555 11.485)" fill="#eaeae9"/>
      <path id="Path_5798" data-name="Path 5798" d="M502.47,789.339l13.755-.1-.219-7.216m60.366-41.033.61-14.372h-77.63m7.539,28.965h35.591l-.788,33.752h23.835" transform="translate(-438.835 -726.435)" fill="none" stroke="#3c4958" stroke-linecap="round" stroke-linejoin="round" stroke-width="1"/>
      <path id="Path_5799" data-name="Path 5799" d="M479.638,744.92l12.433-.1,12.433-.056,24.866-.046a.448.448,0,0,1,.449.447v.017l-.6,17.265a.429.429,0,0,1-.428.414l-9.775-.02-9.775-.046-9.775-.059-9.775-.08a.224.224,0,0,1,0-.447l9.775-.08,9.775-.059,9.775-.046,9.775-.02-.428.414.562-17.266.449.464-24.866-.046-12.433-.056-12.433-.1a.253.253,0,0,1,0-.505Z" transform="translate(-424.897 -739.073)" fill="#3b3b56"/>
      <path id="Path_5800" data-name="Path 5800" d="M551.417,762.918a3.239,3.239,0,0,1,1.015.087,3.474,3.474,0,0,1,.944.424,3.548,3.548,0,0,1,1.3,1.6,3.767,3.767,0,0,1-.693,3.966,3.771,3.771,0,0,1-.841.67,3.592,3.592,0,0,1-1.012.384,3.734,3.734,0,0,1-1.078.035,3.445,3.445,0,0,1-1.024-.31,3.536,3.536,0,0,1-.859-.609,3.628,3.628,0,0,1-.621-.825,3.464,3.464,0,0,1-.4-1.943.3.3,0,0,1,.6,0v0a2.91,2.91,0,0,0,1.722,2.41,2.344,2.344,0,0,0,2.626-.628,2.8,2.8,0,0,0,.555-2.76,2.676,2.676,0,0,0-2.235-1.83h-.01a.337.337,0,0,1,.01-.672Z" transform="translate(-472.896 -751.769)" fill="#3c4958"/>
      <path id="Path_5801" data-name="Path 5801" d="M659.165,726,656.7,788.928l24.821-.238,5.259-62.468Z" transform="translate(-548.687 -726.003)" fill="#eaeae9" opacity="0.6" style="mix-blend-mode: multiply;isolation: isolate"/>
      <path id="Path_5802" data-name="Path 5802" d="M555.106,772.292a2.969,2.969,0,1,1-5.929,0,3.245,3.245,0,0,1,.137-.942,2.916,2.916,0,0,0,5.654,0A3.255,3.255,0,0,1,555.106,772.292Z" transform="translate(-473.62 -757.662)" fill="#eaeae9" opacity="0.6" style="mix-blend-mode: multiply;isolation: isolate"/>
      <path id="Path_5803" data-name="Path 5803" d="M507.909,856.116H489.264l-1.8-33.534h19.671Z" transform="translate(-430.538 -793.43)" fill="#eaeae9" opacity="0.6" style="mix-blend-mode: multiply;isolation: isolate"/>
      <path id="Path_5804" data-name="Path 5804" d="M529.583,748.538H483.24l1.028,14.386-2.877.205-1.173-16.917H529.95Z" transform="translate(-425.476 -740.112)" fill="#eaeae9" opacity="0.6" style="mix-blend-mode: multiply;isolation: isolate"/>
    </g>
    <g id="Group_3216" data-name="Group 3216" transform="translate(290.975 499.109)">
      <g id="Group_3215" data-name="Group 3215" transform="translate(0 0)">
        <path id="Path_5805" data-name="Path 5805" d="M545.418,607.732l-10.735,30.9H511.565a.574.574,0,0,0-.574.573v2.837a.778.778,0,0,0,.778.778h66.877a1.656,1.656,0,0,0,1.581-1.161L590.7,608.175a.793.793,0,0,0-.756-1.029h-43.7A.872.872,0,0,0,545.418,607.732Z" transform="translate(-510.638 -606.543)" fill="#5b5b99"/>
        <path id="Path_5806" data-name="Path 5806" d="M639.154,642.112H606.719a1,1,0,0,1-.948-1.319l7.854-23.348a1,1,0,0,1,.948-.681h32.233a1,1,0,0,1,.95,1.311L640.1,641.423A1,1,0,0,1,639.154,642.112Z" transform="translate(-576.772 -613.257)" fill="#fff"/>
        <path id="Path_5807" data-name="Path 5807" d="M665.78,608.176l-10.474,33.486a1.655,1.655,0,0,1-1.58,1.162h-35.2v-4.188H651.69l9.85-31.489h3.485A.792.792,0,0,1,665.78,608.176Z" transform="translate(-585.717 -606.544)" fill="#f4f4f4" style="mix-blend-mode: multiply;isolation: isolate"/>
        <path id="Path_5808" data-name="Path 5808" d="M738.651,611.538c-.325,1.2-.677,2.389-1.015,3.584l-1.058,3.571c-.71,2.379-1.456,4.747-2.183,7.121-.76,2.363-1.5,4.733-2.278,7.091l-1.172,3.535c-.405,1.174-.8,2.352-1.215,3.522a.224.224,0,0,1-.427-.134c.323-1.2.673-2.391,1.008-3.586l1.051-3.573c.705-2.38,1.447-4.75,2.168-7.125.755-2.365,1.492-4.735,2.264-7.1l1.165-3.537c.4-1.174.793-2.353,1.209-3.523a.253.253,0,0,1,.482.151Z" transform="translate(-663.049 -609.386)" fill="#3b3b56"/>
        <path id="Path_5809" data-name="Path 5809" d="M627.775,607.146" transform="translate(-592.171 -606.543)" fill="none" stroke="#3b3b56" stroke-linecap="round" stroke-linejoin="round" stroke-width="4"/>
        <path id="Path_5810" data-name="Path 5810" d="M635.587,640.166l4.05-13.4,4.107-13.384,2.066-6.688c.008-.028.028-.085.026-.089s.008-.021.006-.031a.171.171,0,0,0,0-.058.207.207,0,0,0-.05-.109.2.2,0,0,0-.1-.067.17.17,0,0,0-.059-.01.72.72,0,0,0-.081,0h-.109l-1.75,0-3.5.005-14,.02-14-.031-7-.015-1.75,0-.875,0h-.644a.448.448,0,0,0-.087.012.334.334,0,0,0-.143.069.289.289,0,0,0-.078.135l-.292.826-.584,1.651L596.057,622.2l-4.732,13.183a.3.3,0,0,1-.563-.2l4.456-13.266,4.511-13.245.564-1.655.282-.828a1.4,1.4,0,0,1,.368-.606,1.423,1.423,0,0,1,.622-.336,1.49,1.49,0,0,1,.345-.048h.668l.875,0,1.75,0,7-.015,14-.031,14,.021,3.5.005,1.75,0h.109c.037,0,.064,0,.138,0a1.309,1.309,0,0,1,.369.069,1.37,1.37,0,0,1,.914,1.1,1.318,1.318,0,0,1,0,.377,1.3,1.3,0,0,1-.038.183c-.018.067-.024.078-.036.12l-2.113,6.674-4.251,13.339-4.308,13.321a.337.337,0,0,1-.643-.2Z" transform="translate(-566.32 -605.147)" fill="#3b3b56"/>
        <path id="Path_5811" data-name="Path 5811" d="M575.768,710.408c-2.865.063-5.73.089-8.595.135l-8.595.075c-5.73.043-11.46.037-17.19.056-5.73-.027-11.46-.026-17.19-.076l-8.595-.084-4.3-.066-.537-.008a.215.215,0,0,0-.19.073.228.228,0,0,0-.046.088.312.312,0,0,0-.007.062l0,.134-.009.537-.044,2.149a.3.3,0,0,1-.6,0l-.044-2.149-.009-.537,0-.134a1.052,1.052,0,0,1,.017-.205.936.936,0,0,1,.932-.753l.537-.008,4.3-.066,8.595-.084c5.73-.05,11.46-.049,17.19-.076,5.73.02,11.46.014,17.19.057l8.595.075c2.865.046,5.73.072,8.595.135a.337.337,0,0,1,0,.673Z" transform="translate(-509.821 -677.979)" fill="#3b3b56"/>
        <path id="Path_5812" data-name="Path 5812" d="M618,715.435a6.5,6.5,0,0,1,.133,1.449,6.578,6.578,0,0,1-.153,1.448.153.153,0,0,1-.3,0,6.581,6.581,0,0,1-.153-1.448,6.5,6.5,0,0,1,.133-1.449.173.173,0,0,1,.337,0Z" transform="translate(-585.021 -682.051)" fill="#3b3b56"/>
      </g>
      <path id="Path_5813" data-name="Path 5813" d="M638.262,641.348l-30.038.125-1.877,0h-.469a1.466,1.466,0,0,1-.613-.12,1.392,1.392,0,0,1-.792-.971,1.374,1.374,0,0,1,.014-.646c.03-.118.052-.167.078-.248l.074-.223.3-.89.594-1.781,2.376-7.124,2.376-7.124,1.188-3.562.594-1.781.149-.445.074-.222.018-.055.03-.079a1.468,1.468,0,0,1,.072-.154,1.452,1.452,0,0,1,1.081-.746l30.1.044,1.878.008.477,0a1.374,1.374,0,0,1,.624.162,1.383,1.383,0,0,1,.656,1.66l-.148.446-.3.891-.592,1.782-2.369,7.126-2.39,7.119-1.2,3.56-.6,1.78-.149.445a1.573,1.573,0,0,1-.228.489,1.23,1.23,0,0,1-.993.5Zm0-.476a.776.776,0,0,0,.621-.322,1.123,1.123,0,0,0,.155-.363l.143-.447.572-1.788,1.144-3.577,2.287-7.153,2.308-7.146.577-1.786.289-.893.144-.447a.622.622,0,0,0-.3-.748.6.6,0,0,0-.277-.068h-.462l-1.878.008-29.977.063a.553.553,0,0,0-.409.279.565.565,0,0,0-.027.058l-.012.031-.019.055-.076.222-.151.445-.6,1.778-1.206,3.556-2.412,7.111-2.412,7.112-.6,1.778-.3.889-.075.222c-.022.068-.058.165-.064.2a.6.6,0,0,0-.008.283.621.621,0,0,0,.348.433.678.678,0,0,0,.3.055h.469l1.877,0,30.038.125Z" transform="translate(-575.88 -612.242)" fill="#3b3b56"/>
      <path id="Path_5814" data-name="Path 5814" d="M639.6,630.147H634a.173.173,0,0,1-.164-.228l1.357-4.033a.172.172,0,0,1,.164-.117h5.567a.173.173,0,0,1,.164.226l-1.321,4.033A.173.173,0,0,1,639.6,630.147Z" transform="translate(-596.398 -619.544)" fill="#37e1ca"/>
      <path id="Path_5815" data-name="Path 5815" d="M633.916,647.877h-5.6a.173.173,0,0,1-.164-.228l1.356-4.032a.173.173,0,0,1,.164-.118h5.567a.173.173,0,0,1,.164.226l-1.321,4.033A.173.173,0,0,1,633.916,647.877Z" transform="translate(-592.427 -631.923)" fill="#37e1ca"/>
      <path id="Path_5816" data-name="Path 5816" d="M628.315,665.785h-5.6a.173.173,0,0,1-.164-.228l1.357-4.033a.173.173,0,0,1,.164-.117h5.567a.173.173,0,0,1,.164.226l-1.321,4.033A.173.173,0,0,1,628.315,665.785Z" transform="translate(-588.517 -644.425)" fill="#37e1ca"/>
      <path id="Path_5817" data-name="Path 5817" d="M622.478,683.692h-5.6a.173.173,0,0,1-.164-.228l1.356-4.033a.173.173,0,0,1,.164-.118H623.8a.173.173,0,0,1,.164.227l-1.322,4.032A.173.173,0,0,1,622.478,683.692Z" transform="translate(-584.441 -656.927)" fill="#37e1ca"/>
      <path id="Path_5818" data-name="Path 5818" d="M662.334,631.469c.773-.047,1.546-.067,2.319-.1l2.319-.056c1.546-.036,3.092-.04,4.638-.042s3.092.016,4.638.057l2.319.063c.773.037,1.546.059,2.319.108a.224.224,0,0,1,0,.447c-.773.05-1.546.072-2.319.108l-2.319.063c-1.546.042-3.092.05-4.638.057s-3.092-.006-4.638-.042l-2.319-.056c-.773-.034-1.546-.054-2.319-.1a.253.253,0,0,1,0-.5Z" transform="translate(-616.133 -623.384)" fill="#3b3b56"/>
      <path id="Path_5819" data-name="Path 5819" d="M638.9,629.416c.12.342.236.685.35,1.029l-.46-.2a15.033,15.033,0,0,1,2-1.245,12.876,12.876,0,0,1,2.174-.933.228.228,0,0,1,.215.392,12.874,12.874,0,0,1-1.958,1.328,15.058,15.058,0,0,1-2.129,1.016l-.061.023a.3.3,0,0,1-.387-.177.341.341,0,0,1-.012-.041c-.077-.353-.152-.708-.223-1.063a.253.253,0,0,1,.487-.133Z" transform="translate(-599.597 -621.145)" fill="#fff"/>
      <path id="Path_5820" data-name="Path 5820" d="M633.135,646.426c.12.342.236.685.35,1.029l-.46-.2a15.025,15.025,0,0,1,2-1.245,12.866,12.866,0,0,1,2.174-.933.228.228,0,0,1,.215.392,12.892,12.892,0,0,1-1.958,1.328,15.08,15.08,0,0,1-2.129,1.016l-.061.023a.3.3,0,0,1-.387-.177.346.346,0,0,1-.012-.041c-.077-.354-.152-.708-.223-1.063a.253.253,0,0,1,.487-.133Z" transform="translate(-595.57 -633.021)" fill="#fff"/>
      <path id="Path_5821" data-name="Path 5821" d="M627.811,665.585c.12.342.236.685.35,1.029l-.459-.2a15.051,15.051,0,0,1,2-1.245,12.894,12.894,0,0,1,2.174-.933.228.228,0,0,1,.214.392,12.891,12.891,0,0,1-1.958,1.328,15.018,15.018,0,0,1-2.129,1.016l-.061.023a.3.3,0,0,1-.387-.177.348.348,0,0,1-.012-.041c-.077-.354-.152-.708-.223-1.063a.253.253,0,0,1,.487-.133Z" transform="translate(-591.853 -646.397)" fill="#fff"/>
      <path id="Path_5822" data-name="Path 5822" d="M622.219,683.489c.159.331.291.67.417,1.01l-.56-.238c.329-.217.665-.42,1-.618s.686-.382,1.035-.561a15.7,15.7,0,0,1,2.171-.938.227.227,0,0,1,.214.392,15.679,15.679,0,0,1-1.961,1.322c-.339.2-.683.386-1.031.569s-.7.353-1.062.513l-.059.026a.361.361,0,0,1-.5-.264c-.065-.357-.124-.716-.156-1.082a.257.257,0,0,1,.487-.133Z" transform="translate(-587.951 -658.895)" fill="#fff"/>
      <path id="Path_5823" data-name="Path 5823" d="M658.258,648.2c.773-.047,1.546-.067,2.319-.1l2.319-.056c1.546-.037,3.092-.04,4.638-.043s3.092.016,4.638.057l2.319.064c.773.036,1.546.058,2.319.108a.224.224,0,0,1,0,.447c-.773.049-1.546.072-2.319.108l-2.319.063c-1.546.042-3.092.049-4.638.057s-3.092-.006-4.638-.043l-2.319-.056c-.773-.034-1.546-.054-2.319-.1a.253.253,0,0,1,0-.505Z" transform="translate(-613.287 -635.064)" fill="#3b3b56"/>
      <path id="Path_5824" data-name="Path 5824" d="M650.854,666.254c.773-.047,1.546-.067,2.319-.1l2.319-.056c1.546-.037,3.092-.04,4.638-.043s3.092.016,4.638.057l2.319.063c.773.037,1.546.059,2.319.108a.224.224,0,0,1,0,.447c-.773.05-1.546.072-2.319.109l-2.319.063c-1.546.042-3.092.049-4.638.057s-3.092-.006-4.638-.043l-2.319-.056c-.773-.034-1.546-.054-2.319-.1a.253.253,0,0,1,0-.505Z" transform="translate(-608.118 -647.669)" fill="#3b3b56"/>
      <path id="Path_5825" data-name="Path 5825" d="M645.209,684.015c.773-.047,1.546-.067,2.319-.1l2.319-.056c1.546-.037,3.092-.04,4.638-.042s3.092.016,4.638.057l2.319.063c.773.036,1.546.059,2.319.108a.224.224,0,0,1,0,.447c-.773.049-1.546.072-2.319.108l-2.319.063c-1.546.042-3.092.049-4.638.057s-3.092-.006-4.638-.042l-2.319-.056c-.773-.034-1.546-.054-2.319-.1a.253.253,0,0,1,0-.5Z" transform="translate(-604.177 -660.069)" fill="#3b3b56"/>
    </g>
    <g id="Group_3217" data-name="Group 3217" transform="translate(234.847 535.544)">
      <path id="Path_5826" data-name="Path 5826" d="M335.092,737.867a5.462,5.462,0,0,1,.737,4.992A4.8,4.8,0,0,1,332.181,746c-2.38.369-4.747-1.44-5.713-3.829a11.107,11.107,0,0,1,.113-7.633,11.363,11.363,0,0,1,9.523-7.894c2.918-.267,7.511,1.659,9.19,3.843a17.11,17.11,0,0,1,3.222,10.54l-.011,9.492h18.759a3.9,3.9,0,0,1,3.731,4.05v15.689a5.673,5.673,0,0,1-5.427,5.891H337.051a5.673,5.673,0,0,1-5.427-5.891l-.513-24.674" transform="translate(-325.247 -726.391)" fill="#b6b6fc"/>
      <path id="Path_5827" data-name="Path 5827" d="M444.12,890.385h-7.146s4.93,13.511,7.01,13.511S444.12,890.385,444.12,890.385Z" transform="translate(-402.834 -840.723)" fill="#eaeae9"/>
      <path id="Path_5828" data-name="Path 5828" d="M372.891,890.385h-7.146s-2.6,13.511-.518,13.511S372.891,890.385,372.891,890.385Z" transform="translate(-352.181 -840.723)" fill="#eaeae9"/>
      <path id="Path_5829" data-name="Path 5829" d="M445.091,909.317c.627,1.25,1.264,2.5,1.921,3.725.334.608.67,1.214,1.033,1.789.183.286.37.567.564.828a3.506,3.506,0,0,0,.6.652.769.769,0,0,0,.113.071c.025.011.018,0,.022.007a.2.2,0,0,0-.037.011c-.009,0,0,0,.021-.018a1.83,1.83,0,0,0,.274-.7,11.843,11.843,0,0,0,.228-1.984c.056-1.372.048-2.777.021-4.172v-.007a.3.3,0,0,1,.592-.062,24.639,24.639,0,0,1,.466,4.258,11.006,11.006,0,0,1-.156,2.215,4.368,4.368,0,0,1-.163.591,2.119,2.119,0,0,1-.355.643,1.276,1.276,0,0,1-.387.311,1.106,1.106,0,0,1-.547.122,1.271,1.271,0,0,1-.486-.12,1.9,1.9,0,0,1-.335-.207,4.554,4.554,0,0,1-.828-.9,10.073,10.073,0,0,1-.606-.929c-.37-.627-.7-1.264-1-1.911a35.438,35.438,0,0,1-1.576-3.962.337.337,0,0,1,.622-.258Z" transform="translate(-408.053 -853.807)" fill="#3c4958"/>
      <path id="Path_5830" data-name="Path 5830" d="M364.27,897.446c-.238,2.04-.452,4.092-.592,6.125a25.041,25.041,0,0,0-.047,3.014,6.932,6.932,0,0,0,.076.708,2.346,2.346,0,0,0,.16.584.4.4,0,0,0,.065.106.156.156,0,0,0-.093-.03.474.474,0,0,0,.112-.051,1.625,1.625,0,0,0,.223-.167,6.812,6.812,0,0,0,.914-1.074c.286-.4.562-.826.83-1.256.533-.861,1.031-1.756,1.523-2.655.972-1.8,1.91-3.642,2.828-5.483v0a.3.3,0,0,1,.546.237c-.727,1.947-1.536,3.855-2.446,5.727-.454.937-.936,1.862-1.466,2.771-.264.455-.543.905-.852,1.345a7.891,7.891,0,0,1-1.082,1.287,2.822,2.822,0,0,1-.395.3,1.485,1.485,0,0,1-.605.223,1.08,1.08,0,0,1-.812-.246,1.479,1.479,0,0,1-.38-.519,3.455,3.455,0,0,1-.254-.9,8.089,8.089,0,0,1-.085-.832,22.306,22.306,0,0,1,.126-3.174,49.935,49.935,0,0,1,1.042-6.153.337.337,0,0,1,.663.113Z" transform="translate(-350.787 -845.386)" fill="#3c4958"/>
      <path id="Path_5831" data-name="Path 5831" d="M436.974,890.385h7.146l.129,3.909-5.453-.1Z" transform="translate(-402.834 -840.723)" fill="#f4f4f4" style="mix-blend-mode: multiply;isolation: isolate"/>
      <path id="Path_5832" data-name="Path 5832" d="M368.113,890.385h7.146l-2.049,3.909-5.4-.1Z" transform="translate(-354.548 -840.723)" fill="#f4f4f4" style="mix-blend-mode: multiply;isolation: isolate"/>
      <path id="Path_5833" data-name="Path 5833" d="M334.77,742.438a5.211,5.211,0,0,1-3.457,3.4,4.62,4.62,0,0,1-2.555-.027,5.968,5.968,0,0,1-2.213-1.215,7.225,7.225,0,0,1-1.593-1.93,7.008,7.008,0,0,1-.52-1.142,9.13,9.13,0,0,1-.343-1.192,11.6,11.6,0,0,1,.084-4.857A13.061,13.061,0,0,1,326.017,731a11.374,11.374,0,0,1,8.016-5.039c.2-.03.4-.047.6-.067s.391-.026.592-.031a11.27,11.27,0,0,1,1.211.023,7.229,7.229,0,0,1,2.36.588l0,0a.3.3,0,0,1-.208.558,10.357,10.357,0,0,0-4.411-.043,10.47,10.47,0,0,0-7.176,4.66,12.262,12.262,0,0,0-1.66,4.076,10.782,10.782,0,0,0-.112,4.363,7.974,7.974,0,0,0,.284,1.042,5.828,5.828,0,0,0,.427.976,6.235,6.235,0,0,0,1.309,1.666,5.124,5.124,0,0,0,1.8,1.06,3.741,3.741,0,0,0,2.027.1,4.109,4.109,0,0,0,1.835-.977,4.85,4.85,0,0,0,1.221-1.747l0,0a.337.337,0,0,1,.633.231Z" transform="translate(-323.87 -725.856)" fill="#3c4958"/>
      <path id="Path_5834" data-name="Path 5834" d="M326.47,764.195a6.043,6.043,0,0,0,4.644,3.853l.51,24.236a5.671,5.671,0,0,0,5.426,5.889h28.517A5.673,5.673,0,0,0,371,792.284v-5.009a5.675,5.675,0,0,1-5.428,5.892H337.05a5.673,5.673,0,0,1-5.426-5.892l-.436-19.218-.008-.589-.066-4.43a6.034,6.034,0,0,1-4.644-3.85,8.225,8.225,0,0,1-.337-1.024A10.325,10.325,0,0,0,326.47,764.195Z" transform="translate(-325.247 -748.413)" fill="#eaeae9" opacity="0.6" style="mix-blend-mode: multiply;isolation: isolate"/>
      <path id="Path_5835" data-name="Path 5835" d="M452.737,829.412a6.1,6.1,0,0,0,2.173-2.991,6.67,6.67,0,0,0,.342-1.822l.007-.47,0-.5-.005-1c0-2.677.016-5.353.066-8.029.019-1.338.052-2.676.086-4.015l.028-1,.016-.5a4.01,4.01,0,0,0-.011-.444,3.837,3.837,0,0,0-.538-1.671,3.507,3.507,0,0,0-1.257-1.227,3.071,3.071,0,0,0-.829-.32,3.754,3.754,0,0,0-.932-.079l-4.015-.049a.3.3,0,0,1,0-.6l4.015-.049a6.3,6.3,0,0,1,1.068.038,3.861,3.861,0,0,1,1.065.323,4.167,4.167,0,0,1,1.68,1.442,4.632,4.632,0,0,1,.78,2.081,5.065,5.065,0,0,1,.037.558l0,.5,0,1c0,1.338,0,2.676-.011,4.015-.014,2.677-.064,5.353-.128,8.029l-.029,1-.015.5-.026.533a7.445,7.445,0,0,1-.5,2.091,6.642,6.642,0,0,1-2.709,3.216.337.337,0,0,1-.375-.559Z" transform="translate(-410.232 -780.856)" fill="#3c4958"/>
      <path id="Path_5836" data-name="Path 5836" d="M342.813,798.31q.279,4.988.449,9.98c.121,3.328.208,6.656.289,9.984l.025,1.249.014.619c.012.19.009.384.031.571a5.694,5.694,0,0,0,.668,2.141,5.174,5.174,0,0,0,1.455,1.688,4.78,4.78,0,0,0,2.037.857,4.338,4.338,0,0,0,.556.055c.189.012.411.008.615.014l1.248.021,2.5.049c1.664.049,3.328.078,4.992.145a.3.3,0,0,1,0,.6c-1.664.066-3.328.1-4.992.144l-2.5.05-1.248.02c-.212,0-.407.011-.633,0a5.39,5.39,0,0,1-.687-.047,5.7,5.7,0,0,1-2.544-1,6.315,6.315,0,0,1-1.817-2.027,6.736,6.736,0,0,1-.832-2.583c-.028-.225-.028-.449-.043-.674l-.018-.629-.034-1.248c-.076-3.326-.146-6.652-.182-9.979s-.051-6.654-.021-9.983a.337.337,0,0,1,.673-.016Z" transform="translate(-336.612 -776.218)" fill="#3c4958"/>
    </g>
    <path id="Path_5837" data-name="Path 5837" d="M371.606,664.986s3.861,13.008,3.765,14.52-.068,23.715.326,24.293,18.428-.091,19.168-1.011c1-1.249,5.27-20.622,3.432-26.878-.426-6.406-1.016-11.264-1.459-11.832a15.7,15.7,0,0,0-12.88-6.351C376.609,657.744,370.049,660.44,371.606,664.986Z" transform="translate(-122.189 -142.748)" fill="#5b5b99"/>
    <path id="Path_5838" data-name="Path 5838" d="M453.445,813.322" transform="translate(-179.487 -251.377)" fill="none" stroke="#3b3b56" stroke-linecap="round" stroke-linejoin="round" stroke-width="4"/>
    <path id="Path_5839" data-name="Path 5839" d="M406.316,703.375c-.682,1.011-29.776.985-30.171.407s-.724-22.177-.628-23.689-3.765-14.52-3.765-14.52c-1.223-3.572,4.432-6.181,10.472-7-2.788,1.271-4.507,3.061-3.776,5.19,0,0,5.789,17.253,5.693,18.765s-4.191,19.552-3.8,20.13c.3.442,17.577.208,25.985-.379A2.387,2.387,0,0,1,406.316,703.375Z" transform="translate(-122.335 -143.335)" fill="#f4f4f4" style="mix-blend-mode: multiply;isolation: isolate"/>
    <path id="Path_5840" data-name="Path 5840" d="M456.248,678.891" transform="translate(-181.444 -157.523)" fill="#fdc54f"/>
    <path id="Path_5841" data-name="Path 5841" d="M456.248,678.891" transform="translate(-181.444 -157.523)" fill="#fdc54f"/>
    <path id="Path_5842" data-name="Path 5842" d="M399.7,730.09" transform="translate(-141.965 -193.268)" fill="none" stroke="#3b3b56" stroke-linecap="round" stroke-linejoin="round" stroke-width="4"/>
    <path id="Path_5843" data-name="Path 5843" d="M402.8,914.393s-.072,6.574-.072,6.272,7.244,0,7.244,0Z" transform="translate(-144.078 -321.94)" fill="#3b3b56"/>
    <line id="Line_49" data-name="Line 49" x1="16.834" transform="translate(290.649 598.493)" fill="#eaeae9"/>
    <path id="Path_5844" data-name="Path 5844" d="M412.579,757.88c2.7-2.777,28.6-1.48,30.731,1.525s7.288,40.322,7.288,40.322l-45.306,1.156S409.879,760.657,412.579,757.88Z" transform="translate(-145.868 -211.601)" fill="#5b5b99"/>
    <g id="Group_3219" data-name="Group 3219" transform="translate(259.424 544.749)">
      <g id="Group_3218" data-name="Group 3218" clip-path="url(#clip-path)">
        <rect id="Rectangle_1603" data-name="Rectangle 1603" width="66.606" height="16.143" transform="translate(57.802 46.898) rotate(-180)" fill="#5b5b99"/>
      </g>
    </g>
    <path id="Path_5846" data-name="Path 5846" d="M416.908,759.932a20.222,20.222,0,0,1,.7-2.312,6.318,6.318,0,0,1,.258-.577,2,2,0,0,1,.42-.577,3.423,3.423,0,0,1,1.17-.634,13.724,13.724,0,0,1,2.38-.551c.8-.124,1.591-.211,2.386-.277a77.9,77.9,0,0,1,9.544-.126,85.116,85.116,0,0,1,9.509.888c.79.127,1.579.27,2.366.449A16.9,16.9,0,0,1,448,756.9a5.244,5.244,0,0,1,1.179.611,2.484,2.484,0,0,1,.293.246,1.5,1.5,0,0,1,.254.326l.179.324c.058.109.084.2.128.3a19.4,19.4,0,0,1,.724,2.342c.782,3.1,1.357,6.218,1.932,9.338s1.087,6.245,1.593,9.372c1,6.256,1.907,12.523,2.777,18.8a.567.567,0,0,1-.483.641.542.542,0,0,1-.066.005l-10.616.242-10.617.211q-5.308.109-10.617.192l-10.617.168a.3.3,0,0,1-.015-.6l10.613-.374q5.306-.2,10.613-.349l10.613-.331,10.614-.3-.549.646q-1.332-9.393-2.836-18.764c-.5-3.123-1.01-6.243-1.562-9.354s-1.13-6.222-1.887-9.26a18.493,18.493,0,0,0-.667-2.193c-.034-.08-.064-.179-.1-.244l-.106-.2a.5.5,0,0,0-.1-.144,1.361,1.361,0,0,0-.161-.133,4.384,4.384,0,0,0-.923-.477,15.858,15.858,0,0,0-2.191-.659c-.754-.179-1.522-.327-2.293-.458a84.108,84.108,0,0,0-9.379-.969c-1.573-.083-3.148-.125-4.722-.137s-3.148.018-4.713.12c-.782.051-1.562.122-2.333.228a13.022,13.022,0,0,0-2.249.475,2.777,2.777,0,0,0-.919.46,2.575,2.575,0,0,0-.512.877,19.6,19.6,0,0,0-.717,2.215v0a.337.337,0,0,1-.651-.173Z" transform="translate(-151.768 -210.513)" fill="#3b3b56"/>
    <path id="Path_5847" data-name="Path 5847" d="M379.15,704.758c.472,1.654.9,3.311,1.243,5a19.844,19.844,0,0,1,.383,2.595c.043.86.067,1.719.08,2.577.047,3.432-.078,6.853-.158,10.266-.042,1.706-.081,3.411-.076,5.109.005.848.012,1.7.056,2.532.022.418.052.834.1,1.238a5.17,5.17,0,0,0,.231,1.113.808.808,0,0,0,.08.163c.009.013.015.018.007.011a.125.125,0,0,0-.027-.019l.05.024a2.831,2.831,0,0,0,.5.188,7.516,7.516,0,0,0,1.165.22,20.509,20.509,0,0,0,2.485.116,48.856,48.856,0,0,0,5.044-.322h0a.6.6,0,0,1,.658.525.62.62,0,0,1-.006.173c-.563,3.117-1.05,6.25-1.516,9.388s-.875,6.284-1.26,9.435-.729,6.307-1.061,9.46l-1.01,9.481-.467-.516,7.244.067-.262.708-6.271-5.512a.3.3,0,0,1,.388-.453l6.407,5.354a.4.4,0,0,1-.251.708H392.9l-7.244.067a.465.465,0,0,1-.47-.461c0-.016,0-.031,0-.046v-.008l.877-9.49c.28-3.172.634-6.332,1-9.493s.771-6.317,1.216-9.469.941-6.3,1.522-9.433l.655.7a49.849,49.849,0,0,1-5.182.312,21.576,21.576,0,0,1-2.63-.134,8.613,8.613,0,0,1-1.348-.263,3.92,3.92,0,0,1-.7-.269l-.093-.047a1.046,1.046,0,0,1-.158-.111,1.221,1.221,0,0,1-.2-.229,1.9,1.9,0,0,1-.208-.407,6.132,6.132,0,0,1-.295-1.389c-.052-.444-.081-.881-.1-1.316-.04-.87-.05-1.732-.041-2.592.017-1.72.078-3.43.142-5.139.13-3.416.278-6.826.3-10.229.005-.85,0-1.7-.024-2.547a19.142,19.142,0,0,0-.315-2.479c-.3-1.663-.683-3.329-1.1-4.974v0a.337.337,0,0,1,.65-.175Z" transform="translate(-127.156 -175.411)" fill="#3b3b56"/>
    <path id="Path_5848" data-name="Path 5848" d="M479.349,913.215s7.838,5.853,7.664,6.444-8.15,0-8.15,0Z" transform="translate(-197.232 -321.117)" fill="#3b3b56"/>
    <path id="Path_5849" data-name="Path 5849" d="M478.773,908.2c.665.412,1.311.851,1.966,1.277s1.3.871,1.936,1.318,1.28.893,1.916,1.345,1.265.913,1.9,1.369a.6.6,0,0,1-.349,1.088h-.006l-4.075-.012-4.075-.043h-.018a.535.535,0,0,1-.529-.525,32.745,32.745,0,0,1,.227-4.273c.08-.705.184-1.407.3-2.106s.238-1.393.395-2.09a.3.3,0,0,1,.587.1v.006c-.082.689-.155,1.387-.22,2.082s-.109,1.392-.151,2.087a37.858,37.858,0,0,0-.04,4.152l-.546-.525,4.075-.043,4.075-.012-.355,1.088c-.627-.465-1.26-.92-1.881-1.392s-1.248-.937-1.864-1.416-1.233-.958-1.844-1.444-1.219-.976-1.814-1.484a.338.338,0,0,1,.4-.544Z" transform="translate(-196.235 -315.604)" fill="#3b3b56"/>
    <path id="Path_5850" data-name="Path 5850" d="M465.551,662.44a39.212,39.212,0,0,0,2.81,5.159,15.23,15.23,0,0,0,1.776,2.259,5.734,5.734,0,0,0,2.217,1.514,3.092,3.092,0,0,0,.608.125,1.179,1.179,0,0,0,.152.01l.076,0h.035c-.048.008-.032.014.011-.025a1.785,1.785,0,0,0,.32-.436,6.637,6.637,0,0,0,.3-.612,28,28,0,0,0,.955-2.745c.573-1.883,1.087-3.8,1.665-5.706s1.194-3.8,1.9-5.676a37.991,37.991,0,0,1,2.494-5.483,20.989,20.989,0,0,1,1.678-2.54,12,12,0,0,1,2.167-2.193,7.311,7.311,0,0,1,2.821-1.342,6.5,6.5,0,0,1,3.1.1.3.3,0,0,1-.137.58,6.124,6.124,0,0,0-2.79.052,6.5,6.5,0,0,0-2.454,1.3,14.881,14.881,0,0,0-3.472,4.548,60,60,0,0,0-4.156,11c-.563,1.895-1.106,3.8-1.695,5.707a28.9,28.9,0,0,1-1.02,2.862,7.762,7.762,0,0,1-.36.72,2.777,2.777,0,0,1-.58.739,1.155,1.155,0,0,1-.65.285.865.865,0,0,1-.151,0l-.11,0a1.953,1.953,0,0,1-.218-.017,4.055,4.055,0,0,1-.842-.194,6.77,6.77,0,0,1-2.613-1.858,16.188,16.188,0,0,1-1.832-2.458,28.494,28.494,0,0,1-1.431-2.658c-.436-.9-.828-1.823-1.192-2.752a.337.337,0,0,1,.618-.267Z" transform="translate(-187.49 -133.589)" fill="#3b3b56"/>
    <path id="Path_5851" data-name="Path 5851" d="M314.195,679.384l-.119-3.141-.057-1.566-.092-1.565c-.138-2.085-.3-4.172-.568-6.234a21.148,21.148,0,0,0-.553-3.007c-.037-.111-.073-.227-.116-.322a.7.7,0,0,0-.063-.132l-.03-.059-.053-.078c-.138-.209-.281-.416-.434-.615a11.188,11.188,0,0,0-.986-1.136,13.468,13.468,0,0,0-5.114-3.145,19.872,19.872,0,0,0-5.993-1.076,20.658,20.658,0,0,0-6.054.695,14.118,14.118,0,0,0-2.811,1.085,7.493,7.493,0,0,0-2.294,1.763,3.852,3.852,0,0,0-.685,1.172c-.04.1-.094.272-.149.394s-.114.262-.173.39c-.123.251-.25.5-.386.733a27.053,27.053,0,0,1-1.786,2.674,63.215,63.215,0,0,1-4.065,4.872q-2.14,2.336-4.454,4.505a42.051,42.051,0,0,1-4.937,4.034,15.57,15.57,0,0,1-1.4.843,6.23,6.23,0,0,1-1.62.615,2.72,2.72,0,0,1-.489.053,1.7,1.7,0,0,1-.563-.077,2.4,2.4,0,0,1-.879-.523,6.144,6.144,0,0,1-1.069-1.362,48.878,48.878,0,0,1-2.66-5.782,56.846,56.846,0,0,0-2.643-5.644,22.917,22.917,0,0,0-1.66-2.594,12.393,12.393,0,0,0-2.072-2.217,7.354,7.354,0,0,0-2.616-1.412,6.9,6.9,0,0,0-2.973-.172.3.3,0,0,1-.1-.587,7.416,7.416,0,0,1,3.26.078,8.109,8.109,0,0,1,2.924,1.471,16.824,16.824,0,0,1,4.057,4.969,57.885,57.885,0,0,1,2.79,5.694l1.266,2.871a24.744,24.744,0,0,0,1.386,2.738,5.113,5.113,0,0,0,.865,1.1,1.285,1.285,0,0,0,.458.28.57.57,0,0,0,.212.025,1.63,1.63,0,0,0,.291-.034,5.169,5.169,0,0,0,1.3-.51,14.375,14.375,0,0,0,1.29-.784,41.021,41.021,0,0,0,4.778-3.935c1.516-1.422,2.971-2.913,4.371-4.453s2.748-3.128,3.989-4.782a25.889,25.889,0,0,0,1.712-2.547c.126-.218.241-.438.349-.657.051-.11.1-.219.146-.328s.074-.2.13-.341a5.035,5.035,0,0,1,.894-1.528,8.643,8.643,0,0,1,2.66-2.045,15.28,15.28,0,0,1,3.047-1.168,21.8,21.8,0,0,1,6.4-.715,20.311,20.311,0,0,1,6.326,1.2,14.513,14.513,0,0,1,5.468,3.456,12.157,12.157,0,0,1,1.059,1.25c.164.219.317.445.465.675a2.221,2.221,0,0,1,.223.423c.063.146.1.281.146.419a13.548,13.548,0,0,1,.337,1.6c.085.528.152,1.054.21,1.58.228,2.1.355,4.2.454,6.3l.063,1.576.026,1.577.037,3.147a.337.337,0,0,1-.673.017Z" transform="translate(-38.311 -141.651)" fill="#3b3b56"/>
    <g id="Group_3220" data-name="Group 3220" transform="translate(350.739 544.901)">
      <path id="Path_5852" data-name="Path 5852" d="M734.543,813.512c4.546,1.176,7.929-6.167,8.946-10.619s-1.878-6.279-.781-8.959,6.319-6.718,1.435-12.832c-6.794,2.823-5.428,7.447-5.63,11.342-.2,3.777-3.983,3.415-5.061,7.582S733.406,813.218,734.543,813.512Z" transform="translate(-725.396 -773.783)" fill="#eaeae9"/>
      <path id="Path_5853" data-name="Path 5853" d="M724.239,794.391c4.919-.639,5.341-9.169,4.583-13.934s-4.316-5.415-4.3-8.474,3.546-9.075-3.652-13.143c-5.546,5.444-2.385,9.439-1.048,13.336,1.3,3.779-2.558,4.917-1.972,9.427S723.009,794.551,724.239,794.391Z" transform="translate(-714.725 -758.24)" fill="#37e1ca"/>
      <path id="Path_5854" data-name="Path 5854" d="M715.645,881.793h9.439c3.839-6.119,8.229-11.945,4.616-22.047H711.029C707.033,869.461,710.669,875.329,715.645,881.793Z" transform="translate(-708.868 -828.688)" fill="#49cbf9"/>
      <path id="Path_5855" data-name="Path 5855" d="M710.287,858.7a23.513,23.513,0,0,0-1.447,5.679,15.683,15.683,0,0,0,.421,5.756,20.049,20.049,0,0,0,2.364,5.308,56.766,56.766,0,0,0,3.422,4.825l-.455-.224,9.438-.022-.506.28c1.044-1.678,2.121-3.313,3.069-5a23.348,23.348,0,0,0,2.247-5.284,16.462,16.462,0,0,0,.528-5.655,23.488,23.488,0,0,0-1.2-5.617l.477.336-7.962-.08c-2.654-.041-5.308-.07-7.962-.128a.3.3,0,0,1,0-.6c2.654-.057,5.308-.086,7.962-.128l7.962-.08a.5.5,0,0,1,.475.332v0a23.693,23.693,0,0,1,1.35,5.871,17.608,17.608,0,0,1-.524,6.038,24.528,24.528,0,0,1-2.317,5.565c-.96,1.753-2.049,3.406-3.1,5.06l0,0a.6.6,0,0,1-.5.276l-9.438-.022h0a.578.578,0,0,1-.453-.224,49.163,49.163,0,0,1-3.445-4.964,21.078,21.078,0,0,1-2.392-5.622l-.181-.749c-.047-.252-.08-.508-.12-.762s-.081-.508-.109-.763l-.044-.769c-.008-.256-.038-.513-.029-.769l.03-.768c.015-.255.008-.513.043-.766l.1-.76a23.013,23.013,0,0,1,1.677-5.832.337.337,0,0,1,.625.249Z" transform="translate(-707.815 -827.518)" fill="#3b3b56"/>
      <path id="Path_5856" data-name="Path 5856" d="M727.147,779.123a8.7,8.7,0,0,0-1.014-2.76,15.363,15.363,0,0,0-1.861-2.356,8.8,8.8,0,0,1-.987-1.293,4.133,4.133,0,0,1-.57-1.638,5.83,5.83,0,0,1,.075-1.676c.084-.528.191-1.035.29-1.538a18.253,18.253,0,0,0,.406-2.967,7.315,7.315,0,0,0-.39-2.82,8.029,8.029,0,0,0-3.859-4.1l.711-.094a13.6,13.6,0,0,0-2.172,2.8,6.46,6.46,0,0,0-.818,3.3,10.611,10.611,0,0,0,.791,3.437c.215.57.455,1.142.691,1.722.115.3.238.583.346.885a7.91,7.91,0,0,1,.3.937,4.523,4.523,0,0,1,.11,2.077,6.293,6.293,0,0,1-.706,1.892c-.306.566-.622,1.093-.889,1.628a6.843,6.843,0,0,0-.59,1.644,5.571,5.571,0,0,0-.111.859,3.872,3.872,0,0,0-.017.436l.023.439a13.136,13.136,0,0,0,.256,1.8,10.335,10.335,0,0,0,.5,1.733,6.76,6.76,0,0,0,.374.8c.072.127.148.251.231.367a2.4,2.4,0,0,0,.248.3l.029.028a.3.3,0,0,1-.4.441,2.662,2.662,0,0,1-.375-.395c-.1-.133-.2-.27-.288-.41a7.061,7.061,0,0,1-.458-.868,11.041,11.041,0,0,1-.61-1.831,13.916,13.916,0,0,1-.345-1.89l-.045-.493a4.75,4.75,0,0,1,0-.5,4.544,4.544,0,0,1,.025-.5l.073-.5a7.786,7.786,0,0,1,.621-1.881c.276-.588.588-1.138.862-1.675a4.023,4.023,0,0,0,.433-3.223c-.7-2.225-2.149-4.509-2.249-7.238a7.649,7.649,0,0,1,.924-3.889,13.757,13.757,0,0,1,2.394-3.089.579.579,0,0,1,.7-.1l.01.006a11.6,11.6,0,0,1,2.587,1.956,7.584,7.584,0,0,1,1.771,2.8,8.415,8.415,0,0,1,.436,3.258,19.284,19.284,0,0,1-.495,3.136c-.111.5-.227,1-.315,1.49a4.855,4.855,0,0,0-.1,1.4,3.133,3.133,0,0,0,.412,1.262,9.143,9.143,0,0,0,.852,1.181,16.092,16.092,0,0,1,1.864,2.555,8.95,8.95,0,0,1,.976,3.052.337.337,0,0,1-.664.11Z" transform="translate(-713.382 -756.853)" fill="#3b3b56"/>
      <path id="Path_5857" data-name="Path 5857" d="M755.2,801.5a8.308,8.308,0,0,0,.053-2.772,15.692,15.692,0,0,0-.818-2.711,8.521,8.521,0,0,1-.419-1.495,3.985,3.985,0,0,1,.075-1.672,5.45,5.45,0,0,1,.664-1.467c.263-.436.537-.843.8-1.249a18.447,18.447,0,0,0,1.413-2.444,6.913,6.913,0,0,0,.654-2.591,7.66,7.66,0,0,0-1.883-4.964l.657.169a14.229,14.229,0,0,0-2.353,1.223,7.409,7.409,0,0,0-1.859,1.787,6.479,6.479,0,0,0-1.027,2.373,15.324,15.324,0,0,0-.3,2.687.3.3,0,0,1-.6,0,13.754,13.754,0,0,1,.121-2.839c.029-.24.1-.475.146-.714s.141-.469.212-.7c.094-.227.184-.459.293-.68s.225-.443.367-.647a8,8,0,0,1,2.037-2.123,13.932,13.932,0,0,1,2.526-1.4.545.545,0,0,1,.645.153l.012.015a10.72,10.72,0,0,1,1.614,2.618,7.226,7.226,0,0,1,.592,3.1,8,8,0,0,1-.768,3.039,17.331,17.331,0,0,1-1.533,2.6c-.275.4-.551.8-.8,1.2a4.674,4.674,0,0,0-.574,1.168,2.888,2.888,0,0,0-.088,1.222,8.322,8.322,0,0,0,.323,1.327,14.378,14.378,0,0,1,.718,2.918,8.389,8.389,0,0,1-.253,3.036.337.337,0,0,1-.657-.145Z" transform="translate(-737.435 -772.469)" fill="#3b3b56"/>
      <path id="Path_5858" data-name="Path 5858" d="M725.082,892.017h-9.44c-4.053-5.263-7.215-10.133-6.094-17a20.323,20.323,0,0,0,3.183,7.553,8.847,8.847,0,0,0,7.436,4.054h0a8.881,8.881,0,0,0,7.686-4.468,22.442,22.442,0,0,0,2.98-7.763C731.958,881.892,728.322,886.849,725.082,892.017Z" transform="translate(-708.865 -838.912)" fill="#f4f4f4" style="mix-blend-mode: multiply;isolation: isolate"/>
    </g>
    <g id="Group_3224" data-name="Group 3224" transform="translate(204.84 500.421)">
      <path id="Path_5859" data-name="Path 5859" d="M238.724,612.112l6.112,19.978a1.263,1.263,0,0,1-.782,1.558L233.481,637.2a1.262,1.262,0,0,1-1.634-.822l-6.07-19.982a1.263,1.263,0,0,1,.781-1.555l10.531-3.547A1.262,1.262,0,0,1,238.724,612.112Z" transform="translate(-225.341 -610.697)" fill="#eaeae9"/>
      <path id="Path_5860" data-name="Path 5860" d="M242.242,611.564l-7.763,2.552a1.522,1.522,0,0,0-.938,1.889l6.073,19.376a1.523,1.523,0,0,0,1.955.982l7.645-2.46a1.523,1.523,0,0,0,.954-1.883l-5.956-19.468A1.523,1.523,0,0,0,242.242,611.564Z" transform="translate(-230.75 -610.876)" fill="#f4f4f4"/>
      <path id="Path_5861" data-name="Path 5861" d="M249.355,635.714l-8.148,2.517-5.975-17.793,8.723-2.857Z" transform="translate(-231.98 -615.14)" fill="#fb9387"/>
      <path id="Path_5862" data-name="Path 5862" d="M225.236,617.472l-.654-2.027-.041-.127c-.014-.043-.03-.107-.044-.161a1.631,1.631,0,0,1,.1-1.019,1.645,1.645,0,0,1,.406-.561,1.689,1.689,0,0,1,.284-.2,1.376,1.376,0,0,1,.158-.079c.057-.025.112-.047.148-.059l4.018-1.411,4.023-1.4,2.012-.695.252-.087.126-.043.17-.053a1.762,1.762,0,0,1,.746-.033,1.8,1.8,0,0,1,1.217.816,1.646,1.646,0,0,1,.165.34c.025.065.038.109.05.148l.04.127.161.507.321,1.015.638,2.031,1.257,4.069,2.513,8.138,1.235,4.112a1.849,1.849,0,0,1-.847,2.012,2.052,2.052,0,0,1-.35.161l-.253.084-2.021.671c-2.7.893-5.387,1.8-8.089,2.667l-.268.086a1.712,1.712,0,0,1-.364.073,1.776,1.776,0,0,1-1.8-1.074l-.063-.174-.039-.13-.075-.255-.15-.511-.3-1.021-1.2-4.087c-.779-2.731-1.577-5.455-2.34-8.191a.3.3,0,0,1,.57-.173c.887,2.7,1.74,5.405,2.611,8.108l1.279,4.062.319,1.016.159.508.08.254.039.124.029.075a.753.753,0,0,0,.461.409.739.739,0,0,0,.31.03.706.706,0,0,0,.156-.036l.238-.081c2.68-.937,5.371-1.841,8.058-2.756l2.016-.685.252-.086a.855.855,0,0,0,.132-.062.684.684,0,0,0,.2-.2.666.666,0,0,0,.1-.545l-1.249-4.034-4.9-16.17a.742.742,0,0,0-.492-.345.72.72,0,0,0-.31.007l-.085.025-.126.041-.253.083-2.023.664-4.049,1.322L225.862,614a.863.863,0,0,0-.553.464.887.887,0,0,0-.087.356,1,1,0,0,0,.015.185l.023.1.036.128.583,2.048a.337.337,0,0,1-.644.2Z" transform="translate(-224.458 -609.493)" fill="#3b3b56"/>
      <g id="Group_3223" data-name="Group 3223" transform="translate(7.3 9.388)">
        <path id="Path_5863" data-name="Path 5863" d="M255.536,644.855a2.532,2.532,0,0,1-.369,1.091,2.928,2.928,0,0,1-3.4,1.037,4.171,4.171,0,0,1-3.109-4.105c.182-1.721,1.868-2.674,3.767-2.128A4.17,4.17,0,0,1,255.536,644.855Z" transform="translate(-248.644 -640.596)" fill="#fff"/>
        <g id="Group_3222" data-name="Group 3222" transform="translate(0 0.001)">
          <g id="Group_3221" data-name="Group 3221" clip-path="url(#clip-path-2)">
            <path id="Path_5864" data-name="Path 5864" d="M258.546,657.941" transform="translate(-255.557 -652.706)" fill="none" stroke="#3b3b56" stroke-linecap="round" stroke-linejoin="round" stroke-width="4"/>
          </g>
        </g>
      </g>
      <path id="Path_5866" data-name="Path 5866" d="M252.978,646.114c-.006-.25,1.684.537,1.606.759a6.039,6.039,0,0,1-.262.577.2.2,0,0,0,.094.24,8.622,8.622,0,0,0,1.331.626.1.1,0,0,0,.15-.106c0-.173,0-.447.007-.644.01-.316,1.571.564,1.491.747-.043.1-.159.331-.276.562a.753.753,0,0,1-1,.339,15.262,15.262,0,0,1-2.277-1.072,1.613,1.613,0,0,1-.783-1.209C253.021,646.6,252.981,646.246,252.978,646.114Z" transform="translate(-244.369 -635.026)" fill="#fb9387"/>
    </g>
    <g id="Group_3228" data-name="Group 3228" transform="translate(293.179 485.302)">
      <path id="Path_5867" data-name="Path 5867" d="M525.228,562.025,519.116,582a1.262,1.262,0,0,0,.781,1.558l10.574,3.551a1.262,1.262,0,0,0,1.634-.822l6.07-19.982a1.263,1.263,0,0,0-.781-1.555l-10.531-3.547A1.263,1.263,0,0,0,525.228,562.025Z" transform="translate(-518.476 -560.61)" fill="#eaeae9"/>
      <path id="Path_5868" data-name="Path 5868" d="M527.269,561.476l7.763,2.552a1.523,1.523,0,0,1,.938,1.889L529.9,585.293a1.523,1.523,0,0,1-1.955.983l-7.646-2.46a1.523,1.523,0,0,1-.954-1.883l5.956-19.469A1.523,1.523,0,0,1,527.269,561.476Z" transform="translate(-518.625 -560.788)" fill="#f4f4f4"/>
      <path id="Path_5869" data-name="Path 5869" d="M526.27,585.627l8.148,2.517,5.975-17.793-8.723-2.857Z" transform="translate(-523.509 -565.053)" fill="#37e1ca"/>
      <path id="Path_5870" data-name="Path 5870" d="M535.837,567.189l.583-2.048.036-.128.023-.1a1.008,1.008,0,0,0,.014-.185.884.884,0,0,0-.086-.356.865.865,0,0,0-.553-.464L531.8,562.6l-4.049-1.322-2.023-.664-.253-.083-.126-.042-.084-.024a.72.72,0,0,0-.31-.007.74.74,0,0,0-.492.345l-4.9,16.17-1.249,4.034a.667.667,0,0,0,.1.545.686.686,0,0,0,.205.2.906.906,0,0,0,.132.062l.252.086,2.016.685c2.687.915,5.379,1.819,8.059,2.756l.238.081a.687.687,0,0,0,.156.036.741.741,0,0,0,.31-.03.753.753,0,0,0,.461-.409l.029-.075.04-.124.08-.254.16-.508.319-1.016,1.279-4.062c.871-2.7,1.724-5.411,2.611-8.108a.3.3,0,0,1,.57.173c-.763,2.735-1.56,5.46-2.34,8.191l-1.2,4.087-.3,1.022-.15.511-.075.255-.039.13-.063.174a1.776,1.776,0,0,1-1.8,1.074,1.728,1.728,0,0,1-.364-.073l-.268-.086c-2.7-.871-5.394-1.775-8.089-2.667l-2.021-.671-.253-.084a2.065,2.065,0,0,1-.35-.161,1.85,1.85,0,0,1-.847-2.012l1.235-4.112,2.513-8.138,1.257-4.069.638-2.031.321-1.015.161-.508.04-.127c.012-.04.026-.083.05-.149a1.669,1.669,0,0,1,.165-.34,1.8,1.8,0,0,1,1.217-.816,1.763,1.763,0,0,1,.746.032l.17.053.126.043.252.087,2.012.7,4.023,1.4,4.018,1.411c.037.011.091.034.148.058a1.32,1.32,0,0,1,.158.079,1.691,1.691,0,0,1,.284.2,1.638,1.638,0,0,1,.407.561,1.63,1.63,0,0,1,.1,1.019c-.014.053-.03.117-.044.161l-.041.127-.654,2.027a.337.337,0,0,1-.644-.2Z" transform="translate(-517.123 -559.405)" fill="#3b3b56"/>
      <g id="Group_3227" data-name="Group 3227" transform="translate(5.927 9.389)">
        <path id="Path_5871" data-name="Path 5871" d="M536.777,594.768a2.529,2.529,0,0,0,.369,1.091,2.927,2.927,0,0,0,3.4,1.037,4.17,4.17,0,0,0,3.109-4.105c-.182-1.721-1.868-2.674-3.767-2.128A4.17,4.17,0,0,0,536.777,594.768Z" transform="translate(-536.761 -590.509)" fill="#fff"/>
        <g id="Group_3226" data-name="Group 3226" transform="translate(0 0.001)">
          <g id="Group_3225" data-name="Group 3225" clip-path="url(#clip-path-3)">
            <path id="Path_5872" data-name="Path 5872" d="M549.742,607.853" transform="translate(-545.823 -602.619)" fill="none" stroke="#3b3b56" stroke-linecap="round" stroke-linejoin="round" stroke-width="4"/>
          </g>
        </g>
      </g>
      <path id="Path_5874" data-name="Path 5874" d="M545.09,596.027c.006-.25-1.684.537-1.606.758a6.1,6.1,0,0,0,.262.578.2.2,0,0,1-.094.24,8.66,8.66,0,0,1-1.331.626.1.1,0,0,1-.15-.106c0-.173,0-.448-.007-.644-.01-.316-1.571.564-1.491.747.043.1.159.331.276.561a.753.753,0,0,0,1,.339,15.279,15.279,0,0,0,2.277-1.072,1.613,1.613,0,0,0,.783-1.209C545.047,596.508,545.087,596.159,545.09,596.027Z" transform="translate(-533.563 -584.939)" fill="#37e1ca"/>
    </g>
    <g id="Group_3230" data-name="Group 3230" transform="translate(221.217 453.263)">
      <path id="Path_5875" data-name="Path 5875" d="M321.869,624.757" transform="translate(-308.843 -572.992)" fill="none" stroke="#3b3b56" stroke-linecap="round" stroke-linejoin="round" stroke-width="4"/>
      <path id="Path_5876" data-name="Path 5876" d="M305.993,461.233s-19.551,7.18-25.8,21.693c-2.125,4.936,10.116,47.847,10.116,47.847l13.908-6.571C285.594,473.483,307.644,473.785,305.993,461.233Z" transform="translate(-279.576 -458.827)" fill="#5b5b99"/>
      <path id="Path_5877" data-name="Path 5877" d="M320.65,456.682c14.687-2.746,33.1,7.844,33.712,11.108.464,2.48,4,37.149,2.6,37.741-17.539,7.405-44.977,9.32-46.369,7.7a3.744,3.744,0,0,1-.786-3.892S297,482.5,296.092,479.289,305.963,459.427,320.65,456.682Z" transform="translate(-290.809 -455.336)" fill="#5b5b99"/>
      <path id="Path_5878" data-name="Path 5878" d="M382.9,531.457c-2.514,2.159-34.613,7.853-36.606,6.229-1.85-1.507-9.792-31.026-6.852-34.186s33.632-9.818,37.385-6.989S385.416,529.3,382.9,531.457Z" transform="translate(-320.663 -482.979)" fill="#fff"/>
      <path id="Path_5879" data-name="Path 5879" d="M289.124,525.29q-2.451-9.89-4.78-19.808c-1.543-6.615-3.067-13.234-4.4-19.9-.329-1.669-.646-3.34-.91-5.028-.127-.847-.254-1.689-.306-2.569a5.3,5.3,0,0,1,0-.69,3.79,3.79,0,0,1,.122-.7,7.384,7.384,0,0,1,.472-1.263,22.193,22.193,0,0,1,2.884-4.312,45.731,45.731,0,0,1,3.5-3.767,59.142,59.142,0,0,1,7.973-6.45,53.465,53.465,0,0,1,9-4.936,38.652,38.652,0,0,1,4.868-1.716,26.152,26.152,0,0,1,5.123-.821,36.076,36.076,0,0,1,10.264.924,48.7,48.7,0,0,1,9.72,3.364,44.619,44.619,0,0,1,4.538,2.45,22.826,22.826,0,0,1,4.146,3.175,4.913,4.913,0,0,1,1.4,2.408c.253.848.434,1.689.6,2.533.329,1.686.58,3.374.808,5.064.446,3.381.745,6.773,1,10.166s.408,6.8.458,10.2c.026,1.7.02,3.409-.07,5.117-.044.854-.1,1.708-.208,2.565-.054.429-.118.857-.215,1.289a5.337,5.337,0,0,1-.187.652,2.427,2.427,0,0,1-.153.335,1.022,1.022,0,0,1-.3.344.3.3,0,1,1-.343-.488l0,0,0,0a1.012,1.012,0,0,0,.2-.392,4.683,4.683,0,0,0,.14-.577c.074-.4.12-.814.155-1.229.069-.832.093-1.675.1-2.517.011-1.686-.029-3.377-.087-5.068-.128-3.382-.37-6.762-.634-10.138s-.631-6.745-1.059-10.1c-.216-1.676-.455-3.349-.767-5-.158-.822-.331-1.644-.559-2.424a3.743,3.743,0,0,0-1.116-1.945,21.837,21.837,0,0,0-3.925-3,43.53,43.53,0,0,0-4.418-2.391,47.691,47.691,0,0,0-9.484-3.319,35,35,0,0,0-9.952-.934,25.071,25.071,0,0,0-4.921.77,37.928,37.928,0,0,0-4.737,1.649,52.442,52.442,0,0,0-8.853,4.805,59.735,59.735,0,0,0-7.879,6.3,44.837,44.837,0,0,0-3.459,3.664,21.4,21.4,0,0,0-2.8,4.11,6.568,6.568,0,0,0-.429,1.114,3.142,3.142,0,0,0-.1,1.134c.045.815.167,1.656.289,2.487.256,1.668.566,3.334.888,5,1.308,6.653,2.812,13.276,4.332,19.891s3.1,13.219,4.714,19.814a.337.337,0,1,1-.653.162Z" transform="translate(-278.714 -453.263)" fill="#3b3b56"/>
      <path id="Path_5880" data-name="Path 5880" d="M333.148,521.012a2.948,2.948,0,0,0-1.85,1.721,8.871,8.871,0,0,0-.693,2.7,27.95,27.95,0,0,0,.011,5.759,86.354,86.354,0,0,0,1.931,11.5c.836,3.81,1.866,7.58,2.967,11.328q.823,2.813,1.74,5.6c.592,1.863,1.237,3.708,1.884,5.554a.3.3,0,0,1-.555.216c-.773-1.806-1.477-3.641-2.165-5.481q-1.007-2.77-1.912-5.576c-1.2-3.743-2.239-7.539-3.136-11.372-.429-1.921-.812-3.854-1.133-5.8a58.625,58.625,0,0,1-.711-5.884,28.682,28.682,0,0,1,.145-5.974,9.72,9.72,0,0,1,.895-2.935,4.436,4.436,0,0,1,.97-1.276,3.2,3.2,0,0,1,1.461-.733.337.337,0,0,1,.152.656Z" transform="translate(-314.128 -500.1)" fill="#3b3b56"/>
      <path id="Path_5881" data-name="Path 5881" d="M383.1,541.984a.931.931,0,0,1-.2.252c-2.516,2.159-34.613,7.852-36.608,6.228-1.849-1.507-9.789-31.027-6.85-34.187.78-.836,3.513-1.921,7.177-3.012a4.661,4.661,0,0,0-1.227.827c-2.939,3.16,5,32.679,6.85,34.187C353.778,547.526,373.1,544.452,383.1,541.984Z" transform="translate(-320.663 -493.758)" fill="#f4f4f4" style="mix-blend-mode: multiply;isolation: isolate"/>
      <g id="Group_3229" data-name="Group 3229" transform="translate(48.256 42.112)">
        <path id="Path_5882" data-name="Path 5882" d="M441.442,593.905c-1.258,0-1.459,3.272-.186,2.919S442.7,593.908,441.442,593.905Z" transform="translate(-439.848 -593.565)" fill="#3b3b56"/>
        <path id="Path_5883" data-name="Path 5883" d="M440.178,593.454c-.159.036-.275.178-.372.408a2.27,2.27,0,0,0-.14.765,1.962,1.962,0,0,0,.107.721.3.3,0,0,0,.088.135c0-.01-.075-.027-.043-.027a.691.691,0,0,0,.386-.283,1.727,1.727,0,0,0,.286-.644,1.636,1.636,0,0,0,.018-.706.481.481,0,0,0-.33-.408Zm0-.634a1.921,1.921,0,0,1,.34.009,1.117,1.117,0,0,1,.337.134,1,1,0,0,1,.273.232,1.206,1.206,0,0,1,.193.28,2.22,2.22,0,0,1,.219,1.194,2.528,2.528,0,0,1-.372,1.157,1.816,1.816,0,0,1-1.142.819,1.183,1.183,0,0,1-.488-.014,1.114,1.114,0,0,1-.457-.242,1.4,1.4,0,0,1-.41-.681,2.724,2.724,0,0,1-.041-1.2,2.858,2.858,0,0,1,.414-1.077,1.684,1.684,0,0,1,.448-.465,1.079,1.079,0,0,1,.686-.19Z" transform="translate(-438.585 -592.778)" fill="#3b3b56"/>
      </g>
      <path id="Path_5884" data-name="Path 5884" d="M366.537,497.795c-2.492,7.529-9.3,17.718-25.966,22.677-1.841-7.94-2.769-14.28-1.3-15.855,1.988-2.135,16.627-5.865,27.083-7.19C366.411,497.547,366.473,497.671,366.537,497.795Z" transform="translate(-320.485 -484.096)" fill="#7f7ff8"/>
      <path id="Path_5885" data-name="Path 5885" d="M445.873,509.36c-7.088-.324-11.958-7.451-14.59-12.683q.065-.209.131-.409c4.877-.6,8.792-.656,9.984.242C442.9,497.638,444.567,503.083,445.873,509.36Z" transform="translate(-385.231 -482.978)" fill="#7f7ff8"/>
      <path id="Path_5886" data-name="Path 5886" d="M339.9,502.005a4.322,4.322,0,0,1,.944-.7c.325-.186.655-.352.987-.507.665-.309,1.342-.576,2.021-.83,1.361-.5,2.739-.941,4.124-1.352,2.77-.817,5.57-1.518,8.385-2.148s5.653-1.161,8.507-1.606a63.839,63.839,0,0,1,8.658-.844,17.885,17.885,0,0,1,2.224.107,7.105,7.105,0,0,1,1.146.223,3.041,3.041,0,0,1,.295.1,2.647,2.647,0,0,1,.879.522,4.536,4.536,0,0,1,.753.972,10.425,10.425,0,0,1,.534,1.006c.317.676.584,1.362.829,2.051a70.964,70.964,0,0,1,2.264,8.4q.908,4.24,1.529,8.53c.41,2.861.749,5.732.884,8.639.03.727.045,1.457.031,2.193a15.245,15.245,0,0,1-.181,2.24,4.189,4.189,0,0,1-.377,1.21,1.7,1.7,0,0,1-.249.343.989.989,0,0,1-.16.147c-.05.037-.105.08-.153.11a4.569,4.569,0,0,1-.552.293,17.947,17.947,0,0,1-2.105.753c-2.8.826-5.614,1.435-8.439,2.024s-5.66,1.1-8.5,1.578-5.695.9-8.562,1.243c-1.433.171-2.871.32-4.319.421-.724.049-1.451.086-2.187.09-.37,0-.739-.005-1.121-.039a5.952,5.952,0,0,1-.59-.08,2.747,2.747,0,0,1-.326-.088c-.061-.024-.117-.043-.181-.074a1.657,1.657,0,0,1-.207-.135,1.693,1.693,0,0,1-.256-.3,2.457,2.457,0,0,1-.168-.266c-.1-.174-.182-.344-.266-.515-.158-.34-.3-.68-.434-1.021-.268-.681-.508-1.365-.738-2.052-.461-1.373-.877-2.755-1.272-4.143q-1.174-4.166-2.113-8.387c-.628-2.814-1.19-5.643-1.621-8.5a.3.3,0,0,1,.589-.093c.475,2.826,1.081,5.633,1.753,8.422s1.418,5.562,2.241,8.308c.413,1.372.834,2.742,1.3,4.091.233.674.476,1.345.741,2,.133.327.271.65.419.96.076.152.151.307.233.442a1.654,1.654,0,0,0,.12.188,1.061,1.061,0,0,0,.091.115c.01.006.015,0,.02.01l.069.025a1.854,1.854,0,0,0,.195.05c.15.027.312.046.479.059.335.027.685.027,1.034.025.7-.01,1.411-.052,2.121-.107,1.42-.113,2.843-.274,4.263-.457,5.68-.757,11.346-1.731,16.961-2.9,2.8-.594,5.611-1.214,8.329-2.027a16.939,16.939,0,0,0,1.952-.7,3.489,3.489,0,0,0,.4-.212.426.426,0,0,0,.167-.176,3.173,3.173,0,0,0,.246-.846,14.135,14.135,0,0,0,.156-2.056c.011-.7-.006-1.411-.038-2.12-.126-2.84-.453-5.689-.852-8.522s-.9-5.656-1.494-8.456a69.908,69.908,0,0,0-2.2-8.258c-.235-.666-.491-1.322-.782-1.949a9.221,9.221,0,0,0-.474-.9,3.635,3.635,0,0,0-.554-.736,3.245,3.245,0,0,0-1.687-.564,16.743,16.743,0,0,0-2.081-.117,62.924,62.924,0,0,0-8.509.759c-2.833.415-5.654.931-8.46,1.519s-5.6,1.236-8.36,2c-1.378.386-2.75.8-4.094,1.272-.671.238-1.337.49-1.981.777-.321.144-.636.3-.938.463a3.788,3.788,0,0,0-.793.563l-.012.012a.337.337,0,0,1-.481-.471Z" transform="translate(-321.369 -481.714)" fill="#3b3b56"/>
      <path id="Path_5887" data-name="Path 5887" d="M289.124,525.29q-2.451-9.89-4.78-19.808c-1.543-6.615-3.067-13.234-4.4-19.9-.329-1.669-.646-3.34-.91-5.028-.127-.847-.254-1.689-.306-2.569a5.3,5.3,0,0,1,0-.69,3.79,3.79,0,0,1,.122-.7,7.384,7.384,0,0,1,.472-1.263,22.193,22.193,0,0,1,2.884-4.312,45.731,45.731,0,0,1,3.5-3.767,59.142,59.142,0,0,1,7.973-6.45,53.465,53.465,0,0,1,9-4.936,38.652,38.652,0,0,1,4.868-1.716,26.152,26.152,0,0,1,5.123-.821,36.076,36.076,0,0,1,10.264.924,48.7,48.7,0,0,1,9.72,3.364,44.619,44.619,0,0,1,4.538,2.45,22.826,22.826,0,0,1,4.146,3.175,4.913,4.913,0,0,1,1.4,2.408c.253.848.434,1.689.6,2.533.329,1.686.58,3.374.808,5.064.446,3.381.745,6.773,1,10.166s.408,6.8.458,10.2c.026,1.7.02,3.409-.07,5.117-.044.854-.1,1.708-.208,2.565-.054.429-.118.857-.215,1.289a5.337,5.337,0,0,1-.187.652,2.427,2.427,0,0,1-.153.335,1.022,1.022,0,0,1-.3.344.3.3,0,1,1-.343-.488l0,0,0,0a1.012,1.012,0,0,0,.2-.392,4.683,4.683,0,0,0,.14-.577c.074-.4.12-.814.155-1.229.069-.832.093-1.675.1-2.517.011-1.686-.029-3.377-.087-5.068-.128-3.382-.37-6.762-.634-10.138s-.631-6.745-1.059-10.1c-.216-1.676-.455-3.349-.767-5-.158-.822-.331-1.644-.559-2.424a3.743,3.743,0,0,0-1.116-1.945,21.837,21.837,0,0,0-3.925-3,43.53,43.53,0,0,0-4.418-2.391,47.691,47.691,0,0,0-9.484-3.319,35,35,0,0,0-9.952-.934,25.071,25.071,0,0,0-4.921.77,37.928,37.928,0,0,0-4.737,1.649,52.442,52.442,0,0,0-8.853,4.805,59.735,59.735,0,0,0-7.879,6.3,44.837,44.837,0,0,0-3.459,3.664,21.4,21.4,0,0,0-2.8,4.11,6.568,6.568,0,0,0-.429,1.114,3.142,3.142,0,0,0-.1,1.134c.045.815.167,1.656.289,2.487.256,1.668.566,3.334.888,5,1.308,6.653,2.812,13.276,4.332,19.891s3.1,13.219,4.714,19.814a.337.337,0,1,1-.653.162Z" transform="translate(-278.714 -453.263)" fill="#3b3b56"/>
      <path id="Path_5888" data-name="Path 5888" d="M362.785,565.9c-.517-2.974,20.55-11.462,22.347-1.134S363.325,569,362.785,565.9Z" transform="translate(-337.402 -527.638)" fill="#49cbf9"/>
      <path id="Path_5889" data-name="Path 5889" d="M460.709,551.223c-.518-2.974-17.435-4.853-15.639,5.475S461.248,554.324,460.709,551.223Z" transform="translate(-394.763 -520.017)" fill="#49cbf9"/>
      <path id="Path_5890" data-name="Path 5890" d="M366.264,567.8a20.047,20.047,0,0,1-1.942-.667,12.716,12.716,0,0,1-1.883-.922,4.452,4.452,0,0,1-.886-.7,1.9,1.9,0,0,1-.379-.569,1.245,1.245,0,0,1-.088-.419.943.943,0,0,1,.013-.211.883.883,0,0,1,.041-.193,2.654,2.654,0,0,1,.672-1.055,6.962,6.962,0,0,1,.82-.724,18.453,18.453,0,0,1,3.621-2.056,30.087,30.087,0,0,1,3.876-1.393,26.609,26.609,0,0,1,4.048-.811,16.376,16.376,0,0,1,4.17.013,7.838,7.838,0,0,1,3.933,1.61,5.732,5.732,0,0,1,1.965,3.73v0a.3.3,0,0,1-.587.1,5.159,5.159,0,0,0-1.929-3.14,5.658,5.658,0,0,0-1.656-.849,8.953,8.953,0,0,0-1.863-.4,16.342,16.342,0,0,0-3.891.092,26.419,26.419,0,0,0-3.861.815,30.1,30.1,0,0,0-3.731,1.319,18.734,18.734,0,0,0-3.436,1.85,5.885,5.885,0,0,0-.714.589,1.838,1.838,0,0,0-.446.6c-.024.088-.032.1-.012.165a.932.932,0,0,0,.172.271,3.649,3.649,0,0,0,.669.577,17.563,17.563,0,0,0,3.52,1.738h0a.337.337,0,0,1-.219.637Z" transform="translate(-336.221 -526.349)" fill="#3b3b56"/>
      <path id="Path_5891" data-name="Path 5891" d="M457.628,553.227c.324-.411.633-.832.915-1.261a6.478,6.478,0,0,0,.689-1.323,1.826,1.826,0,0,0,.128-.608.41.41,0,0,0-.041-.194.779.779,0,0,0-.135-.194,3.318,3.318,0,0,0-1.143-.706,11.9,11.9,0,0,0-2.945-.714,16.7,16.7,0,0,0-3.077-.11,13.036,13.036,0,0,0-3.009.488,7.675,7.675,0,0,0-2.651,1.305,4.857,4.857,0,0,0-1.636,2.349,7.112,7.112,0,0,0-.225,3v0a.3.3,0,0,1-.587.1,7.331,7.331,0,0,1-.04-3.34,5.593,5.593,0,0,1,.671-1.6,5.966,5.966,0,0,1,1.135-1.321,8.371,8.371,0,0,1,2.993-1.608,13.819,13.819,0,0,1,3.28-.577,17.315,17.315,0,0,1,3.3.139,14.758,14.758,0,0,1,1.63.326,9.534,9.534,0,0,1,1.6.555,6.228,6.228,0,0,1,.773.42,3,3,0,0,1,.723.631,1.764,1.764,0,0,1,.282.484,1.42,1.42,0,0,1,.091.587,2.7,2.7,0,0,1-.241.938,7.313,7.313,0,0,1-.9,1.446,12.634,12.634,0,0,1-1.081,1.234.337.337,0,0,1-.5-.447Z" transform="translate(-393.898 -518.628)" fill="#3b3b56"/>
      <path id="Path_5892" data-name="Path 5892" d="M453.432,565.828a7.51,7.51,0,0,1,.4,1.247c.1.42.18.843.237,1.27s.1.855.111,1.288a7.618,7.618,0,0,1-.046,1.31.31.31,0,0,1-.59.085,7.65,7.65,0,0,1-.414-1.244c-.11-.419-.186-.842-.257-1.267s-.108-.854-.131-1.285a7.506,7.506,0,0,1,.027-1.308.349.349,0,0,1,.667-.1Z" transform="translate(-400.199 -531.704)" fill="#3b3b56"/>
      <path id="Path_5893" data-name="Path 5893" d="M393.267,575.807a6.808,6.808,0,0,1,.387,1.181,11.752,11.752,0,0,1,.228,1.2c.049.405.093.811.1,1.222a6.922,6.922,0,0,1-.055,1.245.311.311,0,0,1-.59.085,6.9,6.9,0,0,1-.405-1.179c-.107-.4-.18-.8-.247-1.2a11.647,11.647,0,0,1-.123-1.219,6.791,6.791,0,0,1,.036-1.242.35.35,0,0,1,.666-.1Z" transform="translate(-358.19 -538.673)" fill="#3b3b56"/>
    </g>
    <rect id="Rectangle_1604" data-name="Rectangle 1604" width="33.453" height="29.405" rx="7.031" transform="translate(328.601 457.281)" fill="#eaeae9" style="mix-blend-mode: multiply;isolation: isolate"/>
    <rect id="Rectangle_1605" data-name="Rectangle 1605" width="33.453" height="29.405" rx="7.031" transform="translate(326.997 455.448)" fill="#b6b6fc"/>
    <path id="Path_5894" data-name="Path 5894" d="M662.612,462.624v2.231H629.159v-2.231a2.122,2.122,0,0,1,2.123-2.123H660.49A2.122,2.122,0,0,1,662.612,462.624Z" transform="translate(-302.162 -5.053)" fill="#7f7ff8"/>
    <circle id="Ellipse_448" data-name="Ellipse 448" cx="1.489" cy="1.489" r="1.489" transform="translate(333.565 454.073)" fill="#fff"/>
    <circle id="Ellipse_449" data-name="Ellipse 449" cx="1.489" cy="1.489" r="1.489" transform="translate(339.294 454.073)" fill="#fff"/>
    <circle id="Ellipse_450" data-name="Ellipse 450" cx="1.489" cy="1.489" r="1.489" transform="translate(344.946 454.073)" fill="#fff"/>
    <circle id="Ellipse_451" data-name="Ellipse 451" cx="1.489" cy="1.489" r="1.489" transform="translate(350.369 454.073)" fill="#fff"/>
    <path id="Path_5895" data-name="Path 5895" d="M698.479,460.615c0-.039,0-.077-.005-.114h2.455c0,.037-.005.075-.005.114a1.489,1.489,0,0,0,1.49,1.49" transform="translate(-350.555 -5.053)" fill="none" stroke="#3b3b56" stroke-linecap="round" stroke-linejoin="round" stroke-width="1"/>
    <path id="Path_5896" data-name="Path 5896" d="M679.754,460.615a1.1,1.1,0,0,0-.005-.114h2.684a1.085,1.085,0,0,0-.005.114,1.489,1.489,0,0,0,1.489,1.49" transform="translate(-337.482 -5.053)" fill="none" stroke="#3b3b56" stroke-linecap="round" stroke-linejoin="round" stroke-width="1"/>
    <path id="Path_5897" data-name="Path 5897" d="M660.776,460.615a1.1,1.1,0,0,0-.005-.114h2.76a1.085,1.085,0,0,0-.005.114,1.489,1.489,0,0,0,1.489,1.49" transform="translate(-324.232 -5.053)" fill="none" stroke="#3b3b56" stroke-linecap="round" stroke-linejoin="round" stroke-width="1"/>
    <path id="Path_5898" data-name="Path 5898" d="M715.318,459.48l-.008-.08a.341.341,0,0,1,.3-.374h.035c1.176-.053,2.353-.076,3.529-.114l.882-.024a7.465,7.465,0,0,1,.952.011,2.633,2.633,0,0,1,1.822,1.1,2.66,2.66,0,0,1,.425,1.014,3.21,3.21,0,0,1,.051.535l.008.441.022,1.765c.017,1.176.016,2.353.019,3.529q0,3.529-.062,7.058t-.241,7.057a.3.3,0,0,1-.6,0q-.179-3.529-.241-7.057t-.062-7.058c0-1.176,0-2.352.02-3.529l.022-1.765.008-.441a1.967,1.967,0,0,0-.02-.343,1.575,1.575,0,0,0-.233-.609,1.634,1.634,0,0,0-1.083-.714,7.008,7.008,0,0,0-.81-.038l-.882-.024c-1.176-.038-2.353-.062-3.529-.114l.34-.376,0,.149a.336.336,0,0,1-.669.041Z" transform="translate(-362.308 -3.918)" fill="#3b3b56"/>
    <rect id="Rectangle_1606" data-name="Rectangle 1606" width="5.551" height="5.551" rx="2.055" transform="translate(330.456 461.912)" fill="#fff"/>
    <rect id="Rectangle_1607" data-name="Rectangle 1607" width="5.551" height="5.551" rx="2.055" transform="translate(337.522 461.912)" fill="#fff"/>
    <rect id="Rectangle_1608" data-name="Rectangle 1608" width="5.551" height="5.551" rx="2.055" transform="translate(344.442 461.912)" fill="#fff"/>
    <rect id="Rectangle_1609" data-name="Rectangle 1609" width="5.551" height="5.551" rx="2.055" transform="translate(351.363 461.912)" fill="#fff"/>
    <rect id="Rectangle_1610" data-name="Rectangle 1610" width="5.551" height="5.551" rx="2.055" transform="translate(330.456 468.977)" fill="#fff"/>
    <rect id="Rectangle_1611" data-name="Rectangle 1611" width="5.551" height="5.551" rx="2.055" transform="translate(337.522 468.977)" fill="#fff"/>
    <rect id="Rectangle_1612" data-name="Rectangle 1612" width="5.551" height="5.551" rx="2.055" transform="translate(344.442 468.977)" fill="#fff"/>
    <rect id="Rectangle_1613" data-name="Rectangle 1613" width="5.551" height="5.551" rx="2.055" transform="translate(351.363 468.977)" fill="#fff"/>
    <rect id="Rectangle_1614" data-name="Rectangle 1614" width="5.551" height="5.551" rx="2.055" transform="translate(330.456 475.97)" fill="#fff"/>
    <rect id="Rectangle_1615" data-name="Rectangle 1615" width="5.551" height="5.551" rx="2.055" transform="translate(337.522 475.97)" fill="#fff"/>
    <rect id="Rectangle_1616" data-name="Rectangle 1616" width="5.551" height="5.551" rx="2.055" transform="translate(344.508 475.97)" fill="#fff"/>
    <g id="Group_3231" data-name="Group 3231" transform="translate(348.027 476.921)">
      <ellipse id="Ellipse_452" data-name="Ellipse 452" cx="7.815" cy="7.364" rx="7.815" ry="7.364" transform="matrix(0.023, -1, 1, 0.023, 0.07, 16.078)" fill="#37e1ca"/>
      <ellipse id="Ellipse_453" data-name="Ellipse 453" cx="7.815" cy="7.364" rx="7.815" ry="7.364" transform="matrix(0.023, -1, 1, 0.023, 0.103, 17.816)" fill="#eaeae9" style="mix-blend-mode: multiply;isolation: isolate"/>
      <ellipse id="Ellipse_454" data-name="Ellipse 454" cx="5.786" cy="5.452" rx="5.786" ry="5.452" transform="matrix(0.023, -1, 1, 0.023, 2.014, 14.094)" fill="#fff"/>
      <path id="Path_5899" data-name="Path 5899" d="M714.08,545.576c.271.316.519.646.756.982s.468.676.685,1.023.429.7.638,1.051.4.712.593,1.076l.023.043a.539.539,0,0,1-.024.538q-.393.615-.818,1.211c-.284.4-.579.788-.9,1.163a.3.3,0,0,1-.514-.3c.172-.463.369-.911.579-1.352s.43-.875.661-1.3l0,.581c-.222-.345-.43-.7-.639-1.05s-.407-.711-.595-1.076-.375-.729-.547-1.1-.337-.752-.477-1.144a.343.343,0,0,1,.583-.338Z" transform="translate(-709.056 -541.286)" fill="#3b3b56"/>
      <path id="Path_5900" data-name="Path 5900" d="M699.511,539.912a7.978,7.978,0,0,0,.5,2.827,7.714,7.714,0,0,0,1.474,2.433,6.857,6.857,0,0,0,4.974,2.294,6.513,6.513,0,0,0,2.712-.558,7.106,7.106,0,0,0,2.259-1.6,7.758,7.758,0,0,0,.235-10.236,6.923,6.923,0,0,0-2.188-1.7,6.726,6.726,0,0,0-2.682-.676,6.806,6.806,0,0,0-2.738.487,7.171,7.171,0,0,0-2.329,1.572,7.889,7.889,0,0,0-2.254,5.157Zm-.634-.015a8.452,8.452,0,0,1,2.21-5.756,8.027,8.027,0,0,1,2.587-1.853,7.825,7.825,0,0,1,3.143-.648,7.388,7.388,0,0,1,3.141.726,8.051,8.051,0,0,1,2.567,1.949,8.731,8.731,0,0,1-.268,11.784,7.868,7.868,0,0,1-2.656,1.823,7.561,7.561,0,0,1-6.274-.212,7.847,7.847,0,0,1-2.5-1.966A8.533,8.533,0,0,1,699.28,543a8.7,8.7,0,0,1-.443-3.1Z" transform="translate(-698.831 -531.641)" fill="#3b3b56"/>
    </g>
    <path id="Path_5901" data-name="Path 5901" d="M647.225,489.241c-2.233.061-4.467.087-6.7.131l-6.7.074c-1.117.009-2.234.029-3.35.028h-.419c-.075,0-.127,0-.222,0s-.177,0-.265-.018a2.671,2.671,0,0,1-1.006-.328,2.706,2.706,0,0,1-1.276-1.637,3.461,3.461,0,0,1-.1-.983l0-.838-.005-1.675-.01-3.35.055-13.4.04-3.35.02-1.675,0-.419c0-.073,0-.133,0-.216s.008-.171.018-.255a2.581,2.581,0,0,1,1.89-2.177,2.516,2.516,0,0,1,.5-.079,3.927,3.927,0,0,1,.455.006l.838.037,3.352.15h0a.352.352,0,0,1,.336.367v.007a1.66,1.66,0,0,0,.049.487.878.878,0,0,0,1.064.681.3.3,0,0,1,.055.593,2.041,2.041,0,0,1-.717-.038,1.4,1.4,0,0,1-.676-.388,1.654,1.654,0,0,1-.375-.661,2.209,2.209,0,0,1-.1-.724l.34.374-3.347-.022-.836-.005a3.241,3.241,0,0,0-.382.008,1.631,1.631,0,0,0-.323.065,1.675,1.675,0,0,0-1,.807,1.628,1.628,0,0,0-.188.618c-.006.054,0,.108-.008.162s0,.136,0,.2l0,.419.02,1.675.04,3.35.055,13.4-.01,3.35-.005,1.675,0,.838a2.318,2.318,0,0,0,.053.679,1.551,1.551,0,0,0,.724.941,1.524,1.524,0,0,0,.574.192,2.944,2.944,0,0,0,.35.014h.419c1.117,0,2.234.019,3.35.029l6.7.074c2.233.044,4.467.07,6.7.131a.337.337,0,0,1,0,.673Z" transform="translate(-300.773 -4.051)" fill="#3b3b56"/>
    <path id="Path_5902" data-name="Path 5902" d="M196.544,605.3a14.365,14.365,0,0,1-.039-4.341,9.342,9.342,0,0,1,1.644-4.138,3.36,3.36,0,0,1,.361-.441l.383-.424c.276-.26.567-.51.863-.745l.476-.31a3.91,3.91,0,0,1,.485-.29l.507-.248.254-.12c.086-.037.176-.063.263-.1a11.178,11.178,0,0,1,4.313-.656.3.3,0,0,1,.031.595h-.005a14.149,14.149,0,0,0-3.932,1.04,7.364,7.364,0,0,0-3.029,2.412,9.342,9.342,0,0,0-1.531,3.618,20.684,20.684,0,0,0-.373,4.089v.006a.338.338,0,0,1-.671.048Z" transform="translate(0 -97.897)" fill="#3b3b56"/>
    <path id="Path_5903" data-name="Path 5903" d="M215.127,605.2a12.52,12.52,0,0,0-2.516.99,5.56,5.56,0,0,0-1.9,1.666,6.341,6.341,0,0,0-.967,2.375,15.828,15.828,0,0,0-.257,2.724v.006a.3.3,0,0,1-.592.06,8.9,8.9,0,0,1-.2-2.951,6.319,6.319,0,0,1,1.024-2.9,5.786,5.786,0,0,1,2.4-1.96,7.91,7.91,0,0,1,2.9-.671.339.339,0,0,1,.113.663Z" transform="translate(-8.578 -105.609)" fill="#3b3b56"/>
    <path id="Path_5904" data-name="Path 5904" d="M587.338,557.237a17.2,17.2,0,0,0-.743-2.982,7.074,7.074,0,0,0-1.493-2.488,5.515,5.515,0,0,0-2.439-1.471,11.325,11.325,0,0,0-3.006-.428h-.006a.3.3,0,0,1-.049-.593,8.125,8.125,0,0,1,3.332,0,6.113,6.113,0,0,1,.831.239c.274.093.533.235.8.354.252.148.5.308.74.478l.338.284a2.652,2.652,0,0,1,.323.3,7.07,7.07,0,0,1,1.675,2.988,10.276,10.276,0,0,1,.369,3.287.338.338,0,0,1-.671.044Z" transform="translate(-267.395 -66.908)" fill="#3b3b56"/>
    <path id="Path_5905" data-name="Path 5905" d="M579.664,557.912a5.7,5.7,0,0,1,2.283.16,4.409,4.409,0,0,1,2.062,1.247,4.786,4.786,0,0,1,1.079,2.129,6.336,6.336,0,0,1,.1,2.262.3.3,0,0,1-.595.023v-.007a13.824,13.824,0,0,0-.522-1.976,4.814,4.814,0,0,0-.951-1.614,4.192,4.192,0,0,0-1.529-1.024,10.58,10.58,0,0,0-1.941-.528l-.009,0a.34.34,0,0,1,.023-.672Z" transform="translate(-267.399 -73.027)" fill="#3b3b56"/>
  </g>
</svg>
