<svg xmlns="http://www.w3.org/2000/svg" xmlns:xlink="http://www.w3.org/1999/xlink" width="40" height="40" viewBox="0 0 40 40">
  <defs>
    <clipPath id="clip-path">
      <circle id="circle" cx="20" cy="20" r="20" fill="#fff"/>
    </clipPath>
  </defs>
  <g id="avatar" transform="translate(-198 -150.526)">
    <circle id="circle-2" data-name="circle" cx="20" cy="20" r="20" transform="translate(198 150.526)" fill="#f2f5f7"/>
    <path id="circle_-_Outline" data-name="circle - Outline" d="M20,.5a19.505,19.505,0,0,0-7.59,37.468A19.505,19.505,0,0,0,27.59,2.032,19.378,19.378,0,0,0,20,.5M20,0A20,20,0,1,1,0,20,20,20,0,0,1,20,0Z" transform="translate(198 150.526)" fill="#3a3855"/>
    <g id="Mask_Group_1" data-name="Mask Group 1" transform="translate(198 150.526)" clip-path="url(#clip-path)">
      <g id="Group_4608" data-name="Group 4608" transform="translate(3.797 4.484)">
        <path id="Path_7984" data-name="Path 7984" d="M233,655.606c.04.758.067,1.516.1,2.274l.088,2.274.161,4.548.14,4.549.063,2.275c.015.759.038,1.517.048,2.276a.109.109,0,0,1-.217.01c-.058-.757-.1-1.515-.153-2.272l-.125-2.274c-.078-1.516-.134-3.033-.2-4.55-.044-1.517-.093-3.034-.12-4.552l-.033-2.277c0-.759-.011-1.518,0-2.277a.123.123,0,0,1,.245-.005Z" transform="translate(-226.511 -588.317)" fill="#3a3855"/>
        <g id="Group_4607" data-name="Group 4607">
          <path id="Path_7975" data-name="Path 7975" d="M241.917,281.412a3.293,3.293,0,0,1-2.32,1.219c-2.542.472-5.186.418-7.656,1.182s-4.859,2.671-5.085,5.247a8.335,8.335,0,0,0,.637,3.432,51.248,51.248,0,0,0,7.63,14.168l-36.237-12.882q-.831-14.186-1.149-28.4l-.185.147a2.011,2.011,0,0,1-1.69.61c-.567-.164-.869-.769-1.092-1.316a44.516,44.516,0,0,1-3.093-12.593,12.318,12.318,0,0,1,.044-3.467,12.906,12.906,0,0,1,1.621-3.867q1.022-1.8,2.158-3.531a2.384,2.384,0,0,1,.894-.926,1.192,1.192,0,0,1,1.647,1.426c.777-1.676,4.2-9.05,4.793-10.093l-.054-3.265c.23-1.369.416-2.667.564-3.905-1.414-.062-3.539-.144-4.811-.2a1.553,1.553,0,0,1-1.77-1.161l-3.007-7.007a1.169,1.169,0,0,1-.141-.7,1.3,1.3,0,0,1,.336-.526,7.37,7.37,0,0,0,1.357-2.387c-1.357-2.654-1.638-8.474.766-11.435,2.207-2.718,6.165-3.294,9.637-2.85,4.239.541,8.48,2.457,10.934,5.957a18.691,18.691,0,0,1,2.816,8.307c.971,7.1.246,14.343,1.152,21.449.488,3.832,1.632,7.9,4.677,10.273,1.462,1.141,3.266,1.807,4.651,3.041s2.248,3.426,1.175,4.94c-1.24,1.75-3.936,1.335-5.886,2.227-2.832,1.3-3.263,5.894-.719,7.693a9.774,9.774,0,0,0,3.937,1.288,7.186,7.186,0,0,1,3.8,1.586c.995.974,1.316,2.767.311,3.729-1.155,1.1-3.4.655-4.22,2.022a2.3,2.3,0,0,0,.935,2.893,8.176,8.176,0,0,0,3.181.973,24.212,24.212,0,0,1,7.145,2.522C241.177,278.084,242.859,279.887,241.917,281.412Z" transform="translate(-191.37 -198.031)" fill="#fff"/>
          <path id="Path_7976" data-name="Path 7976" d="M210.144,211.711a9.756,9.756,0,0,1-.829-2.645,14.911,14.911,0,0,1-.227-2.756,13.671,13.671,0,0,1,.293-2.752,9.1,9.1,0,0,1,.964-2.606,5.854,5.854,0,0,1,.83-1.129,5.3,5.3,0,0,1,.5-.494,6.055,6.055,0,0,1,.542-.444,8.532,8.532,0,0,1,2.486-1.252,13.894,13.894,0,0,1,5.5-.486,19.2,19.2,0,0,1,5.359,1.326,14.959,14.959,0,0,1,4.656,2.973,12.366,12.366,0,0,1,1.774,2.141,13.855,13.855,0,0,1,1.262,2.473,23.679,23.679,0,0,1,1.322,5.36c1.031,7.3.258,14.673,1.231,21.909a22.344,22.344,0,0,0,1.3,5.268,12.8,12.8,0,0,0,1.246,2.389,9.546,9.546,0,0,0,1.78,2c1.358,1.168,3.121,1.81,4.591,2.988a5.55,5.55,0,0,1,1.716,2.241,4.216,4.216,0,0,1,.324,1.4,2.877,2.877,0,0,1-1.224,2.554,4.413,4.413,0,0,1-1.3.615c-.906.267-1.824.367-2.7.57a6.947,6.947,0,0,0-1.264.4,3.581,3.581,0,0,0-1.051.743,4.432,4.432,0,0,0-1.148,2.311,4.864,4.864,0,0,0,.219,2.589,3.944,3.944,0,0,0,.659,1.116,3.686,3.686,0,0,0,1.006.815,8.434,8.434,0,0,0,2.533.837,23.025,23.025,0,0,1,2.7.607,5,5,0,0,1,2.392,1.5,3.36,3.36,0,0,1,.637,1.3,2.856,2.856,0,0,1,0,1.457,2.17,2.17,0,0,1-.856,1.2,4.208,4.208,0,0,1-1.321.555c-.45.121-.9.208-1.321.34a2.458,2.458,0,0,0-1.091.621,1.455,1.455,0,0,0-.377,1.12,2.3,2.3,0,0,0,.46,1.162,2.632,2.632,0,0,0,.438.464,3.287,3.287,0,0,0,.543.349,5.515,5.515,0,0,0,1.249.44c.436.1.885.179,1.337.26s.905.174,1.353.282a24.09,24.09,0,0,1,2.648.79,24.567,24.567,0,0,1,2.542,1.083c.206.1.412.207.615.316s.411.221.608.348a6.763,6.763,0,0,1,1.1.876,4.6,4.6,0,0,1,.86,1.132,2.351,2.351,0,0,1,.283,1.429,2.043,2.043,0,0,1-.736,1.267,3.5,3.5,0,0,1-1.292.622,11.94,11.94,0,0,1-1.366.268c-.455.071-.912.124-1.368.176-.912.1-1.822.182-2.725.3a17.666,17.666,0,0,0-2.665.527c-.219.058-.428.137-.642.207-.208.086-.421.159-.622.258a8.817,8.817,0,0,0-1.18.647,8.139,8.139,0,0,0-1.056.828,6.425,6.425,0,0,0-.868,1.015,4.677,4.677,0,0,0-.83,2.487,7.876,7.876,0,0,0,.484,2.637c.289.863.6,1.722.941,2.569a51.254,51.254,0,0,0,5.1,9.67.108.108,0,0,1-.18.122,51.5,51.5,0,0,1-5.17-9.691c-.345-.851-.662-1.71-.959-2.581a8.146,8.146,0,0,1-.511-2.733,4.981,4.981,0,0,1,.87-2.652,6.741,6.741,0,0,1,.907-1.071,8.463,8.463,0,0,1,1.1-.868,8.9,8.9,0,0,1,1.222-.674c.209-.1.429-.18.644-.269.221-.073.44-.156.663-.216a18.01,18.01,0,0,1,2.714-.542c.912-.119,1.824-.2,2.731-.3.453-.052.905-.106,1.354-.177a11.641,11.641,0,0,0,1.325-.261,3.166,3.166,0,0,0,1.165-.558,1.7,1.7,0,0,0,.612-1.052,2.006,2.006,0,0,0-.25-1.217,4.254,4.254,0,0,0-.8-1.043,6.426,6.426,0,0,0-1.044-.828c-.188-.121-.38-.227-.583-.332s-.4-.208-.606-.31a24.2,24.2,0,0,0-2.507-1.063,23.712,23.712,0,0,0-2.61-.774c-.442-.106-.886-.195-1.334-.276s-.9-.154-1.357-.262a5.882,5.882,0,0,1-1.334-.469,3.642,3.642,0,0,1-.609-.392,3,3,0,0,1-.5-.53,2.767,2.767,0,0,1-.36-.637,2.4,2.4,0,0,1-.176-.72,1.958,1.958,0,0,1,.088-.751,1.848,1.848,0,0,1,.069-.179l.088-.171a3.081,3.081,0,0,1,.228-.3,2.829,2.829,0,0,1,1.259-.731c.451-.142.9-.229,1.336-.347a3.854,3.854,0,0,0,1.2-.5,1.774,1.774,0,0,0,.7-.989,2.469,2.469,0,0,0-.005-1.256,2.966,2.966,0,0,0-.564-1.145,3.046,3.046,0,0,0-.212-.239c-.081-.072-.157-.15-.243-.216a4.317,4.317,0,0,0-.536-.375,6.137,6.137,0,0,0-1.215-.531,22.8,22.8,0,0,0-2.654-.591,8.815,8.815,0,0,1-2.656-.878,4.1,4.1,0,0,1-1.116-.9,4.361,4.361,0,0,1-.733-1.235,5.282,5.282,0,0,1-.245-2.813,4.853,4.853,0,0,1,1.258-2.533,4.009,4.009,0,0,1,1.177-.834,7.348,7.348,0,0,1,1.345-.433c.907-.211,1.818-.313,2.669-.567a3.981,3.981,0,0,0,1.169-.554,2.545,2.545,0,0,0,.808-.951,2.577,2.577,0,0,0,.235-1.229,3.778,3.778,0,0,0-.29-1.257,5.111,5.111,0,0,0-1.583-2.069,17.362,17.362,0,0,0-2.279-1.462,14.405,14.405,0,0,1-2.314-1.537A9.961,9.961,0,0,1,238,241.219a13.2,13.2,0,0,1-1.284-2.47,22.745,22.745,0,0,1-1.317-5.367c-.968-7.3-.184-14.676-1.2-21.911a23.3,23.3,0,0,0-1.293-5.277,13.483,13.483,0,0,0-1.225-2.41,12.014,12.014,0,0,0-1.718-2.079,14.6,14.6,0,0,0-4.54-2.906,18.943,18.943,0,0,0-5.258-1.31,13.57,13.57,0,0,0-5.367.448,8.224,8.224,0,0,0-2.4,1.195,5.752,5.752,0,0,0-.521.423,4.994,4.994,0,0,0-.477.471,5.55,5.55,0,0,0-.8,1.073,8.822,8.822,0,0,0-.943,2.518,13.4,13.4,0,0,0-.3,2.7,14.646,14.646,0,0,0,.211,2.708,9.512,9.512,0,0,0,.794,2.578v0a.123.123,0,0,1-.219.109Z" transform="translate(-206.314 -197.069)" fill="#3a3855"/>
          <path id="Path_7977" data-name="Path 7977" d="M213.324,246.4l-3.639-.137c-.3-.014-.6-.016-.918-.044a1.753,1.753,0,0,1-.932-.32,2.03,2.03,0,0,1-.553-.808l-.365-.835-1.449-3.341-.724-1.671-.362-.835-.181-.418a2.013,2.013,0,0,1-.156-.479.914.914,0,0,1,0-.289.868.868,0,0,1,.1-.277,2.451,2.451,0,0,1,.3-.4l.27-.349c.045-.058.091-.116.134-.175l.117-.188c.077-.126.158-.249.233-.375l.2-.4c.032-.066.069-.13.1-.2l.083-.206c.055-.138.114-.273.165-.413a17.18,17.18,0,0,0,.751-3.51c.158-1.2.271-2.412.5-3.619.03-.15.054-.3.088-.452l.1-.45a6.51,6.51,0,0,1,.268-.9,3.44,3.44,0,0,1,.461-.852,2.148,2.148,0,0,1,.768-.644,2.194,2.194,0,0,1,.979-.214,2.8,2.8,0,0,1,.964.185,3.152,3.152,0,0,1,.847.479,3.488,3.488,0,0,1,.662.7,6,6,0,0,1,.811,1.7c.19.591.32,1.187.459,1.779.271,1.188.513,2.383.694,3.589s.324,2.418.4,3.635a52.1,52.1,0,0,1-.045,7.3c-.181,2.428-.515,4.84-.931,7.234a.108.108,0,0,1-.214-.036c.381-2.395.678-4.8.824-7.221a52.04,52.04,0,0,0-.016-7.252l-.077-.9c-.029-.3-.067-.6-.1-.9l-.051-.45-.062-.449c-.044-.3-.078-.6-.13-.9-.184-1.195-.427-2.379-.7-3.558-.14-.588-.272-1.18-.455-1.744a5.589,5.589,0,0,0-.755-1.574,3.058,3.058,0,0,0-.581-.617,2.72,2.72,0,0,0-.733-.411,2.037,2.037,0,0,0-1.6.017,2.206,2.206,0,0,0-1.016,1.259,6.131,6.131,0,0,0-.253.845l-.1.437c-.034.146-.058.294-.087.441-.226,1.179-.342,2.386-.5,3.594a17.582,17.582,0,0,1-.78,3.6c-.053.146-.116.288-.173.432l-.088.216c-.03.072-.069.14-.1.21l-.212.417c-.08.134-.165.265-.248.4l-.126.2c-.046.063-.1.124-.143.186l-.29.369a2.145,2.145,0,0,0-.253.325.458.458,0,0,0-.054.313,1.669,1.669,0,0,0,.126.384l.178.419.356.838.712,1.676,1.423,3.352.353.838a1.733,1.733,0,0,0,.447.691,1.452,1.452,0,0,0,.766.264c.289.03.6.036.9.055l3.637.186a.123.123,0,0,1-.011.245Z" transform="translate(-201.999 -219.721)" fill="#3a3855"/>
          <g id="Group_4504" data-name="Group 4504" transform="translate(8.656 14.109)">
            <path id="Path_7978" data-name="Path 7978" d="M298.7,301.19c-2.064.149-5.955-.023-9.093,2.418-2.2,1.708-3.467,4.329-4.457,6.929-.765,2.008-1.812,4.409-3.946,4.667-1.971.238-3.516-1.531-5.143-2.67a14.051,14.051,0,0,0-3.473-1.668,21.073,21.073,0,0,0-10.512-1.138,13.988,13.988,0,0,0-8.916,5.48c-.8,1.1-1.3,2.063-2.144,3.425-.879-2.273.142-4.833,1.453-6.887a29.571,29.571,0,0,1,6.371-6.983,14.229,14.229,0,0,1,4.6-2.7,13.394,13.394,0,0,1,7.211.139c2.361.594,4.637,1.5,7.008,2.058a4.348,4.348,0,0,0,1.75.145c1.559-.281,2.39-1.932,3.214-3.286a14.136,14.136,0,0,1,7.467-6.071,12.189,12.189,0,0,1,9.526.73,5.481,5.481,0,0,1,2.255,2.005,2.682,2.682,0,0,1,.074,2.526C301.643,300.682,300.711,301.045,298.7,301.19Z" transform="translate(-250.471 -294.253)" fill="#fff"/>
            <g id="Group_4503" data-name="Group 4503">
              <path id="Path_7979" data-name="Path 7979" d="M297.464,300.413c-.624.043-1.244.062-1.861.1s-1.232.1-1.842.188a12.6,12.6,0,0,0-3.528,1.022,9.637,9.637,0,0,0-2.935,2.167,13.7,13.7,0,0,0-2.049,3.05c-.28.549-.534,1.112-.77,1.683s-.449,1.15-.682,1.732a14.094,14.094,0,0,1-.8,1.705,6.3,6.3,0,0,1-1.157,1.518,3.311,3.311,0,0,1-1.726.871,3.418,3.418,0,0,1-1.917-.252,7.875,7.875,0,0,1-1.626-.986c-.5-.377-.978-.777-1.469-1.147a12.116,12.116,0,0,0-3.233-1.715,27.254,27.254,0,0,0-3.544-1.055A19.062,19.062,0,0,0,261,309a14.174,14.174,0,0,0-6.621,2.99,13.457,13.457,0,0,0-2.475,2.694c-.7,1.006-1.294,2.1-1.951,3.16v0a.212.212,0,0,1-.379-.037,5.525,5.525,0,0,1-.331-2.3,8.3,8.3,0,0,1,.509-2.249,13.069,13.069,0,0,1,1-2.057c.39-.655.816-1.277,1.266-1.887a31.4,31.4,0,0,1,6.418-6.362,12.215,12.215,0,0,1,4.049-2.078,11.824,11.824,0,0,1,4.545-.225,25.615,25.615,0,0,1,4.411,1.033c1.438.444,2.855.936,4.3,1.317a7.278,7.278,0,0,0,2.152.356,2.365,2.365,0,0,0,.994-.3,3.385,3.385,0,0,0,.825-.673,11.132,11.132,0,0,0,1.258-1.817c.1-.161.192-.323.293-.483l.307-.48.327-.467c.112-.153.23-.3.344-.454a14.751,14.751,0,0,1,3.322-3.091,13.1,13.1,0,0,1,4.139-1.859,12.25,12.25,0,0,1,8.842,1.08,6.242,6.242,0,0,1,1.794,1.42,3.336,3.336,0,0,1,.592,1,3.22,3.22,0,0,1,.176,1.151,2.653,2.653,0,0,1-.076.583,1.273,1.273,0,0,1-.267.554,1.546,1.546,0,0,1-.5.34,3.9,3.9,0,0,1-.546.2,11.672,11.672,0,0,1-2.246.34Zm-.017-.23a11.458,11.458,0,0,0,2.2-.346,3.644,3.644,0,0,0,.512-.187,1.325,1.325,0,0,0,.424-.286,1.043,1.043,0,0,0,.209-.453,2.412,2.412,0,0,0,.065-.531,2.971,2.971,0,0,0-.169-1.06,3.087,3.087,0,0,0-.553-.922,5.986,5.986,0,0,0-1.727-1.346,11.535,11.535,0,0,0-4.219-1.311,12.381,12.381,0,0,0-4.411.309,12.775,12.775,0,0,0-4.03,1.821,14.416,14.416,0,0,0-3.237,3.026c-.112.148-.226.294-.335.444l-.318.456-.3.469c-.1.158-.193.319-.289.48a11.443,11.443,0,0,1-1.3,1.879,3.741,3.741,0,0,1-.912.745,2.732,2.732,0,0,1-1.144.348,4.3,4.3,0,0,1-1.168-.1c-.376-.078-.739-.169-1.105-.265-1.461-.383-2.884-.873-4.315-1.311a25.235,25.235,0,0,0-4.347-1.009,11.431,11.431,0,0,0-4.392.224,11.816,11.816,0,0,0-3.909,2.022,30.989,30.989,0,0,0-6.314,6.287,16.478,16.478,0,0,0-2.205,3.84,7.876,7.876,0,0,0-.487,2.126,5.1,5.1,0,0,0,.3,2.12l-.38-.035c.653-1.049,1.248-2.144,1.971-3.175a13.882,13.882,0,0,1,2.558-2.771,14.574,14.574,0,0,1,6.816-3.061,19.447,19.447,0,0,1,7.473.317A27.605,27.605,0,0,1,272,310.007a12.485,12.485,0,0,1,3.321,1.773c.5.379.975.78,1.466,1.149a7.534,7.534,0,0,0,1.549.946,3.067,3.067,0,0,0,1.724.234,2.979,2.979,0,0,0,1.552-.78,5.974,5.974,0,0,0,1.1-1.43,13.794,13.794,0,0,0,.788-1.663c.231-.57.447-1.158.691-1.732s.5-1.145.787-1.7a14,14,0,0,1,2.109-3.108,9.925,9.925,0,0,1,3.032-2.219,12.87,12.87,0,0,1,3.608-1.03c.619-.088,1.242-.146,1.864-.182s1.244-.054,1.859-.094Z" transform="translate(-249.23 -293.354)" fill="#3a3855"/>
            </g>
          </g>
          <path id="Path_7980" data-name="Path 7980" d="M264.791,431.051q-.253.348-.51.691l-.5.7-.5.7-.49.7c-.648.943-1.282,1.894-1.88,2.869s-1.189,1.954-1.752,2.949l-.418.75-.407.755-.4.758q-.2.382-.4.762h0a.109.109,0,0,1-.2-.094q.171-.4.347-.79l.363-.783.382-.774.394-.768c.535-1.02,1.115-2.015,1.716-3s1.251-1.935,1.928-2.866l.515-.694.525-.685.542-.672q.275-.333.555-.661a.123.123,0,0,1,.193.151Z" transform="translate(-247.483 -396.598)" fill="#3a3855"/>
          <path id="Path_7981" data-name="Path 7981" d="M223.962,506.377a16.605,16.605,0,0,1,2.249,1.7,8.041,8.041,0,0,1,.976,1.041,3.745,3.745,0,0,1,.393.621,1.68,1.68,0,0,1,.191.759,1.044,1.044,0,0,1-.1.416.963.963,0,0,1-.115.19.746.746,0,0,1-.18.161.88.88,0,0,1-.432.123,1.639,1.639,0,0,1-.4-.04,5.015,5.015,0,0,1-1.337-.577c-.412-.238-.8-.5-1.188-.773q-.287-.2-.569-.415c-.185-.137-.379-.289-.551-.409l.3-.062-.318.5-.157.249c-.05.081-.108.172-.147.24l-.027-.247a2.434,2.434,0,0,0,.225.2l.26.207.532.416c.354.281.706.568,1.045.875a7.283,7.283,0,0,1,.954,1.01,2.2,2.2,0,0,1,.352.656.967.967,0,0,1,.036.426.794.794,0,0,1-.071.221.857.857,0,0,1-.131.189.773.773,0,0,1-.4.214,1.363,1.363,0,0,1-.4.018,3.143,3.143,0,0,1-.7-.159,9.019,9.019,0,0,1-1.263-.556c-.4-.21-.8-.437-1.185-.67l-.577-.355c-.188-.116-.387-.246-.562-.34l.207-.326,1.1.788c.369.27.734.547,1.089.839a9.668,9.668,0,0,1,1.017.946,2.792,2.792,0,0,1,.424.589.893.893,0,0,1,.1.4.521.521,0,0,1-.063.237.589.589,0,0,1-.152.181.855.855,0,0,1-.387.156,1.821,1.821,0,0,1-.373.018,4.132,4.132,0,0,1-.7-.1,10.377,10.377,0,0,1-1.322-.406q-.645-.241-1.267-.532-.311-.145-.616-.3a5.983,5.983,0,0,1-.6-.351.108.108,0,0,1,.119-.181l0,0a9.737,9.737,0,0,0,1.2.605c.413.182.833.35,1.258.5a10.049,10.049,0,0,0,1.291.37,3.818,3.818,0,0,0,.649.082.907.907,0,0,0,.546-.115.224.224,0,0,0,.087-.169.578.578,0,0,0-.073-.247,2.486,2.486,0,0,0-.378-.509,9.363,9.363,0,0,0-.99-.9c-.35-.282-.713-.551-1.081-.814l-.556-.39c-.189-.132-.369-.25-.569-.4a.194.194,0,0,1,.206-.327h0c.222.117.4.234.6.351l.575.347c.384.229.772.449,1.166.653a8.639,8.639,0,0,0,1.206.526,2.755,2.755,0,0,0,.609.137.573.573,0,0,0,.461-.107.412.412,0,0,0,.065-.427,1.8,1.8,0,0,0-.289-.523,6.885,6.885,0,0,0-.9-.943c-.33-.295-.676-.575-1.028-.851l-.53-.416-.267-.214a2.611,2.611,0,0,1-.276-.251.21.21,0,0,1-.027-.247c.059-.1.108-.178.163-.264l.16-.25.322-.5,0,0a.208.208,0,0,1,.288-.062l.007,0c.209.147.381.285.57.425s.371.277.559.411c.375.268.758.526,1.152.756a4.759,4.759,0,0,0,1.216.537.753.753,0,0,0,.53-.023.4.4,0,0,0,.147-.178.65.65,0,0,0,.064-.259,1.31,1.31,0,0,0-.142-.585,3.4,3.4,0,0,0-.344-.564,8.331,8.331,0,0,0-.914-1.014,17.679,17.679,0,0,0-2.153-1.738h0a.123.123,0,0,1,.135-.2Z" transform="translate(-214.843 -461.037)" fill="#3a3855"/>
          <path id="Path_7982" data-name="Path 7982" d="M211.021,514.356a.59.59,0,0,1,.236.259.708.708,0,0,1,.064.335.917.917,0,0,1-.264.593.973.973,0,0,1-.589.279,1.633,1.633,0,0,1-.611-.073,12.389,12.389,0,0,1-2.134-.778,4.025,4.025,0,0,1-.509-.3l-.124-.092-.109-.09c-.073-.061-.145-.123-.217-.187a2.617,2.617,0,0,1-.729-.959,2.137,2.137,0,0,1-.062-1.222,8.211,8.211,0,0,1,.34-1.1q.395-1.057.875-2.077a22.47,22.47,0,0,1,1.052-1.994,17.64,17.64,0,0,1,1.28-1.86,4.286,4.286,0,0,1,.811-.824,1.548,1.548,0,0,1,.55-.259,1.134,1.134,0,0,1,.615.038.109.109,0,0,1-.064.207h0a.9.9,0,0,0-.489,0,1.293,1.293,0,0,0-.444.238,4.139,4.139,0,0,0-.717.8,17.672,17.672,0,0,0-1.2,1.857,26.915,26.915,0,0,0-1.851,4.027,7.849,7.849,0,0,0-.33,1.034,1.716,1.716,0,0,0,.035.981,2.218,2.218,0,0,0,.613.8c.067.06.135.12.2.18l.105.089.1.077a3.638,3.638,0,0,0,.451.275,12.283,12.283,0,0,0,2.045.8,1.322,1.322,0,0,0,.489.084.663.663,0,0,0,.41-.173.636.636,0,0,0,.2-.4.379.379,0,0,0-.152-.367l0,0a.123.123,0,0,1,.13-.208Z" transform="translate(-203.604 -459.014)" fill="#3a3855"/>
          <path id="Path_7983" data-name="Path 7983" d="M199.462,459.064c-.247.453-.472.928-.7,1.4l-.66,1.424q-.651,1.429-1.284,2.867l-.277-.156a1.061,1.061,0,0,0,.151-.778.965.965,0,0,0-.426-.652,1.1,1.1,0,0,0-.774-.158,1.2,1.2,0,0,0-.681.428,6.686,6.686,0,0,0-.524.746l-.5.791q-.5.794-.969,1.6a23.69,23.69,0,0,0-1.7,3.308,7.993,7.993,0,0,0-.464,1.767,10.189,10.189,0,0,0-.068,1.837,42.631,42.631,0,0,0,1.125,7.376q.436,1.817,1.03,3.592c.1.3.2.591.3.883s.211.586.321.878.226.581.339.871a4.58,4.58,0,0,0,.386.809,1.173,1.173,0,0,0,.588.511,1.05,1.05,0,0,0,.761-.069,7.554,7.554,0,0,0,1.468-1.063c.24-.2.485-.391.72-.6l.7-.617c.474-.4.923-.839,1.381-1.263,1.815-1.714,3.533-3.531,5.231-5.369s3.375-3.7,5.12-5.5a67.8,67.8,0,0,1,5.489-5.143.109.109,0,0,1,.139.167,67.606,67.606,0,0,0-5.4,5.193c-1.719,1.816-3.385,3.684-5.071,5.537l-1.27,1.385-1.288,1.371c-.439.448-.872.9-1.316,1.345l-.67.661c-.222.222-.447.441-.678.653-.46.428-.91.866-1.387,1.275L197.9,487c-.236.208-.484.4-.725.6l-.729.6a3.921,3.921,0,0,1-.837.53,1.755,1.755,0,0,1-.512.142,1.305,1.305,0,0,1-.554-.057,1.6,1.6,0,0,1-.813-.683,4.956,4.956,0,0,1-.427-.881c-.115-.293-.236-.583-.345-.878s-.223-.588-.326-.885-.208-.594-.307-.892q-.594-1.791-1.033-3.629a43.036,43.036,0,0,1-1.123-7.459,10.587,10.587,0,0,1,.075-1.911,8.2,8.2,0,0,1,.5-1.855,23.98,23.98,0,0,1,1.749-3.356q.481-.81.985-1.605l.51-.792a6.926,6.926,0,0,1,.561-.785,1.924,1.924,0,0,1,.389-.339,1.354,1.354,0,0,1,.5-.2,1.431,1.431,0,0,1,1.022.217,1.3,1.3,0,0,1,.564.88,1.384,1.384,0,0,1-.214,1.017h0a.16.16,0,0,1-.277-.157q.651-1.432,1.32-2.856l.679-1.42c.232-.471.462-.942.722-1.406a.123.123,0,0,1,.214.119Z" transform="translate(-190.158 -420.516)" fill="#3a3855"/>
          <g id="Group_4515" data-name="Group 4515" transform="translate(5.562 4.024)">
            <path id="Path_7995" data-name="Path 7995" d="M228.9,226.961c1.049,5.506,3.578,9.256,6.672,11.331,0,0-.351-11.769-3.829-12.68A2.388,2.388,0,0,0,228.9,226.961Z" transform="translate(-228.787 -225.371)" fill="#3a3855"/>
            <g id="Group_4514" data-name="Group 4514">
              <path id="Path_7996" data-name="Path 7996" d="M228.338,226.081l.012.052.181.791c.027.13.061.265.1.4l.107.405c.067.272.151.538.235.8l.124.4c.043.133.093.263.139.395a19.377,19.377,0,0,0,1.371,3.046,14.356,14.356,0,0,0,4.414,4.9l-.334.185c-.027-.708-.079-1.423-.137-2.133s-.129-1.422-.216-2.129a31.663,31.663,0,0,0-.777-4.2,13.556,13.556,0,0,0-.681-2,6.709,6.709,0,0,0-.492-.922,3.462,3.462,0,0,0-.663-.775,2.232,2.232,0,0,0-.416-.27,1.78,1.78,0,0,0-.474-.146,2.2,2.2,0,0,0-1,0,2.082,2.082,0,0,0-.883.471,2.694,2.694,0,0,0-.349.376,2.441,2.441,0,0,0-.147.212c-.023.036-.045.073-.066.11-.01.019-.021.037-.03.056s-.02.051-.019.024Zm-.226.057.008-.029a.466.466,0,0,1,.038-.1c.01-.022.021-.042.031-.063.021-.042.044-.083.067-.123a2.715,2.715,0,0,1,.152-.235,2.873,2.873,0,0,1,.368-.423,2.35,2.35,0,0,1,.982-.555,2.489,2.489,0,0,1,1.129-.035,2.082,2.082,0,0,1,.553.158,2.435,2.435,0,0,1,.489.3,3.8,3.8,0,0,1,.744.84,7.066,7.066,0,0,1,.534.964,13.946,13.946,0,0,1,.733,2.051,31.674,31.674,0,0,1,.814,4.247c.184,1.429.311,2.86.361,4.3l.014.422-.349-.238a13.523,13.523,0,0,1-2.554-2.273,15.746,15.746,0,0,1-1.939-2.8,18.888,18.888,0,0,1-1.344-3.122c-.044-.135-.093-.268-.134-.4l-.118-.408c-.08-.272-.159-.543-.222-.819l-.1-.412c-.035-.136-.067-.275-.095-.42Z" transform="translate(-228.112 -224.529)" fill="#3a3855"/>
            </g>
          </g>
        </g>
      </g>
    </g>
  </g>
</svg>
