<svg xmlns="http://www.w3.org/2000/svg" width="20.18" height="17.938" viewBox="0 0 20.18 17.938">
  <path id="terms" d="M7.644,14.86a.388.388,0,0,0-.356-.228.382.382,0,0,0-.351.217l-.269.537a.561.561,0,0,1-1.033-.073l-.59-1.768-.372,1.117A1.513,1.513,0,0,1,3.237,15.7H2.8a.561.561,0,1,1,0-1.121h.434a.393.393,0,0,0,.373-.268l.637-1.914a.841.841,0,0,1,1.6,0l.486,1.459a1.572,1.572,0,0,1,2.312.5.4.4,0,0,0,.328.219V11.689l4.485-4.453V5.606H8.689a.843.843,0,0,1-.841-.841V0H.841A.839.839,0,0,0,0,.841V17.1a.839.839,0,0,0,.841.841H12.613a.839.839,0,0,0,.841-.841V15.7l-4.485,0a1.5,1.5,0,0,1-1.325-.832Zm5.81-10.589a.838.838,0,0,0-.245-.592L9.778.245A.84.84,0,0,0,9.183,0H8.969V4.485h4.485V4.271ZM10.09,12.156v2.419h2.417l5.664-5.7L15.794,6.493Zm9.829-6.293L18.8,4.746a.892.892,0,0,0-1.262,0l-.955.955,2.378,2.378.955-.955A.892.892,0,0,0,19.919,5.862Z" transform="translate(0 0)" fill="#7f6ff8"/>
</svg>
