<svg xmlns="http://www.w3.org/2000/svg" width="12.188" height="12.187" viewBox="0 0 12.188 12.187">
  <path id="_-_Star-Favorite-Featured-Famous-Super" data-name="-_Star-Favorite-Featured-Famous-Super" d="M15.891,8.329a.846.846,0,0,0-.674-.574l-3.181-.477L10.6,4.238a.836.836,0,0,0-1.521,0L7.671,7.267l-3.2.487a.846.846,0,0,0-.674.574.872.872,0,0,0,.2.891l2.316,2.37-.547,3.341a.864.864,0,0,0,.353.853.822.822,0,0,0,.879.05l2.824-1.577,2.864,1.577a.824.824,0,0,0,.879-.05.863.863,0,0,0,.353-.853l-.548-3.345,2.317-2.366A.872.872,0,0,0,15.891,8.329Z" transform="translate(-3.749 -3.75)" fill="#dadce3"/>
</svg>
