<svg xmlns="http://www.w3.org/2000/svg" width="38.822" height="38.805" viewBox="0 0 38.822 38.805">
  <path id="_-_Star-Favorite-Featured-Famous-Super"  d="M41.374,17.939a2.621,2.621,0,0,0-2.089-1.779l-9.858-1.477-4.438-9.42a2.591,2.591,0,0,0-4.713,0L15.9,14.65,5.981,16.16a2.623,2.623,0,0,0-2.089,1.779,2.7,2.7,0,0,0,.627,2.76L11.7,28.044,10,38.4a2.676,2.676,0,0,0,1.094,2.642,2.548,2.548,0,0,0,2.725.154l8.752-4.888,8.876,4.888a2.553,2.553,0,0,0,2.725-.154A2.673,2.673,0,0,0,35.265,38.4l-1.7-10.367,7.18-7.332a2.7,2.7,0,0,0,.627-2.76Z" transform="translate(-3.222 -3.25)" fill="#fafafa" stroke="#c7c7c7" stroke-width="1"/>
</svg>
