<svg xmlns="http://www.w3.org/2000/svg" xmlns:xlink="http://www.w3.org/1999/xlink" width="375" height="211" viewBox="0 0 375 211">
  <defs>
    <clipPath id="clip-path">
      <rect id="Rectangle_1567"  width="375" height="211" transform="translate(0 572)" fill="#fff" stroke="#707070" stroke-width="1"/>
    </clipPath>
    <clipPath id="clip-path-2">
      <path id="Path_4503"  d="M690.692,405.623c25.424,1.514,52.687-.08,73.088-1.6-9.124-32.831-17.474-55.666-20.253-69.725l-26.851,4.606-8.9-7.707C700.189,353.329,693.009,376.3,690.692,405.623Z" transform="translate(-690.692 -331.201)" fill="none"/>
    </clipPath>
  </defs>
  <g id="Mask_Group_2"  transform="translate(0 -572)" clip-path="url(#clip-path)">
    <g id="Group_2619"  transform="translate(-323.424 423.986)">
      <path id="Path_4451"  d="M647.975,538.646c0,7.238-109.683,7.238-244.985,7.238s-224.99,0-224.99-7.238,89.689-7.24,224.99-7.24S647.975,531.406,647.975,538.646Z" transform="translate(86.225 -12.692)" fill="#eaeae9" opacity="0.6" style="mix-blend-mode: multiply;isolation: isolate"/>
      <g id="Group_2876"  transform="translate(554.305 168.19)">
        <path id="Path_4453"  d="M583.7,185.826" transform="translate(-478.302 -169.272)" fill="#7f7ff8"/>
        <path id="Path_4454" d="M622.311,300.962c1.17-3.3,2.563-9.9,5.962-8.664,3.96,1.442,25.685-2.316,23.012-18.353-12.361,5.68-17.236-2.591-17.2-6.258.064-5.825,9.873-6.685,12.729-11.78,4.334-7.735-10.114-17.507-5.547-25.123a19.869,19.869,0,0,1,3.59-3.716c8.352-8.012,6.366-21.45.818-31.815-6.1-11.39-16.66-21.705-30.078-24.871s-36.81-3.844-47.835,16.2c-11.5,20.916,26.058,48.109,26.058,48.109" transform="translate(-477.693 -168.696)" fill="#7f7ff8"/>
        <path id="Path_4474"  d="M535.565,418.438s27.816,116.85,36.75,112.987c11.987-5.183-1.278-115.342-1.278-115.342C566.9,382.676,530,389.2,535.565,418.438Z" transform="translate(-476.665 -176.254)" fill="#fff"/>
        <path id="Path_4475"  d="M519.432,413.017c51.3,4.3,106.741,2.405,147.342.335-19.163-66.841-40.549-112.437-47.436-140.817,5.523-17.447,32.351-79.779-13.665-90.625-35.882-8.458-48.791,43.333-56.378,74.427C536.034,301.25,523.418,353.83,519.432,413.017Z" transform="translate(-476.143 -169.109)" fill="#fff"/>
        <path id="Path_4476"  d="M581.457,180.449a66.808,66.808,0,0,0,21.881,30.593,68.805,68.805,0,0,0,35.213,14.271C638.484,189.493,615.124,166.15,581.457,180.449Z" transform="translate(-478.226 -168.948)" fill="#7f7ff8"/>
        <path id="Path_4477"  d="M519.43,415.637c51.3,4.3,106.243,2.4,147.346.334-19.164-66.839-40.548-112.436-47.438-140.819,0,0-46.16,33.825-63.867,31.821-9.649-1.092-6.177-48.016-6.177-48.016C536.032,303.871,523.417,356.448,519.43,415.637Z" transform="translate(-476.143 -171.729)" fill="#fb9387"/>
        <path id="Path_4478"  d="M519.43,419.2c51.3,4.3,106.245,2.4,147.343.334-5.654-19.721-11.5-37.938-17.111-54.546-38.4-.33-78.934.784-123.7,1.006C523.5,382.7,520.6,401.807,519.43,419.2Z" transform="translate(-476.143 -175.289)" fill="#fff"/>
        <path id="Path_4479"  d="M571.428,423.812l1.947,15.426-32.757.671-4.569-17.438Z" transform="translate(-476.701 -177.222)" fill="#eaeae9" opacity="0.6" style="mix-blend-mode: multiply;isolation: isolate"/>
        <path id="Path_4480"  d="M550.333,258.956" transform="translate(-477.181 -171.729)" fill="none"/>
        <path id="Path_4481"  d="M622,265.3c2.524-7.708,4.983-15.421,6.776-23.284a103.648,103.648,0,0,0,3.1-23.8,53.126,53.126,0,0,0-1.3-11.767,32.141,32.141,0,0,0-4.551-10.677,27.364,27.364,0,0,0-8.3-7.94,36.779,36.779,0,0,0-10.8-4.416,30.473,30.473,0,0,0-11.526-.794,26.7,26.7,0,0,0-10.728,4.08,38.572,38.572,0,0,0-8.677,7.867,69.584,69.584,0,0,0-6.7,9.863,133.263,133.263,0,0,0-9.6,22.106c-2.671,7.625-4.859,15.428-6.981,23.254a.716.716,0,0,1-1.389-.348c1.819-7.922,3.879-15.8,6.353-23.58a134.667,134.667,0,0,1,9.407-22.663,66.033,66.033,0,0,1,6.848-10.337,41.246,41.246,0,0,1,9.248-8.471A29.479,29.479,0,0,1,595,179.822a33.324,33.324,0,0,1,12.624.778,39.525,39.525,0,0,1,11.616,4.815,30.2,30.2,0,0,1,9.113,8.794,34.948,34.948,0,0,1,4.9,11.612,52.147,52.147,0,0,1,1.249,12.4,105.6,105.6,0,0,1-3.524,24.336,238.887,238.887,0,0,1-7.452,23.279A.81.81,0,0,1,622,265.3Z" transform="translate(-477.213 -169.06)" fill="#3b3b56"/>
        <path id="Path_4482" d="M538.627,428.45c2.308,8.713,4.591,17.432,6.984,26.119,2.352,8.7,4.76,17.38,7.283,26.024,2.545,8.637,5.084,17.275,7.926,25.8,1.418,4.262,2.9,8.5,4.537,12.657.821,2.075,1.676,4.136,2.625,6.124.468,1,.971,1.969,1.5,2.9a14.425,14.425,0,0,0,1.73,2.508,2.341,2.341,0,0,0,.734.612c.036.03.014,0-.017.006-.015.027-.073-.015-.1.022s.014,0,.037-.019l.083-.045a.649.649,0,0,0,.177-.128,2.957,2.957,0,0,0,.378-.378,6.223,6.223,0,0,0,.363-.539,8.383,8.383,0,0,0,.627-1.311,29.828,29.828,0,0,0,1.484-6.248,116.655,116.655,0,0,0,.985-13.312c.228-8.957-.084-17.952-.447-26.94-.394-8.99-.976-17.978-1.655-26.96-.637-8.985-1.428-17.962-2.223-26.938a.716.716,0,0,1,1.424-.152c1.112,8.954,2.046,17.93,2.918,26.913.826,8.988,1.535,17.99,2.065,27.009s.829,18.06.669,27.134a119.144,119.144,0,0,1-.938,13.653,32.434,32.434,0,0,1-1.616,6.888,11.26,11.26,0,0,1-.826,1.737,9.12,9.12,0,0,1-.58.862,5.767,5.767,0,0,1-.81.818,2.853,2.853,0,0,1-.508.363l-.287.159a1.482,1.482,0,0,1-.346.152,2.46,2.46,0,0,1-.93.149c-.153-.007-.306-.021-.457-.042a2.246,2.246,0,0,1-.383-.109,4.8,4.8,0,0,1-1.947-1.385,16.8,16.8,0,0,1-2.108-3.042q-.869-1.541-1.594-3.106c-.985-2.086-1.849-4.2-2.679-6.315-1.649-4.241-3.128-8.522-4.541-12.82q-4.211-12.9-7.8-25.959-3.618-13.051-6.948-26.168c-2.184-8.755-4.346-17.513-6.361-26.307a.809.809,0,0,1,1.571-.388Z" transform="translate(-476.734 -177.395)" fill="#3b3b56"/>
        <path id="Path_4483"  d="M593.116,418.438s34.932,116.85,43.631,112.987c11.67-5.183-8.3-115.342-8.3-115.342C622.273,382.676,585.771,389.2,593.116,418.438Z" transform="translate(-478.586 -176.254)" fill="#fff"/>
        <path id="Path_4484"  d="M629.267,423.812l2.887,15.426-32.716.671-5.631-17.438Z" transform="translate(-478.641 -177.222)" fill="#eaeae9" opacity="0.6" style="mix-blend-mode: multiply;isolation: isolate"/>
        <path id="Path_4485" d="M596.751,428.407c2.825,8.66,5.623,17.328,8.53,25.958q4.3,12.967,8.808,25.853c3.048,8.575,6.089,17.152,9.409,25.607,1.662,4.226,3.377,8.429,5.231,12.551.929,2.059,1.893,4.1,2.927,6.081A34.98,34.98,0,0,0,635.09,530c.162.181.32.4.485.546l.242.245.232.19a.973.973,0,0,0,.2.14l.091.062a.336.336,0,0,1,.048.011.106.106,0,0,1,.04.026.03.03,0,0,0-.028-.016c-.012.019-.064,0-.112.021a.129.129,0,0,0-.029.025l.034-.025a.845.845,0,0,1,.074-.044.485.485,0,0,0,.161-.119,2.5,2.5,0,0,0,.351-.375,5.865,5.865,0,0,0,.627-1.2,24.374,24.374,0,0,0,1.27-6.275,108.98,108.98,0,0,0,.24-13.476c-.3-9.048-1.167-18.1-2.08-27.15-.943-9.045-2.078-18.077-3.308-27.1-1.189-9.027-2.531-18.034-3.875-27.043a.716.716,0,0,1,1.413-.236c1.66,8.966,3.144,17.964,4.567,26.973,1.378,9.016,2.638,18.054,3.722,27.12s1.935,18.168,2.313,27.334a111.6,111.6,0,0,1-.178,13.84c-.108,1.164-.245,2.333-.463,3.51a18.871,18.871,0,0,1-.965,3.569,8.613,8.613,0,0,1-.96,1.817,5.307,5.307,0,0,1-.807.875,2.743,2.743,0,0,1-.524.386l-.3.168-.152.081-.236.077a2.29,2.29,0,0,1-.949.121,3.96,3.96,0,0,1-.452-.052l-.363-.119c-.118-.043-.242-.088-.352-.137l-.274-.158a3.414,3.414,0,0,1-.5-.336l-.43-.351-.362-.358c-.253-.24-.437-.483-.654-.727a37,37,0,0,1-3.749-6.059c-1.065-2.061-2.042-4.146-2.978-6.243-1.869-4.2-3.581-8.44-5.238-12.7q-4.932-12.794-9.285-25.766-4.378-12.967-8.482-26.013c-2.7-8.71-5.38-17.424-7.917-26.182a.809.809,0,0,1,1.547-.476Z" transform="translate(-478.687 -177.395)" fill="#3b3b56"/>
        <g id="Group_2607"  transform="translate(157.461 187.105)" opacity="0.5">
          <path id="Path_4486"  d="M639.175,362.948c1.071,4.675,2.38,9.32,3.646,13.973l3.909,13.953,1.943,6.988,1.894,7.007c1.253,4.678,2.445,9.37,3.439,14.148a.841.841,0,0,1-.223.754.786.786,0,0,1-1.028.029.953.953,0,0,1-.114-.116.755.755,0,0,1-.1-.145.981.981,0,0,1-.053-.113l-.053-.14-.073-.223-.121-.417-.218-.811-.4-1.613L650.859,413l-.723-3.234-.342-1.626-.16-.825-.073-.424-.032-.23-.015-.138,0-.105.005-.1,0-.026a.814.814,0,0,1,.034-.142.805.805,0,0,1,.146-.256.716.716,0,0,1,1.072.951.653.653,0,0,0,.138-.231.622.622,0,0,0,.03-.129l0-.013a.3.3,0,0,0,0-.05c0-.015,0,0,0,0l.007.067.028.18.07.389.161.8.351,1.6.746,3.208.786,3.2.413,1.588.217.782.113.377.056.167.02.053c0,.013,0,.006-.01-.019a.784.784,0,0,0-.07-.1.7.7,0,0,0-.1-.1.781.781,0,0,0-.409-.17.761.761,0,0,0-.6.2l-.223.753c-1.45-4.588-3.006-9.182-4.423-13.809l-2.123-6.946-2.024-6.981c-1.3-4.669-2.567-9.351-3.67-14.083a131.159,131.159,0,0,1-2.69-14.362.81.81,0,0,1,1.593-.281Z" transform="translate(-637.573 -362.306)" fill="#fb9387"/>
        </g>
        <g id="Group_2608"  transform="translate(140.087 187.333)" opacity="0.5">
          <path id="Path_4487" onclick="Path 4487" d="M621.207,363.232c.731,4.627,1.56,9.247,2.341,13.876l2.4,13.886,2.316,13.908c.766,4.638,1.468,9.29,2.153,13.941v0a.717.717,0,0,1-1.4.29c-1.226-4.563-2.3-9.156-3.258-13.769s-1.846-9.242-2.669-13.883c-.793-4.646-1.546-9.3-2.153-13.98-.622-4.678-1.116-9.379-1.337-14.116a.81.81,0,0,1,1.609-.168Z" transform="translate(-619.595 -362.542)" fill="#fb9387"/>
        </g>
        <g id="Group_2609" onclick="Group 2609" transform="translate(108.816 187.641)" opacity="0.5">
          <path id="Path_4488" onclick="Path 4488" d="M588.951,363.619l1.119,13.742,1.072,13.765c.324,4.591.655,9.184.929,13.781.3,4.594.517,9.2.74,13.793v.008a.718.718,0,0,1-1.424.154c-.772-4.571-1.362-9.147-1.857-13.736s-.914-9.182-1.281-13.782c-.34-4.6-.643-9.206-.819-13.822s-.272-9.238-.1-13.88a.81.81,0,0,1,1.618-.035Z" transform="translate(-587.237 -362.86)" fill="#fb9387"/>
        </g>
        <g id="Group_2610" onclick="Group 2610" transform="translate(69.939 183.592)" opacity="0.5">
          <path id="Path_4489" onclick="Path 4489" d="M551.268,359.483c.01,4.989.008,9.984-.087,14.976-.073,4.993-.216,9.987-.39,14.98-.2,4.993-.424,9.988-.771,14.98s-.745,9.98-1.589,14.981a.717.717,0,0,1-1.423-.158l0-.03c.142-2.458.23-4.949.278-7.437l.185-7.475c.111-4.987.26-9.975.417-14.965.184-4.99.37-9.98.646-14.971.259-4.99.6-9.98,1.113-14.968a.811.811,0,0,1,1.617.084Z" transform="translate(-547.008 -358.671)" fill="#fb9387"/>
        </g>
        <g id="Group_2611" onclick="Group 2611" transform="translate(52.385 183.544)" opacity="0.5">
          <path id="Path_4490" onclick="Path 4490" d="M535.381,359.487c-.3,4.967-.552,9.95-.892,14.925-.316,4.978-.685,9.954-1.067,14.93-.408,4.974-.823,9.948-1.328,14.917s-1.049,9.934-1.825,14.9a.717.717,0,0,1-1.425-.139V419c.226-4.966.412-9.963.708-14.943.269-4.985.612-9.966.977-14.944.391-4.978.8-9.956,1.323-14.927s1.1-9.937,1.921-14.891a.81.81,0,0,1,1.608.176Z" transform="translate(-528.844 -358.621)" fill="#fb9387"/>
        </g>
        <path id="Path_4491" onclick="Path 4491" d="M550.025,259.151c-3.514,12.813-6.581,25.76-9.512,38.732s-5.632,26-8.224,39.043c-2.574,13.046-4.991,26.125-7.1,39.246-1.042,6.561-2.016,13.132-2.818,19.715-.382,3.292-.8,6.584-1.038,9.878l-.216,2.469-.109,1.235-.052,1.231-.208,4.923-1.368-1.385,73.673.11,73.673.192-1.323,1.879q-6.27-17.5-12.426-35.026t-12.2-35.107c-3.99-11.73-7.959-23.467-11.8-35.252-1.906-5.9-3.82-11.792-5.632-17.725-1.843-5.92-3.578-11.882-5.121-17.928l1.222.819c-6.071.887-12.143,1.633-18.234,2.3s-12.194,1.216-18.327,1.537c-3.066.155-6.14.249-9.229.188-1.545-.026-3.095-.109-4.651-.277-.778-.078-1.561-.209-2.346-.36-.393-.1-.794-.193-1.181-.308l-1.121-.4a21.362,21.362,0,0,1-4.247-2.134,22.966,22.966,0,0,1-8.714-11,.715.715,0,0,1,1.336-.512l.025.064a20.861,20.861,0,0,0,12.16,12.055l1.04.363c.347.1.694.171,1.04.259.718.13,1.443.244,2.187.311,1.483.144,2.989.211,4.5.219,3.023.029,6.063-.1,9.1-.28,6.075-.383,12.145-1,18.2-1.719s12.11-1.55,18.133-2.456a1.091,1.091,0,0,1,1.216.8l.006.022c1.558,5.945,3.319,11.869,5.193,17.762,1.841,5.9,3.788,11.777,5.727,17.653,3.9,11.745,7.941,23.45,12,35.146q12.177,35.091,24.781,70.037a1.4,1.4,0,0,1-1.323,1.879l-73.672-.142-73.673-.224h-.047a1.326,1.326,0,0,1-1.322-1.331v-.054l.219-5.051.057-1.262.111-1.252.225-2.5c.262-3.345.7-6.655,1.1-9.971.844-6.625,1.857-13.218,2.938-19.8,2.183-13.153,4.674-26.242,7.323-39.3s5.518-26.064,8.567-39.03,6.261-25.9,9.913-38.724a.809.809,0,0,1,1.559.435Z" transform="translate(-476.095 -171.701)" fill="#3b3b56"/>
        <path id="Path_4492" onclick="Path 4492" d="M544.775,272.723q-2.022,8.051-4.329,16.035c-1.574,5.312-3.236,10.6-5.083,15.847-.926,2.621-1.892,5.232-2.981,7.8-1.051,2.583-2.234,5.127-3.521,7.635a38.025,38.025,0,0,1-4.67,7.221,13.866,13.866,0,0,1-3.54,3c-.385.177-.765.361-1.164.515a12.594,12.594,0,0,1-1.3.3,7.846,7.846,0,0,1-1.357.01l-.668-.11a2.438,2.438,0,0,1-.64-.173,9.931,9.931,0,0,1-3.959-2.742,25.283,25.283,0,0,1-2.649-3.513,71.447,71.447,0,0,1-3.988-7.461c-2.366-5.048-4.505-10.136-6.834-15.094a78.614,78.614,0,0,0-3.816-7.209,35.917,35.917,0,0,0-2.274-3.307,18.789,18.789,0,0,0-2.673-2.86,7.964,7.964,0,0,0-6.8-2.2,15,15,0,0,0-6.693,3.864.716.716,0,0,1-1-1.029,15.937,15.937,0,0,1,7.32-4.6,9.054,9.054,0,0,1,4.573.17,11.313,11.313,0,0,1,3.952,2.159,20.227,20.227,0,0,1,3.062,3.1,38.156,38.156,0,0,1,2.506,3.46,80.784,80.784,0,0,1,4.117,7.34c2.528,4.972,4.654,10.09,7.042,15.02a68.95,68.95,0,0,0,3.882,7.12,22.524,22.524,0,0,0,2.358,3.08,7.166,7.166,0,0,0,2.77,1.944,3.43,3.43,0,0,0,2.871-.318,11.21,11.21,0,0,0,2.747-2.336,35.407,35.407,0,0,0,4.342-6.653,139.128,139.128,0,0,0,6.509-15.035c1.938-5.142,3.695-10.365,5.385-15.612,1.737-5.233,3.3-10.526,4.938-15.8l0-.006a.809.809,0,0,1,1.558.438Z" transform="translate(-474.638 -172.157)" fill="#3b3b56"/>
        <path id="Path_4493" onclick="Path 4493" d="M625.579,279.707c1.477,4.571,3.128,9.133,4.94,13.605,1.791,4.485,3.688,8.927,5.78,13.273.5,1.1,1.044,2.173,1.588,3.249s1.066,2.162,1.635,3.223l1.679,3.2c.568,1.061,1.175,2.1,1.761,3.152l.885,1.572.934,1.543,1.876,3.08,1.98,3.009a27.251,27.251,0,0,0,2.034,2.835,24.534,24.534,0,0,0,5.1,4.553,37.431,37.431,0,0,0,6.19,3.284c4.357,1.881,9.042,3.233,13.589,5.206a42.215,42.215,0,0,1,6.61,3.525,27.241,27.241,0,0,1,5.682,5,29.915,29.915,0,0,1,6.195,13.507.716.716,0,0,1-1.394.33,37.265,37.265,0,0,0-2.484-6.651,25.475,25.475,0,0,0-3.94-5.763,30.308,30.308,0,0,0-11.667-7.567c-4.411-1.779-9.081-3.13-13.674-5.027a40.332,40.332,0,0,1-6.689-3.465,25.019,25.019,0,0,1-5.733-5.1,29.894,29.894,0,0,1-2.191-3.089l-2-3.086-1.892-3.151-.94-1.578-.89-1.606c-2.425-4.254-4.582-8.648-6.584-13.1a181.917,181.917,0,0,1-9.937-27.53.809.809,0,0,1,1.551-.461Z" transform="translate(-479.655 -172.406)" fill="#3b3b56"/>
        <path id="Path_4494" onclick="Path 4494" d="M567.508,224.457a11.937,11.937,0,0,1,.3-2.486,19.631,19.631,0,0,1,.674-2.358,19.97,19.97,0,0,1,.954-2.262,12.183,12.183,0,0,1,1.323-2.137.762.762,0,0,1,1.071-.119.77.77,0,0,1,.285.582,12.211,12.211,0,0,1-.258,2.5,20.206,20.206,0,0,1-.629,2.374,19.708,19.708,0,0,1-.908,2.278,11.976,11.976,0,0,1-1.281,2.151.856.856,0,0,1-1.532-.523Z" transform="translate(-477.758 -170.25)" fill="#3b3b56"/>
        <path id="Path_4495" onclick="Path 4495" d="M593.251,221.626a13.358,13.358,0,0,1-.507,2.6,22.781,22.781,0,0,1-2.016,4.785,13.53,13.53,0,0,1-1.506,2.188.756.756,0,0,1-1.325-.544,13.646,13.646,0,0,1,.465-2.615,22.848,22.848,0,0,1,1.928-4.821,13.268,13.268,0,0,1,1.465-2.205.85.85,0,0,1,1.5.615Z" transform="translate(-478.443 -170.444)" fill="#3b3b56"/>
        <path id="Path_4496" onclick="Path 4496" d="M668.773,413.353c-7.466.38-15.44.753-23.795,1.086-18.509-62.356-38.424-105.353-45.019-132.55,5.522-17.449,32.346-79.78-13.667-90.626a32.571,32.571,0,0,0-7.309-.916c7.479-7.445,16.828-11.233,28.69-8.44,46.013,10.847,19.189,73.177,13.667,90.626C628.223,300.915,649.611,346.509,668.773,413.353Z" transform="translate(-478.143 -169.109)" fill="#f4f4f4" style="mix-blend-mode: multiply;isolation: isolate"/>
        <path id="Path_4497" onclick="Path 4497" d="M569.117,232.716a14.585,14.585,0,0,0,.125,6.008,5.079,5.079,0,0,0,3.316,3.652,5.5,5.5,0,0,0,4.931-1.032,10.33,10.33,0,0,0,3.242-4.877l.008-.018a.721.721,0,0,1,1.4.3,9.912,9.912,0,0,1-2.992,6.535,8.16,8.16,0,0,1-3.4,1.911,7.461,7.461,0,0,1-4.026-.041,7.061,7.061,0,0,1-3.391-2.252,8,8,0,0,1-1.655-3.557,12.327,12.327,0,0,1,.892-7.075.814.814,0,0,1,1.559.424Z" transform="translate(-477.723 -170.815)" fill="#3b3b56"/>
        <ellipse id="Ellipse_345" onclick="Ellipse 345" cx="5.565" cy="4.674" rx="5.565" ry="4.674" transform="translate(76.613 285.435)" fill="#eaeae9" opacity="0.6" style="mix-blend-mode: multiply;isolation: isolate"/>
        <ellipse id="Ellipse_346" onclick="Ellipse 346" cx="5.565" cy="4.674" rx="5.565" ry="4.674" transform="translate(135.412 284.098)" fill="#eaeae9" opacity="0.6" style="mix-blend-mode: multiply;isolation: isolate"/>
      </g>
      <g id="Group_2873" onclick="Group 2873" transform="translate(253.66 153.612)">
        <g id="Group_2606" onclick="Group 2606" transform="translate(23.92)">
          <path id="Path_4455" onclick="Path 4455" d="M465.533,415.224s-12.176,117.435-21.919,115.243c-13.073-2.94-14.939-111.427-14.939-111.427C428.226,386.12,467.143,386.083,465.533,415.224Z" transform="translate(-327.12 -161.683)" fill="#fff"/>
          <path id="Path_4456" onclick="Path 4456" d="M465.212,426.494c-.853,8.89-1.86,17.762-2.893,26.634q-1.619,13.3-3.52,26.567t-4.451,26.463c-.873,4.4-1.81,8.782-2.958,13.145-.583,2.181-1.2,4.357-1.977,6.521a31.7,31.7,0,0,1-1.335,3.24,14.812,14.812,0,0,1-.9,1.617,6.351,6.351,0,0,1-1.412,1.616c-.084.065-.159.13-.252.191l-.322.178c-.11.056-.218.11-.331.161q-.2.062-.415.11a2.323,2.323,0,0,1-.881.045,2.5,2.5,0,0,1-.7-.167,4.72,4.72,0,0,1-1.09-.538,6.587,6.587,0,0,1-.838-.7,11.859,11.859,0,0,1-2.156-3.134,37.486,37.486,0,0,1-2.4-6.53,121.508,121.508,0,0,1-2.775-13.253c-1.4-8.874-2.359-17.776-3.059-26.693s-1.236-17.837-1.642-26.761c-.359-8.928-.653-17.854-.758-26.786a.716.716,0,0,1,1.432-.041c.422,8.909.858,17.818,1.45,26.713.551,8.9,1.2,17.789,2.041,26.655.87,8.86,1.8,17.719,3.252,26.468a118.824,118.824,0,0,0,2.777,12.924,34.858,34.858,0,0,0,2.232,6.008,9.2,9.2,0,0,0,1.609,2.362,3.874,3.874,0,0,0,.443.373,1.9,1.9,0,0,0,.4.2c.049.014.165.067.105.031-.029,0-.052.016-.055,0,0,0-.008,0-.008.014a.176.176,0,0,1,.04-.033.16.16,0,0,1,.047-.018l.076-.067a3.755,3.755,0,0,0,.762-.906,12.108,12.108,0,0,0,.729-1.3,28.508,28.508,0,0,0,1.223-2.943c.74-2.033,1.352-4.153,1.928-6.279,1.139-4.264,2.086-8.6,2.967-12.959,1.759-8.714,3.181-17.511,4.6-26.308,1.395-8.8,2.663-17.629,3.87-26.465,1.25-8.831,2.38-17.679,3.534-26.525a.81.81,0,0,1,1.609.182Z" transform="translate(-327.102 -162.751)" fill="#3b3b56"/>
          <path id="Path_4457" onclick="Path 4457" d="M428.988,423.428l.751,15.889,33.109-.588,2.727-17.361Z" transform="translate(-327.13 -162.608)" fill="#eaeae9" opacity="0.6" style="mix-blend-mode: multiply;isolation: isolate"/>
          <path id="Path_4458" onclick="Path 4458" d="M350.291,415.224s-24.843,117.435-14.409,115.243c14-2.94,50.064-111.427,50.064-111.427C396.771,386.12,357.867,386.083,350.291,415.224Z" transform="translate(-323.916 -161.683)" fill="#fff"/>
          <path id="Path_4459" onclick="Path 4459" d="M348.954,426.564c-1.682,9.094-3.386,18.183-4.966,27.292-1.623,9.1-3.18,18.214-4.6,27.342-1.392,9.131-2.777,18.265-3.746,27.424-.475,4.574-.876,9.165-.936,13.705a29.951,29.951,0,0,0,.481,6.544,3.843,3.843,0,0,0,.433,1.16c.037.084.068.085.083.11.024.052.013-.005-.012,0s-.067-.056-.111-.024c-.01-.021-.057-.01-.026-.006a5.8,5.8,0,0,0,2.235-1.45,31,31,0,0,0,4.115-5.148c1.248-1.884,2.412-3.846,3.527-5.843,2.228-4,4.27-8.123,6.234-12.287,3.924-8.334,7.481-16.858,11-25.4,3.495-8.55,6.839-17.167,10.1-25.815,3.3-8.635,6.47-17.322,9.635-26.011a.716.716,0,0,1,1.354.467c-2.867,8.8-5.906,17.548-8.992,26.278q-4.7,13.073-9.745,26.022c-3.369,8.634-6.963,17.184-10.858,25.621-1.96,4.214-4,8.4-6.256,12.494-1.131,2.047-2.315,4.072-3.611,6.052a33.549,33.549,0,0,1-4.517,5.681,8.289,8.289,0,0,1-3.6,2.158,3.925,3.925,0,0,1-.888.056,2.848,2.848,0,0,1-.931-.29,2.668,2.668,0,0,1-.694-.522,2.93,2.93,0,0,1-.452-.567,6.461,6.461,0,0,1-.817-2.057,32.188,32.188,0,0,1-.538-7.263c.082-4.712.506-9.347,1-13.971,1.034-9.237,2.381-18.41,3.935-27.544s3.212-18.245,4.964-27.336c1.8-9.082,3.63-18.157,5.611-27.2a.81.81,0,0,1,1.587.321Z" transform="translate(-323.867 -162.75)" fill="#3b3b56"/>
          <path id="Path_4460" onclick="Path 4460" d="M384.987,423.428l-5.76,15.889-32.924-.588,2.745-17.361Z" transform="translate(-324.353 -162.608)" fill="#eaeae9" opacity="0.6" style="mix-blend-mode: multiply;isolation: isolate"/>
          <path id="Path_4461" onclick="Path 4461" d="M363.661,221.112s-11.746,16.69-19.728,9.879c-4.852-4.141-.9-17.877,5.855-28.7,0,0-12.418,6.128-11.016-4.6,1.423-10.894,25.842-47.254,60-43.852,37,3.687,23.406,29.935,23.406,29.935" transform="translate(-324.096 -153.612)" fill="#7f7ff8"/>
          <path id="Path_4462" onclick="Path 4462" d="M476.757,411.8c-52.97,4.38-110.014,2.451-151.767.341,21.817-68.1,41.16-115.558,48.157-144.658-5.765-17.552-33.94-86.411,13.889-96.883,42.661-9.34,52.347,55.632,60.294,86.99C461.183,302.8,474.494,351.5,476.757,411.8Z" transform="translate(-323.637 -154.152)" fill="#fff"/>
          <path id="Path_4463" onclick="Path 4463" d="M408.772,166.933a21.517,21.517,0,0,1-3.942,19.244c-6.246,7.183-15.709,13.266-24.145,14.829a3.6,3.6,0,0,1-2.474-.193c-1.987-1.121-1.9-4.635-1.389-7.261a96.584,96.584,0,0,1,7.735-23.439" transform="translate(-325.367 -154.06)" fill="#7f7ff8"/>
          <path id="Path_4464" onclick="Path 4464" d="M472.09,364.242c-48.739,1.425-91.278-.357-129.672,0,21.817-68.094,24.315-64.543,31.314-93.646.252.248,66.073,70.735,70.273,65.967,3.655,1.857,4.295-74.131,4.295-74.131C462.154,307.644,465.338,321.326,472.09,364.242Z" transform="translate(-324.222 -157.268)" fill="#fdc54f"/>
          <path id="Path_4465" onclick="Path 4465" d="M370.522,258.922a231.538,231.538,0,0,1-7.807-25.665,108.626,108.626,0,0,1-3.149-26.784,53.137,53.137,0,0,1,1.975-13.524,33.762,33.762,0,0,1,6.337-12.283,31.639,31.639,0,0,1,10.984-8.452l1.57-.745,1.625-.6,1.628-.589c.54-.206,1.106-.312,1.657-.473a45.432,45.432,0,0,1,6.766-1.366,32.233,32.233,0,0,1,13.8,1.3,33.572,33.572,0,0,1,11.914,7.033,51.625,51.625,0,0,1,8.773,10.5,84.356,84.356,0,0,1,6.351,11.971,175.01,175.01,0,0,1,8.61,25.467c2.266,8.65,4.159,17.372,6.032,26.075a.716.716,0,0,1-1.395.328c-2.187-8.645-4.212-17.311-6.688-25.839a174.131,174.131,0,0,0-8.87-24.992,89.87,89.87,0,0,0-6.285-11.547,48.989,48.989,0,0,0-8.358-9.9,30.788,30.788,0,0,0-10.953-6.4,29.378,29.378,0,0,0-12.606-1.108,41.4,41.4,0,0,0-12.353,3.465,28.82,28.82,0,0,0-10.044,7.657,30.978,30.978,0,0,0-5.86,11.282,53.572,53.572,0,0,0-1.984,12.833,106.685,106.685,0,0,0,2.736,26.2,249.974,249.974,0,0,0,7.122,25.633.809.809,0,0,1-1.531.525Z" transform="translate(-324.797 -154.103)" fill="#3b3b56"/>
          <path id="Path_4466" onclick="Path 4466" d="M447.479,259.959a40.029,40.029,0,0,1-1.624,9.518,20.963,20.963,0,0,1-2.056,4.543,15.851,15.851,0,0,1-3.32,3.877,17.99,17.99,0,0,1-9.291,3.849,61.349,61.349,0,0,1-9.653.417,142.928,142.928,0,0,1-18.941-1.921,126.293,126.293,0,0,1-18.5-4.352.717.717,0,0,1,.376-1.382l.014,0c3.048.687,6.112,1.316,9.2,1.817,3.083.529,6.178.986,9.278,1.389a182.581,182.581,0,0,0,18.641,1.545,61.076,61.076,0,0,0,9.194-.337,15.732,15.732,0,0,0,8.008-3.073,16.129,16.129,0,0,0,4.908-7.125,42.917,42.917,0,0,0,2.152-8.939.81.81,0,0,1,1.609.172Z" transform="translate(-325.606 -157.156)" fill="#3b3b56"/>
          <path id="Path_4467" onclick="Path 4467" d="M449.785,263.755c2.136,6.121,3.723,12.323,5.338,18.535.794,3.107,1.579,6.217,2.314,9.336l1.123,4.675,1.074,4.686q4.3,18.744,7.866,37.644t6.391,37.936c1.851,12.695,3.412,25.445,4.2,38.291a1.383,1.383,0,0,1-1.294,1.464l-.062,0q-37.951.735-75.9,1.059-18.978.109-37.963.031c-12.658-.081-25.311-.2-38-.784a1.346,1.346,0,0,1-1.284-1.406,1.4,1.4,0,0,1,.065-.357c3.945-12.1,8.064-24.119,12.19-36.14l12.392-36.048,12.369-36.051,6.093-18.052c1.975-6.023,4.044-12.065,5.7-18.123l.01-.035a.716.716,0,0,1,1.384.37c-1.622,6.22-3.6,12.23-5.514,18.3l-5.88,18.137q-5.923,18.12-12.018,36.179l-12.14,36.133c-4.02,12.049-8.109,24.087-12.014,36.151l-1.219-1.762c12.586.543,25.238.634,37.874.681q18.962.042,37.93-.129,37.933-.255,75.869-.929l-1.355,1.467c-.764-12.727-2.306-25.424-4.048-38.084q-2.663-18.988-6.139-37.868c-1.171-6.288-2.352-12.575-3.62-18.845-.6-3.141-1.256-6.272-1.906-9.4s-1.3-6.263-1.99-9.386l-1.018-4.689-1.068-4.676c-.7-3.121-1.444-6.23-2.2-9.335-1.535-6.2-3.062-12.435-5.08-18.433l-.008-.023a.809.809,0,0,1,1.531-.525Z" transform="translate(-323.59 -157.295)" fill="#3b3b56"/>
          <path id="Path_4468" onclick="Path 4468" d="M424.713,204.754a12.738,12.738,0,0,1,1.222,2.274,21.215,21.215,0,0,1,.843,2.387,21.428,21.428,0,0,1,.562,2.471,12.965,12.965,0,0,1,.187,2.583.76.76,0,0,1-1.374.412,13,13,0,0,1-1.264-2.261,21.709,21.709,0,0,1-1.5-4.83,12.739,12.739,0,0,1-.229-2.571.852.852,0,0,1,.878-.827A.862.862,0,0,1,424.713,204.754Z" transform="translate(-326.935 -155.318)" fill="#3b3b56"/>
          <path id="Path_4469" onclick="Path 4469" d="M413.288,230.778a12.474,12.474,0,0,0,4.08,4.6,8.442,8.442,0,0,0,2.7,1.087,11.406,11.406,0,0,0,3.034.168,4.634,4.634,0,0,0,2.668-.8,4.226,4.226,0,0,0,1.52-2.26,14.371,14.371,0,0,0,.144-6.449l-.008-.046a.716.716,0,0,1,1.388-.341,17.045,17.045,0,0,1,.757,3.6,12,12,0,0,1-.193,3.8,6.527,6.527,0,0,1-2.11,3.582,6.079,6.079,0,0,1-1.89,1.061c-.327.119-.688.206-1,.286s-.618.162-.936.206a12.782,12.782,0,0,1-1.944.186,11.384,11.384,0,0,1-1.991-.173,9.417,9.417,0,0,1-3.721-1.58,10.263,10.263,0,0,1-4.059-6.492.812.812,0,0,1,1.51-.529Z" transform="translate(-326.55 -156.053)" fill="#3b3b56"/>
          <path id="Path_4470" onclick="Path 4470" d="M403.939,221.437a14.261,14.261,0,0,1-1.209-2.453,23.544,23.544,0,0,1-.829-2.556,23.883,23.883,0,0,1-.544-2.634,14.4,14.4,0,0,1-.167-2.738.754.754,0,0,1,1.381-.379,14.405,14.405,0,0,1,1.253,2.44,24.46,24.46,0,0,1,1.466,5.165,14.188,14.188,0,0,1,.211,2.726.848.848,0,0,1-1.561.428Z" transform="translate(-326.196 -155.518)" fill="#3b3b56"/>
        </g>
        <path id="Path_4471" onclick="Path 4471" d="M373.032,271.123c-1.823,5.542-3.836,11-5.859,16.458q-3.1,8.161-6.426,16.241-6.67,16.147-14.5,31.809c-2.661,5.192-5.442,10.327-8.4,15.368a160.416,160.416,0,0,1-9.612,14.7c-1.749,2.357-3.6,4.648-5.578,6.841a53.539,53.539,0,0,1-6.437,6.137,24.12,24.12,0,0,1-7.946,4.31,13.659,13.659,0,0,1-4.626.467,12.39,12.39,0,0,1-4.428-1.4.715.715,0,0,1,.638-1.28l.032.014a10.857,10.857,0,0,0,3.883,1.028,12.049,12.049,0,0,0,3.984-.557,22.229,22.229,0,0,0,7.128-4.235,68.711,68.711,0,0,0,11.3-12.816,231.394,231.394,0,0,0,17.473-29.885c5.273-10.311,10.049-20.882,14.664-31.522q3.476-7.976,6.738-16.046c2.221-5.36,4.35-10.766,6.444-16.167l0-.007a.81.81,0,0,1,1.524.545Z" transform="translate(-298.838 -157.525)" fill="#3b3b56"/>
        <path id="Path_4472" onclick="Path 4472" d="M324.993,412.14c6.293.32,12.927.632,19.849.925,21.412-66.458,40.28-112.931,47.172-141.595-5.76-17.557-33.94-86.415,13.889-96.885a38.071,38.071,0,0,1,4.474-.722c-6.448-3.833-14.125-5.284-23.34-3.266-47.829,10.469-19.656,79.334-13.889,96.884C366.152,296.581,346.81,344.044,324.993,412.14Z" transform="translate(-299.717 -154.152)" fill="#f4f4f4" style="mix-blend-mode: multiply;isolation: isolate"/>
        <path id="Path_4473" onclick="Path 4473" d="M452.077,258.5c2.035,5.2,3.827,10.476,5.574,15.765,1.707,5.3,3.321,10.632,4.906,15.966,3.151,10.673,6.047,21.409,9.137,32.073,3,10.688,6.121,21.344,9.881,31.727.945,2.592,1.947,5.161,3.051,7.673a59.121,59.121,0,0,0,3.726,7.275,23.89,23.89,0,0,0,2.319,3.259,10.475,10.475,0,0,0,2.885,2.456,4.337,4.337,0,0,0,3.379.371A7.889,7.889,0,0,0,500.068,373l.013-.014a.716.716,0,0,1,1.028,1,9.39,9.39,0,0,1-3.653,2.64,6.076,6.076,0,0,1-4.7-.311,12.278,12.278,0,0,1-3.55-2.764,25.823,25.823,0,0,1-2.647-3.426,59.579,59.579,0,0,1-4.058-7.455c-1.193-2.548-2.275-5.136-3.3-7.743-2.056-5.208-3.791-10.516-5.484-15.828s-3.266-10.655-4.817-16c-3.006-10.716-5.929-21.441-8.876-32.147-1.466-5.356-2.969-10.7-4.544-16.017-1.531-5.333-3.192-10.622-4.929-15.885a.81.81,0,0,1,1.522-.551Z" transform="translate(-303.934 -157.119)" fill="#3b3b56"/>
        <ellipse id="Ellipse_343" onclick="Ellipse 343" cx="5.565" cy="4.674" rx="5.565" ry="4.674" transform="translate(52.07 299.678)" fill="#eaeae9" opacity="0.6" style="mix-blend-mode: multiply;isolation: isolate"/>
        <ellipse id="Ellipse_344" onclick="Ellipse 344" cx="5.565" cy="4.674" rx="5.565" ry="4.674" transform="translate(139.934 299.678)" fill="#eaeae9" opacity="0.6" style="mix-blend-mode: multiply;isolation: isolate"/>
        <ellipse id="Ellipse_347" onclick="Ellipse 347" cx="3.359" cy="4.355" rx="3.359" ry="4.355" transform="translate(128.811 135.516) rotate(-9.3)" fill="#fdc54f"/>
        <ellipse id="Ellipse_348" onclick="Ellipse 348" cx="3.041" cy="3.942" rx="3.041" ry="3.942" transform="translate(132.188 154.028) rotate(-9.298)" fill="#fdc54f"/>
      </g>
      <g id="Group_2874" onclick="Group 2874" transform="translate(421.159 224.906)">
        <ellipse id="Ellipse_340" onclick="Ellipse 340" cx="4.086" cy="3.432" rx="4.086" ry="3.432" transform="translate(100.379 230.5)" fill="#eaeae9" opacity="0.6" style="mix-blend-mode: multiply;isolation: isolate"/>
        <path id="Path_4516" onclick="Path 4516" d="M216.025,321.57c-20.309,4.723-41.513,12.422-58.184-5.556,0,0,7.518,1.307,7.192-11.114-.553-21-4.249-40.206,20.593-50.665,33.758-14.214,45.345,17.182,50.993,29.418,3.922,8.5,12.094,4.577,12.094,4.577S244.136,315.032,216.025,321.57Z" transform="translate(-156.179 -231.3)" fill="#7f7ff8"/>
        <path id="Path_4517" onclick="Path 4517" d="M186.749,446.961l.075,24.872c-8.315,16.1-13.476,53.821-9.909,54s20.458-32.332,32.444-48.893c2.688-3.715,3.936-33.614,3.936-33.614C211.146,422.712,184.315,426.481,186.749,446.961Z" transform="translate(-157.155 -241.047)" fill="#fff"/>
        <path id="Path_4518" onclick="Path 4518" d="M274.936,437.484c-38.581,3.231-80.455,1.809-111.137.253,12.664-50.233,24.52-85.244,28.227-106.71-5.077-12.948-29.065-63.743,5.455-71.468,30.79-6.889,41.047,41.038,48.394,64.17C258.222,357.081,270.342,393,274.936,437.484Z" transform="translate(-156.503 -231.75)" fill="#fff"/>
        <path id="Path_4519" onclick="Path 4519" d="M270.165,443.422s3.12,86.97-4.24,85.347c-9.876-2.178-22.364-82.522-22.364-82.522C239.858,421.867,268.356,421.84,270.165,443.422Z" transform="translate(-160.828 -240.936)" fill="#fff"/>
        <path id="Path_4520" onclick="Path 4520" d="M274.938,441.219c-38.584,3.233-80.079,1.808-111.14.252,12.664-50.231,24.518-85.243,28.228-106.712C206.543,359.1,236.616,360.73,234,340.791c14.383,13.729,21.574,3.269,11.876-13.327C258.224,360.816,270.343,396.738,274.938,441.219Z" transform="translate(-156.503 -235.484)" fill="#37e1ca"/>
        <path id="Path_4521" onclick="Path 4521" d="M172.45,273.668c-3.915,45.2,40.661-5.064,29.493-14.263C193.246,252.242,179.247,255.311,172.45,273.668Z" transform="translate(-156.961 -231.584)" fill="#7f7ff8"/>
        <path id="Path_4522" onclick="Path 4522" d="M201.041,262.514c-8.737-7.884-1.684-11.372,9.736-9.486s17.031,12.15,13.2,15.025C219.617,271.324,208.709,269.108,201.041,262.514Z" transform="translate(-158.318 -231.404)" fill="#7f7ff8"/>
        <path id="Path_4523" onclick="Path 4523" d="M274.937,445.468c-38.581,3.232-80.08,1.805-111.14.25,3.713-14.717,7.355-28.127,10.741-40.278,29.062,2.03,65.673,1.7,94.522,2.6A362.239,362.239,0,0,1,274.937,445.468Z" transform="translate(-156.503 -239.73)" fill="#fff"/>
        <path id="Path_4524" onclick="Path 4524" d="M187.478,454.021c.162,6.366.243,12.731.365,19.1a1.021,1.021,0,0,1-.1.468l-.02.04a85.719,85.719,0,0,0-5.633,16.189c-.717,2.788-1.35,5.6-1.923,8.427s-1.109,5.658-1.562,8.5-.838,5.7-1.122,8.556a59.311,59.311,0,0,0-.349,8.474,9.931,9.931,0,0,0,.252,1.869,1.261,1.261,0,0,0,.052.171.61.61,0,0,0,.049.127c.015.038.027.063.024.048.008.023-.024-.041-.076-.077a1.179,1.179,0,0,0-.139-.1c-.055-.023-.121-.052-.21-.081a.715.715,0,0,0-.359-.009c-.08.008-.051.021.027-.038a3.877,3.877,0,0,0,.595-.508c.219-.214.441-.464.661-.714.437-.514.867-1.064,1.29-1.627,1.689-2.264,3.261-4.695,4.814-7.126,6.191-9.773,11.968-19.878,18.4-29.6,1.6-2.436,3.237-4.854,4.946-7.23l.645-.889c.1-.143.231-.306.31-.432.054-.107.113-.21.176-.311a11.993,11.993,0,0,0,.616-1.864c.344-1.346.6-2.76.838-4.173.919-5.676,1.423-11.467,1.956-17.236v0a.7.7,0,0,1,1.4.1c-.264,5.815-.63,11.619-1.37,17.441a44.445,44.445,0,0,1-.758,4.387,13.738,13.738,0,0,1-.717,2.276q-.17.323-.355.64c-.113.18-.21.3-.315.458l-.617.886c-1.636,2.371-3.207,4.8-4.748,7.246-6.136,9.818-11.917,19.876-18.059,29.788-1.555,2.474-3.118,4.937-4.885,7.343-.444.6-.908,1.2-1.416,1.784-.26.294-.521.587-.823.879a6.4,6.4,0,0,1-1.076.882,3.026,3.026,0,0,1-.959.409,2.035,2.035,0,0,1-.9-.02,1.465,1.465,0,0,1-.46-.181,1.878,1.878,0,0,1-.361-.253,2.342,2.342,0,0,1-.421-.5,2.578,2.578,0,0,1-.233-.43,2.983,2.983,0,0,1-.148-.379,3.433,3.433,0,0,1-.106-.35,12.455,12.455,0,0,1-.334-2.439,61.665,61.665,0,0,1,.4-8.916c.306-2.922.714-5.823,1.187-8.71a162.311,162.311,0,0,1,3.73-17.145c.779-2.823,1.638-5.628,2.624-8.4a62.273,62.273,0,0,1,3.489-8.152l-.123.508c.084-6.366.127-12.732.251-19.1a.792.792,0,0,1,1.584,0Z" transform="translate(-157.075 -242.334)" fill="#3b3b56"/>
        <path id="Path_4525" onclick="Path 4525" d="M189.428,324.681a179.864,179.864,0,0,1-6.889-18.4,85.528,85.528,0,0,1-3.757-19.438,39.793,39.793,0,0,1,.592-10.057,25.18,25.18,0,0,1,3.876-9.509,21.585,21.585,0,0,1,7.865-6.714,18.753,18.753,0,0,1,2.352-1.059,22.4,22.4,0,0,1,2.424-.834c.825-.21,1.635-.478,2.474-.637.843-.144,1.679-.324,2.528-.433a24.393,24.393,0,0,1,10.247.886,26.6,26.6,0,0,1,8.962,4.951,40.559,40.559,0,0,1,6.853,7.393,63.2,63.2,0,0,1,5.2,8.5c6.059,11.787,9.6,24.479,13.049,37.03a.7.7,0,0,1-1.344.4c-2-6.208-3.92-12.426-6.167-18.515a128.173,128.173,0,0,0-7.728-17.754c-3.084-5.6-6.7-11.016-11.563-14.965a23.882,23.882,0,0,0-8.067-4.392,21.559,21.559,0,0,0-9.094-.713,27.912,27.912,0,0,0-8.855,2.632,18.8,18.8,0,0,0-6.894,5.809,22.494,22.494,0,0,0-3.477,8.459,40.527,40.527,0,0,0-.66,9.406,83.711,83.711,0,0,0,3.318,18.938c1.7,6.24,3.915,12.346,6.225,18.427a.792.792,0,0,1-1.467.6Z" transform="translate(-157.315 -231.67)" fill="#3b3b56"/>
        <path id="Path_4526" onclick="Path 4526" d="M271.219,452.189c.323,6.638.512,13.279.691,19.924q.2,9.968.18,19.946t-.574,19.976c-.2,3.335-.459,6.67-.913,10.021a42.539,42.539,0,0,1-.956,5.066,11.466,11.466,0,0,1-1.014,2.656,3.49,3.49,0,0,1-1.421,1.47,2.375,2.375,0,0,1-.726.232,2.684,2.684,0,0,1-.789-.02,3.787,3.787,0,0,1-.939-.341,6.948,6.948,0,0,1-2.3-2.094,18.62,18.62,0,0,1-1.43-2.284,42.893,42.893,0,0,1-2.125-4.687c-1.234-3.157-2.243-6.354-3.181-9.566-1.852-6.427-3.429-12.9-4.806-19.416s-2.653-13.04-3.832-19.583c-1.133-6.552-2.235-13.107-3.181-19.686a.7.7,0,0,1,1.382-.232c1.251,6.517,2.487,13.035,3.843,19.528,1.316,6.5,2.7,12.984,4.207,19.432,1.536,6.441,3.08,12.881,4.971,19.2.945,3.154,1.962,6.287,3.168,9.307a40.3,40.3,0,0,0,2.013,4.365,15.8,15.8,0,0,0,1.221,1.927,4.365,4.365,0,0,0,1.326,1.26,1.514,1.514,0,0,0,.221.094.48.48,0,0,0-.309.031c-.1.061.1-.067.232-.342a8.928,8.928,0,0,0,.749-1.987,39.827,39.827,0,0,0,.909-4.712c.454-3.226.724-6.515.942-9.806.433-6.588.573-13.212.736-19.836.139-6.626.179-13.258.173-19.891.038-6.634-.027-13.269-.055-19.906a.792.792,0,0,1,1.584-.041Z" transform="translate(-160.865 -242.235)" fill="#3b3b56"/>
        <path id="Path_4527" onclick="Path 4527" d="M226.715,282.732a10.5,10.5,0,0,1,1.58,1.691,17.051,17.051,0,0,1,1.248,1.885,17.489,17.489,0,0,1,1,2.031,10.725,10.725,0,0,1,.669,2.226.751.751,0,0,1-1.208.71,10.722,10.722,0,0,1-1.619-1.668,17.36,17.36,0,0,1-1.288-1.862,17.05,17.05,0,0,1-1.039-2.007,10.477,10.477,0,0,1-.707-2.2.843.843,0,0,1,.676-.982A.853.853,0,0,1,226.715,282.732Z" transform="translate(-159.854 -233.038)" fill="#3b3b56"/>
        <path id="Path_4528" onclick="Path 4528" d="M208.647,287.427a12.949,12.949,0,0,1,1.7,1.943,22.337,22.337,0,0,1,2.491,4.415,13.19,13.19,0,0,1,.788,2.471.741.741,0,0,1-.583.87.749.749,0,0,1-.631-.169,13.29,13.29,0,0,1-1.743-1.921,21.96,21.96,0,0,1-1.411-2.112,21.5,21.5,0,0,1-1.16-2.256,12.981,12.981,0,0,1-.827-2.449.832.832,0,0,1,1.372-.791Z" transform="translate(-158.87 -233.293)" fill="#3b3b56"/>
        <path id="Path_4529"  d="M231.1,296.928a10.682,10.682,0,0,1,1.768,5.982,5.93,5.93,0,0,1-1.164,3.4,5.036,5.036,0,0,1-1.461,1.291,5.658,5.658,0,0,1-1.805.657,6.931,6.931,0,0,1-3.52-.407,9.148,9.148,0,0,1-2.8-1.734A12.251,12.251,0,0,1,218.76,301a.708.708,0,0,1,1.236-.657l.01.014a16.74,16.74,0,0,0,3.679,3.818,6,6,0,0,0,4.27,1.291,2.5,2.5,0,0,0,1.565-.882,3.642,3.642,0,0,0,.773-1.9,13.075,13.075,0,0,0-.633-5.1l-.008-.026a.8.8,0,0,1,1.45-.627Z" transform="translate(-159.494 -233.801)" fill="#3b3b56"/>
        <g id="Group_2614"  transform="translate(17.093 160.458)" opacity="0.5">
          <path id="Path_4531"  d="M184.356,400.748c-.328,3.863-.878,7.694-1.547,11.493-.652,3.8-1.422,7.578-2.206,11.344q-1.213,5.642-2.491,11.256l-2.563,11.22,0,.007a.7.7,0,0,1-1.384-.214c.314-3.863.849-7.7,1.5-11.5.636-3.806,1.392-7.583,2.16-11.352q1.19-5.646,2.445-11.265l2.519-11.225,0-.007a.794.794,0,0,1,1.565.241Z" transform="translate(-174.16 -399.886)" fill="#37e1ca"/>
        </g>
        <g id="Group_2615"  transform="translate(33.539 162.388)" opacity="0.5">
          <path id="Path_4532"  d="M197.3,402.768q-.315,5.341-.828,10.65c-.321,3.541-.7,7.075-1.061,10.608-.767,7.065-1.521,14.118-2.422,21.181a.7.7,0,0,1-1.4-.069c-.09-3.58-.024-7.159.172-10.725.179-3.568.479-7.128.827-10.68.374-3.549.793-7.093,1.314-10.621q.753-5.3,1.828-10.548a.794.794,0,0,1,1.571.205Z" transform="translate(-191.553 -401.927)" fill="#37e1ca"/>
        </g>
        <g id="Group_2616"  transform="translate(65.866 165.405)" opacity="0.5">
          <path id="Path_4533"  d="M228.07,405.873q.254,5.106.364,10.2c.088,3.4.129,6.8.154,10.2,0,3.4-.016,6.815-.143,10.227q-.16,5.117-.685,10.226a.7.7,0,0,1-1.4-.035q-.275-5.107-.409-10.2c-.1-3.4-.159-6.8-.2-10.2-.016-3.4-.015-6.815.1-10.226q.137-5.118.64-10.229a.794.794,0,0,1,1.584.04Z" transform="translate(-225.742 -405.118)" fill="#37e1ca"/>
        </g>
        <g id="Group_2617"  transform="translate(91.609 164.491)" opacity="0.5">
          <path id="Path_4534"  d="M254.612,404.86q.634,5.283,1.01,10.576c.269,3.528.46,7.059.634,10.591.3,7.066.5,14.136.3,21.222a.7.7,0,0,1-1.4.068v-.01c-.883-7.042-1.359-14.1-1.734-21.163-.165-3.532-.313-7.065-.383-10.6q-.133-5.3-.007-10.617a.794.794,0,0,1,1.582-.077Z" transform="translate(-252.968 -404.151)" fill="#37e1ca"/>
        </g>
        <path id="Path_4535"  d="M207.224,334.952c-3.63,21.009-15.063,54.987-27.417,103.521-5.6-.224-10.959-.48-16.01-.736,12.668-50.231,24.524-85.246,28.23-106.71-5.077-12.949-29.068-63.744,5.454-71.47a23.2,23.2,0,0,1,18.781,3.36,27.1,27.1,0,0,0-3.585.564C178.162,271.207,202.147,322,207.224,334.952Z" transform="translate(-156.503 -231.75)" fill="#eaeae9" opacity="0.6" style="mix-blend-mode: multiply;isolation: isolate"/>
        <path id="Path_4536" d="M244.19,449.947l2.179,11.768,24.189-.436.218-12.857Z" transform="translate(-160.881 -242.071)" fill="#eaeae9" opacity="0.6" style="mix-blend-mode: multiply;isolation: isolate"/>
        <path id="Path_4537"  d="M186.574,448.652l1.09,12.2,25.06.218,1.525-11.768Z" transform="translate(-157.743 -242.083)" fill="#eaeae9" opacity="0.6" style="mix-blend-mode: multiply;isolation: isolate"/>
        <ellipse id="Ellipse_349" cx="4.086" cy="3.432" rx="4.086" ry="3.432" transform="translate(42.195 227.885)" fill="#eaeae9" opacity="0.6" style="mix-blend-mode: multiply;isolation: isolate"/>
        <g id="Group_2618" transform="translate(102.965 163.133)" opacity="0.5">
          <path id="Path_4539"  d="M266.57,403.41l2.765,20.884c.426,3.493.852,6.991,1.175,10.507.341,3.513.577,7.045.641,10.59a.7.7,0,0,1-1.4.13c-.6-3.469-1.189-6.934-1.721-10.412-.55-3.475-1.047-6.961-1.516-10.456-.442-3.5-.855-7.007-1.134-10.534-.3-3.525-.453-7.072-.4-10.624a.794.794,0,0,1,1.581-.092Z" transform="translate(-264.977 -402.715)" fill="#37e1ca"/>
        </g>
        <path id="Path_4540"  d="M243.3,328.886a16.639,16.639,0,0,1-2.1,2.851,17.764,17.764,0,0,1-2.588,2.366,14.919,14.919,0,0,1-6.464,2.824,48.059,48.059,0,0,1-6.84.217c-2.251-.049-4.492-.159-6.731-.291-8.952-.555-17.854-1.417-26.759-2.4l1.181-.88c-1.582,9.142-3.918,18.073-6.3,26.97s-4.906,17.749-7.38,26.609c-4.964,17.716-9.791,35.456-14.288,53.282l-1.274-1.686c18.516.534,37.031.945,55.542,1q13.883.045,27.758-.226c9.248-.184,18.492-.5,27.717-1.049l-1.29,1.519q-1.457-14.127-4.086-28.111c-1.737-9.315-3.846-18.563-6.233-27.74s-5.07-18.278-7.945-27.323c-1.438-4.524-2.932-9.029-4.442-13.537l-2.255-6.777a68.285,68.285,0,0,1-2.015-7.006,1.145,1.145,0,0,1,1.559-1.291l.025.01a35.091,35.091,0,0,0,10.988,2.683,32.529,32.529,0,0,0,11.228-1.223,53.614,53.614,0,0,0,10.594-4.417c3.41-1.813,6.709-3.874,9.994-5.978,6.563-4.209,13.114-8.632,20.325-11.925a56.6,56.6,0,0,1,11.235-3.85,45.729,45.729,0,0,1,11.841-1.068.7.7,0,0,1-.052,1.4,44.266,44.266,0,0,0-11.447,1.165,55.046,55.046,0,0,0-10.875,3.868c-7.006,3.3-13.43,7.736-19.969,12.038-3.275,2.151-6.59,4.279-10.066,6.178a54.964,54.964,0,0,1-10.987,4.67,34.744,34.744,0,0,1-11.969,1.378,37.373,37.373,0,0,1-11.724-2.774l1.583-1.28a67.686,67.686,0,0,0,1.98,6.679l2.293,6.744c1.539,4.5,3.067,9.012,4.541,13.542q4.438,13.587,8.1,27.426c2.423,9.225,4.568,18.527,6.34,27.907q2.685,14.063,4.186,28.329a1.376,1.376,0,0,1-1.225,1.513l-.055,0h-.01c-18.544,1.134-37.106,1.409-55.653,1.319s-37.084-.528-55.611-1.092h0a1.352,1.352,0,0,1-1.311-1.393,1.423,1.423,0,0,1,.041-.293q3.41-13.386,7.032-26.716,3.664-13.315,7.479-26.583c2.526-8.849,5.084-17.685,7.526-26.542s4.782-17.744,6.451-26.72l0-.015a1.073,1.073,0,0,1,1.179-.866c8.852,1.068,17.74,2.022,26.626,2.665,2.222.154,4.444.285,6.659.357a47.016,47.016,0,0,0,6.551-.131,14.963,14.963,0,0,0,10-7.092l.03-.051a.791.791,0,0,1,1.362.806Z" transform="translate(-156.425 -234.12)" fill="#3b3b56"/>
        <g id="Group_2877"  transform="translate(72.935 0)">
          <path id="Path_4452"  d="M746.144,252c-11.541-8.485-8.766-16.859,2.278-9.352-4.037-6.891-4.616-12.61-1.2-13.311s7.58,4.183,12.352,13.494c-2.263-11.578,9.427-7.271,7.746,12.142Z" transform="translate(-697.193 -228.742)" fill="#7f7ff8"/>
          <path id="Path_4498"  d="M775.935,436.375l3.765,15.851s10.676-.569,19.028,4.515c3.546,2.159,7.5,5.692,5.537,6.857-4.167-2.576-30.962,1.627-34.2,1.254-4.736-.546-10.767-26.492-10.767-26.492C757.767,426.223,774.406,424.238,775.935,436.375Z" transform="translate(-704.939 -303.949)" fill="#fff"/>
          <path id="Path_4499"  d="M690.694,378.781c25.422,1.513,52.934-.086,73.086-1.6-9.123-32.831-17.474-55.667-20.252-69.724,3.133-8.594,18.1-42.377-4.719-46.91-20.357-4.043-26.342,27.636-30.807,42.964C700.41,325.644,693.01,349.458,690.694,378.781Z" transform="translate(-679.042 -240.436)" fill="#fff"/>
          <path id="Path_4500"  d="M702.409,441.561s4.1,57.51,8.781,55.492c6.275-2.707,8.737-57.079,8.737-57.079C720.617,423.486,702.064,427.155,702.409,441.561Z" transform="translate(-683.469 -304.287)" fill="#fff"/>
          <path id="Path_4501"  d="M690.692,405.623c25.424,1.514,52.687-.08,73.088-1.6-9.124-32.831-17.474-55.666-20.253-69.725-.168.165-24.43,6.095-27.15,5.581-3.292-.621-8.6-8.682-8.6-8.682C700.189,353.329,693.009,376.3,690.692,405.623Z" transform="translate(-679.041 -267.278)" fill="#49cbf9"/>
          <g id="Group_2613" transform="translate(11.651 63.923)">
            <g id="Group_2612"  clip-path="url(#clip-path-2)">
              <path id="Path_4502"  d="M691.537,389.542c23.068-1.027,48.547-1.318,71.432-2.192L760.191,360.9c-21.337-1.019-44.1-1.75-68.122,2.673l.214,9.031,63.808-2.828,1.461,7.062-64.438,3.489Z" transform="translate(-691.011 -342.134)" fill="#fff"/>
            </g>
          </g>
          <path id="Path_4504"  d="M755.464,302.426c1.447-4.1,2.828-8.21,3.859-12.406a54.062,54.062,0,0,0,1.852-12.7,25.95,25.95,0,0,0-.679-6.253,13.654,13.654,0,0,0-2.648-5.484A12.475,12.475,0,0,0,753,262a18.517,18.517,0,0,0-6.016-1.377,14.073,14.073,0,0,0-6.011.922,16.367,16.367,0,0,0-5.173,3.336,35.635,35.635,0,0,0-7.185,10.439,92.123,92.123,0,0,0-4.712,12.057c-1.366,4.117-2.52,8.309-3.764,12.488a.461.461,0,0,1-.889-.243c2.108-8.432,4.188-16.974,7.892-25a45.273,45.273,0,0,1,3.185-5.83,28.713,28.713,0,0,1,4.259-5.2,18.174,18.174,0,0,1,5.715-3.736,15.941,15.941,0,0,1,6.781-1.1l.86.049.847.129.847.131c.282.044.554.129.832.192a18.684,18.684,0,0,1,3.256,1.057,14.3,14.3,0,0,1,5.524,4.132,15.442,15.442,0,0,1,2.964,6.189,25.621,25.621,0,0,1,.654,6.7,55.3,55.3,0,0,1-2.132,13.053,118.422,118.422,0,0,1-4.3,12.4.521.521,0,0,1-.975-.369Z" transform="translate(-689.832 -239.883)" fill="#3b3b56"/>
          <path id="Path_4505" d="M707.209,333.192c-1.972,5.941-3.877,11.9-5.631,17.9-.435,1.5-.878,3-1.287,4.509s-.837,3.011-1.224,4.524c-.4,1.51-.8,3.02-1.171,4.537s-.755,3.031-1.1,4.554a250.751,250.751,0,0,0-5.758,36.968l-.877-.963c12.17.147,24.345-.008,36.517-.328,12.174-.287,24.343-.777,36.523-1.243l-.8,1.1q-2.432-8.737-4.968-17.447t-5.2-17.386c-1.764-5.787-3.527-11.578-5.21-17.4s-3.317-11.664-4.487-17.636a.461.461,0,0,1,.9-.185v.006c1.254,5.891,2.978,11.689,4.748,17.468s3.63,11.539,5.435,17.316,3.614,11.556,5.37,17.352,3.449,11.612,5.085,17.445a.867.867,0,0,1-.6,1.068.875.875,0,0,1-.193.032h-.009c-12.172.508-24.353,1.04-36.543,1.369-12.19.308-24.39.422-36.589.25h0a.89.89,0,0,1-.878-.9c0-.02,0-.041,0-.06.513-6.266,1.26-12.513,2.285-18.715s2.276-12.363,3.747-18.468c.357-1.529.745-3.051,1.141-4.57s.8-3.037,1.215-4.55.856-3.02,1.3-4.525.9-3.005,1.359-4.505c1.851-6,3.851-11.939,5.915-17.857a.521.521,0,0,1,.986.336Z" transform="translate(-678.499 -267.772)" fill="#3b3b56"/>
          <path id="Path_4506"  d="M703.182,456.167c.439,4.239.854,8.479,1.335,12.711.453,4.235.935,8.467,1.478,12.687.559,4.218,1.1,8.438,1.823,12.616.359,2.088.752,4.17,1.243,6.209.25,1.016.516,2.029.852,2.986a10.712,10.712,0,0,0,.56,1.356,3.482,3.482,0,0,0,.326.52,1.25,1.25,0,0,0,.133.147c.011,0,.014,0,.016.01s-.033-.025-.054-.017a.169.169,0,0,0-.114,0,.094.094,0,0,0-.073.018.982.982,0,0,0,.164-.1,2.146,2.146,0,0,0,.389-.392,6.8,6.8,0,0,0,.716-1.195,20.939,20.939,0,0,0,1.072-2.859,62.843,62.843,0,0,0,1.468-6.125c.812-4.151,1.376-8.365,1.934-12.578.541-4.218.99-8.451,1.4-12.689.434-4.237.785-8.482,1.147-12.727a.461.461,0,0,1,.921.056c-.159,4.265-.42,8.526-.7,12.786-.314,4.258-.686,8.513-1.141,12.765s-1.033,8.493-1.814,12.72a64.656,64.656,0,0,1-1.466,6.318,22.489,22.489,0,0,1-1.153,3.13,8.511,8.511,0,0,1-.92,1.545,3.928,3.928,0,0,1-.734.737,2.762,2.762,0,0,1-.518.313,2.265,2.265,0,0,1-.455.131,1.994,1.994,0,0,1-.511-.024,2.171,2.171,0,0,1-.427-.159,3.612,3.612,0,0,1-.317-.211,2.946,2.946,0,0,1-.414-.433,5.175,5.175,0,0,1-.523-.832,12.422,12.422,0,0,1-.655-1.6c-.364-1.058-.634-2.11-.887-3.166-.5-2.109-.883-4.221-1.236-6.336q-1.038-6.347-1.726-12.715t-1.251-12.747c-.34-4.255-.676-8.508-.92-12.769a.521.521,0,0,1,1.038-.083Z" transform="translate(-683.37 -314.344)" fill="#3b3b56"/>
          <path id="Path_4507"  d="M779.068,452.829c.737,2.8,1.444,5.6,2.158,8.4l-.7-.521a38.786,38.786,0,0,1,7.526.414,36.264,36.264,0,0,1,7.327,1.822,27.059,27.059,0,0,1,6.72,3.565,20.865,20.865,0,0,1,2.929,2.523,7.113,7.113,0,0,1,1.239,1.721,2.577,2.577,0,0,1,.271,1.387,1.8,1.8,0,0,1-.335.848,2.1,2.1,0,0,1-.611.55.857.857,0,0,1-.889.023l-.054-.031a4.926,4.926,0,0,0-1.355-.416c-.266-.045-.543-.078-.814-.118l-.839-.075c-1.132-.076-2.288-.083-3.446-.068-2.318.046-4.653.161-6.987.331-4.67.331-9.339.824-14.027,1.275-1.172.114-2.347.211-3.533.291-.592.042-1.191.071-1.8.086a9.373,9.373,0,0,1-.99-.031,2.7,2.7,0,0,1-1.155-.453,5.883,5.883,0,0,1-1.419-1.444,14.933,14.933,0,0,1-.991-1.573,33.357,33.357,0,0,1-1.542-3.261c-.919-2.2-1.654-4.454-2.354-6.71s-1.324-4.532-1.9-6.819a.461.461,0,0,1,.888-.246,122.993,122.993,0,0,0,4.672,13.216A31.909,31.909,0,0,0,768.6,470.6a13.346,13.346,0,0,0,.917,1.389,4.436,4.436,0,0,0,1.051,1.047,1.129,1.129,0,0,0,.469.188c.221.014.495.011.772,0,.564-.028,1.139-.067,1.719-.121,1.158-.1,2.324-.232,3.49-.348,4.67-.487,9.351-1.02,14.059-1.391,2.355-.182,4.716-.348,7.1-.366,1.194-.009,2.39,0,3.6.092l.917.088c.309.046.618.086.93.141a8.584,8.584,0,0,1,.962.235c.167.058.323.094.5.174s.35.17.523.26l-.942-.008c.045-.034.079-.057.075-.06s-.008.011,0,0a.932.932,0,0,0-.11-.4,5.5,5.5,0,0,0-.92-1.264,19.228,19.228,0,0,0-2.658-2.309,24.76,24.76,0,0,0-3.021-1.91,27.323,27.323,0,0,0-3.247-1.51,34.7,34.7,0,0,0-6.971-1.875c-1.192-.208-2.4-.34-3.6-.447a35.819,35.819,0,0,0-3.609-.139h-.035a.666.666,0,0,1-.662-.523c-.622-2.823-1.251-5.645-1.851-8.475a.521.521,0,0,1,1.014-.241Z" transform="translate(-705.804 -313.112)" fill="#3b3b56"/>
          <path id="Path_4508"  d="M774.833,299.295c.958-3.105,2.033-6.158,3.116-9.215q1.665-4.568,3.469-9.086,3.622-9.029,7.986-17.758c1.488-2.891,3.054-5.745,4.748-8.533q1.264-2.093,2.648-4.12c.922-1.351,1.891-2.674,2.942-3.939a37.379,37.379,0,0,1,3.376-3.625,18.413,18.413,0,0,1,4.073-2.956,10.71,10.71,0,0,1,1.187-.506c.206-.069.4-.153.616-.207l.638-.154a7.031,7.031,0,0,1,2.633-.061,7.96,7.96,0,0,1,4.417,2.546.461.461,0,0,1-.638.663l-.017-.015a8.862,8.862,0,0,0-1.844-1.35,5.656,5.656,0,0,0-2.09-.694,7.035,7.035,0,0,0-4.265.99,17.3,17.3,0,0,0-3.674,2.832,35.82,35.82,0,0,0-3.137,3.556,102.221,102.221,0,0,0-9.947,16.419c-2.943,5.724-5.562,11.621-8.085,17.557q-1.9,4.452-3.668,8.958c-1.21,2.992-2.36,6.014-3.494,9.029l0,.005a.521.521,0,0,1-.986-.337Z" transform="translate(-710.841 -232.436)" fill="#3b3b56"/>
          <path id="Path_4509"  d="M699.664,293.772c-.669-3.079-1.217-6.168-1.823-9.246-.573-3.084-1.156-6.163-1.777-9.233-1.231-6.14-2.517-12.268-4.15-18.294a97.715,97.715,0,0,0-6.118-17.586,35.282,35.282,0,0,0-2.257-4.01,18.969,18.969,0,0,0-2.88-3.484,11.441,11.441,0,0,0-1.755-1.348,8.276,8.276,0,0,0-2-.851,7.042,7.042,0,0,0-2.155-.191,8.6,8.6,0,0,0-2.162.458l-.027.008a.46.46,0,0,1-.309-.867,9.556,9.556,0,0,1,2.4-.652,8.081,8.081,0,0,1,2.521.111,9.5,9.5,0,0,1,2.36.885,12.679,12.679,0,0,1,2.038,1.425,20,20,0,0,1,3.211,3.661,36.7,36.7,0,0,1,2.472,4.122,66.6,66.6,0,0,1,3.689,8.779c1.043,2.989,1.95,6.016,2.778,9.061,1.591,6.106,2.9,12.269,4.009,18.46q.821,4.645,1.553,9.3l1.407,9.3v0a.521.521,0,0,1-1.024.188Z" transform="translate(-671.959 -228.424)" fill="#3b3b56"/>
          <path id="Path_4510"  d="M737.567,298.53a8.928,8.928,0,0,0-.149,1.947,3.62,3.62,0,0,0,.438,1.643,2.186,2.186,0,0,0,1.14.929,3.125,3.125,0,0,0,1.617.128,7.134,7.134,0,0,0,3.327-1.587,15.4,15.4,0,0,0,2.7-2.972l.006-.008a.464.464,0,0,1,.81.438,10.541,10.541,0,0,1-2.423,3.763,7.762,7.762,0,0,1-4.152,2.214,4.84,4.84,0,0,1-2.567-.271,3.781,3.781,0,0,1-1.968-1.84,4.721,4.721,0,0,1-.393-2.48,7.152,7.152,0,0,1,.619-2.223.524.524,0,0,1,.995.3Z" transform="translate(-696.144 -254.69)" fill="#3b3b56"/>
          <path id="Path_4511" d="M741.268,283.353a6.884,6.884,0,0,1-.144,1.515,11.3,11.3,0,0,1-.384,1.437,11.479,11.479,0,0,1-.565,1.378,7.053,7.053,0,0,1-.8,1.3.493.493,0,0,1-.876-.286,7.012,7.012,0,0,1,.116-1.524,11.63,11.63,0,0,1,.891-2.834,6.92,6.92,0,0,1,.777-1.309.554.554,0,0,1,.778-.095A.56.56,0,0,1,741.268,283.353Z" transform="translate(-697.109 -248.987)" fill="#3b3b56"/>
          <path id="Path_4512"  d="M758.282,284.552a8.5,8.5,0,0,1-.186,1.69,14.186,14.186,0,0,1-.427,1.613,14.486,14.486,0,0,1-.609,1.556,8.7,8.7,0,0,1-.849,1.48.487.487,0,0,1-.681.1.492.492,0,0,1-.2-.381,8.7,8.7,0,0,1,.158-1.7,14.483,14.483,0,0,1,.4-1.623,14.33,14.33,0,0,1,.579-1.565,8.6,8.6,0,0,1,.821-1.489.548.548,0,0,1,.993.315Z" transform="translate(-703.477 -249.437)" fill="#3b3b56"/>
          <path id="Path_4513"  d="M785.5,377.184c-3.51.261-7.249.528-11.155.782-8.894-31.732-16.954-53.907-19.674-67.669,3.133-8.6,18.1-42.378-4.719-46.911a17.681,17.681,0,0,0-1.809-.268,15.269,15.269,0,0,1,12.385-2.569c22.824,4.533,7.856,38.315,4.723,46.911C768.023,321.516,776.373,344.353,785.5,377.184Z" transform="translate(-700.758 -240.435)" fill="#eaeae9" opacity="0.6" style="mix-blend-mode: multiply;isolation: isolate"/>
          <path id="Path_4514"  d="M761.519,450.58l16.532-1.187,1.749,7.127-16.612.83Z" transform="translate(-705.816 -311.959)" fill="#eaeae9" opacity="0.6" style="mix-blend-mode: multiply;isolation: isolate"/>
          <path id="Path_4515" d="M702.4,451.6l1.057,8.147,15.623-.233.953-8.052Z" transform="translate(-683.466 -312.743)" fill="#eaeae9" opacity="0.6" style="mix-blend-mode: multiply;isolation: isolate"/>
          <ellipse id="Ellipse_341" cx="2.688" cy="2.258" rx="2.688" ry="2.258" transform="matrix(1, -0.024, 0.024, 1, 23.251, 157.048)" fill="#eaeae9" opacity="0.6" style="mix-blend-mode: multiply;isolation: isolate"/>
          <ellipse id="Ellipse_342"  cx="2.688" cy="2.258" rx="2.688" ry="2.258" transform="matrix(1, -0.024, 0.024, 1, 64.977, 157.118)" fill="#eaeae9" opacity="0.6" style="mix-blend-mode: multiply;isolation: isolate"/>
        </g>
        <ellipse id="Ellipse_392"  cx="9.208" cy="8.345" rx="9.208" ry="8.345" transform="matrix(0.801, -0.599, 0.599, 0.801, 0, 59.373)" fill="#fb9387"/>
        <path id="Path_4779"  d="M166.45,286.311a1.417,1.417,0,0,0,1.328.243,5.134,5.134,0,0,0,1.682-.657,4.017,4.017,0,0,0,1.278-1.14.763.763,0,0,0,.16-.47.412.412,0,0,0-.205-.238,6.672,6.672,0,0,0-1.652-.658,15.576,15.576,0,0,0-1.916-.391,13.924,13.924,0,0,0-3.866-.048,4.793,4.793,0,0,0-3.018,1.369,3.48,3.48,0,0,0-.349,3.076c.664,2.372,2.044,4.873,4.141,5.758a5.223,5.223,0,0,0,3.384.274,8.748,8.748,0,0,0,3.3-1.632,10.594,10.594,0,0,0,3.979-6.229,6.413,6.413,0,0,0,.069-1.812,6.1,6.1,0,0,0-.153-.885c-.094-.3-.207-.592-.308-.89a6.379,6.379,0,0,0-2.127-2.929c-1.96-1.473-4.87-1.556-7.371-.953l-.042.009a.525.525,0,0,1-.289-1.008,11.868,11.868,0,0,1,4.307-.626,8.307,8.307,0,0,1,4.289,1.3,7.956,7.956,0,0,1,2.818,3.562c.135.351.28.7.4,1.055a7.978,7.978,0,0,1,.243,1.146,8.237,8.237,0,0,1,0,2.318,10.64,10.64,0,0,1-1.593,4.215,12.978,12.978,0,0,1-2.979,3.321,10.774,10.774,0,0,1-4.056,2.057,7.334,7.334,0,0,1-4.728-.344,8.151,8.151,0,0,1-3.49-3.113,13.88,13.88,0,0,1-1.79-4.113,6.907,6.907,0,0,1-.195-2.4,4.509,4.509,0,0,1,.978-2.431,5.113,5.113,0,0,1,2.074-1.469,9.01,9.01,0,0,1,2.265-.541,15.759,15.759,0,0,1,4.393.185,17.346,17.346,0,0,1,2.126.506,7.667,7.667,0,0,1,2.14.976,1.994,1.994,0,0,1,.831,1.477,2.318,2.318,0,0,1-.484,1.458,5.427,5.427,0,0,1-1.853,1.52,6.423,6.423,0,0,1-2.2.719,3.5,3.5,0,0,1-1.264-.068,2.1,2.1,0,0,1-1.2-.787.594.594,0,0,1,.943-.723Z" transform="translate(-154.613 -224.926)" fill="#3b3b56"/>
        <path id="Path_4530"  d="M203.106,348.778a77.532,77.532,0,0,0,7.84,11.734,61.616,61.616,0,0,0,9.879,9.955,39.836,39.836,0,0,0,12.068,6.655,30.1,30.1,0,0,0,6.7,1.373,22.424,22.424,0,0,0,6.72-.361,38.121,38.121,0,0,0,12.512-5.667c3.974-2.53,7.793-5.433,11.949-7.943a41.655,41.655,0,0,1,13.509-5.679,27.657,27.657,0,0,1,14.572,1.2.7.7,0,0,1-.427,1.335,29.9,29.9,0,0,0-6.861-1.134,25.112,25.112,0,0,0-6.85.66A39.412,39.412,0,0,0,272.1,366.65c-3.949,2.558-7.761,5.426-11.806,8.092a57.687,57.687,0,0,1-6.348,3.676,29.561,29.561,0,0,1-7.064,2.482,23.924,23.924,0,0,1-3.773.465,29.98,29.98,0,0,1-3.766-.108,32.82,32.82,0,0,1-7.3-1.545,39.9,39.9,0,0,1-12.809-7.265,62.606,62.606,0,0,1-10.017-10.588q-2.177-2.913-4.073-6.009a61.621,61.621,0,0,1-3.466-6.392.792.792,0,0,1,1.414-.712Z" transform="translate(-158.562 -236.621)" fill="#3b3b56"/>
      </g>
    </g>
  </g>
</svg>
