<svg xmlns="http://www.w3.org/2000/svg" xmlns:xlink="http://www.w3.org/1999/xlink" width="286.173" height="264.656" viewBox="0 0 286.173 264.656">
  <defs>
    <clipPath id="clip-path">
      <path id="Path_5033" data-name="Path 5033" d="M611.952,379.695c-4,3.01-53,8.468-55.847,5.825-2.642-2.453-11.738-47.74-7-52.218s51.671-11.523,57.054-6.89S615.952,376.684,611.952,379.695Z" transform="translate(-547.762 -324.895)" fill="none"/>
    </clipPath>
  </defs>
  <g id="Group_3053" data-name="Group 3053" transform="translate(-225.492 -268.393)">
    <path id="Path_5022" data-name="Path 5022" d="M838.084,841.838c-2.3-3.765-1.528-14.724,7.5-17.619,3.665,4.948,1.085,11.05-2.194,17.619" transform="translate(-345.477 -314.026)" fill="#37e1ca"/>
    <path id="Path_5023" data-name="Path 5023" d="M627.618,487.1c4.319.525,2.61,61.339,1.74,66.559s-3.168,72.65-4.909,74.39-56.989,1.305-59.164,0,8.389-66.994,7.519-70.039-17.4-56.554-15.661-60.469S595.426,483.182,627.618,487.1Z" transform="translate(-187.301 -123.074)" fill="#fff"/>
    <path id="Path_5024" data-name="Path 5024" d="M705.675,840.219l14.078,10.658H704.527Z" transform="translate(-270.641 -323.066)" fill="#3b3b56"/>
    <path id="Path_5025" data-name="Path 5025" d="M567.707,842.219l14.046,9.788H566.527Z" transform="translate(-192.675 -324.196)" fill="#3b3b56"/>
    <path id="Path_5026" data-name="Path 5026" d="M629.81,497.719" transform="translate(-228.428 -129.563)" fill="none" stroke="#3b3b56" stroke-linecap="round" stroke-linejoin="round" stroke-width="4"/>
    <path id="Path_5027" data-name="Path 5027" d="M727.177,432.928c2.141.331,4.287.62,6.434.785a38.038,38.038,0,0,0,6.4.021,13.392,13.392,0,0,0,3.02-.619,4.541,4.541,0,0,0,2.272-1.521,2.843,2.843,0,0,0,.466-1.18,7.738,7.738,0,0,0,.1-1.464,19.119,19.119,0,0,0-.345-3.1,44.854,44.854,0,0,0-1.673-6.179c-.7-2.029-1.465-4.043-2.326-6.018a85.545,85.545,0,0,0-6.045-11.416l-.013-.022a.728.728,0,0,1,.519-1.107,9.39,9.39,0,0,0,3.89-1.4,7.884,7.884,0,0,0,2.727-3.053,10.04,10.04,0,0,0,1.029-4.08,16.6,16.6,0,0,0-.4-4.319v-.005a.43.43,0,0,1,.835-.2,16.4,16.4,0,0,1,.63,4.559,11.185,11.185,0,0,1-.981,4.587,8.9,8.9,0,0,1-3.076,3.642,10.8,10.8,0,0,1-4.433,1.726l.505-1.128a75.265,75.265,0,0,1,6.363,11.541,64.91,64.91,0,0,1,2.415,6.149,46.589,46.589,0,0,1,1.687,6.432,20.731,20.731,0,0,1,.346,3.384,9.306,9.306,0,0,1-.145,1.787,4.4,4.4,0,0,1-.775,1.81,6.061,6.061,0,0,1-3.083,2.031,14.812,14.812,0,0,1-3.378.618,34.454,34.454,0,0,1-6.647-.217c-2.186-.254-4.35-.622-6.49-1.081a.486.486,0,0,1,.177-.954Z" transform="translate(-283.122 -67.419)" fill="#3b3b56"/>
    <path id="Path_5028" data-name="Path 5028" d="M706.531,823.708l-.619,4.062-.568,4.066c-.175,1.355-.346,2.709-.478,4.061a31.846,31.846,0,0,0-.192,3.987,4.149,4.149,0,0,0,.107.834.576.576,0,0,0,.036.1c0,.014.007-.014-.08-.089a.53.53,0,0,0-.211-.107l.071.011c.043.011.131.018.2.027.607.06,1.3.082,1.972.1,1.355.026,2.724.018,4.091,0,2.736-.015,5.48-.082,8.219-.132l-.461,1.478q-3.349-2.532-6.664-5.109-1.661-1.283-3.3-2.591c-1.1-.868-2.2-1.734-3.285-2.618a.43.43,0,0,1,.512-.69c1.161.783,2.309,1.585,3.458,2.385s2.3,1.6,3.438,2.411q3.426,2.427,6.822,4.9a.817.817,0,0,1-.44,1.477h-.02c-2.752.124-5.5.189-8.256.233-1.379.01-2.757.013-4.148-.019-.7-.022-1.383-.033-2.141-.124-.1-.015-.186-.021-.311-.049l-.181-.038a1.167,1.167,0,0,1-.437-.225,1.426,1.426,0,0,1-.377-.5,2.231,2.231,0,0,1-.135-.383,5.687,5.687,0,0,1-.147-1.206,28.921,28.921,0,0,1,.291-4.232q.26-2.067.623-4.1c.232-1.36.5-2.714.776-4.063s.564-2.7.889-4.038a.486.486,0,0,1,.952.186Z" transform="translate(-269.777 -313.42)" fill="#3b3b56"/>
    <path id="Path_5029" data-name="Path 5029" d="M565.286,634.04c2.175,1.305,57.424,1.74,59.164,0a6.637,6.637,0,0,0,.622-2.1c-15.352.5-47.744.013-49.345-.948-2.175-1.305,8.389-66.994,7.519-70.039s-16.966-56.554-15.226-60.469c.487-1.092,3.65-1.892,8.657-3.646-10.867,2.662-18.763,4.964-19.533,6.691C555.4,507.447,571.934,560.956,572.8,564S563.111,632.735,565.286,634.04Z" transform="translate(-187.301 -129.067)" fill="#f4f4f4" style="mix-blend-mode: multiply;isolation: isolate"/>
    <path id="Path_5030" data-name="Path 5030" d="M538.449,270.327c3.471-.252,53.735,27.689,54.309,32.44s-73.826,67.195-77.11,65.4S499.5,357.848,500.643,356.4s9.933-1.2,9.293-2.875-18.406-28.62-19.687-31.971S529.327,270.99,538.449,270.327Z" transform="translate(-149.563 -1.092)" fill="#fb9387"/>
    <circle id="Ellipse_405" data-name="Ellipse 405" cx="7.298" cy="7.298" r="7.298" transform="translate(359.106 338.653) rotate(-27.187)" fill="#fff"/>
    <path id="Path_5031" data-name="Path 5031" d="M611.952,379.695c-4,3.01-53,8.468-55.847,5.825-2.642-2.453-11.738-47.74-7-52.218s51.671-11.523,57.054-6.89S615.952,376.684,611.952,379.695Z" transform="translate(-182.074 -31.922)" fill="#fff"/>
    <g id="Group_3049" data-name="Group 3049" transform="translate(365.688 292.973)">
      <g id="Group_3048" data-name="Group 3048" transform="translate(0)" clip-path="url(#clip-path)">
        <path id="Path_5032" data-name="Path 5032" d="M607.13,430.675A14.049,14.049,0,0,0,623.208,444.3c8.587-1.037,14.067-8,13.775-16.562s-5.71-15.547-14.834-14.445A16.9,16.9,0,0,0,607.13,430.675Z" transform="translate(-581.298 -374.773)" fill="#7f7ff8"/>
      </g>
    </g>
    <path id="Path_5034" data-name="Path 5034" d="M659.121,390.911a9.217,9.217,0,0,1,.469,1.672,15.851,15.851,0,0,1,.238,1.695,16.969,16.969,0,0,1,.057,1.712,9.383,9.383,0,0,1-.171,1.734.45.45,0,0,1-.855.081,9.385,9.385,0,0,1-.5-1.67,17.021,17.021,0,0,1-.267-1.692,15.858,15.858,0,0,1-.086-1.709,9.22,9.22,0,0,1,.144-1.731.506.506,0,0,1,.592-.4A.511.511,0,0,1,659.121,390.911Z" transform="translate(-244.361 -69.04)" fill="#3b3b56"/>
    <path id="Path_5035" data-name="Path 5035" d="M644.142,430.364a3.736,3.736,0,0,1-.15.958,4.176,4.176,0,0,1-.361.875,4.365,4.365,0,0,1-1.269,1.433,5.332,5.332,0,0,1-1.7.821,7.464,7.464,0,0,1-1.832.3,6.017,6.017,0,0,1-3.529-1.1,6.767,6.767,0,0,1-1.335-1.209,6.021,6.021,0,0,1-.959-1.5.434.434,0,0,1,.691-.492l.033.03a11.934,11.934,0,0,0,2.424,1.8,6.147,6.147,0,0,0,2.687.77,5.536,5.536,0,0,0,1.419-.128,4.463,4.463,0,0,0,1.3-.49,3.451,3.451,0,0,0,1.015-.9,3.591,3.591,0,0,0,.364-.6,3.551,3.551,0,0,0,.238-.635l.016-.067a.483.483,0,0,1,.952.132Z" transform="translate(-230.214 -91.227)" fill="#3b3b56"/>
    <path id="Path_5036" data-name="Path 5036" d="M619.389,400.5a10.354,10.354,0,0,1-.439-1.787,17.782,17.782,0,0,1-.208-1.8c-.031-.6-.053-1.209-.027-1.817a10.517,10.517,0,0,1,.2-1.834.447.447,0,0,1,.857-.063,10.484,10.484,0,0,1,.466,1.785c.114.6.18,1.2.237,1.8a17.912,17.912,0,0,1,.056,1.815,10.313,10.313,0,0,1-.175,1.832.5.5,0,0,1-.968.07Z" transform="translate(-222.153 -70.343)" fill="#3b3b56"/>
    <path id="Path_5037" data-name="Path 5037" d="M542.589,382.7l.668,4.011.7,4q.711,4,1.5,7.988a.857.857,0,0,1-.676,1.006.835.835,0,0,1-.142.016h-.021a8.366,8.366,0,0,0-2.663.511,5.7,5.7,0,0,0-3.768,6.323,9.075,9.075,0,0,0,.569,2.706,5.746,5.746,0,0,0,1.51,2.2,5.943,5.943,0,0,0,2.391,1.269,8.782,8.782,0,0,0,2.831.246.43.43,0,0,1,.1.853,8.809,8.809,0,0,1-3.182-.005,6.72,6.72,0,0,1-5.02-3.978,10.223,10.223,0,0,1-.8-3.158,9.127,9.127,0,0,1,.236-3.292,6.85,6.85,0,0,1,1.683-2.962,7.58,7.58,0,0,1,2.84-1.827c.264-.087.528-.173.793-.252.268-.061.536-.13.8-.183s.537-.09.813-.119l.844-.05-.839,1.022q-.747-4.022-1.3-8.076c-.175-1.352-.353-2.7-.486-4.063s-.271-2.715-.354-4.078a.486.486,0,0,1,.964-.11Z" transform="translate(-175.734 -64.351)" fill="#3b3b56"/>
    <path id="Path_5038" data-name="Path 5038" d="M562.208,440.8a37.089,37.089,0,0,0,1.432,4.062,3.757,3.757,0,0,0,.454.8,1.566,1.566,0,0,0,.679.244,14.1,14.1,0,0,0,2.079.2c2.866.081,5.784-.055,8.685-.242,5.808-.4,11.62-.919,17.413-1.6,5.8-.636,11.587-1.377,17.328-2.321,1.435-.234,2.866-.486,4.283-.778.708-.147,1.413-.3,2.106-.48a15.8,15.8,0,0,0,2-.625,3.722,3.722,0,0,0,.417-.2.74.74,0,0,0,.247-.2,3.026,3.026,0,0,0,.415-.8,12.333,12.333,0,0,0,.52-2.022c.25-1.406.4-2.851.513-4.3a.43.43,0,0,1,.858.04,36.922,36.922,0,0,1-.3,4.429,13.376,13.376,0,0,1-.475,2.242,4.143,4.143,0,0,1-.555,1.159,2.038,2.038,0,0,1-.571.521,4.84,4.84,0,0,1-.56.3,16.89,16.89,0,0,1-2.161.747c-.717.2-1.435.385-2.154.556-1.437.338-2.878.634-4.32.911-2.884.561-5.785.988-8.685,1.411s-5.806.8-8.717,1.125-5.828.6-8.748.848-5.844.46-8.778.569c-1.467.059-2.935.1-4.407.114s-2.947,0-4.436-.121a15.108,15.108,0,0,1-2.269-.321,4.6,4.6,0,0,1-.606-.191,2.3,2.3,0,0,1-.335-.168,1.4,1.4,0,0,1-.341-.293,4.556,4.556,0,0,1-.616-1.108,34.473,34.473,0,0,1-1.336-4.252.485.485,0,0,1,.932-.27Z" transform="translate(-189.698 -92.517)" fill="#3b3b56"/>
    <path id="Path_5039" data-name="Path 5039" d="M556.106,391.814c2.843,2.645,51.844-2.817,55.845-5.824a2.193,2.193,0,0,0,.627-.978c-15.373,2.742-44.622,5.468-46.8,3.443-2.645-2.454-11.738-47.738-6.995-52.22q.106-.1.239-.2c-5.025,1.2-8.748,2.459-9.912,3.559C544.368,344.075,553.461,389.359,556.106,391.814Z" transform="translate(-182.075 -38.216)" fill="#f4f4f4" style="mix-blend-mode: multiply;isolation: isolate"/>
    <path id="Path_5040" data-name="Path 5040" d="M531.787,346.6c7.878-.075,11.519-6.211,16.65-7.269s9.956,6.247,16.866,5.412,10.342-8.7,10.342-8.7c1.229,2.919,7.588,4.78,11.907,4.258s4.5-6.24,8.824-6.762,6.084,3.209,9.107,2.844c0,0,.475-10.574-6.577-14.543s-58.5,1.807-62.467,8.859S531.787,346.6,531.787,346.6Z" transform="translate(-173.048 -29.464)" fill="#fb9387"/>
    <path id="Path_5041" data-name="Path 5041" d="M565.967,327.2c.536.812,45.021-4.561,45.348-5.477s.029-7.015-.887-7.342-44.209,4.024-45.349,5.477S565.43,326.384,565.967,327.2Z" transform="translate(-191.621 -25.97)" fill="#3b3b56"/>
    <path id="Path_5042" data-name="Path 5042" d="M605,352.834a4.457,4.457,0,0,1-2.373-.361,17,17,0,0,1-1.959-1.055,7.564,7.564,0,0,0-3.74-1.3,4.266,4.266,0,0,0-3.4,1.3c-.934.906-1.617,2.174-2.606,3.348a10.058,10.058,0,0,1-.806.859,6.311,6.311,0,0,1-1,.727,5.677,5.677,0,0,1-1.151.516,8.033,8.033,0,0,1-1.205.217,16.184,16.184,0,0,1-4.514-.211,17.993,17.993,0,0,1-4.318-1.333,10.419,10.419,0,0,1-2-1.224,5.385,5.385,0,0,1-1.608-1.977l1.557.01a19.284,19.284,0,0,1-1.664,2.88,18.079,18.079,0,0,1-2.109,2.549,12.815,12.815,0,0,1-5.725,3.47,7.928,7.928,0,0,1-.839.176c-.283.045-.561.118-.848.137a10.029,10.029,0,0,1-1.722.024,12.013,12.013,0,0,1-3.3-.74,37.3,37.3,0,0,1-5.717-3,21.365,21.365,0,0,0-2.7-1.388,6.056,6.056,0,0,0-2.743-.506,8.073,8.073,0,0,0-1.379.3l-.688.258c-.23.085-.452.21-.678.312a23.605,23.605,0,0,0-2.642,1.57,36.994,36.994,0,0,1-5.52,3.265A15.139,15.139,0,0,1,531.248,363a.43.43,0,0,1-.008-.859,14.781,14.781,0,0,0,5.884-1.5,39.813,39.813,0,0,0,5.248-3.346,24.859,24.859,0,0,1,2.755-1.719c.25-.121.489-.261.75-.365l.786-.315a9.353,9.353,0,0,1,1.7-.407,7.529,7.529,0,0,1,3.437.531,20.277,20.277,0,0,1,2.947,1.441,36.181,36.181,0,0,0,5.486,2.838,10.362,10.362,0,0,0,2.852.617,8.329,8.329,0,0,0,1.436-.032c.239-.017.474-.085.71-.124a6.242,6.242,0,0,0,.706-.152,11.485,11.485,0,0,0,4.945-3.05,16.371,16.371,0,0,0,1.93-2.307,17.773,17.773,0,0,0,1.517-2.579l.006-.012a.85.85,0,0,1,1.552.022,3.774,3.774,0,0,0,1.1,1.324,8.753,8.753,0,0,0,1.665,1.027,16.367,16.367,0,0,0,3.9,1.223,15.837,15.837,0,0,0,4.072.253,6.626,6.626,0,0,0,.918-.141,4.129,4.129,0,0,0,.817-.351,4.767,4.767,0,0,0,.753-.524,8.632,8.632,0,0,0,.681-.7c.894-1,1.612-2.3,2.763-3.39a5.458,5.458,0,0,1,2.057-1.291c.1-.034.194-.074.293-.1l.3-.059c.2-.036.406-.083.6-.105a7.784,7.784,0,0,1,1.183-.015,7.369,7.369,0,0,1,1.174.167,8.59,8.59,0,0,1,1.113.37,13.125,13.125,0,0,1,1.985,1.069c1.22.772,2.368,1.574,3.621,1.434a.485.485,0,0,1,.126.962Z" transform="translate(-172.505 -45.433)" fill="#3b3b56"/>
    <path id="Path_5043" data-name="Path 5043" d="M583.157,310.9c1.325-1.3,2.634-2.611,3.908-3.951.637-.67,1.265-1.348,1.87-2.039a24.653,24.653,0,0,0,1.7-2.122,3.861,3.861,0,0,0,.556-1.021.6.6,0,0,0-.1-.26,3.107,3.107,0,0,0-.337-.474,14.98,14.98,0,0,0-1.941-1.828c-1.413-1.155-2.923-2.224-4.447-3.267-6.125-4.149-12.515-7.947-18.95-11.641q-4.832-2.764-9.727-5.416c-3.258-1.775-6.536-3.515-9.844-5.178-1.655-.829-3.318-1.642-4.994-2.392-.836-.372-1.684-.735-2.509-1.021-.205-.068-.4-.129-.59-.175l-.119-.023a.322.322,0,0,0-.084-.013c-.019.005.006-.013-.05,0l-.13.02a4.724,4.724,0,0,0-1.124.334,23.192,23.192,0,0,0-4.529,2.839c-1.451,1.111-2.859,2.3-4.239,3.521-2.759,2.449-5.4,5.042-8.016,7.667s-5.154,5.326-7.66,8.058c-5.006,5.47-9.864,11.087-14.47,16.889-1.149,1.452-2.279,2.918-3.371,4.406s-2.168,2.991-3.092,4.539c-.222.386-.447.778-.618,1.16a2.835,2.835,0,0,0-.12.281,1.718,1.718,0,0,0-.091.26l-.035.118a.316.316,0,0,1-.007.067.241.241,0,0,1-.006.023.074.074,0,0,0,0-.039.077.077,0,0,0-.021-.034l.03.065c.09.189.163.371.264.569l.316.6c.21.4.447.8.669,1.2.919,1.6,1.883,3.184,2.851,4.765q2.92,4.738,5.939,9.424c2.01,3.123,4.015,6.251,6.066,9.344l.006.008.02.033,3.271,5.981,0,.007a.509.509,0,0,1-.2.691.529.529,0,0,1-.1.041l-9.317,2.8a.429.429,0,0,1-.254-.82l9.268-2.954-.3.739-3.373-5.924.025.041q-6.321-9.209-12.266-18.657c-.988-1.579-1.972-3.161-2.922-4.776-.233-.41-.474-.807-.7-1.228l-.341-.631c-.113-.215-.219-.463-.328-.693-.013-.032-.026-.053-.041-.094a2.091,2.091,0,0,1-.048-.207c-.013-.07-.022-.141-.027-.211a.968.968,0,0,1,.007-.15c.009-.093.02-.186.033-.279l.057-.217a2.964,2.964,0,0,1,.133-.4c.047-.126.1-.251.15-.362.206-.469.442-.885.678-1.307.965-1.654,2.04-3.186,3.135-4.706s2.236-3,3.389-4.464c4.619-5.862,9.474-11.516,14.485-17.033a213.952,213.952,0,0,1,15.783-15.874c1.406-1.238,2.844-2.447,4.347-3.592a24.625,24.625,0,0,1,4.913-3.044,6.32,6.32,0,0,1,1.544-.444l.215-.029a1.764,1.764,0,0,1,.3,0,1.557,1.557,0,0,1,.26.033c.074.014.154.027.223.044.266.066.51.143.746.222.93.325,1.791.7,2.652,1.085,1.716.773,3.391,1.6,5.057,2.437,6.656,3.373,13.161,6.994,19.594,10.746q4.824,2.816,9.576,5.756c3.161,1.973,6.307,3.972,9.36,6.13,1.526,1.081,3.037,2.186,4.483,3.406a16.01,16.01,0,0,1,2.076,2.028,4.167,4.167,0,0,1,.454.671,1.558,1.558,0,0,1,.194,1.069,4.59,4.59,0,0,1-.756,1.423,25.614,25.614,0,0,1-1.819,2.2c-.63.7-1.277,1.374-1.931,2.04-1.309,1.333-2.646,2.631-4,3.913a.485.485,0,0,1-.673-.7Z" transform="translate(-148.586 0)" fill="#3b3b56"/>
    <g id="Group_3050" data-name="Group 3050" transform="translate(393.653 311.227)">
      <path id="Path_5044" data-name="Path 5044" d="M668.908,388.863l-43.577,3.03c-15.029,1.045-16.418-18.921-1.389-19.966l43.577-3.03C678.864,367.729,680.294,387.672,668.908,388.863Z" transform="translate(-612.777 -367.981)" fill="#5b5b99"/>
      <ellipse id="Ellipse_406" data-name="Ellipse 406" cx="6.241" cy="7.888" rx="6.241" ry="7.888" transform="translate(48.193 3.596) rotate(-3.981)" fill="#efefef"/>
      <ellipse id="Ellipse_407" data-name="Ellipse 407" cx="6.241" cy="7.888" rx="6.241" ry="7.888" transform="translate(31.784 4.737) rotate(-3.981)" fill="#efefef"/>
      <path id="Path_5045" data-name="Path 5045" d="M624.566,390.284l18.055-1.451,18.052-1.363,4.512-.341,2.256-.162.564-.04c.189-.013.34-.052.512-.076l.5-.08.493-.139a7.768,7.768,0,0,0,5.279-5.775,11.669,11.669,0,0,0,.341-4.188A11.13,11.13,0,0,0,674,372.644a7.609,7.609,0,0,0-2.653-3.023,6.511,6.511,0,0,0-1.814-.8c-.328-.06-.653-.144-.987-.174a7.311,7.311,0,0,0-1.018-.035l-36.1,2.385-4.521.285-2.26.142c-.755.047-1.515.09-2.219.17a12.439,12.439,0,0,0-4.1,1.171,9.615,9.615,0,0,0-3.253,2.652,9.3,9.3,0,0,0-.749,10.04,9.28,9.28,0,0,0,4.768,4.168l.008,0a.43.43,0,0,1-.314.8,10.605,10.605,0,0,1-3.941-2.558,10.477,10.477,0,0,1-1.424-1.906,10.433,10.433,0,0,1,.635-11.318,10.83,10.83,0,0,1,3.661-3.075,13.813,13.813,0,0,1,4.54-1.366c.795-.1,1.541-.15,2.292-.207l2.257-.172,4.514-.344c6.017-.471,12.039-.882,18.058-1.322l9.029-.65,4.515-.325,2.257-.163c.762-.052,1.474-.116,2.317-.15a8.711,8.711,0,0,1,1.242.048,12.137,12.137,0,0,1,1.239.224,8.249,8.249,0,0,1,2.3,1.028,9.324,9.324,0,0,1,3.245,3.7,12.82,12.82,0,0,1,1.3,4.642,13.341,13.341,0,0,1-.408,4.785,11.987,11.987,0,0,1-.872,2.274,10.1,10.1,0,0,1-1.4,2.03,8.5,8.5,0,0,1-4.17,2.615l-.6.164-.616.1c-.2.028-.42.074-.607.085l-.565.039-2.261.151-4.523.288-18.084,1.149-18.082,1.062a.485.485,0,0,1-.067-.968Z" transform="translate(-612.045 -366.856)" fill="#3b3b56"/>
      <path id="Path_5046" data-name="Path 5046" d="M679.813,377.581a11.859,11.859,0,0,0-1.4,3.989,15.832,15.832,0,0,0-.138,4.256,14.732,14.732,0,0,0,.982,4.122,9.088,9.088,0,0,0,2.357,3.441l.011.01a.431.431,0,0,1-.485.706,8.023,8.023,0,0,1-3.269-3.513A13.124,13.124,0,0,1,676.54,386a13.818,13.818,0,0,1,.317-4.757,9.567,9.567,0,0,1,2.186-4.251.488.488,0,0,1,.776.58Z" transform="translate(-648.44 -372.494)" fill="#3b3b56"/>
      <path id="Path_5047" data-name="Path 5047" d="M736.088,381.119a9.782,9.782,0,0,1,0,2.17,10.673,10.673,0,0,1-.176,1.081,10.122,10.122,0,0,1-.315,1.056,7.888,7.888,0,0,1-1.034,1.966A6.575,6.575,0,0,1,732.967,389a5.692,5.692,0,0,1-2.105.954,5.765,5.765,0,0,1-4.464-.882,7.128,7.128,0,0,1-1.684-1.53,9.927,9.927,0,0,1-1.794-8.422,10.159,10.159,0,0,1,.315-1.062,9.5,9.5,0,0,1,.452-1.014,7.409,7.409,0,0,1,1.281-1.814,5.791,5.791,0,0,1,3.959-1.846.322.322,0,0,1,.055.641l-.011,0a5.165,5.165,0,0,0-3.3,1.849,6.569,6.569,0,0,0-1.045,1.632,8.257,8.257,0,0,0-.36.908,9.171,9.171,0,0,0-.237.949,9.066,9.066,0,0,0,1.693,7.352,5.852,5.852,0,0,0,1.385,1.272,4.8,4.8,0,0,0,1.684.726,4.647,4.647,0,0,0,1.811.022,4.9,4.9,0,0,0,1.69-.711,5.423,5.423,0,0,0,1.378-1.294,6.984,6.984,0,0,0,.968-1.68,9.383,9.383,0,0,0,.719-3.884v-.019a.364.364,0,0,1,.726-.031Z" transform="translate(-674.531 -370.545)" fill="#3b3b56"/>
      <path id="Path_5048" data-name="Path 5048" d="M698.367,383.742a9.782,9.782,0,0,1,0,2.17,10.779,10.779,0,0,1-.176,1.081,10.35,10.35,0,0,1-.314,1.056,7.881,7.881,0,0,1-1.034,1.966,6.542,6.542,0,0,1-1.591,1.609,5.687,5.687,0,0,1-2.105.955,5.763,5.763,0,0,1-4.464-.882,7.137,7.137,0,0,1-1.684-1.53,9.927,9.927,0,0,1-1.794-8.422,10.3,10.3,0,0,1,.315-1.062,9.417,9.417,0,0,1,.452-1.014,7.411,7.411,0,0,1,1.282-1.814,5.79,5.79,0,0,1,3.959-1.846.322.322,0,0,1,.055.641l-.011,0a5.165,5.165,0,0,0-3.3,1.849,6.57,6.57,0,0,0-1.046,1.632,8.371,8.371,0,0,0-.359.907,9.285,9.285,0,0,0,1.455,8.3,5.868,5.868,0,0,0,1.386,1.272,4.8,4.8,0,0,0,1.683.726,4.647,4.647,0,0,0,1.811.022,4.892,4.892,0,0,0,1.69-.711,5.418,5.418,0,0,0,1.379-1.294,6.972,6.972,0,0,0,.968-1.68,9.381,9.381,0,0,0,.719-3.884v-.019a.364.364,0,0,1,.726-.031Z" transform="translate(-653.22 -372.027)" fill="#3b3b56"/>
      <path id="Path_5049" data-name="Path 5049" d="M705,387.087a7.57,7.57,0,0,1,.432,1.479,12.915,12.915,0,0,1,.216,3.009,7.706,7.706,0,0,1-.214,1.531.455.455,0,0,1-.856.07,7.684,7.684,0,0,1-.458-1.476,12.8,12.8,0,0,1-.225-1.5,12.566,12.566,0,0,1-.048-1.51,7.577,7.577,0,0,1,.187-1.529.512.512,0,0,1,.968-.079Z" transform="translate(-663.907 -378.111)" fill="#3b3b56"/>
      <path id="Path_5050" data-name="Path 5050" d="M742.751,384.462a7.542,7.542,0,0,1,.432,1.478,12.551,12.551,0,0,1,.2,1.5,12.709,12.709,0,0,1,.02,1.512,7.723,7.723,0,0,1-.214,1.531.455.455,0,0,1-.856.07,7.676,7.676,0,0,1-.459-1.476,12.69,12.69,0,0,1-.225-1.5,12.541,12.541,0,0,1-.048-1.51,7.538,7.538,0,0,1,.187-1.529.511.511,0,0,1,.967-.079Z" transform="translate(-685.236 -376.627)" fill="#3b3b56"/>
    </g>
    <path id="Path_5051" data-name="Path 5051" d="M544.12,628.073q11.516.068,23.035,0c7.676-.061,15.358-.134,23.013-.455,1.91-.09,3.826-.186,5.7-.377.467-.05.934-.107,1.374-.188a4.133,4.133,0,0,0,.583-.142c.034-.013.056-.023.056-.023-.026.014,0,0-.063.048a.443.443,0,0,0-.082.109c-.011.032.033-.1.05-.185.18-.841.278-1.826.379-2.761.374-3.8.62-7.633.868-11.46.481-7.659.885-15.329,1.282-23l1.177-23.013c.209-3.838.4-7.668.675-11.519l.122-1.44c.037-.462.064-.939.089-1.415l.13-2.866.2-5.749q.339-11.506.431-23.019c.049-7.671.057-15.352-.251-23-.084-1.908-.19-3.817-.377-5.7a24.635,24.635,0,0,0-.4-2.741,5.047,5.047,0,0,0-.166-.588,1.261,1.261,0,0,0-.084-.191c-.011-.023-.013-.017,0-.008a.264.264,0,0,0,.068.059,2.852,2.852,0,0,0-.469-.167c-.205-.058-.423-.111-.646-.16a52.948,52.948,0,0,0-5.6-.773c-1.9-.178-3.8-.3-5.706-.394a140,140,0,0,0-22.863.744,115.267,115.267,0,0,0-32.817,9.524c-.841.41-1.737.823-2.475,1.276q-1.2.748-2.34,1.581a49.463,49.463,0,0,0-4.383,3.591,56.514,56.514,0,0,0-7.542,8.48,41.593,41.593,0,0,0-3,4.792,24.275,24.275,0,0,0-1.168,2.54,11.577,11.577,0,0,0-.711,2.608,5.455,5.455,0,0,0-.041.634,3.139,3.139,0,0,0,.044.57,3.82,3.82,0,0,0,.517,1.075,18.871,18.871,0,0,0,1.708,2.183c1.253,1.41,2.611,2.753,3.991,4.073,2.767,2.635,5.648,5.168,8.537,7.69l8.731,7.513c1.456,1.255,2.91,2.511,4.343,3.8.715.65,1.427,1.3,2.115,2.01.172.179.342.362.51.566a3.654,3.654,0,0,1,.253.342,1.472,1.472,0,0,1,.133.259,1.643,1.643,0,0,1,.07.258,6.806,6.806,0,0,1,.045,1.572,17.423,17.423,0,0,1-.459,2.933,11.222,11.222,0,0,1-1.052,2.824,4,4,0,0,1-1.054,1.257,2.108,2.108,0,0,1-.857.377,2,2,0,0,1-.488.022c-.135-.016-.266-.027-.395-.052a8.93,8.93,0,0,1-2.839-1.076,11.693,11.693,0,0,1-2.411-1.784,4.989,4.989,0,0,1-.522-.6,2.145,2.145,0,0,1-.232-.4.96.96,0,0,1-.048-.135.694.694,0,0,1-.034-.168.666.666,0,0,1,.01-.24.837.837,0,0,1,.074-.2,1.61,1.61,0,0,1,.321-.4c.1-.1.207-.181.31-.261.207-.158.414-.3.623-.432a49.713,49.713,0,0,1,5.155-2.7.43.43,0,0,1,.37.775l-.008,0a48.969,48.969,0,0,0-5.022,2.685c-.194.127-.383.258-.557.393a1.787,1.787,0,0,0-.376.361.1.1,0,0,0,.01-.029c.008-.04.006-.071.008-.061,0-.009,0,0,0,.007a.115.115,0,0,0,.013.034,1.315,1.315,0,0,0,.132.218,4.2,4.2,0,0,0,.427.48,10.787,10.787,0,0,0,2.222,1.611,8.02,8.02,0,0,0,2.527.942c.107.02.215.027.319.039a1.014,1.014,0,0,0,.23-.012,1.112,1.112,0,0,0,.446-.207,3.041,3.041,0,0,0,.765-.949,10.255,10.255,0,0,0,.924-2.568,16.387,16.387,0,0,0,.408-2.755,5.958,5.958,0,0,0-.038-1.3.572.572,0,0,0-.023-.089l-.034-.059a2.618,2.618,0,0,0-.178-.234c-.139-.165-.3-.334-.458-.5-.654-.663-1.366-1.3-2.077-1.939-1.429-1.268-2.891-2.51-4.355-3.75l-8.8-7.442c-2.922-2.5-5.819-5.032-8.629-7.679-1.4-1.328-2.784-2.68-4.09-4.135a20.1,20.1,0,0,1-1.847-2.343,5,5,0,0,1-.708-1.517,4.346,4.346,0,0,1-.081-.862,6.741,6.741,0,0,1,.045-.8,12.872,12.872,0,0,1,.773-2.944,25.446,25.446,0,0,1,1.218-2.7,42.843,42.843,0,0,1,3.074-4.985,58.01,58.01,0,0,1,7.684-8.765,50.415,50.415,0,0,1,4.5-3.737q1.184-.864,2.428-1.65c.9-.551,1.756-.937,2.638-1.371a116.873,116.873,0,0,1,33.3-9.73,141.7,141.7,0,0,1,23.144-.8c1.93.087,3.859.212,5.788.389a54.219,54.219,0,0,1,5.808.794c.246.053.5.113.752.184a3.965,3.965,0,0,1,.875.34,1.465,1.465,0,0,1,.348.284,1.832,1.832,0,0,1,.2.288,2.966,2.966,0,0,1,.213.464,6.621,6.621,0,0,1,.228.8,25.482,25.482,0,0,1,.439,2.956c.191,1.942.294,3.87.377,5.8.3,7.708.282,15.395.224,23.083s-.225,15.371-.461,23.056l-.205,5.766-.134,2.888c-.027.484-.054.965-.094,1.46l-.123,1.43c-.274,3.81-.474,7.652-.688,11.483l-1.258,23.008c-.432,7.67-.87,15.34-1.386,23.01-.266,3.836-.528,7.667-.924,11.511a29.006,29.006,0,0,1-.422,2.941,2.277,2.277,0,0,1-.169.5.933.933,0,0,1-.188.253,1.072,1.072,0,0,1-.207.155l-.147.074-.125.05a5.248,5.248,0,0,1-.814.2c-.506.09-.992.146-1.48.2-1.944.191-3.867.275-5.793.347-7.7.259-15.379.269-23.064.268s-15.366-.078-23.049-.186a.485.485,0,0,1,.011-.971Z" transform="translate(-161.182 -122.438)" fill="#3b3b56"/>
    <path id="Path_5052" data-name="Path 5052" d="M307.194,682.768c.554.472,17.949,19.085,18.9,18.223a30.462,30.462,0,0,0,2.592-3.047L307.9,681.937Z" transform="translate(-46.159 -233.641)" fill="#37e1ca"/>
    <ellipse id="Ellipse_408" data-name="Ellipse 408" cx="13.638" cy="15.394" rx="13.638" ry="15.394" transform="translate(231.019 440.081) rotate(-49.648)" fill="#37e1ca"/>
    <ellipse id="Ellipse_409" data-name="Ellipse 409" cx="9.636" cy="12.018" rx="9.636" ry="12.018" transform="matrix(0.648, -0.762, 0.762, 0.648, 236.182, 439.216)" fill="#efefef"/>
    <path id="Path_5053" data-name="Path 5053" d="M558.857,527.243c3.663,11.913,7.311,23.828,10.747,35.813.861,3,1.712,5.995,2.534,9.006.411,1.506.814,3.014,1.2,4.534.19.761.376,1.523.542,2.3.084.391.161.78.218,1.218l.02.17.011.2c0,.131-.009.224-.013.337-.011.221-.025.435-.045.624-.3,3.137-.685,6.213-1.051,9.314l-1.137,9.279-2.338,18.546-2.432,18.532-2.455,18.529-2.532,18.519-.682-.778,7.613.042,7.613.069-.331,1.051-12.966-9.257a.43.43,0,0,1,.492-.7L577,673.6a.576.576,0,0,1-.318,1.052h-.014l-7.613.069-7.613.041a.685.685,0,0,1-.689-.681.6.6,0,0,1,0-.085v-.012l2.33-18.544,2.376-18.537,4.738-37.075,1.162-9.269c.372-3.085.77-6.191,1.071-9.255.021-.2.032-.372.042-.54,0-.081.016-.183.013-.246l0-.089-.014-.12c-.043-.334-.114-.711-.19-1.081-.152-.745-.328-1.5-.509-2.25-.363-1.5-.751-3.009-1.147-4.512-.792-3.006-1.615-6.008-2.447-9.008q-5.045-17.985-10.248-35.938a.485.485,0,0,1,.93-.279Z" transform="translate(-187.806 -146.05)" fill="#3b3b56"/>
    <path id="Path_5054" data-name="Path 5054" d="M614.2,497.553c1.937,1.306,3.844,2.653,5.767,3.98s3.822,2.684,5.722,4.042l-1.06.12,5.609-6.566a.843.843,0,0,1,1.12-.146l.013.009,1.857,1.293,1.851,1.3c1.226.881,2.457,1.752,3.671,2.649l-1.269.471q.581-2.166,1.216-4.318c.208-.718.427-1.434.653-2.148s.442-1.43.685-2.14a.431.431,0,0,1,.833.208c-.12.74-.263,1.475-.4,2.21s-.28,1.471-.435,2.2q-.454,2.2-.959,4.382a.81.81,0,0,1-.973.606.8.8,0,0,1-.267-.115l-.029-.02c-1.251-.843-2.485-1.712-3.725-2.572l-1.847-1.308-1.841-1.316,1.132-.138-5.7,6.485-.009.01a.782.782,0,0,1-1.051.11q-2.805-2.1-5.589-4.224c-1.848-1.429-3.71-2.837-5.543-4.286a.486.486,0,0,1,.573-.784Z" transform="translate(-219.183 -128.483)" fill="#3b3b56"/>
    <path id="Path_5055" data-name="Path 5055" d="M434.682,635.32c2.371,2.731,10.1,39.912,9,41.423-1.667,2.29-26.984,5.417-28.789,3.446s-8.077-34.178-6.376-37.023S431.848,632.057,434.682,635.32Z" transform="translate(-103.243 -206.88)" fill="#37e1ca"/>
    <path id="Path_5056" data-name="Path 5056" d="M432.958,635.468s-4,9.19-5.625,9.425-6.376-2.976-7.112-2.675-2.542,5.339-3.646,5.791-3.028-6.173-2.463-6.5C416.692,639.991,429.826,634.6,432.958,635.468Z" transform="translate(-106.508 -207.335)" fill="#fff"/>
    <path id="Path_5057" data-name="Path 5057" d="M494.935,844.5s-9.5,8.569-8.836,8.9,12.512,0,12.512,0Z" transform="translate(-147.217 -325.482)" fill="#3b3b56"/>
    <path id="Path_5058" data-name="Path 5058" d="M389.525,845.5S378,853.573,378.674,853.91s13.872,0,13.872,0Z" transform="translate(-86.528 -326.047)" fill="#3b3b56"/>
    <path id="Path_5059" data-name="Path 5059" d="M315.16,696.074a.922.922,0,0,1-.661-.474,1.425,1.425,0,0,1-.161-.626,3.465,3.465,0,0,1,.1-.941,9.468,9.468,0,0,1,.536-1.577c.216-.5.446-.979.7-1.446s.511-.925.809-1.384l.857,1.326c-.606.1-1.2.188-1.807.256s-1.208.134-1.817.174-1.222.063-1.843.066c-.311-.006-.624-.016-.946-.042a4.207,4.207,0,0,1-1.067-.206l.588-.923,2.566,2.931a.43.43,0,0,1-.626.588l-2.763-2.746a.549.549,0,0,1,.436-.937l.152.014a4.806,4.806,0,0,0,.722-.023c.279-.021.567-.056.856-.1.579-.066,1.163-.164,1.75-.243l3.527-.519a.867.867,0,0,1,.857,1.325l-.809,1.27c-.26.432-.527.858-.768,1.292a13.371,13.371,0,0,0-.658,1.289,3.391,3.391,0,0,0-.195.58c-.018.077-.015.136-.033.133s-.091-.036-.077,0l.184.414a.38.38,0,0,1-.416.528Z" transform="translate(-47.444 -237.765)" fill="#3b3b56"/>
    <path id="Path_5060" data-name="Path 5060" d="M371.215,671.633l-.14,1.079-.078.54-.12.534c-.083.355-.155.714-.249,1.069l-.332,1.052a15.174,15.174,0,0,1-2.08,3.928,14.141,14.141,0,0,1-3.243,3.091,17.176,17.176,0,0,1-3.977,2,25.221,25.221,0,0,1-8.625,1.275,36.932,36.932,0,0,1-8.523-1.143.43.43,0,0,1,.156-.845h0c1.4.168,2.785.33,4.181.394,1.392.085,2.784.11,4.168.064a26.788,26.788,0,0,0,8.062-1.387,14.636,14.636,0,0,0,6.55-4.43,15.274,15.274,0,0,0,2.062-3.445,21.183,21.183,0,0,0,1.225-3.921l.009-.036a.485.485,0,0,1,.951.178Z" transform="translate(-66.684 -227.51)" fill="#3b3b56"/>
    <path id="Path_5061" data-name="Path 5061" d="M388.149,788.1l-4.955,3.994-4.971,3.973-.428-1.25,13.535-.107-.765,1.055c-1.55-4.67-3.032-9.357-4.488-14.057q-1.1-3.523-2.1-7.077c-.671-2.37-1.325-4.745-1.908-7.154-.284-1.212-.568-2.407-.741-3.7a4.79,4.79,0,0,1-.037-1.11,4.318,4.318,0,0,1,.318-1.09,14.116,14.116,0,0,1,.9-1.728,72.881,72.881,0,0,1,4.246-6.122q2.228-2.957,4.581-5.8c1.563-1.9,3.139-3.789,4.764-5.643a.43.43,0,0,1,.659.55c-3.034,3.853-6.02,7.753-8.891,11.714a71.824,71.824,0,0,0-4.013,6.078,14.438,14.438,0,0,0-.771,1.555,2.959,2.959,0,0,0-.2.672,3.508,3.508,0,0,0,.043.726c.161,1.139.451,2.337.74,3.513,1.191,4.729,2.666,9.417,4.059,14.119,1.415,4.7,2.892,9.383,4.374,14.059l0,.013a.8.8,0,0,1-.521,1,.82.82,0,0,1-.248.037l-13.535-.106h-.016a.7.7,0,0,1-.412-1.251l5.086-3.825,5.1-3.8a.485.485,0,0,1,.595.767Z" transform="translate(-85.649 -267.647)" fill="#3b3b56"/>
    <path id="Path_5062" data-name="Path 5062" d="M447.338,699.391c1.121,1.69,2.843,12.326,1.743,13.838-1.667,2.29-26.984,5.417-28.789,3.446s-1.813-5.9-2.5-8.625S446.216,697.7,447.338,699.391Z" transform="translate(-108.637 -243.365)" fill="#fff"/>
    <path id="Path_5063" data-name="Path 5063" d="M424.314,680.4c3.475,1.508,26.856-1.463,28.458-3.659,1.1-1.511-6.634-38.693-9-41.424-1.148-1.321-5.375-.751-10.116.582a2.391,2.391,0,0,1,1.488.666c2.37,2.731,10.019,38.467,8.916,39.977C443,678,432.371,679.8,424.314,680.4Z" transform="translate(-112.329 -206.881)" fill="#f4f4f4" style="mix-blend-mode: multiply;isolation: isolate"/>
    <ellipse id="Ellipse_410" data-name="Ellipse 410" cx="1.447" cy="1.136" rx="1.447" ry="1.136" transform="translate(314.029 442.569) rotate(-82.699)" fill="#fff"/>
    <ellipse id="Ellipse_411" data-name="Ellipse 411" cx="1.447" cy="1.136" rx="1.447" ry="1.136" transform="translate(314.874 447.762) rotate(-82.699)" fill="#fff"/>
    <path id="Path_5064" data-name="Path 5064" d="M441.609,676.227a9.427,9.427,0,0,1-1.055.289l-1.014.219c-.674.137-1.349.265-2.023.388q-2.023.368-4.052.687c-2.7.429-5.417.813-8.14,1.135a70.711,70.711,0,0,1-8.254.6,9.986,9.986,0,0,1-2.207-.216,2.094,2.094,0,0,1-.72-.321,2.127,2.127,0,0,1-.5-.6,7.126,7.126,0,0,1-.489-1.035,34.408,34.408,0,0,1-1.187-4.022c-.649-2.682-1.169-5.376-1.65-8.076s-.908-5.407-1.275-8.124-.7-5.438-.953-8.175c-.126-1.369-.234-2.741-.3-4.125-.031-.693-.052-1.388-.047-2.094,0-.354.013-.709.04-1.077a6.026,6.026,0,0,1,.184-1.188.754.754,0,0,1,.086-.2,3.111,3.111,0,0,1,.579-.668,7,7,0,0,1,.563-.45c.375-.271.753-.51,1.134-.733.762-.444,1.535-.836,2.316-1.2,1.563-.73,3.158-1.361,4.772-1.932a67.66,67.66,0,0,1,9.9-2.652,63.1,63.1,0,0,1,10.2-1.117,46.884,46.884,0,0,1,10.257.817,35.716,35.716,0,0,1,4.993,1.353c.406.149.812.3,1.213.458s.8.321,1.217.524a9.029,9.029,0,0,1,2.274,1.554,8.11,8.11,0,0,1,1.659,2.224,10.168,10.168,0,0,1,.883,2.575,19.2,19.2,0,0,1,.235,5.244,70.263,70.263,0,0,1-1.76,10.074c-.759,3.3-1.6,6.567-2.351,9.851l0,.017a.577.577,0,0,1-1.128-.015,25.515,25.515,0,0,1-.4-2.869,22.121,22.121,0,0,1-.059-2.894,12.861,12.861,0,0,1,.452-2.9,6.237,6.237,0,0,1,1.462-2.661l.391.8c-.427.041-.834.061-1.253.07s-.835,0-1.259-.032a6.293,6.293,0,0,1-1.29-.216,2.587,2.587,0,0,1-.669-.294,1.284,1.284,0,0,1-.556-.707l-.012-.042a.431.431,0,0,1,.828-.237.415.415,0,0,1,.01.044c.021.122.3.306.644.391a5.479,5.479,0,0,0,1.107.162c.385.023.778.022,1.172.008s.793-.043,1.172-.086a.473.473,0,0,1,.4.792l-.008.009a5.286,5.286,0,0,0-1.176,2.269,11.868,11.868,0,0,0-.362,2.675,21.071,21.071,0,0,0,.109,2.749,24.563,24.563,0,0,0,.426,2.717l-1.132,0c.7-3.312,1.469-6.605,2.2-9.891a69.08,69.08,0,0,0,1.629-9.882,17.828,17.828,0,0,0-.257-4.842,7.428,7.428,0,0,0-2.146-4,7.51,7.51,0,0,0-1.906-1.271c-.344-.166-.729-.312-1.115-.463s-.773-.284-1.162-.421a35.9,35.9,0,0,0-4.784-1.263,45.308,45.308,0,0,0-9.9-.737,61.4,61.4,0,0,0-9.917,1.138,71.72,71.72,0,0,0-9.65,2.6c-1.571.55-3.122,1.158-4.62,1.852-.748.348-1.483.719-2.182,1.123-.348.2-.686.415-1,.637-.156.11-.3.225-.428.337a1.815,1.815,0,0,0-.259.275l.086-.195a4.57,4.57,0,0,0-.123.834c-.024.314-.033.642-.038.97-.007.659.01,1.33.039,2,.058,1.345.16,2.7.281,4.049.243,2.7.562,5.408.921,8.106.735,5.39,1.548,10.794,2.748,16.074a33.2,33.2,0,0,0,1.088,3.846,5.787,5.787,0,0,0,.372.821c.2.278.046.158.354.276a8.94,8.94,0,0,0,1.862.188c1.326.026,2.681-.045,4.031-.131s2.707-.2,4.061-.337c2.708-.269,5.414-.6,8.112-.975q2.024-.283,4.04-.606c.672-.109,1.342-.223,2.008-.346l.994-.194a9.4,9.4,0,0,0,.925-.23l.025-.009a.485.485,0,0,1,.319.916Z" transform="translate(-102.967 -205.162)" fill="#3b3b56"/>
    <path id="Path_5065" data-name="Path 5065" d="M466.47,648.6a220.258,220.258,0,0,1,6.827,25.5,64.491,64.491,0,0,1,.95,6.6,24.724,24.724,0,0,1,.052,3.413,16.437,16.437,0,0,1-.65,3.4,31.192,31.192,0,0,1-2.7,6.19c-1.085,1.953-2.3,3.818-3.551,5.638s-2.571,3.592-3.821,5.366c-.312.442-.619.886-.9,1.328A6.986,6.986,0,0,0,462,707.29c-.027.073-.037.157-.033.105a.32.32,0,0,0-.01-.069c-.01-.027,0-.022-.009-.033s.01.018.014.028.012.028.028.053c.1.174.257.393.411.6.311.421.65.846.99,1.268,2.759,3.377,5.623,6.733,8.35,10.187a130.108,130.108,0,0,1,7.782,10.71,54.616,54.616,0,0,1,3.272,5.815,26.821,26.821,0,0,1,1.262,3.139,12.787,12.787,0,0,1,.651,3.415v0a.68.68,0,0,1-.656.7h-.027q-6.256-.034-12.512-.113H471.5a.567.567,0,0,1-.4-.961l8.5-8.8a.43.43,0,0,1,.624.59l-8.3,9-.414-.961q6.256-.074,12.512-.113l-.683.7a16.341,16.341,0,0,0-1.86-5.968,53.064,53.064,0,0,0-3.259-5.607c-2.4-3.628-5.029-7.117-7.765-10.528s-5.583-6.729-8.394-10.134c-.35-.43-.7-.862-1.041-1.322a8.716,8.716,0,0,1-.519-.757c-.021-.033-.047-.086-.07-.128a1.36,1.36,0,0,1-.075-.157,1.343,1.343,0,0,1-.112-.5,2.015,2.015,0,0,1,.115-.7,8.228,8.228,0,0,1,.852-1.647c.305-.485.621-.945.939-1.4,1.282-1.81,2.593-3.554,3.835-5.344s2.43-3.6,3.484-5.484a29.55,29.55,0,0,0,2.581-5.841,14.747,14.747,0,0,0,.6-3.052,23.216,23.216,0,0,0-.038-3.163c-.163-2.141-.47-4.3-.841-6.441-.753-4.292-1.748-8.557-2.805-12.8s-2.212-8.48-3.421-12.685l0-.008a.485.485,0,0,1,.928-.284Z" transform="translate(-132.629 -214.617)" fill="#3b3b56"/>
    <path id="Path_5066" data-name="Path 5066" d="M306.922,520.067c-20.344,4.543-25.3-27.579-9.418-20.9-12.845-11.867,8.184-34.156,12.8-15.037-4.51-14.394,25.155-21.255,19.867-2.031,10.06-16.531,31.506.633,13.037,13.027Z" transform="translate(-35.37 -114.066)" fill="#7f7ff8"/>
    <path id="Path_5067" data-name="Path 5067" d="M334.759,570.047c4.487-.422,40.338-26.44,40.631-29.924.271-3.235-21.126-38.888-27-38.994s-41.376,23.651-42.15,30S330.271,570.469,334.759,570.047Z" transform="translate(-45.612 -131.489)" fill="#fff"/>
    <circle id="Ellipse_412" data-name="Ellipse 412" cx="6.57" cy="6.57" r="6.57" transform="matrix(0.966, -0.26, 0.26, 0.966, 317.974, 393.061)" fill="#fff"/>
    <path id="Path_5068" data-name="Path 5068" d="M387.281,601.111c1.384.873,1.8,11.552-1.166,13.394-2.654,1.65-10.937-3.347-11.3-4.716S385.9,600.237,387.281,601.111Z" transform="translate(-84.358 -187.939)" fill="#3b3b56"/>
    <path id="Path_5069" data-name="Path 5069" d="M369.679,569.819a1.876,1.876,0,0,0,.929.229c4.487-.419,40.34-26.437,40.631-29.923.271-3.236-21.126-38.889-27-38.991-1.51-.027-4.992,1.53-9.344,3.965a2.9,2.9,0,0,1,.547-.047c5.871.1,27.267,35.754,27,38.991C402.22,546.683,381.62,562.235,369.679,569.819Z" transform="translate(-81.462 -131.492)" fill="#f4f4f4" style="mix-blend-mode: multiply;isolation: isolate"/>
    <path id="Path_5070" data-name="Path 5070" d="M324.157,524.192c-2.754,8.635,2.348,20.13,10.99,16.537,10.212-4.247,1.952-14.5,1.952-14.5s4.6,5.227,7.967,1.273c4.27-5.013-8.6-13.505-8.6-13.505" transform="translate(-55.32 -138.757)" fill="#7f7ff8"/>
    <path id="Path_5071" data-name="Path 5071" d="M374.036,533.122a6.156,6.156,0,0,0,2.7-4.083,5.2,5.2,0,0,0-.289-2.43,8.145,8.145,0,0,0-1.251-2.205,7.03,7.03,0,0,0-1.844-1.69,4.876,4.876,0,0,0-2.292-.72,6.592,6.592,0,0,0-4.5,1.761l0,0a.652.652,0,0,1-.92-.061.77.77,0,0,1-.062-.084c-2.069-3.307-4.2-6.576-6.431-9.771a98.278,98.278,0,0,0-7.129-9.2c-.646-.712-1.311-1.4-2.007-2.037a9.042,9.042,0,0,0-2.167-1.558,1.865,1.865,0,0,0-.489-.148,1.913,1.913,0,0,0-.506.03,8.15,8.15,0,0,0-1.283.347,27,27,0,0,0-2.624,1.1,108.875,108.875,0,0,0-10.141,5.7q-4.955,3.093-9.725,6.481c-3.175,2.256-6.294,4.6-9.279,7.076-1.489,1.243-2.947,2.521-4.314,3.868-.681.674-1.342,1.366-1.942,2.085a8.9,8.9,0,0,0-1.444,2.205,1.715,1.715,0,0,0-.116.472,2.718,2.718,0,0,0,.023.548,7.62,7.62,0,0,0,.3,1.275,21.986,21.986,0,0,0,1.057,2.612c.816,1.728,1.763,3.42,2.753,5.085,1.989,3.329,4.168,6.562,6.433,9.729s4.637,6.262,7.115,9.26c1.24,1.5,2.51,2.97,3.824,4.391a40.479,40.479,0,0,0,4.136,3.979,9.754,9.754,0,0,0,1.108.776,1.755,1.755,0,0,0,.877.323,5.551,5.551,0,0,0,1.182-.411c.424-.188.851-.4,1.274-.621,1.7-.893,3.361-1.907,5.01-2.939,6.582-4.167,12.953-8.713,19.207-13.384,3.119-2.346,6.21-4.737,9.164-7.271.737-.635,1.462-1.28,2.162-1.946a16.147,16.147,0,0,0,1.917-2.085,1.9,1.9,0,0,0,.268-.494,1.29,1.29,0,0,0-.062-.494,11.313,11.313,0,0,0-.461-1.326c-.362-.889-.777-1.768-1.2-2.641a.43.43,0,0,1,.768-.385c.446.878.881,1.761,1.272,2.679a12.111,12.111,0,0,1,.523,1.437,1.994,1.994,0,0,1,.077.952,2.672,2.672,0,0,1-.395.807,16.891,16.891,0,0,1-2.008,2.266c-.707.694-1.433,1.361-2.168,2.015-2.946,2.609-6.01,5.058-9.106,7.464s-6.253,4.73-9.441,7.012-6.418,4.508-9.725,6.634c-1.658,1.058-3.328,2.1-5.085,3.045-.442.235-.889.464-1.357.677a6.688,6.688,0,0,1-1.584.542,1.918,1.918,0,0,1-.3.023,2.01,2.01,0,0,1-.3-.025,2.736,2.736,0,0,1-.5-.128,4.973,4.973,0,0,1-.789-.371,11.175,11.175,0,0,1-1.3-.891,40.711,40.711,0,0,1-4.336-4.129c-1.347-1.446-2.638-2.934-3.9-4.445-2.518-3.025-4.914-6.141-7.217-9.327s-4.507-6.444-6.544-9.826c-1.014-1.694-1.988-3.417-2.85-5.224a23.67,23.67,0,0,1-1.15-2.822,9.314,9.314,0,0,1-.375-1.576,4.269,4.269,0,0,1-.032-.915,3.429,3.429,0,0,1,.225-.948,10.38,10.38,0,0,1,1.739-2.7c.656-.781,1.35-1.5,2.06-2.2,1.423-1.4,2.914-2.695,4.431-3.956,3.04-2.514,6.191-4.866,9.4-7.134s6.483-4.44,9.822-6.513q2.506-1.555,5.073-3.017c1.715-.97,3.454-1.9,5.26-2.741a28.46,28.46,0,0,1,2.8-1.143,9.649,9.649,0,0,1,1.551-.4,3.338,3.338,0,0,1,.955-.029,3.409,3.409,0,0,1,.913.272,7.387,7.387,0,0,1,1.4.858,15.291,15.291,0,0,1,1.179,1c.744.689,1.432,1.416,2.094,2.158a99.5,99.5,0,0,1,7.17,9.4q3.338,4.857,6.365,9.906l-.986-.141a8.133,8.133,0,0,1,1.2-.867,8.679,8.679,0,0,1,1.312-.655,6.829,6.829,0,0,1,2.931-.491,6.075,6.075,0,0,1,2.837.934,8.173,8.173,0,0,1,2.125,2,9.252,9.252,0,0,1,1.384,2.536,6.268,6.268,0,0,1,.3,2.932,6.193,6.193,0,0,1-1.113,2.721,8.471,8.471,0,0,1-2.061,2.01.485.485,0,0,1-.562-.791Z" transform="translate(-44.483 -130.468)" fill="#3b3b56"/>
    <path id="Path_5072" data-name="Path 5072" d="M358.586,605.849a8.6,8.6,0,0,1,1.225,1.095,14.314,14.314,0,0,1,1.037,1.237,14.5,14.5,0,0,1,.9,1.345,8.676,8.676,0,0,1,.71,1.487.452.452,0,0,1-.683.521,8.7,8.7,0,0,1-1.246-1.078,14.608,14.608,0,0,1-1.06-1.22,14.291,14.291,0,0,1-.918-1.328,8.577,8.577,0,0,1-.731-1.47.509.509,0,0,1,.3-.652A.514.514,0,0,1,358.586,605.849Z" transform="translate(-74.741 -190.601)" fill="#3b3b56"/>
    <path id="Path_5073" data-name="Path 5073" d="M390.993,578.01a9.207,9.207,0,0,1,1.308,1.146,15.769,15.769,0,0,1,1.128,1.29,16.965,16.965,0,0,1,.985,1.4,9.358,9.358,0,0,1,.806,1.547.449.449,0,0,1-.254.583.454.454,0,0,1-.418-.047,9.362,9.362,0,0,1-1.329-1.129,17.061,17.061,0,0,1-1.15-1.272,15.853,15.853,0,0,1-1.008-1.386,9.235,9.235,0,0,1-.827-1.53.506.506,0,0,1,.276-.659A.511.511,0,0,1,390.993,578.01Z" transform="translate(-93.053 -174.874)" fill="#3b3b56"/>
    <path id="Path_5074" data-name="Path 5074" d="M326.453,700.188c1.128,1.011,2.226,2.049,3.341,3.068s2.208,2.057,3.322,3.063c.555.5,1.111,1.006,1.675,1.487.282.239.565.475.849.7a7.385,7.385,0,0,0,.813.583.983.983,0,0,0,.114.059c-.031-.008.018,0-.14-.02a.467.467,0,0,0-.085.008.824.824,0,0,0-.2.051.654.654,0,0,0-.2.13l.011-.01c.117-.109.237-.231.357-.359.241-.256.481-.533.716-.815.472-.562.946-1.146,1.393-1.729l.162,1.194q-2.811-2.182-5.567-4.436-1.38-1.124-2.743-2.27c-.9-.771-1.818-1.528-2.706-2.317a.431.431,0,0,1,.524-.681c.991.658,1.956,1.349,2.933,2.025s1.936,1.374,2.9,2.072q2.877,2.1,5.71,4.249a.854.854,0,0,1,.164,1.191l0,0c-.467.622-.933,1.224-1.435,1.82-.252.3-.509.591-.788.884-.14.147-.286.293-.447.442l-.041.037a1.1,1.1,0,0,1-.261.158.961.961,0,0,1-.264.074,1.428,1.428,0,0,1-.156,0,1.228,1.228,0,0,1-.415-.08,2.48,2.48,0,0,1-.395-.191,8.767,8.767,0,0,1-1.029-.739c-.305-.251-.6-.508-.885-.766-.573-.516-1.131-1.04-1.678-1.571q-1.633-1.6-3.189-3.261c-1.031-1.115-2.06-2.228-3.051-3.377a.486.486,0,0,1,.693-.68Z" transform="translate(-56.582 -242.615)" fill="#3b3b56"/>
    <path id="Path_5075" data-name="Path 5075" d="M274.505,655.114a13.736,13.736,0,0,1-5.283,2.017,15.518,15.518,0,0,1-5.667-.157,17.626,17.626,0,0,1-9.627-5.752,16.459,16.459,0,0,1-4.109-10.5,13.867,13.867,0,0,1,1.109-5.671,13.02,13.02,0,0,1,8.531-7.419,15.236,15.236,0,0,1,5.735-.468,17.1,17.1,0,0,1,5.506,1.557,17.578,17.578,0,0,1,4.677,3.257,17.044,17.044,0,0,1,5.147,9.962,13.98,13.98,0,0,1-.4,5.671,12.832,12.832,0,0,1-2.705,4.978l-.089-.714,2.081,1.551a.429.429,0,0,1-.5.7l-2.149-1.455a.478.478,0,0,1-.128-.664l.025-.034.013-.017A11.845,11.845,0,0,0,279,647.312a13.329,13.329,0,0,0,.209-5.186,15.6,15.6,0,0,0-4.9-9.013,16.741,16.741,0,0,0-4.3-2.925,15.455,15.455,0,0,0-4.983-1.368,13.548,13.548,0,0,0-5.1.453,11.883,11.883,0,0,0-4.446,2.4,11.394,11.394,0,0,0-2.993,4.055,12.18,12.18,0,0,0-1,4.977,15.239,15.239,0,0,0,3.626,9.5,16.249,16.249,0,0,0,8.731,5.449,14.257,14.257,0,0,0,5.2.311,13.264,13.264,0,0,0,4.935-1.674l.007,0a.485.485,0,0,1,.51.825Z" transform="translate(-13.744 -202.647)" fill="#3b3b56"/>
    <path id="Path_5076" data-name="Path 5076" d="M263.51,654.778a14.8,14.8,0,0,1-2.345-2.334l-.265-.322-.239-.342-.474-.688a15.044,15.044,0,0,1-.8-1.474,13.367,13.367,0,0,1-.621-1.569,12.472,12.472,0,0,1-.39-1.654,11.542,11.542,0,0,1-.159-1.706l.037-.864a8.033,8.033,0,0,1,.11-.861,8.9,8.9,0,0,1,1.222-3.27,8.849,8.849,0,0,1,5.65-3.908,11.664,11.664,0,0,1,1.716-.26,12.982,12.982,0,0,1,1.721.025,13.474,13.474,0,0,1,1.694.25,14.6,14.6,0,0,1,1.634.478,14.148,14.148,0,0,1,3.038,1.485,15.33,15.33,0,0,1,4.716,4.743,15.621,15.621,0,0,1,.82,1.474,13.684,13.684,0,0,1,.613,1.574,13.209,13.209,0,0,1,.417,1.639,11.544,11.544,0,0,1,.16,1.688,8.918,8.918,0,0,1-2.214,6.252.43.43,0,0,1-.662-.546l.008-.01a8.092,8.092,0,0,0,1.594-5.638,10.843,10.843,0,0,0-.209-1.484,11.8,11.8,0,0,0-.436-1.44,13.413,13.413,0,0,0-3.315-4.987,13.951,13.951,0,0,0-1.149-.982c-.2-.15-.4-.313-.6-.453l-.634-.408a6.756,6.756,0,0,0-.652-.376c-.223-.115-.437-.248-.665-.35a13.809,13.809,0,0,0-2.824-.971,11.676,11.676,0,0,0-1.469-.2,11.293,11.293,0,0,0-1.472-.028,9.915,9.915,0,0,0-1.442.214,7.585,7.585,0,0,0-2.637,1.108,7.445,7.445,0,0,0-2,2.009,7.673,7.673,0,0,0-1.058,2.659,6.438,6.438,0,0,0-.114.72l-.053.732a11.462,11.462,0,0,0,.092,1.478,11.04,11.04,0,0,0,.285,1.468,12.779,12.779,0,0,0,.5,1.423,14.145,14.145,0,0,0,3.507,4.97l.019.017a.485.485,0,0,1-.647.722Z" transform="translate(-18.488 -207.411)" fill="#3b3b56"/>
    <path id="Path_5077" data-name="Path 5077" d="M267.114,362.567c-1.376-.037-1.2-4.128,0-5.981-1.923,1.08-5.952.275-5.9-1.1.123-3.516,8.71-11.651,8.71-11.651l-.569,10.647,12.491-2.149S270.627,362.662,267.114,362.567Z" transform="translate(-20.179 -42.621)" fill="#fdc54f"/>
    <path id="Path_5078" data-name="Path 5078" d="M402.977,317.02c-1.454.457-2.864-4.487-2.334-7.134-1.589,1.99-6.116,2.5-6.6.837-1.244-4.239,4.562-17.074,4.562-17.074l3.559,12.909,12.223-7.117S406.688,315.853,402.977,317.02Z" transform="translate(-95.126 -14.269)" fill="#b6b6fc"/>
    <path id="Path_5079" data-name="Path 5079" d="M268.219,353.2c2.07-.427,4.145-.821,6.219-1.227s4.152-.786,6.229-1.173a.737.737,0,0,1,.642,1.259l-.015.014c-1.52,1.42-3.061,2.789-4.647,4.126-1.6,1.32-3.227,2.606-4.95,3.8a27.389,27.389,0,0,1-2.7,1.679,11.187,11.187,0,0,1-1.529.684l-.429.132-.471.1c-.174.02-.348.03-.54.034a1.543,1.543,0,0,1-.833-.291,2.12,2.12,0,0,1-.72-1.058,4.455,4.455,0,0,1-.2-.938,8.684,8.684,0,0,1,1.086-5.014l1.124,1.2a5.869,5.869,0,0,1-3.037.588,8.15,8.15,0,0,1-1.473-.2,5.519,5.519,0,0,1-1.47-.55,2.71,2.71,0,0,1-.74-.6,1.754,1.754,0,0,1-.311-.526,1.652,1.652,0,0,1-.084-.34,1.556,1.556,0,0,1-.005-.315,4.718,4.718,0,0,1,.4-1.545,12.993,12.993,0,0,1,1.412-2.455,41.846,41.846,0,0,1,3.468-4.186c1.229-1.317,2.478-2.594,3.814-3.81l.02-.018a.6.6,0,0,1,1.008.493c-.183,2.334-.349,4.669-.555,7a.43.43,0,0,1-.857-.046c.044-2.341.127-4.681.194-7.021l1.028.475c-1.229,1.252-2.457,2.535-3.612,3.862a40.415,40.415,0,0,0-3.224,4.127,13.283,13.283,0,0,0-1.212,2.185,3.2,3.2,0,0,0-.269,1.027c-.009.06,0,.02,0,.018a.028.028,0,0,0,0-.017s0,.012.033.042a1.167,1.167,0,0,0,.3.225,5.211,5.211,0,0,0,2.2.507,4.3,4.3,0,0,0,2.146-.4.845.845,0,0,1,1.136,1.178l-.012.019A6.338,6.338,0,0,0,266,358.8a6.413,6.413,0,0,0-.007,1.35,2.759,2.759,0,0,0,.113.569,1.612,1.612,0,0,0,.1.221.2.2,0,0,0-.117-.037l.229-.016.285-.056.308-.093a9.6,9.6,0,0,0,1.287-.568,25.741,25.741,0,0,0,2.545-1.557c1.667-1.138,3.28-2.39,4.862-3.678s3.163-2.6,4.684-3.95l.627,1.273c-2.087.329-4.171.671-6.263.976s-4.178.633-6.272.923a.486.486,0,0,1-.164-.957Z" transform="translate(-19.13 -41.818)" fill="#3b3b56"/>
    <path id="Path_5080" data-name="Path 5080" d="M400.868,305.29c2-1.242,4.023-2.46,6.039-3.683s4.036-2.437,6.062-3.643a.726.726,0,0,1,1.032.924l-.007.014c-1.034,2.236-2.119,4.428-3.26,6.606s-2.37,4.309-3.724,6.389a29.262,29.262,0,0,1-2.235,3.036,9.768,9.768,0,0,1-1.426,1.4,3.419,3.419,0,0,1-.453.315c-.084.049-.155.1-.25.147l-.294.127-.148.061a1.877,1.877,0,0,1-.248.057,1.425,1.425,0,0,1-.53-.017,1.742,1.742,0,0,1-.771-.388,3.479,3.479,0,0,1-.763-.948,7.16,7.16,0,0,1-.447-.941,11.338,11.338,0,0,1-.558-1.9,10.574,10.574,0,0,1-.128-3.981l1.5.7a5.02,5.02,0,0,1-1.476,1.2,7.458,7.458,0,0,1-1.657.662,7.812,7.812,0,0,1-1.754.267,4.718,4.718,0,0,1-1.9-.288,2.3,2.3,0,0,1-.982-.731,2.162,2.162,0,0,1-.185-.306,2.274,2.274,0,0,1-.113-.316l-.1-.471a8.481,8.481,0,0,1-.062-1.764,20.627,20.627,0,0,1,.526-3.26,54.221,54.221,0,0,1,1.955-6.125c.754-2,1.568-3.953,2.459-5.9l.007-.015a.639.639,0,0,1,1.2.109c.835,3.3,1.7,6.6,2.509,9.9a.43.43,0,0,1-.828.228c-1-3.256-1.947-6.527-2.922-9.79l1.207.094c-.822,1.918-1.586,3.886-2.277,5.861a54.566,54.566,0,0,0-1.761,5.991,19.152,19.152,0,0,0-.46,3,6.975,6.975,0,0,0,.057,1.4l.07.3c.006.033.01.039.013.04a.042.042,0,0,1,0,.017c.011.008.01.02.022.031a.714.714,0,0,0,.287.184,3.159,3.159,0,0,0,1.218.153,6.14,6.14,0,0,0,1.371-.222,4.469,4.469,0,0,0,2.244-1.309.852.852,0,0,1,1.5.681l0,.018a9.015,9.015,0,0,0,.158,3.293,10.553,10.553,0,0,0,.468,1.615,5.5,5.5,0,0,0,.332.715,1.89,1.89,0,0,0,.364.483c.048.045.074.047.031.033a.407.407,0,0,0-.077,0c-.008,0-.038.012-.025.007l.062-.029.127-.052a1.443,1.443,0,0,0,.143-.086,1.959,1.959,0,0,0,.3-.205,8.218,8.218,0,0,0,1.184-1.158,27.6,27.6,0,0,0,2.12-2.846c1.329-2,2.528-4.109,3.7-6.232s2.3-4.285,3.362-6.458l1.025.938c-2.049,1.166-4.1,2.33-6.161,3.474s-4.115,2.3-6.184,3.434a.485.485,0,0,1-.488-.839Z" transform="translate(-94.077 -13.42)" fill="#3b3b56"/>
    <path id="Path_5081" data-name="Path 5081" d="M261.766,416.254c-.953.244-2.438-3.177-2.348-4.948-.887,1.277-3.951,1.414-4.459.265-1.3-2.933,1.367-11.376,1.367-11.376l3.791,8.922,7.676-4.268S264.2,415.633,261.766,416.254Z" transform="translate(-16.447 -74.465)" fill="#b6b6fc"/>
    <path id="Path_5082" data-name="Path 5082" d="M258.828,407.821c1.25-.764,2.511-1.508,3.771-2.254s2.52-1.492,3.787-2.225a.722.722,0,0,1,1.051.84l-.008.025c-.484,1.528-1.026,3.014-1.61,4.5a39.047,39.047,0,0,1-2.016,4.385,11.67,11.67,0,0,1-1.422,2.112,3.339,3.339,0,0,1-1.278.95l-.121.043-.063.021-.115.021a1.335,1.335,0,0,1-.442-.007,1.637,1.637,0,0,1-.589-.255,2.776,2.776,0,0,1-.613-.593,8.325,8.325,0,0,1-1.2-2.358,9.358,9.358,0,0,1-.338-1.251,5.859,5.859,0,0,1-.12-1.387l1.569.536a3.02,3.02,0,0,1-1.123.921,4.494,4.494,0,0,1-1.211.395,5.131,5.131,0,0,1-1.237.081,3.625,3.625,0,0,1-1.307-.294,1.756,1.756,0,0,1-.344-.187c-.057-.038-.114-.073-.171-.117l-.168-.158a1.5,1.5,0,0,1-.293-.388,1.331,1.331,0,0,1-.148-.351c-.063-.2-.14-.414-.182-.614l-.09-.588a11.013,11.013,0,0,1-.061-1.137c.018-.365.012-.739.052-1.1a29.324,29.324,0,0,1,.709-4.206c.318-1.376.7-2.714,1.145-4.061l.008-.024a.653.653,0,0,1,1.228-.035l1.351,3.444q.676,1.721,1.33,3.452a.43.43,0,0,1-.79.336q-.8-1.67-1.562-3.354l-1.542-3.363,1.236-.059c-.368,1.3-.681,2.647-.951,3.98a30.5,30.5,0,0,0-.558,4c-.031.332-.016.653-.027.98a9.356,9.356,0,0,0,.068.935l.074.438c.033.137.086.251.123.378.018.053.045.156.049.127,0,0,0,.009.021.02a.068.068,0,0,1,.019.022l.047.025a.373.373,0,0,0,.113.057,2.882,2.882,0,0,0,1.542.079,2.071,2.071,0,0,0,1.234-.622.861.861,0,0,1,1.57.509v.026a6.156,6.156,0,0,0,.382,1.99,6.783,6.783,0,0,0,.913,1.848,1.154,1.154,0,0,0,.225.234c.02.017.009,0-.054-.011a.393.393,0,0,0-.148,0,.262.262,0,0,0-.041.011l.006,0,.018-.01a1.87,1.87,0,0,0,.577-.475,10.938,10.938,0,0,0,1.227-1.791,42.393,42.393,0,0,0,2.009-4.165c.611-1.43,1.179-2.9,1.712-4.351l1.043.865q-1.937,1.035-3.889,2.043c-1.3.676-2.6,1.355-3.9,2.014a.486.486,0,0,1-.472-.848Z" transform="translate(-15.393 -73.592)" fill="#3b3b56"/>
    <path id="Path_5083" data-name="Path 5083" d="M772.877,638.8c1.453.457,2.864-4.487,2.334-7.134,1.589,1.99,6.116,2.5,6.6.838,1.243-4.239-4.563-17.074-4.563-17.074l-3.559,12.909-12.223-7.117S769.166,637.632,772.877,638.8Z" transform="translate(-302.813 -196.065)" fill="#b6b6fc"/>
    <path id="Path_5084" data-name="Path 5084" d="M772.5,627.907c-2.069-1.131-4.125-2.285-6.184-3.434s-4.112-2.307-6.161-3.474l1.025-.938c1.063,2.173,2.191,4.336,3.362,6.458s2.372,4.232,3.7,6.232a27.7,27.7,0,0,0,2.12,2.846,8.235,8.235,0,0,0,1.184,1.158,1.9,1.9,0,0,0,.3.205,1.408,1.408,0,0,0,.143.086l.127.052.063.03c.012,0-.017-.01-.026-.007a.409.409,0,0,0-.078,0c-.043.014-.017.012.031-.033a1.894,1.894,0,0,0,.364-.483,5.476,5.476,0,0,0,.332-.715,10.426,10.426,0,0,0,.468-1.615,9,9,0,0,0,.158-3.293l0-.017a.852.852,0,0,1,1.5-.682,4.473,4.473,0,0,0,2.244,1.309,6.173,6.173,0,0,0,1.371.223,3.167,3.167,0,0,0,1.218-.154.715.715,0,0,0,.287-.184c.013-.011.01-.023.022-.031a.033.033,0,0,1,0-.016s.007-.008.013-.041l.07-.3a6.98,6.98,0,0,0,.057-1.4,19.159,19.159,0,0,0-.46-3,54.526,54.526,0,0,0-1.76-5.991c-.691-1.975-1.455-3.942-2.277-5.86l1.208-.094c-.975,3.263-1.922,6.534-2.922,9.79a.43.43,0,0,1-.828-.228c.81-3.309,1.673-6.6,2.508-9.9a.639.639,0,0,1,1.2-.112l.008.018c.891,1.946,1.7,3.9,2.459,5.9a54.189,54.189,0,0,1,1.955,6.125,20.685,20.685,0,0,1,.527,3.26,8.516,8.516,0,0,1-.063,1.764l-.1.471a1.712,1.712,0,0,1-.3.623,2.3,2.3,0,0,1-.982.732,4.726,4.726,0,0,1-1.9.288,7.81,7.81,0,0,1-1.754-.267,7.438,7.438,0,0,1-1.657-.662,5.026,5.026,0,0,1-1.476-1.2l1.5-.7a10.578,10.578,0,0,1-.128,3.981,11.33,11.33,0,0,1-.557,1.9,7.17,7.17,0,0,1-.446.94,3.491,3.491,0,0,1-.763.948,1.743,1.743,0,0,1-.771.388,1.416,1.416,0,0,1-.531.017,1.827,1.827,0,0,1-.248-.057l-.148-.06-.294-.128a2.869,2.869,0,0,1-.25-.147,3.417,3.417,0,0,1-.453-.315,9.787,9.787,0,0,1-1.426-1.4,29.222,29.222,0,0,1-2.235-3.036c-1.355-2.08-2.576-4.217-3.724-6.389s-2.226-4.37-3.26-6.605l0-.01a.726.726,0,0,1,1.03-.928c2.025,1.206,4.05,2.415,6.062,3.644s4.034,2.441,6.039,3.683a.485.485,0,0,1-.488.839Z" transform="translate(-301.863 -195.216)" fill="#3b3b56"/>
    <path id="Path_5085" data-name="Path 5085" d="M254.416,838.077c.469-11.483-5.626-22.768-20.583-23.545-3.7,13,13.393,19.058,16.667,23.545" transform="translate(-4.418 -308.553)" fill="#37e1ca"/>
    <g id="Group_3051" data-name="Group 3051" transform="translate(228.411 471.271)">
      <path id="Path_5086" data-name="Path 5086" d="M264.619,754.822c2.518,0,14.539-9.754,9.571-16.157-5.243-6.757-9.738,2.5-9.738,2.5s-4.3-7.64-9.311-2.538C249.361,744.508,262.1,754.822,264.619,754.822Z" transform="translate(-244.32 -735.566)" fill="#fdc54f"/>
      <path id="Path_5087" data-name="Path 5087" d="M266.523,752.378a23.977,23.977,0,0,0,5.317-5.333,13.664,13.664,0,0,0,1.771-3.245,6.528,6.528,0,0,0,.357-3.478,5.844,5.844,0,0,0-1.755-2.96,3.807,3.807,0,0,0-2.921-1.343,4.78,4.78,0,0,0-2.89,1.632,13.017,13.017,0,0,0-2.088,2.979.659.659,0,0,1-.888.284.67.67,0,0,1-.265-.249,11.129,11.129,0,0,0-2.253-2.725,4.6,4.6,0,0,0-3-1.265,4.449,4.449,0,0,0-2.921,1.421,5.137,5.137,0,0,0-1.024,1.333,4.293,4.293,0,0,0-.449,1.591,6.85,6.85,0,0,0,.713,3.388,15.416,15.416,0,0,0,1.937,3.1,25.575,25.575,0,0,0,5.38,5.1l0,0a.322.322,0,0,1-.355.537,23.017,23.017,0,0,1-3.073-2.3,25.147,25.147,0,0,1-2.7-2.742,16.1,16.1,0,0,1-2.143-3.251,7.918,7.918,0,0,1-.9-3.915,5.46,5.46,0,0,1,.526-2.036,6.088,6.088,0,0,1,1.243-1.671A6.808,6.808,0,0,1,255.8,736a4.651,4.651,0,0,1,4.175-.134,7.23,7.23,0,0,1,1.745,1.1,12.342,12.342,0,0,1,2.571,3.058l-1.153.035a13.931,13.931,0,0,1,2.338-3.3,7.8,7.8,0,0,1,1.631-1.309,4.848,4.848,0,0,1,2.091-.687,4.2,4.2,0,0,1,2.186.454,6.515,6.515,0,0,1,1.7,1.27l.358.373.325.392a6.826,6.826,0,0,1,.61.854,5.847,5.847,0,0,1,.752,1.992,7.663,7.663,0,0,1-.485,4.09,14.653,14.653,0,0,1-1.982,3.464,23.168,23.168,0,0,1-2.652,2.905,22.836,22.836,0,0,1-3.08,2.424.364.364,0,0,1-.415-.6Z" transform="translate(-243.596 -734.749)" fill="#3c4958"/>
      <path id="Path_5088" data-name="Path 5088" d="M241.017,836.785l4.428-.085,4.428-.07-.419.824a14.776,14.776,0,0,0-2.725-2.466c-1.01-.761-2.055-1.5-3.094-2.248a50.768,50.768,0,0,1-5.992-4.923,19.461,19.461,0,0,1-4.534-6.443,12.846,12.846,0,0,1-.883-3.923,13.389,13.389,0,0,1,.378-3.993v0a.615.615,0,0,1,.516-.464,13.946,13.946,0,0,1,6.459.79,21.048,21.048,0,0,1,5.61,3.137,24.562,24.562,0,0,1,4.509,4.521,23.6,23.6,0,0,1,3.185,5.508.322.322,0,0,1-.592.255,24.214,24.214,0,0,0-3.287-5.212,25.367,25.367,0,0,0-4.448-4.233,19.924,19.924,0,0,0-5.371-2.856,12.786,12.786,0,0,0-5.894-.683l.516-.468a12.113,12.113,0,0,0-.313,3.619,11.553,11.553,0,0,0,.825,3.522,18.255,18.255,0,0,0,4.212,6.032,54.837,54.837,0,0,0,5.812,4.858c1.017.769,2.049,1.527,3.066,2.325a15.607,15.607,0,0,1,2.882,2.737.515.515,0,0,1-.419.824l-4.428-.069-4.428-.085a.364.364,0,0,1,0-.728Z" transform="translate(-232.201 -778.896)" fill="#3c4958"/>
      <path id="Path_5089" data-name="Path 5089" d="M281.144,838.065c.161,2.182.265,4.367.361,6.554q.11,3.282.121,6.57l-.6-.6q2.647-.051,5.295-.052c1.765-.01,3.53.007,5.295.02s3.53.056,5.295.105,3.53.11,5.3.2a.323.323,0,0,1,0,.644c-1.765.091-3.53.163-5.3.2s-3.53.088-5.295.105-3.53.03-5.295.02-3.53-.018-5.295-.052h-.019a.589.589,0,0,1-.578-.6v0c.051-2.176.062-4.355.044-6.535.005-2.181-.04-4.362-.06-6.545a.364.364,0,0,1,.727-.03Z" transform="translate(-259.442 -792.929)" fill="#3c4958"/>
      <path id="Path_5090" data-name="Path 5090" d="M278.472,769.307l.54,13.156c.08,2.194.177,4.388.229,6.586l.077,3.3c0,1.1.026,2.2.008,3.3a.323.323,0,0,1-.643.031c-.125-1.094-.211-2.19-.32-3.284l-.26-3.289c-.172-2.193-.291-4.39-.394-6.59s-.159-4.4-.152-6.606c0-1.1.014-2.2.035-3.307.044-1.1.074-2.2.153-3.3v0a.365.365,0,0,1,.728.011Z" transform="translate(-257.825 -754.076)" fill="#3c4958"/>
    </g>
    <g id="Group_3052" data-name="Group 3052" transform="translate(456.807 470.714)">
      <path id="Path_5091" data-name="Path 5091" d="M765.816,807.018a22.661,22.661,0,0,1-1.9-6.043c-1.792-7.843,3.309-11.061,1.375-15.782s-11.132-11.834-2.527-22.6c11.968,4.973,9.562,13.118,9.918,19.98.345,6.653,7.016,6.017,8.916,13.357.826,3.193.733,11.092.733,11.092Z" transform="translate(-758.307 -749.921)" fill="#eaeae9"/>
      <path id="Path_5092" data-name="Path 5092" d="M786.552,791.645s-1.122-14.293-.5-18.187c1.334-8.394,7.6-9.538,7.568-14.928s-6.247-15.986,6.432-23.153c9.77,9.591,4.2,16.627,1.846,23.493-2.284,6.658,4.505,8.662,3.474,16.606-.492,3.788-5.711,16.168-5.711,16.168Z" transform="translate(-773.401 -734.548)" fill="#37e1ca"/>
      <path id="Path_5093" data-name="Path 5093" d="M785.049,788.695a76.17,76.17,0,0,1-.609-15.044,17.678,17.678,0,0,1,.569-3.82,13.275,13.275,0,0,1,1.607-3.572,24.718,24.718,0,0,1,2.349-3.034,20.294,20.294,0,0,0,2.213-2.844,5.52,5.52,0,0,0,.818-3.168,23.89,23.89,0,0,0-.592-3.564,31.164,31.164,0,0,1-1-7.582,14.06,14.06,0,0,1,.644-3.9,12.64,12.64,0,0,1,1.794-3.548,18.3,18.3,0,0,1,5.913-5.045l0,0a.823.823,0,0,1,.984.132,21.556,21.556,0,0,1,4.633,6.306,13.563,13.563,0,0,1,1.1,3.864,13.941,13.941,0,0,1-.106,4.008,34.361,34.361,0,0,1-2.442,7.339c-.241.58-.475,1.156-.7,1.733s-.432,1.162-.585,1.7a6.448,6.448,0,0,0-.049,3.3c.545,2.178,2.233,4.217,3.127,6.769a11.764,11.764,0,0,1,.707,3.985,12.673,12.673,0,0,1-.144,2c-.1.646-.2,1.292-.351,1.921a48.945,48.945,0,0,1-2.309,7.331c-.939,2.374-1.969,4.685-3.135,6.972l-.721-1.188c3.181.012,6.362.01,9.543.043l-.727,1.026a20.517,20.517,0,0,1-1.089-5.535,14.292,14.292,0,0,1,.764-5.651,11,11,0,0,1,3.311-4.7,14.941,14.941,0,0,1,5.03-2.639.682.682,0,0,1,.756.242l0,0a9.626,9.626,0,0,1,1.823,4.633,13.446,13.446,0,0,1-.421,4.877,29.765,29.765,0,0,1-1.606,4.506c-.636,1.449-1.336,2.859-2.047,4.255l-.493-.8,13.328.121a.43.43,0,0,1,0,.859l-13.328.121a.548.548,0,0,1-.553-.543.54.54,0,0,1,.054-.243l.006-.011c.683-1.4,1.348-2.8,1.944-4.229a28.592,28.592,0,0,0,1.464-4.343,12.459,12.459,0,0,0,.339-4.417,8.268,8.268,0,0,0-1.611-3.976l.758.245a13.565,13.565,0,0,0-4.537,2.416,9.552,9.552,0,0,0-2.851,4.115A12.82,12.82,0,0,0,808,785.2a19.027,19.027,0,0,0,1.046,5.107.772.772,0,0,1-.716,1.026h-.011c-3.181.032-6.362.03-9.543.042a.811.811,0,0,1-.729-1.173l.008-.015c1.114-2.207,2.131-4.509,3.036-6.824a47.309,47.309,0,0,0,2.2-7.082c.14-.6.229-1.2.321-1.8a11.033,11.033,0,0,0,.121-1.762,10.057,10.057,0,0,0-.621-3.418,22.488,22.488,0,0,0-1.595-3.271,15.274,15.274,0,0,1-1.6-3.654,8.2,8.2,0,0,1,.065-4.172c.193-.674.413-1.272.646-1.872s.474-1.19.717-1.772A32.907,32.907,0,0,0,803.7,747.6a12.254,12.254,0,0,0,.105-3.521,11.887,11.887,0,0,0-.955-3.381,19.922,19.922,0,0,0-4.264-5.812l.988.13a16.686,16.686,0,0,0-5.4,4.563,11.541,11.541,0,0,0-2.194,6.538,29.773,29.773,0,0,0,.894,7.218,24.954,24.954,0,0,1,.588,3.814,7.014,7.014,0,0,1-.23,2.069,7.5,7.5,0,0,1-.822,1.889,21.475,21.475,0,0,1-2.393,3.034,24.735,24.735,0,0,0-2.26,2.847,11.961,11.961,0,0,0-1.507,3.2,16.468,16.468,0,0,0-.585,3.554,75.137,75.137,0,0,0,.347,14.811l0,.018a.485.485,0,0,1-.963.121Z" transform="translate(-772.52 -733.47)" fill="#3b3b56"/>
      <path id="Path_5094" data-name="Path 5094" d="M771.09,776.672a26.6,26.6,0,0,0-.471-4.752c-.065-.389-.194-.756-.291-1.133s-.261-.729-.388-1.094c-.169-.346-.319-.7-.5-1.037-.206-.324-.375-.669-.606-.975a12.833,12.833,0,0,0-3.288-3.217,23.969,23.969,0,0,0-4.176-2.183l.934-.24a18.2,18.2,0,0,0-2.518,4.205,10.83,10.83,0,0,0-.863,4.668,12.276,12.276,0,0,0,1.193,4.634,32.908,32.908,0,0,0,2.518,4.322c.471.713.956,1.429,1.418,2.189a9.684,9.684,0,0,1,1.172,2.537,6.886,6.886,0,0,1,.153,2.889,15.656,15.656,0,0,1-.7,2.624,27.306,27.306,0,0,0-1.367,4.8,13.978,13.978,0,0,0,.191,4.862l-.014-.053.911,3.034.89,3.04.007.023a.576.576,0,0,1-.391.714.6.6,0,0,1-.174.023c-2.223-.047-4.447-.088-6.67-.155a.43.43,0,0,1,0-.859c2.223-.068,4.447-.108,6.67-.155l-.558.76-1.011-3-.99-3.009-.011-.039,0-.014a15.445,15.445,0,0,1-.346-5.368,25.309,25.309,0,0,1,1.34-5.114,14.129,14.129,0,0,0,.608-2.347,5.223,5.223,0,0,0-.133-2.208,8.1,8.1,0,0,0-1.01-2.1c-.436-.7-.921-1.4-1.4-2.118a30.2,30.2,0,0,1-2.672-4.556,13.983,13.983,0,0,1-1.312-5.283,12.514,12.514,0,0,1,1.021-5.368,18.543,18.543,0,0,1,2.8-4.572l.023-.027a.771.771,0,0,1,.911-.212,25.487,25.487,0,0,1,4.419,2.445,14.261,14.261,0,0,1,3.575,3.67,12.91,12.91,0,0,1,.645,1.122c.192.385.347.789.518,1.183.127.409.279.812.382,1.225s.215.826.269,1.245a24.612,24.612,0,0,1,.271,4.982.485.485,0,0,1-.971,0Z" transform="translate(-757.216 -748.872)" fill="#3b3b56"/>
    </g>
    <path id="Path_5095" data-name="Path 5095" d="M281.253,810.51c0-.444,2.017-12.329,10.982-14.106,0,0,.68,10.555-10.982,18.329" transform="translate(-31.503 -298.312)" fill="#37e1ca"/>
    <path id="Path_5096" data-name="Path 5096" d="M280.184,808.89l.007-.117.009-.079.02-.154.047-.3q.052-.292.113-.579.125-.575.287-1.138a23.155,23.155,0,0,1,.75-2.223,19.615,19.615,0,0,1,2.256-4.141,16.11,16.11,0,0,1,1.541-1.825,13.632,13.632,0,0,1,1.855-1.533,12.259,12.259,0,0,1,4.437-1.878l.013,0a.625.625,0,0,1,.724.43,7.7,7.7,0,0,1,.283,1.545,10.753,10.753,0,0,1,.022,1.506,13.538,13.538,0,0,1-.5,2.934,17.077,17.077,0,0,1-2.6,5.25,26.225,26.225,0,0,1-3.952,4.234,35.617,35.617,0,0,1-4.67,3.337.322.322,0,0,1-.352-.539,41.274,41.274,0,0,0,4.372-3.523,25.125,25.125,0,0,0,3.646-4.18,16.426,16.426,0,0,0,2.348-4.913,12.277,12.277,0,0,0,.42-2.659,10.779,10.779,0,0,0-.031-1.332,6.7,6.7,0,0,0-.208-1.247l.737.427a10.994,10.994,0,0,0-3.989,1.646,13.909,13.909,0,0,0-3.168,3.016,19.477,19.477,0,0,0-2.264,3.84,22.173,22.173,0,0,0-.832,2.092c-.123.355-.231.715-.336,1.075q-.079.27-.147.541l-.064.268-.045.219-.019.092a.358.358,0,0,1-.709-.092Z" transform="translate(-30.899 -297.469)" fill="#3c4958"/>
    <path id="Path_5097" data-name="Path 5097" d="M225.492,864.67c0,3.36,62.04,3.36,138.569,3.36s127.26,0,127.26-3.36-50.73-3.361-127.26-3.361S225.492,861.309,225.492,864.67Z" transform="translate(0 -334.981)" fill="#eaeae9" opacity="0.6" style="mix-blend-mode: multiply;isolation: isolate"/>
  </g>
</svg>
