<svg xmlns="http://www.w3.org/2000/svg" width="18" height="18" viewBox="0 0 18 18">
  <g id="studio" transform="translate(-435 -566)">
    <g id="Group_32" data-name="Group 32" transform="translate(435 566)">
      <g id="picture-landscape">
        <g id="Rectangle-path_21" data-name="Rectangle-path 21">
          <path id="Path_13175" data-name="Path 13175" d="M451.313,584H436.688A1.69,1.69,0,0,1,435,582.313V567.688A1.69,1.69,0,0,1,436.688,566h14.625A1.69,1.69,0,0,1,453,567.688v14.625A1.69,1.69,0,0,1,451.313,584Zm-14.625-16.875a.563.563,0,0,0-.562.563v14.625a.563.563,0,0,0,.563.563h14.625a.563.563,0,0,0,.563-.562V567.688a.563.563,0,0,0-.562-.562Z" transform="translate(-435 -566)" fill="#7d77fb"/>
        </g>
        <g id="Shape_127" data-name="Shape 127" transform="translate(3.375 5.813)">
          <path id="Path_13176" data-name="Path 13176" d="M440.062,581.438a.563.563,0,0,1-.449-.9l2.6-3.462a1.688,1.688,0,0,1,2.543-.181l.312.311,2.086-2.781a1.688,1.688,0,0,1,2.7,0l2,2.67a.562.562,0,1,1-.9.675l-2-2.67a.586.586,0,0,0-.9,0l-2.475,3.3a.559.559,0,0,1-.41.223.542.542,0,0,1-.438-.163l-.771-.77a.551.551,0,0,0-.437-.163.561.561,0,0,0-.41.224l-2.6,3.462A.562.562,0,0,1,440.062,581.438Z" transform="translate(-439.5 -573.75)" fill="#7d77fb"/>
        </g>
        <g id="Oval_32" data-name="Oval 32" transform="translate(2.813 2.813)">
          <path id="Path_13177" data-name="Path 13177" d="M440.719,573.688a1.969,1.969,0,1,1,1.969-1.969A1.971,1.971,0,0,1,440.719,573.688Zm0-2.812a.844.844,0,1,0,.844.844A.845.845,0,0,0,440.719,570.875Z" transform="translate(-438.75 -569.75)" fill="#7d77fb"/>
        </g>
        <g id="Shape_128" data-name="Shape 128" transform="translate(0 12.375)">
          <path id="Path_13178" data-name="Path 13178" d="M452.438,583.625H435.563a.563.563,0,0,1,0-1.125h16.875a.563.563,0,0,1,0,1.125Z" transform="translate(-435 -582.5)" fill="#7d77fb"/>
        </g>
      </g>
    </g>
  </g>
</svg>
