<svg xmlns="http://www.w3.org/2000/svg" width="20" height="20" viewBox="0 0 20 20">
  <g id="article_black_24dp" transform="translate(-2 -2)">
    <rect id="Rectangle_3238" data-name="Rectangle 3238" width="20" height="20" transform="translate(2 2)" fill="none"/>
    <path id="Path_13350" data-name="Path 13350" d="M20.778,3H5.222A2.229,2.229,0,0,0,3,5.222V20.778A2.229,2.229,0,0,0,5.222,23H20.778A2.229,2.229,0,0,0,23,20.778V5.222A2.229,2.229,0,0,0,20.778,3ZM14.111,18.556H8.556a1.111,1.111,0,1,1,0-2.222h5.556a1.111,1.111,0,1,1,0,2.222Zm3.333-4.444H8.556a1.111,1.111,0,1,1,0-2.222h8.889a1.111,1.111,0,0,1,0,2.222Zm0-4.444H8.556a1.111,1.111,0,1,1,0-2.222h8.889a1.111,1.111,0,0,1,0,2.222Z" transform="translate(-1 -1)" fill="#7d7bfa"/>
  </g>
</svg>
