<svg xmlns="http://www.w3.org/2000/svg" width="20" height="20" viewBox="0 0 20 20">
  <g id="home-round-24px" transform="translate(0 0)">
    <path id="Path_6807" data-name="Path 6807" d="M0,0H20V20H0Z" transform="translate(0 0)" fill="none"/>
    <path id="Path_6808" data-name="Path 6808" d="M10.626,22.244v-5.5h4.348v5.5a1.1,1.1,0,0,0,1.087,1.1h3.261a1.1,1.1,0,0,0,1.087-1.1V12.872h1.848a.547.547,0,0,0,.359-.958L13.528,3.626a1.085,1.085,0,0,0-1.457,0L2.985,11.914a.549.549,0,0,0,.359.958H5.191v9.372a1.1,1.1,0,0,0,1.087,1.1H9.539A1.1,1.1,0,0,0,10.626,22.244Z" transform="translate(-2.802 -3.345)" fill="#9a98b3"/>
  </g>
</svg>
