<svg id="menu-round-24px" xmlns="http://www.w3.org/2000/svg" width="20" height="20" viewBox="0 0 20 20">
  <path id="Path_6811" data-name="Path 6811" d="M0,0H20V20H0Z" fill="none"/>
  <path id="Path_6812" data-name="Path 6812" d="M4.111,20H21.889a1.168,1.168,0,0,0,0-2.333H4.111a1.168,1.168,0,0,0,0,2.333Zm0-5.833H21.889a1.168,1.168,0,0,0,0-2.333H4.111a1.168,1.168,0,0,0,0,2.333ZM3,7.167A1.143,1.143,0,0,0,4.111,8.333H21.889a1.168,1.168,0,0,0,0-2.333H4.111A1.143,1.143,0,0,0,3,7.167Z" transform="translate(-3 -3)" fill="#9a98b3"/>
</svg>
