<svg xmlns="http://www.w3.org/2000/svg" width="20" height="20" viewBox="0 0 20 20">
  <g id="chat-round-24px" transform="translate(-2 -2)">
    <path id="Path_6809" data-name="Path 6809" d="M0,0H20V20H0Z" transform="translate(2 2)" fill="none"/>
    <path id="Path_6810" data-name="Path 6810" d="M20,2H4A2,2,0,0,0,2.01,4L2,22l4-4H20a2.006,2.006,0,0,0,2-2V4A2.006,2.006,0,0,0,20,2ZM7,9H17a1,1,0,0,1,0,2H7A1,1,0,0,1,7,9Zm6,5H7a1,1,0,0,1,0-2h6a1,1,0,0,1,0,2Zm4-6H7A1,1,0,0,1,7,6H17a1,1,0,0,1,0,2Z" fill="#9a98b3"/>
  </g>
</svg>
