<svg xmlns="http://www.w3.org/2000/svg" width="70" height="32.004" viewBox="0 0 70 32.004">
  <g id="tabby" transform="translate(-6434.388 -835.225)">
    <rect id="Rectangle_3236" data-name="Rectangle 3236" width="70" height="32.004" rx="4" transform="translate(6434.388 835.225)" fill="#3fecbe"/>
    <g id="Group_4901" data-name="Group 4901" transform="translate(6451.387 839.225)">
      <path id="Path_13342" data-name="Path 13342" d="M6228.254,863.358v.49q0,4.015,0,8.03a4.231,4.231,0,0,0,1.137,3.076,3.559,3.559,0,0,0,5.748-1.2,5,5,0,0,0,.387-1.994c0-1.3,0-2.6.029-3.893a2.906,2.906,0,0,1,1.508-2.676,7.6,7.6,0,0,1,1.3-.464.22.22,0,0,1,.32.2,2.765,2.765,0,0,0,.08.372,1.081,1.081,0,0,1-.208,1.214,2.794,2.794,0,0,0-.487,1.945c-.018,1.158-.037,2.318,0,3.476a5.474,5.474,0,0,1-4.4,5.559,6.83,6.83,0,0,1-5.562-.885,4.97,4.97,0,0,1-2.365-4.181c-.049-2.617-.012-5.237,0-7.855a.446.446,0,0,1,.2-.343c.7-.3,1.415-.574,2.125-.854A1.039,1.039,0,0,1,6228.254,863.358Z" transform="translate(-6202.857 -861.139)" fill="#29292a"/>
      <path id="Path_13343" data-name="Path 13343" d="M6181.4,878.5c.009.154.021.265.021.376,0,1.356.013,2.711,0,4.067a4.664,4.664,0,0,1-.592,2.434,3.907,3.907,0,0,1-2.681,1.748.38.38,0,0,0-.352.34,5.257,5.257,0,0,1-4.053,4.159,8.08,8.08,0,0,1-5.536-.348,5.175,5.175,0,0,1-3.176-4.535c-.061-.609-.052-1.227-.052-1.84a.426.426,0,0,1,.16-.333c.754-.32,1.519-.615,2.339-.94.014.187.03.329.034.471.025.972-.02,1.952.085,2.915a3.539,3.539,0,0,0,3.527,3.234,4.029,4.029,0,0,0,3.1-.959,3.43,3.43,0,0,0,1.1-2.2l-.79-.289c.11-.437.2-.844.327-1.235.026-.079.228-.142.348-.141.553.005,1.109.088,1.656.046a2.1,2.1,0,0,0,1.925-1.887c.1-1.221.1-2.45.116-3.676a.543.543,0,0,1,.408-.607c.588-.208,1.164-.454,1.745-.683C6181.148,878.572,6181.256,878.543,6181.4,878.5Z" transform="translate(-6159.813 -871.968)" fill="#29292a"/>
      <path id="Path_13344" data-name="Path 13344" d="M6248.24,858.556c-.315-.474-.594-.883-.858-1.3a.275.275,0,0,1,0-.243c.263-.418.541-.827.863-1.313.316.488.6.923.875,1.367.029.047-.007.158-.045.218C6248.813,857.692,6248.545,858.093,6248.24,858.556Z" transform="translate(-6218.226 -855.7)" fill="#29292a"/>
      <path id="Path_13345" data-name="Path 13345" d="M6180.426,929.125c.306.458.582.854.832,1.266a.388.388,0,0,1-.014.336c-.246.4-.516.789-.818,1.243-.311-.471-.6-.9-.881-1.341a.187.187,0,0,1,0-.163C6179.823,930.029,6180.113,929.6,6180.426,929.125Z" transform="translate(-6170.121 -907.973)" fill="#29292a"/>
      <path id="Path_13346" data-name="Path 13346" d="M6257.663,858.567c-.305-.457-.585-.864-.85-1.28a.292.292,0,0,1-.013-.254c.268-.427.552-.845.865-1.316.311.475.595.9.87,1.338a.215.215,0,0,1,0,.188C6258.255,857.675,6257.969,858.1,6257.663,858.567Z" transform="translate(-6224.919 -855.711)" fill="#29292a"/>
      <path id="Path_13347" data-name="Path 13347" d="M6216.982,912.728c-.316-.483-.589-.895-.852-1.313a.247.247,0,0,1-.015-.216c.269-.427.55-.846.866-1.324l.943,1.419Z" transform="translate(-6196.067 -894.268)" fill="#29292a"/>
      <path id="Path_13348" data-name="Path 13348" d="M6189.889,929.106c.309.47.584.879.846,1.3a.275.275,0,0,1,.01.246c-.266.426-.548.841-.859,1.31-.312-.477-.6-.907-.871-1.343a.212.212,0,0,1,.007-.186C6189.293,930.006,6189.573,929.586,6189.889,929.106Z" transform="translate(-6176.841 -907.959)" fill="#29292a"/>
      <path id="Path_13349" data-name="Path 13349" d="M6157.645,882.613a2.136,2.136,0,0,1-.9,1.524l-.885-1.524Z" transform="translate(-6153.34 -874.857)" fill="#29292a"/>
      <path id="Path_13350" data-name="Path 13350" d="M6147.171,877.307a2.2,2.2,0,0,1,.9-1.529l.886,1.529Z" transform="translate(-6147.169 -869.992)" fill="#29292a"/>
      <path id="Path_13351" data-name="Path 13351" d="M6148.949,882.538l-.874,1.515a2.08,2.08,0,0,1-.91-1.515Z" transform="translate(-6147.165 -874.804)" fill="#29292a"/>
      <path id="Path_13352" data-name="Path 13352" d="M6151.55,874.672a2.282,2.282,0,0,1,1.8-.023l-.9,1.571Z" transform="translate(-6150.279 -869.065)" fill="#29292a"/>
      <path id="Path_13353" data-name="Path 13353" d="M6151.534,884.758l.9-1.558.895,1.544A2.158,2.158,0,0,1,6151.534,884.758Z" transform="translate(-6150.268 -875.276)" fill="#29292a"/>
      <path id="Path_13354" data-name="Path 13354" d="M6156.739,875.836a2.139,2.139,0,0,1,.9,1.527h-1.789Zm.088.15-.684,1.189h1.388Z" transform="translate(-6153.334 -870.033)" fill="#29292a"/>
    </g>
  </g>
</svg>
