<svg xmlns="http://www.w3.org/2000/svg" width="220" height="193.507" viewBox="0 0 220 193.507">
  <g id="Group_4700" data-name="Group 4700" transform="translate(-322.384 -1424.584)">
    <path id="Path_8329" data-name="Path 8329" d="M456.12,1484.685c0,33.229-29.491,56.576-65.866,56.576a82.75,82.75,0,0,1-9.18-.506,38.812,38.812,0,0,1-2.269,9.557c-5.066,12.707-21.788,12.759-22.126,11.129-.237-1.151,8.39-4.389,10.978-13.631a26.319,26.319,0,0,0,.648-9.554c-25.588-7.315-43.921-27.37-43.921-53.57,0-33.229,29.491-58.1,65.87-58.1S456.12,1451.456,456.12,1484.685Z" transform="translate(0)" fill="#fdc54f"/>
    <path id="Path_8330" data-name="Path 8330" d="M638.668,1654.177c-6.7,6.7-28.078,6.407-51.059,6.458-25.381.055-49.051.874-57.689-6.458-7.963-6.759-6.3-26.276-6.546-48.028-.246-21.1-.953-41.883,6.546-48.854,6.573-6.11,29.918-5.82,52.949-5.444a1.364,1.364,0,0,1,1.342,1.364v17.65a1.159,1.159,0,0,1-1.475,1.119c-6.3-1.846-15.609-1.354-15.609,9.136,0,11.243,8.971,11.694,15.565,9.6a1.162,1.162,0,0,1,1.519,1.1v15.286a1.16,1.16,0,0,0,1.16,1.159h18.068a1.162,1.162,0,0,0,1.093-1.559c-1.746-4.785-4.495-15.628,9.177-15.547,13.114.077,10.439,11.022,8.784,15.55a1.16,1.16,0,0,0,1.094,1.556h19.727a1.366,1.366,0,0,1,1.363,1.295C645.742,1630.249,645.559,1647.282,638.668,1654.177Z" transform="translate(-102.775 -64.169)" fill="#3b3b56"/>
    <path id="Path_8331" data-name="Path 8331" d="M683.608,1768.3s.161,7.772,2.618,13.179c5.237,11.521,22.519,10.037,22.868,8.56.247-1.044-8.67-2.45-11.347-10.829-1.594-4.99-.437-11.608-.437-11.608" transform="translate(-184.686 -174.45)" fill="#3b3b56" stroke="#3b3b56" stroke-linecap="round" stroke-linejoin="round" stroke-width="3"/>
    <path id="Path_8332" data-name="Path 8332" d="M453.122,1533.441q.03.545.059,1.085a.586.586,0,0,1-.586.617H437.032a.586.586,0,0,1-.547-.8c1.209-3.126,3.766-11.977-6.452-12.036-10.634-.062-8.026,8.682-6.744,12.041a.586.586,0,0,1-.549.794H408.49a.587.587,0,0,1-.587-.587v-12.144a.587.587,0,0,0-.781-.553c-4.975,1.7-12.034,1.558-12.034-7.081,0-8.059,7.319-8.253,12.045-6.753a.588.588,0,0,0,.771-.557V1493.43l.6-.587c18.6.258,32.558-1.065,39.21,4.583C455.678,1504.192,452.6,1524.143,453.122,1533.441Z" transform="translate(-36.372 -33.902)" fill="#3b3b56" stroke="#3b3b56" stroke-linecap="round" stroke-linejoin="round" stroke-width="3"/>
    <path id="Path_8333" data-name="Path 8333" d="M557.382,1551.826c-1.407,21.15-14.965,37.9-34.432,46.522-.214-18.037-.316-35.156,5.895-41.367C533.138,1552.688,544.191,1551.83,557.382,1551.826Z" transform="translate(-102.019 -64.085)" fill="#7f7ff8" stroke="#7f7ff8" stroke-miterlimit="10" stroke-width="0.25"/>
    <path id="Path_8334" data-name="Path 8334" d="M585.838,1631.823l-.963-2.658a.185.185,0,0,0-.35.007l-.852,2.7a2.9,2.9,0,0,1-1.779,1.855l-2.659.963a.185.185,0,0,0,.007.35l2.7.852a2.9,2.9,0,0,1,1.855,1.78l.963,2.659a.185.185,0,0,0,.35-.008l.852-2.7a2.906,2.906,0,0,1,1.779-1.855l2.658-.963a.185.185,0,0,0-.007-.35l-2.7-.852a2.905,2.905,0,0,1-1.855-1.779" transform="translate(-130.829 -103.559)" fill="#fff"/>
    <path id="Path_8335" data-name="Path 8335" d="M481.69,1510.324l-.683-1.886a.131.131,0,0,0-.249,0l-.6,1.913a2.06,2.06,0,0,1-1.263,1.317l-1.886.683a.131.131,0,0,0,0,.249l1.913.6a2.061,2.061,0,0,1,1.317,1.263l.683,1.886a.131.131,0,0,0,.248-.005l.605-1.913a2.06,2.06,0,0,1,1.262-1.316l1.886-.684a.131.131,0,0,0,0-.248l-1.913-.6a2.062,2.062,0,0,1-1.317-1.263" transform="translate(-78.335 -41.824)" fill="#fff"/>
    <path id="Path_8336" data-name="Path 8336" d="M555.181,1724.6l-1.161-3.2a.223.223,0,0,0-.422.008l-1.027,3.25a3.5,3.5,0,0,1-2.145,2.236l-3.2,1.161a.223.223,0,0,0,.008.422l3.25,1.027a3.5,3.5,0,0,1,2.236,2.145l1.161,3.2a.223.223,0,0,0,.422-.009l1.027-3.25a3.5,3.5,0,0,1,2.144-2.236l3.2-1.162a.222.222,0,0,0-.008-.422l-3.25-1.027a3.5,3.5,0,0,1-2.236-2.145" transform="translate(-114.382 -150.729)" fill="#fff"/>
    <path id="Path_8337" data-name="Path 8337" d="M720.681,1701.1l-1.161-3.2a.223.223,0,0,0-.422.008l-1.027,3.25a3.5,3.5,0,0,1-2.145,2.236l-3.2,1.161a.223.223,0,0,0,.008.422l3.25,1.027a3.5,3.5,0,0,1,2.236,2.145l1.161,3.2a.223.223,0,0,0,.422-.009l1.027-3.25a3.5,3.5,0,0,1,2.144-2.236l3.2-1.162a.223.223,0,0,0-.008-.422l-3.25-1.027a3.5,3.5,0,0,1-2.236-2.145" transform="translate(-199.48 -138.708)" fill="#fff"/>
    <path id="Path_8338" data-name="Path 8338" d="M496.864,1555.139a1.132,1.132,0,1,1-1.133-1.132,1.132,1.132,0,0,1,1.133,1.132" transform="translate(-87.403 -65.173)" fill="#fff"/>
    <path id="Path_8339" data-name="Path 8339" d="M616.92,1672.608a1.308,1.308,0,1,1-1.309-1.308,1.308,1.308,0,0,1,1.309,1.308" transform="translate(-148.87 -125.165)" fill="#fff"/>
    <path id="Path_8340" data-name="Path 8340" d="M684.985,1725.52a1.841,1.841,0,1,1-1.841-1.841,1.84,1.84,0,0,1,1.841,1.841" transform="translate(-183.279 -151.957)" fill="#fff"/>
    <path id="Path_8341" data-name="Path 8341" d="M386.45,1435.455a73.388,73.388,0,0,1,35.5-8.871c36.375,0,65.866,24.872,65.866,58.1s-29.491,56.576-65.866,56.576" transform="translate(-31.701)" fill="none" stroke="#3b3b56" stroke-linecap="round" stroke-linejoin="round" stroke-width="4"/>
    <path id="Path_8342" data-name="Path 8342" d="M381.074,1558.073a38.814,38.814,0,0,1-2.269,9.558c-5.066,12.707-21.788,12.759-22.126,11.129-.237-1.151,8.39-4.389,10.978-13.631a26.319,26.319,0,0,0,.648-9.554,71.77,71.77,0,0,1-10.026-3.682c-20.217-9.211-33.895-27.257-33.895-49.888,0-16.614,7.372-31.139,19.293-41.511" transform="translate(0 -17.319)" fill="none" stroke="#3b3b56" stroke-linecap="round" stroke-linejoin="round" stroke-width="4"/>
  </g>
</svg>
