<svg xmlns="http://www.w3.org/2000/svg" width="72.261" height="72.261" viewBox="0 0 72.261 72.261">
  <g id="Group_3266" data-name="Group 3266" transform="translate(-203.217 -60.77)">
    <g id="Group_3265" data-name="Group 3265" transform="translate(203.217 60.77)">
      <path id="Path_6205" data-name="Path 6205" d="M345.632,60.77A36.131,36.131,0,1,0,381.763,96.9,36.13,36.13,0,0,0,345.632,60.77Zm20.672,11.2a54.167,54.167,0,0,0-5.518,3.738c-.28.215-.569.443-.864.68a49.1,49.1,0,0,0-6.193-6.349,48.437,48.437,0,0,0-4.11-3.16q-1.072-.737-2.184-1.414c-.418-.257-1.358-.8-1.628-.949A32.249,32.249,0,0,1,366.3,71.973Zm-20.6-5.553a46.614,46.614,0,0,1,8.317,6.181,49.341,49.341,0,0,1,4.589,4.877,42.208,42.208,0,0,0-8.793,10.164c-.223-.01-.447-.016-.673-.016h-7.33l-.091,0a42.314,42.314,0,0,0-8.878-10.23,47.858,47.858,0,0,1,11.12-9.917C344.164,67.355,345.548,66.327,345.706,66.42ZM327.359,110.9h-5.6c.058-3.5.135-7,.235-7.839q.3-2.51.84-4.981a50.021,50.021,0,0,1,1.32-4.831,49.225,49.225,0,0,1,4.03-9.083,48.8,48.8,0,0,1,2.684-4.189c.291-.407.59-.807.893-1.2a40.887,40.887,0,0,1,8.021,9.018,15.012,15.012,0,0,0-8.876,4.792,14.067,14.067,0,0,0-3.633,9.423ZM345.6,64.517c-.262.147-1.206.688-1.631.946a48.821,48.821,0,0,0-8.122,6.2,49.763,49.763,0,0,0-3.559,3.727q-.389.452-.767.916-.387-.309-.758-.594a53.894,53.894,0,0,0-5.687-3.837A32.249,32.249,0,0,1,345.6,64.517ZM320.368,102.2q-.334,2.544-.42,5.111-.013.4-.021.805c-.014.714.032,7.57.006,7.695v.794a32.374,32.374,0,0,1,3.75-43.508,52.5,52.5,0,0,1,6.752,4.593q-.7.917-1.354,1.861-1.366,1.968-2.542,4.059-1.185,2.107-2.167,4.319-.991,2.234-1.767,4.555-.785,2.348-1.343,4.765Q320.7,99.7,320.368,102.2Zm18.754,22.213a1.227,1.227,0,0,1-.321.423,1.458,1.458,0,0,1-.464.241,1.828,1.828,0,0,1-.539.08,2.539,2.539,0,0,1-.633-.085,3.261,3.261,0,0,1-.593-.214,4.9,4.9,0,0,1-.758.214,3.992,3.992,0,0,1-.763.085h-.623l-.125-.08v-.766l.125-.076h.963c.1,0,.2-.009.293-.018a1.271,1.271,0,0,1-.187-.366,1.717,1.717,0,0,1-.052-.442,1.623,1.623,0,0,1,.083-.5,1.421,1.421,0,0,1,.241-.42,1.106,1.106,0,0,1,.366-.293,1.02,1.02,0,0,1,.932,0,1.072,1.072,0,0,1,.366.293,1.415,1.415,0,0,1,.241.42,1.48,1.48,0,0,1,.084.5,1.4,1.4,0,0,1-.063.451,1.093,1.093,0,0,1-.2.375c.04,0,.085,0,.128,0h.134a1.989,1.989,0,0,0,.406-.035,1.037,1.037,0,0,0,.25-.094.306.306,0,0,0,.125-.111.254.254,0,0,0,.036-.112,1.852,1.852,0,0,0-.1-.534,2.194,2.194,0,0,0-.325-.611,3.108,3.108,0,0,0-.589-.6,3.187,3.187,0,0,0-.9-.473l.343-.767a4.126,4.126,0,0,1,.975.539,3.429,3.429,0,0,1,.705.7,3.009,3.009,0,0,1,.423.808,2.642,2.642,0,0,1,.142.838A1.408,1.408,0,0,1,339.122,124.408Zm3.157.744h-.7c-.009-.379-.031-.758-.068-1.146s-.08-.776-.142-1.159-.139-.758-.224-1.133-.182-.722-.285-1.06l.874-.268c.089.263.169.553.245.869s.134.647.182.987.09.682.116,1.029.045.678.045.994A7.762,7.762,0,0,1,342.279,125.153Zm.221-14.611c-.87.97-2.67,2.745-3.221,3.381s-2.766.592-2.766.592,1.816-1.507,2.821-2.25a38.193,38.193,0,0,0,3.585-3.792c.738-.8,2-2.381,2.365-2.836s1.511-1.658,1.511-1.658.653,1.209-1.02,3.215C345.092,108.014,343.369,109.572,342.5,110.542Zm-1.618-3.3c.293-.222.279-.637.288-1.02.02-.678-.374-1.29.252-1.821a1.738,1.738,0,0,1,1.77-.368c1.2.768-.581,2.557-1.123,3.169a9.546,9.546,0,0,1-2.264,1.871c-.506.293-1.846,1.264-2.411.753a.606.606,0,0,1-.152-.3c-.459-1.844.329-3.387,1.391-4.823a16.725,16.725,0,0,1,2.123-2.36c.116-.106.5-.521.657-.536.015,0-.015.05-.05.106a1.134,1.134,0,0,0-.081.116c-.323.551-2.629,4.564-2.659,5.292C338.591,108.1,340.407,107.6,340.881,107.24Zm3.6,4.524a.286.286,0,0,1,.142-.05l3.2-.329c1.391-.141,1.831-2,1.234-2.507s-1.173-.667-1.254-1.683c-.04-.471.693-2.345,2.376-1.481a3.958,3.958,0,0,0,1.906.409l.005-.37-.146-1.617c-1.083.212-.8-.541-.683-.9s.526-.257,1.5-.687a6.349,6.349,0,0,1,1.386-.567c-.005-.04.04,0,0,0l.217,1.658a.286.286,0,0,1-.212.3,2.862,2.862,0,0,0-.476.111c-.242.1-.172.192-.166.459a7.21,7.21,0,0,1-.127,1.577,1.887,1.887,0,0,1-.292.789c-.355.48-.987.576-1.4.975a15.681,15.681,0,0,0-1.218,1.33,5.219,5.219,0,0,0-.552,1.653c-.267,1.385-3.6,2.572-5.228,2.577C342.318,113.418,344.117,112.038,344.486,111.765Zm5.182-9.523c1.37-.926,1.536-1.123,1.486-.506l-.025.313a.6.6,0,0,1-.249.44,2.429,2.429,0,0,0-.778,1.031C349.728,104.425,348.3,103.172,349.668,102.241Zm-2.329,22.88a5.164,5.164,0,0,1-.531.066,4.988,4.988,0,0,1-.517.028,2.292,2.292,0,0,1-1.283-.3,1.011,1.011,0,0,1-.428-.883,1.241,1.241,0,0,1,.2-.673,1.519,1.519,0,0,1,.539-.527,1.161,1.161,0,0,1-.6-.321.75.75,0,0,1-.219-.552.974.974,0,0,1,.188-.562,1.884,1.884,0,0,1,.517-.5,3.4,3.4,0,0,1,.77-.37,4.3,4.3,0,0,1,.959-.21l-.182.871a4.469,4.469,0,0,0-.576.129,2.394,2.394,0,0,0-.472.187,1.289,1.289,0,0,0-.321.224.345.345,0,0,0-.116.236c0,.12.094.214.276.285a2.245,2.245,0,0,0,.758.1c.1,0,.2,0,.272,0a.685.685,0,0,0,.174-.019l-.08.758a2.6,2.6,0,0,0-.973.281.593.593,0,0,0-.342.5c0,.142.092.254.28.335a2.1,2.1,0,0,0,.8.115c.174,0,.361-.009.557-.026a5.009,5.009,0,0,0,.527-.071Zm4.365-3.812c-.17-.017-.335-.035-.5-.044s-.335-.019-.5-.019a7.676,7.676,0,0,0-.9.05c.054.227.107.468.156.722s.085.508.116.767.057.514.076.767.026.491.026.713a7.84,7.84,0,0,1-.049.888h-.7a17.283,17.283,0,0,0-.2-2.269,15.074,15.074,0,0,0-.495-2.158l.562-.3a6.352,6.352,0,0,1,.651-.075c.218-.019.441-.028.664-.028.2,0,.4.009.606.028s.4.035.589.063Zm4.333.113c-.106.316-.219.673-.343,1.06l-.387,1.266c-.138.451-.281.919-.42,1.4h-.736c-.142-.446-.281-.865-.415-1.263s-.272-.775-.409-1.145-.281-.727-.428-1.074-.3-.7-.459-1.058l.874-.281c.089.21.188.456.295.741s.214.579.325.9.215.628.321.949.2.619.281.9c.139-.606.29-1.2.446-1.775s.317-1.145.486-1.712l.843.281C356.229,120.832,356.139,121.1,356.037,121.421Zm13.55-3.123v0l0,.394h0a32.556,32.556,0,0,1-3.849,3.6v-4.739l-7.818,0V104.032a9.619,9.619,0,0,0-9.62-9.621h-5.634a9.622,9.622,0,0,0-9.621,9.621v13.522l-7.737,0v4.557a32.585,32.585,0,0,1-3.658-3.456c.014-.793.039-3.06.077-5.638h7.738l-.017-2.11-.071-8.915a12.575,12.575,0,0,1,12.794-12.3h6.84a12.578,12.578,0,0,1,12.79,12.318v11.005h7.814C369.6,115.395,369.59,117.754,369.587,118.3Zm.029-7.393H363.9v-8.9a14.428,14.428,0,0,0-9.672-13.485l-.016-.005c-.067-.025-.134-.049-.2-.071l-.194-.066a15.171,15.171,0,0,0-2.077-.523,41.382,41.382,0,0,1,7.971-8.98q.625.831,1.21,1.693a52.363,52.363,0,0,1,3.76,6.492,49.268,49.268,0,0,1,2.587,6.5,50.065,50.065,0,0,1,1.655,6.847,51.153,51.153,0,0,1,.691,7.106C369.621,107.809,369.62,109.2,369.616,110.9Zm1.374-8.132a52.012,52.012,0,0,0-1.275-6.87,51.276,51.276,0,0,0-5.073-12.582q-.826-1.455-1.746-2.853c-.589-.9-1.211-1.782-1.861-2.651l-.018-.023a52.846,52.846,0,0,1,6.676-4.6,32.379,32.379,0,0,1,3.627,43.428c.008-2.726.015-6.483.019-6.686A53,53,0,0,0,370.989,102.773Z" transform="translate(-309.502 -60.77)" fill="#007580"/>
      <ellipse id="Ellipse_462" data-name="Ellipse 462" cx="0.419" cy="0.519" rx="0.419" ry="0.519" transform="translate(26.674 62.087)" fill="#007580"/>
    </g>
  </g>
</svg>
