<svg xmlns="http://www.w3.org/2000/svg" width="24" height="21.003" viewBox="0 0 24 21.003">
  <path id="upload" d="M15,19v5.077a1.033,1.033,0,0,1-.107.517.727.727,0,0,1-.3.3,1.033,1.033,0,0,1-.517.107h-.147a1.033,1.033,0,0,1-.517-.107.727.727,0,0,1-.3-.3A1.033,1.033,0,0,1,13,24.077V19H5.5a3.5,3.5,0,0,1-1.239-6.774,3,3,0,0,1,4.11-3.895A6.5,6.5,0,0,1,20.5,8a5.5,5.5,0,0,1,0,11Zm0,0V12.581l2.5,2,.921.738a.82.82,0,0,0,1.153-.127l.256-.32a.77.77,0,0,0-.119-1.082l-.086-.07-5-4a1,1,0,0,0-1.249,0l-5,4-.086.069a.77.77,0,0,0-.119,1.082l.256.32a.82.82,0,0,0,1.153.127l.92-.739,2.5-2V19Z" transform="translate(-2 -4)" fill="#7d6efe" fill-rule="evenodd"/>
</svg>
