<svg xmlns="http://www.w3.org/2000/svg" width="51.896" height="15.906" viewBox="0 0 51.896 15.906">
    <path fill="#2a3693" d="M37.722 8.973a10.793 10.793 0 0 0-3.762-.651c-4.152 0-7.082 2.093-7.1 5.092-.026 2.206 2.084 3.447 3.678 4.186 1.637.757 2.184 1.233 2.18 1.914-.011 1.031-1.308 1.5-2.513 1.5a8.889 8.889 0 0 1-3.959-.811l-.517-.24-.586 3.455a14.052 14.052 0 0 0 4.7.811c4.413 0 7.3-2.078 7.332-5.274.035-1.758-1.1-3.092-3.505-4.191-1.457-.714-2.366-1.191-2.366-1.916 0-.64.776-1.323 2.4-1.323a7.7 7.7 0 0 1 3.146.59l.389.175.586-3.339-.1.022zM48.5 8.605h-3.247a2.1 2.1 0 0 0-2.208 1.278l-6.238 14.129h4.413l.88-2.312h5.384c.132.541.519 2.309.519 2.309H51.9L48.5 8.605zm-27.608-.13h4.2l-2.63 15.416h-4.2l2.626-15.42zm-10.68 8.5l.437 2.141 4.107-10.511h4.452L12.589 23.99H8.148L4.515 10.96a.86.86 0 0 0-.389-.512A17.756 17.756 0 0 0 0 8.919l.054-.324h6.77A1.759 1.759 0 0 1 8.734 9.9l1.475 7.077v-.006zm33.1 1.572l1.676-4.312c-.022.043.346-.891.558-1.47l.288 1.33.971 4.448h-3.496z" transform="translate(0 -8.322)"/>
</svg>
