<svg xmlns="http://www.w3.org/2000/svg" width="70" height="65.622" viewBox="0 0 70 65.622">
  <g id="check" transform="translate(0 -0.689)">
    <g id="icon" transform="translate(17 17)">
      <circle id="circle" cx="18" cy="18" r="18" transform="translate(0 -0.311)" fill="#fff"/>
      <path id="_Icon-Color" data-name="🔹Icon-Color" d="M29.481,11.416l.154.154a1.7,1.7,0,0,1,0,2.407L20.109,23.52a1.7,1.7,0,0,1-2.407,0l-5.275-5.275a1.7,1.7,0,0,1,0-2.407l.154-.154a1.7,1.7,0,0,1,2.407,0l3.926,3.926,8.16-8.177A1.685,1.685,0,0,1,29.481,11.416Z" transform="translate(-3.045 0.374)" fill="#18b68a" fill-rule="evenodd"/>
    </g>
    <g id="_595067" data-name="595067" transform="translate(0 -23.257)">
      <path id="Path_8449" data-name="Path 8449" d="M212.674,29.417l25.662,43.773a10.743,10.743,0,0,1,1.482,5.453,11.01,11.01,0,0,1-11.093,10.925H203.064l-8.875-32.811,8.875-32.811A11.117,11.117,0,0,1,212.674,29.417Z" transform="translate(-169.819)" fill="#3b4145"/>
      <path id="Path_8450" data-name="Path 8450" d="M27.145,29.417,1.482,73.191A10.745,10.745,0,0,0,0,78.644,11.01,11.01,0,0,0,11.093,89.568H36.755V23.946A11.117,11.117,0,0,0,27.145,29.417Z" fill="#3b4145"/>
      <path id="Path_8451" data-name="Path 8451" d="M288.569,101.822,262.907,58.153a6.7,6.7,0,0,0-5.578-3.275l21.948,56.745H282.8a6.607,6.607,0,0,0,6.656-6.539A6.448,6.448,0,0,0,288.569,101.822Z" transform="translate(-223.894 -26.491)" fill="#ebb749"/>
      <path id="Path_8452" data-name="Path 8452" d="M86.873,101.8a7.6,7.6,0,0,1,.721,3.261c0,3.605-2.425,6.539-5.407,6.539H37.174a6.416,6.416,0,0,1-6.268-6.539,6.758,6.758,0,0,1,.836-3.261L55.907,58.127a6.252,6.252,0,0,1,5.432-3.28q.09,0,.18,0a5.382,5.382,0,0,1,4.506,3.275Z" transform="translate(-26.469 -26.464)" fill="#fdc54f"/>
      <path id="Path_8453" data-name="Path 8453" d="M256,354.131v7.4a3.7,3.7,0,1,0,0-7.4Z" transform="translate(-221.093 -283.589)" fill="#3b4145"/>
      <path id="Path_8454" data-name="Path 8454" d="M233.943,354.131c.408,0,.74,1.655.74,3.7s-.331,3.7-.74,3.7a3.7,3.7,0,0,1,0-7.4Z" transform="translate(-198.868 -283.589)" fill="#3b4145"/>
      <path id="Path_8455" data-name="Path 8455" d="M256,132.646v27.363a3.7,3.7,0,0,0,3.7-3.7V136.344A3.7,3.7,0,0,0,256,132.646Z" transform="translate(-221.093 -93.496)" fill="#3b4145"/>
      <path id="Path_8456" data-name="Path 8456" d="M233.943,132.646c.408,0,.74,1.655.74,3.7v19.968c0,2.041-.331,3.7-.74,3.7a3.7,3.7,0,0,1-3.7-3.7V136.344A3.7,3.7,0,0,1,233.943,132.646Z" transform="translate(-198.868 -93.496)" fill="#3b4145"/>
    </g>
  </g>
</svg>
