<svg xmlns="http://www.w3.org/2000/svg" width="19.658" height="17.489" viewBox="0 0 19.658 17.489">
  <path id="warning" d="M21.171,15.4,15.259,5.544A3.834,3.834,0,0,0,12,3.511,3.836,3.836,0,0,0,8.741,5.542L2.829,15.4a3.739,3.739,0,0,0-.235,3.83A3.739,3.739,0,0,0,6,21H18a3.741,3.741,0,0,0,3.406-1.771A3.741,3.741,0,0,0,21.171,15.4ZM12,17.549A1.55,1.55,0,1,1,13.55,16,1.552,1.552,0,0,1,12,17.549Zm1.633-7.424c-.011.031-1.4,3.468-1.4,3.468a.249.249,0,0,1-.462,0l-1.391-3.438A1.776,1.776,0,0,1,10.25,9.5a1.75,1.75,0,1,1,3.383.625Z" transform="translate(-2.171 -3.511)" fill="#fff"/>
</svg>
