<svg xmlns="http://www.w3.org/2000/svg" width="28" height="28" viewBox="0 0 28 28">
  <g id="sign" transform="translate(-8 -8)">
    <path id="Path_4943" data-name="Path 4943" d="M22,8A14,14,0,1,0,36,22,14,14,0,0,0,22,8Zm0,5.833a1.75,1.75,0,1,1-1.75,1.75A1.75,1.75,0,0,1,22,13.833Zm2.567,14.292-3.022,1.867a1.206,1.206,0,0,1-1.82-1.167v-.3l.887-7.082-1.54.14a.572.572,0,0,1-.572-.513.6.6,0,0,1,.268-.525l3.01-1.867a1.206,1.206,0,0,1,1.82,1.167v.3l-.887,7.082,1.54-.14a.56.56,0,0,1,.607.513.583.583,0,0,1-.292.525Z" transform="translate(0 0)" fill="#fdc54f"/>
  </g>
</svg>
