<svg xmlns="http://www.w3.org/2000/svg" width="20.001" height="17.188" viewBox="0 0 20.001 17.188">
  <g id="wifi_1_" transform="translate(-2 -3.406)">
    <g id="Group_3931" data-name="Group 3931">
      <path id="Path_6323" data-name="Path 6323" d="M12,20.594a3,3,0,1,1,3-3A3,3,0,0,1,12,20.594Zm0-4a1,1,0,1,0,1,1A1,1,0,0,0,12,16.594Z" fill="#fff"/>
    </g>
    <g id="Group_3932" data-name="Group 3932">
      <path id="Path_6324" data-name="Path 6324" d="M15.688,14.434a1,1,0,0,1-.753-.342,3.887,3.887,0,0,0-5.869,0A1,1,0,1,1,7.56,12.775a5.888,5.888,0,0,1,8.881,0,1,1,0,0,1-.753,1.658Z" fill="#fff"/>
    </g>
    <g id="Group_3933" data-name="Group 3933">
      <path id="Path_6325" data-name="Path 6325" d="M18.345,12.109a1,1,0,0,1-.773-.365,7.153,7.153,0,0,0-11.143,0,1,1,0,0,1-1.545-1.269,9.151,9.151,0,0,1,14.232,0,1,1,0,0,1-.771,1.635Z" fill="rgba(255,255,255,0.33)"/>
    </g>
    <g id="Group_3934" data-name="Group 3934" opacity="0.128">
      <path id="Path_6326" data-name="Path 6326" d="M21,9.78a1,1,0,0,1-.781-.374,10.445,10.445,0,0,0-16.439,0A1,1,0,0,1,2.22,8.154a12.447,12.447,0,0,1,19.561,0A1,1,0,0,1,21,9.78Z" fill="#fff"/>
    </g>
  </g>
</svg>
