<svg xmlns="http://www.w3.org/2000/svg" width="26" height="26" viewBox="0 0 26 26">
  <g id="clock" transform="translate(-0.399 -0.399)">
    <rect id="bound" width="26" height="26" transform="translate(0.399 0.399)" fill="none"/>
    <path id="Subtraction_4" data-name="Subtraction 4" d="M-12423.551-1969.5a10.062,10.062,0,0,1-10.051-10.051,10.061,10.061,0,0,1,10.051-10.048,10.059,10.059,0,0,1,10.048,10.048A10.061,10.061,0,0,1-12423.551-1969.5Zm-.04-16.192a.56.56,0,0,0-.559.515l-.483,6.285a.557.557,0,0,0,.411.58l5.158,1.407a.419.419,0,0,0,.112.016.427.427,0,0,0,.425-.427v-.234a.559.559,0,0,0-.281-.484l-3.626-2.075-.508-5.08a.556.556,0,0,0-.556-.5Z" transform="translate(12436.95 1994.067)" fill="#fdc54f"/>
  </g>
</svg>
