<svg xmlns="http://www.w3.org/2000/svg" xmlns:xlink="http://www.w3.org/1999/xlink" width="20" height="20" viewBox="0 0 20 20">
  <defs>
    <clipPath id="clip-path">
      <rect id="Rectangle_7003" data-name="Rectangle 7003" width="20" height="20" transform="translate(0 0)" fill="none"/>
    </clipPath>
  </defs>
  <g id="Mask_Group_361" data-name="Mask Group 361" transform="translate(0 0)" clip-path="url(#clip-path)">
    <path id="chevron_right_FILL0_wght400_GRAD0_opsz48" d="M.369,19.422A1.6,1.6,0,0,1,0,18.469a1.172,1.172,0,0,1,.368-.909L7.99,9.939.326,2.274A1.192,1.192,0,0,1,0,1.343,1.332,1.332,0,0,1,.369.412,1.223,1.223,0,0,1,1.3,0a1.308,1.308,0,0,1,.888.411l8.617,8.617a1.319,1.319,0,0,1,.3.433,1.353,1.353,0,0,1,0,.953,1.319,1.319,0,0,1-.3.433L2.231,19.422a1.172,1.172,0,0,1-.909.368A1.6,1.6,0,0,1,.369,19.422Z" transform="translate(5 0)" fill="#999"/>
  </g>
</svg>
