<svg id="ico_24_communication_call" data-name="ico / 24 / communication / call" xmlns="http://www.w3.org/2000/svg" width="20" height="20" viewBox="0 0 20 20">
  <rect id="Bounding_box" data-name="Bounding box" width="20" height="20" fill="rgba(255,255,255,0)"/>
  <path id="Icon_color" data-name="Icon color" d="M14,18a10.07,10.07,0,0,1-4.74-1.19l-.45-.25a18,18,0,0,1-7.33-7.33l-.25-.45A10.07,10.07,0,0,1,0,4v-.67a2,2,0,0,1,.59-1.42L2.28.222a.75.75,0,0,1,1.18.15l2.25,3.86a1,1,0,0,1-.16,1.21L3.66,7.332a.5.5,0,0,0-.09.59l.35.66a13.53,13.53,0,0,0,5.5,5.49l.66.36a.5.5,0,0,0,.59-.09l1.89-1.89a1,1,0,0,1,1.21-.16l3.86,2.25a.75.75,0,0,1,.15,1.18l-1.69,1.69a2,2,0,0,1-1.42.59Z" transform="translate(1 0)" fill="#242424"/>
</svg>
