<svg xmlns="http://www.w3.org/2000/svg" width="22.002" height="22.002" viewBox="0 0 22.002 22.002">
  <path id="Icon_color" data-name="Icon color" d="M17.111,22a12.308,12.308,0,0,1-5.793-1.454l-.55-.306a22,22,0,0,1-8.959-8.959l-.306-.55A12.308,12.308,0,0,1,0,4.891V4.072A2.444,2.444,0,0,1,.721,2.337L2.787.271A.917.917,0,0,1,4.229.454l2.75,4.718a1.222,1.222,0,0,1-.2,1.479l-2.31,2.31a.611.611,0,0,0-.11.721l.428.807a16.536,16.536,0,0,0,6.722,6.71l.807.44a.611.611,0,0,0,.721-.11l2.31-2.31a1.222,1.222,0,0,1,1.479-.2l4.718,2.75a.917.917,0,0,1,.183,1.442l-2.066,2.066A2.444,2.444,0,0,1,17.93,22Z" fill="#113740"/>
</svg>
