<svg id="ico_24_social_media_tools_facebook" data-name="ico / 24 / social media &amp; tools / facebook" xmlns="http://www.w3.org/2000/svg" width="14" height="14" viewBox="0 0 14 14">
  <rect id="Bounding_box" data-name="Bounding box" width="14" height="14" fill="none" opacity="0"/>
  <path id="Icon_color" data-name="Icon color" d="M7.6,2.333H5.2a.789.789,0,0,0-.8.778V5.444H7.6a.283.283,0,0,1,.231.11.266.266,0,0,1,.041.247L7.28,7.513a.4.4,0,0,1-.376.264H4.4v5.833A.4.4,0,0,1,4,14H2a.4.4,0,0,1-.4-.389V7.778H.4A.4.4,0,0,1,0,7.389V5.833a.4.4,0,0,1,.4-.389H1.6V3.111A3.156,3.156,0,0,1,4.8,0H7.6A.4.4,0,0,1,8,.389V1.944A.4.4,0,0,1,7.6,2.333Z" transform="translate(3 0)" fill="#fff"/>
</svg>
