<svg id="Icon" xmlns="http://www.w3.org/2000/svg" width="20" height="20" viewBox="0 0 20 20">
  <rect id="Bounding_box" data-name="Bounding box" width="20" height="20" fill="rgba(255,255,255,0)"/>
  <path id="Icon_color" data-name="Icon color" d="M10.12,18H9.743a.744.744,0,0,1-.526-.214L6.952,15.568c-.185-.181-.386-.376-.6-.583C3.975,12.691,0,8.85,0,5.351A5.414,5.414,0,0,1,5.462,0,6.409,6.409,0,0,1,9.932,2.014,6.406,6.406,0,0,1,14.4,0a5.364,5.364,0,0,1,5.044,3.294,5.662,5.662,0,0,1,.419,2.057c0,3.5-3.975,7.339-6.351,9.634-.215.207-.416.4-.6.583l-2.264,2.218A.744.744,0,0,1,10.12,18ZM5.462,1.946A3.445,3.445,0,0,0,1.986,5.351c0,2.711,3.89,6.466,5.76,8.27l2.185,2.111,2.184-2.111c1.87-1.8,5.76-5.559,5.76-8.27a3.39,3.39,0,0,0-1.029-2.418A3.491,3.491,0,0,0,14.4,1.946H14.37a5.063,5.063,0,0,0-3.784,2.238.51.51,0,0,1-.4.194H9.743a.768.768,0,0,1-.6-.283A4.961,4.961,0,0,0,5.462,1.946Z" transform="translate(0 1)" fill="#242424"/>
</svg>
