<svg xmlns="http://www.w3.org/2000/svg" width="20" height="18.5" viewBox="0 0 20 18.5">
  <path id="Icon_color" data-name="Icon color" d="M10.19,18.5H9.81a.76.76,0,0,1-.53-.221L7,16c-.186-.186-.389-.386-.6-.6C4,13.043,0,9.1,0,5.5A5.506,5.506,0,0,1,5.5,0,6.391,6.391,0,0,1,10,2.07,6.392,6.392,0,0,1,14.5,0,5.506,5.506,0,0,1,20,5.5c0,3.6-4,7.543-6.4,9.9-.216.213-.419.413-.6.6l-2.28,2.28A.76.76,0,0,1,10.19,18.5ZM5.5,2A3.5,3.5,0,0,0,2,5.5c0,1.194.72,2.72,2.139,4.535A42.66,42.66,0,0,0,7.8,14L10,16.17,12.2,14a42.736,42.736,0,0,0,3.661-3.965C17.28,8.22,18,6.694,18,5.5a3.524,3.524,0,0,0-1.036-2.486A3.477,3.477,0,0,0,14.5,2h-.03A5.086,5.086,0,0,0,10.66,4.3a.515.515,0,0,1-.4.2H9.81a.768.768,0,0,1-.6-.29A4.976,4.976,0,0,0,5.5,2Z" transform="translate(0 0)" fill="#242424"/>
</svg>
