<svg xmlns="http://www.w3.org/2000/svg" width="20.998" height="21" viewBox="0 0 20.998 21">
  <path id="Icon_color" data-name="Icon color" d="M3.5,21a3.5,3.5,0,0,1-1.166-6.793V.593A.583.583,0,0,1,2.917.01H4.084a.584.584,0,0,1,.584.583V14.205A3.5,3.5,0,0,1,3.5,21Zm0-4.672a1.166,1.166,0,1,0,1.166,1.165A1.167,1.167,0,0,0,3.5,16.326Zm14.582,4.663H16.916a.583.583,0,0,1-.583-.583V6.793a3.5,3.5,0,1,1,2.333,0V20.406A.583.583,0,0,1,18.083,20.989ZM17.5,2.341a1.165,1.165,0,1,0,1.166,1.165A1.167,1.167,0,0,0,17.5,2.341ZM11.084,20.989H9.917a.584.584,0,0,1-.584-.583V13.785a3.495,3.495,0,0,1,0-6.573V.593A.584.584,0,0,1,9.917.01h1.166a.583.583,0,0,1,.583.583v6.62a3.494,3.494,0,0,1,0,6.573v6.621A.583.583,0,0,1,11.084,20.989ZM10.5,9.334A1.165,1.165,0,1,0,11.666,10.5,1.167,1.167,0,0,0,10.5,9.334Z" transform="translate(20.998) rotate(90)" fill="#242424"/>
</svg>
