<svg xmlns="http://www.w3.org/2000/svg" xmlns:xlink="http://www.w3.org/1999/xlink" width="284.965" height="231.219" viewBox="0 0 284.965 231.219">
  <defs>
    <clipPath id="clip-path">
      <path id="Path_3456" data-name="Path 3456" d="M80.322,0A80.322,80.322,0,1,1,0,80.322,80.322,80.322,0,0,1,80.322,0Z" fill="#f0ecf8"/>
    </clipPath>
  </defs>
  <g id="illustration" transform="translate(1)">
    <g id="Group_4673" data-name="Group 4673" transform="translate(0 0)">
      <g id="Group_3576" data-name="Group 3576" transform="matrix(0.921, 0.391, -0.391, 0.921, 211.453, 0)">
        <path id="Path_5" data-name="Path 5" d="M10.144,4.232H8.717A.914.914,0,0,1,7.8,3.315V1.888A1.846,1.846,0,0,0,6.118,0,1.8,1.8,0,0,0,4.232,1.786V3.315a.914.914,0,0,1-.917.917H1.888A1.846,1.846,0,0,0,0,5.914,1.8,1.8,0,0,0,1.786,7.8H3.315a.914.914,0,0,1,.917.917v1.427A1.846,1.846,0,0,0,5.914,12.03,1.8,1.8,0,0,0,7.8,10.246V8.717A.914.914,0,0,1,8.717,7.8h1.529A1.8,1.8,0,0,0,12.03,5.914,1.885,1.885,0,0,0,10.144,4.232Z" transform="translate(0 0)" fill="#feeb72"/>
      </g>
      <g id="Group_3577" data-name="Group 3577" transform="translate(236.464 130.643) rotate(16)">
        <path id="Path_5-2" data-name="Path 5" d="M5.379,2.244H4.622a.484.484,0,0,1-.486-.486V1a.979.979,0,0,0-.892-1,.953.953,0,0,0-1,.946v.811a.484.484,0,0,1-.486.486H1a.979.979,0,0,0-1,.892.953.953,0,0,0,.946,1h.811a.484.484,0,0,1,.486.486v.757a.979.979,0,0,0,.892,1,.953.953,0,0,0,1-.946V4.622a.484.484,0,0,1,.486-.486h.811a.953.953,0,0,0,.946-1A1,1,0,0,0,5.379,2.244Z" transform="translate(0 0)" fill="rgba(125,90,195,0.5)"/>
      </g>
      <g id="Group_3578" data-name="Group 3578" transform="matrix(0.875, -0.485, 0.485, 0.875, 269.311, 72.552)">
        <path id="Path_5-3" data-name="Path 5" d="M4.59,1.915H3.944A.413.413,0,0,1,3.529,1.5V.854A.835.835,0,0,0,2.768,0a.813.813,0,0,0-.853.807V1.5a.413.413,0,0,1-.415.415H.854A.835.835,0,0,0,0,2.676a.813.813,0,0,0,.807.853H1.5a.413.413,0,0,1,.415.415V4.59a.835.835,0,0,0,.761.853.813.813,0,0,0,.853-.807V3.944a.413.413,0,0,1,.415-.415h.692a.813.813,0,0,0,.807-.853A.853.853,0,0,0,4.59,1.915Z" transform="translate(0 0)" fill="rgba(125,90,195,0.5)"/>
      </g>
      <g id="Group_3579" data-name="Group 3579" transform="matrix(0.875, -0.485, 0.485, 0.875, 207.079, 106.401)">
        <path id="Path_5-4" data-name="Path 5" d="M2.413,1.007H2.073A.217.217,0,0,1,1.855.788V.449A.439.439,0,0,0,1.455,0a.427.427,0,0,0-.448.424V.788a.217.217,0,0,1-.218.218H.449a.439.439,0,0,0-.448.4.427.427,0,0,0,.424.448H.788a.217.217,0,0,1,.218.218v.339a.439.439,0,0,0,.4.448.427.427,0,0,0,.448-.424V2.073a.217.217,0,0,1,.218-.218h.364a.427.427,0,0,0,.424-.448A.448.448,0,0,0,2.413,1.007Z" transform="translate(0 0)" fill="#d1dcfc"/>
      </g>
      <g id="Group_3580" data-name="Group 3580" transform="translate(85.79 61.608) rotate(13)">
        <path id="Path_5-5" data-name="Path 5" d="M3.481,1.452h-.49a.314.314,0,0,1-.315-.315V.648A.634.634,0,0,0,2.1,0a.617.617,0,0,0-.647.612v.525a.314.314,0,0,1-.315.315H.648A.634.634,0,0,0,0,2.03a.617.617,0,0,0,.612.647h.525a.314.314,0,0,1,.315.315v.49a.634.634,0,0,0,.577.647.617.617,0,0,0,.647-.612V2.992a.314.314,0,0,1,.315-.315h.525a.617.617,0,0,0,.612-.647A.647.647,0,0,0,3.481,1.452Z" transform="translate(0 0)" fill="rgba(125,90,195,0.5)"/>
      </g>
      <g id="Group_3581" data-name="Group 3581" transform="translate(156.085 24.552) rotate(-51)">
        <path id="Path_5-6" data-name="Path 5" d="M4.655,1.942H4a.419.419,0,0,1-.421-.421V.866A.847.847,0,0,0,2.807,0,.824.824,0,0,0,1.942.82v.7a.419.419,0,0,1-.421.421H.866A.847.847,0,0,0,0,2.714a.824.824,0,0,0,.818.865h.7A.419.419,0,0,1,1.942,4v.655a.847.847,0,0,0,.772.865A.824.824,0,0,0,3.579,4.7V4A.419.419,0,0,1,4,3.579h.7a.824.824,0,0,0,.818-.865A.865.865,0,0,0,4.655,1.942Z" transform="translate(0 0)" fill="rgba(125,90,195,0.5)"/>
      </g>
      <g id="Group_3583" data-name="Group 3583" transform="translate(85.79 94.955) rotate(13)">
        <path id="Path_5-7" data-name="Path 5" d="M3.481,1.452h-.49a.314.314,0,0,1-.315-.315V.648A.634.634,0,0,0,2.1,0a.617.617,0,0,0-.647.612v.525a.314.314,0,0,1-.315.315H.648A.634.634,0,0,0,0,2.03a.617.617,0,0,0,.612.647h.525a.314.314,0,0,1,.315.315v.49a.634.634,0,0,0,.577.647.617.617,0,0,0,.647-.612V2.992a.314.314,0,0,1,.315-.315h.525a.617.617,0,0,0,.612-.647A.647.647,0,0,0,3.481,1.452Z" transform="translate(0 0)" fill="#d1dcfc"/>
      </g>
      <g id="Ellipse_51" data-name="Ellipse 51" transform="translate(199.76 62.358)" fill="none" stroke="#c6c3cd" stroke-width="0.75">
        <circle cx="1.434" cy="1.434" r="1.434" stroke="none"/>
        <circle cx="1.434" cy="1.434" r="1.059" fill="none"/>
      </g>
      <g id="Ellipse_52" data-name="Ellipse 52" transform="translate(192.212 80.461)" fill="none" stroke="#d1dcfc" stroke-width="0.75">
        <circle cx="1.434" cy="1.434" r="1.434" stroke="none"/>
        <circle cx="1.434" cy="1.434" r="1.059" fill="none"/>
      </g>
      <g id="Ellipse_53" data-name="Ellipse 53" transform="translate(101.609 37.579)" fill="#fff" stroke="#f38395" stroke-width="2">
        <circle cx="5.259" cy="5.259" r="5.259" stroke="none"/>
        <circle cx="5.259" cy="5.259" r="4.259" fill="none"/>
      </g>
      <g id="Ellipse_54" data-name="Ellipse 54" transform="translate(270.329 97.599)" fill="#fff" stroke="#c6eff8" stroke-width="2">
        <circle cx="5.259" cy="5.259" r="5.259" stroke="none"/>
        <circle cx="5.259" cy="5.259" r="4.259" fill="none"/>
      </g>
      <g id="Ellipse_55" data-name="Ellipse 55" transform="translate(232.144 162.393)" fill="none" stroke="#ffe471" stroke-width="1.5">
        <circle cx="3.347" cy="3.347" r="3.347" stroke="none"/>
        <circle cx="3.347" cy="3.347" r="2.597" fill="none"/>
      </g>
      <g id="Ellipse_56" data-name="Ellipse 56" transform="translate(185.574 39.487)" fill="none" stroke="#ffe471" stroke-width="1.5">
        <circle cx="3.347" cy="3.347" r="3.347" stroke="none"/>
        <circle cx="3.347" cy="3.347" r="2.597" fill="none"/>
      </g>
      <path id="Path_3453" data-name="Path 3453" d="M0,7.4,4.283,0,8.566,7.4Z" transform="translate(273.497 135.218) rotate(7)" fill="none" stroke="#f38395" stroke-linecap="round" stroke-width="2"/>
      <path id="Path_3454" data-name="Path 3454" d="M0,5.917,3.426,0,6.852,5.917Z" transform="matrix(0.94, 0.342, -0.342, 0.94, 233.934, 82.508)" fill="none" stroke="#6fc483" stroke-linecap="round" stroke-width="1.75"/>
      <path id="Path_3455" data-name="Path 3455" d="M0,2.748,1.591,0,3.182,2.748Z" transform="translate(220.118 81.66) rotate(-25)" fill="none" stroke="#c6c3cd" stroke-linecap="round" stroke-width="0.75"/>
      <g id="Group_3573" data-name="Group 3573" transform="matrix(0.951, -0.309, 0.309, 0.951, 48.805, 86.149)">
        <path id="Path_5-8" data-name="Path 5" d="M8.691,3.626H7.468a.783.783,0,0,1-.786-.786V1.617A1.582,1.582,0,0,0,5.242,0,1.539,1.539,0,0,0,3.626,1.53V2.84a.783.783,0,0,1-.786.786H1.617A1.582,1.582,0,0,0,0,5.067,1.539,1.539,0,0,0,1.53,6.682H2.84a.783.783,0,0,1,.786.786V8.691a1.582,1.582,0,0,0,1.441,1.616A1.539,1.539,0,0,0,6.682,8.778V7.468a.783.783,0,0,1,.786-.786h1.31a1.539,1.539,0,0,0,1.528-1.616A1.615,1.615,0,0,0,8.691,3.626Z" transform="translate(0 0)" fill="#feeb72"/>
      </g>
      <g id="Group_3574" data-name="Group 3574" transform="matrix(0.966, 0.259, -0.259, 0.966, 0.302, 66.096)">
        <path id="Path_5-9" data-name="Path 5" d="M4.241,1.769h-.6a.382.382,0,0,1-.384-.384v-.6A.772.772,0,0,0,2.558,0a.751.751,0,0,0-.788.746v.639a.382.382,0,0,1-.384.384h-.6a.772.772,0,0,0-.788.7.751.751,0,0,0,.746.788h.639a.382.382,0,0,1,.384.384v.6a.772.772,0,0,0,.7.788.751.751,0,0,0,.788-.746V3.644a.382.382,0,0,1,.384-.384h.639a.751.751,0,0,0,.746-.788A.788.788,0,0,0,4.241,1.769Z" transform="translate(0)" fill="#f98585"/>
      </g>
      <g id="Group_3575" data-name="Group 3575" transform="translate(65.259 42.876) rotate(30)">
        <path id="Path_5-10" data-name="Path 5" d="M6.191,2.583H5.32a.558.558,0,0,1-.56-.56V1.152A1.127,1.127,0,0,0,3.734,0,1.1,1.1,0,0,0,2.583,1.09v.933a.558.558,0,0,1-.56.56H1.152A1.127,1.127,0,0,0,0,3.609,1.1,1.1,0,0,0,1.09,4.76h.933a.558.558,0,0,1,.56.56v.871A1.127,1.127,0,0,0,3.609,7.342,1.1,1.1,0,0,0,4.76,6.253V5.32a.558.558,0,0,1,.56-.56h.933A1.1,1.1,0,0,0,7.342,3.609,1.151,1.151,0,0,0,6.191,2.583Z" transform="translate(0 0)" fill="#28a745"/>
      </g>
      <g id="Group_3584" data-name="Group 3584" transform="translate(27.67 56.844) rotate(13)">
        <path id="Path_5-11" data-name="Path 5" d="M3.481,1.452h-.49a.314.314,0,0,1-.315-.315V.648A.634.634,0,0,0,2.1,0a.617.617,0,0,0-.647.612v.525a.314.314,0,0,1-.315.315H.648A.634.634,0,0,0,0,2.03a.617.617,0,0,0,.612.647h.525a.314.314,0,0,1,.315.315v.49a.634.634,0,0,0,.577.647.617.617,0,0,0,.647-.612V2.992a.314.314,0,0,1,.315-.315h.525a.617.617,0,0,0,.612-.647A.647.647,0,0,0,3.481,1.452Z" transform="translate(0 0)" fill="rgba(125,90,195,0.5)"/>
      </g>
      <g id="Group_3585" data-name="Group 3585" transform="translate(59.924 23.893) rotate(13)">
        <path id="Path_5-12" data-name="Path 5" d="M3.934,1.641H3.38a.354.354,0,0,1-.356-.356V.732A.716.716,0,0,0,2.372,0a.7.7,0,0,0-.731.692v.593a.354.354,0,0,1-.356.356H.732A.716.716,0,0,0,0,2.293a.7.7,0,0,0,.692.731h.593a.354.354,0,0,1,.356.356v.553a.716.716,0,0,0,.652.731.7.7,0,0,0,.731-.692V3.38a.354.354,0,0,1,.356-.356h.593a.7.7,0,0,0,.692-.731A.731.731,0,0,0,3.934,1.641Z" transform="translate(0 0)" fill="rgba(125,90,195,0.5)"/>
      </g>
      <g id="Ellipse_50" data-name="Ellipse 50" transform="translate(39.923 131.898)" fill="#fff" stroke="#e2f7fb" stroke-width="2.5">
        <circle cx="4.781" cy="4.781" r="4.781" stroke="none"/>
        <circle cx="4.781" cy="4.781" r="3.531" fill="none"/>
      </g>
      <path id="Path_4601" data-name="Path 4601" d="M80,0A80,80,0,1,1,0,80,80,80,0,0,1,80,0Z" transform="translate(64 55)" fill="#f0ecf8"/>
    </g>
    <g id="Group_6523" data-name="Group 6523" transform="matrix(0.454, -0.891, 0.891, 0.454, -411.485, 761.289)">
      <g id="Group_6519" data-name="Group 6519" transform="translate(766.238 152.04)">
        <g id="Group_6512" data-name="Group 6512" transform="translate(19.38)">
          <path id="Path_15173" data-name="Path 15173" d="M823.919,258.267a.662.662,0,0,1-.6-.374l-48.432-99.84a.664.664,0,0,1,.322-.894l11.074-5.06a.666.666,0,0,1,.774.166l39.186,44.491a.662.662,0,0,1,.159.345l8.043,55.805a.666.666,0,0,1-.378.7l-9.872,4.6A.644.644,0,0,1,823.919,258.267ZM776.381,158.085l47.849,98.641,8.832-4.117-7.944-55.122-38.73-43.972Z" transform="translate(-774.824 -152.04)" fill="#291e41"/>
          <path id="Path_15172" data-name="Path 15172" d="M825.573,197.021l-39.187-44.492-11.074,5.059,48.431,99.84,9.872-4.6Z" transform="translate(-774.648 -151.865)" fill="#fff"/>
        </g>
        <g id="Group_6513" data-name="Group 6513" transform="translate(0 49.439)">
          <path id="Path_15175" data-name="Path 15175" d="M785.836,229.436a.6.6,0,0,1-.086-.005l-11.111-1.437a.664.664,0,0,1-.579-.641l-.439-16.57-12.833-10.975a.663.663,0,0,1-.151-.823l5.582-10.2a.666.666,0,0,1,.944-.239l22.089,14.334a.666.666,0,0,1,.3.637l-3.058,25.34a.664.664,0,0,1-.659.584Zm-10.463-2.687,9.883,1.28,2.927-24.266-21.141-13.719-4.98,9.1,12.647,10.816a.657.657,0,0,1,.232.488Z" transform="translate(-760.557 -188.435)" fill="#291e41"/>
          <path id="Path_15174" data-name="Path 15174" d="M788.717,203.257l-22.09-14.334-5.581,10.2L774.1,210.294l.446,16.866L785.66,228.6Z" transform="translate(-760.382 -188.259)" fill="#fff"/>
        </g>
        <g id="Group_6514" data-name="Group 6514" transform="translate(7.135 28.214)">
          <path id="Path_15177" data-name="Path 15177" d="M772.806,222.379a7.818,7.818,0,0,1-4.177-1.091,5.76,5.76,0,0,1-2.783-3.964h0c-.3-2.952,1.308-6.213,4.2-8.512l.414-.333c2.514-2.021,3.274-2.631,36.293-21.094,1.21-.676,2.508-1.43,3.881-2.228,11.077-6.431,27.816-16.148,43.5-10.8a2.977,2.977,0,0,1,2.25,4.388c-4.218,12.616-17.38,18.127-30.107,23.456-1.649.69-3.355,1.4-5,2.118-12.461,5.409-24.165,9.8-34.49,13.666-3.1,1.161-6.019,2.256-8.8,3.317A14.565,14.565,0,0,1,772.806,222.379Zm-5.64-5.191a4.42,4.42,0,0,0,2.16,2.968c1.387.854,3.933,1.531,8.19-.1,2.781-1.062,5.705-2.159,8.8-3.32,10.31-3.865,22-8.246,34.427-13.641,1.651-.716,3.361-1.432,5.013-2.125,12.454-5.215,25.333-10.608,29.36-22.652a2.529,2.529,0,0,0,.167-1.661c-.224-.524-.928-.823-1.585-1.049-15.107-5.153-31.53,4.384-42.4,10.694-1.379.8-2.68,1.555-3.9,2.237-32.923,18.409-33.662,19-36.111,20.97l-.42.337c-1.991,1.583-4.011,4.342-3.706,7.337Z" transform="translate(-765.81 -172.81)" fill="#291e41"/>
          <path id="Path_15176" data-name="Path 15176" d="M766.331,217.085c-.31-3.029,1.523-5.993,3.953-7.925,2.9-2.305,1.88-1.941,36.619-21.367,11.134-6.226,29.559-18.871,46.837-12.978a2.345,2.345,0,0,1,1.834,3.55c-4.673,13.975-20.777,19.113-34.738,25.173-16.185,7.027-31.238,12.381-43.259,16.973C769.507,223.593,766.527,218.989,766.331,217.085Z" transform="translate(-765.635 -172.638)" fill="#fff"/>
        </g>
        <g id="Group_6515" data-name="Group 6515" transform="translate(74.247 32.263)">
          <path id="Path_15179" data-name="Path 15179" d="M821.743,190.269a2.493,2.493,0,0,1-2.43-1.569,3.433,3.433,0,0,1,.193-2.172c.076-.238.148-.463.194-.678a4.44,4.44,0,0,0-1.054-3.377,4.8,4.8,0,0,0-.97-.534,3.917,3.917,0,0,1-2.186-1.748,2.7,2.7,0,0,1,1.42-3.722h0c5.037-2.231,8.5,1.559,9.62,3.876,1.558,3.211.027,6.5-1.757,8.349a4.737,4.737,0,0,1-2.588,1.539A2.644,2.644,0,0,1,821.743,190.269Zm-1.818-13.148a6.1,6.1,0,0,0-2.478.562h0a1.368,1.368,0,0,0-.735,1.989c.188.442.9.772,1.524,1.064a5.325,5.325,0,0,1,1.29.744A5.708,5.708,0,0,1,821,186.127c-.06.278-.145.547-.228.807a2.375,2.375,0,0,0-.2,1.353,1.261,1.261,0,0,0,1.394.636,3.5,3.5,0,0,0,1.85-1.153c1.486-1.535,2.775-4.251,1.516-6.845C824.552,179.312,822.673,177.121,819.925,177.121Zm-2.747-.045h0Z" transform="translate(-815.214 -175.791)" fill="#291e41"/>
          <path id="Path_15178" data-name="Path 15178" d="M817,176.9c4.442-1.968,7.619,1.22,8.754,3.558,1.307,2.7.232,5.666-1.637,7.6A4.182,4.182,0,0,1,821.9,189.4a1.9,1.9,0,0,1-2.134-1.084c-.265-.811.227-1.664.406-2.5a5.092,5.092,0,0,0-1.262-4.011c-.72-.64-2.528-.969-2.986-2.046A2.037,2.037,0,0,1,817,176.9Z" transform="translate(-815.039 -175.614)" fill="#e5dff2"/>
        </g>
        <g id="Group_6516" data-name="Group 6516" transform="translate(25.409 7.548)">
          <path id="Path_15180" data-name="Path 15180" d="M783.382,166.123a.219.219,0,0,1-.2-.125l-3.9-8.084a.22.22,0,0,1,.1-.295.223.223,0,0,1,.3.1l3.9,8.084a.221.221,0,0,1-.1.295A.216.216,0,0,1,783.382,166.123Z" transform="translate(-779.262 -157.597)" fill="#291e41"/>
        </g>
        <g id="Group_6517" data-name="Group 6517" transform="translate(28.712 5.85)">
          <path id="Path_15181" data-name="Path 15181" d="M783.7,160.205a.223.223,0,0,1-.2-.12l-1.789-3.415a.221.221,0,1,1,.393-.205l1.789,3.415a.222.222,0,0,1-.092.3A.219.219,0,0,1,783.7,160.205Z" transform="translate(-781.693 -156.346)" fill="#291e41"/>
        </g>
        <g id="Group_6518" data-name="Group 6518" transform="translate(66.958 93.716)">
          <path id="Path_15182" data-name="Path 15182" d="M812.922,228.45a.22.22,0,0,1-.209-.147c-.834-2.354-1.79-4.7-2.845-6.961a.221.221,0,0,1,.4-.186c1.061,2.277,2.023,4.632,2.861,7a.221.221,0,0,1-.135.283A.23.23,0,0,1,812.922,228.45Z" transform="translate(-809.848 -221.029)" fill="#291e41"/>
        </g>
      </g>
    </g>
    <g id="Group_3634" data-name="Group 3634" transform="matrix(0.588, -0.809, 0.809, 0.588, 138.935, 192.501)">
      <path id="Path_3565" data-name="Path 3565" d="M95.428,314.794a.232.232,0,0,1-.2-.34,128.413,128.413,0,0,1,16.391-23.974.232.232,0,0,1,.351.3,127.993,127.993,0,0,0-16.332,23.887A.232.232,0,0,1,95.428,314.794Z" transform="translate(-95.196 -290.4)" fill="#291e41"/>
    </g>
    <g id="Group_3635" data-name="Group 3635" transform="matrix(0.588, -0.809, 0.809, 0.588, 135.37, 197.043)">
      <path id="Path_3566" data-name="Path 3566" d="M83.428,310.005a.232.232,0,0,1-.19-.364,137.879,137.879,0,0,1,16.494-19.62.232.232,0,1,1,.326.33,137.452,137.452,0,0,0-16.439,19.554A.231.231,0,0,1,83.428,310.005Z" transform="translate(-83.196 -289.955)" fill="#291e41"/>
    </g>
    <g id="Group_3636" data-name="Group 3636" transform="matrix(0.588, -0.809, 0.809, 0.588, 109.771, 214.491)">
      <path id="Path_3567" data-name="Path 3567" d="M22.785,283.086a.232.232,0,0,1-.035-.461,134.686,134.686,0,0,0,43.038-14.382.232.232,0,1,1,.219.409A135.134,135.134,0,0,1,22.82,283.083Z" transform="translate(-22.553 -268.215)" fill="#291e41"/>
    </g>
    <g id="Group_3637" data-name="Group 3637" transform="matrix(0.588, -0.809, 0.809, 0.588, 114.32, 215.959)">
      <path id="Path_3568" data-name="Path 3568" d="M25.874,303.624a.232.232,0,0,1-.122-.429l41.186-25.5a.232.232,0,0,1,.244.394L26,303.59A.231.231,0,0,1,25.874,303.624Z" transform="translate(-25.642 -277.662)" fill="#291e41"/>
    </g>
  </g>
</svg>
