<svg xmlns="http://www.w3.org/2000/svg" width="14.525" height="16" viewBox="0 0 14.525 16">
  <path id="home_FILL1_wght400_GRAD0_opsz48_1_" data-name="home_FILL1_wght400_GRAD0_opsz48 (1)" d="M5.9,19.83a1.356,1.356,0,0,1-1.362-1.362V9.617A1.354,1.354,0,0,1,4.687,9a1.292,1.292,0,0,1,.4-.477l5.9-4.426a1.352,1.352,0,0,1,1.634,0l5.9,4.426a1.292,1.292,0,0,1,.4.477,1.354,1.354,0,0,1,.148.613v8.851A1.356,1.356,0,0,1,17.7,19.83H13.617V13.475H9.986V19.83Z" transform="translate(-4.539 -3.83)" fill="#bfd4d9"/>
</svg>
