<svg xmlns="http://www.w3.org/2000/svg" width="24" height="24" viewBox="0 0 24 24">
  <path id="Icon_color" data-name="Icon color" d="M17.333,24H6.667A6.675,6.675,0,0,1,0,17.333V6.667A6.675,6.675,0,0,1,6.667,0H17.333A6.675,6.675,0,0,1,24,6.667V17.333A6.675,6.675,0,0,1,17.333,24ZM6.667,2.333A4.361,4.361,0,0,0,2.333,6.667V17.333a4.361,4.361,0,0,0,4.334,4.334H17.333a4.361,4.361,0,0,0,4.334-4.334V6.667a4.361,4.361,0,0,0-4.334-4.334ZM12,18A6,6,0,0,1,12,6h.013A6,6,0,0,1,12,18Zm0-9.667A3.667,3.667,0,1,0,15.667,12,3.671,3.671,0,0,0,12,8.333ZM18.334,7a1.333,1.333,0,1,1,1.333-1.333A1.335,1.335,0,0,1,18.334,7Z" fill="#113740"/>
</svg>
