<svg xmlns="http://www.w3.org/2000/svg" width="16" height="16" viewBox="0 0 16 16">
  <g id="Icon_" data-name="Icon " transform="translate(-1441 -846)">
    <rect id="Rectangle_7005" data-name="Rectangle 7005" width="16" height="16" transform="translate(1441 846)" fill="none"/>
    <g id="Group_76288" data-name="Group 76288" transform="translate(1441 846)">
      <g id="icon">
        <rect id="Rectangle_18551" data-name="Rectangle 18551" width="16" height="16" fill="none" opacity="0"/>
        <path id="menu_FILL1_wght700_GRAD0_opsz48" d="M6.147,22.55a.941.941,0,0,1-.711-.3,1.121,1.121,0,0,1,0-1.5.941.941,0,0,1,.711-.3H20.153a.941.941,0,0,1,.711.3,1.121,1.121,0,0,1,0,1.5.941.941,0,0,1-.711.3Zm0-4.939a.941.941,0,0,1-.711-.3,1.121,1.121,0,0,1,0-1.5.941.941,0,0,1,.711-.3H20.153a.941.941,0,0,1,.711.3,1.121,1.121,0,0,1,0,1.5.941.941,0,0,1-.711.3Zm0-4.939a.941.941,0,0,1-.711-.3,1.045,1.045,0,0,1-.286-.749,1.085,1.085,0,0,1,.286-.76.925.925,0,0,1,.711-.313H20.153a.925.925,0,0,1,.711.313,1.085,1.085,0,0,1,.286.76,1.045,1.045,0,0,1-.286.749.941.941,0,0,1-.711.3Z" transform="translate(-5.15 -8.55)" fill="#bfd4d9"/>
      </g>
    </g>
  </g>
</svg>
