<svg xmlns="http://www.w3.org/2000/svg" width="16" height="16" viewBox="0 0 16 16">
  <g id="Icon_" data-name="Icon " transform="translate(-1441 -850)">
    <rect id="Rectangle_7005" data-name="Rectangle 7005" width="16" height="16" transform="translate(1441 850)" fill="none" opacity="0"/>
    <path id="feed_FILL1_wght500_GRAD0_opsz48" d="M7.143,21.7A1.5,1.5,0,0,1,5.7,20.257V7.143A1.5,1.5,0,0,1,7.143,5.7h10.1L21.7,10.159v10.1A1.5,1.5,0,0,1,20.257,21.7Zm2.8-3.891H17.46a.678.678,0,1,0,0-1.355H9.94a.678.678,0,1,0,0,1.355Zm0-6.842h3.213a.672.672,0,0,0,.678-.678.619.619,0,0,0-.2-.47.674.674,0,0,0-.481-.186H9.94a.672.672,0,0,0-.678.678.629.629,0,0,0,.2.459A.654.654,0,0,0,9.94,10.968Zm0,3.41H17.46a.674.674,0,0,0,.481-.186.619.619,0,0,0,.2-.47.672.672,0,0,0-.678-.678H9.94a.672.672,0,0,0-.678.678.619.619,0,0,0,.2.47A.674.674,0,0,0,9.94,14.378Zm7.213-3.388h3.06l-3.8-3.8v3.06a.746.746,0,0,0,.743.743Z" transform="translate(1435.3 844.3)" fill="#3fc8e8"/>
  </g>
</svg>
