<svg xmlns="http://www.w3.org/2000/svg" xmlns:xlink="http://www.w3.org/1999/xlink" width="259" height="204" viewBox="0 0 259 204">
  <defs>
    <clipPath id="clip-path">
      <rect width="259" height="204" fill="none"/>
    </clipPath>
    <clipPath id="clip-path-2">
      <rect id="Rectangle_18586" data-name="Rectangle 18586" width="259" height="204" transform="translate(58 217)" fill="#fff"/>
    </clipPath>
  </defs>
  <g id="Group_76685" data-name="Group 76685" transform="translate(-58 -216)">
    <g id="Repeat_Grid_13" data-name="Repeat Grid 13" transform="translate(58 216)" clip-path="url(#clip-path)">
      <g transform="translate(-58 -216)">
        <g id="Mask_Group_76561" data-name="Mask Group 76561" transform="translate(0 -1)" clip-path="url(#clip-path-2)">
          <g id="Group_76684" data-name="Group 76684">
            <g id="undraw_searching_re_3ra9" transform="translate(78.109 217)">
              <path id="Path_57912" data-name="Path 57912" d="M147.475,144.618H68.992a11.977,11.977,0,0,1-11.964-11.964V54.171A11.977,11.977,0,0,1,68.992,42.207h78.483a11.977,11.977,0,0,1,11.964,11.964v78.483a11.977,11.977,0,0,1-11.964,11.964ZM68.992,44.121a10.05,10.05,0,0,0-10.05,10.05v78.483a10.05,10.05,0,0,0,10.05,10.05h54.976a33.557,33.557,0,0,0,33.557-33.557V54.171a10.05,10.05,0,0,0-10.05-10.05H68.992Z" fill="#f2f2f2"/>
              <path id="Path_57913" data-name="Path 57913" d="M77.453,52.283a6.744,6.744,0,0,0-6.736,6.736V69.563A6.744,6.744,0,0,0,77.453,76.3H88a6.744,6.744,0,0,0,6.736-6.736V59.019A6.744,6.744,0,0,0,88,52.283Z" fill="#f2f2f2"/>
              <path id="Path_57914" data-name="Path 57914" d="M77.453,81.965A6.744,6.744,0,0,0,70.716,88.7V99.245a6.744,6.744,0,0,0,6.736,6.736H88a6.744,6.744,0,0,0,6.736-6.736V88.7A6.744,6.744,0,0,0,88,81.965Z" fill="#f2f2f2"/>
              <path id="Path_57915" data-name="Path 57915" d="M77.453,111.647a6.744,6.744,0,0,0-6.736,6.736v10.544a6.744,6.744,0,0,0,6.736,6.736H88a6.744,6.744,0,0,0,6.736-6.736V118.384A6.744,6.744,0,0,0,88,111.647Z" fill="#f2f2f2"/>
              <g id="Group_76670" data-name="Group 76670">
                <path id="Path_57916" data-name="Path 57916" d="M84.445,26.558a8.5,8.5,0,0,0-8.488,8.488V48.332a8.5,8.5,0,0,0,8.488,8.488H97.73a8.5,8.5,0,0,0,8.488-8.488V35.046a8.5,8.5,0,0,0-8.488-8.488H84.445Z" fill="#3fc8e8"/>
                <path id="Path_57917" data-name="Path 57917" d="M128.184,63.686a8.5,8.5,0,0,0-8.488,8.488V85.459a8.5,8.5,0,0,0,8.488,8.488h13.286a8.5,8.5,0,0,0,8.488-8.488V72.174a8.5,8.5,0,0,0-8.488-8.488Z" fill="#3fc8e8"/>
                <g id="Group_76666" data-name="Group 76666">
                  <path id="Path_57918" data-name="Path 57918" d="M109.168,197.41l-2.7-.023-1.195-10.653,3.983.033Z" fill="#a0616a"/>
                  <path id="Path_57919" data-name="Path 57919" d="M100.523,201.7a1.208,1.208,0,0,0,1.2,1.217l5.366.045.939-1.9.345,1.914,2.025.018-.511-6.826-.7-.047-2.873-.2-.927-.062-.016,1.931-4.311,2.924a1.206,1.206,0,0,0-.529.988Z" fill="#2f2e41"/>
                </g>
                <g id="Group_76667" data-name="Group 76667">
                  <path id="Path_57920" data-name="Path 57920" d="M122.9,197.41l-2.7-.023-1.194-10.653,3.983.033Z" fill="#a0616a"/>
                  <path id="Path_57921" data-name="Path 57921" d="M114.255,201.7a1.208,1.208,0,0,0,1.2,1.217l5.366.045.939-1.9.345,1.914,2.025.018-.511-6.826-.7-.047-2.873-.2-.927-.062-.016,1.931-4.311,2.924a1.206,1.206,0,0,0-.529.988Z" fill="#2f2e41"/>
                </g>
                <g id="Group_76668" data-name="Group 76668">
                  <path id="Path_57923" data-name="Path 57923" d="M135.317,61.784a2.794,2.794,0,0,0-.868,5.02v0l-.212,5.139,3.933,1.82.314-7.908h-.027a2.8,2.8,0,0,0-3.139-4.076Z" fill="#a0616a"/>
                  <path id="Path_57924" data-name="Path 57924" d="M113.338,80.124a4.527,4.527,0,0,1,5.923-6.819l12.349,9.3,2.2-13.394,4.724,1.521-1.127,17.441a3.525,3.525,0,0,1-5.26,2.836L114.3,80.854a4.593,4.593,0,0,1-.964-.73Z" fill="#3f3d56"/>
                </g>
                <g id="Group_76669" data-name="Group 76669">
                  <path id="Path_57925" data-name="Path 57925" d="M94.508,54.292a2.794,2.794,0,0,1-2.918,4.176l0,0-3.467,3.8-4.074-1.476,5.345-5.837.019.02a2.8,2.8,0,0,1,5.1-.685Z" fill="#a0616a"/>
                  <path id="Path_57926" data-name="Path 57926" d="M96.006,82.63,76.184,77.276a3.525,3.525,0,0,1-1.739-5.717L85.925,58.379l4.426,2.246L82.482,71.686,97.8,73.778a4.527,4.527,0,0,1-.594,9.013,4.593,4.593,0,0,1-1.2-.16Z" fill="#3f3d56"/>
                </g>
                <path id="Path_57927" data-name="Path 57927" d="M124.265,115.888,96.547,117.16c-.761-1.156-.555-2.894.511-5.071,4.025-8.219.968-23.767-1.088-31.864a3.819,3.819,0,0,1,3.3-4.763l2.613-.261,2.416-7.375h8.461l3.51,4.01,5.957,3.619c-1.084,11.169-5.7,26.94.877,34.849a5.47,5.47,0,0,1,1.157,5.584Z" fill="#3f3d56"/>
                <g id="Group_76683" data-name="Group 76683">
                  <path id="Path_57922" data-name="Path 57922" d="M98.577,111.28l10.94.345,10.364,2.3s-1.036,1.267,2.418,4.722c0,0,4.606,8.061,1.382,15.892L122.3,165.866s4.029,22.081.951,29.109l-4.069.254L112.3,166.121l-3.356-31.348-1.612,30.863S113.5,186.82,109.6,195.23l-4.407-.254-7.54-29.339s-3.225-33.857-2.764-40.306,3.685-14.05,3.685-14.05Z" fill="#2f2e41"/>
                  <circle id="Ellipse_6242" data-name="Ellipse 6242" cx="8.241" cy="8.241" r="8.241" transform="translate(99.216 51.514)" fill="#a0616a"/>
                </g>
                <path id="Path_57928" data-name="Path 57928" d="M116.783,54.48c1.147-4.18-11.35-7.765-13.779-4.4a2.649,2.649,0,0,0-2.158-.623,4.465,4.465,0,0,0-1.524.869,6.019,6.019,0,0,0-1.712,1.724,2.049,2.049,0,0,0,.076,2.3c.426.49,1.174,3.1,1.814,3.225.446.091.822.164,1.145.217.288-.42,1.022-.947.969-1.455.435.288.276.794.188,1.311-.292,1.723-6.865,15.061-3.1,11.13a7.89,7.89,0,0,0,1.365.614,17.17,17.17,0,0,0,2.129-4.639l0,.031a3.658,3.658,0,0,0,2.641,3.061c5.651,1.637,10.223-.765,11.8-5.1-.576-1.169-.826-1.042-.775-1.076a1.353,1.353,0,0,1,2.015.642c.091.239.174.443.246.6.819-2.931,1.794-2.508-1.339-8.427Z" fill="#2f2e41"/>
                <path id="Path_57929" data-name="Path 57929" d="M112.884,51.447l-.577-2.951a1.177,1.177,0,0,1,.017-.744.8.8,0,0,1,.835-.366c.321.046.562.34.882.4,1.112.2,2.582-.9,2.98,1.877.166,1.159,2.015,1.281,2.632,2.275a2.667,2.667,0,0,1-.149,3.242,2.542,2.542,0,0,1-2.628.392,5.714,5.714,0,0,1-2.188-1.707,19.706,19.706,0,0,0-1.874-2.082" fill="#2f2e41"/>
                <path id="Path_57930" data-name="Path 57930" d="M117.223,55.936c-2.255-.315-3.792-1.135-4.569-2.437a4.575,4.575,0,0,1-.306-3.661l.477.177a4.128,4.128,0,0,0,.269,3.228c.694,1.161,2.107,1.9,4.2,2.19l-.07.5Z" fill="#3fc8e8"/>
              </g>
              <path id="Path_57931" data-name="Path 57931" d="M127.806,24.048a12.024,12.024,0,1,1,12.024-12.024,12.038,12.038,0,0,1-12.024,12.024Zm0-19.238a7.214,7.214,0,1,0,7.214,7.214A7.222,7.222,0,0,0,127.806,4.809Z" fill="#3fc8e8"/>
              <path id="Path_57932" data-name="Path 57932" d="M146.3,32.219a2.392,2.392,0,0,1-1.644-.651L133.376,20.992a2.4,2.4,0,1,1,3.288-3.508L147.949,28.06a2.4,2.4,0,0,1-1.644,4.159Z" fill="#3fc8e8"/>
              <g id="Group_76671" data-name="Group 76671">
                <path id="Path_57933" data-name="Path 57933" d="M197.308,197.14a.9.9,0,0,0,.651-1.557l-.062-.245.024-.059a2.412,2.412,0,0,1,4.449.017,21.418,21.418,0,0,1,1.882,5.361,7.135,7.135,0,0,1-.125,2.454,28.606,28.606,0,0,0,2.6-11.881,27.614,27.614,0,0,0-.171-3.08q-.142-1.258-.394-2.5a28.938,28.938,0,0,0-5.739-12.265,7.7,7.7,0,0,1-3.2-3.323,5.875,5.875,0,0,1-.534-1.605,7.25,7.25,0,0,0,.47-2.5c.217-.33.606-.494.844-.815,1.18-1.6,2.806-1.321,3.655.854,1.813.915,1.831,2.433.718,3.893-.708.929-.805,2.186-1.426,3.18.064.082.13.161.194.243a29.124,29.124,0,0,1,3.04,4.816,12.107,12.107,0,0,1,.723-5.624,20.28,20.28,0,0,1,3.131-4.518,2.485,2.485,0,0,1,4.426,1.22l.007.064q-.254.144-.5.3a1.218,1.218,0,0,0,.491,2.217l.025,0a12.12,12.12,0,0,1-.32,1.812c1.465,5.666-1.7,7.729-6.214,7.822-.1.051-.2.1-.3.151a29.728,29.728,0,0,1,1.6,7.531,28.194,28.194,0,0,1-.02,4.553l.008-.054a7.451,7.451,0,0,1,2.543-4.3c1.957-1.608,4.723-2.2,6.834-3.492a1.4,1.4,0,0,1,2.142,1.36l-.009.056a8.181,8.181,0,0,0-.918.442q-.254.144-.5.3a1.218,1.218,0,0,0,.491,2.217l.025,0,.051.008a12.132,12.132,0,0,1-2.232,3.494c-.916,4.946-4.85,5.415-9.059,3.975h0a29.72,29.72,0,0,1-2,5.828h-7.132c-.026-.079-.049-.161-.072-.24a8.1,8.1,0,0,0,1.973-.118c-.529-.649-1.058-1.3-1.587-1.953a.444.444,0,0,1-.033-.038c-.268-.332-.539-.662-.808-.994h0a11.869,11.869,0,0,1,.348-3.024h0Z" fill="#f2f2f2"/>
                <path id="Path_57934" data-name="Path 57934" d="M0,203.529A.47.47,0,0,0,.471,204H218.256a.471.471,0,0,0,0-.942H.471A.47.47,0,0,0,0,203.529Z" fill="#ccc"/>
              </g>
            </g>
          </g>
        </g>
      </g>
    </g>
  </g>
</svg>
