<svg id="Group_76610" data-name="Group 76610" xmlns="http://www.w3.org/2000/svg" width="16" height="16" viewBox="0 0 16 16">
  <rect id="Bounding_box" data-name="Bounding box" width="16" height="16" fill="none" opacity="0"/>
  <path id="Icon_color" data-name="Icon color" d="M14.832,16a.48.48,0,0,1-.344-.144l-2.424-2.429a2.526,2.526,0,0,1-.291-.349l-.727-.97A6.811,6.811,0,0,1,6.809,13.59H6.787A6.8,6.8,0,0,1,3.85.669,6.78,6.78,0,0,1,12.108,2.58a6.8,6.8,0,0,1-.045,8.486l.97.669a2.4,2.4,0,0,1,.417.34L15.874,14.5a.486.486,0,0,1-.019.67l-.679.679A.486.486,0,0,1,14.832,16ZM6.809,1.942A4.855,4.855,0,1,0,11.657,6.8,4.856,4.856,0,0,0,6.809,1.942Z" transform="translate(0.001)" fill="#3fc8e8"/>
</svg>
