<svg xmlns="http://www.w3.org/2000/svg" width="16" height="15.996" viewBox="0 0 16 15.996">
  <path id="Icon_color" data-name="Icon color" d="M14.832,16a.484.484,0,0,1-.345-.143l-2.424-2.429a2.521,2.521,0,0,1-.291-.349l-.727-.97A6.814,6.814,0,0,1,6.809,13.59H6.786A6.8,6.8,0,0,1,0,6.814V6.772A6.8,6.8,0,0,1,3.85.669,6.78,6.78,0,0,1,12.109,2.58a6.8,6.8,0,0,1-.045,8.486l.97.67a2.4,2.4,0,0,1,.417.339L15.874,14.5a.483.483,0,0,1,.124.315v.017a.482.482,0,0,1-.144.337l-.679.679A.487.487,0,0,1,14.832,16ZM6.809,1.941a4.854,4.854,0,1,0,4.847,4.854A4.856,4.856,0,0,0,6.809,1.941Z" transform="translate(0.002 0)" fill="#3fc8e8"/>
</svg>
