<svg xmlns="http://www.w3.org/2000/svg" xmlns:xlink="http://www.w3.org/1999/xlink" width="20" height="20" viewBox="0 0 20 20">
  <defs>
    <clipPath id="clip-path">
      <rect id="Rectangle_364" data-name="Rectangle 364" width="20" height="20" fill="#242424"/>
    </clipPath>
  </defs>
  <g id="Mask_Group_356" data-name="Mask Group 356" clip-path="url(#clip-path)">
    <path id="Path_518" data-name="Path 518" d="M16.081,12.221a3.878,3.878,0,0,0-3.2,1.687L7.468,11.459a3.815,3.815,0,0,0,0-2.906l5.41-2.461a3.884,3.884,0,1,0-.688-2.2,3.865,3.865,0,0,0,.067.655L6.509,7.16A3.888,3.888,0,1,0,6.5,12.849l5.767,2.606a3.951,3.951,0,0,0-.066.654,3.885,3.885,0,1,0,3.884-3.888Zm0-10.555a2.222,2.222,0,1,1-2.219,2.222,2.221,2.221,0,0,1,2.219-2.222ZM3.874,12.221A2.222,2.222,0,1,1,6.093,10a2.221,2.221,0,0,1-2.219,2.222Zm12.208,6.11a2.222,2.222,0,1,1,2.22-2.222,2.221,2.221,0,0,1-2.22,2.222Z" transform="translate(0.033 0.001)" fill="#242424"/>
  </g>
</svg>
