<svg xmlns="http://www.w3.org/2000/svg" xmlns:xlink="http://www.w3.org/1999/xlink" width="16" height="16" viewBox="0 0 16 16">
  <defs>
    <clipPath id="clip-path">
      <rect id="Rectangle_7003" data-name="Rectangle 7003" width="16" height="16" fill="none"/>
    </clipPath>
  </defs>
  <g id="Icon_" data-name="Icon " transform="translate(-1442 -847)">
    <rect id="Rectangle_7005" data-name="Rectangle 7005" width="16" height="16" transform="translate(1442 847)" fill="none"/>
    <g id="Group_76288" data-name="Group 76288" transform="translate(1442 847)">
      <g id="Mask_Group_364" data-name="Mask Group 364" clip-path="url(#clip-path)">
        <path id="shopping_bag_FILL1_wght400_GRAD0_opsz48" d="M4.2,18a1.151,1.151,0,0,1-.84-.36A1.151,1.151,0,0,1,3,16.8V6.4a1.151,1.151,0,0,1,.36-.84A1.151,1.151,0,0,1,4.2,5.2H7.4V5a2.971,2.971,0,0,1,3-3,2.971,2.971,0,0,1,3,3v.2h3.2a1.23,1.23,0,0,1,1.2,1.2V16.8A1.23,1.23,0,0,1,16.6,18ZM8,8.8a.581.581,0,0,0,.6-.6V6.4H7.4V8.2a.581.581,0,0,0,.6.6Zm.6-3.6h3.6V5A1.81,1.81,0,0,0,9.12,3.72,1.74,1.74,0,0,0,8.6,5Zm4.2,3.6a.581.581,0,0,0,.6-.6V6.4H12.2V8.2a.581.581,0,0,0,.6.6Z" transform="translate(-2.4 -2)" fill="#bfd4d9"/>
      </g>
    </g>
  </g>
</svg>
