<svg xmlns="http://www.w3.org/2000/svg" xmlns:xlink="http://www.w3.org/1999/xlink" width="24" height="24" viewBox="0 0 24 24">
  <defs>
    <clipPath id="clip-path">
      <rect id="back" width="24" height="24" transform="translate(323 17)" fill="#113740"/>
    </clipPath>
  </defs>
  <g id="Icon" transform="translate(-323 -17)" clip-path="url(#clip-path)">
    <path id="language_FILL1_wght400_GRAD0_opsz48" d="M14,26a11.76,11.76,0,0,1-4.71-.945A12.118,12.118,0,0,1,5.48,22.49a11.87,11.87,0,0,1-2.55-3.825A12.033,12.033,0,0,1,2,13.94a11.815,11.815,0,0,1,.93-4.695,11.957,11.957,0,0,1,2.55-3.8A11.712,11.712,0,0,1,9.29,2.915,12.093,12.093,0,0,1,14,2a12.093,12.093,0,0,1,4.71.915A11.712,11.712,0,0,1,22.52,5.45a11.957,11.957,0,0,1,2.55,3.8A11.815,11.815,0,0,1,26,13.94a12.033,12.033,0,0,1-.93,4.725,11.87,11.87,0,0,1-2.55,3.825,12.118,12.118,0,0,1-3.81,2.565A11.76,11.76,0,0,1,14,26Zm0-1.74a9.985,9.985,0,0,0,1.755-2.475A14.9,14.9,0,0,0,16.91,18.47H11.12a15.215,15.215,0,0,0,1.125,3.24A10.224,10.224,0,0,0,14,24.26Zm-2.55-.36a14.343,14.343,0,0,1-1.29-2.46,17.972,17.972,0,0,1-.9-2.97H4.76A10.759,10.759,0,0,0,7.4,21.815,13.181,13.181,0,0,0,11.45,23.9Zm5.13-.03a12.011,12.011,0,0,0,3.885-2.07,10.745,10.745,0,0,0,2.775-3.33H18.77a21.732,21.732,0,0,1-.915,2.94A13.618,13.618,0,0,1,16.58,23.87ZM4.16,16.67H8.93q-.09-.81-.1-1.455T8.81,13.94q0-.75.03-1.335t.12-1.3H4.16a8.748,8.748,0,0,0-.285,1.29A10.513,10.513,0,0,0,3.8,13.94a11.624,11.624,0,0,0,.075,1.4A8.457,8.457,0,0,0,4.16,16.67Zm6.63,0h6.45q.12-.93.15-1.515t.03-1.215q0-.6-.03-1.155T17.24,11.3H10.79q-.12.93-.15,1.485t-.03,1.155q0,.63.03,1.215t.15,1.515Zm8.25,0h4.8a8.457,8.457,0,0,0,.285-1.335,11.623,11.623,0,0,0,.075-1.4,10.513,10.513,0,0,0-.075-1.35,8.747,8.747,0,0,0-.285-1.29H19.07q.09,1.05.12,1.6t.03,1.035q0,.66-.045,1.245c-.03.39-.135,1.485-.135,1.485Zm-.3-7.17h4.5a9.72,9.72,0,0,0-2.715-3.45A10.345,10.345,0,0,0,16.55,4.1a13.076,13.076,0,0,1,1.275,2.4,19.511,19.511,0,0,1,.915,3Zm-7.62,0h5.82a11.7,11.7,0,0,0-1.11-3.075A12.273,12.273,0,0,0,14,3.8a6.6,6.6,0,0,0-1.62,2.13A19.371,19.371,0,0,0,11.12,9.5Zm-6.36,0H9.29a16.886,16.886,0,0,1,.84-2.9A14.243,14.243,0,0,1,11.42,4.13,9.9,9.9,0,0,0,4.76,9.5Z" transform="translate(321 15)" fill="#113740"/>
  </g>
</svg>
